<svg width="836" height="558" viewBox="0 0 836 558" fill="none" xmlns="http://www.w3.org/2000/svg">
<path d="M76.8235 548.636C119.252 548.636 153.647 514.241 153.647 471.812C153.647 429.384 119.252 394.989 76.8235 394.989C34.3951 394.989 0 429.384 0 471.812C0 514.241 34.3951 548.636 76.8235 548.636Z" fill="#CDFFE6"/>
<path fill-rule="evenodd" clip-rule="evenodd" d="M739.233 519.358C735.795 513.557 732.117 506.302 728.201 497.592L725.617 498.747C722.866 499.976 719.631 498.934 718.115 496.329C716.568 493.669 717.122 490.285 719.437 488.257L722.886 485.236C716.44 469.629 709.411 450.474 701.799 427.769L745.463 261.368C740.429 351.546 743.384 415.085 754.328 451.986C770.743 507.338 789.128 545.392 805.543 540.549C816.487 537.32 826.555 542.97 835.748 557.5C829.619 557.5 819.551 557.5 805.543 557.5C798.543 557.5 765.276 551.689 746.902 530.351L742.689 532.234C739.938 533.464 736.702 532.421 735.187 529.816C733.64 527.156 734.193 523.772 736.508 521.744L739.233 519.358ZM638.88 280.738L649.927 354.935C598.991 387.667 566.488 401.347 552.42 395.974C531.317 387.914 521.266 364.332 499.891 316.852C485.891 285.753 468.532 222.882 447.816 128.239C447.159 125.241 446.242 122.306 445.073 119.468C439.881 106.862 442.395 101.961 452.615 104.767C469.359 109.363 535.95 309.501 562.167 317.001C579.644 322.001 605.216 309.913 638.88 280.738Z" fill="#005FD5"/>
<mask id="mask0" mask-type="alpha" maskUnits="userSpaceOnUse" x="275" y="27" width="497" height="529">
<path d="M324.184 172.133C323.099 171.803 322.065 171.563 321.083 171.413C309.696 169.676 297.628 169.896 284.879 172.073C281.703 172.616 278.505 171.238 276.716 168.558C275.312 166.453 275.88 163.609 277.984 162.205C278.215 162.051 278.459 161.918 278.714 161.809C294.266 155.108 306.966 152.64 316.813 154.405C333.135 157.33 394.812 174.638 419.187 224.098C443.562 273.557 476.691 351.293 496.062 373.226C515.432 395.159 553.98 430.814 579.345 405.443C596.255 388.529 613.119 350.188 629.936 290.419L570.999 122.042C560.055 90.776 574.114 56.2547 603.788 41.5307C608.2 39.3412 612.238 37.4385 615.901 35.8225C626.143 31.3039 655.561 28.4955 704.155 27.3975C740.41 26.5782 770.464 55.3041 771.283 91.5585C771.369 95.3347 771.128 99.1112 770.564 102.846L746.935 259.319C742.28 281.072 738.912 296.876 736.832 306.731C723.408 370.337 714.574 415.022 710.33 440.786C709.467 446.027 702.033 508.254 674.668 534.19C647.302 560.126 577.215 564.758 512.186 534.345C486.147 522.166 450.242 490.215 411.695 470.171C397.098 462.58 382.398 457.666 368.196 457.881C326.245 458.515 308.915 515.86 297.445 513.507C280.373 510.005 274.463 501.031 279.716 486.586C319.644 443.81 352.655 424.44 378.748 428.476C422.87 435.301 498.659 487.898 527.186 493.128C561.122 499.35 608.639 494.43 624.686 477.391C634.314 467.168 647.619 435.741 664.602 383.113L664.527 383.089C664.737 382.44 664.38 381.744 663.732 381.535C663.143 381.345 662.505 381.62 662.239 382.178C641.53 425.559 626.138 451.676 616.061 460.53C578.687 493.367 536.108 483.436 503.561 466.525C491.361 460.185 479.065 448.171 466.673 430.483L462.319 432.429C459.567 433.659 456.332 432.616 454.816 430.011C453.269 427.351 453.823 423.967 456.138 421.939L459.245 419.218C454.141 411.025 449.021 401.875 443.886 391.768L440.222 392.42C437.255 392.947 434.367 391.153 433.527 388.258C432.669 385.303 434.025 382.154 436.762 380.746L438.125 380.045C437.063 377.813 436 375.54 434.937 373.226L427.659 350.791L422.493 351.71C419.526 352.237 416.639 350.443 415.799 347.549C414.941 344.593 416.297 341.444 419.034 340.036L423.436 337.772L414.221 309.363L408.704 310.343C405.737 310.871 402.85 309.076 402.01 306.182C401.152 303.227 402.508 300.077 405.245 298.67L409.965 296.243L391.147 238.231C388.04 228.652 382.771 219.916 375.748 212.699C373.052 209.929 370.436 207.297 367.898 204.805L363.305 208.152C360.869 209.927 357.487 209.579 355.464 207.347C353.397 205.066 353.235 201.641 355.078 199.177L357.934 195.356C349.993 188.123 342.982 182.517 336.9 178.536L332.021 184.368C330.087 186.679 326.721 187.16 324.218 185.483C321.661 183.77 320.675 180.486 321.867 177.649L324.184 172.133Z" fill="white"/>
</mask>
<g mask="url(#mask0)">
<path d="M324.239 171.752C323.153 171.422 322.119 171.182 321.137 171.032C309.75 169.295 297.682 169.515 284.934 171.693C281.757 172.235 278.559 170.858 276.771 168.178C275.367 166.073 275.934 163.229 278.039 161.825C278.27 161.671 278.514 161.538 278.769 161.428C294.321 154.727 307.02 152.259 316.867 154.024C333.19 156.95 394.867 174.258 419.242 223.717C443.617 273.177 476.746 350.913 496.116 372.846C515.487 394.779 554.034 430.433 579.399 405.062C596.31 388.149 613.173 349.807 629.99 290.038L571.054 121.661C560.11 90.3956 574.169 55.8743 603.842 41.1504C608.255 38.9609 612.293 37.0581 615.956 35.4421C626.198 30.9235 655.616 28.1152 704.21 27.0171C740.465 26.1979 770.519 54.9237 771.338 91.1781C771.423 94.9543 771.183 98.7308 770.619 102.466L746.99 258.939C742.334 280.692 738.966 296.496 736.887 306.351C723.462 369.956 714.629 414.641 710.385 440.405C709.522 445.646 702.088 507.874 674.722 533.81C647.357 559.746 577.27 564.378 512.241 533.964C486.202 521.786 450.296 489.834 411.75 469.79C397.153 462.2 382.453 457.285 368.251 457.5C326.3 458.135 308.97 515.48 297.499 513.127C280.427 509.625 274.518 500.651 279.771 486.206C319.699 443.429 352.71 424.059 378.803 428.096C422.924 434.921 498.713 487.518 527.241 492.748C561.177 498.97 608.694 494.05 624.74 477.011C634.368 466.787 647.674 435.361 664.657 382.732L664.582 382.708C664.791 382.059 664.435 381.364 663.786 381.155C663.198 380.965 662.56 381.24 662.294 381.797C641.585 425.179 626.192 451.296 616.116 460.149C578.742 492.986 536.163 483.056 503.616 466.145C491.415 459.805 479.119 447.791 466.728 430.103L462.373 432.049C459.622 433.278 456.386 432.235 454.871 429.631C453.324 426.971 453.877 423.587 456.192 421.559L459.3 418.837C454.196 410.644 449.076 401.495 443.94 391.388L440.276 392.039C437.309 392.567 434.422 390.772 433.582 387.878C432.724 384.923 434.08 381.773 436.817 380.366L438.18 379.665C437.118 377.433 436.055 375.16 434.992 372.846L427.714 350.411L422.548 351.33C419.581 351.857 416.694 350.062 415.853 347.168C414.995 344.213 416.351 341.064 419.088 339.656L423.491 337.392L414.275 308.982L408.759 309.963C405.792 310.491 402.905 308.696 402.065 305.802C401.207 302.846 402.563 299.697 405.299 298.29L410.019 295.862L391.201 237.851C388.094 228.272 382.825 219.536 375.802 212.319C373.107 209.549 370.49 206.917 367.953 204.424L363.359 207.772C360.924 209.546 357.542 209.199 355.518 206.966C353.451 204.686 353.29 201.261 355.133 198.796L357.989 194.976C350.048 187.743 343.037 182.136 336.955 178.156L332.075 183.987C330.142 186.298 326.776 186.779 324.272 185.103C321.715 183.39 320.73 180.106 321.922 177.269L324.239 171.752Z" fill="#005FD5"/>
<path fill-rule="evenodd" clip-rule="evenodd" d="M602.849 80.7375L604.902 86.2173C610.476 101.098 627.058 108.643 641.939 103.068C647.266 101.073 651.882 97.5432 655.203 92.9253L662.323 83.0272C663.382 81.5552 665.433 81.2203 666.905 82.2791C668.24 83.2395 668.659 85.0397 667.884 86.4906L656.669 107.496C649.741 120.47 654.643 136.604 667.617 143.532C671.945 145.843 676.827 146.914 681.725 146.626L698.689 145.628C700.499 145.521 702.052 146.902 702.159 148.712C702.25 150.254 701.254 151.65 699.767 152.067L677.689 158.248C664 162.081 656.01 176.286 659.843 189.975C661.243 194.974 664.121 199.432 668.1 202.766L695.083 225.37C696.473 226.534 696.656 228.605 695.491 229.994C694.7 230.939 693.446 231.361 692.244 231.087L675.323 227.225C662.954 224.401 650.638 232.14 647.815 244.509C647.312 246.713 647.137 248.979 647.295 251.235L648.829 273.008C648.956 274.817 647.593 276.387 645.785 276.514C644.439 276.609 643.173 275.871 642.591 274.654L629.741 247.745C627.476 243.001 621.793 240.992 617.049 243.258C613.739 244.838 611.632 248.18 611.632 251.847L566.326 149.416V114.287C575.311 121.255 588.244 119.618 595.211 110.633C598.978 105.774 600.376 99.4871 599.024 93.4901L596.572 82.6112C596.173 80.8424 597.284 79.0852 599.053 78.6865C600.653 78.3258 602.274 79.2014 602.849 80.7375ZM420.771 484.288L298.641 503.658L269.75 468.857L304.879 438.653L369.883 411.732L556.361 491.511C540.353 492.878 521.53 491.455 499.892 487.243C478.254 483.03 451.88 482.045 420.771 484.288ZM688.127 193.409C684.138 193.409 680.904 190.175 680.904 186.186C680.904 182.197 684.138 178.964 688.127 178.964C692.116 178.964 695.35 182.197 695.35 186.186C695.35 190.175 692.116 193.409 688.127 193.409ZM676.965 127.091C672.976 127.091 669.742 123.858 669.742 119.869C669.742 115.88 672.976 112.646 676.965 112.646C680.954 112.646 684.187 115.88 684.187 119.869C684.187 123.858 680.954 127.091 676.965 127.091ZM631.002 89.0079C627.013 89.0079 623.779 85.7742 623.779 81.7852C623.779 77.7962 627.013 74.5625 631.002 74.5625C634.991 74.5625 638.225 77.7962 638.225 81.7852C638.225 85.7742 634.991 89.0079 631.002 89.0079ZM579.13 103.453C575.141 103.453 571.907 100.22 571.907 96.2307C571.907 92.2417 575.141 89.0079 579.13 89.0079C583.119 89.0079 586.352 92.2417 586.352 96.2307C586.352 100.22 583.119 103.453 579.13 103.453Z" fill="#005FD5"/>
</g>
<path d="M300.071 326.701H297.444C294.543 326.701 292.191 329.053 292.191 331.954V350.339C292.191 353.24 294.543 355.592 297.444 355.592H300.071C302.972 355.592 305.324 353.24 305.324 350.339V331.954C305.324 329.053 302.972 326.701 300.071 326.701Z" fill="#E0C37C"/>
<path d="M286.611 324.403H282.015C279.114 324.403 276.762 326.755 276.762 329.656V353.951C276.762 356.852 279.114 359.203 282.015 359.203H286.611C289.512 359.203 291.864 356.852 291.864 353.951V329.656C291.864 326.755 289.512 324.403 286.611 324.403Z" fill="#D8D8D8" stroke="#979797"/>
<path fill-rule="evenodd" clip-rule="evenodd" d="M74.5235 432.416H78.4631C81.0016 432.416 83.0594 434.473 83.0594 437.012V448.831H69.9272V437.012C69.9272 434.473 71.985 432.416 74.5235 432.416ZM62.1208 487.571L90.8475 487.639L99.1464 506.024C89.2242 506.776 81.6732 507.152 76.4933 507.152C71.3134 507.152 63.5435 506.776 53.1836 506.024L62.1208 487.571Z" fill="#F6D890"/>
<path d="M488.086 21.0834C488.288 15.5973 488.284 11.5367 488.075 8.90142C487.943 7.24158 487.893 5.01624 487.924 2.2254C487.93 1.71297 488.233 1.25069 488.701 1.04142C489.363 0.745247 490.14 1.04184 490.436 1.70386L491.74 4.61891C491.938 5.0613 492.254 5.44031 492.654 5.71398C493.852 6.53308 495.486 6.22661 496.305 5.02947L499.355 0.571681C499.623 0.179743 500.082 -0.0368756 500.555 0.00517194C501.278 0.0693874 501.811 0.707085 501.747 1.42951L501.233 7.20819C501.202 7.56735 501.244 7.92923 501.358 8.27129C501.817 9.6474 503.304 10.3911 504.68 9.9324L507.644 8.94456C508.057 8.80663 508.513 8.88316 508.859 9.14881C509.434 9.59052 509.542 10.4149 509.101 10.9902L498.712 24.5195L451.712 155.585C449.995 160.376 447.218 164.717 443.589 168.284C430.271 181.378 408.861 181.196 395.768 167.878L383.33 155.227C383.206 155.101 383.08 154.976 382.953 154.853C373.975 146.139 359.634 146.354 350.921 155.332L273.873 234.723L265.862 226.949L342.91 147.558C355.917 134.156 377.325 133.836 390.727 146.842C390.917 147.027 391.105 147.213 391.29 147.402L403.728 160.053C412.499 168.974 426.842 169.096 435.763 160.325C438.194 157.935 440.054 155.027 441.205 151.818L488.086 21.0834V21.0834ZM191.092 229.719C193.321 227.59 196.854 227.672 198.983 229.901C201.111 232.131 201.029 235.663 198.8 237.792L153.493 281.05C145.618 288.569 145.33 301.047 152.848 308.922C153.258 309.351 153.687 309.762 154.133 310.152C164.053 318.822 178.814 318.957 188.892 310.471L273.756 239.007C276.113 237.022 279.634 237.323 281.62 239.681C283.605 242.039 283.303 245.56 280.946 247.545L196.082 319.01C181.79 331.045 160.856 330.852 146.788 318.557C146.088 317.945 145.416 317.303 144.775 316.631C132.999 304.297 133.451 284.752 145.785 272.976L191.092 229.719Z" fill="#BEA465"/>
<path d="M76.4933 370.038C85.7405 370.038 93.2369 377.534 93.2369 386.781V448.831C93.2369 451.732 90.8851 454.084 87.984 454.084H65.0026C62.1015 454.084 59.7497 451.732 59.7497 448.831V386.781C59.7497 377.534 67.2461 370.038 76.4933 370.038ZM86.0141 386.781C86.0141 381.523 81.7515 377.26 76.4933 377.26C71.2351 377.26 66.9724 381.523 66.9724 386.781V446.861H86.0141V386.781ZM54.7802 504.538C62.1663 506.061 69.404 506.823 76.4933 506.823C83.5556 506.823 90.5762 506.067 97.5551 504.555C98.2639 504.401 98.963 504.852 99.1166 505.56C99.1364 505.652 99.1464 505.745 99.1464 505.838V506.173C99.1464 506.942 98.6125 507.608 97.862 507.775C90.8905 509.329 83.7676 510.106 76.4933 510.106C69.2003 510.106 61.8643 509.325 54.4852 507.763C53.7264 507.603 53.1836 506.933 53.1836 506.158V505.838C53.1836 505.105 53.7782 504.51 54.5118 504.51C54.6019 504.51 54.6919 504.519 54.7802 504.538Z" fill="#E0C37C"/>
<path fill-rule="evenodd" clip-rule="evenodd" d="M67.6298 446.204H85.3583C94.0615 446.204 101.117 453.26 101.117 461.963V478.031C101.117 485.981 95.1957 492.685 87.3071 493.669C83.0449 494.2 79.55 494.465 76.8223 494.465C73.998 494.465 70.2879 494.181 65.692 493.611C57.7984 492.633 51.8711 485.926 51.8711 477.972V461.963C51.8711 453.26 58.9265 446.204 67.6298 446.204Z" fill="#62BE90"/>
<path fill-rule="evenodd" clip-rule="evenodd" d="M64.6778 456.453C66.6723 456.453 68.2891 458.07 68.2891 460.065V480.42C68.2891 482.414 66.6723 484.031 64.6778 484.031C62.6833 484.031 61.0664 482.414 61.0664 480.42V460.065C61.0664 458.07 62.6833 456.453 64.6778 456.453ZM76.4968 454.883C78.4913 454.883 80.1081 456.5 80.1081 458.494V482.132C80.1081 484.127 78.4913 485.744 76.4968 485.744C74.5023 485.744 72.8854 484.127 72.8854 482.132V458.494C72.8854 456.5 74.5023 454.883 76.4968 454.883ZM88.3158 456.453C90.3103 456.453 91.9271 458.07 91.9271 460.065V480.42C91.9271 482.414 90.3103 484.031 88.3158 484.031C86.3213 484.031 84.7044 482.414 84.7044 480.42V460.065C84.7044 458.07 86.3213 456.453 88.3158 456.453Z" fill="#90F6C3"/>
<path fill-rule="evenodd" clip-rule="evenodd" d="M609.785 104.767C634.423 125.663 648.518 144.049 652.067 159.922C655.616 175.795 650.918 199.433 637.973 230.836C612.892 210.121 598.63 192.064 595.187 176.666C591.744 161.267 596.61 137.301 609.785 104.767Z" fill="white"/>
<path fill-rule="evenodd" clip-rule="evenodd" d="M610.18 150.96L612.585 150.501C613.826 150.264 615.025 151.073 615.27 152.312L623.216 192.445C623.463 193.69 622.654 194.899 621.408 195.146C621.403 195.147 621.398 195.148 621.393 195.149L618.988 195.608C617.747 195.845 616.548 195.036 616.303 193.797L608.357 153.663C608.11 152.418 608.92 151.209 610.165 150.963C610.17 150.962 610.175 150.961 610.18 150.96Z" fill="#737373"/>
<path fill-rule="evenodd" clip-rule="evenodd" d="M444.647 102.052C459.046 95.9521 468.16 96.5286 471.988 103.782C473.529 106.701 480.682 119.113 478.226 119.869C475.98 120.56 455.245 109.035 450.977 109.035C448.131 109.035 447.475 116.257 449.007 130.703C444.518 120.464 441.782 113.569 440.799 110.019C439.9 106.774 441.547 103.366 444.647 102.052V102.052Z" fill="#90F6C3"/>
<mask id="mask1" mask-type="alpha" maskUnits="userSpaceOnUse" x="105" y="219" width="307" height="335">
<path d="M217.729 275.179L280.002 250.435L271.505 230.836L307.456 233.806C313.577 234.311 319.739 233.955 325.761 232.749L394.292 219.017L411.692 257.429L388.711 274.172C373.827 284.897 355.442 290.259 333.555 290.259C323.02 290.259 314.665 290.057 308.491 289.651L317.796 334.252L224.886 341.661L213.606 319.967C205.55 327.67 198.805 333.089 193.369 336.222C179.782 344.054 161.472 349.941 157.156 351.79C150.218 354.763 141.278 359.094 130.334 364.785C113.7 344.649 105.383 334.581 105.383 334.581C105.383 334.581 111.292 329.765 123.111 320.135L153.972 299.452L175.764 268.948C180.546 262.255 186.543 256.52 193.443 252.041L221.275 233.976L217.729 275.179ZM231.538 349.694L317.796 334.252C319.915 349.911 320.243 367.53 318.781 387.11C317.32 406.689 316.335 424.527 315.827 440.623C319.547 449.597 323.706 457.367 328.302 463.933C332.899 470.499 336.729 476.518 339.793 481.99L370.982 525.983L364.088 534.847L318.781 553.889L317.796 541.741L315.827 534.19L270.937 468.944C263.396 457.983 259.363 444.99 259.371 431.686L259.395 393.326L219.305 443.906C222.229 456.831 223.98 466.789 224.558 473.782C225.136 480.775 224.796 487.884 223.538 495.108L224.688 509.019V553.727H133.289L133.332 543.495C133.372 534.213 139.886 526.219 148.968 524.304L171.992 519.451L169.974 497.584C167.595 490.063 166.092 482.895 165.463 476.08C165.045 471.554 164.403 460.57 163.536 443.128C162.551 423.306 170.585 404.101 185.391 390.885L231.538 349.694Z" fill="white"/>
</mask>
<g mask="url(#mask1)">
<path d="M217.729 275.179L280.002 250.435L271.505 230.836L307.456 233.806C313.577 234.311 319.739 233.955 325.761 232.749L394.292 219.017L411.692 257.429L388.711 274.172C373.827 284.897 355.442 290.259 333.555 290.259C323.02 290.259 314.665 290.057 308.491 289.651L317.796 334.252L224.886 341.661L213.606 319.967C205.55 327.67 198.805 333.089 193.369 336.222C179.782 344.054 161.472 349.941 157.156 351.79C150.218 354.763 141.278 359.094 130.334 364.785C113.7 344.649 105.383 334.581 105.383 334.581C105.383 334.581 111.292 329.765 123.111 320.135L153.972 299.452L175.764 268.948C180.546 262.255 186.543 256.52 193.443 252.041L221.275 233.976L217.729 275.179ZM231.538 349.694L317.796 334.252C319.915 349.911 320.243 367.53 318.781 387.11C317.32 406.689 316.335 424.527 315.827 440.623C319.547 449.597 323.706 457.367 328.302 463.933C332.899 470.499 336.729 476.518 339.793 481.99L370.982 525.983L364.088 534.847L318.781 553.889L317.796 541.741L315.827 534.19L270.937 468.944C263.396 457.983 259.363 444.99 259.371 431.686L259.395 393.326L219.305 443.906C222.229 456.831 223.98 466.789 224.558 473.782C225.136 480.775 224.796 487.884 223.538 495.108L224.688 509.019V553.727H133.289L133.332 543.495C133.372 534.213 139.886 526.219 148.968 524.304L171.992 519.451L169.974 497.584C167.595 490.063 166.092 482.895 165.463 476.08C165.045 471.554 164.403 460.57 163.536 443.128C162.551 423.306 170.585 404.101 185.391 390.885L231.538 349.694Z" fill="#E8E5DE"/>
<path fill-rule="evenodd" clip-rule="evenodd" d="M166.776 497.42L227.841 494.465V555.859L140.84 557.5L150.032 522.371L170.387 514.164L166.776 497.42ZM341.763 478.707L386.412 541.085C336.729 552.247 311.449 557.828 310.574 557.828C309.698 557.828 304.008 538.896 293.502 501.032L341.763 478.707Z" fill="#737373"/>
</g>
<path fill-rule="evenodd" clip-rule="evenodd" d="M197.311 220.33L186.7 232.709C185.976 233.554 185.863 234.764 186.418 235.729L190.47 242.766C191.174 243.988 192.716 244.436 193.965 243.782L205.518 237.73L197.311 220.33Z" fill="#737373"/>
<path fill-rule="evenodd" clip-rule="evenodd" d="M409.353 265.322L390.106 217.357C394.606 213.351 398.116 210.995 400.636 210.287C405.725 208.856 412.329 211.381 415.266 209.733C422.943 205.424 420.105 199.052 438.906 190.047C457.707 181.042 460.374 180.228 474.672 181.28C485.445 182.072 486.455 187.644 476.115 195.51C472.731 198.085 455.087 206.118 453.37 207.437C448.728 211.002 446.123 215.242 445.556 220.158L461.057 216.941C463.242 216.487 465.406 217.801 466.012 219.949C466.654 222.224 465.715 224.65 463.708 225.899C451.674 233.391 442.18 237.996 435.226 239.715C432.958 240.276 430.599 241.43 428.147 243.178C426.028 244.69 426.308 251.216 422.709 255.559C420.763 257.908 416.311 261.162 409.353 265.322ZM137.56 361.502C133.89 365.73 130.716 368.575 128.04 370.037C123.09 372.742 120.078 368.902 118.19 370.694C116.007 372.767 113.026 376.72 112.281 378.902C109.217 387.875 102.869 393.894 93.2392 396.959V386.781L92.6233 382.81C91.7722 379.802 90.336 381.125 88.3146 386.781C87.4785 389.12 86.673 392.362 86.0164 396.959C85.5035 400.549 72.5559 401.226 64.3483 398.272C59.6926 396.596 60.6274 390.128 59.752 386.781C58.5831 382.311 57.2284 380.108 64.3341 370.537C72.6188 359.379 80.5637 352.896 88.1688 351.088C91.4899 349.626 93.946 347.954 95.5373 346.071C97.3108 343.973 97.8079 339.877 98.8204 337.864C99.9963 335.525 103.17 332.57 108.341 328.999L137.56 361.502Z" fill="#737373"/>
<mask id="mask2" mask-type="alpha" maskUnits="userSpaceOnUse" x="181" y="134" width="119" height="165">
<path d="M196.999 248.137C189.123 220.959 184.85 202.716 184.181 193.409C184.109 192.399 183.879 191.269 183.492 190.021C176.694 168.086 188.56 144.72 210.282 137.269C213.325 136.225 216.476 135.528 219.675 135.192C243.131 132.727 264.145 149.743 266.61 173.2L272.171 226.108L276.624 225.173C279.655 225.223 281.985 225.397 283.613 225.695C285.242 225.993 287.715 226.698 291.031 227.809C294.584 228.068 297.028 228.667 298.363 229.605C299.698 230.543 300.069 231.922 299.476 233.742L294.364 235.106C290.469 237.163 287.83 239.232 286.445 241.313C275.931 257.116 269.065 271.7 262.988 277.591C252.071 288.172 247.628 294.577 230.262 297.24C212.896 299.903 208.295 298.327 196.882 287.728C189.274 280.662 185.259 270.672 184.838 257.757C190.043 253.973 193.787 251.073 196.067 249.058C196.402 248.763 196.712 248.456 196.999 248.137Z" fill="white"/>
</mask>
<g mask="url(#mask2)">
<path d="M196.999 248.137C189.123 220.959 184.85 202.716 184.181 193.409C184.109 192.399 183.879 191.269 183.492 190.021C176.694 168.086 188.56 144.72 210.282 137.269C213.325 136.225 216.476 135.528 219.675 135.192C243.131 132.727 264.145 149.743 266.61 173.2L272.171 226.108L276.624 225.173C279.655 225.223 281.985 225.397 283.613 225.695C285.242 225.993 287.715 226.698 291.031 227.809C294.584 228.068 297.028 228.667 298.363 229.605C299.698 230.543 300.069 231.922 299.476 233.742L294.364 235.106C290.469 237.163 287.83 239.232 286.445 241.313C275.931 257.116 269.065 271.7 262.988 277.591C252.071 288.172 247.628 294.577 230.262 297.24C212.896 299.903 208.295 298.327 196.882 287.728C189.274 280.662 185.259 270.672 184.838 257.757C190.043 253.973 193.787 251.073 196.067 249.058C196.402 248.763 196.712 248.456 196.999 248.137Z" fill="#F6D890"/>
<path fill-rule="evenodd" clip-rule="evenodd" d="M290.944 227.491C285.702 228.321 281.699 230.413 278.934 233.766C270.414 244.101 263.514 264.302 256.778 271.061C241.757 286.133 239.217 285.981 228.993 288.709C218.769 291.438 210.382 287.901 203.841 281.777C199.481 277.694 195.626 268.035 192.278 252.798L182.867 258.742L187.5 276.939C198.15 292.328 203.475 300.022 203.475 300.022C203.475 300.022 217.301 299.921 244.954 299.717L256.882 288.094L307.483 229.112L290.944 227.491Z" fill="#E0C37C"/>
</g>
<path fill-rule="evenodd" clip-rule="evenodd" d="M251.979 201.515C241.056 207.156 227.57 202.514 221.856 191.148C216.142 179.781 220.365 165.994 231.287 160.352C242.21 154.711 255.697 159.353 261.411 170.719C267.125 182.086 262.902 195.873 251.979 201.515Z" fill="#737373"/>
<path d="M239.995 158.588C238.142 158.721 236.302 159.087 234.522 159.683L238.146 162.332L239.613 159.258C239.625 159.232 239.638 159.206 239.651 159.18C239.754 158.973 239.869 158.775 239.995 158.588ZM260.323 169.217C260.304 169.26 260.284 169.303 260.264 169.345L257.025 176.132L263.231 180.668C263.242 180.676 263.252 180.684 263.263 180.692C263.364 176.712 262.379 172.728 260.323 169.217ZM251.144 199.822C250.686 199.656 250.243 199.423 249.831 199.121L247.028 197.073L244.706 201.938C246.925 201.57 249.099 200.863 251.144 199.822ZM223.425 193.236C223.486 193.065 223.556 192.895 223.636 192.728L228.149 183.273L219.989 177.308C219.88 177.228 219.776 177.146 219.675 177.06C218.751 182.654 220.015 188.499 223.425 193.236ZM232.355 160.539C229.793 161.709 227.41 163.39 225.364 165.573C222.858 168.247 221.144 171.37 220.213 174.653C220.437 175.06 220.752 175.425 221.151 175.717L229.013 181.464L237.282 164.14L232.355 160.539ZM254.297 197.866C254.721 197.551 255.136 197.22 255.541 196.871C255.555 196.854 255.568 196.836 255.581 196.818L255.592 196.803L261.644 188.422C262.313 186.784 262.775 185.086 263.031 183.367C262.805 182.943 262.483 182.561 262.069 182.259L256.161 177.94L247.892 195.264L250.993 197.531C251.987 198.257 253.252 198.343 254.297 197.866ZM258.805 166.967C258.085 166.033 257.278 165.146 256.384 164.316C255.956 163.919 255.515 163.542 255.064 163.186L247.146 159.244C245.756 158.881 244.338 158.657 242.912 158.571C242.285 158.877 241.749 159.385 241.414 160.058C241.402 160.082 241.402 160.082 241.39 160.107L239.764 163.514L255.406 174.949L258.486 168.496C258.722 168.003 258.824 167.479 258.805 166.967ZM242.387 202.199C242.422 202.139 242.455 202.077 242.486 202.015C242.498 201.99 242.498 201.99 242.51 201.966L245.41 195.89L229.767 184.456L225.414 193.576C225.15 194.13 225.054 194.721 225.107 195.291C225.476 195.689 225.863 196.077 226.268 196.453C230.787 200.645 236.637 202.541 242.387 202.199ZM254.543 176.758L238.9 165.323L230.631 182.647L246.274 194.081L254.543 176.758ZM263.965 201.739C252.143 214.418 232.412 215.233 219.895 203.561C207.378 191.889 206.815 172.149 218.638 159.471C230.461 146.793 250.192 145.977 262.708 157.649C275.225 169.321 275.788 189.061 263.965 201.739ZM182.231 172.147L188.691 215.822C183.266 212.76 179.566 207.357 178.672 201.193L176.714 187.712C175.875 181.932 177.939 176.109 182.231 172.147Z" fill="#BEA465"/>
<path fill-rule="evenodd" clip-rule="evenodd" d="M314.186 316.852L224.887 341.803L229.155 351.981L317.798 334.252C317.394 329.742 316.957 326.35 316.484 324.075C316.012 321.8 315.246 319.392 314.186 316.852Z" fill="#E0C37C"/>
<path fill-rule="evenodd" clip-rule="evenodd" d="M302.041 465.903C305.961 466.188 307.954 467.264 308.018 469.129C308.381 479.624 308.249 486.646 307.622 490.197C303.683 512.522 302.041 512.522 293.505 514.492C277.154 518.265 271.683 510.605 277.09 491.511L302.041 465.903Z" fill="#90F6C3"/>
<path fill-rule="evenodd" clip-rule="evenodd" d="M285.569 319.069L290.047 318.035C292.874 317.383 295.694 319.145 296.347 321.972L300.778 341.165C301.431 343.992 299.668 346.813 296.842 347.465L292.363 348.499C289.536 349.152 286.716 347.389 286.063 344.563L281.632 325.369C280.979 322.542 282.742 319.722 285.569 319.069ZM256.431 326.392L260.891 325.281C263.706 324.579 266.556 326.292 267.258 329.107L272.024 348.22C272.726 351.035 271.013 353.886 268.198 354.587L263.738 355.699C260.923 356.401 258.072 354.688 257.37 351.873L252.605 332.76C251.903 329.945 253.616 327.094 256.431 326.392ZM228.538 333.239L233.064 332.441C235.921 331.937 238.646 333.845 239.149 336.702L242.57 356.101C243.074 358.958 241.166 361.682 238.309 362.186L233.783 362.984C230.926 363.488 228.201 361.58 227.697 358.723L224.277 339.324C223.773 336.467 225.681 333.743 228.538 333.239Z" fill="#F6D890"/>
<path fill-rule="evenodd" clip-rule="evenodd" d="M289.843 329.223C288.035 329.096 286.671 327.527 286.797 325.719C286.924 323.91 288.493 322.546 290.301 322.673C292.11 322.799 293.474 324.368 293.347 326.177C293.221 327.985 291.652 329.349 289.843 329.223ZM260.882 336.47C259.071 336.375 257.68 334.83 257.775 333.019C257.87 331.209 259.415 329.818 261.226 329.913C263.036 330.008 264.427 331.552 264.332 333.363C264.238 335.174 262.693 336.565 260.882 336.47ZM232.275 343.602C230.475 343.381 229.196 341.743 229.417 339.944C229.638 338.144 231.276 336.864 233.075 337.085C234.875 337.306 236.155 338.944 235.934 340.744C235.713 342.544 234.075 343.823 232.275 343.602Z" fill="#BEA465"/>
<path fill-rule="evenodd" clip-rule="evenodd" d="M205.518 266.293C202.98 266.293 200.922 264.235 200.922 261.697C200.922 259.158 202.98 257.1 205.518 257.1C208.057 257.1 210.114 259.158 210.114 261.697C210.114 264.235 208.057 266.293 205.518 266.293ZM244.915 256.444C242.376 256.444 240.319 254.386 240.319 251.847C240.319 249.309 242.376 247.251 244.915 247.251C247.453 247.251 249.511 249.309 249.511 251.847C249.511 254.386 247.453 256.444 244.915 256.444ZM227.843 280.738C225.304 280.738 223.247 278.681 223.247 276.142C223.247 273.604 225.304 271.546 227.843 271.546C230.381 271.546 232.439 273.604 232.439 276.142C232.439 278.681 230.381 280.738 227.843 280.738Z" fill="#E0C37C"/>
<path fill-rule="evenodd" clip-rule="evenodd" d="M156.603 547.979H223.577C225.209 547.979 226.532 549.302 226.532 550.934C226.532 552.566 225.209 553.889 223.577 553.889H146.425H133.293V532.35C133.293 529.587 135.208 527.193 137.903 526.585L156.603 522.371V547.979ZM363.44 535.738C363.238 535.897 363.011 536.033 362.763 536.138L320.454 554.097C318.952 554.735 317.217 554.034 316.579 552.532C316.344 551.978 316.291 551.393 316.393 550.843L311.114 537.414C308.814 531.561 311.499 524.932 317.224 522.33L340.115 511.926C342.58 510.806 345.49 511.504 347.179 513.62L360.73 530.597C360.881 530.55 361.034 530.515 361.187 530.493L368.676 521.245C369.703 519.977 371.563 519.782 372.832 520.809C374.1 521.835 374.295 523.696 373.268 524.964L365.417 534.66C364.906 535.291 364.188 535.656 363.44 535.738Z" fill="#E0C37C"/>
<path fill-rule="evenodd" clip-rule="evenodd" d="M491.144 230.836C487.518 230.836 484.578 227.896 484.578 224.27C484.578 220.643 487.518 217.704 491.144 217.704C494.771 217.704 497.71 220.643 497.71 224.27C497.71 227.896 494.771 230.836 491.144 230.836ZM508.216 276.799C504.59 276.799 501.65 273.859 501.65 270.233C501.65 266.606 504.59 263.667 508.216 263.667C511.842 263.667 514.782 266.606 514.782 270.233C514.782 273.859 511.842 276.799 508.216 276.799ZM526.601 320.135C522.975 320.135 520.035 317.195 520.035 313.569C520.035 309.943 522.975 307.003 526.601 307.003C530.228 307.003 533.167 309.943 533.167 313.569C533.167 317.195 530.228 320.135 526.601 320.135Z" fill="#90F6C3"/>
<path d="M371.312 448.831C374.394 448.831 376.893 446.332 376.893 443.25C376.893 440.167 374.394 437.668 371.312 437.668C368.229 437.668 365.73 440.167 365.73 443.25C365.73 446.332 368.229 448.831 371.312 448.831Z" fill="#90F6C3"/>
<path d="M418.589 463.276C421.671 463.276 424.17 460.777 424.17 457.695C424.17 454.613 421.671 452.114 418.589 452.114C415.507 452.114 413.008 454.613 413.008 457.695C413.008 460.777 415.507 463.276 418.589 463.276Z" fill="#90F6C3"/>
<path opacity="0.591634" d="M743.849 163.433L748.085 164.028L747.566 167.719L750.743 168.165L750.076 172.91L746.9 172.464L745.069 185.486L740.834 184.89L730.57 170.169L731.237 165.424L743.331 167.123L743.849 163.433ZM742.036 180.497L743.224 172.044L736.721 171.13L742.036 180.497ZM753.632 152.808C752.516 160.743 748.519 164.024 742.206 163.137C735.921 162.254 733.01 158.002 734.125 150.066C735.236 142.159 739.238 138.849 745.496 139.729C751.782 140.612 754.743 144.9 753.632 152.808ZM749.4 151.885C750.027 147.419 748.224 145.09 744.76 144.603C741.322 144.12 738.974 145.865 738.346 150.332C737.718 154.799 739.468 157.12 742.932 157.607C746.423 158.098 748.772 156.352 749.4 151.885ZM750.257 116.695L754.493 117.29L753.974 120.98L757.151 121.427L756.484 126.172L753.308 125.725L751.477 138.747L747.242 138.152L736.978 123.43L737.645 118.685L749.739 120.385L750.257 116.695ZM748.432 133.102L749.62 124.649L743.118 123.735L748.432 133.102Z" fill="#E4EDF8"/>
</svg>
