<svg width="143" height="108" viewBox="0 0 143 108" fill="none" xmlns="http://www.w3.org/2000/svg">
<g clip-path="url(#clip0)">
<path d="M122.032 10.7845C120.963 13.9379 119.324 16.8111 115.983 16.8111C112.642 16.8111 110.121 14.1076 109.933 10.7845C109.693 6.5382 112.565 4.74028 115.983 4.75786C120.021 4.77864 123.301 7.04217 122.032 10.7845Z" fill="#2F2E41"/>
<path d="M121.873 10.3087H109.933V25.3753H121.873V10.3087Z" fill="#2F2E41"/>
<path d="M90.2885 56.3074H47.8953L37.0466 107.186H101.137L90.2885 56.3074Z" fill="#F2F2F2"/>
<path d="M101.137 50.7456C101.137 51.6646 95.184 52.4544 86.7058 52.7884C84.3571 52.8806 81.8157 52.9397 79.152 52.9544C78.6426 52.9581 78.1295 52.96 77.6127 52.96C64.6205 52.96 54.0881 51.969 54.0881 50.7456C54.0881 49.5222 64.6205 48.5312 77.6127 48.5312C90.605 48.5312 101.137 49.5222 101.137 50.7456Z" fill="#3F3D56"/>
<path d="M53.914 50.7087L41.8596 107.172L42.2219 107.249L54.2763 50.7855L53.914 50.7087Z" fill="#3F3D56"/>
<path d="M101.319 50.7073L100.956 50.784L112.996 107.25L113.359 107.173L101.319 50.7073Z" fill="#3F3D56"/>
<path d="M73.5827 50.9068L72.822 50.6587C70.1069 49.7468 68.3232 49.1644 67.6879 47.7377C67.5622 47.4684 67.4921 47.1767 67.4816 46.8799C67.4711 46.5831 67.5205 46.2872 67.6269 46.0097C67.7333 45.7322 67.8944 45.4789 68.1008 45.2646C68.3073 45.0503 68.5548 44.8794 68.8286 44.7621C69.151 44.6216 69.5002 44.5528 69.8519 44.5603C70.2037 44.5678 70.5495 44.6515 70.8656 44.8055C70.963 44.4687 71.1329 44.1571 71.3633 43.8923C71.5938 43.6275 71.8794 43.4158 72.2002 43.272C72.4713 43.1484 72.7646 43.0803 73.0626 43.0717C73.3606 43.063 73.6573 43.1141 73.9352 43.2217C74.213 43.3293 74.4664 43.4914 74.6802 43.6984C74.8941 43.9053 75.0641 44.1528 75.1802 44.4264C75.8156 45.8531 75.0519 47.5613 73.9085 50.1785L73.5827 50.9068Z" fill="#FF6584"/>
<path d="M86.7058 52.7884C84.357 52.8806 81.8156 52.9397 79.152 52.9544C79.3935 52.5971 79.7321 52.3155 80.1282 52.1425C80.4503 52.0021 80.7994 51.9334 81.1509 51.941C81.5025 51.9487 81.8481 52.0325 82.1639 52.1868C82.2618 51.8501 82.4319 51.5387 82.6625 51.2739C82.8931 51.0091 83.1786 50.7974 83.4994 50.6534C83.7706 50.5299 84.0639 50.4618 84.362 50.4533C84.66 50.4447 84.9568 50.4958 85.2347 50.6035C85.5125 50.7112 85.7659 50.8733 85.9798 51.0803C86.1937 51.2873 86.3637 51.5349 86.4798 51.8085C86.6168 52.1179 86.6935 52.4504 86.7058 52.7884Z" fill="#FF6584"/>
<path d="M74.1328 27.4665L73.8198 27.2311C72.7068 26.3786 71.973 25.8263 71.9061 25.0645C71.8908 24.9197 71.9048 24.7734 71.9473 24.6342C71.9898 24.4949 72.0599 24.3656 72.1535 24.2539C72.247 24.1421 72.3621 24.0502 72.492 23.9835C72.6219 23.9169 72.7638 23.8769 72.9095 23.8658C73.0813 23.8518 73.2541 23.8751 73.416 23.9343C73.5778 23.9935 73.7248 24.087 73.8467 24.2084C73.9456 24.0678 74.074 23.9502 74.2231 23.864C74.3721 23.7777 74.5383 23.7248 74.7099 23.7089C74.8553 23.6946 75.002 23.7094 75.1416 23.7526C75.2811 23.7958 75.4104 23.8664 75.5221 23.9603C75.6337 24.0542 75.7253 24.1694 75.7914 24.2992C75.8575 24.4289 75.8968 24.5706 75.907 24.7158C75.9739 25.4776 75.3475 26.1485 74.4 27.1805L74.1328 27.4665Z" fill="#FF6584"/>
<path d="M78.9489 14.9185L78.6359 14.6831C77.5229 13.8306 76.7891 13.2783 76.7222 12.5164C76.7069 12.3717 76.7209 12.2254 76.7634 12.0862C76.8059 11.9469 76.876 11.8176 76.9696 11.7058C77.0631 11.5941 77.1782 11.5022 77.3081 11.4355C77.438 11.3689 77.5799 11.3288 77.7256 11.3178C77.8974 11.3038 78.0702 11.3271 78.2321 11.3863C78.3939 11.4454 78.5409 11.539 78.6628 11.6604C78.7617 11.5197 78.8901 11.4022 79.0391 11.3159C79.1882 11.2297 79.3543 11.1768 79.526 11.1609C79.6714 11.1466 79.8181 11.1614 79.9576 11.2046C80.0972 11.2478 80.2265 11.3184 80.3382 11.4123C80.4498 11.5061 80.5414 11.6214 80.6075 11.7511C80.6736 11.8809 80.7129 12.0226 80.7231 12.1677C80.79 12.9296 80.1635 13.6004 79.2161 14.6325L78.9489 14.9185Z" fill="#FF6584"/>
<path d="M80.0741 37.869L79.9578 37.2122C79.5624 34.8577 79.2902 33.3175 80.096 32.2881C80.2458 32.0896 80.4342 31.923 80.6498 31.7983C80.8654 31.6735 81.104 31.5932 81.3513 31.5619C81.5987 31.5307 81.8498 31.5492 82.0899 31.6163C82.33 31.6835 82.554 31.798 82.7489 31.9529C82.98 32.1344 83.1686 32.3638 83.3018 32.6252C83.4349 32.8866 83.5094 33.1738 83.5199 33.4667C83.8077 33.4055 84.1054 33.4075 84.3923 33.4724C84.6793 33.5373 84.9486 33.6637 85.1816 33.8427C85.38 33.9932 85.546 34.1818 85.6699 34.3973C85.7938 34.6129 85.8731 34.851 85.9029 35.0976C85.9328 35.3442 85.9127 35.5943 85.8438 35.833C85.7749 36.0718 85.6587 36.2943 85.5019 36.4875C84.6962 37.5169 83.1304 37.6293 80.7418 37.8212L80.0741 37.869Z" fill="#FF6584"/>
<path d="M23.504 107.112L23.1748 106.942C27.4503 98.708 25.164 88.0143 22.4934 80.4934C20.6799 75.4383 18.3668 70.5752 15.5883 65.9756L15.9014 65.7785C18.6944 70.4014 21.0195 75.2893 22.8425 80.3702C25.5378 87.9599 27.8401 98.7602 23.504 107.112Z" fill="#2F2E41"/>
<path d="M26.6743 65.844L24.271 78.9464L24.6353 79.0128L27.0386 65.9103L26.6743 65.844Z" fill="#2F2E41"/>
<path d="M10.694 77.0075L10.4227 77.259L22.8332 90.5452L23.1046 90.2937L10.694 77.0075Z" fill="#2F2E41"/>
<path d="M33.0051 91.602L26.7101 100.277L27.0104 100.493L33.3054 91.8182L33.0051 91.602Z" fill="#2F2E41"/>
<path d="M27.7849 62.371C28.808 62.371 29.6373 61.5448 29.6373 60.5257C29.6373 59.5066 28.808 58.6804 27.7849 58.6804C26.7619 58.6804 25.9326 59.5066 25.9326 60.5257C25.9326 61.5448 26.7619 62.371 27.7849 62.371Z" fill="#6C63FF"/>
<path d="M7.59458 76.5797C8.61759 76.5797 9.44691 75.7535 9.44691 74.7344C9.44691 73.7153 8.61759 72.8891 7.59458 72.8891C6.57157 72.8891 5.74225 73.7153 5.74225 74.7344C5.74225 75.7535 6.57157 76.5797 7.59458 76.5797Z" fill="#3F3D56"/>
<path d="M15.7448 78.425C16.7678 78.425 17.5971 77.5989 17.5971 76.5797C17.5971 75.5606 16.7678 74.7344 15.7448 74.7344C14.7218 74.7344 13.8925 75.5606 13.8925 76.5797C13.8925 77.5989 14.7218 78.425 15.7448 78.425Z" fill="#3F3D56"/>
<path d="M12.0401 85.6217C13.0632 85.6217 13.8925 84.7955 13.8925 83.7764C13.8925 82.7573 13.0632 81.9311 12.0401 81.9311C11.0171 81.9311 10.1878 82.7573 10.1878 83.7764C10.1878 84.7955 11.0171 85.6217 12.0401 85.6217Z" fill="#6C63FF"/>
<path d="M35.1942 90.2349C36.2173 90.2349 37.0466 89.4087 37.0466 88.3896C37.0466 87.3705 36.2173 86.5443 35.1942 86.5443C34.1712 86.5443 33.3419 87.3705 33.3419 88.3896C33.3419 89.4087 34.1712 90.2349 35.1942 90.2349Z" fill="#3F3D56"/>
<path d="M29.0816 92.2647C30.1047 92.2647 30.934 91.4385 30.934 90.4194C30.934 89.4003 30.1047 88.5741 29.0816 88.5741C28.0586 88.5741 27.2293 89.4003 27.2293 90.4194C27.2293 91.4385 28.0586 92.2647 29.0816 92.2647Z" fill="#3F3D56"/>
<path d="M33.342 98.1697C34.365 98.1697 35.1943 97.3435 35.1943 96.3244C35.1943 95.3052 34.365 94.4791 33.342 94.4791C32.319 94.4791 31.4897 95.3052 31.4897 96.3244C31.4897 97.3435 32.319 98.1697 33.342 98.1697Z" fill="#3F3D56"/>
<path d="M13.8925 64.5853C14.9155 64.5853 15.7448 63.7592 15.7448 62.74C15.7448 61.7209 14.9155 60.8947 13.8925 60.8947C12.8695 60.8947 12.0402 61.7209 12.0402 62.74C12.0402 63.7592 12.8695 64.5853 13.8925 64.5853Z" fill="#3F3D56"/>
<path d="M122.224 21.5334H123.239C123.239 21.5334 125.722 24.6809 124.594 28.9526C123.465 33.2243 124.368 34.0112 124.368 34.0112C124.368 34.0112 125.837 38.6371 124.257 45.6067C122.677 52.5763 125.722 54.4704 125.722 54.4704L122.901 48.8497L121.321 34.0112L122.224 21.5334Z" fill="#6C63FF"/>
<path opacity="0.1" d="M122.224 21.5391H123.239C123.239 21.5391 125.722 24.6867 124.594 28.9584C123.465 33.2301 124.368 34.0169 124.368 34.0169C124.368 34.0169 125.837 38.6428 124.257 45.6124C122.677 52.582 125.722 54.4761 125.722 54.4761L122.901 48.8555L121.321 34.017L122.224 21.5391Z" fill="black"/>
<path d="M118.669 16.0813C118.669 16.0813 117.767 19.6785 118.218 19.6785C118.669 19.6785 120.249 21.5896 120.249 21.5896L121.265 25.2992L120.475 27.9971L117.767 27.435L114.381 23.7254L113.366 22.7137L112.463 19.4537C112.463 19.4537 113.591 18.1048 112.802 16.9806C112.012 15.8565 118.669 16.0813 118.669 16.0813Z" fill="#FBBEBE"/>
<path opacity="0.1" d="M118.669 16.0813C118.669 16.0813 117.767 19.6785 118.218 19.6785C118.669 19.6785 120.249 21.5896 120.249 21.5896L121.265 25.2992L120.475 27.9971L117.767 27.435L114.381 23.7254L113.366 22.7137L112.463 19.4537C112.463 19.4537 113.591 18.1048 112.802 16.9806C112.012 15.8565 118.669 16.0813 118.669 16.0813Z" fill="black"/>
<path d="M91.3617 26.0861L88.8792 22.0392C88.8792 22.0392 86.1994 16.1326 84.2811 18.2684C82.3628 20.4042 87.1866 24.7371 87.1866 24.7371L89.6691 27.9971L91.3617 26.0861Z" fill="#FBBEBE"/>
<path d="M124.311 61.2714L122.506 74.4237C122.506 74.4237 122.732 75.4354 120.475 79.145C118.218 82.8546 112.124 90.9484 112.124 90.9484L110.319 87.576C110.319 87.576 112.463 76.8967 116.187 74.6485L115.735 58.461L124.311 61.2714Z" fill="#FBBEBE"/>
<path opacity="0.1" d="M124.311 61.2714L122.506 74.4237C122.506 74.4237 122.732 75.4354 120.475 79.145C118.218 82.8546 112.124 90.9484 112.124 90.9484L110.319 87.576C110.319 87.576 112.463 76.8967 116.187 74.6485L115.735 58.461L124.311 61.2714Z" fill="black"/>
<path d="M110.319 86.227L112.802 90.9483C112.802 90.9483 110.77 96.6814 111.56 97.2434C112.35 97.8055 113.366 102.864 111.222 102.302C109.078 101.74 107.385 99.4917 107.385 99.1545C107.385 98.8172 108.626 94.0959 107.949 92.9718C107.272 91.8476 106.821 91.5104 106.821 91.5104L105.128 94.3207L104.564 93.9835L107.385 89.2621C107.385 89.2621 107.724 88.3628 109.078 87.8008L110.319 86.227Z" fill="#2F2E41"/>
<path opacity="0.1" d="M110.319 86.227L112.802 90.9483C112.802 90.9483 110.77 96.6814 111.56 97.2434C112.35 97.8055 113.366 102.864 111.222 102.302C109.078 101.74 107.385 99.4917 107.385 99.1545C107.385 98.8172 108.626 94.0959 107.949 92.9718C107.272 91.8476 106.821 91.5104 106.821 91.5104L105.128 94.3207L104.564 93.9835L107.385 89.2621C107.385 89.2621 107.724 88.3628 109.078 87.8008L110.319 86.227Z" fill="black"/>
<path d="M115.762 59.4053C115.762 59.4053 116.638 71.8382 114.72 75.0982V91.2856L112.125 91.6229C112.125 91.6229 107.724 82.8547 109.642 74.4237C111.56 65.9927 106.821 58.4611 106.821 58.4611L115.762 59.4053Z" fill="#FBBEBE"/>
<path d="M115.115 18.8355C117.732 18.8355 119.854 16.7217 119.854 14.1141C119.854 11.5066 117.732 9.39281 115.115 9.39281C112.497 9.39281 110.375 11.5066 110.375 14.1141C110.375 16.7217 112.497 18.8355 115.115 18.8355Z" fill="#FBBEBE"/>
<path d="M119.911 26.5358L115.171 20.5779L112.463 18.7793L111.335 20.2407L108.175 21.14C108.175 21.14 106.144 21.5896 104 24.0627C101.856 26.5358 98.0193 27.9972 98.0193 27.9972L94.8598 27.4351C94.8598 27.4351 91.136 25.7489 91.136 25.2992C91.136 24.8496 87.8636 28.3344 88.6535 29.6834C89.4434 31.0323 91.136 32.7185 92.0387 33.6178C92.9414 34.5171 93.28 37.1026 98.8092 36.3157C104.338 35.5288 106.37 32.8309 106.37 32.8309C106.37 32.8309 107.385 38.0019 110.319 39.0136C113.253 40.0253 122.844 40.6998 122.844 40.6998L124.876 33.955C124.876 33.955 127.132 31.0323 124.086 26.7606C124.086 26.7606 124.027 24.3716 123.7 22.7818C123.572 22.1635 123.404 21.6661 123.183 21.4772C122.393 20.8027 118.218 19.6786 118.218 19.6786C118.218 19.6786 118.895 21.9269 119.234 22.0393C119.572 22.1517 120.362 25.9737 119.911 26.5358Z" fill="#FFAB00"/>
<path d="M104.733 60.091C110.416 59.6976 113.725 60.625 115.201 61.332C115.475 61.4558 115.733 61.612 115.97 61.7974C116.078 61.8885 116.13 61.9593 116.13 62.002C116.13 62.3393 123.916 63.0138 126.738 62.3393C129.559 61.6648 124.819 47.1635 123.578 45.927C122.337 44.6904 123.006 40.1647 123.006 40.1647C123.006 40.1647 120.531 39.6319 119.854 39.8567C119.177 40.0815 115.679 39.5195 114.438 38.845C113.197 38.1705 111.617 38.6202 110.601 38.3953C110.148 38.2953 109.918 38.4639 109.804 38.682C109.627 39.0091 109.359 39.2787 109.033 39.4588C106.637 40.8336 104.714 50.3392 103.266 55.5945C101.687 61.3276 104.733 60.091 104.733 60.091Z" fill="#2F2E41"/>
<path d="M115.171 90.2739L115.623 92.747C115.623 92.747 117.992 96.1194 117.315 98.9297C117.315 98.9297 117.879 102.639 119.911 103.651C121.942 104.663 120.249 107.023 118.331 106.911C116.412 106.799 114.607 107.023 114.381 106.461C114.156 105.899 112.802 100.391 112.802 100.391L112.431 106.837L111.303 106.949L111.673 99.4918C111.673 99.4918 110.77 97.8056 112.012 94.9953L111.698 90.6815C111.698 90.6815 114.833 91.3981 115.171 90.2739Z" fill="#2F2E41"/>
<path opacity="0.1" d="M115.201 61.3321C115.475 61.4558 115.733 61.612 115.97 61.7974C116.03 60.7351 116.375 54.3107 115.961 54.4142L115.201 61.3321Z" fill="black"/>
<path d="M113.153 7.61258C113.153 7.61258 113.1 7.32151 111.048 8.08837C108.995 8.85522 107.764 14.5143 108.791 17.8373C109.204 19.1765 108.868 20.142 108.319 20.8176C106.258 23.3528 107.069 27.1605 110.071 28.4642C110.156 28.501 110.242 28.5374 110.33 28.5733L111.613 29.3402C111.613 29.3402 109.978 27.1964 110.796 24.454C111.507 22.1175 111.595 19.6368 111.051 17.2562C110.957 16.8546 110.85 16.4406 110.729 16.0181C109.703 12.4395 110.202 12.8528 113.794 9.2741C113.794 9.2741 115.847 10.8078 117.643 11.5747C119.439 12.3415 120.979 13.1084 119.696 15.6646C118.413 18.2208 115.334 20.5213 117.387 23.8444C119.439 27.1674 119.696 25.8893 119.439 27.1674L119.183 28.4455L120.722 26.9118L119.696 28.9567C119.696 28.9567 123.032 28.9567 124.058 26.4005L124.571 26.9118C124.571 26.9118 126.624 23.3331 122.775 20.0101C122.775 20.0101 121.492 19.2432 123.288 16.687C125.084 14.1309 123.705 8.63505 121.396 7.61257C119.086 6.5901 113.153 7.61258 113.153 7.61258Z" fill="#2F2E41"/>
<path d="M115.983 6.02662C117.302 6.02662 118.371 4.96154 118.371 3.64769C118.371 2.33384 117.302 1.26875 115.983 1.26875C114.664 1.26875 113.595 2.33384 113.595 3.64769C113.595 4.96154 114.664 6.02662 115.983 6.02662Z" fill="#2F2E41"/>
<path d="M113.117 2.37893C113.117 1.78921 113.337 1.22052 113.734 0.783174C114.131 0.34583 114.677 0.0710068 115.266 0.0120133C115.188 0.00423997 115.108 0 115.028 0C114.394 0 113.787 0.250636 113.339 0.696773C112.891 1.14291 112.64 1.748 112.64 2.37893C112.64 3.00987 112.891 3.61496 113.339 4.06109C113.787 4.50723 114.394 4.75787 115.028 4.75787C115.108 4.75787 115.188 4.75363 115.266 4.74585C114.677 4.68686 114.131 4.41203 113.734 3.97469C113.337 3.53735 113.117 2.96866 113.117 2.37893Z" fill="#2F2E41"/>
<path d="M85.0616 20.0853L84.7486 19.8499C83.6356 18.9974 82.9018 18.4451 82.8348 17.6833C82.8196 17.5385 82.8336 17.3922 82.8761 17.253C82.9186 17.1138 82.9887 16.9844 83.0822 16.8727C83.1758 16.7609 83.2909 16.669 83.4208 16.6023C83.5506 16.5357 83.6926 16.4957 83.8383 16.4847C84.0101 16.4706 84.1829 16.494 84.3447 16.5531C84.5066 16.6123 84.6535 16.7058 84.7754 16.8273C84.8743 16.6866 85.0028 16.569 85.1518 16.4828C85.3009 16.3965 85.467 16.3436 85.6387 16.3277C85.784 16.3134 85.9308 16.3283 86.0703 16.3714C86.2098 16.4146 86.3392 16.4852 86.4508 16.5791C86.5625 16.673 86.654 16.7882 86.7202 16.918C86.7863 17.0478 86.8256 17.1894 86.8358 17.3346C86.9027 18.0964 86.2762 18.7673 85.3288 19.7993L85.0616 20.0853Z" fill="#FF6584"/>
<path d="M136.724 77.3425C138.233 77.3425 139.457 76.1234 139.457 74.6196C139.457 73.1159 138.233 71.8968 136.724 71.8968C135.214 71.8968 133.99 73.1159 133.99 74.6196C133.99 76.1234 135.214 77.3425 136.724 77.3425Z" fill="#F1F1F1"/>
<path d="M60.7781 18.8466C62.2876 18.8466 63.5113 17.6275 63.5113 16.1238C63.5113 14.62 62.2876 13.4009 60.7781 13.4009C59.2686 13.4009 58.0449 14.62 58.0449 16.1238C58.0449 17.6275 59.2686 18.8466 60.7781 18.8466Z" fill="#F1F1F1"/>
<path d="M34.2897 49.663C35.7993 49.663 37.023 48.444 37.023 46.9402C37.023 45.4364 35.7993 44.2174 34.2897 44.2174C32.7802 44.2174 31.5565 45.4364 31.5565 46.9402C31.5565 48.444 32.7802 49.663 34.2897 49.663Z" fill="#F1F1F1"/>
</g>
<defs>
<clipPath id="clip0">
<rect width="143" height="107.25" fill="white"/>
</clipPath>
</defs>
</svg>
