<svg width="378" height="330" viewBox="0 0 378 330" fill="none" xmlns="http://www.w3.org/2000/svg">
<g opacity="0.2">
<path opacity="0.2" d="M221.298 177.304C221.135 177.606 220.947 177.894 220.737 178.166C218.876 176.866 216.981 175.587 215.053 174.329L215.178 174.082C215.624 173.223 216.291 172.499 217.111 171.982C218.174 171.33 219.373 171.187 220.359 171.717C221.346 172.247 221.896 173.308 221.954 174.546C221.983 175.507 221.756 176.458 221.298 177.304Z" fill="#3F3D56"/>
<path opacity="0.2" d="M223.893 172.445C225.065 170.238 224.646 167.726 222.956 166.834C221.267 165.941 218.948 167.006 217.776 169.213C216.604 171.419 217.024 173.931 218.713 174.824C220.402 175.716 222.722 174.651 223.893 172.445Z" fill="#3F3D56"/>
<path opacity="0.2" d="M226.487 167.562C227.658 165.356 227.239 162.844 225.55 161.951C223.86 161.059 221.541 162.124 220.369 164.33C219.197 166.537 219.617 169.049 221.306 169.941C222.996 170.834 225.315 169.769 226.487 167.562Z" fill="#3F3D56"/>
<path opacity="0.2" d="M229.08 162.683C230.252 160.476 229.832 157.964 228.143 157.071C226.454 156.179 224.135 157.244 222.963 159.451C221.791 161.657 222.211 164.169 223.9 165.062C225.589 165.954 227.908 164.889 229.08 162.683Z" fill="#3F3D56"/>
<path opacity="0.2" d="M231.671 157.8C232.843 155.594 232.423 153.082 230.734 152.189C229.045 151.297 226.725 152.362 225.554 154.568C224.382 156.775 224.801 159.287 226.491 160.179C228.18 161.072 230.499 160.006 231.671 157.8Z" fill="#3F3D56"/>
<path opacity="0.2" d="M234.893 116.715C234.751 115.964 234.662 115.204 234.627 114.44L243.379 117.378L234.651 112.849C234.778 110.599 235.364 108.398 236.373 106.382C237.382 104.365 238.794 102.575 240.521 101.122L248.978 113.319L242.403 99.7427C244.333 98.5381 246.491 97.7427 248.742 97.4061C250.994 97.0696 253.29 97.199 255.49 97.7865C257.689 98.3739 259.743 99.4067 261.524 100.821C263.306 102.234 264.776 103.999 265.844 106.004C266.912 108.01 267.554 110.213 267.731 112.477C267.907 114.741 267.615 117.017 266.871 119.163C266.128 121.309 264.949 123.279 263.409 124.951C261.868 126.623 259.999 127.961 257.918 128.881C258.134 130.051 258.224 131.242 258.184 132.431L244.892 132.325L257.992 134.478C257.552 137.194 256.439 139.757 254.754 141.936C253.069 144.114 250.866 145.839 248.345 146.954C248.9 150.008 248.582 153.155 247.428 156.038C246.275 158.92 244.331 161.42 241.819 163.252C239.308 165.084 236.33 166.175 233.227 166.399C230.124 166.623 227.02 165.972 224.27 164.519C221.52 163.067 219.236 160.872 217.678 158.185C216.12 155.499 215.351 152.43 215.459 149.328C215.568 146.226 216.549 143.218 218.291 140.646C220.033 138.075 222.465 136.044 225.309 134.786C224.647 131.137 225.233 127.372 226.973 124.095C228.714 120.818 231.508 118.219 234.906 116.715H234.893Z" fill="#6C63FF"/>
<path opacity="0.1" d="M256.265 139.575C254.528 142.855 251.733 145.455 248.332 146.954C248.887 150.008 248.569 153.155 247.415 156.038C246.261 158.92 244.318 161.42 241.806 163.252C239.295 165.084 236.317 166.175 233.214 166.399C230.11 166.623 227.006 165.972 224.257 164.519C221.507 163.067 219.223 160.872 217.664 158.185C216.106 155.499 215.338 152.43 215.446 149.328C215.555 146.226 216.536 143.218 218.278 140.646C220.019 138.075 222.452 136.044 225.296 134.786C224.653 131.262 257.137 137.933 256.265 139.575Z" fill="black"/>
</g>
<g opacity="0.2">
<path opacity="0.2" d="M106.683 207.71C106.841 208.35 107.053 208.975 107.319 209.579C111.414 208.014 115.557 206.512 119.747 205.071C119.71 204.901 119.673 204.726 119.63 204.541C119.205 202.728 118.303 201.06 117.017 199.71C115.345 197.991 113.175 197.154 111.088 197.663C109.001 198.172 107.465 199.909 106.771 202.194C106.249 203.992 106.219 205.896 106.683 207.71Z" fill="#3F3D56"/>
<path opacity="0.2" d="M112.713 204.24C116.289 203.369 118.261 198.879 117.119 194.211C115.976 189.544 112.151 186.466 108.575 187.336C105 188.207 103.027 192.697 104.17 197.365C105.312 202.032 109.137 205.11 112.713 204.24Z" fill="#3F3D56"/>
<path opacity="0.2" d="M110.182 193.908C113.758 193.038 115.73 188.548 114.588 183.88C113.445 179.212 109.62 176.134 106.044 177.005C102.468 177.876 100.496 182.366 101.638 187.033C102.781 191.701 106.606 194.779 110.182 193.908Z" fill="#3F3D56"/>
<path opacity="0.2" d="M107.654 183.577C111.23 182.706 113.202 178.217 112.06 173.549C110.917 168.881 107.092 165.803 103.516 166.674C99.9405 167.545 97.968 172.035 99.1105 176.702C100.253 181.37 104.078 184.448 107.654 183.577Z" fill="#3F3D56"/>
<path opacity="0.2" d="M105.126 173.248C108.702 172.378 110.674 167.888 109.532 163.22C108.389 158.553 104.564 155.475 100.988 156.345C97.4124 157.216 95.4399 161.706 96.5824 166.374C97.725 171.041 101.55 174.119 105.126 173.248Z" fill="#3F3D56"/>
<path opacity="0.2" d="M109.98 88.2111C110.591 86.8735 111.107 85.4948 111.524 84.0853L93.8324 85.4402L112.264 81.0969C113.092 76.836 113.04 72.4514 112.11 68.2113C111.181 63.9712 109.394 59.9648 106.859 56.4373L85.3013 75.2184L103.98 52.9903C100.948 49.8338 97.2972 47.3339 93.2546 45.6461C89.212 43.9584 84.8642 43.119 80.4822 43.1803C76.1002 43.2416 71.7777 44.2022 67.7841 46.0024C63.7906 47.8025 60.2114 50.4036 57.2697 53.6435C54.3279 56.8835 52.0866 60.693 50.6853 64.8346C49.284 68.9762 48.7528 73.3613 49.1247 77.7166C49.4966 82.0719 50.7637 86.3042 52.8471 90.1498C54.9305 93.9954 57.7855 97.3719 61.2342 100.069C60.2818 102.152 59.5589 104.332 59.0782 106.571L83.9588 112.637L58.4854 110.484C58.0225 115.763 58.8872 121.074 61.0012 125.935C63.1152 130.797 66.4116 135.056 70.592 138.326C68.1106 143.764 67.2134 149.789 68.0031 155.711C68.7927 161.634 71.2373 167.215 75.0574 171.817C78.8775 176.42 83.9188 179.857 89.6051 181.736C95.2914 183.615 101.393 183.861 107.213 182.444C113.032 181.027 118.334 178.006 122.514 173.726C126.693 169.445 129.58 164.078 130.845 158.238C132.11 152.398 131.702 146.321 129.668 140.701C127.633 135.082 124.054 130.147 119.34 126.46C122.306 119.961 122.996 112.656 121.298 105.72C119.6 98.7827 115.614 92.6163 109.98 88.2111Z" fill="#6C63FF"/>
<path opacity="0.1" d="M59.2778 120.81C60.9651 127.748 64.9519 133.914 70.5922 138.31C68.1108 143.748 67.2136 149.773 68.0032 155.695C68.7929 161.618 71.2375 167.199 75.0576 171.801C78.8776 176.404 83.919 179.841 89.6052 181.72C95.2915 183.599 101.393 183.845 107.213 182.428C113.032 181.012 118.335 177.99 122.514 173.71C126.693 169.429 129.58 164.062 130.845 158.222C132.11 152.382 131.702 146.305 129.668 140.685C127.633 135.066 124.055 130.131 119.341 126.444C122.209 120.176 58.4377 117.339 59.2778 120.81Z" fill="black"/>
</g>
<path opacity="0.1" d="M190.43 241C267.512 241 330 232.334 330 221.644C330 210.953 267.512 202.287 190.43 202.287C113.348 202.287 50.8608 210.953 50.8608 221.644C50.8608 232.334 113.348 241 190.43 241Z" fill="#6C63FF"/>
<path d="M231.424 33H90.9505C88.0434 33 85.6868 35.3506 85.6868 38.2501V209.118C85.6868 212.017 88.0434 214.368 90.9505 214.368H231.424C234.331 214.368 236.688 212.017 236.688 209.118V38.2501C236.688 35.3506 234.331 33 231.424 33Z" fill="#464353"/>
<path opacity="0.1" d="M223.661 51.2958H98.7134V196.072H223.661V51.2958Z" fill="#6C63FF"/>
<path d="M161.187 210.921C164.124 210.921 166.504 208.546 166.504 205.617C166.504 202.689 164.124 200.314 161.187 200.314C158.251 200.314 155.87 202.689 155.87 205.617C155.87 208.546 158.251 210.921 161.187 210.921Z" fill="white"/>
<path d="M161.187 46.1253C162.582 46.1253 163.713 44.9975 163.713 43.6063C163.713 42.2151 162.582 41.0873 161.187 41.0873C159.793 41.0873 158.662 42.2151 158.662 43.6063C158.662 44.9975 159.793 46.1253 161.187 46.1253Z" fill="white"/>
<path d="M161.187 41.2199C161.66 41.2199 162.123 41.3598 162.517 41.6221C162.91 41.8843 163.217 42.257 163.398 42.693C163.579 43.1291 163.626 43.6089 163.534 44.0719C163.442 44.5348 163.214 44.96 162.879 45.2937C162.544 45.6275 162.118 45.8548 161.654 45.9468C161.19 46.0389 160.709 45.9917 160.272 45.811C159.834 45.6304 159.461 45.3245 159.198 44.9321C158.935 44.5397 158.795 44.0783 158.795 43.6063C158.795 42.9734 159.047 42.3664 159.495 41.9188C159.944 41.4713 160.553 41.2199 161.187 41.2199ZM161.187 40.9547C160.661 40.9547 160.147 41.1102 159.71 41.4016C159.273 41.6929 158.932 42.1071 158.731 42.5916C158.53 43.0761 158.477 43.6092 158.58 44.1236C158.682 44.6379 158.936 45.1104 159.307 45.4812C159.679 45.8521 160.153 46.1046 160.669 46.2069C161.184 46.3092 161.719 46.2567 162.205 46.056C162.69 45.8553 163.106 45.5155 163.398 45.0794C163.69 44.6434 163.846 44.1307 163.846 43.6063C163.846 42.903 163.566 42.2286 163.067 41.7313C162.569 41.2341 161.892 40.9547 161.187 40.9547Z" fill="white"/>
<path d="M134.603 154.943V150.152H135.15V152.451L137.585 150.202C137.624 150.169 137.673 150.151 137.724 150.152C137.754 150.151 137.784 150.157 137.813 150.169C137.841 150.18 137.866 150.197 137.888 150.219C137.909 150.24 137.926 150.266 137.938 150.294C137.949 150.322 137.955 150.352 137.955 150.382V154.713C137.955 154.743 137.949 154.773 137.938 154.801C137.926 154.829 137.909 154.855 137.888 154.876C137.866 154.898 137.841 154.915 137.813 154.926C137.784 154.938 137.754 154.944 137.724 154.943C137.67 154.943 137.619 154.923 137.58 154.888L135.15 152.658V154.943H134.603Z" fill="white"/>
<path d="M137.724 150.282C137.737 150.281 137.75 150.284 137.762 150.289C137.774 150.293 137.785 150.301 137.794 150.31C137.803 150.319 137.81 150.33 137.815 150.342C137.82 150.354 137.822 150.367 137.822 150.38V154.713C137.821 154.73 137.816 154.747 137.806 154.762C137.797 154.777 137.783 154.789 137.768 154.797C137.752 154.804 137.734 154.808 137.717 154.807C137.699 154.805 137.682 154.799 137.668 154.789L135.461 152.766L135.23 152.552L135.464 152.339L137.668 150.303C137.684 150.29 137.703 150.283 137.724 150.282ZM135.017 150.282V154.808H134.736V150.282H135.02H135.017ZM137.726 150.017C137.642 150.017 137.561 150.047 137.498 150.102L135.286 152.143V150.152C135.286 150.116 135.272 150.082 135.246 150.056C135.221 150.031 135.186 150.017 135.15 150.017H134.603C134.567 150.017 134.532 150.031 134.507 150.056C134.481 150.082 134.467 150.116 134.467 150.152V154.925C134.467 154.961 134.481 154.995 134.507 155.02C134.532 155.046 134.567 155.06 134.603 155.06H135.148C135.184 155.06 135.218 155.046 135.243 155.02C135.269 154.995 135.283 154.961 135.283 154.925V152.947L137.495 154.978C137.559 155.031 137.64 155.061 137.724 155.06C137.771 155.061 137.819 155.052 137.863 155.034C137.908 155.016 137.948 154.99 137.982 154.956C138.016 154.922 138.043 154.882 138.061 154.838C138.079 154.794 138.088 154.747 138.088 154.699V150.38C138.088 150.332 138.079 150.285 138.061 150.241C138.043 150.196 138.016 150.156 137.982 150.122C137.948 150.088 137.908 150.062 137.863 150.044C137.819 150.025 137.772 150.016 137.724 150.017H137.726Z" fill="white"/>
<path d="M187.23 154.943V152.644L184.795 154.893C184.755 154.926 184.705 154.943 184.654 154.943C184.594 154.943 184.537 154.919 184.494 154.877C184.471 154.856 184.453 154.831 184.44 154.802C184.428 154.774 184.422 154.743 184.422 154.712V150.38C184.423 150.336 184.435 150.294 184.459 150.257C184.482 150.22 184.515 150.191 184.555 150.172C184.594 150.154 184.638 150.147 184.682 150.152C184.725 150.157 184.766 150.175 184.8 150.202L187.23 152.435V150.152H187.761V154.941L187.23 154.943Z" fill="white"/>
<path d="M184.651 150.282C184.672 150.282 184.691 150.289 184.707 150.303L186.913 152.326L187.145 152.538L186.913 152.753L184.707 154.789C184.691 154.802 184.671 154.809 184.651 154.808C184.638 154.808 184.626 154.806 184.614 154.802C184.602 154.797 184.591 154.79 184.582 154.781C184.572 154.772 184.565 154.761 184.56 154.75C184.555 154.738 184.553 154.725 184.553 154.713V150.38C184.553 150.354 184.563 150.329 184.581 150.311C184.6 150.292 184.625 150.282 184.651 150.282ZM187.645 150.282V154.808H187.373V150.282H187.639H187.645ZM184.646 150.017C184.598 150.016 184.55 150.025 184.506 150.044C184.462 150.062 184.421 150.088 184.387 150.122C184.354 150.156 184.327 150.196 184.309 150.241C184.29 150.285 184.281 150.332 184.282 150.38V154.713C184.282 154.76 184.291 154.807 184.309 154.851C184.328 154.895 184.354 154.935 184.388 154.968C184.422 155.002 184.462 155.029 184.507 155.046C184.551 155.064 184.598 155.074 184.646 155.073C184.73 155.074 184.812 155.045 184.877 154.991L187.089 152.947V154.938C187.089 154.974 187.103 155.008 187.129 155.034C187.154 155.059 187.189 155.073 187.224 155.073H187.756C187.774 155.074 187.792 155.07 187.809 155.064C187.826 155.057 187.841 155.047 187.854 155.035C187.867 155.022 187.877 155.007 187.884 154.99C187.891 154.974 187.894 154.956 187.894 154.938V150.165C187.894 150.147 187.891 150.129 187.884 150.113C187.877 150.096 187.867 150.081 187.854 150.069C187.841 150.056 187.826 150.046 187.809 150.039C187.792 150.033 187.774 150.03 187.756 150.03H187.224C187.189 150.03 187.154 150.044 187.129 150.07C187.103 150.095 187.089 150.129 187.089 150.165V152.146L184.877 150.115C184.812 150.06 184.73 150.03 184.646 150.03V150.017Z" fill="white"/>
<path d="M162.091 155.031C161.983 155.031 161.879 154.988 161.802 154.911C161.725 154.835 161.682 154.731 161.682 154.622V150.656C161.685 150.549 161.729 150.448 161.806 150.374C161.882 150.299 161.985 150.258 162.091 150.258H163.181C163.235 150.258 163.288 150.268 163.338 150.289C163.388 150.309 163.433 150.34 163.471 150.377C163.509 150.415 163.539 150.46 163.56 150.51C163.58 150.559 163.591 150.613 163.591 150.666V154.625C163.59 154.733 163.547 154.836 163.47 154.912C163.393 154.988 163.289 155.031 163.181 155.031H162.091ZM159.194 155.031C159.085 155.031 158.981 154.988 158.904 154.911C158.827 154.835 158.784 154.731 158.784 154.622V150.656C158.787 150.549 158.831 150.448 158.908 150.374C158.984 150.299 159.087 150.258 159.194 150.258H160.276C160.329 150.258 160.383 150.268 160.432 150.289C160.482 150.309 160.527 150.34 160.565 150.377C160.603 150.415 160.633 150.46 160.654 150.51C160.674 150.559 160.685 150.613 160.685 150.666V154.625C160.685 154.733 160.642 154.837 160.565 154.914C160.488 154.99 160.384 155.033 160.276 155.033L159.194 155.031Z" fill="white"/>
<path d="M163.181 150.38C163.252 150.38 163.319 150.408 163.369 150.458C163.419 150.507 163.447 150.575 163.447 150.645V154.607C163.447 154.677 163.419 154.744 163.369 154.794C163.319 154.844 163.252 154.872 163.181 154.872H162.091C162.021 154.872 161.953 154.844 161.903 154.794C161.853 154.744 161.825 154.677 161.825 154.607V150.653C161.825 150.583 161.853 150.515 161.903 150.466C161.953 150.416 162.021 150.388 162.091 150.388H163.181V150.38ZM160.294 150.388C160.365 150.388 160.432 150.416 160.482 150.466C160.532 150.515 160.56 150.583 160.56 150.653V154.614C160.56 154.685 160.532 154.752 160.482 154.802C160.432 154.852 160.365 154.88 160.294 154.88H159.194C159.123 154.88 159.055 154.852 159.006 154.802C158.956 154.752 158.928 154.685 158.928 154.614V150.653C158.928 150.583 158.956 150.515 159.006 150.466C159.055 150.416 159.123 150.388 159.194 150.388H160.276H160.294ZM163.163 150.123H162.091C161.95 150.123 161.815 150.179 161.715 150.278C161.616 150.377 161.56 150.512 161.56 150.653V154.614C161.56 154.755 161.616 154.89 161.715 154.989C161.815 155.089 161.95 155.145 162.091 155.145H163.181C163.322 155.145 163.458 155.089 163.557 154.989C163.657 154.89 163.713 154.755 163.713 154.614V150.653C163.713 150.512 163.657 150.377 163.557 150.278C163.458 150.179 163.322 150.123 163.181 150.123H163.163ZM160.276 150.123H159.194C159.053 150.123 158.917 150.179 158.818 150.278C158.718 150.377 158.662 150.512 158.662 150.653V154.614C158.662 154.755 158.718 154.89 158.818 154.989C158.917 155.089 159.053 155.145 159.194 155.145H160.276C160.417 155.145 160.552 155.089 160.652 154.989C160.751 154.89 160.807 154.755 160.807 154.614V150.653C160.807 150.512 160.751 150.377 160.652 150.278C160.552 150.179 160.417 150.123 160.276 150.123Z" fill="white"/>
<path opacity="0.5" d="M193.089 143.701H129.286V144.408H193.089V143.701Z" fill="#6C63FF"/>
<path d="M148.988 145.602C148.68 145.602 148.38 145.512 148.124 145.342C147.869 145.172 147.669 144.931 147.551 144.648C147.433 144.365 147.402 144.053 147.462 143.753C147.521 143.452 147.669 143.176 147.886 142.959C148.103 142.742 148.38 142.595 148.681 142.535C148.982 142.475 149.295 142.505 149.578 142.622C149.862 142.739 150.105 142.938 150.276 143.193C150.446 143.447 150.537 143.747 150.537 144.053C150.537 144.463 150.374 144.857 150.084 145.147C149.793 145.438 149.399 145.601 148.988 145.602Z" fill="white"/>
<path d="M148.988 142.64C149.269 142.639 149.544 142.722 149.777 142.877C150.011 143.033 150.194 143.254 150.301 143.513C150.409 143.772 150.438 144.056 150.383 144.331C150.328 144.606 150.193 144.859 149.994 145.057C149.795 145.255 149.542 145.39 149.267 145.445C148.991 145.499 148.705 145.471 148.446 145.363C148.186 145.256 147.965 145.074 147.809 144.841C147.653 144.608 147.57 144.333 147.571 144.053C147.571 143.678 147.72 143.319 147.986 143.054C148.251 142.789 148.612 142.64 148.988 142.64ZM148.988 142.375C148.654 142.374 148.328 142.472 148.05 142.657C147.773 142.841 147.556 143.104 147.428 143.411C147.3 143.719 147.267 144.057 147.332 144.383C147.397 144.709 147.557 145.009 147.793 145.245C148.029 145.48 148.33 145.64 148.657 145.705C148.984 145.77 149.323 145.736 149.631 145.608C149.939 145.481 150.203 145.265 150.388 144.988C150.573 144.711 150.671 144.386 150.671 144.053C150.671 143.608 150.493 143.181 150.178 142.866C149.862 142.552 149.434 142.375 148.988 142.375Z" fill="white"/>
<path d="M148.855 143.833H129.419V144.276H148.855V143.833Z" fill="white"/>
<path d="M148.722 143.966V144.143H129.551V143.966H148.722ZM148.988 143.701H129.286V144.408H148.988V143.701Z" fill="white"/>
<path d="M131.678 100.997C138.432 100.997 143.907 95.5361 143.907 88.7997C143.907 82.0634 138.432 76.6025 131.678 76.6025C124.925 76.6025 119.449 82.0634 119.449 88.7997C119.449 95.5361 124.925 100.997 131.678 100.997Z" fill="#6C63FF"/>
<path d="M190.696 100.997C197.45 100.997 202.925 95.5361 202.925 88.7997C202.925 82.0634 197.45 76.6025 190.696 76.6025C183.942 76.6025 178.467 82.0634 178.467 88.7997C178.467 95.5361 183.942 100.997 190.696 100.997Z" fill="#6C63FF"/>
<path d="M136.198 85.0875C137.225 85.0875 138.059 84.2565 138.059 83.2314C138.059 82.2063 137.225 81.3753 136.198 81.3753C135.17 81.3753 134.337 82.2063 134.337 83.2314C134.337 84.2565 135.17 85.0875 136.198 85.0875Z" fill="white"/>
<path d="M196.811 85.0875C197.838 85.0875 198.672 84.2565 198.672 83.2314C198.672 82.2063 197.838 81.3753 196.811 81.3753C195.783 81.3753 194.95 82.2063 194.95 83.2314C194.95 84.2565 195.783 85.0875 196.811 85.0875Z" fill="white"/>
<path d="M193.355 113.459C193.355 115.801 178.954 121.944 161.187 121.944C143.421 121.944 129.02 115.801 129.02 113.459C129.02 111.118 143.421 113.459 161.187 113.459C178.954 113.459 193.355 111.115 193.355 113.459Z" fill="white"/>
<path d="M256.709 74.7278H256.664C255.813 74.7316 254.977 74.9469 254.231 75.3544C253.485 75.7618 252.853 76.3485 252.391 77.0612C251.93 76.3488 251.297 75.7624 250.551 75.355C249.806 74.9476 248.97 74.732 248.119 74.7278H248.074C246.731 74.7362 245.447 75.274 244.5 76.2239C243.554 77.1738 243.023 78.4585 243.023 79.7976C243.023 81.4575 243.751 83.8121 245.174 85.7504C247.88 89.4414 252.378 92.671 252.378 92.671C252.378 92.671 256.876 89.4414 259.583 85.7504C261.005 83.8121 261.733 81.4575 261.733 79.7976C261.733 78.4633 261.205 77.1829 260.264 76.2339C259.324 75.285 258.046 74.7438 256.709 74.7278Z" fill="#F86D70"/>
<path d="M272.197 57.0338H272.163C271.51 57.0373 270.869 57.2027 270.297 57.5152C269.724 57.8276 269.239 58.2773 268.885 58.8236C268.53 58.2773 268.045 57.8276 267.473 57.5152C266.9 57.2027 266.259 57.0373 265.607 57.0338H265.572C264.544 57.0436 263.561 57.4576 262.838 58.186C262.114 58.9144 261.707 59.8982 261.707 60.9237C261.707 62.1964 262.268 64.0048 263.358 65.4897C265.434 68.3216 268.885 70.7928 268.885 70.7928C268.885 70.7928 272.341 68.3136 274.412 65.4897C275.502 64.0048 276.06 62.1964 276.06 60.9237C276.059 59.8986 275.653 58.9152 274.93 58.1869C274.207 57.4586 273.225 57.0443 272.197 57.0338Z" fill="#F86D70"/>
<path d="M290.256 76.8995H290.221C289.569 76.9029 288.928 77.0683 288.357 77.3808C287.785 77.6933 287.3 78.143 286.946 78.6893C286.591 78.1431 286.106 77.6936 285.534 77.3811C284.962 77.0687 284.321 76.9032 283.668 76.8995H283.634C282.604 76.9065 281.619 77.3189 280.893 78.047C280.167 78.7751 279.759 79.7598 279.758 80.7867C279.758 82.0594 280.316 83.8652 281.406 85.3527C283.485 88.1846 286.935 90.6558 286.935 90.6558C286.935 90.6558 290.391 88.1766 292.462 85.3527C293.552 83.8652 294.111 82.0594 294.111 80.7867C294.109 79.7635 293.704 78.7819 292.983 78.0544C292.261 77.3269 291.282 76.912 290.256 76.8995Z" fill="#F86D70"/>
<path d="M314.536 162.142L314.746 161.999C313.774 162.289 312.767 162.441 311.752 162.45C310.029 162.419 308.329 162.049 306.749 161.363C304.147 160.241 301.913 158.372 300.087 156.205C297.562 153.209 295.653 149.518 292.285 147.516C291.591 147.079 290.816 146.787 290.006 146.657C288.581 146.474 287.18 147.015 285.798 147.41C279.824 149.123 272.75 147.869 268.629 143.221C267.757 142.239 267.034 141.131 266.067 140.235C262.877 137.265 257.783 137.342 253.747 138.991C253.503 139.089 253.261 139.198 253.024 139.315C253.035 139.259 253.048 139.204 253.064 139.15C252.325 139.436 251.672 139.905 251.166 140.513C250.416 141.513 250.416 142.81 250.616 143.99C250.659 144.37 250.761 144.741 250.919 145.09C250.422 145.677 250.15 146.42 250.15 147.187C250.15 147.283 250.15 147.376 250.164 147.468C247.783 148.001 245.628 149.26 243.999 151.071C242.37 152.883 241.348 155.156 241.074 157.574C241.074 157.547 241.074 157.521 241.074 157.497C241.031 157.908 241.009 158.321 241.008 158.735C241.008 158.761 241.008 158.788 241.008 158.814C241.008 158.841 241.008 158.865 241.008 158.891C241.006 160.471 241.325 162.035 241.947 163.488C242.569 164.941 243.481 166.253 244.626 167.345C245.273 169.129 246.486 170.653 248.082 171.685C248.05 171.818 248.018 171.95 247.981 172.086C247.378 174.27 245.969 176.577 242.808 177.601C242.675 177.646 242.542 177.686 242.398 177.725L241.744 177.908L241.479 177.988C234.944 179.879 233.075 181.406 232.482 183.925C231.993 185.998 231.419 189.705 231.182 191.19C230.709 192.283 227.492 199.874 227.748 204.262C227.79 205.018 227.811 205.774 227.798 206.532C227.769 208.067 228.21 210.541 231.475 209.889C233.336 209.518 236.26 208.63 239.142 207.694C238.973 208.208 238.784 208.714 238.573 209.213C238.145 210.223 237.626 211.276 237.358 212.336V212.366L237.326 212.496C237.326 212.522 237.326 212.546 237.326 212.572C237.326 212.599 237.307 212.663 237.297 212.708C237.286 212.753 237.297 212.732 237.297 212.745C237.298 212.762 237.298 212.778 237.297 212.795C237.297 212.854 237.278 212.909 237.27 212.968C237.262 213.026 237.249 213.119 237.241 213.196C237.241 213.243 237.241 213.291 237.241 213.339C237.242 213.362 237.242 213.385 237.241 213.408C237.241 213.408 237.241 213.424 237.241 213.429V213.453C237.241 213.493 237.241 213.535 237.241 213.575C237.241 213.615 237.241 213.622 237.241 213.644C237.241 213.665 237.241 213.715 237.241 213.752C237.242 213.778 237.242 213.804 237.241 213.829C237.241 213.898 237.241 213.967 237.254 214.036C237.254 214.036 237.254 214.055 237.254 214.063C237.254 214.071 237.254 214.15 237.27 214.193C237.286 214.235 237.27 214.261 237.27 214.296C237.27 214.33 237.27 214.328 237.27 214.344L237.294 214.466C237.294 214.495 237.294 214.527 237.313 214.556L237.345 214.68C237.345 214.72 237.366 214.757 237.379 214.797C237.512 215.114 237.607 215.445 237.661 215.784C237.671 215.972 237.651 216.161 237.6 216.343L237.56 216.486C237.561 216.497 237.561 216.507 237.56 216.518C237.531 216.619 237.496 216.72 237.462 216.82C237.443 216.876 237.424 216.932 237.408 216.987C237.408 217.003 237.408 217.019 237.39 217.038L237.374 217.091L237.358 217.146V217.17L237.318 217.332C237.318 217.348 237.318 217.361 237.318 217.38C237.317 217.4 237.317 217.42 237.318 217.441V217.481C237.317 217.506 237.317 217.532 237.318 217.557C237.319 217.574 237.319 217.591 237.318 217.608V217.632C237.315 217.678 237.315 217.725 237.318 217.772C237.367 218.204 237.519 218.618 237.762 218.979C237.812 219.066 237.868 219.151 237.919 219.244L226.753 219.061C224.396 219.009 222.102 219.823 220.306 221.346C217.098 224.104 218.334 226.793 220.881 228.991C223.646 231.377 227.958 233.194 229.776 233.891C230.308 234.101 230.632 234.209 230.632 234.209H258.014L258.421 234.302C259.671 234.538 260.942 234.647 262.215 234.628C263.762 234.63 265.308 234.542 266.846 234.363C267.308 234.31 267.776 234.249 268.244 234.199H271.168L271.434 234.249C272.793 234.538 274.212 235.283 275.486 234.729C275.749 234.619 275.975 234.435 276.134 234.199H279.402C285.455 234.199 288.93 232.202 290.623 229.46C291.838 227.495 292.136 225.149 291.811 222.884C291.152 218.279 274.954 218.141 270.078 218.204C270.009 218.141 269.937 218.082 269.866 218.027C269.305 217.587 268.627 217.128 268.555 216.415C268.515 215.988 268.712 215.561 268.645 215.137C268.526 214.399 267.71 214.041 267.074 213.652C264.902 212.326 264.06 209.513 264.272 206.983C264.288 206.821 264.304 206.657 264.325 206.495C264.341 206.368 264.363 206.243 264.381 206.119C264.38 206.096 264.38 206.074 264.381 206.052C264.381 206.052 264.381 206.036 264.381 206.028C266.867 206.821 269.392 207.482 271.947 208.009C281.566 210.024 279.083 205.217 279.083 205.217C279.083 205.217 277.998 198.397 277.376 195.761C276.754 193.126 273.654 186.152 273.654 186.152L273.574 185.969C273.55 185.113 273.215 179.163 268.614 178.015C267.242 177.67 265.764 177.383 264.341 177.018L264.24 176.988C263.764 176.866 263.297 176.723 262.842 176.585C260.322 175.771 258.227 174.53 257.661 172.027C257.631 171.892 257.605 171.762 257.584 171.611C259.209 170.536 260.426 168.949 261.04 167.103C263.212 164.916 264.429 161.962 264.426 158.883C264.428 158.858 264.428 158.832 264.426 158.807C264.426 158.78 264.426 158.753 264.426 158.727C264.427 158.313 264.405 157.9 264.36 157.489V157.566C264.261 156.682 264.061 155.813 263.764 154.975C264.651 155.774 265.651 156.438 266.731 156.948C268.024 157.532 269.43 157.823 270.849 157.799C271.765 157.814 272.679 157.696 273.561 157.449C275.722 156.836 277.658 155.468 279.883 155.158C280.164 155.121 280.447 155.1 280.731 155.094C282.945 155.139 285.109 156.136 287.093 157.216C289.669 158.6 292.16 160.137 294.552 161.819C296.91 163.476 299.287 165.324 302.121 165.854C302.752 165.97 303.393 166.022 304.035 166.011C305.82 165.994 307.588 165.656 309.254 165.014C311.309 164.272 313.256 163.263 315.046 162.012C314.884 162.052 314.714 162.1 314.536 162.142ZM257.113 148.046C256.946 147.977 256.773 147.911 256.6 147.85C256.614 147.781 256.625 147.712 256.632 147.643C256.794 147.773 256.953 147.909 257.11 148.046H257.113ZM235.335 202.449C235.335 202.449 237.294 196.984 237.305 195.624L238.517 192.153L238.966 192.869C238.926 193.107 238.889 193.346 238.852 193.585C238.815 193.823 238.783 194.03 238.754 194.253C238.722 194.481 238.695 194.706 238.676 194.934C238.676 194.998 238.677 195.061 238.663 195.125C238.663 195.141 238.663 195.16 238.663 195.175V195.34C238.663 195.364 238.663 195.39 238.663 195.414C238.663 195.438 238.663 195.496 238.663 195.536V195.621C238.663 195.685 238.663 195.746 238.663 195.807C238.662 195.829 238.662 195.851 238.663 195.873C238.663 195.902 238.663 195.934 238.663 195.966C238.663 196.053 238.677 196.141 238.684 196.231C238.684 196.231 238.684 196.231 238.684 196.247C238.684 196.263 238.684 196.273 238.684 196.284C238.686 196.299 238.686 196.314 238.684 196.329C238.684 196.422 238.711 196.515 238.73 196.594C238.748 196.674 238.772 196.788 238.796 196.886V196.915C239.03 197.777 239.543 198.535 239.822 199.384C239.846 199.46 239.87 199.54 239.891 199.617L239.915 199.712L239.955 199.877L239.979 199.996L240.011 200.171C240.011 200.195 240.011 200.219 240.011 200.243C240.011 200.327 240.035 200.412 240.046 200.495C240.098 200.981 240.116 201.471 240.099 201.961C240.099 202.112 240.099 202.26 240.083 202.412C237.985 202.759 236.023 202.881 235.335 202.449ZM267.189 192.301C267.675 194.319 270.549 200.898 270.549 200.898C270.017 201.298 268.029 201.21 265.928 200.982C265.968 200.882 266.006 200.784 266.043 200.683L266.101 200.524L266.205 200.259C266.269 200.081 266.335 199.906 266.399 199.728L266.519 199.378C266.519 199.365 266.519 199.349 266.519 199.333C266.559 199.211 266.596 199.089 266.63 198.965C266.646 198.917 266.66 198.866 266.673 198.816V198.8L266.734 198.564C266.734 198.524 266.753 198.487 266.763 198.448L266.811 198.246C266.811 198.217 266.811 198.188 266.83 198.156C266.831 198.135 266.831 198.113 266.83 198.092C266.83 198.058 266.846 198.023 266.851 197.991C266.87 197.909 266.886 197.824 266.899 197.742C266.9 197.717 266.9 197.693 266.899 197.668C266.9 197.653 266.9 197.638 266.899 197.623C266.899 197.565 266.92 197.504 266.928 197.443C266.955 197.266 266.979 197.093 267 196.926C267 196.891 267 196.857 267 196.819C267.008 196.769 267.013 196.717 267.016 196.666C267.016 196.618 267.016 196.57 267.016 196.522V196.414C267.016 196.35 267.016 196.286 267.029 196.223C267.042 196.159 267.029 196.138 267.029 196.096C267.03 196.081 267.03 196.067 267.029 196.053C267.029 195.894 267.029 195.735 267.029 195.576V195.398C267.029 195.343 267.029 195.284 267.029 195.229C267.029 195.154 267.029 195.083 267.029 195.008C267.03 195.001 267.03 194.994 267.029 194.987C267.029 194.937 267.029 194.884 267.029 194.833C267.029 194.833 267.029 194.833 267.029 194.812C267.029 194.791 267.029 194.77 267.029 194.749C267.029 194.621 267.013 194.483 267.002 194.364C267.002 194.322 267.002 194.279 267.002 194.237C266.966 193.842 266.909 193.449 266.832 193.06L267.189 192.301Z" fill="url(#paint0_linear)"/>
<path d="M273.17 186.542L267.01 192.224L266.553 193.415L266.242 194.21L240.216 195.441L238.817 193.229L238.368 192.521L237.137 196.053L230.972 192.224C230.972 192.224 231.74 187.003 232.357 184.392C232.945 181.896 234.8 180.382 241.29 178.51L241.556 178.428L242.204 178.248C242.342 178.211 242.47 178.171 242.611 178.126C245.748 177.11 247.146 174.825 247.744 172.661C248.162 171.077 248.268 169.427 248.055 167.803C248.055 167.803 257.528 164.81 257.219 170.8C257.182 171.411 257.229 172.025 257.357 172.624C257.921 175.103 260 176.336 262.502 177.132C262.954 177.276 263.416 177.41 263.889 177.532L263.99 177.558C265.402 177.922 266.869 178.208 268.244 178.547C273.17 179.783 273.17 186.542 273.17 186.542Z" fill="#DB8B8B"/>
<path d="M251.235 141.375C251.782 140.646 252.638 140.214 253.487 139.869C257.496 138.236 262.549 138.159 265.715 141.102C266.67 141.988 267.393 143.088 268.26 144.061C272.351 148.667 279.372 149.908 285.303 148.211C286.675 147.818 288.068 147.283 289.482 147.466C290.286 147.593 291.055 147.883 291.742 148.317C295.086 150.3 296.982 153.957 299.489 156.927C301.299 159.072 303.519 160.922 306.103 162.036C308.687 163.15 311.654 163.479 314.344 162.667C312.568 163.904 310.637 164.903 308.599 165.637C306.435 166.416 304.08 166.891 301.828 166.467C299.013 165.937 296.655 164.11 294.313 162.468C291.938 160.803 289.466 159.281 286.909 157.91C284.599 156.669 282.044 155.524 279.444 155.884C277.235 156.189 275.315 157.547 273.167 158.152C271.014 158.757 268.716 158.591 266.673 157.682C261.177 155.19 258.663 147.84 252.779 146.485C251.275 146.14 250.998 146.67 250.69 144.833C250.49 143.65 250.488 142.369 251.235 141.375Z" fill="#35323E"/>
<path opacity="0.1" d="M310.678 163.251C308.514 164.03 306.159 164.505 303.907 164.081C301.092 163.55 298.734 161.726 296.392 160.082C294.017 158.417 291.545 156.894 288.988 155.524C286.678 154.283 284.123 153.137 281.523 153.498C279.314 153.803 277.394 155.161 275.246 155.768C273.093 156.373 270.795 156.206 268.752 155.296C263.257 152.803 260.742 145.453 254.859 144.101C253.354 143.754 253.077 144.284 252.766 142.446C252.605 141.648 252.619 140.825 252.809 140.033C252.076 140.317 251.428 140.782 250.927 141.386C250.18 142.377 250.182 143.658 250.395 144.833C250.706 146.67 250.98 146.14 252.485 146.485C258.368 147.84 260.883 155.19 266.378 157.682C268.419 158.597 270.717 158.77 272.872 158.17C275.02 157.566 276.94 156.208 279.149 155.903C281.749 155.542 284.304 156.699 286.614 157.929C289.171 159.3 291.645 160.822 294.02 162.487C296.363 164.128 298.721 165.961 301.533 166.486C303.796 166.91 306.14 166.435 308.304 165.656C310.345 164.92 312.279 163.92 314.057 162.68C313.091 162.967 312.088 163.117 311.08 163.126L310.678 163.251Z" fill="black"/>
<path d="M252.458 171.181C258.878 171.181 264.083 165.99 264.083 159.586C264.083 153.182 258.878 147.991 252.458 147.991C246.037 147.991 240.832 153.182 240.832 159.586C240.832 165.99 246.037 171.181 252.458 171.181Z" fill="#35323E"/>
<path opacity="0.1" d="M252.458 168.572C249.589 168.572 246.822 167.513 244.689 165.601C242.555 163.689 241.205 161.057 240.899 158.213C240.855 158.62 240.833 159.03 240.832 159.44C240.809 160.978 241.093 162.505 241.666 163.932C242.24 165.36 243.093 166.659 244.175 167.754C245.257 168.85 246.546 169.72 247.969 170.314C249.391 170.908 250.917 171.214 252.459 171.214C254.001 171.214 255.527 170.908 256.95 170.314C258.372 169.72 259.661 168.85 260.743 167.754C261.825 166.659 262.678 165.36 263.252 163.932C263.826 162.505 264.109 160.978 264.086 159.44C264.085 159.03 264.063 158.62 264.02 158.213C263.713 161.058 262.363 163.69 260.229 165.602C258.095 167.514 255.327 168.572 252.458 168.572Z" fill="black"/>
<path opacity="0.1" d="M257.371 172.624C255.953 173.58 254.281 174.094 252.57 174.101C250.858 174.107 249.183 173.606 247.758 172.661C248.175 171.077 248.281 169.427 248.069 167.803C248.069 167.803 257.541 164.81 257.232 170.8C257.195 171.411 257.242 172.025 257.371 172.624Z" fill="black"/>
<path d="M252.535 173.639C257.298 173.639 261.159 169.788 261.159 165.038C261.159 160.287 257.298 156.436 252.535 156.436C247.772 156.436 243.911 160.287 243.911 165.038C243.911 169.788 247.772 173.639 252.535 173.639Z" fill="#DB8B8B"/>
<path opacity="0.05" d="M251.333 188.509C251.756 188.958 252.114 189.463 252.397 190.01C252.846 190.891 253.093 191.959 252.692 192.866C252.543 192.302 252.517 191.712 252.617 191.136C252.717 190.561 252.94 190.014 253.271 189.533C253.947 188.577 254.88 187.831 255.962 187.38" fill="black"/>
<path d="M290.083 229.54C288.403 232.255 284.955 234.236 278.947 234.236H230.441C230.441 234.236 230.124 234.127 229.592 233.92C227.787 233.228 223.507 231.43 220.761 229.063C218.235 226.886 217.005 224.223 220.192 221.487C221.976 219.979 224.253 219.174 226.591 219.225L242.914 219.49L268.321 218.403C268.321 218.403 290.495 217.634 291.266 223.009C291.585 225.266 291.29 227.591 290.083 229.54Z" fill="#35323E"/>
<path d="M270.318 219.994C270.052 220.572 269.334 220.71 268.722 220.888C266.208 221.622 264.655 224.07 262.65 225.743C261.64 226.589 260.492 227.257 259.256 227.718C256.448 228.779 253.319 228.681 250.403 228.002C247.487 227.323 244.169 226.75 241.976 224.714C240.221 223.088 238.719 221.212 237.517 219.146C237.275 218.789 237.123 218.378 237.076 217.95C237.073 217.904 237.073 217.858 237.076 217.812C237.073 217.786 237.073 217.759 237.076 217.732C237.073 217.707 237.073 217.681 237.076 217.656C237.076 217.621 237.076 217.587 237.095 217.555C237.101 217.516 237.11 217.478 237.121 217.441C237.121 217.401 237.14 217.364 237.15 217.324C237.161 217.284 237.174 217.25 237.185 217.213C237.238 217.038 237.302 216.868 237.355 216.682C237.374 216.624 237.39 216.566 237.403 216.51C237.454 216.33 237.475 216.143 237.464 215.956C237.409 215.62 237.315 215.292 237.185 214.977C237.185 214.94 237.161 214.901 237.15 214.863C237.14 214.826 237.127 214.776 237.116 214.734C237.097 214.649 237.079 214.564 237.063 214.468C237.047 214.373 237.039 214.296 237.031 214.203C237.018 214.075 237.012 213.945 237.012 213.816C237.012 213.744 237.012 213.673 237.012 213.604C237.01 213.596 237.01 213.588 237.012 213.58C237.012 213.508 237.012 213.44 237.026 213.371C237.041 213.222 237.063 213.071 237.092 212.923C237.092 212.84 237.121 212.761 237.14 212.676C237.15 212.637 237.161 212.595 237.172 212.549C237.171 212.539 237.171 212.529 237.172 212.519C237.438 211.459 237.953 210.427 238.379 209.422C239.339 207.153 239.865 204.725 239.929 202.263C239.945 201.779 239.928 201.294 239.875 200.813C239.875 200.76 239.862 200.709 239.857 200.656C239.851 200.603 239.833 200.487 239.814 200.391C239.796 200.296 239.78 200.206 239.758 200.126C239.737 200.046 239.729 200.009 239.711 199.951C239.692 199.893 239.668 199.797 239.644 199.72C239.378 198.877 238.847 198.129 238.621 197.265C238.594 197.159 238.57 197.053 238.549 196.947C238.53 196.854 238.514 196.764 238.504 196.682C238.504 196.65 238.504 196.618 238.504 196.584C238.488 196.446 238.48 196.318 238.477 196.167C238.477 196.106 238.477 196.048 238.477 195.984C238.477 195.921 238.477 195.846 238.477 195.777C238.477 195.708 238.477 195.589 238.49 195.494C238.504 195.398 238.49 195.366 238.49 195.303C238.49 195.186 238.512 195.072 238.528 194.961C238.544 194.849 238.554 194.733 238.57 194.619C238.599 194.399 238.634 194.176 238.668 193.956C238.703 193.736 238.743 193.481 238.783 193.245C238.969 192.161 239.216 191.079 239.774 190.138C240.593 188.761 242.058 187.698 242.311 186.118C242.379 185.485 242.329 184.845 242.164 184.23C242.132 184.092 242.103 183.965 242.074 183.819C241.685 182.071 241.413 180.299 241.26 178.516L241.526 178.433L242.175 178.253C242.313 178.216 242.441 178.176 242.582 178.131C242.675 179.915 242.91 181.688 243.286 183.434C243.579 184.797 243.964 186.165 244.695 187.359C245.426 188.552 246.535 189.559 247.885 189.917C248.781 190.156 249.73 190.098 250.655 190.018C252.516 189.856 254.364 189.602 256.196 189.26C257.525 188.995 258.873 188.706 260.064 188.056C260.379 187.901 260.66 187.686 260.891 187.422C261.147 187.059 261.324 186.646 261.409 186.211C262.179 183.247 262.537 180.192 262.472 177.132C262.924 177.276 263.387 177.41 263.86 177.532L263.961 177.558C263.961 178.06 263.937 178.558 263.913 179.057C263.9 179.359 263.881 179.661 263.863 179.966C263.863 180.136 263.839 180.308 263.823 180.478C263.823 180.6 263.799 180.724 263.788 180.846C263.788 180.884 263.788 180.921 263.775 180.958C263.759 181.106 263.743 181.255 263.725 181.401C263.701 181.599 263.671 181.798 263.642 181.997L263.602 182.262C263.546 182.644 263.488 183.029 263.44 183.413C263.362 183.984 263.329 184.56 263.342 185.137C263.384 186.393 264.091 187.634 264.846 188.642C265.753 189.854 265.99 191.203 266.354 192.67C266.412 192.911 266.465 193.155 266.511 193.399C266.585 193.786 266.641 194.176 266.678 194.566C266.678 194.64 266.678 194.714 266.697 194.788C266.715 194.863 266.697 194.9 266.697 194.953C266.697 195.006 266.697 195.075 266.697 195.136C266.697 195.197 266.697 195.263 266.697 195.329C266.697 195.396 266.697 195.475 266.697 195.547C266.697 195.751 266.697 195.958 266.697 196.162C266.697 196.233 266.697 196.31 266.697 196.385V196.424C266.697 196.485 266.697 196.546 266.697 196.61C266.697 196.674 266.697 196.766 266.678 196.849C266.659 196.931 266.678 196.944 266.678 196.989L266.662 197.143C266.662 197.22 266.644 197.299 266.633 197.376C266.622 197.453 266.609 197.565 266.596 197.657C266.582 197.75 266.566 197.846 266.55 197.938C266.521 198.113 266.487 198.291 266.447 198.469C266.399 198.689 266.346 198.906 266.285 199.124C266.269 199.19 266.25 199.254 266.231 199.317C266.162 199.556 266.085 199.792 266 200.028C265.7 200.858 265.375 201.688 265.07 202.52C265.019 202.658 264.969 202.786 264.921 202.937C264.873 203.088 264.822 203.202 264.777 203.348C264.729 203.488 264.684 203.629 264.636 203.767C264.589 203.904 264.549 204.032 264.506 204.186C264.418 204.472 264.339 204.758 264.264 205.047C264.243 205.132 264.219 205.217 264.2 205.312C264.2 205.35 264.182 205.392 264.174 205.429C264.166 205.466 264.155 205.506 264.147 205.546C264.107 205.726 264.07 205.906 264.036 206.089L263.996 206.317C263.972 206.469 263.95 206.617 263.929 206.766C263.908 206.925 263.892 207.089 263.876 207.251C263.663 209.757 264.501 212.554 266.657 213.859C267.29 214.243 268.098 214.598 268.217 215.327C268.284 215.749 268.087 216.171 268.13 216.595C268.199 217.3 268.871 217.756 269.43 218.186C270.052 218.642 270.583 219.347 270.318 219.994Z" fill="#0BC6A0"/>
<g opacity="0.1">
<path opacity="0.1" d="M263.937 204.803C263.881 205.461 263.898 206.122 263.988 206.776C264.285 204.451 265.264 202.268 266.061 200.041C266.687 198.293 266.917 196.429 266.734 194.582C266.635 195.606 266.409 196.614 266.061 197.583C265.195 199.951 264.137 202.295 263.937 204.803Z" fill="black"/>
<path opacity="0.1" d="M264.004 177.569C264.004 178.07 263.98 178.569 263.956 179.067C263.942 179.37 263.926 179.672 263.905 179.977C263.905 180.146 263.881 180.319 263.865 180.488C263.865 180.61 263.841 180.735 263.831 180.857C263.831 180.894 263.831 180.931 263.817 180.968C263.802 181.117 263.786 181.265 263.767 181.411C263.743 181.61 263.714 181.809 263.685 182.008L263.645 182.273C263.589 182.655 263.53 183.039 263.483 183.424C263.426 183.183 263.393 182.937 263.384 182.689C263.342 181.435 263.61 180.194 263.767 178.945C263.825 178.479 263.871 178.007 263.903 177.535L264.004 177.569Z" fill="black"/>
<path opacity="0.1" d="M239.676 199.726C239.79 200.084 239.867 200.452 239.907 200.826C239.934 200.492 239.952 200.155 239.96 199.821C240.012 198.96 239.916 198.096 239.676 197.268C239.41 196.424 238.878 195.677 238.652 194.815C238.636 194.746 238.618 194.68 238.605 194.613C238.443 195.492 238.459 196.393 238.652 197.265C238.886 198.127 239.399 198.882 239.676 199.726Z" fill="black"/>
<path opacity="0.1" d="M269.48 218.207C269.233 218.297 268.967 218.364 268.722 218.435C266.208 219.17 264.655 221.617 262.65 223.29C261.64 224.137 260.492 224.806 259.256 225.268C256.448 226.313 253.319 226.228 250.403 225.549C247.487 224.871 244.169 224.298 241.976 222.264C240.223 220.637 238.721 218.76 237.517 216.696L237.424 216.531C237.305 217.006 237.063 217.47 237.079 217.958C237.124 218.386 237.275 218.797 237.517 219.154C238.72 221.219 240.222 223.096 241.976 224.722C244.169 226.758 247.487 227.331 250.403 228.01C253.319 228.689 256.448 228.774 259.256 227.726C260.492 227.266 261.64 226.598 262.65 225.751C264.655 224.067 266.208 221.63 268.722 220.896C269.329 220.718 270.052 220.58 270.318 220.002C270.583 219.347 270.052 218.645 269.48 218.207Z" fill="black"/>
<path opacity="0.1" d="M237.48 213.508C237.43 213.177 237.341 212.853 237.214 212.543C236.995 213.303 236.982 214.108 237.177 214.874C237.297 214.426 237.512 213.975 237.48 213.508Z" fill="black"/>
<path opacity="0.1" d="M242.345 183.668C242.313 183.862 242.264 184.052 242.199 184.238C242.167 184.1 242.138 183.973 242.108 183.827C241.719 182.079 241.448 180.307 241.295 178.524L241.561 178.441C241.704 179.426 241.882 180.398 242.092 181.358C242.276 182.114 242.467 182.891 242.345 183.668Z" fill="black"/>
</g>
<path d="M232.902 190.151L231.132 191.458C231.132 191.458 227.388 199.842 227.662 204.544C227.705 205.291 227.726 206.042 227.713 206.792C227.684 208.314 228.122 210.769 231.363 210.12C235.981 209.197 247.378 205.05 247.378 205.05L246.607 201.364C246.607 201.364 236.906 203.82 235.226 202.759C235.226 202.759 237.459 196.538 237.15 195.772C236.842 195.006 232.902 190.151 232.902 190.151Z" fill="#DB8B8B"/>
<path d="M272.178 184.161L273.242 186.619C273.242 186.619 276.323 193.532 276.937 196.141C277.551 198.75 278.633 205.511 278.633 205.511C278.633 205.511 281.095 210.284 271.548 208.274C262.002 206.264 257.99 203.822 257.99 203.822L259.851 200.442C259.851 200.442 268.935 202.131 270.169 201.21C270.169 201.21 266.473 192.763 266.779 192.147C267.085 191.532 272.178 184.161 272.178 184.161Z" fill="#DB8B8B"/>
<path d="M245.062 202.438L246.601 201.057C246.601 201.057 249.526 187.534 252.147 189.538C254.768 191.543 251.067 203.061 251.067 203.061L247.372 205.058L245.062 202.438Z" fill="#DB8B8B"/>
<path d="M260.773 201.518L259.851 200.442C259.851 200.442 256.616 187.08 253.845 189.384C251.075 191.689 256.759 202.759 256.759 202.759L257.993 203.836L260.454 203.22L260.773 201.518Z" fill="#DB8B8B"/>
<path d="M267.087 226.247C267.087 226.247 255.52 227.45 254.529 228.153C253.537 228.856 254.154 233.157 254.154 233.157L269.398 232.237L267.087 226.247Z" fill="#DB8B8B"/>
<path opacity="0.1" d="M267.087 226.247C267.087 226.247 255.52 227.45 254.529 228.153C253.537 228.856 254.154 233.157 254.154 233.157L269.398 232.237L267.087 226.247Z" fill="black"/>
<path opacity="0.1" d="M286.877 229.702C285.197 232.417 284.647 233.926 278.636 233.926H265.394V225.939L267.087 225.016C274.326 221.792 282.334 222.866 282.334 222.866L286.877 229.702Z" fill="black"/>
<path d="M290.083 229.54C288.403 232.255 284.955 234.236 278.947 234.236H265.702V226.247L267.393 225.324C274.632 222.1 282.639 223.173 282.639 223.173L290.083 229.54Z" fill="#35323E"/>
<path d="M261.497 227.623C262.028 227.485 262.6 227.323 263.153 227.411C263.486 227.475 263.801 227.611 264.076 227.809C264.352 228.007 264.581 228.262 264.748 228.556C264.86 228.794 265.017 229.009 265.211 229.187C265.438 229.326 265.699 229.4 265.966 229.402C267.787 229.574 269.642 229.572 271.413 230.036C273.183 230.5 274.919 231.526 275.69 233.183C275.789 233.371 275.843 233.579 275.85 233.79C275.819 234.009 275.728 234.215 275.587 234.386C275.446 234.557 275.261 234.685 275.052 234.758C273.789 235.307 272.378 234.57 271.03 234.281C269.509 233.955 267.935 234.22 266.388 234.395C264.863 234.572 263.328 234.661 261.792 234.66C260.529 234.67 259.269 234.554 258.03 234.313C257.336 234.167 256.653 233.963 255.951 233.87C255.282 233.797 254.609 233.773 253.936 233.796C250.822 233.831 247.712 233.784 244.605 233.655C243.618 233.615 242.614 233.565 241.696 233.204C241.496 233.145 241.321 233.02 241.202 232.849C241.135 232.715 241.101 232.567 241.104 232.417C241.02 230.916 241.323 229.419 241.986 228.068C242.201 227.625 242.624 226.597 243.103 226.379C243.581 226.162 244.841 226.689 245.376 226.809C248.776 227.578 252.235 228.238 255.744 228.262C257.681 228.291 259.614 228.077 261.497 227.623Z" fill="#DB8B8B"/>
<path opacity="0.1" d="M244.296 225.785L242.239 233.782L229.59 233.467C227.784 232.775 232.336 230.85 229.59 228.485L226.28 220.869C226.28 220.869 230.438 221.484 233.21 222.561C235.983 223.637 237.677 223.481 237.677 223.481C237.677 223.481 243.682 225.016 244.296 225.785Z" fill="black"/>
<path d="M244.296 226.247L242.239 234.233L229.59 233.918C227.785 233.226 223.504 231.428 220.758 229.06L226.28 221.32C226.28 221.32 230.438 221.935 233.211 223.009C235.983 224.083 237.677 223.932 237.677 223.932C237.677 223.932 243.682 225.478 244.296 226.247Z" fill="#35323E"/>
<path d="M261.64 158.484C261.931 156.041 258.065 153.574 253.006 152.975C247.947 152.376 243.61 153.871 243.319 156.314C243.028 158.757 246.894 161.224 251.953 161.823C257.012 162.422 261.349 160.927 261.64 158.484Z" fill="#35323E"/>
<path d="M253.152 151.215C254.937 151.215 256.384 149.772 256.384 147.991C256.384 146.21 254.937 144.766 253.152 144.766C251.366 144.766 249.919 146.21 249.919 147.991C249.919 149.772 251.366 151.215 253.152 151.215Z" fill="#35323E"/>
<path opacity="0.1" d="M249.919 147.991C249.919 147.991 253.973 147.211 255.948 148.521C257.924 149.831 249.919 147.991 249.919 147.991Z" fill="black"/>
<path d="M264.07 158.178C264.07 158.443 263.892 158.754 263.272 158.213C261.709 156.852 258.112 153.267 253.17 153.267C248.018 153.267 243.842 156.945 242.005 158.213C241.383 158.642 240.941 158.409 240.941 158.178C240.941 157.274 246.258 149.993 253.17 149.993C260.082 149.993 264.07 157.274 264.07 158.178Z" fill="#F55F44"/>
<path opacity="0.1" d="M263.767 157.308C263.687 157.481 263.469 157.555 263.007 157.152C261.443 155.792 257.847 152.207 252.904 152.207C247.752 152.207 243.576 155.884 241.739 157.152C241.608 157.246 241.461 157.317 241.306 157.361C241.129 157.606 241.006 157.884 240.941 158.178C240.941 158.409 241.383 158.642 242.005 158.213C243.842 156.945 248.018 153.267 253.17 153.267C258.112 153.267 261.709 156.852 263.272 158.213C263.892 158.743 264.07 158.435 264.07 158.178C264.02 157.873 263.917 157.579 263.767 157.308Z" fill="black"/>
<path d="M264.171 158.144H263.302V163.052H264.171V158.144Z" fill="#6A5C99"/>
<path d="M262.143 161.318C262.936 161.318 263.696 161.632 264.257 162.191C264.818 162.751 265.133 163.509 265.133 164.301V164.494C265.133 165.285 264.818 166.044 264.257 166.603C263.696 167.163 262.936 167.477 262.143 167.477V161.318Z" fill="#F55F44"/>
<path d="M262.914 161.702C262.914 161.33 262.611 161.029 262.238 161.029C261.865 161.029 261.563 161.33 261.563 161.702V167.09C261.563 167.462 261.865 167.764 262.238 167.764C262.611 167.764 262.914 167.462 262.914 167.09V161.702Z" fill="#6A5C99"/>
<path d="M240.944 163.147H241.813V158.239H240.944V163.147Z" fill="#6A5C99"/>
<path d="M242.972 167.573C242.179 167.573 241.418 167.258 240.857 166.699C240.297 166.14 239.981 165.381 239.981 164.59V164.396C239.981 163.605 240.297 162.846 240.857 162.287C241.418 161.727 242.179 161.413 242.972 161.413V167.573Z" fill="#F55F44"/>
<path d="M242.199 167.188C242.199 167.56 242.501 167.862 242.874 167.862C243.247 167.862 243.549 167.56 243.549 167.188V161.8C243.549 161.428 243.247 161.127 242.874 161.127C242.501 161.127 242.199 161.428 242.199 161.8V167.188Z" fill="#6A5C99"/>
<path d="M307.988 222.821C312.951 222.821 316.974 222.049 316.974 221.097C316.974 220.145 312.951 219.374 307.988 219.374C303.025 219.374 299.002 220.145 299.002 221.097C299.002 222.049 303.025 222.821 307.988 222.821Z" fill="#FFC107"/>
<path d="M307.837 221.731C308.415 221.731 308.884 221.12 308.884 220.365C308.884 219.611 308.415 219 307.837 219C307.258 219 306.789 219.611 306.789 220.365C306.789 221.12 307.258 221.731 307.837 221.731Z" fill="#3F3D56"/>
<path d="M307.837 220.061C308.415 220.061 308.884 219.449 308.884 218.695C308.884 217.941 308.415 217.329 307.837 217.329C307.258 217.329 306.789 217.941 306.789 218.695C306.789 219.449 307.258 220.061 307.837 220.061Z" fill="#3F3D56"/>
<path d="M307.837 218.393C308.415 218.393 308.884 217.781 308.884 217.027C308.884 216.273 308.415 215.661 307.837 215.661C307.258 215.661 306.789 216.273 306.789 217.027C306.789 217.781 307.258 218.393 307.837 218.393Z" fill="#3F3D56"/>
<path d="M307.837 216.722C308.415 216.722 308.884 216.111 308.884 215.357C308.884 214.602 308.415 213.991 307.837 213.991C307.258 213.991 306.789 214.602 306.789 215.357C306.789 216.111 307.258 216.722 307.837 216.722Z" fill="#3F3D56"/>
<path d="M307.837 215.052C308.415 215.052 308.884 214.44 308.884 213.686C308.884 212.932 308.415 212.321 307.837 212.321C307.258 212.321 306.789 212.932 306.789 213.686C306.789 214.44 307.258 215.052 307.837 215.052Z" fill="#3F3D56"/>
<path d="M307.837 213.384C308.415 213.384 308.884 212.773 308.884 212.018C308.884 211.264 308.415 210.653 307.837 210.653C307.258 210.653 306.789 211.264 306.789 212.018C306.789 212.773 307.258 213.384 307.837 213.384Z" fill="#3F3D56"/>
<path d="M307.837 211.713C308.415 211.713 308.884 211.102 308.884 210.348C308.884 209.594 308.415 208.982 307.837 208.982C307.258 208.982 306.789 209.594 306.789 210.348C306.789 211.102 307.258 211.713 307.837 211.713Z" fill="#3F3D56"/>
<path d="M311.755 198.922C311.897 198.741 312.026 198.55 312.143 198.352L309.394 197.901L312.366 197.923C312.652 197.304 312.808 196.634 312.825 195.953C312.841 195.272 312.718 194.595 312.462 193.964L308.474 196.027L312.154 193.33C311.809 192.737 311.345 192.222 310.792 191.815C310.238 191.409 309.607 191.12 308.937 190.967C308.267 190.814 307.572 190.801 306.897 190.927C306.221 191.053 305.579 191.317 305.01 191.701C304.441 192.086 303.957 192.583 303.589 193.162C303.221 193.74 302.976 194.389 302.869 195.066C302.763 195.743 302.797 196.435 302.97 197.098C303.143 197.762 303.451 198.383 303.875 198.922C303.654 199.206 303.462 199.511 303.304 199.834L306.874 201.69L303.067 200.418C302.799 201.205 302.732 202.046 302.871 202.865C303.01 203.684 303.352 204.456 303.865 205.111C303.284 205.848 302.922 206.734 302.822 207.666C302.721 208.599 302.886 209.541 303.297 210.384C303.708 211.228 304.349 211.939 305.146 212.436C305.943 212.934 306.864 213.198 307.804 213.198C308.745 213.198 309.666 212.934 310.463 212.436C311.26 211.939 311.901 211.228 312.312 210.384C312.723 209.541 312.887 208.599 312.787 207.666C312.687 206.734 312.325 205.848 311.744 205.111C312.438 204.23 312.816 203.141 312.816 202.021C312.816 200.9 312.438 199.812 311.744 198.93L311.755 198.922Z" fill="#0BC6A0"/>
<path opacity="0.1" d="M302.804 202.014C302.8 203.134 303.175 204.222 303.867 205.103C303.286 205.84 302.925 206.726 302.825 207.658C302.724 208.591 302.889 209.533 303.3 210.376C303.711 211.22 304.351 211.931 305.148 212.429C305.946 212.926 306.867 213.19 307.807 213.19C308.747 213.19 309.669 212.926 310.466 212.429C311.263 211.931 311.903 211.22 312.314 210.376C312.725 209.533 312.89 208.591 312.79 207.658C312.689 206.726 312.328 205.84 311.747 205.103C312.425 204.255 302.804 201.452 302.804 202.014Z" fill="black"/>
<path d="M161.405 281.872H156.957L156.221 284H153.869L157.885 272.816H160.493L164.509 284H162.141L161.405 281.872ZM160.797 280.08L159.181 275.408L157.565 280.08H160.797ZM168.25 272.16V284H166.01V272.16H168.25ZM172.703 272.16V284H170.463V272.16H172.703ZM178.153 279.568C178.153 278.651 178.34 277.851 178.713 277.168C179.086 276.475 179.604 275.941 180.265 275.568C180.926 275.184 181.684 274.992 182.537 274.992C183.636 274.992 184.542 275.269 185.257 275.824C185.982 276.368 186.468 277.136 186.713 278.128H184.297C184.169 277.744 183.95 277.445 183.641 277.232C183.342 277.008 182.969 276.896 182.521 276.896C181.881 276.896 181.374 277.131 181.001 277.6C180.628 278.059 180.441 278.715 180.441 279.568C180.441 280.411 180.628 281.067 181.001 281.536C181.374 281.995 181.881 282.224 182.521 282.224C183.428 282.224 184.02 281.819 184.297 281.008H186.713C186.468 281.968 185.982 282.731 185.257 283.296C184.532 283.861 183.625 284.144 182.537 284.144C181.684 284.144 180.926 283.957 180.265 283.584C179.604 283.2 179.086 282.667 178.713 281.984C178.34 281.291 178.153 280.485 178.153 279.568ZM190.594 272.16V284H188.354V272.16H190.594ZM201.047 279.376C201.047 279.696 201.026 279.984 200.983 280.24H194.503C194.556 280.88 194.78 281.381 195.175 281.744C195.57 282.107 196.055 282.288 196.631 282.288C197.463 282.288 198.055 281.931 198.407 281.216H200.823C200.567 282.069 200.076 282.773 199.351 283.328C198.626 283.872 197.735 284.144 196.679 284.144C195.826 284.144 195.058 283.957 194.375 283.584C193.703 283.2 193.175 282.661 192.791 281.968C192.418 281.275 192.231 280.475 192.231 279.568C192.231 278.651 192.418 277.845 192.791 277.152C193.164 276.459 193.687 275.925 194.359 275.552C195.031 275.179 195.804 274.992 196.679 274.992C197.522 274.992 198.274 275.173 198.935 275.536C199.607 275.899 200.124 276.416 200.487 277.088C200.86 277.749 201.047 278.512 201.047 279.376ZM198.727 278.736C198.716 278.16 198.508 277.701 198.103 277.36C197.698 277.008 197.202 276.832 196.615 276.832C196.06 276.832 195.591 277.003 195.207 277.344C194.834 277.675 194.604 278.139 194.519 278.736H198.727ZM202.106 279.536C202.106 278.64 202.282 277.845 202.634 277.152C202.997 276.459 203.482 275.925 204.09 275.552C204.709 275.179 205.397 274.992 206.154 274.992C206.815 274.992 207.391 275.125 207.882 275.392C208.383 275.659 208.783 275.995 209.082 276.4V275.136H211.338V284H209.082V282.704C208.794 283.12 208.394 283.467 207.882 283.744C207.381 284.011 206.799 284.144 206.138 284.144C205.391 284.144 204.709 283.952 204.09 283.568C203.482 283.184 202.997 282.645 202.634 281.952C202.282 281.248 202.106 280.443 202.106 279.536ZM209.082 279.568C209.082 279.024 208.975 278.56 208.762 278.176C208.549 277.781 208.261 277.483 207.898 277.28C207.535 277.067 207.146 276.96 206.73 276.96C206.314 276.96 205.93 277.061 205.578 277.264C205.226 277.467 204.938 277.765 204.714 278.16C204.501 278.544 204.394 279.003 204.394 279.536C204.394 280.069 204.501 280.539 204.714 280.944C204.938 281.339 205.226 281.643 205.578 281.856C205.941 282.069 206.325 282.176 206.73 282.176C207.146 282.176 207.535 282.075 207.898 281.872C208.261 281.659 208.549 281.36 208.762 280.976C208.975 280.581 209.082 280.112 209.082 279.568ZM215.766 276.512C216.054 276.043 216.427 275.675 216.886 275.408C217.355 275.141 217.889 275.008 218.486 275.008V277.36H217.894C217.19 277.36 216.657 277.525 216.294 277.856C215.942 278.187 215.766 278.763 215.766 279.584V284H213.526V275.136H215.766V276.512ZM222.891 272.64L222.635 280.368H220.747L220.475 272.64H222.891ZM221.739 284.112C221.333 284.112 220.997 283.989 220.731 283.744C220.475 283.488 220.347 283.173 220.347 282.8C220.347 282.427 220.475 282.117 220.731 281.872C220.997 281.616 221.333 281.488 221.739 281.488C222.133 281.488 222.459 281.616 222.715 281.872C222.971 282.117 223.099 282.427 223.099 282.8C223.099 283.173 222.971 283.488 222.715 283.744C222.459 283.989 222.133 284.112 221.739 284.112ZM50.8837 296.832V298.64H47.9077V308H45.6677V298.64H42.6917V296.832H50.8837ZM53.6541 298.08C53.2594 298.08 52.9287 297.957 52.6621 297.712C52.4061 297.456 52.2781 297.141 52.2781 296.768C52.2781 296.395 52.4061 296.085 52.6621 295.84C52.9287 295.584 53.2594 295.456 53.6541 295.456C54.0487 295.456 54.3741 295.584 54.6301 295.84C54.8967 296.085 55.0301 296.395 55.0301 296.768C55.0301 297.141 54.8967 297.456 54.6301 297.712C54.3741 297.957 54.0487 298.08 53.6541 298.08ZM54.7581 299.136V308H52.5181V299.136H54.7581ZM67.9792 299.008C69.0672 299.008 69.9419 299.344 70.6032 300.016C71.2752 300.677 71.6112 301.605 71.6112 302.8V308H69.3712V303.104C69.3712 302.411 69.1952 301.883 68.8432 301.52C68.4912 301.147 68.0112 300.96 67.4032 300.96C66.7952 300.96 66.3099 301.147 65.9472 301.52C65.5952 301.883 65.4192 302.411 65.4192 303.104V308H63.1792V303.104C63.1792 302.411 63.0032 301.883 62.6512 301.52C62.2992 301.147 61.8192 300.96 61.2112 300.96C60.5925 300.96 60.1019 301.147 59.7392 301.52C59.3872 301.883 59.2112 302.411 59.2112 303.104V308H56.9712V299.136H59.2112V300.208C59.4992 299.835 59.8672 299.541 60.3152 299.328C60.7739 299.115 61.2752 299.008 61.8192 299.008C62.5125 299.008 63.1312 299.157 63.6752 299.456C64.2192 299.744 64.6405 300.16 64.9392 300.704C65.2272 300.192 65.6432 299.781 66.1872 299.472C66.7419 299.163 67.3392 299.008 67.9792 299.008ZM81.9768 303.376C81.9768 303.696 81.9555 303.984 81.9128 304.24H75.4328C75.4861 304.88 75.7101 305.381 76.1048 305.744C76.4995 306.107 76.9848 306.288 77.5608 306.288C78.3928 306.288 78.9848 305.931 79.3368 305.216H81.7528C81.4968 306.069 81.0061 306.773 80.2808 307.328C79.5555 307.872 78.6648 308.144 77.6088 308.144C76.7555 308.144 75.9875 307.957 75.3048 307.584C74.6328 307.2 74.1048 306.661 73.7208 305.968C73.3475 305.275 73.1608 304.475 73.1608 303.568C73.1608 302.651 73.3475 301.845 73.7208 301.152C74.0941 300.459 74.6168 299.925 75.2888 299.552C75.9608 299.179 76.7341 298.992 77.6088 298.992C78.4515 298.992 79.2035 299.173 79.8648 299.536C80.5368 299.899 81.0541 300.416 81.4168 301.088C81.7901 301.749 81.9768 302.512 81.9768 303.376ZM79.6568 302.736C79.6461 302.16 79.4381 301.701 79.0328 301.36C78.6275 301.008 78.1315 300.832 77.5448 300.832C76.9901 300.832 76.5208 301.003 76.1368 301.344C75.7635 301.675 75.5341 302.139 75.4488 302.736H79.6568ZM91.4883 300.976H89.9363V308H87.6643V300.976H86.6563V299.136H87.6643V298.688C87.6643 297.6 87.9736 296.8 88.5923 296.288C89.211 295.776 90.1443 295.536 91.3923 295.568V297.456C90.8483 297.445 90.4696 297.536 90.2563 297.728C90.043 297.92 89.9363 298.267 89.9363 298.768V299.136H91.4883V300.976ZM96.8759 308.144C96.0226 308.144 95.2546 307.957 94.5719 307.584C93.8893 307.2 93.3506 306.661 92.9559 305.968C92.5719 305.275 92.3799 304.475 92.3799 303.568C92.3799 302.661 92.5773 301.861 92.9719 301.168C93.3773 300.475 93.9266 299.941 94.6199 299.568C95.3133 299.184 96.0866 298.992 96.9399 298.992C97.7933 298.992 98.5666 299.184 99.2599 299.568C99.9533 299.941 100.497 300.475 100.892 301.168C101.297 301.861 101.5 302.661 101.5 303.568C101.5 304.475 101.292 305.275 100.876 305.968C100.471 306.661 99.9159 307.2 99.2119 307.584C98.5186 307.957 97.7399 308.144 96.8759 308.144ZM96.8759 306.192C97.2813 306.192 97.6599 306.096 98.0119 305.904C98.3746 305.701 98.6626 305.403 98.8759 305.008C99.0893 304.613 99.1959 304.133 99.1959 303.568C99.1959 302.725 98.9719 302.08 98.5239 301.632C98.0866 301.173 97.5479 300.944 96.9079 300.944C96.2679 300.944 95.7293 301.173 95.2919 301.632C94.8653 302.08 94.6519 302.725 94.6519 303.568C94.6519 304.411 94.8599 305.061 95.2759 305.52C95.7026 305.968 96.2359 306.192 96.8759 306.192ZM105.383 300.512C105.671 300.043 106.044 299.675 106.503 299.408C106.972 299.141 107.506 299.008 108.103 299.008V301.36H107.511C106.807 301.36 106.274 301.525 105.911 301.856C105.559 302.187 105.383 302.763 105.383 303.584V308H103.143V299.136H105.383V300.512ZM116.816 308.144C116.091 308.144 115.44 308.016 114.864 307.76C114.288 307.493 113.83 307.136 113.488 306.688C113.158 306.24 112.976 305.744 112.944 305.2H115.2C115.243 305.541 115.408 305.824 115.696 306.048C115.995 306.272 116.363 306.384 116.8 306.384C117.227 306.384 117.558 306.299 117.792 306.128C118.038 305.957 118.16 305.739 118.16 305.472C118.16 305.184 118.011 304.971 117.712 304.832C117.424 304.683 116.96 304.523 116.32 304.352C115.659 304.192 115.115 304.027 114.688 303.856C114.272 303.685 113.91 303.424 113.6 303.072C113.302 302.72 113.152 302.245 113.152 301.648C113.152 301.157 113.291 300.709 113.568 300.304C113.856 299.899 114.262 299.579 114.784 299.344C115.318 299.109 115.942 298.992 116.656 298.992C117.712 298.992 118.555 299.259 119.184 299.792C119.814 300.315 120.16 301.024 120.224 301.92H118.08C118.048 301.568 117.899 301.291 117.632 301.088C117.376 300.875 117.03 300.768 116.592 300.768C116.187 300.768 115.872 300.843 115.648 300.992C115.435 301.141 115.328 301.349 115.328 301.616C115.328 301.915 115.478 302.144 115.776 302.304C116.075 302.453 116.539 302.608 117.168 302.768C117.808 302.928 118.336 303.093 118.752 303.264C119.168 303.435 119.526 303.701 119.824 304.064C120.134 304.416 120.294 304.885 120.304 305.472C120.304 305.984 120.16 306.443 119.872 306.848C119.595 307.253 119.19 307.573 118.656 307.808C118.134 308.032 117.52 308.144 116.816 308.144ZM126.079 308.144C125.226 308.144 124.458 307.957 123.775 307.584C123.092 307.2 122.554 306.661 122.159 305.968C121.775 305.275 121.583 304.475 121.583 303.568C121.583 302.661 121.78 301.861 122.175 301.168C122.58 300.475 123.13 299.941 123.823 299.568C124.516 299.184 125.29 298.992 126.143 298.992C126.996 298.992 127.77 299.184 128.463 299.568C129.156 299.941 129.7 300.475 130.095 301.168C130.5 301.861 130.703 302.661 130.703 303.568C130.703 304.475 130.495 305.275 130.079 305.968C129.674 306.661 129.119 307.2 128.415 307.584C127.722 307.957 126.943 308.144 126.079 308.144ZM126.079 306.192C126.484 306.192 126.863 306.096 127.215 305.904C127.578 305.701 127.866 305.403 128.079 305.008C128.292 304.613 128.399 304.133 128.399 303.568C128.399 302.725 128.175 302.08 127.727 301.632C127.29 301.173 126.751 300.944 126.111 300.944C125.471 300.944 124.932 301.173 124.495 301.632C124.068 302.08 123.855 302.725 123.855 303.568C123.855 304.411 124.063 305.061 124.479 305.52C124.906 305.968 125.439 306.192 126.079 306.192ZM143.354 299.008C144.442 299.008 145.317 299.344 145.978 300.016C146.65 300.677 146.986 301.605 146.986 302.8V308H144.746V303.104C144.746 302.411 144.57 301.883 144.218 301.52C143.866 301.147 143.386 300.96 142.778 300.96C142.17 300.96 141.685 301.147 141.322 301.52C140.97 301.883 140.794 302.411 140.794 303.104V308H138.554V303.104C138.554 302.411 138.378 301.883 138.026 301.52C137.674 301.147 137.194 300.96 136.586 300.96C135.968 300.96 135.477 301.147 135.114 301.52C134.762 301.883 134.586 302.411 134.586 303.104V308H132.346V299.136H134.586V300.208C134.874 299.835 135.242 299.541 135.69 299.328C136.149 299.115 136.65 299.008 137.194 299.008C137.888 299.008 138.506 299.157 139.05 299.456C139.594 299.744 140.016 300.16 140.314 300.704C140.602 300.192 141.018 299.781 141.562 299.472C142.117 299.163 142.714 299.008 143.354 299.008ZM157.352 303.376C157.352 303.696 157.33 303.984 157.288 304.24H150.808C150.861 304.88 151.085 305.381 151.48 305.744C151.874 306.107 152.36 306.288 152.936 306.288C153.768 306.288 154.36 305.931 154.712 305.216H157.128C156.872 306.069 156.381 306.773 155.656 307.328C154.93 307.872 154.04 308.144 152.984 308.144C152.13 308.144 151.362 307.957 150.68 307.584C150.008 307.2 149.48 306.661 149.096 305.968C148.722 305.275 148.536 304.475 148.536 303.568C148.536 302.651 148.722 301.845 149.096 301.152C149.469 300.459 149.992 299.925 150.664 299.552C151.336 299.179 152.109 298.992 152.984 298.992C153.826 298.992 154.578 299.173 155.24 299.536C155.912 299.899 156.429 300.416 156.792 301.088C157.165 301.749 157.352 302.512 157.352 303.376ZM155.032 302.736C155.021 302.16 154.813 301.701 154.408 301.36C154.002 301.008 153.506 300.832 152.92 300.832C152.365 300.832 151.896 301.003 151.512 301.344C151.138 301.675 150.909 302.139 150.824 302.736H155.032ZM165.039 300.432C165.327 300.005 165.722 299.659 166.223 299.392C166.735 299.125 167.317 298.992 167.967 298.992C168.725 298.992 169.407 299.179 170.015 299.552C170.634 299.925 171.119 300.459 171.471 301.152C171.834 301.835 172.015 302.629 172.015 303.536C172.015 304.443 171.834 305.248 171.471 305.952C171.119 306.645 170.634 307.184 170.015 307.568C169.407 307.952 168.725 308.144 167.967 308.144C167.306 308.144 166.725 308.016 166.223 307.76C165.733 307.493 165.338 307.152 165.039 306.736V308H162.799V296.16H165.039V300.432ZM169.727 303.536C169.727 303.003 169.615 302.544 169.391 302.16C169.178 301.765 168.89 301.467 168.527 301.264C168.175 301.061 167.791 300.96 167.375 300.96C166.97 300.96 166.586 301.067 166.223 301.28C165.871 301.483 165.583 301.781 165.359 302.176C165.146 302.571 165.039 303.035 165.039 303.568C165.039 304.101 165.146 304.565 165.359 304.96C165.583 305.355 165.871 305.659 166.223 305.872C166.586 306.075 166.97 306.176 167.375 306.176C167.791 306.176 168.175 306.069 168.527 305.856C168.89 305.643 169.178 305.339 169.391 304.944C169.615 304.549 169.727 304.08 169.727 303.536ZM175.883 300.512C176.171 300.043 176.544 299.675 177.003 299.408C177.472 299.141 178.006 299.008 178.603 299.008V301.36H178.011C177.307 301.36 176.774 301.525 176.411 301.856C176.059 302.187 175.883 302.763 175.883 303.584V308H173.643V299.136H175.883V300.512ZM188.352 303.376C188.352 303.696 188.33 303.984 188.288 304.24H181.808C181.861 304.88 182.085 305.381 182.48 305.744C182.874 306.107 183.36 306.288 183.936 306.288C184.768 306.288 185.36 305.931 185.712 305.216H188.128C187.872 306.069 187.381 306.773 186.656 307.328C185.93 307.872 185.04 308.144 183.984 308.144C183.13 308.144 182.362 307.957 181.68 307.584C181.008 307.2 180.48 306.661 180.096 305.968C179.722 305.275 179.536 304.475 179.536 303.568C179.536 302.651 179.722 301.845 180.096 301.152C180.469 300.459 180.992 299.925 181.664 299.552C182.336 299.179 183.109 298.992 183.984 298.992C184.826 298.992 185.578 299.173 186.24 299.536C186.912 299.899 187.429 300.416 187.792 301.088C188.165 301.749 188.352 302.512 188.352 303.376ZM186.032 302.736C186.021 302.16 185.813 301.701 185.408 301.36C185.002 301.008 184.506 300.832 183.92 300.832C183.365 300.832 182.896 301.003 182.512 301.344C182.138 301.675 181.909 302.139 181.824 302.736H186.032ZM189.411 303.536C189.411 302.64 189.587 301.845 189.939 301.152C190.301 300.459 190.787 299.925 191.395 299.552C192.013 299.179 192.701 298.992 193.459 298.992C194.12 298.992 194.696 299.125 195.187 299.392C195.688 299.659 196.088 299.995 196.387 300.4V299.136H198.643V308H196.387V306.704C196.099 307.12 195.699 307.467 195.187 307.744C194.685 308.011 194.104 308.144 193.443 308.144C192.696 308.144 192.013 307.952 191.395 307.568C190.787 307.184 190.301 306.645 189.939 305.952C189.587 305.248 189.411 304.443 189.411 303.536ZM196.387 303.568C196.387 303.024 196.28 302.56 196.067 302.176C195.853 301.781 195.565 301.483 195.203 301.28C194.84 301.067 194.451 300.96 194.035 300.96C193.619 300.96 193.235 301.061 192.883 301.264C192.531 301.467 192.243 301.765 192.019 302.16C191.805 302.544 191.699 303.003 191.699 303.536C191.699 304.069 191.805 304.539 192.019 304.944C192.243 305.339 192.531 305.643 192.883 305.856C193.245 306.069 193.629 306.176 194.035 306.176C194.451 306.176 194.84 306.075 195.203 305.872C195.565 305.659 195.853 305.36 196.067 304.976C196.28 304.581 196.387 304.112 196.387 303.568ZM203.439 300.976V305.264C203.439 305.563 203.508 305.781 203.647 305.92C203.796 306.048 204.041 306.112 204.383 306.112H205.423V308H204.015C202.127 308 201.183 307.083 201.183 305.248V300.976H200.127V299.136H201.183V296.944H203.439V299.136H205.423V300.976H203.439ZM212.026 299.008C212.698 299.008 213.295 299.157 213.818 299.456C214.34 299.744 214.746 300.176 215.034 300.752C215.332 301.317 215.482 302 215.482 302.8V308H213.242V303.104C213.242 302.4 213.066 301.861 212.714 301.488C212.362 301.104 211.882 300.912 211.274 300.912C210.655 300.912 210.164 301.104 209.802 301.488C209.45 301.861 209.274 302.4 209.274 303.104V308H207.034V296.16H209.274V300.24C209.562 299.856 209.946 299.557 210.426 299.344C210.906 299.12 211.439 299.008 212.026 299.008ZM218.748 298.08C218.353 298.08 218.022 297.957 217.756 297.712C217.5 297.456 217.372 297.141 217.372 296.768C217.372 296.395 217.5 296.085 217.756 295.84C218.022 295.584 218.353 295.456 218.748 295.456C219.142 295.456 219.468 295.584 219.724 295.84C219.99 296.085 220.124 296.395 220.124 296.768C220.124 297.141 219.99 297.456 219.724 297.712C219.468 297.957 219.142 298.08 218.748 298.08ZM219.852 299.136V308H217.612V299.136H219.852ZM226.977 299.008C228.033 299.008 228.886 299.344 229.537 300.016C230.188 300.677 230.513 301.605 230.513 302.8V308H228.273V303.104C228.273 302.4 228.097 301.861 227.745 301.488C227.393 301.104 226.913 300.912 226.305 300.912C225.686 300.912 225.196 301.104 224.833 301.488C224.481 301.861 224.305 302.4 224.305 303.104V308H222.065V299.136H224.305V300.24C224.604 299.856 224.982 299.557 225.441 299.344C225.91 299.12 226.422 299.008 226.977 299.008ZM236.115 298.992C236.776 298.992 237.358 299.125 237.859 299.392C238.36 299.648 238.755 299.984 239.043 300.4V299.136H241.299V308.064C241.299 308.885 241.134 309.616 240.803 310.256C240.472 310.907 239.976 311.419 239.315 311.792C238.654 312.176 237.854 312.368 236.915 312.368C235.656 312.368 234.622 312.075 233.811 311.488C233.011 310.901 232.558 310.101 232.451 309.088H234.675C234.792 309.493 235.043 309.813 235.427 310.048C235.822 310.293 236.296 310.416 236.851 310.416C237.502 310.416 238.03 310.219 238.435 309.824C238.84 309.44 239.043 308.853 239.043 308.064V306.688C238.755 307.104 238.355 307.451 237.843 307.728C237.342 308.005 236.766 308.144 236.115 308.144C235.368 308.144 234.686 307.952 234.067 307.568C233.448 307.184 232.958 306.645 232.595 305.952C232.243 305.248 232.067 304.443 232.067 303.536C232.067 302.64 232.243 301.845 232.595 301.152C232.958 300.459 233.443 299.925 234.051 299.552C234.67 299.179 235.358 298.992 236.115 298.992ZM239.043 303.568C239.043 303.024 238.936 302.56 238.723 302.176C238.51 301.781 238.222 301.483 237.859 301.28C237.496 301.067 237.107 300.96 236.691 300.96C236.275 300.96 235.891 301.061 235.539 301.264C235.187 301.467 234.899 301.765 234.675 302.16C234.462 302.544 234.355 303.003 234.355 303.536C234.355 304.069 234.462 304.539 234.675 304.944C234.899 305.339 235.187 305.643 235.539 305.856C235.902 306.069 236.286 306.176 236.691 306.176C237.107 306.176 237.496 306.075 237.859 305.872C238.222 305.659 238.51 305.36 238.723 304.976C238.936 304.581 239.043 304.112 239.043 303.568ZM255.539 303.376C255.539 303.696 255.518 303.984 255.475 304.24H248.995C249.049 304.88 249.273 305.381 249.667 305.744C250.062 306.107 250.547 306.288 251.123 306.288C251.955 306.288 252.547 305.931 252.899 305.216H255.315C255.059 306.069 254.569 306.773 253.843 307.328C253.118 307.872 252.227 308.144 251.171 308.144C250.318 308.144 249.55 307.957 248.867 307.584C248.195 307.2 247.667 306.661 247.283 305.968C246.91 305.275 246.723 304.475 246.723 303.568C246.723 302.651 246.91 301.845 247.283 301.152C247.657 300.459 248.179 299.925 248.851 299.552C249.523 299.179 250.297 298.992 251.171 298.992C252.014 298.992 252.766 299.173 253.427 299.536C254.099 299.899 254.617 300.416 254.979 301.088C255.353 301.749 255.539 302.512 255.539 303.376ZM253.219 302.736C253.209 302.16 253.001 301.701 252.595 301.36C252.19 301.008 251.694 300.832 251.107 300.832C250.553 300.832 250.083 301.003 249.699 301.344C249.326 301.675 249.097 302.139 249.011 302.736H253.219ZM262.07 308L260.246 305.248L258.63 308H256.23L259.126 303.552L256.198 299.136H258.726L260.534 301.872L262.166 299.136H264.566L261.654 303.552L264.598 308H262.07ZM265.239 303.568C265.239 302.651 265.426 301.851 265.799 301.168C266.172 300.475 266.69 299.941 267.351 299.568C268.012 299.184 268.77 298.992 269.623 298.992C270.722 298.992 271.628 299.269 272.343 299.824C273.068 300.368 273.554 301.136 273.799 302.128H271.383C271.255 301.744 271.036 301.445 270.727 301.232C270.428 301.008 270.055 300.896 269.607 300.896C268.967 300.896 268.46 301.131 268.087 301.6C267.714 302.059 267.527 302.715 267.527 303.568C267.527 304.411 267.714 305.067 268.087 305.536C268.46 305.995 268.967 306.224 269.607 306.224C270.514 306.224 271.106 305.819 271.383 305.008H273.799C273.554 305.968 273.068 306.731 272.343 307.296C271.618 307.861 270.711 308.144 269.623 308.144C268.77 308.144 268.012 307.957 267.351 307.584C266.69 307.2 266.172 306.667 265.799 305.984C265.426 305.291 265.239 304.485 265.239 303.568ZM283.68 303.376C283.68 303.696 283.659 303.984 283.616 304.24H277.136C277.189 304.88 277.413 305.381 277.808 305.744C278.203 306.107 278.688 306.288 279.264 306.288C280.096 306.288 280.688 305.931 281.04 305.216H283.456C283.2 306.069 282.709 306.773 281.984 307.328C281.259 307.872 280.368 308.144 279.312 308.144C278.459 308.144 277.691 307.957 277.008 307.584C276.336 307.2 275.808 306.661 275.424 305.968C275.051 305.275 274.864 304.475 274.864 303.568C274.864 302.651 275.051 301.845 275.424 301.152C275.797 300.459 276.32 299.925 276.992 299.552C277.664 299.179 278.437 298.992 279.312 298.992C280.155 298.992 280.907 299.173 281.568 299.536C282.24 299.899 282.757 300.416 283.12 301.088C283.493 301.749 283.68 302.512 283.68 303.376ZM281.36 302.736C281.349 302.16 281.141 301.701 280.736 301.36C280.331 301.008 279.835 300.832 279.248 300.832C278.693 300.832 278.224 301.003 277.84 301.344C277.467 301.675 277.237 302.139 277.152 302.736H281.36ZM287.555 300.512C287.843 300.043 288.216 299.675 288.675 299.408C289.144 299.141 289.678 299.008 290.275 299.008V301.36H289.683C288.979 301.36 288.446 301.525 288.083 301.856C287.731 302.187 287.555 302.763 287.555 303.584V308H285.315V299.136H287.555V300.512ZM291.208 303.568C291.208 302.651 291.394 301.851 291.768 301.168C292.141 300.475 292.658 299.941 293.32 299.568C293.981 299.184 294.738 298.992 295.592 298.992C296.69 298.992 297.597 299.269 298.312 299.824C299.037 300.368 299.522 301.136 299.768 302.128H297.352C297.224 301.744 297.005 301.445 296.696 301.232C296.397 301.008 296.024 300.896 295.576 300.896C294.936 300.896 294.429 301.131 294.056 301.6C293.682 302.059 293.496 302.715 293.496 303.568C293.496 304.411 293.682 305.067 294.056 305.536C294.429 305.995 294.936 306.224 295.576 306.224C296.482 306.224 297.074 305.819 297.352 305.008H299.768C299.522 305.968 299.037 306.731 298.312 307.296C297.586 307.861 296.68 308.144 295.592 308.144C294.738 308.144 293.981 307.957 293.32 307.584C292.658 307.2 292.141 306.667 291.768 305.984C291.394 305.291 291.208 304.485 291.208 303.568ZM302.545 298.08C302.15 298.08 301.819 297.957 301.553 297.712C301.297 297.456 301.169 297.141 301.169 296.768C301.169 296.395 301.297 296.085 301.553 295.84C301.819 295.584 302.15 295.456 302.545 295.456C302.939 295.456 303.265 295.584 303.521 295.84C303.787 296.085 303.921 296.395 303.921 296.768C303.921 297.141 303.787 297.456 303.521 297.712C303.265 297.957 302.939 298.08 302.545 298.08ZM303.649 299.136V308H301.409V299.136H303.649ZM309.254 308.144C308.528 308.144 307.878 308.016 307.302 307.76C306.726 307.493 306.267 307.136 305.926 306.688C305.595 306.24 305.414 305.744 305.382 305.2H307.638C307.68 305.541 307.846 305.824 308.134 306.048C308.432 306.272 308.8 306.384 309.238 306.384C309.664 306.384 309.995 306.299 310.23 306.128C310.475 305.957 310.598 305.739 310.598 305.472C310.598 305.184 310.448 304.971 310.15 304.832C309.862 304.683 309.398 304.523 308.758 304.352C308.096 304.192 307.552 304.027 307.126 303.856C306.71 303.685 306.347 303.424 306.038 303.072C305.739 302.72 305.59 302.245 305.59 301.648C305.59 301.157 305.728 300.709 306.006 300.304C306.294 299.899 306.699 299.579 307.222 299.344C307.755 299.109 308.379 298.992 309.094 298.992C310.15 298.992 310.992 299.259 311.622 299.792C312.251 300.315 312.598 301.024 312.662 301.92H310.518C310.486 301.568 310.336 301.291 310.07 301.088C309.814 300.875 309.467 300.768 309.03 300.768C308.624 300.768 308.31 300.843 308.086 300.992C307.872 301.141 307.766 301.349 307.766 301.616C307.766 301.915 307.915 302.144 308.214 302.304C308.512 302.453 308.976 302.608 309.606 302.768C310.246 302.928 310.774 303.093 311.19 303.264C311.606 303.435 311.963 303.701 312.262 304.064C312.571 304.416 312.731 304.885 312.742 305.472C312.742 305.984 312.598 306.443 312.31 306.848C312.032 307.253 311.627 307.573 311.094 307.808C310.571 308.032 309.958 308.144 309.254 308.144ZM322.821 303.376C322.821 303.696 322.799 303.984 322.757 304.24H316.277C316.33 304.88 316.554 305.381 316.949 305.744C317.343 306.107 317.829 306.288 318.405 306.288C319.237 306.288 319.829 305.931 320.181 305.216H322.597C322.341 306.069 321.85 306.773 321.125 307.328C320.399 307.872 319.509 308.144 318.453 308.144C317.599 308.144 316.831 307.957 316.149 307.584C315.477 307.2 314.949 306.661 314.565 305.968C314.191 305.275 314.005 304.475 314.005 303.568C314.005 302.651 314.191 301.845 314.565 301.152C314.938 300.459 315.461 299.925 316.133 299.552C316.805 299.179 317.578 298.992 318.453 298.992C319.295 298.992 320.047 299.173 320.709 299.536C321.381 299.899 321.898 300.416 322.261 301.088C322.634 301.749 322.821 302.512 322.821 303.376ZM320.501 302.736C320.49 302.16 320.282 301.701 319.877 301.36C319.471 301.008 318.975 300.832 318.389 300.832C317.834 300.832 317.365 301.003 316.981 301.344C316.607 301.675 316.378 302.139 316.293 302.736H320.501ZM325.448 308.112C325.042 308.112 324.706 307.989 324.44 307.744C324.184 307.488 324.056 307.173 324.056 306.8C324.056 306.427 324.184 306.117 324.44 305.872C324.706 305.616 325.042 305.488 325.448 305.488C325.842 305.488 326.168 305.616 326.424 305.872C326.68 306.117 326.808 306.427 326.808 306.8C326.808 307.173 326.68 307.488 326.424 307.744C326.168 307.989 325.842 308.112 325.448 308.112ZM329.604 308.112C329.198 308.112 328.862 307.989 328.596 307.744C328.34 307.488 328.212 307.173 328.212 306.8C328.212 306.427 328.34 306.117 328.596 305.872C328.862 305.616 329.198 305.488 329.604 305.488C329.998 305.488 330.324 305.616 330.58 305.872C330.836 306.117 330.964 306.427 330.964 306.8C330.964 307.173 330.836 307.488 330.58 307.744C330.324 307.989 329.998 308.112 329.604 308.112ZM333.76 308.112C333.355 308.112 333.019 307.989 332.752 307.744C332.496 307.488 332.368 307.173 332.368 306.8C332.368 306.427 332.496 306.117 332.752 305.872C333.019 305.616 333.355 305.488 333.76 305.488C334.155 305.488 334.48 305.616 334.736 305.872C334.992 306.117 335.12 306.427 335.12 306.8C335.12 307.173 334.992 307.488 334.736 307.744C334.48 307.989 334.155 308.112 333.76 308.112Z" fill="black"/>
<defs>
<linearGradient id="paint0_linear" x1="266.668" y1="234.957" x2="266.668" y2="137.854" gradientUnits="userSpaceOnUse">
<stop stop-color="#808080" stop-opacity="0.25"/>
<stop offset="0.54" stop-color="#808080" stop-opacity="0.12"/>
<stop offset="1" stop-color="#808080" stop-opacity="0.1"/>
</linearGradient>
</defs>
</svg>
