<svg xmlns="http://www.w3.org/2000/svg" xmlns:xlink="http://www.w3.org/1999/xlink" width="1059.254" height="687.036" viewBox="0 0 1059.254 687.036">
  <defs>
    <linearGradient id="linear-gradient" x1="0.386" y1="0.622" x2="0.386" y2="-0.378" gradientUnits="objectBoundingBox">
      <stop offset="0" stop-color="gray" stop-opacity="0.251"/>
      <stop offset="0.54" stop-color="gray" stop-opacity="0.122"/>
      <stop offset="1" stop-color="gray" stop-opacity="0.102"/>
    </linearGradient>
    <linearGradient id="linear-gradient-2" x1="0.5" y1="1" x2="0.5" y2="0" xlink:href="#linear-gradient"/>
  </defs>
  <g id="emptyfiles" transform="translate(55.278 0.013)">
    <path id="Path_122" data-name="Path 122" d="M196,630.27c-4.29,9.21,1.85,19.15-.28,28.66-2.69,12-18.11,21.34-34.72,27.3s-35.16,9.58-51.35,16c-7,2.77-14.3,7.88-10.66,12.58,1.26,1.63,3.62,2.77,5.93,3.84,47.16,21.76,105.45,33.58,163.69,33.2,61.6-.41,121.92-14,183.47-12.44,79.38,2,156.16,29.06,234.66,21.26C720.06,757.34,751,747.9,783.45,742c47.72-8.67,97.91-9.54,147.33-12.39,37.11-2.14,79.52-7.69,97.25-28.55,12.82-15.08,7.44-35-10.62-47.77s-46.91-18.23-73.56-15.75c-14.33,1.33-28.57,4.78-42.9,3.41-8.32-.8-16-3.18-23.59-5.52-58.71-18.2-119.53-36.36-184.7-39-106-4.33-204.25,32.55-307.52,48.5-16.08,2.48-33.54,4.39-48.73.23-16-4.39-26.5-14.76-42.53-19.13-7.61-2.08-16.09-2.68-23.57-4.94-20.56-6.22-11-14.77-39.54-9C215.86,615.13,200.8,620,196,630.27Z" transform="translate(-98.02 -109)" fill="#005fd5" opacity="0.1"/>
    <path id="Path_123" data-name="Path 123" d="M207.7,316.06s55.76,55.76,24.3,138.5,54,220.33,54,220.33-.92-.13-2.61-.43C168.81,654.24,111.91,523.27,175.59,426,199.26,389.79,218.7,347.36,207.7,316.06Z" transform="translate(-98.02 -109)" fill="#005fd5"/>
    <path id="Path_124" data-name="Path 124" d="M207.7,316.06s55.76,55.76,24.3,138.5,54,220.33,54,220.33-.92-.13-2.61-.43C168.81,654.24,111.91,523.27,175.59,426,199.26,389.79,218.7,347.36,207.7,316.06Z" transform="translate(-98.02 -109)" opacity="0.1"/>
    <path id="Path_125" data-name="Path 125" d="M207.7,316.06s31.48,68.35,0,124.11-5.4,212.24,78.24,234.72" transform="translate(-98.02 -109)" fill="none" stroke="#535461" stroke-miterlimit="10" stroke-width="1"/>
    <path id="Path_126" data-name="Path 126" d="M108.39,541.58s63.63-10.13,69.43,46.89S300.16,653.4,300.16,653.4s-.76.52-2.19,1.45C201.75,718,109.76,695.09,123.62,611.21,128.78,580,128.35,548.7,108.39,541.58Z" transform="translate(-98.02 -109)" fill="#005fd5"/>
    <path id="Path_127" data-name="Path 127" d="M108.39,541.58s63.63-10.13,69.43,46.89S300.16,653.4,300.16,653.4s-.76.52-2.19,1.45C201.75,718,109.76,695.09,123.62,611.21,128.78,580,128.35,548.7,108.39,541.58Z" transform="translate(-98.02 -109)" fill="#f5f5f5" opacity="0.2"/>
    <path id="Path_128" data-name="Path 128" d="M108.39,541.58s49.39,10.84,45.33,55.75,73.34,98.74,146.44,56.07" transform="translate(-98.02 -109)" fill="none" stroke="#535461" stroke-miterlimit="10" stroke-width="1"/>
    <path id="Path_129" data-name="Path 129" d="M676.74,564.63H153.31V237.66h66.94l27.54,34.02H676.74Z" fill="#005fd5"/>
    <path id="Path_130" data-name="Path 130" d="M676.74,564.63H153.31V237.66h66.94l27.54,34.02H676.74Z" opacity="0.1"/>
    <rect id="Rectangle_13" data-name="Rectangle 13" width="250.61" height="390.14" transform="matrix(0.94, -0.34, 0.34, 0.94, 250.718, 187.121)" fill="#f1f1f4"/>
    <rect id="Rectangle_14" data-name="Rectangle 14" width="70.81" height="16.66" transform="matrix(0.94, -0.34, 0.34, 0.94, 295.21, 211.822)" fill="#fff"/>
    <rect id="Rectangle_15" data-name="Rectangle 15" width="155.5" height="15.27" transform="translate(322.754 250.997) rotate(-19.65)" fill="#fff"/>
    <rect id="Rectangle_16" data-name="Rectangle 16" width="155.5" height="15.27" transform="translate(333.729 281.729) rotate(-19.65)" fill="#fff"/>
    <rect id="Rectangle_17" data-name="Rectangle 17" width="155.5" height="15.27" transform="translate(344.694 312.46) rotate(-19.65)" fill="#fff"/>
    <rect id="Rectangle_18" data-name="Rectangle 18" width="155.5" height="15.27" transform="translate(355.668 343.181) rotate(-19.65)" fill="#fff"/>
    <rect id="Rectangle_19" data-name="Rectangle 19" width="155.5" height="15.27" transform="translate(366.64 373.903) rotate(-19.65)" fill="#fff"/>
    <rect id="Rectangle_20" data-name="Rectangle 20" width="155.5" height="15.27" transform="translate(377.614 404.635) rotate(-19.65)" fill="#fff"/>
    <rect id="Rectangle_21" data-name="Rectangle 21" width="40.26" height="40.26" transform="translate(514.663 416.877) rotate(-19.65)" fill="#fff"/>
    <rect id="Rectangle_22" data-name="Rectangle 22" width="258.63" height="402.63" transform="translate(70.73 344.564) rotate(-59.28)" fill="url(#linear-gradient)"/>
    <rect id="Rectangle_23" data-name="Rectangle 23" width="250.61" height="390.14" transform="translate(78.152 344.31) rotate(-59.28)" fill="#f1f1f4"/>
    <rect id="Rectangle_24" data-name="Rectangle 24" width="70.81" height="16.66" transform="translate(127.992 335.172) rotate(-59.28)" fill="#fff"/>
    <rect id="Rectangle_25" data-name="Rectangle 25" width="155.5" height="15.27" transform="translate(173.279 345.927) rotate(-59.28)" fill="#fff"/>
    <rect id="Rectangle_26" data-name="Rectangle 26" width="155.5" height="15.27" transform="translate(201.329 362.599) rotate(-59.28)" fill="#fff"/>
    <rect id="Rectangle_27" data-name="Rectangle 27" width="155.5" height="15.27" transform="translate(229.268 378.822) rotate(-59.331)" fill="#fff"/>
    <rect id="Rectangle_28" data-name="Rectangle 28" width="155.5" height="15.27" transform="translate(257.42 395.927) rotate(-59.28)" fill="#fff"/>
    <rect id="Rectangle_29" data-name="Rectangle 29" width="155.5" height="15.27" transform="translate(285.469 412.599) rotate(-59.28)" fill="#fff"/>
    <rect id="Rectangle_30" data-name="Rectangle 30" width="155.5" height="15.27" transform="translate(313.529 429.271) rotate(-59.28)" fill="#fff"/>
    <rect id="Rectangle_31" data-name="Rectangle 31" width="40.26" height="40.26" transform="translate(426.582 350.743) rotate(-59.331)" fill="#fff"/>
    <path id="Path_131" data-name="Path 131" d="M1056.2,236.09a6.44,6.44,0,0,0-.15-1.41q-.15-.67-.26-1.55-.28-1.52-.64-2.94-.18-.71-.37-1.39a37.43,37.43,0,0,0-7.51-14.29l-.6-.68q-.6-.66-1.19-1.25t-1.16-1.09c-.38-.34-.75-.65-1.11-.95a22.332,22.332,0,0,0-2-1.47c-.62-.4-.84-.55-1.19-.76a6.73,6.73,0,0,0-2.8-.91l-6.17-.6h0l-8.34-.82L992.6,194.35l-1.19.42a68.955,68.955,0,0,1-2.23-7.37,6.71,6.71,0,0,0,2.38-1.73,5.42,5.42,0,0,0,1.64-2.09c.76-1.74-.69-5.46-.4-7.58.48-3.41,2.26-6.71,3.71-9.8,3.1-6.64,5.36-13.83,5-21.12s-3.71-14.68-9.9-18.76c-3.2-2.11-7-3.24-10.29-5.16-2.59-1.5-4.87-3.45-7.34-5.14a42.38,42.38,0,0,0-41.53-2.95c-6.26,3.07-11.6,7.65-17.51,11.32s-12.87,6.51-19.78,5.42a4.381,4.381,0,0,0-.21.85l-.58-.07c-1.19,3.23,1.73,6.41,4.42,8.62,5.1,4.18,10.89,8.36,17.55,8.5,2.57.06,5.29-.48,7.63.57a6.83,6.83,0,0,1,1.42.88A32.8,32.8,0,0,0,935.8,182l-15.38-5.5s-.64.33-1.64.95l-21.37-14.13s-42.83-15.51-54.73,8.53,51.56,11.63,51.56,11.63l13.58,7.42a12.261,12.261,0,0,0,1.49,8.09l37,22.74c-7.48,2.29-19.77,6-22,6-3.17,0-11.9,3.1-17.45,15.51s-25.38,72.91-42.83,83-63.46,77.56-63.46,77.56l.21.53q-1.23.32-2.41.71c-11.51,3.72-19.25,11.57-23.92,17.92a7.6,7.6,0,0,0,5.36,12c18.16,2.28,28.08-6,32.85-12.32q.465-.615.87-1.2a6.42,6.42,0,0,0,4.48.2l22.21-17.84s-17.38,17-7.19,32.49l-.77,1.07a246.311,246.311,0,0,0-37.25,80.46s-9.52,7-10.31,34.9-10.31,72.91-10.31,72.91-6.35,53.52-2.38,69.81c0,0,.46.65,1.3,1.64-.3.35-.62.73-1,1.12-3.46,3.72-9.71,8.85-17,7.32-11.11-2.33-11.11,17.06,4.76,18.62,10.22,1,30.29,5.54,43.3,8.64a9.1,9.1,0,0,0,11.31-9.67c-.78-6.95-2.19-15.36-4.76-21.35-.16-.37-.32-.73-.49-1.09.47-.43.93-.88,1.4-1.36,0,0,0-34.13,5.55-43.44,0,0,15.07-70.58,14.28-88.42-.62-14,39.09-68.32,56.38-91.28l-.14-.87c4.42-5.86,7.22-9.46,7.22-9.46l13.48,84.54S914.07,569,922,579.06c0,0,34.11,64.38,38.07,84.54,3,15.29,9.2,24.33,12,27.81-.33.33-.67.66-1,1-3.61,3.29-8.94,6.59-15,5.33-11.07-2.34-11.07,17.05,4.8,18.6,10.22,1,30.29,5.54,43.3,8.64a9.1,9.1,0,0,0,11.31-9.67c-.9-8.07-2.67-18.11-6.09-24q-.43-.75-.9-1.41a8.38,8.38,0,0,0,3.15-2.21S991,638.78,991,625.59c0,0-8.73-50.42-38.07-69,0,0,2.78-63.05,11.13-98.15q.31-1.3.63-2.55c7.51-1.17,15.23-2.74,23.14-4.79l.79-23.27,4,18.62L1037,419.28s-.39-4.89-1.14-12.39c-.38-3.75-.84-8.15-1.4-12.92-.44-3.82-.95-7.87-1.5-12q-.21-1.55-.43-3.12c-.58-4.18-1.22-8.41-1.91-12.55q-.39-2.33-.8-4.61c-.36-2-.74-4-1.13-5.94q-.29-1.45-.6-2.86t-.62-2.76q-.31-1.35-.63-2.65l-.32-1.28q-.33-1.26-.66-2.46a44.176,44.176,0,0,1-1.61-10.17q-.08-2,0-4.1a33.557,33.557,0,0,1,.4-4.08q.14-1,.34-2a45.926,45.926,0,0,1,2.25-7.92q.74-1.93,1.66-3.81c1.44-2.93,3-6.11,4.56-9.46q1.19-2.51,2.4-5.13t2.44-5.32c7.72-17.1,15.34-36.16,17.38-48.67.21-1.32.37-2.56.45-3.73A24.731,24.731,0,0,0,1056.2,236.09Z" transform="translate(-98.02 -109)" fill="url(#linear-gradient-2)"/>
    <path id="Path_132" data-name="Path 132" d="M923.71,185.16l-26.16-17.7s-41.55-15.39-53.09,8.46,50,11.54,50,11.54l26.16,14.62Z" transform="translate(-98.02 -109)" fill="#f7bbc3"/>
    <rect id="Rectangle_32" data-name="Rectangle 32" width="250.61" height="390.14" transform="matrix(0.536, -0.844, 0.844, 0.536, 540.283, 215.856)" fill="#f1f1f4"/>
    <rect id="Rectangle_33" data-name="Rectangle 33" width="70.81" height="16.66" transform="matrix(0.536, -0.844, 0.844, 0.536, 590.375, 208.21)" fill="#fff"/>
    <rect id="Rectangle_34" data-name="Rectangle 34" width="155.5" height="15.27" transform="matrix(0.536, -0.844, 0.844, 0.536, 635.327, 220.315)" fill="#fff"/>
    <rect id="Rectangle_35" data-name="Rectangle 35" width="155.5" height="15.27" transform="matrix(0.536, -0.844, 0.844, 0.536, 662.868, 237.809)" fill="#fff"/>
    <rect id="Rectangle_36" data-name="Rectangle 36" width="155.5" height="15.27" transform="matrix(0.536, -0.844, 0.844, 0.536, 690.408, 255.309)" fill="#fff"/>
    <rect id="Rectangle_37" data-name="Rectangle 37" width="155.282" height="15.249" transform="matrix(0.541, -0.841, 0.841, 0.541, 719.614, 277.159)" fill="#fff"/>
    <rect id="Rectangle_38" data-name="Rectangle 38" width="155.5" height="15.27" transform="matrix(0.536, -0.844, 0.844, 0.536, 745.489, 290.303)" fill="#fff"/>
    <rect id="Rectangle_39" data-name="Rectangle 39" width="155.282" height="15.249" transform="matrix(0.541, -0.841, 0.841, 0.541, 774.759, 312.507)" fill="#fff"/>
    <rect id="Rectangle_40" data-name="Rectangle 40" width="40.26" height="40.26" transform="matrix(0.536, -0.844, 0.844, 0.536, 888.669, 233.217)" fill="#fff"/>
    <path id="Path_133" data-name="Path 133" d="M1001.1,724.59c-12.62-3.08-32.09-7.58-42-8.57-15.39-1.54-15.39-20.77-4.62-18.46,5.84,1.25,11-2,14.51-5.29A34,34,0,0,0,972,689a8.89,8.89,0,0,1,5-3c5.77-1.26,17.78-3.16,25.17.82a10.87,10.87,0,0,1,4,4.36c3.32,5.89,5,15.84,5.91,23.85a8.9,8.9,0,0,1-10.98,9.56Z" transform="translate(-98.02 -109)" fill="#b77983"/>
    <path id="Path_134" data-name="Path 134" d="M806.45,732.29c-12.62-3.08-32.09-7.58-42-8.57-15.39-1.54-15.39-20.77-4.62-18.46,7,1.52,13.11-3.58,16.46-7.26.41-.45.78-.88,1.1-1.28a8.89,8.89,0,0,1,5-3c5.77-1.26,17.78-3.16,25.17.82,2.16,1.17,3.89,3.73,5.27,7,2.49,5.94,3.86,14.28,4.62,21.17a8.9,8.9,0,0,1-11,9.58Z" transform="translate(-98.02 -109)" fill="#b77983"/>
    <path id="Path_135" data-name="Path 135" d="M812.8,701.52c-18.37,18.93-34.12-.35-36.51-3.53.41-.45.78-.88,1.1-1.28a8.89,8.89,0,0,1,5-3c5.77-1.26,17.78-3.16,25.17.82C809.69,695.65,811.42,698.21,812.8,701.52Z" transform="translate(-98.02 -109)" opacity="0.1"/>
    <path id="Path_136" data-name="Path 136" d="M1006.16,691.15c-8,5.44-34.75,4.1-34.75,4.1a26.366,26.366,0,0,1-2.42-3A33.994,33.994,0,0,0,972,689a8.89,8.89,0,0,1,5-3c5.77-1.26,17.78-3.16,25.17.82a10.869,10.869,0,0,1,3.99,4.33Z" transform="translate(-98.02 -109)" opacity="0.1"/>
    <path id="Path_137" data-name="Path 137" d="M1007.57,687.56c-5.39,6.92-36.16,5.39-36.16,5.39s-9.23-9.23-13.08-29.24-36.93-83.86-36.93-83.86c-7.69-10-13.85-28.47-13.85-28.47l-13.08-83.86s-63.09,83.09-62.32,100.79S818.3,656,818.3,656c-5.39,9.23-5.39,43.08-5.39,43.08-20,20.77-36.93-3.85-36.93-3.85-3.85-16.16,2.31-69.24,2.31-69.24s9.23-44.62,10-72.32,10-34.62,10-34.62a246.783,246.783,0,0,1,36.13-79.81c4.65-6.66,7.72-10.21,7.72-10.21l124.64,14.62c-2,4-3.79,9.73-5.36,16.51-8.1,34.81-10.79,97.36-10.79,97.36C979.1,576,987.56,626,987.56,626,987.56,639.08,1007.57,687.56,1007.57,687.56Z" transform="translate(-98.02 -109)" fill="#8499f0"/>
    <g id="Group_7" data-name="Group 7" opacity="0.05">
      <path id="Path_138" data-name="Path 138" d="M887.6,477.76,886,467.51S822.91,550.6,823.68,568.3,809.84,656,809.84,656c-5.39,9.23-5.39,43.08-5.39,43.08-4.19,4.35-8.25,6.71-12,7.72,6.06,1.59,13.43.43,21.28-7.72,0,0,0-33.85,5.39-43.08,0,0,14.62-70,13.85-87.71C832.32,554.45,870.84,500.54,887.6,477.76Z" transform="translate(-98.02 -109)"/>
      <path id="Path_139" data-name="Path 139" d="M988.33,626s-8.46-50-36.93-68.47c0,0,2.69-62.54,10.79-97.36,1.58-6.78,3.35-12.5,5.36-16.51L842.92,429s-.29.34-.82,1l116.23,13.63c-2,4-3.79,9.73-5.36,16.51-8.1,34.81-10.79,97.36-10.79,97.36C970.64,576,979.1,626,979.1,626c0,13.08,20,61.55,20,61.55-3.17,4.08-15.17,5.22-24.49,5.47,7.39.19,29.26.26,33.72-5.47C1008.34,687.56,988.33,639.08,988.33,626Z" transform="translate(-98.02 -109)"/>
    </g>
    <path id="Path_140" data-name="Path 140" d="M819.07,418.28a27.861,27.861,0,0,1-3.65,6.37c-4.63,6.23-14.25,14.48-31.87,12.22a7.57,7.57,0,0,1-5.2-11.89c4.52-6.3,12-14.09,23.2-17.78a41.791,41.791,0,0,1,9.82-2Z" transform="translate(-98.02 -109)" fill="#f7bbc3"/>
    <path id="Path_141" data-name="Path 141" d="M981.55,203.11l-61.7-22.57s-17.7,9.23-10.77,22.31l60,37.7Z" transform="translate(-98.02 -109)" fill="#d39999"/>
    <path id="Path_142" data-name="Path 142" d="M981.55,203.11l-61.7-22.57s-17.7,9.23-10.77,22.31l60,37.7Z" transform="translate(-98.02 -109)" opacity="0.1"/>
    <path id="Path_143" data-name="Path 143" d="M983.72,165.92s-.77,36.16,15.39,48.47-46.93,19.23-46.93,19.23,10-36.93,0-56.16S983.72,165.92,983.72,165.92Z" transform="translate(-98.02 -109)" fill="#f7bbc3"/>
    <path id="Path_144" data-name="Path 144" d="M966.79,443.66c-2,4-3.79,9.73-5.36,16.51-74.41,11.36-126.2-19.59-126.2-19.59-.28-.45-.55-.89-.8-1.33,4.65-6.66,7.72-10.21,7.72-10.21Z" transform="translate(-98.02 -109)" opacity="0.1"/>
    <path id="Path_145" data-name="Path 145" d="M819.07,418.28a27.861,27.861,0,0,1-3.65,6.37c-7.12-1.18-12.82-14.8-13.87-17.46a41.791,41.791,0,0,1,9.82-2Z" transform="translate(-98.02 -109)" opacity="0.1"/>
    <path id="Path_146" data-name="Path 146" d="M989.87,198.23l-27.7,10-11.54,15.39s-23.85,7.69-26.93,7.69-11.54,3.08-16.93,15.39S882.16,319,865.23,329s-61.55,77-61.55,77,7.69,20.77,16.93,17.7L842.15,406s-16.93,16.93-6.92,32.31c0,0,63.09,37.7,150,14.62l.77-23.08,3.85,18.46L1033,421.35s-3.86-49.66-10.81-74.94a45.66,45.66,0,0,1,3-31.84c11.17-23.28,28.41-62.16,26.31-76.34-2.48-16.71-11.92-24-15.52-26.16a6.431,6.431,0,0,0-2.71-.9l-14.08-1.41Z" transform="translate(-98.02 -109)" fill="#d39999"/>
    <path id="Path_147" data-name="Path 147" d="M942.55,275.56s-15.39,71.55-32.31,83.09-62.32,48.47-63.86,54.63" transform="translate(-98.02 -109)" opacity="0.05"/>
    <path id="Path_148" data-name="Path 148" d="M935.63,273.25s-15.39,71.55-32.31,83.09S841,404.81,839.46,411" transform="translate(-98.02 -109)" fill="#d39999"/>
    <path id="Path_149" data-name="Path 149" d="M950.25,223.24s53.09-17.7,68.47-13.08" transform="translate(-98.02 -109)" opacity="0.1"/>
    <g id="Group_8" data-name="Group 8" opacity="0.05">
      <path id="Path_150" data-name="Path 150" d="M1025.11,314.58c11.17-23.28,28.41-62.16,26.31-76.34-2.48-16.71-11.92-24-15.52-26.16a6.429,6.429,0,0,0-2.71-.9l-6-.6a6.321,6.321,0,0,1,1.78.73c3.6,2.2,13,9.45,15.52,26.16,2.1,14.17-15.14,53.06-26.31,76.34a45.66,45.66,0,0,0-3,31.84c7,25.28,10.81,74.94,10.81,74.94l-37.1,23.19.94,4.51L1033,421.35s-3.86-49.66-10.81-74.94a45.661,45.661,0,0,1,2.92-31.83Z" transform="translate(-98.02 -109)"/>
      <path id="Path_151" data-name="Path 151" d="M914.16,100.01l6.67.66L891.85,89.23l-2.6.94Z"/>
    </g>
    <path id="Path_152" data-name="Path 152" d="M935.63,347.88s23.85-13.08,31.54-10,36.16-.77,36.16-.77" transform="translate(-98.02 -109)" opacity="0.05"/>
    <path id="Path_153" data-name="Path 153" d="M981,175.54c-.88-7.71,2.69-6.54,2.69-6.54s-41.55-7.69-31.54,11.54c2.5,4.82,3.75,10.74,4.22,16.92h.39C968.38,197.47,975.11,184.56,981,175.54Z" transform="translate(-98.02 -109)" opacity="0.05"/>
    <circle id="Ellipse_28" data-name="Ellipse 28" cx="33.08" cy="33.08" r="33.08" transform="translate(825.69 19.22)" fill="#f7bbc3"/>
    <path id="Path_154" data-name="Path 154" d="M992.89,171.09c3-6.58,5.2-13.72,4.83-21s-3.6-14.57-9.6-18.61c-3.1-2.09-6.76-3.21-10-5.11-2.51-1.49-4.73-3.42-7.12-5.1a40.33,40.33,0,0,0-40.28-2.93c-6.07,3-11.25,7.59-17,11.23s-12.48,6.45-19.19,5.37c-1.15,3.2,1.68,6.36,4.29,8.55,4.95,4.15,10.56,8.29,17,8.43,2.5.06,5.13-.48,7.4.57A10.62,10.62,0,0,1,927,156a68.762,68.762,0,0,1,7.85,13.31c.86,1.93,1.74,4,3.52,5.17,3,1.9,6.83.32,10.35.18,5.48-.21,10.4,3.23,14.46,6.93s7.91,7.9,13,9.85c3.82,1.45,11.46,1.4,13.41-3.17.73-1.72-.67-5.41-.38-7.52C989.75,177.42,991.49,174.16,992.89,171.09Z" transform="translate(-98.02 -109)" opacity="0.1"/>
    <path id="Path_155" data-name="Path 155" d="M993.66,170.32c3-6.58,5.2-13.72,4.83-21s-3.6-14.57-9.6-18.61c-3.1-2.09-6.76-3.21-10-5.11-2.51-1.49-4.73-3.42-7.12-5.1a40.33,40.33,0,0,0-40.28-2.93c-6.07,3-11.25,7.59-17,11.23s-12.48,6.45-19.19,5.37c-1.15,3.2,1.68,6.36,4.29,8.55,4.95,4.15,10.56,8.29,17,8.43,2.5.06,5.13-.48,7.4.57a10.619,10.619,0,0,1,3.78,3.51,68.759,68.759,0,0,1,7.85,13.31c.86,1.93,1.74,4,3.52,5.17,3,1.9,6.83.32,10.35.18,5.48-.21,10.4,3.23,14.46,6.93s7.91,7.9,13,9.85c3.82,1.45,11.46,1.4,13.41-3.17.73-1.72-.67-5.41-.38-7.52C990.52,176.66,992.26,173.39,993.66,170.32Z" transform="translate(-98.02 -109)" fill="#9b6c7a"/>
    <path id="Path_156" data-name="Path 156" d="M676.74,578.51H153.31V251.54h66.94l27.54,34.02H676.74Z" fill="#005fd5"/>
    <path id="Path_157" data-name="Path 157" d="M281,720.13s-22.57-4.51-28.59-10.53-33.1-16.55-36.11-9-40.62,33.1-15,37.62,60.18,6,67.71,3S281,720.13,281,720.13Z" transform="translate(-98.02 -109)" fill="#a8a8a8"/>
    <path id="Path_158" data-name="Path 158" d="M201.26,735.39c25.58,4.51,60.18,6,67.71,3,5.73-2.29,9.71-13.3,11.28-18.43l.75.16s-4.51,18.06-12,21.06-42.13,1.5-67.71-3c-7.38-1.3-9.49-4.36-8.7-8.24C193.19,732.48,195.76,734.42,201.26,735.39Z" transform="translate(-98.02 -109)" opacity="0.2"/>
    <path id="Path_159" data-name="Path 159" d="M747.38,761.49s-34.43-6.89-43.62-16.07-50.5-25.25-55.09-13.77-62,50.5-23,57.39,91.82,9.18,103.3,4.59S747.38,761.49,747.38,761.49Z" transform="translate(-98.02 -109)" fill="#a8a8a8"/>
    <path id="Path_160" data-name="Path 160" d="M625.72,784.77c39,6.89,91.82,9.18,103.3,4.59,8.74-3.5,14.82-20.3,17.22-28.11l1.15.24S740.5,789,729,793.62s-64.28,2.3-103.3-4.59c-11.27-2-14.49-6.66-13.27-12.56C613.41,780.32,617.33,783.29,625.72,784.77Z" transform="translate(-98.02 -109)" opacity="0.2"/>
    <rect id="Rectangle_41" data-name="Rectangle 41" width="116" height="20" transform="translate(351.98 405.02)" opacity="0.1"/>
    <path id="Path_290" data-name="Path 290" d="M-125.293-23.164h-.156a20.428,20.428,0,0,0-5.449,1.25,15.745,15.745,0,0,1-3.711.918,1.56,1.56,0,0,1-1.074-.4,1.25,1.25,0,0,1-.449-.967,4.13,4.13,0,0,1,1.065-2.314,5.4,5.4,0,0,1,2.14-1.807q1.583-.645,6.645-.645,2.013,0,4.045.2a24.647,24.647,0,0,1,3.43.537,4.209,4.209,0,0,1,1.768.713,1.248,1.248,0,0,1,.2.84,12.351,12.351,0,0,1-.322,2.14q-.322,1.534-.752,2.941a88.634,88.634,0,0,1-6.537,15.485,13.372,13.372,0,0,1-1.806,2.657,5.1,5.1,0,0,1-1.914,1.338,6.956,6.956,0,0,1-2.49.4,9.351,9.351,0,0,1-3.847-.791,6.978,6.978,0,0,1-2.8-2.148A4.833,4.833,0,0,1-138.34-5.8a7.056,7.056,0,0,1,.479-2.432,6.539,6.539,0,0,1,1.084-2,.856.856,0,0,1,.684-.371,1.654,1.654,0,0,1,1.211.605,7.994,7.994,0,0,1,1.23,2.07,15.278,15.278,0,0,0,2.188,3.691q.137.176.605.684.918-2.051,1.416-3.369t1.143-3.525q.449-1.406,1.523-5.43Q-125.937-19.258-125.293-23.164Zm14,4.277.078-.234a28.123,28.123,0,0,1,2.229-5.117,4.394,4.394,0,0,1,1.252-1.25,5.34,5.34,0,0,1,2.835-.957,1.784,1.784,0,0,1,1.193.352,1.266,1.266,0,0,1,.411,1.017,6.26,6.26,0,0,1-.59,1.834,26.925,26.925,0,0,0-1.494,4.315,5.144,5.144,0,0,1,.645.117,4.864,4.864,0,0,1,1.545.4.869.869,0,0,1,.372.811,3.656,3.656,0,0,1-.527,1.915,3.218,3.218,0,0,1-1.386,1.29,6.491,6.491,0,0,1-2.088.391q-.251.762-.56,2.091-.174,1.172-.386,3.244a9.369,9.369,0,0,0-.117,1.425q0,3.083,2.989,3.083h.176q.352,0,.352.117,0,.312-.664,1.055A8.711,8.711,0,0,1-106.49-1.68a7.887,7.887,0,0,1-1.877.938,5.691,5.691,0,0,1-1.839.352,4.333,4.333,0,0,1-3.336-1.387,5.2,5.2,0,0,1-1.282-3.672,12.714,12.714,0,0,1,.342-2.559q.342-1.582,1.064-4.238.117-.469.254-.986t.156-.615a1.666,1.666,0,0,1-1.113-.332,1.342,1.342,0,0,1-.332-1.016,3.5,3.5,0,0,1,.947-2.324A4.015,4.015,0,0,1-111.289-18.887Zm14.2.41.234-5.371,1.016-4.785h3.993l-1,4.787-2.075,5.369ZM-87.773.84a3,3,0,0,0,2.1-1.123A3.416,3.416,0,0,0-84.727-2.6a1.745,1.745,0,0,0-.566-1.367,6.773,6.773,0,0,0-2.715-1.191q-3.105-.9-4.043-2.012a2.964,2.964,0,0,1-.879-2.148A7.617,7.617,0,0,1-91.3-13.809a12.949,12.949,0,0,1,4.17-3.682,10.3,10.3,0,0,1,5.117-1.436,4.889,4.889,0,0,1,2.344.586,4.728,4.728,0,0,1,1.738,1.553,3.711,3.711,0,0,1,.645,2.1,4.535,4.535,0,0,1-.7,2.3A6.645,6.645,0,0,1-79.756-10.4a3.439,3.439,0,0,1-2.021.791,1.842,1.842,0,0,1-.947-.234q-.4-.234-.4-.508a3.1,3.1,0,0,1,.156-.8,12.048,12.048,0,0,0,.43-2.93,4.068,4.068,0,0,0-.742-2.324,5.868,5.868,0,0,0-1.25,1.053A6.389,6.389,0,0,0-85.684-13.4a5.632,5.632,0,0,0-.449,2.107,1.791,1.791,0,0,0,.323,1.122,2.449,2.449,0,0,0,1.056.713,16.9,16.9,0,0,0,2.216.646,15.342,15.342,0,0,1,3.5,1.173,5.454,5.454,0,0,1,.722.566A2.927,2.927,0,0,1-77.578-5a5.21,5.21,0,0,1-.84,2.726,11.977,11.977,0,0,1-2.6,2.843,12.626,12.626,0,0,1-3.73,2.267,11.781,11.781,0,0,1-4.1.684,5.906,5.906,0,0,1-3.408-.859A2.705,2.705,0,0,1-93.5.313a3.551,3.551,0,0,1,.82-2.139,6.524,6.524,0,0,1,2.041-1.768,4.878,4.878,0,0,1,2.393-.684q.879,0,.879.391a1.6,1.6,0,0,1-.254.645,5.244,5.244,0,0,0-.762,2.52A2.438,2.438,0,0,0-87.773.84ZM-58.3-6.074a5.845,5.845,0,0,0,1.367-1.211,9.429,9.429,0,0,0,1.6-2.91,12.122,12.122,0,0,0,.7-2.4,13.254,13.254,0,0,0,.254-2.48q0-1.074-.449-1.074-.625,0-1.914,2.754a23.9,23.9,0,0,0-1.24,3.311,10.456,10.456,0,0,0-.479,2.842A6.3,6.3,0,0,0-58.3-6.074Zm.039.625a1.356,1.356,0,0,0,1.523,1.172A7.169,7.169,0,0,0-52.93-6a4.5,4.5,0,0,1,1.836-1A2.05,2.05,0,0,1-50-6.68q.508.313.508.645a1.548,1.548,0,0,1-.566.918A20.4,20.4,0,0,1-52.441-3.1a20.64,20.64,0,0,1-2.6,1.641,14.516,14.516,0,0,1-2.5,1.035,7.747,7.747,0,0,1-2.227.381,5.426,5.426,0,0,1-3.906-1.4,4.9,4.9,0,0,1-1.465-3.721,12.467,12.467,0,0,1,.771-4.014,18.1,18.1,0,0,1,2.08-4.189A14.063,14.063,0,0,1-58.5-17.168,9.682,9.682,0,0,1-53.184-19,3.677,3.677,0,0,1-50.3-17.842a4.6,4.6,0,0,1,1.045,3.193,7.585,7.585,0,0,1-.83,3.3,11.862,11.862,0,0,1-2.451,3.3,12.941,12.941,0,0,1-2.607,2.07,4.621,4.621,0,0,1-2.236.742A2.028,2.028,0,0,1-58.262-5.449Zm31.6-1.621L-31.992-1.6a9.739,9.739,0,0,1-1.67,1.416,2.663,2.663,0,0,1-1.4.381,2.6,2.6,0,0,1-2-.889,3.113,3.113,0,0,1-.811-2.178,7.041,7.041,0,0,1,.244-1.748,28.413,28.413,0,0,1,.967-2.822q.137-.391.264-.674t.205-.479l-.078-.078q-1.895,1.992-3.711,4.2Q-41.5-2.656-42.4-1.758A9.468,9.468,0,0,1-44.023-.41a2.518,2.518,0,0,1-1.289.449,2.377,2.377,0,0,1-2.012-1,4.45,4.45,0,0,1-.742-2.715q0-2.168,1.875-7.012a40.434,40.434,0,0,1,2.6-5.762,3.772,3.772,0,0,1,3.084-2.031,2.919,2.919,0,0,1,1.747.5,1.53,1.53,0,0,1,.693,1.3,14.588,14.588,0,0,1-1.109,4.47q-.428,1.112-.876,2.518l.078.078q.722-.8,2.322-2.752A41.462,41.462,0,0,1-33.5-16.993a5.179,5.179,0,0,1,3.321-1.679,2.1,2.1,0,0,1,1.27.449,3.175,3.175,0,0,1,.967,1.2,3.587,3.587,0,0,1,.361,1.572,19.791,19.791,0,0,1-1.207,4.3q-.253.723-.389,1.133t-.253.7l.1.078.488-.488q.215-.215.478-.459l.5-.459q.526-.508,2.652-2.678a15.853,15.853,0,0,1,2.2-2.14,2.662,2.662,0,0,1,1.543-.576,2.182,2.182,0,0,1,1.846.83,3.992,3.992,0,0,1,.635,2.451A24.49,24.49,0,0,1-19.3-9.609q-.273,2.422-.381,3.8t-.107,1.924q0,.41.049,1.045t.166,1.357q.117.723.313,1.6.234,1.074.313,1.68a1.885,1.885,0,0,1-1.025,1.191,3.784,3.784,0,0,1-1.885.488,4.17,4.17,0,0,1-3.008-1.445A5.807,5.807,0,0,1-25.83.693a5.389,5.389,0,0,1-.488-1.6,16.374,16.374,0,0,1-.146-2.451q0-1,.234-4.121l-.078-.078ZM-9.3-4.473a2.068,2.068,0,0,0,2.07,1.6,2.752,2.752,0,0,0,2-.967A6.909,6.909,0,0,0-3.74-6.455a10.774,10.774,0,0,0,.557-3.467,12.146,12.146,0,0,0-.225-2.5q-.225-1.055-.5-1.055-.2,0-1,1.035a22.6,22.6,0,0,0-1.6,2.4,33.642,33.642,0,0,0-2.48,4.688A8.348,8.348,0,0,0-9.3-4.473ZM-7.816-12.8l.607-1.139A27.66,27.66,0,0,1-5.614-16.46a8.309,8.309,0,0,1,1.3-1.483,4.658,4.658,0,0,1,1.351-.766,3.8,3.8,0,0,1,1.409-.255,4.2,4.2,0,0,1,2.632.879,5.529,5.529,0,0,1,1.761,2.52,10.675,10.675,0,0,1,.616,3.77A13.266,13.266,0,0,1,2.08-5.908,12.73,12.73,0,0,1-1.535-1.348,7.453,7.453,0,0,1-6.155.391,4.258,4.258,0,0,1-8.47-.2a5.344,5.344,0,0,1-1.71-2.012l-.133.333-.117.43q-1.27,4.082-2.021,6.006a6.283,6.283,0,0,1-1.3,2.354,1.4,1.4,0,0,1-1,.41A1.924,1.924,0,0,1-16.484,6.23a6.23,6.23,0,0,1-.625-3.066,34.244,34.244,0,0,1,.469-5.156,59.714,59.714,0,0,1,1.3-6.133A51.254,51.254,0,0,1-13.5-13.809a15.792,15.792,0,0,1,1.46-2.734,6.942,6.942,0,0,1,1.518-1.7,2.171,2.171,0,0,1,1.129-.312,1.861,1.861,0,0,1,1.383.491,1.9,1.9,0,0,1,.487,1.4,10.2,10.2,0,0,1-.156,1.69q-.117.9-.215,2.083ZM8.652-18.887l.078-.234a28.123,28.123,0,0,1,2.229-5.117,4.394,4.394,0,0,1,1.252-1.25,5.34,5.34,0,0,1,2.835-.957,1.784,1.784,0,0,1,1.193.352,1.266,1.266,0,0,1,.411,1.017,6.26,6.26,0,0,1-.59,1.834,26.924,26.924,0,0,0-1.494,4.315,5.144,5.144,0,0,1,.645.117,4.864,4.864,0,0,1,1.545.4.869.869,0,0,1,.372.811,3.656,3.656,0,0,1-.527,1.915,3.218,3.218,0,0,1-1.386,1.29A6.491,6.491,0,0,1,13.128-14q-.251.762-.56,2.091-.174,1.172-.386,3.244a9.369,9.369,0,0,0-.117,1.425q0,3.083,2.989,3.083h.176q.352,0,.352.117,0,.312-.664,1.055A8.71,8.71,0,0,1,13.451-1.68a7.887,7.887,0,0,1-1.877.938,5.691,5.691,0,0,1-1.839.352A4.333,4.333,0,0,1,6.4-1.777,5.2,5.2,0,0,1,5.117-5.449a12.714,12.714,0,0,1,.342-2.559Q5.8-9.59,6.523-12.246q.117-.469.254-.986t.156-.615A1.666,1.666,0,0,1,5.82-14.18,1.342,1.342,0,0,1,5.488-15.2a3.5,3.5,0,0,1,.947-2.324A4.015,4.015,0,0,1,8.652-18.887ZM31.224-13.4l.254-.84a6.561,6.561,0,0,1,1.544-3.008,5.822,5.822,0,0,1,1.525-1.094,3.551,3.551,0,0,1,1.564-.43q1.29,0,1.29,1.094a6.57,6.57,0,0,1-.352,1.7q-.352,1.152-.929,2.607t-1.349,3.193Q34-8.437,33.062-6.6A40.131,40.131,0,0,1,29.621-.723a28.117,28.117,0,0,1-2.542,3.047,22.515,22.515,0,0,1-2.708,2.383A13.292,13.292,0,0,1,21.693,6.3a5.963,5.963,0,0,1-2.317.537q-.88,0-.88-.762a4.784,4.784,0,0,1,.274-1.445,6.556,6.556,0,0,1,.763-1.582A5.561,5.561,0,0,1,20.864,1.8,20.223,20.223,0,0,1,23.857.2Q22.683-1.777,22.076-2.93T20.746-5.8a18.017,18.017,0,0,1-1.6-6.914,10.627,10.627,0,0,1,.586-3.848,3.191,3.191,0,0,1,1.934-1.8,5.592,5.592,0,0,1,2.031-.449,1.693,1.693,0,0,1,1.709.967,18.035,18.035,0,0,1,.771,4.521,65.461,65.461,0,0,0,1.14,7.52q.138.566.315,1.563h.078q.528-1.152,1.154-2.793.2-.469,1.369-3.457Q30.892-12.285,31.224-13.4ZM62.48-23.809v-.312q0-.723-.2-.723-.254,0-.791.781a11.047,11.047,0,0,0-.967,1.738,45.1,45.1,0,0,0-1.895,5.166,43.476,43.476,0,0,0-1.27,5.439q-.156,1.055-.332,2.285l.1.078q1.953-2.012,2.91-2.852a30.334,30.334,0,0,1,2.48-1.914,6.048,6.048,0,0,1,3.164-1.328,1.469,1.469,0,0,1,1.24.576,2.569,2.569,0,0,1,.439,1.592,8.68,8.68,0,0,1-.234,1.68,22.825,22.825,0,0,0-.41,3.887,10.536,10.536,0,0,0,.117,1.523q.1.625.645,2.52a13.658,13.658,0,0,1,.449,1.6q0,.273-.645.664A7.056,7.056,0,0,1,63.477-.039a2.662,2.662,0,0,1-2.314-1.388,6.614,6.614,0,0,1-.889-3.617,15.7,15.7,0,0,1,.176-2.131l-.1-.078Q57.579-4.4,56.642-3.4,53.165-.039,51.289-.039q-.86,0-1.416-1.143a6.829,6.829,0,0,1-.557-2.979,28.69,28.69,0,0,1,2.441-10.078q.977-2.383,2.07-4.561t2.09-3.76A13.32,13.32,0,0,1,57.432-24.5a10.235,10.235,0,0,1,1.6-1.387,6.44,6.44,0,0,1,1.65-.83,5.4,5.4,0,0,1,1.68-.273A4.669,4.669,0,0,1,65.771-25.7a4.417,4.417,0,0,1,1.318,3.3,6.641,6.641,0,0,1-.8,2.988,11.615,11.615,0,0,1-2.246,3.008,11.059,11.059,0,0,1-2.08,1.592,3.971,3.971,0,0,1-1.807.693.52.52,0,0,1-.352-.137.446.446,0,0,1-.156-.352,3.939,3.939,0,0,1,.508-1.27,19.5,19.5,0,0,0,1.152-2.627,22.639,22.639,0,0,0,.869-2.949A11.445,11.445,0,0,0,62.48-23.809ZM76.074-6.074a5.845,5.845,0,0,0,1.367-1.211,9.429,9.429,0,0,0,1.6-2.91,12.122,12.122,0,0,0,.7-2.4A13.253,13.253,0,0,0,80-15.078q0-1.074-.449-1.074-.625,0-1.914,2.754a23.9,23.9,0,0,0-1.24,3.311,10.456,10.456,0,0,0-.479,2.842A6.3,6.3,0,0,0,76.074-6.074Zm.039.625a1.356,1.356,0,0,0,1.523,1.172A7.169,7.169,0,0,0,81.445-6a4.5,4.5,0,0,1,1.836-1,2.05,2.05,0,0,1,1.094.313q.508.313.508.645a1.548,1.548,0,0,1-.566.918A20.4,20.4,0,0,1,81.934-3.1a20.639,20.639,0,0,1-2.6,1.641,14.516,14.516,0,0,1-2.5,1.035,7.747,7.747,0,0,1-2.227.381,5.426,5.426,0,0,1-3.906-1.4,4.9,4.9,0,0,1-1.465-3.721A12.467,12.467,0,0,1,70.01-9.17a18.1,18.1,0,0,1,2.08-4.189,14.063,14.063,0,0,1,3.789-3.809A9.682,9.682,0,0,1,81.191-19a3.677,3.677,0,0,1,2.881,1.162,4.6,4.6,0,0,1,1.045,3.193,7.585,7.585,0,0,1-.83,3.3,11.862,11.862,0,0,1-2.451,3.3,12.941,12.941,0,0,1-2.607,2.07,4.621,4.621,0,0,1-2.236.742A2.028,2.028,0,0,1,76.113-5.449Zm16.914-.508-.078.391a8.333,8.333,0,0,1-.078.957,11.618,11.618,0,0,1-.215,1.563,2.906,2.906,0,0,1-.41,1.006,5.52,5.52,0,0,1-.742.85A4.275,4.275,0,0,1,88.633.117,1.913,1.913,0,0,1,86.9-.742a5.269,5.269,0,0,1-.557-2.773,25.62,25.62,0,0,1,.342-3.76,35.466,35.466,0,0,1,.83-4.014l.156-.508a2.141,2.141,0,0,1,.117-.488,25.559,25.559,0,0,1,1.328-3.936,6.5,6.5,0,0,1,1.465-2.061,2.69,2.69,0,0,1,1.719-.605q1.387,0,1.68,1.68a4.231,4.231,0,0,0,.527-.547,5.625,5.625,0,0,1,.879-.908,1.206,1.206,0,0,1,.723-.225q1.68,0,1.68,3.32a15.643,15.643,0,0,1-.391,3.516,10.727,10.727,0,0,1-.986,2.773Q95.82-8.2,95.234-8.2q-.645,0-.645-2.441a10.848,10.848,0,0,0-.146-2.021,2.774,2.774,0,0,0-.459-1.143,14.433,14.433,0,0,0-.762,5Q93.086-6.543,93.027-5.957Zm13.086-.117a5.845,5.845,0,0,0,1.367-1.211,9.429,9.429,0,0,0,1.6-2.91,12.122,12.122,0,0,0,.7-2.4,13.253,13.253,0,0,0,.254-2.48q0-1.074-.449-1.074-.625,0-1.914,2.754a23.9,23.9,0,0,0-1.24,3.311,10.456,10.456,0,0,0-.479,2.842A6.3,6.3,0,0,0,106.113-6.074Zm.039.625a1.356,1.356,0,0,0,1.523,1.172A7.169,7.169,0,0,0,111.484-6a4.5,4.5,0,0,1,1.836-1,2.05,2.05,0,0,1,1.094.313q.508.313.508.645a1.548,1.548,0,0,1-.566.918A20.4,20.4,0,0,1,111.973-3.1a20.639,20.639,0,0,1-2.6,1.641,14.516,14.516,0,0,1-2.5,1.035,7.747,7.747,0,0,1-2.227.381,5.426,5.426,0,0,1-3.906-1.4,4.9,4.9,0,0,1-1.465-3.721,12.467,12.467,0,0,1,.771-4.014,18.1,18.1,0,0,1,2.08-4.189,14.063,14.063,0,0,1,3.789-3.809A9.682,9.682,0,0,1,111.23-19a3.677,3.677,0,0,1,2.881,1.162,4.6,4.6,0,0,1,1.045,3.193,7.585,7.585,0,0,1-.83,3.3,11.862,11.862,0,0,1-2.451,3.3,12.941,12.941,0,0,1-2.607,2.07,4.621,4.621,0,0,1-2.236.742A2.028,2.028,0,0,1,106.152-5.449ZM118.072.039q-1.763,0-1.763-1.188a5.039,5.039,0,0,1,.2-1.13,7.454,7.454,0,0,1,.411-1.227,5.049,5.049,0,0,1,1.077-1.752,5.021,5.021,0,0,1,1.695-.9,6.2,6.2,0,0,1,1.988-.389q1.215,0,1.215,1.4a9.023,9.023,0,0,1-.764,3.233,2.168,2.168,0,0,1-.46.808,2.551,2.551,0,0,1-.872.5A7.977,7.977,0,0,1,118.072.039Zm7.93,0q-1.763,0-1.763-1.188a5.039,5.039,0,0,1,.2-1.13,7.454,7.454,0,0,1,.411-1.227,5.049,5.049,0,0,1,1.077-1.752,5.021,5.021,0,0,1,1.695-.9,6.2,6.2,0,0,1,1.988-.389q1.215,0,1.215,1.4a9.024,9.024,0,0,1-.764,3.233,2.168,2.168,0,0,1-.46.808,2.551,2.551,0,0,1-.872.5A7.977,7.977,0,0,1,126,.039Zm7.93,0q-1.763,0-1.763-1.188a5.039,5.039,0,0,1,.2-1.13,7.455,7.455,0,0,1,.411-1.227,5.049,5.049,0,0,1,1.077-1.752,5.022,5.022,0,0,1,1.695-.9,6.2,6.2,0,0,1,1.988-.389q1.215,0,1.215,1.4a9.024,9.024,0,0,1-.764,3.233,2.168,2.168,0,0,1-.46.808,2.551,2.551,0,0,1-.872.5A7.977,7.977,0,0,1,133.931.039Z" transform="translate(84.002 49.987)" fill="#005fd5"/>
    <path id="Path_291" data-name="Path 291" d="M2.4,0H4.5V-9.66h7.8V-11.4H4.5v-7.83h9.24v-1.74H2.4ZM17.19,0h2.1V-16.38h-2.1Zm1.05-19.47a1.524,1.524,0,0,0,1.53-1.56,1.5,1.5,0,0,0-1.53-1.53,1.5,1.5,0,0,0-1.53,1.53A1.524,1.524,0,0,0,18.24-19.47ZM24.06,0h2.1V-22.2h-2.1ZM37.92-14.82c3.03,0,5.79,1.92,5.7,5.73H32.1C32.34-12.9,34.95-14.82,37.92-14.82Zm7.59,9.63H43.29C42.69-3,40.8-1.53,38.01-1.53A5.727,5.727,0,0,1,32.1-7.38H45.69a14.36,14.36,0,0,0,.06-1.65,7.364,7.364,0,0,0-7.74-7.59c-4.71,0-8.04,3.21-8.04,8.43C29.97-3,33.36.24,38.01.24,42.12.24,44.76-2.1,45.51-5.19Zm15.42.84c-.09-5.79-9.78-3.42-9.78-7.86,0-1.44,1.38-2.61,3.57-2.61,2.49,0,3.84,1.38,3.96,3.21h2.1c-.18-3.15-2.49-5.01-6-5.01-3.45,0-5.76,2.01-5.76,4.44,0,6.15,9.84,3.78,9.84,7.83,0,1.56-1.32,2.82-3.66,2.82-2.67,0-4.23-1.29-4.41-3.09H48.63c.27,3,2.88,4.86,6.6,4.86C58.62.24,60.93-1.71,60.93-4.35ZM72.15-8.22c0,5.13,3.33,8.46,7.8,8.46a6.92,6.92,0,0,0,6.51-3.87V0h2.1V-16.38h-2.1v3.6a6.837,6.837,0,0,0-6.48-3.84C75.48-16.62,72.15-13.35,72.15-8.22Zm14.31.03c0,4.08-2.73,6.6-6.09,6.6-3.45,0-6.09-2.49-6.09-6.63,0-4.17,2.64-6.57,6.09-6.57C83.73-14.79,86.46-12.27,86.46-8.19Zm7.5,3.75C93.96-1.17,95.49,0,98.34,0h2.25V-1.8H98.67c-1.89,0-2.58-.63-2.58-2.64V-14.61h4.5v-1.77h-4.5v-4.11H93.96v4.11H91.68v1.77h2.28Zm10.68,0c0,3.27,1.53,4.44,4.38,4.44h2.25V-1.8h-1.92c-1.89,0-2.58-.63-2.58-2.64V-14.61h4.5v-1.77h-4.5v-4.11h-2.13v4.11h-2.28v1.77h2.28Zm9.12-3.78c0,5.13,3.33,8.46,7.8,8.46a6.92,6.92,0,0,0,6.51-3.87V0h2.1V-16.38h-2.1v3.6a6.837,6.837,0,0,0-6.48-3.84C117.09-16.62,113.76-13.35,113.76-8.22Zm14.31.03c0,4.08-2.73,6.6-6.09,6.6-3.45,0-6.09-2.49-6.09-6.63,0-4.17,2.64-6.57,6.09-6.57C125.34-14.79,128.07-12.27,128.07-8.19Zm5.94,0c0,5.19,3.33,8.43,7.95,8.43,4.11,0,6.78-2.31,7.53-5.58h-2.25c-.57,2.4-2.52,3.81-5.28,3.81-3.21,0-5.82-2.22-5.82-6.66s2.61-6.63,5.82-6.63c2.76,0,4.74,1.44,5.28,3.78h2.25c-.75-3.39-3.42-5.58-7.53-5.58C137.34-16.62,134.01-13.38,134.01-8.19ZM153.36,0h2.1V-8.94c0-3.99,2.13-5.91,5.19-5.91,3,0,4.98,1.86,4.98,5.49V0h2.07V-9.6c0-4.8-2.91-7.08-6.54-7.08a6.166,6.166,0,0,0-5.7,3.09V-22.2h-2.1Zm25.98-14.82c3.03,0,5.79,1.92,5.7,5.73H173.52C173.76-12.9,176.37-14.82,179.34-14.82Zm7.59,9.63h-2.22c-.6,2.19-2.49,3.66-5.28,3.66a5.727,5.727,0,0,1-5.91-5.85h13.59a14.361,14.361,0,0,0,.06-1.65,7.364,7.364,0,0,0-7.74-7.59c-4.71,0-8.04,3.21-8.04,8.43,0,5.19,3.39,8.43,8.04,8.43C183.54.24,186.18-2.1,186.93-5.19Zm3.12-3.03c0,5.13,3.33,8.46,7.83,8.46a6.831,6.831,0,0,0,6.48-3.9V0h2.1V-22.2h-2.1v9.36a7.121,7.121,0,0,0-6.45-3.78C193.38-16.62,190.05-13.35,190.05-8.22Zm14.31.03c0,4.08-2.73,6.6-6.09,6.6-3.45,0-6.09-2.49-6.09-6.63,0-4.17,2.64-6.57,6.09-6.57C201.63-14.79,204.36-12.27,204.36-8.19ZM219.48,0h2.1V-16.38h-2.1Zm1.05-19.47a1.524,1.524,0,0,0,1.53-1.56,1.5,1.5,0,0,0-1.53-1.53A1.5,1.5,0,0,0,219-21.03,1.524,1.524,0,0,0,220.53-19.47ZM238.62,0h2.07V-9.6c0-4.8-2.94-7.08-6.66-7.08a5.985,5.985,0,0,0-5.58,3.09v-2.79h-2.1V0h2.1V-8.94c0-3.99,2.13-5.91,5.19-5.91,3,0,4.98,1.86,4.98,5.49Zm17.01-12.78v-3.6h-2.07V7.74h2.07V-3.6A7,7,0,0,0,262.14.24c4.47,0,7.8-3.33,7.8-8.46s-3.33-8.4-7.8-8.4A6.948,6.948,0,0,0,255.63-12.78Zm12.18,4.56c0,4.14-2.64,6.63-6.09,6.63-3.33,0-6.09-2.52-6.09-6.6s2.76-6.6,6.09-6.6C265.17-14.79,267.81-12.39,267.81-8.22Zm21.42.03c0-5.22-3.57-8.43-8.19-8.43-4.59,0-8.19,3.21-8.19,8.43,0,5.19,3.51,8.43,8.13,8.43A7.986,7.986,0,0,0,289.23-8.19Zm-14.25,0c0-4.5,2.91-6.6,6.03-6.6s6.06,2.1,6.06,6.6-3,6.6-6.09,6.6C277.86-1.59,274.98-3.69,274.98-8.19Zm29.43,3.84c-.09-5.79-9.78-3.42-9.78-7.86,0-1.44,1.38-2.61,3.57-2.61,2.49,0,3.84,1.38,3.96,3.21h2.1c-.18-3.15-2.49-5.01-6-5.01-3.45,0-5.76,2.01-5.76,4.44,0,6.15,9.84,3.78,9.84,7.83,0,1.56-1.32,2.82-3.66,2.82-2.67,0-4.23-1.29-4.41-3.09h-2.16c.27,3,2.88,4.86,6.6,4.86C302.1.24,304.41-1.71,304.41-4.35Zm4.56-.09c0,3.27,1.53,4.44,4.38,4.44h2.25V-1.8h-1.92c-1.89,0-2.58-.63-2.58-2.64V-14.61h4.5v-1.77h-4.5v-4.11h-2.13v4.11h-2.28v1.77h2.28Zm21.42.09c-.09-5.79-9.78-3.42-9.78-7.86,0-1.44,1.38-2.61,3.57-2.61,2.49,0,3.84,1.38,3.96,3.21h2.1c-.18-3.15-2.49-5.01-6-5.01-3.45,0-5.76,2.01-5.76,4.44,0,6.15,9.84,3.78,9.84,7.83,0,1.56-1.32,2.82-3.66,2.82-2.67,0-4.23-1.29-4.41-3.09h-2.16c.27,3,2.88,4.86,6.6,4.86C328.08.24,330.39-1.71,330.39-4.35Zm14.25-8.4V-22.2h-2.07V0h2.07V-3.6A6.883,6.883,0,0,0,351.15.24c4.47,0,7.8-3.33,7.8-8.46s-3.3-8.4-7.8-8.4A6.951,6.951,0,0,0,344.64-12.75Zm12.18,4.53c0,4.14-2.64,6.63-6.09,6.63-3.33,0-6.09-2.52-6.09-6.6s2.76-6.6,6.09-6.6C354.18-14.79,356.82-12.39,356.82-8.22ZM368.76-2.4l-5.58-13.98h-2.31L367.59-.09l-3.18,7.8h2.19l9.72-24.09h-2.16Zm24.57,0-5.58-13.98h-2.31L392.16-.09l-3.18,7.8h2.19l9.72-24.09h-2.16Zm25.83-5.79c0-5.22-3.57-8.43-8.19-8.43-4.59,0-8.19,3.21-8.19,8.43,0,5.19,3.51,8.43,8.13,8.43A7.986,7.986,0,0,0,419.16-8.19Zm-14.25,0c0-4.5,2.91-6.6,6.03-6.6s6.06,2.1,6.06,6.6-3,6.6-6.09,6.6C407.79-1.59,404.91-3.69,404.91-8.19Zm32.28-8.19h-2.1v8.91c0,3.99-2.13,5.91-5.19,5.91-3,0-4.98-1.86-4.98-5.49v-9.33h-2.07v9.57c0,4.8,2.94,7.08,6.66,7.08a5.919,5.919,0,0,0,5.58-3.15V0h2.1Zm6.9,7.23c0-4.11,2.31-5.34,5.04-5.34h.57v-2.19c-2.82,0-4.71,1.2-5.61,3.21v-2.91h-2.1V0h2.1ZM3,41.56C3,44.83,4.53,46,7.38,46H9.63V44.2H7.71c-1.89,0-2.58-.63-2.58-2.64V31.39h4.5V29.62H5.13V25.51H3v4.11H.72v1.77H3ZM20.07,31.18c3.03,0,5.79,1.92,5.7,5.73H14.25C14.49,33.1,17.1,31.18,20.07,31.18Zm7.59,9.63H25.44c-.6,2.19-2.49,3.66-5.28,3.66a5.727,5.727,0,0,1-5.91-5.85H27.84a14.361,14.361,0,0,0,.06-1.65,7.364,7.364,0,0,0-7.74-7.59c-4.71,0-8.04,3.21-8.04,8.43,0,5.19,3.39,8.43,8.04,8.43C24.27,46.24,26.91,43.9,27.66,40.81Zm3.12-3.03c0,5.13,3.33,8.46,7.8,8.46a6.92,6.92,0,0,0,6.51-3.87V46h2.1V29.62h-2.1v3.6a6.837,6.837,0,0,0-6.48-3.84C34.11,29.38,30.78,32.65,30.78,37.78Zm14.31.03c0,4.08-2.73,6.6-6.09,6.6-3.45,0-6.09-2.49-6.09-6.63,0-4.17,2.64-6.57,6.09-6.57C42.36,31.21,45.09,33.73,45.09,37.81ZM75.93,46H78V36.4c0-4.8-2.88-7.08-6.51-7.08a5.967,5.967,0,0,0-5.91,4.02,6.053,6.053,0,0,0-6.06-4.02,5.85,5.85,0,0,0-5.43,3.12V29.62h-2.1V46h2.1V37.12c0-3.99,2.07-5.97,5.07-5.97,2.91,0,4.83,1.86,4.83,5.49V46h2.07V37.12c0-3.99,2.1-5.97,5.07-5.97,2.91,0,4.8,1.86,4.8,5.49Zm18.12,0h2.13l4.53-13.74L105.24,46h2.1l5.13-16.38H110.4L106.35,43.9l-4.53-14.28h-2.1L95.13,43.87,91.05,29.62H88.92Zm21.27,0h2.1V29.62h-2.1Zm1.05-19.47a1.524,1.524,0,0,0,1.53-1.56,1.53,1.53,0,0,0-3.06,0A1.524,1.524,0,0,0,116.37,26.53ZM122.19,46h2.1V23.8h-2.1Zm6.87,0h2.1V23.8h-2.1Zm26.43-4.35c-.09-5.79-9.78-3.42-9.78-7.86,0-1.44,1.38-2.61,3.57-2.61,2.49,0,3.84,1.38,3.96,3.21h2.1c-.18-3.15-2.49-5.01-6-5.01-3.45,0-5.76,2.01-5.76,4.44,0,6.15,9.84,3.78,9.84,7.83,0,1.56-1.32,2.82-3.66,2.82-2.67,0-4.23-1.29-4.41-3.09h-2.16c.27,3,2.88,4.86,6.6,4.86C153.18,46.24,155.49,44.29,155.49,41.65ZM159.45,46h2.1V37.06c0-3.99,2.13-5.91,5.19-5.91,3,0,4.98,1.86,4.98,5.49V46h2.07V36.4c0-4.8-2.91-7.08-6.54-7.08a6.166,6.166,0,0,0-5.7,3.09V23.8h-2.1Zm34.41-8.19c0-5.22-3.57-8.43-8.19-8.43-4.59,0-8.19,3.21-8.19,8.43,0,5.19,3.51,8.43,8.13,8.43A7.986,7.986,0,0,0,193.86,37.81Zm-14.25,0c0-4.5,2.91-6.6,6.03-6.6s6.06,2.1,6.06,6.6-3,6.6-6.09,6.6C182.49,44.41,179.61,42.31,179.61,37.81ZM200.88,46h2.13l4.53-13.74L212.07,46h2.1l5.13-16.38h-2.07L213.18,43.9l-4.53-14.28h-2.1l-4.59,14.25-4.08-14.25h-2.13Zm43.68-16.38h-2.1v8.91c0,3.99-2.13,5.91-5.19,5.91-3,0-4.98-1.86-4.98-5.49V29.62h-2.07v9.57c0,4.8,2.94,7.08,6.66,7.08a5.919,5.919,0,0,0,5.58-3.15V46h2.1Zm6.87,3.6v-3.6h-2.07V53.74h2.07V42.4a7,7,0,0,0,6.51,3.84c4.47,0,7.8-3.33,7.8-8.46s-3.33-8.4-7.8-8.4A6.948,6.948,0,0,0,251.43,33.22Zm12.18,4.56c0,4.14-2.64,6.63-6.09,6.63-3.33,0-6.09-2.52-6.09-6.6s2.76-6.6,6.09-6.6C260.97,31.21,263.61,33.61,263.61,37.78ZM277.83,46h2.1V37.06c0-3.99,2.13-5.91,5.19-5.91,3,0,4.98,1.86,4.98,5.49V46h2.07V36.4c0-4.8-2.91-7.08-6.54-7.08a6.166,6.166,0,0,0-5.7,3.09V23.8h-2.1Zm25.98-14.82c3.03,0,5.79,1.92,5.7,5.73H297.99C298.23,33.1,300.84,31.18,303.81,31.18Zm7.59,9.63h-2.22c-.6,2.19-2.49,3.66-5.28,3.66a5.727,5.727,0,0,1-5.91-5.85h13.59a14.361,14.361,0,0,0,.06-1.65,7.364,7.364,0,0,0-7.74-7.59c-4.71,0-8.04,3.21-8.04,8.43,0,5.19,3.39,8.43,8.04,8.43C308.01,46.24,310.65,43.9,311.4,40.81Zm6.18-3.96c0-4.11,2.31-5.34,5.04-5.34h.57V29.32c-2.82,0-4.71,1.2-5.61,3.21V29.62h-2.1V46h2.1Zm15.75-5.67c3.03,0,5.79,1.92,5.7,5.73H327.51C327.75,33.1,330.36,31.18,333.33,31.18Zm7.59,9.63H338.7c-.6,2.19-2.49,3.66-5.28,3.66a5.727,5.727,0,0,1-5.91-5.85H341.1a14.361,14.361,0,0,0,.06-1.65,7.364,7.364,0,0,0-7.74-7.59c-4.71,0-8.04,3.21-8.04,8.43,0,5.19,3.39,8.43,8.04,8.43C337.53,46.24,340.17,43.9,340.92,40.81Zm5.94,3.78a1.515,1.515,0,1,0-3.03,0,1.516,1.516,0,1,0,3.03,0Z" transform="translate(-55.998 130.987)" fill="#65617d"/>
  </g>
</svg>
