<svg xmlns="http://www.w3.org/2000/svg" xmlns:xlink="http://www.w3.org/1999/xlink" width="607.194" height="573.968" viewBox="0 0 607.194 573.968">
  <defs>
    <linearGradient id="linear-gradient" x1="0.5" y1="1" x2="0.5" gradientUnits="objectBoundingBox">
      <stop offset="0" stop-color="gray" stop-opacity="0.251"/>
      <stop offset="0.54" stop-color="gray" stop-opacity="0.122"/>
      <stop offset="1" stop-color="gray" stop-opacity="0.102"/>
    </linearGradient>
    <linearGradient id="linear-gradient-2" x1="0" y1="0.5" x2="1" y2="0.5" xlink:href="#linear-gradient"/>
    <linearGradient id="linear-gradient-3" x1="0.5" y1="1" x2="0.5" y2="0" xlink:href="#linear-gradient"/>
    <linearGradient id="linear-gradient-7" x1="0.5" y1="1" x2="0.5" y2="0" xlink:href="#linear-gradient"/>
    <linearGradient id="linear-gradient-8" x1="0.5" y1="1.002" x2="0.5" y2="0" xlink:href="#linear-gradient"/>
    <linearGradient id="linear-gradient-9" x1="0.5" y1="1" x2="0.5" y2="0" xlink:href="#linear-gradient"/>
    <linearGradient id="linear-gradient-10" x1="0.5" y1="1" x2="0.5" y2="0" xlink:href="#linear-gradient"/>
    <linearGradient id="linear-gradient-11" x1="0.5" y1="1" x2="0.5" y2="0" xlink:href="#linear-gradient"/>
  </defs>
  <g id="empty-progress" transform="translate(-656.818 -186.072)">
    <path id="Path_529" data-name="Path 529" d="M-167.311-9.277l1.349-3.691,1.857-4.707a39.56,39.56,0,0,1,1.72-4.043,4,4,0,0,0,.547-1.484q0-.566-.921-1.23-.61-.41-.61-.723,0-.391,1.214-.84a16.152,16.152,0,0,1,2.37-.752,9.626,9.626,0,0,1,2.155-.322,3.3,3.3,0,0,1,2.488.876q.979.994,2.4,6.191.584,2.11,1.294,4.084a22.438,22.438,0,0,0,1.178,2.833,10.86,10.86,0,0,0,.72,1.211q.644-2.051,1.522-5.371a30.407,30.407,0,0,1,2.361-7.07,5.194,5.194,0,0,1,.761-1.035,5.908,5.908,0,0,1,1.727-1.133,4.762,4.762,0,0,1,1.863-.391.909.909,0,0,1,.78.293,1.878,1.878,0,0,1,.215,1.055,3.373,3.373,0,0,1-.077.84,26.44,26.44,0,0,1-.679,2.628q-.487,1.611-1.375,4.141t-2.213,6.124l-.293.723q-.156.469-.273.762a54.269,54.269,0,0,1-3.6,8.592,4.2,4.2,0,0,1-.607.761,1.735,1.735,0,0,1-1.194.605q-1.507,0-3.25-3.2a58.28,58.28,0,0,1-4.952-11.8,18.2,18.2,0,0,1-.561-2.133h-.078l-2.368,7.446a3.158,3.158,0,0,1-.157.5q-.117.3-.2.576-.078.215-.186.479t-.186.44q-.645,1.954-1.055,2.94a10.814,10.814,0,0,1-.82,1.631,6.936,6.936,0,0,1-1.035,1.309,7.887,7.887,0,0,1-2.207,1.446,5.98,5.98,0,0,1-2.4.527q-1,0-1-.8a5.186,5.186,0,0,1,.88-2.09,40.325,40.325,0,0,0,2.287-4.668Q-167.7-8.379-167.311-9.277Zm41.384-10.371q2.91,0,2.91.684,0,.781-1.309.84a6.556,6.556,0,0,0-2.949.9,8.458,8.458,0,0,0-2.432,2.188,10.886,10.886,0,0,0-1.66,3.125,11.247,11.247,0,0,0-.6,3.672,5.484,5.484,0,0,0,1,3.428,3.123,3.123,0,0,0,2.6,1.3,3.192,3.192,0,0,0,2.6-1.523,5.863,5.863,0,0,0,1.113-3.555,7.15,7.15,0,0,0-.693-3.115,6.554,6.554,0,0,0-2.021-2.451q-.566-.449-.566-.645,0-.273.8-.84a9.393,9.393,0,0,1,2.012-1.016,5.628,5.628,0,0,1,1.875-.41,3.277,3.277,0,0,1,1.67.459,4.492,4.492,0,0,1,1.4,1.309,6.451,6.451,0,0,1,.928,1.953A8.358,8.358,0,0,1-118.936-11a11.269,11.269,0,0,1-.781,4.092,9.132,9.132,0,0,1-2.051,3.271,13.222,13.222,0,0,1-3.955,2.588,11.056,11.056,0,0,1-4.4,1.006,12.1,12.1,0,0,1-4.033-.7A8.441,8.441,0,0,1-137.334-2.6,6,6,0,0,1-138.9-7.031a10.2,10.2,0,0,1,1.113-4.531,14.784,14.784,0,0,1,3.018-4.111,15.2,15.2,0,0,1,4.2-2.91A10.929,10.929,0,0,1-125.928-19.648Zm12.363.762.078-.234a28.123,28.123,0,0,1,2.229-5.117,4.394,4.394,0,0,1,1.252-1.25,5.34,5.34,0,0,1,2.835-.957,1.784,1.784,0,0,1,1.193.352,1.266,1.266,0,0,1,.411,1.017,6.26,6.26,0,0,1-.59,1.834,26.925,26.925,0,0,0-1.494,4.315,5.144,5.144,0,0,1,.645.117,4.864,4.864,0,0,1,1.545.4.869.869,0,0,1,.372.811,3.656,3.656,0,0,1-.527,1.915A3.218,3.218,0,0,1-107-14.394a6.491,6.491,0,0,1-2.088.391q-.251.762-.56,2.091-.174,1.172-.386,3.244a9.369,9.369,0,0,0-.117,1.425q0,3.083,2.989,3.083h.176q.352,0,.352.117,0,.312-.664,1.055a8.711,8.711,0,0,1-1.465,1.309,7.887,7.887,0,0,1-1.877.938,5.691,5.691,0,0,1-1.839.352,4.333,4.333,0,0,1-3.336-1.387A5.2,5.2,0,0,1-117.1-5.449a12.714,12.714,0,0,1,.342-2.559q.342-1.582,1.064-4.238.117-.469.254-.986t.156-.615a1.666,1.666,0,0,1-1.113-.332,1.342,1.342,0,0,1-.332-1.016,3.5,3.5,0,0,1,.947-2.324A4.015,4.015,0,0,1-113.564-18.887Zm23.2-4.922v-.312q0-.723-.2-.723-.254,0-.791.781a11.047,11.047,0,0,0-.967,1.738,45.1,45.1,0,0,0-1.895,5.166,43.475,43.475,0,0,0-1.27,5.439q-.156,1.055-.332,2.285l.1.078q1.953-2.012,2.91-2.852a30.334,30.334,0,0,1,2.48-1.914,6.048,6.048,0,0,1,3.164-1.328,1.469,1.469,0,0,1,1.24.576,2.569,2.569,0,0,1,.439,1.592,8.68,8.68,0,0,1-.234,1.68,22.825,22.825,0,0,0-.41,3.887,10.536,10.536,0,0,0,.117,1.523q.1.625.645,2.52a13.658,13.658,0,0,1,.449,1.6q0,.273-.645.664A7.056,7.056,0,0,1-89.365-.039,2.662,2.662,0,0,1-91.68-1.427a6.614,6.614,0,0,1-.889-3.617,15.7,15.7,0,0,1,.176-2.131l-.1-.078Q-95.263-4.4-96.2-3.4q-3.477,3.358-5.352,3.358-.86,0-1.416-1.143a6.829,6.829,0,0,1-.557-2.979,28.69,28.69,0,0,1,2.441-10.078q.977-2.383,2.07-4.561t2.09-3.76A13.32,13.32,0,0,1-95.41-24.5a10.235,10.235,0,0,1,1.6-1.387,6.44,6.44,0,0,1,1.65-.83,5.4,5.4,0,0,1,1.68-.273A4.669,4.669,0,0,1-87.07-25.7a4.417,4.417,0,0,1,1.318,3.3,6.641,6.641,0,0,1-.8,2.988A11.615,11.615,0,0,1-88.8-16.406a11.058,11.058,0,0,1-2.08,1.592,3.971,3.971,0,0,1-1.807.693.52.52,0,0,1-.352-.137.446.446,0,0,1-.156-.352,3.939,3.939,0,0,1,.508-1.27,19.5,19.5,0,0,0,1.152-2.627,22.639,22.639,0,0,0,.869-2.949A11.445,11.445,0,0,0-90.361-23.809Zm9.723,24a2.429,2.429,0,0,1-1.6-.8,4.646,4.646,0,0,1-1.024-1.689,7.609,7.609,0,0,1-.3-2.354,25.9,25.9,0,0,1,1.2-7.275,16.768,16.768,0,0,1,2.724-5.869,2.025,2.025,0,0,1,1.679-.762,2.11,2.11,0,0,1,1.826,1.035,4.8,4.8,0,0,1,.693,2.715A28.2,28.2,0,0,1-76.155-9a53.984,53.984,0,0,1-2.006,6.923A3.842,3.842,0,0,1-79.41-.117,2.221,2.221,0,0,1-80.6.2Zm2.347-19.629q-1.836-.059-1.836-2.207a7.166,7.166,0,0,1,.537-2.49,5.945,5.945,0,0,1,1.221-2.1,2.215,2.215,0,0,1,.713-.527,2.356,2.356,0,0,1,.928-.156,1.909,1.909,0,0,1,1.436.479,2.258,2.258,0,0,1,.459,1.592,7.234,7.234,0,0,1-.479,2.627,5.483,5.483,0,0,1-1.279,2.012,2.375,2.375,0,0,1-1.641.771ZM-65.134-10.3l1.177-1.371q1.786-1.978,2.83-2.947a8.967,8.967,0,0,1,1.873-1.4,3.626,3.626,0,0,1,1.688-.43,2.307,2.307,0,0,1,1.951.742,4.387,4.387,0,0,1,.566,2.578q0,.762-.156,2.246a31.539,31.539,0,0,0-.234,3.711A20.633,20.633,0,0,0-55.244-4a9.013,9.013,0,0,0,.41,1.484,4.43,4.43,0,0,1,.2.957.576.576,0,0,1-.234.488,5.456,5.456,0,0,1-1.6.918,4.779,4.779,0,0,1-1.68.391,3.069,3.069,0,0,1-2.021-.762,4.894,4.894,0,0,1-1.406-2.109,8.745,8.745,0,0,1-.5-3.047,18.156,18.156,0,0,1,.234-2.676l-.078-.078q-.84.938-1.357,1.484t-.967,1.035q-2.188,2.5-3.711,4.512-.586.781-1.074,1.367a2.262,2.262,0,0,1-1.641.723,2.519,2.519,0,0,1-2.031-.937,3.656,3.656,0,0,1-.781-2.422,14.453,14.453,0,0,1,.215-2.246q.215-1.328.576-2.842t.859-3.115q.5-1.6,1.084-3.047a10.88,10.88,0,0,1,2.188-3.75,2.9,2.9,0,0,1,2.129-.879q2.032,0,2.032,2.637a27.457,27.457,0,0,1-.808,5.541Zm26.042.786v.078l-.078-.078a1.016,1.016,0,0,1-.312.039,9.241,9.241,0,0,1-.937.039q-1,0-1-.371a.764.764,0,0,1,.254-.469,7.384,7.384,0,0,0,1.279-2.207,8.026,8.026,0,0,0,.6-2.48,2.748,2.748,0,0,1,.039-.488q.02-.078.029-.137a.614.614,0,0,0,.01-.1q0-.273-.371-.273-.762,0-2.344,1.641a14.9,14.9,0,0,0-1.875,2.5,14.512,14.512,0,0,0-1.367,2.891,8.216,8.216,0,0,0-.488,2.6q0,1.133.566,1.133.547,0,2.754-1.836Q-41.338-7.891-39.092-9.512Zm-1,4.16-.527.391A2.027,2.027,0,0,1-40.8-4.8q-.127.1-.322.254a45.812,45.812,0,0,1-5.3,3.711A7.124,7.124,0,0,1-49.775.234,3.164,3.164,0,0,1-52.324-.918,4.646,4.646,0,0,1-53.291-4a10.621,10.621,0,0,1,1.357-4.971,18.66,18.66,0,0,1,3.584-4.717,19.08,19.08,0,0,1,4.883-3.447,11.67,11.67,0,0,1,5.137-1.3,6.8,6.8,0,0,1,3.721.84,2.813,2.813,0,0,1,1.279,2.52A7.741,7.741,0,0,1-34.443-11.6a1.615,1.615,0,0,1,1.172.5A2.109,2.109,0,0,1-32.9-9.727a20.382,20.382,0,0,1-.625,4.248A36.024,36.024,0,0,1-35.049-.449a14.9,14.9,0,0,1-3.125,5.059A13.952,13.952,0,0,1-42,7.393a9,9,0,0,1-3.926,1.162,3.337,3.337,0,0,1-2.441-1.094A3.429,3.429,0,0,1-49.443,5a4.428,4.428,0,0,1,.469-1.9,5.626,5.626,0,0,1,1.211-1.689,15.622,15.622,0,0,1,4.473-2.93,2.1,2.1,0,0,1,.84-.273.3.3,0,0,1,.215.1.3.3,0,0,1,.1.215,1.4,1.4,0,0,1-.234.527,11.22,11.22,0,0,0-1.035,2.549,9.885,9.885,0,0,0-.449,2.686q0,1.328.41,1.328.215,0,.537-.479a6.283,6.283,0,0,0,.576-1.084A33.1,33.1,0,0,0-40.209-3.77Q-40.149-4.3-40.088-5.352ZM-17.631.2a2.429,2.429,0,0,1-1.6-.8,4.646,4.646,0,0,1-1.024-1.689,7.609,7.609,0,0,1-.3-2.354,25.9,25.9,0,0,1,1.2-7.275,16.768,16.768,0,0,1,2.724-5.869,2.025,2.025,0,0,1,1.679-.762,2.11,2.11,0,0,1,1.826,1.035,4.8,4.8,0,0,1,.693,2.715A28.2,28.2,0,0,1-13.147-9a53.985,53.985,0,0,1-2.006,6.923A3.842,3.842,0,0,1-16.4-.117,2.221,2.221,0,0,1-17.592.2Zm2.347-19.629q-1.836-.059-1.836-2.207a7.166,7.166,0,0,1,.537-2.49,5.945,5.945,0,0,1,1.221-2.1,2.215,2.215,0,0,1,.713-.527,2.356,2.356,0,0,1,.928-.156,1.909,1.909,0,0,1,1.436.479,2.258,2.258,0,0,1,.459,1.592,7.234,7.234,0,0,1-.479,2.627,5.483,5.483,0,0,1-1.279,2.012,2.375,2.375,0,0,1-1.641.771ZM-2.126-10.3l1.177-1.371q1.786-1.978,2.83-2.947a8.967,8.967,0,0,1,1.873-1.4,3.626,3.626,0,0,1,1.688-.43,2.307,2.307,0,0,1,1.951.742,4.387,4.387,0,0,1,.566,2.578q0,.762-.156,2.246a31.539,31.539,0,0,0-.234,3.711A20.633,20.633,0,0,0,7.764-4a9.013,9.013,0,0,0,.41,1.484,4.43,4.43,0,0,1,.2.957.576.576,0,0,1-.234.488,5.456,5.456,0,0,1-1.6.918,4.779,4.779,0,0,1-1.68.391A3.069,3.069,0,0,1,2.832-.527,4.894,4.894,0,0,1,1.426-2.637a8.745,8.745,0,0,1-.5-3.047,18.156,18.156,0,0,1,.234-2.676l-.078-.078Q.244-7.5-.273-6.953T-1.24-5.918q-2.188,2.5-3.711,4.512-.586.781-1.074,1.367A2.262,2.262,0,0,1-7.666.684,2.519,2.519,0,0,1-9.7-.254a3.656,3.656,0,0,1-.781-2.422,14.452,14.452,0,0,1,.215-2.246q.215-1.328.576-2.842t.859-3.115q.5-1.6,1.084-3.047a10.88,10.88,0,0,1,2.188-3.75,2.9,2.9,0,0,1,2.129-.879q2.032,0,2.032,2.637A27.457,27.457,0,0,1-2.2-10.377ZM28.35-4.473a2.068,2.068,0,0,0,2.07,1.6,2.752,2.752,0,0,0,2-.967,6.909,6.909,0,0,0,1.484-2.617,10.774,10.774,0,0,0,.557-3.467,12.146,12.146,0,0,0-.225-2.5q-.225-1.055-.5-1.055-.2,0-1,1.035a22.6,22.6,0,0,0-1.6,2.4,33.642,33.642,0,0,0-2.48,4.688A8.348,8.348,0,0,0,28.35-4.473ZM29.831-12.8l.607-1.139a27.66,27.66,0,0,1,1.595-2.524,8.309,8.309,0,0,1,1.3-1.483,4.658,4.658,0,0,1,1.351-.766,3.8,3.8,0,0,1,1.409-.255,4.2,4.2,0,0,1,2.632.879,5.529,5.529,0,0,1,1.761,2.52A10.675,10.675,0,0,1,41.1-11.8a13.266,13.266,0,0,1-1.377,5.889,12.73,12.73,0,0,1-3.614,4.561A7.453,7.453,0,0,1,31.491.391,4.258,4.258,0,0,1,29.176-.2a5.344,5.344,0,0,1-1.71-2.012l-.133.333-.117.43Q25.947,2.637,25.2,4.561a6.283,6.283,0,0,1-1.3,2.354,1.4,1.4,0,0,1-1,.41A1.924,1.924,0,0,1,21.162,6.23a6.23,6.23,0,0,1-.625-3.066,34.244,34.244,0,0,1,.469-5.156,59.714,59.714,0,0,1,1.3-6.133,51.254,51.254,0,0,1,1.842-5.684,15.792,15.792,0,0,1,1.46-2.734,6.942,6.942,0,0,1,1.518-1.7,2.171,2.171,0,0,1,1.129-.312,1.861,1.861,0,0,1,1.383.491,1.9,1.9,0,0,1,.487,1.4,10.2,10.2,0,0,1-.156,1.69q-.117.9-.215,2.083Zm19.378,6.84-.078.391a8.334,8.334,0,0,1-.078.957,11.618,11.618,0,0,1-.215,1.563,2.906,2.906,0,0,1-.41,1.006,5.52,5.52,0,0,1-.742.85A4.275,4.275,0,0,1,44.814.117a1.913,1.913,0,0,1-1.729-.859,5.269,5.269,0,0,1-.557-2.773,25.621,25.621,0,0,1,.342-3.76,35.466,35.466,0,0,1,.83-4.014l.156-.508a2.141,2.141,0,0,1,.117-.488A25.559,25.559,0,0,1,45.3-16.221a6.5,6.5,0,0,1,1.465-2.061,2.69,2.69,0,0,1,1.719-.605q1.387,0,1.68,1.68a4.231,4.231,0,0,0,.527-.547,5.625,5.625,0,0,1,.879-.908,1.206,1.206,0,0,1,.723-.225q1.68,0,1.68,3.32a15.643,15.643,0,0,1-.391,3.516A10.727,10.727,0,0,1,52.6-9.277Q52-8.2,51.416-8.2q-.645,0-.645-2.441a10.848,10.848,0,0,0-.146-2.021,2.774,2.774,0,0,0-.459-1.143,14.433,14.433,0,0,0-.762,5Q49.268-6.543,49.209-5.957ZM68.584-19.648q2.91,0,2.91.684,0,.781-1.309.84a6.556,6.556,0,0,0-2.949.9A8.457,8.457,0,0,0,64.8-15.039a10.886,10.886,0,0,0-1.66,3.125,11.248,11.248,0,0,0-.6,3.672,5.484,5.484,0,0,0,1,3.428,3.123,3.123,0,0,0,2.6,1.3,3.192,3.192,0,0,0,2.6-1.523,5.863,5.863,0,0,0,1.113-3.555,7.15,7.15,0,0,0-.693-3.115,6.554,6.554,0,0,0-2.021-2.451q-.566-.449-.566-.645,0-.273.8-.84a9.393,9.393,0,0,1,2.012-1.016,5.628,5.628,0,0,1,1.875-.41,3.277,3.277,0,0,1,1.67.459,4.492,4.492,0,0,1,1.4,1.309,6.451,6.451,0,0,1,.928,1.953A8.358,8.358,0,0,1,75.576-11,11.269,11.269,0,0,1,74.795-6.9a9.132,9.132,0,0,1-2.051,3.271,13.222,13.222,0,0,1-3.955,2.588,11.056,11.056,0,0,1-4.4,1.006,12.1,12.1,0,0,1-4.033-.7A8.441,8.441,0,0,1,57.178-2.6a6,6,0,0,1-1.562-4.434,10.2,10.2,0,0,1,1.113-4.531,14.784,14.784,0,0,1,3.018-4.111,15.2,15.2,0,0,1,4.2-2.91A10.929,10.929,0,0,1,68.584-19.648ZM91.26-9.512v.078l-.078-.078a1.016,1.016,0,0,1-.312.039,9.241,9.241,0,0,1-.937.039q-1,0-1-.371a.764.764,0,0,1,.254-.469,7.384,7.384,0,0,0,1.279-2.207,8.026,8.026,0,0,0,.6-2.48,2.748,2.748,0,0,1,.039-.488q.02-.078.029-.137a.614.614,0,0,0,.01-.1q0-.273-.371-.273-.762,0-2.344,1.641a14.9,14.9,0,0,0-1.875,2.5,14.512,14.512,0,0,0-1.367,2.891,8.216,8.216,0,0,0-.488,2.6q0,1.133.566,1.133.547,0,2.754-1.836Q89.014-7.891,91.26-9.512Zm-1,4.16-.527.391a2.028,2.028,0,0,1-.186.156q-.127.1-.322.254a45.811,45.811,0,0,1-5.3,3.711A7.124,7.124,0,0,1,80.576.234,3.164,3.164,0,0,1,78.027-.918,4.646,4.646,0,0,1,77.061-4a10.621,10.621,0,0,1,1.357-4.971A18.66,18.66,0,0,1,82-13.691a19.08,19.08,0,0,1,4.883-3.447,11.67,11.67,0,0,1,5.137-1.3,6.8,6.8,0,0,1,3.721.84,2.813,2.813,0,0,1,1.279,2.52A7.741,7.741,0,0,1,95.908-11.6a1.615,1.615,0,0,1,1.172.5,2.109,2.109,0,0,1,.371,1.377,20.382,20.382,0,0,1-.625,4.248A36.023,36.023,0,0,1,95.3-.449a14.9,14.9,0,0,1-3.125,5.059A13.952,13.952,0,0,1,88.35,7.393a9,9,0,0,1-3.926,1.162,3.337,3.337,0,0,1-2.441-1.094A3.429,3.429,0,0,1,80.908,5a4.428,4.428,0,0,1,.469-1.9,5.626,5.626,0,0,1,1.211-1.689,15.622,15.622,0,0,1,4.473-2.93A2.1,2.1,0,0,1,87.9-1.8a.3.3,0,0,1,.215.1.3.3,0,0,1,.1.215,1.4,1.4,0,0,1-.234.527,11.22,11.22,0,0,0-1.035,2.549,9.885,9.885,0,0,0-.449,2.686q0,1.328.41,1.328.215,0,.537-.479a6.284,6.284,0,0,0,.576-1.084A33.1,33.1,0,0,0,90.142-3.77Q90.2-4.3,90.264-5.352Zm15.586-.605-.078.391a8.333,8.333,0,0,1-.078.957,11.618,11.618,0,0,1-.215,1.563,2.906,2.906,0,0,1-.41,1.006,5.52,5.52,0,0,1-.742.85A4.275,4.275,0,0,1,101.455.117a1.913,1.913,0,0,1-1.729-.859,5.269,5.269,0,0,1-.557-2.773,25.62,25.62,0,0,1,.342-3.76,35.466,35.466,0,0,1,.83-4.014l.156-.508a2.141,2.141,0,0,1,.117-.488,25.559,25.559,0,0,1,1.328-3.936,6.5,6.5,0,0,1,1.465-2.061,2.69,2.69,0,0,1,1.719-.605q1.387,0,1.68,1.68a4.231,4.231,0,0,0,.527-.547,5.625,5.625,0,0,1,.879-.908,1.206,1.206,0,0,1,.723-.225q1.68,0,1.68,3.32a15.643,15.643,0,0,1-.391,3.516,10.727,10.727,0,0,1-.986,2.773q-.6,1.074-1.182,1.074-.645,0-.645-2.441a10.848,10.848,0,0,0-.146-2.021,2.774,2.774,0,0,0-.459-1.143,14.433,14.433,0,0,0-.762,5Q105.908-6.543,105.85-5.957Zm13.086-.117A5.845,5.845,0,0,0,120.3-7.285a9.429,9.429,0,0,0,1.6-2.91,12.122,12.122,0,0,0,.7-2.4,13.253,13.253,0,0,0,.254-2.48q0-1.074-.449-1.074-.625,0-1.914,2.754a23.9,23.9,0,0,0-1.24,3.311,10.456,10.456,0,0,0-.479,2.842A6.3,6.3,0,0,0,118.936-6.074Zm.039.625A1.356,1.356,0,0,0,120.5-4.277,7.169,7.169,0,0,0,124.307-6a4.5,4.5,0,0,1,1.836-1,2.05,2.05,0,0,1,1.094.313q.508.313.508.645a1.548,1.548,0,0,1-.566.918A20.4,20.4,0,0,1,124.795-3.1a20.639,20.639,0,0,1-2.6,1.641A14.516,14.516,0,0,1,119.7-.42a7.747,7.747,0,0,1-2.227.381,5.426,5.426,0,0,1-3.906-1.4A4.9,4.9,0,0,1,112.1-5.156a12.467,12.467,0,0,1,.771-4.014,18.1,18.1,0,0,1,2.08-4.189,14.063,14.063,0,0,1,3.789-3.809A9.682,9.682,0,0,1,124.053-19a3.677,3.677,0,0,1,2.881,1.162,4.6,4.6,0,0,1,1.045,3.193,7.585,7.585,0,0,1-.83,3.3,11.862,11.862,0,0,1-2.451,3.3,12.941,12.941,0,0,1-2.607,2.07,4.621,4.621,0,0,1-2.236.742A2.028,2.028,0,0,1,118.975-5.449ZM135.088.84a3,3,0,0,0,2.1-1.123,3.416,3.416,0,0,0,.947-2.314,1.745,1.745,0,0,0-.566-1.367,6.773,6.773,0,0,0-2.715-1.191q-3.105-.9-4.043-2.012a2.964,2.964,0,0,1-.879-2.148,7.617,7.617,0,0,1,1.631-4.492,12.949,12.949,0,0,1,4.17-3.682,10.3,10.3,0,0,1,5.117-1.436,4.889,4.889,0,0,1,2.344.586,4.728,4.728,0,0,1,1.738,1.553,3.711,3.711,0,0,1,.645,2.1,4.535,4.535,0,0,1-.7,2.3,6.645,6.645,0,0,1-1.768,1.982,3.439,3.439,0,0,1-2.021.791,1.842,1.842,0,0,1-.947-.234q-.4-.234-.4-.508a3.1,3.1,0,0,1,.156-.8,12.048,12.048,0,0,0,.43-2.93,4.068,4.068,0,0,0-.742-2.324,5.868,5.868,0,0,0-1.25,1.053,6.389,6.389,0,0,0-1.152,1.951,5.632,5.632,0,0,0-.449,2.107,1.791,1.791,0,0,0,.323,1.122,2.45,2.45,0,0,0,1.056.713,16.9,16.9,0,0,0,2.216.646,15.342,15.342,0,0,1,3.5,1.173,5.454,5.454,0,0,1,.722.566A2.927,2.927,0,0,1,145.283-5a5.21,5.21,0,0,1-.84,2.726,11.976,11.976,0,0,1-2.6,2.843,12.626,12.626,0,0,1-3.73,2.267,11.781,11.781,0,0,1-4.1.684,5.906,5.906,0,0,1-3.408-.859,2.705,2.705,0,0,1-1.24-2.344,3.551,3.551,0,0,1,.82-2.139,6.524,6.524,0,0,1,2.041-1.768,4.878,4.878,0,0,1,2.393-.684q.879,0,.879.391a1.6,1.6,0,0,1-.254.645,5.244,5.244,0,0,0-.762,2.52A2.438,2.438,0,0,0,135.088.84Zm17.93,0a3,3,0,0,0,2.1-1.123,3.416,3.416,0,0,0,.947-2.314,1.745,1.745,0,0,0-.566-1.367,6.773,6.773,0,0,0-2.715-1.191q-3.105-.9-4.043-2.012a2.964,2.964,0,0,1-.879-2.148,7.617,7.617,0,0,1,1.631-4.492,12.949,12.949,0,0,1,4.17-3.682,10.3,10.3,0,0,1,5.117-1.436,4.889,4.889,0,0,1,2.344.586,4.728,4.728,0,0,1,1.738,1.553,3.711,3.711,0,0,1,.645,2.1,4.535,4.535,0,0,1-.7,2.3,6.645,6.645,0,0,1-1.768,1.982,3.439,3.439,0,0,1-2.021.791,1.842,1.842,0,0,1-.947-.234q-.4-.234-.4-.508a3.1,3.1,0,0,1,.156-.8,12.048,12.048,0,0,0,.43-2.93,4.068,4.068,0,0,0-.742-2.324,5.868,5.868,0,0,0-1.25,1.053,6.389,6.389,0,0,0-1.152,1.951,5.632,5.632,0,0,0-.449,2.107,1.791,1.791,0,0,0,.323,1.122,2.45,2.45,0,0,0,1.056.713,16.9,16.9,0,0,0,2.216.646,15.342,15.342,0,0,1,3.5,1.173,5.454,5.454,0,0,1,.722.566A2.927,2.927,0,0,1,163.213-5a5.21,5.21,0,0,1-.84,2.726,11.976,11.976,0,0,1-2.6,2.843,12.626,12.626,0,0,1-3.73,2.267,11.781,11.781,0,0,1-4.1.684,5.906,5.906,0,0,1-3.408-.859,2.705,2.705,0,0,1-1.24-2.344,3.551,3.551,0,0,1,.82-2.139,6.524,6.524,0,0,1,2.041-1.768,4.878,4.878,0,0,1,2.393-.684q.879,0,.879.391a1.6,1.6,0,0,1-.254.645,5.244,5.244,0,0,0-.762,2.52A2.438,2.438,0,0,0,153.018.84Zm13.736-.8q-1.763,0-1.763-1.188a5.039,5.039,0,0,1,.2-1.13,7.455,7.455,0,0,1,.411-1.227,5.049,5.049,0,0,1,1.077-1.752,5.022,5.022,0,0,1,1.695-.9,6.2,6.2,0,0,1,1.988-.389q1.215,0,1.215,1.4a9.024,9.024,0,0,1-.764,3.233,2.168,2.168,0,0,1-.46.808,2.551,2.551,0,0,1-.872.5A7.977,7.977,0,0,1,166.753.039Z" transform="translate(960 662)" fill="#005fd5"/>
    <path id="Path_530" data-name="Path 530" d="M-269.01,0h2.76l-9.9-10.5,9.81-10.47h-2.67l-9.09,9.81v-9.81h-2.1V0h2.1V-9.69Zm12.84-14.82c3.03,0,5.79,1.92,5.7,5.73h-11.52C-261.75-12.9-259.14-14.82-256.17-14.82Zm7.59,9.63h-2.22c-.6,2.19-2.49,3.66-5.28,3.66a5.727,5.727,0,0,1-5.91-5.85h13.59a14.361,14.361,0,0,0,.06-1.65,7.364,7.364,0,0,0-7.74-7.59c-4.71,0-8.04,3.21-8.04,8.43,0,5.19,3.39,8.43,8.04,8.43C-251.97.24-249.33-2.1-248.58-5.19Zm11.07-9.63c3.03,0,5.79,1.92,5.7,5.73h-11.52C-243.09-12.9-240.48-14.82-237.51-14.82Zm7.59,9.63h-2.22c-.6,2.19-2.49,3.66-5.28,3.66a5.727,5.727,0,0,1-5.91-5.85h13.59a14.361,14.361,0,0,0,.06-1.65,7.364,7.364,0,0,0-7.74-7.59c-4.71,0-8.04,3.21-8.04,8.43,0,5.19,3.39,8.43,8.04,8.43C-233.31.24-230.67-2.1-229.92-5.19Zm6.15-7.59v-3.6h-2.07V7.74h2.07V-3.6A7,7,0,0,0-217.26.24c4.47,0,7.8-3.33,7.8-8.46s-3.33-8.4-7.8-8.4A6.948,6.948,0,0,0-223.77-12.78Zm12.18,4.56c0,4.14-2.64,6.63-6.09,6.63-3.33,0-6.09-2.52-6.09-6.6s2.76-6.6,6.09-6.6C-214.23-14.79-211.59-12.39-211.59-8.22ZM-173.43,0h2.07V-9.6c0-4.8-2.88-7.08-6.51-7.08a5.967,5.967,0,0,0-5.91,4.02,6.053,6.053,0,0,0-6.06-4.02,5.85,5.85,0,0,0-5.43,3.12v-2.82h-2.1V0h2.1V-8.88c0-3.99,2.07-5.97,5.07-5.97,2.91,0,4.83,1.86,4.83,5.49V0h2.07V-8.88c0-3.99,2.1-5.97,5.07-5.97,2.91,0,4.8,1.86,4.8,5.49Zm22.14-8.19c0-5.22-3.57-8.43-8.19-8.43-4.59,0-8.19,3.21-8.19,8.43,0,5.19,3.51,8.43,8.13,8.43A7.986,7.986,0,0,0-151.29-8.19Zm-14.25,0c0-4.5,2.91-6.6,6.03-6.6s6.06,2.1,6.06,6.6-3,6.6-6.09,6.6C-162.66-1.59-165.54-3.69-165.54-8.19Zm16.14-8.19L-142.83,0h2.37l6.57-16.38h-2.22l-5.52,14.34-5.52-14.34ZM-131.04,0h2.1V-16.38h-2.1Zm1.05-19.47a1.524,1.524,0,0,0,1.53-1.56,1.5,1.5,0,0,0-1.53-1.53,1.5,1.5,0,0,0-1.53,1.53A1.524,1.524,0,0,0-129.99-19.47ZM-111.9,0h2.07V-9.6c0-4.8-2.94-7.08-6.66-7.08a5.985,5.985,0,0,0-5.58,3.09v-2.79h-2.1V0h2.1V-8.94c0-3.99,2.13-5.91,5.19-5.91,3,0,4.98,1.86,4.98,5.49Zm5.76-8.22c0,5.13,3.33,8.46,7.83,8.46a6.906,6.906,0,0,0,6.48-3.87V.42c0,3.72-2.43,5.79-5.55,5.79-3,0-5.07-1.53-5.76-3.75h-2.07c.66,3.42,3.6,5.58,7.83,5.58A7.251,7.251,0,0,0-89.73.42v-16.8h-2.1v3.57a6.88,6.88,0,0,0-6.48-3.81C-102.81-16.62-106.14-13.35-106.14-8.22Zm14.31.03c0,4.08-2.73,6.6-6.09,6.6-3.45,0-6.09-2.49-6.09-6.63,0-4.17,2.64-6.57,6.09-6.57C-94.56-14.79-91.83-12.27-91.83-8.19Zm15.72,3.75c0,3.27,1.53,4.44,4.38,4.44h2.25V-1.8H-71.4c-1.89,0-2.58-.63-2.58-2.64V-14.61h4.5v-1.77h-4.5v-4.11h-2.13v4.11h-2.28v1.77h2.28Zm9.12-3.78c0,5.13,3.33,8.46,7.8,8.46a6.92,6.92,0,0,0,6.51-3.87V0h2.1V-16.38h-2.1v3.6a6.837,6.837,0,0,0-6.48-3.84C-63.66-16.62-66.99-13.35-66.99-8.22Zm14.31.03c0,4.08-2.73,6.6-6.09,6.6-3.45,0-6.09-2.49-6.09-6.63,0-4.17,2.64-6.57,6.09-6.57C-55.41-14.79-52.68-12.27-52.68-8.19Zm18.24,3.84c-.09-5.79-9.78-3.42-9.78-7.86,0-1.44,1.38-2.61,3.57-2.61,2.49,0,3.84,1.38,3.96,3.21h2.1c-.18-3.15-2.49-5.01-6-5.01-3.45,0-5.76,2.01-5.76,4.44,0,6.15,9.84,3.78,9.84,7.83,0,1.56-1.32,2.82-3.66,2.82-2.67,0-4.23-1.29-4.41-3.09h-2.16c.27,3,2.88,4.86,6.6,4.86C-36.75.24-34.44-1.71-34.44-4.35ZM-30.48,0h2.1V-7.35L-21.63,0h2.85l-7.83-8.22,7.77-8.16h-2.94l-6.6,7.32V-22.2h-2.1ZM-4.74-4.35c-.09-5.79-9.78-3.42-9.78-7.86,0-1.44,1.38-2.61,3.57-2.61,2.49,0,3.84,1.38,3.96,3.21h2.1c-.18-3.15-2.49-5.01-6-5.01-3.45,0-5.76,2.01-5.76,4.44,0,6.15,9.84,3.78,9.84,7.83,0,1.56-1.32,2.82-3.66,2.82-2.67,0-4.23-1.29-4.41-3.09h-2.16c.27,3,2.88,4.86,6.6,4.86C-7.05.24-4.74-1.71-4.74-4.35ZM7.98,0h2.1V-14.61h3.81v-1.77H10.08v-1.14c0-2.37.9-3.39,3.69-3.39v-1.8c-4.14,0-5.79,1.68-5.79,5.19v1.14H5.7v1.77H7.98ZM19.29-9.15c0-4.11,2.31-5.34,5.04-5.34h.57v-2.19c-2.82,0-4.71,1.2-5.61,3.21v-2.91h-2.1V0h2.1Zm24.18.96c0-5.22-3.57-8.43-8.19-8.43-4.59,0-8.19,3.21-8.19,8.43C27.09-3,30.6.24,35.22.24A7.986,7.986,0,0,0,43.47-8.19Zm-14.25,0c0-4.5,2.91-6.6,6.03-6.6s6.06,2.1,6.06,6.6-3,6.6-6.09,6.6C32.1-1.59,29.22-3.69,29.22-8.19ZM71.25,0h2.07V-9.6c0-4.8-2.88-7.08-6.51-7.08a5.967,5.967,0,0,0-5.91,4.02,6.053,6.053,0,0,0-6.06-4.02,5.85,5.85,0,0,0-5.43,3.12v-2.82h-2.1V0h2.1V-8.88c0-3.99,2.07-5.97,5.07-5.97,2.91,0,4.83,1.86,4.83,5.49V0h2.07V-8.88c0-3.99,2.1-5.97,5.07-5.97,2.91,0,4.8,1.86,4.8,5.49ZM92.13-2.4,86.55-16.38H84.24L90.96-.09l-3.18,7.8h2.19l9.72-24.09H97.53Zm25.83-5.79c0-5.22-3.57-8.43-8.19-8.43-4.59,0-8.19,3.21-8.19,8.43,0,5.19,3.51,8.43,8.13,8.43A7.986,7.986,0,0,0,117.96-8.19Zm-14.25,0c0-4.5,2.91-6.6,6.03-6.6s6.06,2.1,6.06,6.6-3,6.6-6.09,6.6C106.59-1.59,103.71-3.69,103.71-8.19Zm32.28-8.19h-2.1v8.91c0,3.99-2.13,5.91-5.19,5.91-3,0-4.98-1.86-4.98-5.49v-9.33h-2.07v9.57c0,4.8,2.94,7.08,6.66,7.08a5.919,5.919,0,0,0,5.58-3.15V0h2.1Zm6.9,7.23c0-4.11,2.31-5.34,5.04-5.34h.57v-2.19c-2.82,0-4.71,1.2-5.61,3.21v-2.91h-2.1V0h2.1Zm19.05-3.6V-22.2h-2.07V0h2.07V-3.6A6.883,6.883,0,0,0,168.45.24c4.47,0,7.8-3.33,7.8-8.46s-3.3-8.4-7.8-8.4A6.951,6.951,0,0,0,161.94-12.75Zm12.18,4.53c0,4.14-2.64,6.63-6.09,6.63-3.33,0-6.09-2.52-6.09-6.6s2.76-6.6,6.09-6.6C171.48-14.79,174.12-12.39,174.12-8.22Zm5.04,0c0,5.13,3.33,8.46,7.8,8.46a6.92,6.92,0,0,0,6.51-3.87V0h2.1V-16.38h-2.1v3.6a6.837,6.837,0,0,0-6.48-3.84C182.49-16.62,179.16-13.35,179.16-8.22Zm14.31.03c0,4.08-2.73,6.6-6.09,6.6-3.45,0-6.09-2.49-6.09-6.63,0-4.17,2.64-6.57,6.09-6.57C190.74-14.79,193.47-12.27,193.47-8.19Zm5.94,0c0,5.19,3.33,8.43,7.95,8.43,4.11,0,6.78-2.31,7.53-5.58h-2.25c-.57,2.4-2.52,3.81-5.28,3.81-3.21,0-5.82-2.22-5.82-6.66s2.61-6.63,5.82-6.63c2.76,0,4.74,1.44,5.28,3.78h2.25c-.75-3.39-3.42-5.58-7.53-5.58C202.74-16.62,199.41-13.38,199.41-8.19ZM218.76,0h2.1V-7.35L227.61,0h2.85l-7.83-8.22,7.77-8.16h-2.94l-6.6,7.32V-22.2h-2.1Zm14.4,0h2.1V-22.2h-2.1Zm22.29-8.19c0-5.22-3.57-8.43-8.19-8.43-4.59,0-8.19,3.21-8.19,8.43,0,5.19,3.51,8.43,8.13,8.43A7.986,7.986,0,0,0,255.45-8.19Zm-14.25,0c0-4.5,2.91-6.6,6.03-6.6s6.06,2.1,6.06,6.6-3,6.6-6.09,6.6C244.08-1.59,241.2-3.69,241.2-8.19Zm17.13-.03c0,5.13,3.33,8.46,7.83,8.46a6.906,6.906,0,0,0,6.48-3.87V.42c0,3.72-2.43,5.79-5.55,5.79-3,0-5.07-1.53-5.76-3.75h-2.07c.66,3.42,3.6,5.58,7.83,5.58A7.251,7.251,0,0,0,274.74.42v-16.8h-2.1v3.57a6.88,6.88,0,0,0-6.48-3.81C261.66-16.62,258.33-13.35,258.33-8.22Zm14.31.03c0,4.08-2.73,6.6-6.09,6.6-3.45,0-6.09-2.49-6.09-6.63,0-4.17,2.64-6.57,6.09-6.57C269.91-14.79,272.64-12.27,272.64-8.19Zm8.76,6.78a1.492,1.492,0,0,0-1.5-1.53,1.5,1.5,0,0,0-1.53,1.53A1.524,1.524,0,0,0,279.9.15,1.518,1.518,0,0,0,281.4-1.41Z" transform="translate(960 752)" fill="#65617d"/>
    <g id="undraw_organizing_projects1_47ja" transform="translate(656.818 186.072)">
      <path id="Path_503" data-name="Path 503" d="M528.256,475.392c-4.715-17.107-30.886-29.718-51.307-32.976V434.2l1.126-.436a18.158,18.158,0,0,0-.978-4.813,49.563,49.563,0,0,0,21.716-17.206,55.846,55.846,0,0,0-11.027-86.063,10.957,10.957,0,0,0-4.926-20.2,21.386,21.386,0,0,0-33.292-24.848,21.379,21.379,0,0,1,31.421,18.88v.556a21.386,21.386,0,1,0-41.448,8,10.689,10.689,0,0,0-7.065,15.707,55.846,55.846,0,0,0-13.652,88.794,49.576,49.576,0,0,0,20.14,15.96v13.7c-20.64,2.949-47.817,15.791-52.56,33.321-4.138,15.278-8.557,32.054-10.753,41.906,18.838,13.237,58.366,21.013,83.143,21.013,23.539,0,62.011-7.037,80.293-19.07C537.13,508.579,532.577,491.064,528.256,475.392ZM490.523,317.353v.577A10.7,10.7,0,0,0,481.643,308q.31-.528.591-1.07a10.7,10.7,0,0,1,8.29,10.422Z" transform="translate(-229.933 -196.407)" fill="url(#linear-gradient)"/>
      <path id="Path_504" data-name="Path 504" d="M459.772,604.141c22.871,0,60.244-6.819,78.006-18.529-1.921-10.513-6.333-27.529-10.556-42.757-5.341-19.394-39.063-32.835-59.182-32.835H448.667c-20.175,0-53.946,13.525-59.224,33-4.018,14.841-8.332,31.146-10.443,40.717C397.3,596.562,435.7,604.141,459.772,604.141Z" transform="translate(-230.926 -265.819)" fill="#005fd5"/>
      <circle id="Ellipse_63" data-name="Ellipse 63" cx="54.249" cy="54.249" r="54.249" transform="translate(174.231 123.501)" fill="#f55f44"/>
      <path id="Path_505" data-name="Path 505" d="M302.069,306.18h28.381a4.222,4.222,0,0,1,4.222,4.222v29.021a17.438,17.438,0,0,1-17.438,17.438h-2.006a17.438,17.438,0,0,1-17.438-17.438V310.43a4.222,4.222,0,0,1,4.222-4.222Z" transform="translate(-88.233 -90.719)" fill="#fda57d"/>
      <path id="Path_506" data-name="Path 506" d="M487.056,495.7a47.852,47.852,0,0,0,17.832-3.434A17.67,17.67,0,0,0,487.3,475.74h-1.513a17.677,17.677,0,0,0-17.593,16.087,47.852,47.852,0,0,0,18.866,3.87Z" transform="translate(-257.352 -255.662)" opacity="0.05"/>
      <circle id="Ellipse_64" data-name="Ellipse 64" cx="47.993" cy="47.993" r="47.993" transform="translate(180.586 139.433)" fill="#fda57d"/>
      <circle id="Ellipse_65" data-name="Ellipse 65" cx="10.387" cy="10.387" r="10.387" transform="translate(201.936 114.268)" fill="#f55f44"/>
      <circle id="Ellipse_66" data-name="Ellipse 66" cx="10.387" cy="10.387" r="10.387" transform="translate(238.867 114.268)" fill="#f55f44"/>
      <circle id="Ellipse_67" data-name="Ellipse 67" cx="20.773" cy="20.773" r="20.773" transform="translate(208.86 86.57)" fill="#f55f44"/>
      <path id="Path_507" data-name="Path 507" d="M523.619,322.1a10.338,10.338,0,0,0-5.8,1.766,10.387,10.387,0,0,1,9.275,18.395,10.38,10.38,0,0,0-3.519-20.161Z" transform="translate(-272.057 -210.14)" fill="#f55f44"/>
      <path id="Path_508" data-name="Path 508" d="M494.244,281.09A20.689,20.689,0,0,0,481,285.833a20.773,20.773,0,0,1,22.962,34.376,20.773,20.773,0,0,0-9.753-39.119Z" transform="translate(-261.148 -197.989)" fill="#f55f44"/>
      <path id="Path_509" data-name="Path 509" d="M444.05,362.166s5.77,38.092,78.492,17.311L486.758,348.31Z" transform="translate(-250.2 -217.906)" fill="#f55f44"/>
      <g id="Group_19" data-name="Group 19" transform="translate(29.932 284.191)" opacity="0.7">
        <path id="Path_510" data-name="Path 510" d="M267.577,603.857a11.027,11.027,0,0,0-4.37-11.7,32.58,32.58,0,0,1-2.927-1.893,10.647,10.647,0,0,1-2.934-4.926c-1.471-4.405-1.928-9.352-4.5-13.335-2.343-3.624-6.9-4.687-10.95-5.046a8.691,8.691,0,0,0-4.37.408c-2.252,1.02-3.329,3.68-3.434,6.157s.542,4.926.7,7.382-.281,5.186-2.111,6.861-4.433,1.872-6.847,2.21a45.342,45.342,0,0,0-9.268,2.308c-2.519.915-5.327,2.576-5.447,5.257-.1,2.189,1.668,3.941,3,5.679a14.532,14.532,0,0,1,2.878,11.583c-.859,4.081-3.723,7.579-4.222,11.717a5.088,5.088,0,0,0,.373,3.061,5.63,5.63,0,0,0,1.569,1.661c1.555,1.2,3.293,2.167,4.771,3.476,3.075,2.723,4.736,6.671,6.017,10.556.127.373.232.753.352,1.133h-3.019a11.2,11.2,0,0,0-11.175,11.175h0a11.2,11.2,0,0,0,11.175,11.175H253a11.2,11.2,0,0,0,11.175-11.175h0a11.2,11.2,0,0,0-11.154-11.112h-8.269c1.956-2.618,4-5.081,7.037-6.087s6.671-.415,9.036-2.519a7.086,7.086,0,0,0,2.048-4.06,12.1,12.1,0,0,0-1.323-8.036c-.95-1.7-2.343-3.237-2.646-5.158a7.65,7.65,0,0,1,1.14-4.764C262.306,611.655,266.345,608.439,267.577,603.857Z" transform="translate(-211.114 -566.848)" fill="url(#linear-gradient-2)"/>
      </g>
      <path id="Path_511" data-name="Path 511" d="M242.356,570.424a8.277,8.277,0,0,0-4.159.387c-2.146.971-3.167,3.519-3.265,5.862s.514,4.68.7,7.037-.267,4.926-2,6.53-4.222,1.78-6.523,2.111a43.168,43.168,0,0,0-8.839,2.2c-2.4.873-5.074,2.449-5.186,5-.091,2.111,1.59,3.751,2.857,5.411a13.842,13.842,0,0,1,2.744,11.013c-.816,3.884-3.519,7.22-4.039,11.161a4.842,4.842,0,0,0,.394,2.948,5.39,5.39,0,0,0,1.492,1.583c1.485,1.147,3.139,2.069,4.539,3.307,2.927,2.59,4.511,6.333,5.735,10.07a81.539,81.539,0,0,1,2.815,11.168c2.519-1.618,5.777-1.6,8.445-2.92,5.728-2.815,7.656-10.943,13.7-12.969,2.864-.957,6.333-.394,8.606-2.4a6.748,6.748,0,0,0,1.956-3.87,11.527,11.527,0,0,0-1.274-7.663c-.908-1.619-2.231-3.082-2.519-4.926a7.283,7.283,0,0,1,1.084-4.539c2.174-3.955,6.017-7.037,7.192-11.379a10.506,10.506,0,0,0-4.166-11.133,31.026,31.026,0,0,1-2.815-1.8,10.141,10.141,0,0,1-2.815-4.687c-1.407-4.222-1.837-8.9-4.293-12.667C250.554,571.775,246.212,570.8,242.356,570.424Z" transform="translate(-181.766 -283.684)" fill="#4db6ac"/>
      <path id="Path_512" data-name="Path 512" d="M251.038,570.67s5.32,71.307-8.508,83.516" transform="translate(-190.491 -283.789)" fill="none" stroke="#535461" stroke-miterlimit="10" stroke-width="1" opacity="0.6"/>
      <rect id="Rectangle_54" data-name="Rectangle 54" width="49.998" height="21.28" rx="10.64" transform="translate(31.829 362.417)" fill="#005fd5"/>
      <path id="Path_513" data-name="Path 513" d="M213,609.962s13.6-1.59,30.2,8.515" transform="translate(-181.741 -295.404)" fill="none" stroke="#535461" stroke-miterlimit="10" stroke-width="1" opacity="0.6"/>
      <path id="Path_514" data-name="Path 514" d="M255.6,627.9A35.136,35.136,0,0,1,279.378,613" transform="translate(-194.363 -296.331)" fill="none" stroke="#535461" stroke-miterlimit="10" stroke-width="1" opacity="0.6"/>
      <path id="Path_515" data-name="Path 515" d="M214.94,650.779s18.852-3.195,27.515,2.111" transform="translate(-182.316 -307.242)" fill="none" stroke="#535461" stroke-miterlimit="10" stroke-width="1" opacity="0.6"/>
      <path id="Path_516" data-name="Path 516" d="M252.51,663.637a31.5,31.5,0,0,1,20.97-.837" transform="translate(-193.448 -310.665)" fill="none" stroke="#535461" stroke-miterlimit="10" stroke-width="1" opacity="0.6"/>
      <g id="Group_20" data-name="Group 20" transform="translate(380.467 341.158)" opacity="0.7">
        <path id="Path_517" data-name="Path 517" d="M747.571,655.47V647.8H709.24v35.46a7.473,7.473,0,0,0,7.473,7.473H740.1a7.473,7.473,0,0,0,7.473-7.473v-7.874a9.968,9.968,0,0,0,0-19.936Zm0,16.1V659.3a6.136,6.136,0,1,1,0,12.266Z" transform="translate(-709.24 -647.8)" fill="url(#linear-gradient-3)"/>
      </g>
      <path id="Path_518" data-name="Path 518" d="M758.169,660.4a9.1,9.1,0,1,0,9.1,9.1,9.1,9.1,0,0,0-9.1-9.1Zm0,14.7a5.63,5.63,0,1,1,5.63-5.63A5.63,5.63,0,0,1,758.169,675.1Z" transform="translate(-340.575 -310.376)" fill="#005fd5"/>
      <path id="Path_519" data-name="Path 519" d="M758.169,660.4a9.1,9.1,0,1,0,9.1,9.1,9.1,9.1,0,0,0-9.1-9.1Zm0,14.7a5.63,5.63,0,1,1,5.63-5.63A5.63,5.63,0,0,1,758.169,675.1Z" transform="translate(-340.575 -310.376)" opacity="0.1"/>
      <path id="Path_520" data-name="Path 520" d="M543.64,487.45h35v32.371a6.861,6.861,0,0,1-6.861,6.861H550.5a6.861,6.861,0,0,1-6.861-6.861Z" transform="translate(-161.076 -144.428)" fill="#005fd5"/>
      <rect id="Rectangle_55" data-name="Rectangle 55" width="454.321" height="15.397" transform="translate(0 382.226)" fill="#e0e0e0"/>
      <g id="Group_21" data-name="Group 21" transform="translate(130.552 270.97)" opacity="0.7">
        <rect id="Rectangle_56" data-name="Rectangle 56" width="193.21" height="111.256" rx="14.5" fill="url(#linear-gradient-3)"/>
      </g>
      <rect id="Rectangle_57" data-name="Rectangle 57" width="186.208" height="109.201" rx="26.84" transform="translate(134.056 273.025)" fill="#535461"/>
      <circle id="Ellipse_68" data-name="Ellipse 68" cx="6.298" cy="6.298" r="6.298" transform="translate(220.859 321.327)" fill="#fff"/>
      <rect id="Rectangle_58" data-name="Rectangle 58" width="415.814" height="6.298" transform="translate(19.253 397.63)" fill="#e0e0e0"/>
      <rect id="Rectangle_59" data-name="Rectangle 59" width="415.814" height="2.097" transform="translate(19.253 397.63)" opacity="0.1"/>
      <path id="Path_521" data-name="Path 521" d="M750.126,650.45v32.371a6.826,6.826,0,0,1-6.826,6.826h3.519a6.826,6.826,0,0,0,6.826-6.826V650.45Z" transform="translate(-338.865 -307.428)" opacity="0.1"/>
      <path id="Path_522" data-name="Path 522" d="M721.293,612.982a2.041,2.041,0,0,0-1.548.788c-.457.83.373,1.773,1.133,2.343a15.345,15.345,0,0,1,3.835,3.568,4.435,4.435,0,0,1,.211,4.926c-1.358,1.844-4.609,2.245-4.926,4.511-.2,1.457,1.056,2.7,2.336,3.434,3.153,1.808,7.22,2.287,9.5,5.116A7.254,7.254,0,0,1,737,634.149c2.1-.45,4.293-.443,6.432-.767a2.224,2.224,0,0,0,1.787-.957c.6-1.21-1.1-2.667-.514-3.877.45-.929,1.759-.852,2.716-1.224a3.534,3.534,0,0,0,1.759-4.222,7.983,7.983,0,0,0-3.012-3.913c-3.519-2.815-7.811-4.426-12.125-5.63a31.133,31.133,0,0,0-6.446-1.492A31.689,31.689,0,0,0,721.293,612.982Z" transform="translate(-331.847 -296.053)" fill="#eee"/>
      <rect id="Rectangle_60" data-name="Rectangle 60" width="305.747" height="209.473" transform="translate(301.447)" fill="#535461" opacity="0.1"/>
      <g id="Group_22" data-name="Group 22" transform="translate(329.321 20.633)" opacity="0.5">
        <rect id="Rectangle_61" data-name="Rectangle 61" width="71.975" height="66.402" rx="4.5" fill="url(#linear-gradient-3)"/>
      </g>
      <rect id="Rectangle_62" data-name="Rectangle 62" width="70.314" height="64.79" rx="4.5" transform="translate(330.201 21.146)" fill="#f5f5f5"/>
      <rect id="Rectangle_63" data-name="Rectangle 63" width="11.857" height="10.675" rx="4.5" transform="translate(335.619 31.815)" fill="#005fd5"/>
      <rect id="Rectangle_64" data-name="Rectangle 64" width="47.141" height="1.189" rx="0.595" transform="translate(351.038 31.815)" fill="#e0e0e0"/>
      <rect id="Rectangle_65" data-name="Rectangle 65" width="47.141" height="1.189" rx="0.595" transform="translate(351.038 35.375)" fill="#e0e0e0"/>
      <rect id="Rectangle_66" data-name="Rectangle 66" width="63.742" height="1.189" rx="0.595" transform="translate(334.437 48.288)" fill="#e0e0e0"/>
      <rect id="Rectangle_67" data-name="Rectangle 67" width="63.742" height="1.189" rx="0.595" transform="translate(334.437 51.842)" fill="#e0e0e0"/>
      <rect id="Rectangle_68" data-name="Rectangle 68" width="63.742" height="1.189" rx="0.595" transform="translate(334.437 56.585)" fill="#e0e0e0"/>
      <rect id="Rectangle_69" data-name="Rectangle 69" width="36.762" height="1.189" rx="0.595" transform="translate(334.437 60.146)" fill="#e0e0e0"/>
      <rect id="Rectangle_70" data-name="Rectangle 70" width="63.742" height="1.189" rx="0.595" transform="translate(334.437 64.875)" fill="#e0e0e0"/>
      <rect id="Rectangle_71" data-name="Rectangle 71" width="63.742" height="1.189" rx="0.595" transform="translate(334.437 68.436)" fill="#e0e0e0"/>
      <rect id="Rectangle_72" data-name="Rectangle 72" width="63.742" height="1.189" rx="0.595" transform="translate(334.437 73.179)" fill="#e0e0e0"/>
      <rect id="Rectangle_73" data-name="Rectangle 73" width="36.762" height="1.189" rx="0.595" transform="translate(334.437 76.732)" fill="#e0e0e0"/>
      <g id="Group_23" data-name="Group 23" transform="translate(340.186 35.974)" opacity="0.5">
        <rect id="Rectangle_74" data-name="Rectangle 74" width="71.975" height="66.402" rx="4.5" fill="url(#linear-gradient-3)"/>
      </g>
      <rect id="Rectangle_75" data-name="Rectangle 75" width="70.314" height="64.79" rx="4.5" transform="translate(341.066 36.487)" fill="#fff"/>
      <rect id="Rectangle_76" data-name="Rectangle 76" width="11.857" height="10.675" rx="4.5" transform="translate(346.485 47.162)" fill="#005fd5"/>
      <rect id="Rectangle_77" data-name="Rectangle 77" width="47.141" height="1.189" rx="0.595" transform="translate(361.896 47.162)" fill="#e0e0e0"/>
      <rect id="Rectangle_78" data-name="Rectangle 78" width="47.141" height="1.189" rx="0.595" transform="translate(361.896 50.716)" fill="#e0e0e0"/>
      <rect id="Rectangle_79" data-name="Rectangle 79" width="63.742" height="1.189" rx="0.595" transform="translate(345.295 63.629)" fill="#e0e0e0"/>
      <rect id="Rectangle_80" data-name="Rectangle 80" width="63.742" height="1.189" rx="0.595" transform="translate(345.295 67.19)" fill="#e0e0e0"/>
      <rect id="Rectangle_81" data-name="Rectangle 81" width="63.742" height="1.189" rx="0.595" transform="translate(345.295 71.933)" fill="#e0e0e0"/>
      <rect id="Rectangle_82" data-name="Rectangle 82" width="36.762" height="1.189" rx="0.595" transform="translate(345.295 75.487)" fill="#e0e0e0"/>
      <rect id="Rectangle_83" data-name="Rectangle 83" width="63.742" height="1.189" rx="0.595" transform="translate(345.295 80.223)" fill="#e0e0e0"/>
      <rect id="Rectangle_84" data-name="Rectangle 84" width="63.742" height="1.189" rx="0.595" transform="translate(345.295 83.776)" fill="#e0e0e0"/>
      <rect id="Rectangle_85" data-name="Rectangle 85" width="63.742" height="1.189" rx="0.595" transform="translate(345.295 88.519)" fill="#e0e0e0"/>
      <rect id="Rectangle_86" data-name="Rectangle 86" width="36.762" height="1.189" rx="0.595" transform="translate(345.295 92.08)" fill="#e0e0e0"/>
      <rect id="Rectangle_87" data-name="Rectangle 87" width="39.64" height="38.085" transform="translate(441.9 46.022)" fill="url(#linear-gradient-7)"/>
      <rect id="Rectangle_88" data-name="Rectangle 88" width="38.394" height="36.375" transform="translate(442.527 46.951)" fill="#f5f5f5"/>
      <g id="Group_24" data-name="Group 24" transform="translate(453.568 51.462)" opacity="0.5">
        <path id="Path_523" data-name="Path 523" d="M824.668,237.995V236.13h-6.791v1.865H813.12v9.148h16.3v-9.148Zm-5.946-1.189h5.095v1.189h-5.095Z" transform="translate(-813.12 -236.13)" fill="url(#linear-gradient-8)"/>
      </g>
      <rect id="Rectangle_89" data-name="Rectangle 89" width="14.926" height="8.395" transform="translate(454.265 53.637)" fill="#005fd5" opacity="0.6"/>
      <path id="Path_524" data-name="Path 524" d="M651.71,73.79v2.174h.781V74.409h4.659v1.555h.781V73.79Z" transform="translate(-193.097 -21.863)" fill="#005fd5" opacity="0.6"/>
      <g id="Group_25" data-name="Group 25" transform="translate(455.116 68.562)" opacity="0.6">
        <rect id="Rectangle_90" data-name="Rectangle 90" width="13.835" height="1.865" fill="#005fd5"/>
      </g>
      <rect id="Rectangle_91" data-name="Rectangle 91" width="23.631" height="1.865" transform="translate(449.909 71.982)" fill="#bdbdbd"/>
      <g id="Group_26" data-name="Group 26" transform="translate(499.703 12.695)" opacity="0.5">
        <rect id="Rectangle_92" data-name="Rectangle 92" width="86.443" height="101.559" fill="url(#linear-gradient-9)"/>
      </g>
      <rect id="Rectangle_93" data-name="Rectangle 93" width="81.947" height="97.682" transform="translate(502.356 14.327)" fill="#fff"/>
      <g id="Group_27" data-name="Group 27" transform="translate(532.615 27.409)" opacity="0.5">
        <path id="Path_525" data-name="Path 525" d="M940.615,204.406V201.95H931.7v2.456H925.45V216.46h21.428V204.406Zm-7.811-1.562h6.7v1.562h-6.7Z" transform="translate(-925.45 -201.95)" fill="url(#linear-gradient-10)"/>
      </g>
      <rect id="Rectangle_94" data-name="Rectangle 94" width="19.619" height="11.034" transform="translate(533.523 30.266)" fill="#005fd5"/>
      <path id="Path_526" data-name="Path 526" d="M766.29,39.82v2.857h1.02V40.636h6.129v2.041h1.02V39.82Z" transform="translate(-227.046 -11.798)" fill="#005fd5"/>
      <rect id="Rectangle_95" data-name="Rectangle 95" width="57.627" height="2.449" transform="translate(514.615 57.183)" fill="#e0e0e0"/>
      <rect id="Rectangle_96" data-name="Rectangle 96" width="57.627" height="2.449" transform="translate(514.615 73.326)" fill="#e0e0e0"/>
      <rect id="Rectangle_97" data-name="Rectangle 97" width="57.627" height="2.449" transform="translate(514.615 77.619)" fill="#e0e0e0"/>
      <rect id="Rectangle_98" data-name="Rectangle 98" width="24.32" height="2.449" transform="translate(514.615 69.041)" fill="#e0e0e0"/>
      <rect id="Rectangle_99" data-name="Rectangle 99" width="18.184" height="2.449" transform="translate(554.057 69.041)" fill="#3ad29f" opacity="0.6"/>
      <rect id="Rectangle_100" data-name="Rectangle 100" width="18.184" height="2.449" transform="translate(534.846 87.633)" fill="#005fd5"/>
      <g id="Group_28" data-name="Group 28" transform="translate(449.268 142.825)" opacity="0.5">
        <rect id="Rectangle_101" data-name="Rectangle 101" width="51.364" height="42.187" fill="url(#linear-gradient-11)"/>
      </g>
      <rect id="Rectangle_102" data-name="Rectangle 102" width="50.062" height="40.688" transform="translate(449.866 143.62)" fill="#f2f2f2"/>
      <rect id="Rectangle_103" data-name="Rectangle 103" width="50.062" height="9.078" transform="translate(449.866 143.62)" fill="#005fd5"/>
      <rect id="Rectangle_104" data-name="Rectangle 104" width="50.062" height="9.078" transform="translate(449.866 143.62)" opacity="0.1"/>
      <rect id="Rectangle_105" data-name="Rectangle 105" width="42.089" height="5.285" transform="translate(453.856 155.984)" fill="#e0e0e0"/>
      <rect id="Rectangle_106" data-name="Rectangle 106" width="30.717" height="1.794" transform="translate(453.856 165.259)" fill="#e0e0e0"/>
      <rect id="Rectangle_107" data-name="Rectangle 107" width="19.943" height="1.794" transform="translate(453.856 168.355)" fill="#e0e0e0"/>
      <rect id="Rectangle_108" data-name="Rectangle 108" width="26.326" height="1.794" transform="translate(453.856 171.444)" fill="#e0e0e0"/>
      <rect id="Rectangle_109" data-name="Rectangle 109" width="30.717" height="1.794" transform="translate(453.856 174.534)" fill="#e0e0e0"/>
      <rect id="Rectangle_110" data-name="Rectangle 110" width="10.274" height="1.794" transform="translate(453.856 177.63)" fill="#e0e0e0"/>
      <g id="Group_29" data-name="Group 29" transform="translate(417.109 127.35)" opacity="0.5">
        <rect id="Rectangle_111" data-name="Rectangle 111" width="63.657" height="52.285" fill="url(#linear-gradient-3)"/>
      </g>
      <rect id="Rectangle_112" data-name="Rectangle 112" width="62.053" height="50.435" transform="translate(417.848 128.335)" fill="#fff"/>
      <rect id="Rectangle_113" data-name="Rectangle 113" width="62.053" height="11.245" transform="translate(417.848 128.335)" fill="#005fd5"/>
      <rect id="Rectangle_114" data-name="Rectangle 114" width="52.166" height="6.552" transform="translate(422.795 143.669)" fill="#f5f5f5"/>
      <rect id="Rectangle_115" data-name="Rectangle 115" width="38.071" height="2.224" transform="translate(422.795 155.161)" fill="#e0e0e0"/>
      <rect id="Rectangle_116" data-name="Rectangle 116" width="24.721" height="2.224" transform="translate(422.795 158.996)" fill="#e0e0e0"/>
      <rect id="Rectangle_117" data-name="Rectangle 117" width="32.631" height="2.224" transform="translate(422.795 162.824)" fill="#e0e0e0"/>
      <rect id="Rectangle_118" data-name="Rectangle 118" width="38.071" height="2.224" transform="translate(422.795 166.659)" fill="#e0e0e0"/>
      <rect id="Rectangle_119" data-name="Rectangle 119" width="12.73" height="2.224" transform="translate(422.795 170.487)" fill="#e0e0e0"/>
      <rect id="Rectangle_120" data-name="Rectangle 120" width="14.834" height="1.977" transform="translate(425.511 145.893)" fill="#69f0ae"/>
      <circle id="Ellipse_69" data-name="Ellipse 69" cx="8.592" cy="8.592" r="8.592" transform="translate(321.707 249.014)" fill="#535461" opacity="0.1"/>
      <circle id="Ellipse_70" data-name="Ellipse 70" cx="8.592" cy="8.592" r="8.592" transform="translate(337.674 221.387)" fill="#535461" opacity="0.1"/>
    </g>
  </g>
</svg>
