<svg width="324" height="254" viewBox="0 0 324 254" fill="none" xmlns="http://www.w3.org/2000/svg">
<g clip-path="url(#clip0)">
<path d="M103.564 234.891C103.879 234.341 104.041 233.717 104.035 233.084C104.035 231.451 103.026 230.127 101.777 230.127C100.528 230.127 99.519 231.451 99.519 233.084C99.5126 233.717 99.6752 234.341 99.9902 234.891C99.6812 235.443 99.519 236.065 99.519 236.698C99.519 237.33 99.6812 237.952 99.9902 238.504C99.6812 239.057 99.519 239.679 99.519 240.311C99.519 240.944 99.6812 241.566 99.9902 242.118C99.6812 242.671 99.519 243.293 99.519 243.925C99.519 244.558 99.6812 245.18 99.9902 245.732C99.675 246.282 99.5124 246.906 99.519 247.539C99.519 249.172 100.528 250.495 101.777 250.495C103.026 250.495 104.035 249.172 104.035 247.539C104.041 246.906 103.879 246.283 103.564 245.734C103.873 245.182 104.035 244.56 104.035 243.927C104.035 243.294 103.873 242.672 103.564 242.12C103.873 241.568 104.035 240.946 104.035 240.313C104.035 239.68 103.873 239.058 103.564 238.506C103.873 237.954 104.035 237.332 104.035 236.699C104.035 236.066 103.873 235.444 103.564 234.892V234.891Z" fill="#3F3D56"/>
<path d="M101.77 232.426C103.017 232.426 104.028 231.103 104.028 229.47C104.028 227.837 103.017 226.513 101.77 226.513C100.523 226.513 99.5118 227.837 99.5118 229.47C99.5118 231.103 100.523 232.426 101.77 232.426Z" fill="#3F3D56"/>
<path d="M101.77 228.813C103.017 228.813 104.028 227.489 104.028 225.856C104.028 224.223 103.017 222.899 101.77 222.899C100.523 222.899 99.5118 224.223 99.5118 225.856C99.5118 227.489 100.523 228.813 101.77 228.813Z" fill="#3F3D56"/>
<path d="M93.3143 201.127C93.0064 200.734 92.7258 200.32 92.4742 199.888L98.4081 198.914L91.99 198.961C91.3745 197.622 91.0387 196.171 91.0033 194.697C90.9678 193.223 91.2335 191.757 91.784 190.389L100.394 194.856L92.4526 189.019C93.1942 187.729 94.194 186.606 95.3894 185.72C96.5847 184.833 97.95 184.203 99.3999 183.869C100.85 183.534 102.353 183.502 103.816 183.775C105.279 184.048 106.67 184.619 107.901 185.454C109.133 186.288 110.18 187.368 110.976 188.625C111.772 189.883 112.299 191.29 112.526 192.761C112.753 194.232 112.675 195.733 112.295 197.172C111.916 198.611 111.243 199.956 110.321 201.123C110.801 201.734 111.215 202.396 111.554 203.096L103.852 207.102L112.066 204.345C112.642 206.05 112.785 207.872 112.48 209.646C112.176 211.42 111.434 213.09 110.322 214.505C111.578 216.101 112.359 218.018 112.577 220.037C112.794 222.055 112.439 224.095 111.553 225.921C110.666 227.748 109.283 229.288 107.561 230.366C105.84 231.443 103.851 232.015 101.82 232.015C99.7897 232.015 97.8002 231.443 96.0791 230.366C94.358 229.288 92.975 227.748 92.0881 225.921C91.2012 224.095 90.8462 222.055 91.0638 220.037C91.2814 218.018 92.0628 216.101 93.3186 214.505C91.8195 212.598 91.0045 210.242 91.0045 207.816C91.0045 205.39 91.8195 203.035 93.3186 201.127H93.3143Z" fill="#57B894"/>
<path opacity="0.1" d="M112.642 207.816C112.646 210.243 111.83 212.6 110.328 214.505C111.583 216.101 112.365 218.018 112.582 220.037C112.8 222.055 112.445 224.095 111.558 225.921C110.671 227.748 109.288 229.288 107.567 230.366C105.846 231.443 103.857 232.015 101.826 232.015C99.7954 232.015 97.8059 231.443 96.0848 230.366C94.3637 229.288 92.9807 227.748 92.0938 225.921C91.2069 224.095 90.8519 222.055 91.0695 220.037C91.2871 218.018 92.0685 216.101 93.3243 214.505C91.8646 212.664 112.642 206.601 112.642 207.816Z" fill="black"/>
<path d="M219.858 238.692C220.098 238.274 220.222 237.799 220.217 237.317C220.217 236.075 219.449 235.069 218.5 235.069C217.55 235.069 216.782 236.078 216.782 237.317C216.777 237.799 216.901 238.274 217.141 238.692C216.905 239.112 216.782 239.585 216.782 240.066C216.782 240.548 216.905 241.021 217.141 241.441C216.905 241.861 216.782 242.334 216.782 242.816C216.782 243.297 216.905 243.771 217.141 244.191C216.905 244.61 216.782 245.083 216.782 245.564C216.782 246.046 216.905 246.519 217.141 246.938C216.901 247.357 216.777 247.831 216.782 248.313C216.782 249.555 217.551 250.562 218.5 250.562C219.448 250.562 220.217 249.554 220.217 248.313C220.222 247.831 220.098 247.357 219.858 246.938C220.094 246.519 220.217 246.046 220.217 245.564C220.217 245.083 220.094 244.61 219.858 244.191C220.094 243.771 220.217 243.297 220.217 242.816C220.217 242.334 220.094 241.861 219.858 241.441C220.094 241.021 220.217 240.548 220.217 240.066C220.217 239.585 220.094 239.112 219.858 238.692V238.692Z" fill="#3F3D56"/>
<path d="M218.5 236.819C219.448 236.819 220.217 235.811 220.217 234.569C220.217 233.327 219.448 232.32 218.5 232.32C217.551 232.32 216.782 233.327 216.782 234.569C216.782 235.811 217.551 236.819 218.5 236.819Z" fill="#3F3D56"/>
<path d="M218.5 234.069C219.448 234.069 220.217 233.062 220.217 231.82C220.217 230.578 219.448 229.57 218.5 229.57C217.551 229.57 216.782 230.578 216.782 231.82C216.782 233.062 217.551 234.069 218.5 234.069Z" fill="#3F3D56"/>
<path d="M212.069 213.009C211.834 212.711 211.62 212.396 211.429 212.067L215.943 211.325L211.06 211.362C210.592 210.343 210.337 209.239 210.31 208.118C210.283 206.996 210.485 205.881 210.903 204.841L217.453 208.24L211.413 203.802C211.979 202.825 212.741 201.975 213.65 201.305C214.559 200.635 215.596 200.159 216.697 199.907C217.798 199.655 218.939 199.633 220.049 199.841C221.159 200.049 222.214 200.483 223.149 201.117C224.084 201.75 224.878 202.57 225.483 203.523C226.088 204.477 226.489 205.545 226.663 206.661C226.837 207.777 226.78 208.917 226.494 210.009C226.209 211.102 225.702 212.124 225.004 213.012C225.37 213.477 225.685 213.98 225.944 214.512L220.083 217.557L226.334 215.456C226.774 216.753 226.882 218.139 226.651 219.489C226.419 220.839 225.854 222.109 225.007 223.186C225.962 224.399 226.556 225.857 226.721 227.393C226.887 228.929 226.616 230.48 225.942 231.869C225.267 233.258 224.215 234.429 222.906 235.249C221.597 236.069 220.084 236.503 218.539 236.503C216.995 236.503 215.481 236.069 214.172 235.249C212.863 234.429 211.811 233.258 211.137 231.869C210.462 230.48 210.192 228.929 210.357 227.393C210.522 225.857 211.116 224.399 212.071 223.186C210.931 221.735 210.31 219.943 210.31 218.098C210.31 216.252 210.931 214.46 212.071 213.009H212.069Z" fill="#57B894"/>
<path opacity="0.1" d="M226.766 218.098C226.769 219.944 226.148 221.737 225.004 223.186C225.959 224.399 226.553 225.857 226.718 227.393C226.884 228.929 226.614 230.48 225.939 231.869C225.264 233.258 224.212 234.429 222.903 235.249C221.594 236.069 220.081 236.503 218.536 236.503C216.992 236.503 215.479 236.069 214.17 235.249C212.861 234.429 211.809 233.258 211.134 231.869C210.459 230.48 210.189 228.929 210.354 227.393C210.52 225.857 211.114 224.399 212.069 223.186C210.965 221.785 226.766 217.174 226.766 218.098Z" fill="black"/>
<path d="M205.681 166.969H176.828V160.73C176.828 160.534 176.79 160.339 176.715 160.158C176.64 159.977 176.53 159.812 176.391 159.674C176.253 159.535 176.088 159.425 175.907 159.35C175.726 159.275 175.532 159.237 175.335 159.237H166.864V152.59C166.864 152.341 166.765 152.102 166.589 151.925C166.413 151.749 166.174 151.65 165.925 151.65H155.006C154.757 151.651 154.519 151.75 154.342 151.926C154.166 152.102 154.067 152.341 154.067 152.59V159.237H144.111C143.915 159.236 143.72 159.275 143.539 159.349C143.357 159.424 143.192 159.534 143.053 159.673C142.914 159.811 142.803 159.976 142.728 160.158C142.653 160.339 142.614 160.533 142.614 160.73V166.965H115.107C115.027 166.965 114.95 166.997 114.893 167.054C114.837 167.111 114.805 167.189 114.805 167.269V250.111C114.805 250.192 114.837 250.269 114.893 250.326C114.95 250.383 115.027 250.415 115.107 250.415H133.392C133.472 250.415 133.549 250.383 133.606 250.326C133.663 250.269 133.695 250.192 133.696 250.111V238.961C133.696 238.881 133.728 238.804 133.785 238.747C133.842 238.69 133.919 238.658 134 238.657H141.723C141.804 238.658 141.881 238.69 141.938 238.747C141.994 238.804 142.026 238.881 142.026 238.961V250.106C142.026 250.186 142.058 250.263 142.114 250.32C142.171 250.377 142.247 250.409 142.327 250.41H178.461C178.541 250.409 178.618 250.377 178.675 250.32C178.731 250.263 178.763 250.186 178.764 250.106V238.961C178.764 238.881 178.795 238.804 178.852 238.747C178.908 238.69 178.985 238.658 179.065 238.657H186.788C186.869 238.657 186.946 238.689 187.003 238.746C187.06 238.803 187.092 238.881 187.092 238.961V250.106C187.093 250.186 187.125 250.263 187.182 250.32C187.239 250.377 187.316 250.409 187.396 250.41H205.681C205.761 250.409 205.838 250.377 205.894 250.32C205.951 250.263 205.983 250.186 205.983 250.106V167.273C205.983 167.193 205.952 167.116 205.895 167.059C205.838 167.002 205.761 166.97 205.681 166.969V166.969ZM130.422 234.793C130.422 234.872 130.39 234.949 130.333 235.005C130.277 235.061 130.201 235.093 130.121 235.094H118.827C118.787 235.094 118.748 235.086 118.711 235.071C118.674 235.056 118.641 235.034 118.613 235.006C118.585 234.978 118.562 234.945 118.547 234.908C118.532 234.871 118.524 234.832 118.524 234.793V230.935C118.524 230.895 118.531 230.856 118.547 230.819C118.562 230.782 118.584 230.748 118.612 230.72C118.64 230.692 118.674 230.67 118.71 230.654C118.747 230.639 118.787 230.631 118.827 230.631H130.121C130.201 230.632 130.278 230.664 130.334 230.721C130.39 230.778 130.422 230.855 130.422 230.935V234.793ZM130.422 224.825C130.422 224.905 130.39 224.982 130.334 225.039C130.277 225.096 130.201 225.128 130.121 225.128H118.827C118.787 225.128 118.747 225.12 118.71 225.105C118.674 225.09 118.64 225.067 118.612 225.039C118.584 225.011 118.562 224.977 118.547 224.94C118.531 224.903 118.524 224.864 118.524 224.824V220.971C118.524 220.931 118.531 220.891 118.547 220.855C118.562 220.818 118.584 220.784 118.612 220.756C118.64 220.728 118.674 220.705 118.71 220.69C118.747 220.675 118.787 220.667 118.827 220.667H130.121C130.161 220.667 130.2 220.675 130.237 220.69C130.273 220.706 130.306 220.728 130.334 220.756C130.362 220.785 130.384 220.818 130.4 220.855C130.415 220.892 130.422 220.931 130.422 220.971V224.825ZM130.422 214.861C130.422 214.941 130.39 215.018 130.334 215.075C130.277 215.131 130.201 215.163 130.121 215.164H118.827C118.746 215.164 118.669 215.132 118.613 215.075C118.556 215.018 118.524 214.941 118.524 214.861V211.007C118.524 210.967 118.531 210.927 118.547 210.89C118.562 210.853 118.584 210.82 118.612 210.792C118.64 210.763 118.674 210.741 118.71 210.726C118.747 210.71 118.787 210.702 118.827 210.702H130.121C130.201 210.703 130.278 210.736 130.334 210.793C130.39 210.849 130.422 210.926 130.422 211.007V214.861ZM130.422 204.894C130.422 204.934 130.415 204.973 130.399 205.01C130.384 205.046 130.362 205.08 130.334 205.108C130.306 205.136 130.273 205.158 130.236 205.173C130.2 205.189 130.161 205.197 130.121 205.197H118.827C118.787 205.197 118.747 205.189 118.711 205.174C118.674 205.159 118.64 205.136 118.612 205.108C118.584 205.08 118.562 205.047 118.547 205.01C118.531 204.973 118.524 204.934 118.524 204.894V201.038C118.524 200.998 118.531 200.959 118.547 200.922C118.562 200.885 118.584 200.852 118.612 200.824C118.64 200.795 118.674 200.773 118.711 200.758C118.747 200.743 118.787 200.735 118.827 200.735H130.121C130.161 200.735 130.2 200.743 130.236 200.758C130.273 200.774 130.306 200.796 130.334 200.824C130.362 200.852 130.384 200.886 130.399 200.922C130.415 200.959 130.422 200.998 130.422 201.038V204.894ZM130.422 194.928C130.422 195.008 130.39 195.085 130.334 195.142C130.278 195.199 130.201 195.232 130.121 195.232H118.827C118.787 195.232 118.747 195.224 118.71 195.209C118.674 195.194 118.64 195.171 118.612 195.143C118.584 195.115 118.562 195.081 118.547 195.044C118.531 195.008 118.524 194.968 118.524 194.928V191.071C118.524 191.031 118.532 190.992 118.547 190.955C118.562 190.919 118.585 190.885 118.613 190.857C118.641 190.829 118.674 190.807 118.711 190.792C118.748 190.777 118.787 190.769 118.827 190.77H130.121C130.201 190.77 130.277 190.802 130.333 190.858C130.39 190.915 130.422 190.991 130.422 191.071V194.928ZM130.422 184.964C130.422 185.044 130.39 185.12 130.333 185.176C130.277 185.233 130.201 185.265 130.121 185.265H118.827C118.787 185.265 118.748 185.258 118.711 185.243C118.674 185.228 118.641 185.205 118.613 185.177C118.585 185.149 118.562 185.116 118.547 185.08C118.532 185.043 118.524 185.004 118.524 184.964V181.106C118.524 181.026 118.556 180.949 118.612 180.892C118.669 180.835 118.746 180.803 118.827 180.802H130.121C130.201 180.803 130.278 180.836 130.334 180.893C130.39 180.949 130.422 181.026 130.422 181.106V184.964ZM130.422 174.997C130.422 175.037 130.415 175.076 130.4 175.113C130.384 175.149 130.362 175.183 130.334 175.211C130.306 175.239 130.273 175.262 130.237 175.277C130.2 175.293 130.161 175.301 130.121 175.301H118.827C118.787 175.301 118.747 175.293 118.71 175.278C118.674 175.262 118.64 175.24 118.612 175.212C118.584 175.183 118.562 175.15 118.547 175.113C118.531 175.076 118.524 175.037 118.524 174.997V171.142C118.524 171.102 118.531 171.063 118.547 171.026C118.562 170.989 118.584 170.956 118.612 170.927C118.64 170.899 118.674 170.877 118.71 170.861C118.747 170.846 118.787 170.838 118.827 170.838H130.121C130.161 170.838 130.2 170.846 130.237 170.862C130.273 170.877 130.306 170.9 130.334 170.928C130.362 170.956 130.384 170.99 130.4 171.026C130.415 171.063 130.422 171.102 130.422 171.142V174.997ZM157.195 234.797C157.195 234.837 157.187 234.876 157.172 234.912C157.157 234.949 157.135 234.982 157.106 235.01C157.078 235.038 157.045 235.06 157.008 235.076C156.972 235.091 156.932 235.098 156.893 235.098H145.6C145.52 235.098 145.443 235.066 145.386 235.01C145.329 234.954 145.296 234.877 145.296 234.797V230.935C145.296 230.855 145.328 230.777 145.385 230.721C145.442 230.664 145.519 230.631 145.6 230.631H156.893C156.932 230.631 156.972 230.639 157.009 230.654C157.045 230.67 157.079 230.692 157.107 230.72C157.135 230.748 157.157 230.782 157.173 230.819C157.188 230.856 157.195 230.895 157.195 230.935V234.797ZM157.195 224.83C157.195 224.87 157.188 224.909 157.173 224.946C157.157 224.983 157.135 225.016 157.107 225.045C157.079 225.073 157.045 225.095 157.009 225.111C156.972 225.126 156.932 225.134 156.893 225.134H145.6C145.519 225.134 145.442 225.102 145.385 225.045C145.328 224.988 145.296 224.91 145.296 224.83V220.971C145.296 220.89 145.328 220.813 145.385 220.756C145.442 220.699 145.519 220.667 145.6 220.667H156.893C156.932 220.667 156.972 220.675 157.009 220.69C157.045 220.705 157.079 220.728 157.107 220.756C157.135 220.784 157.157 220.818 157.173 220.855C157.188 220.891 157.195 220.931 157.195 220.971V224.83ZM157.195 214.865C157.195 214.946 157.163 215.023 157.107 215.079C157.05 215.136 156.973 215.168 156.893 215.168H145.6C145.519 215.168 145.442 215.136 145.385 215.079C145.328 215.023 145.296 214.946 145.296 214.865V211.007C145.296 210.926 145.328 210.849 145.385 210.792C145.442 210.735 145.519 210.703 145.6 210.702H156.893C156.932 210.702 156.972 210.71 157.009 210.726C157.045 210.741 157.079 210.763 157.107 210.792C157.135 210.82 157.157 210.853 157.173 210.89C157.188 210.927 157.195 210.967 157.195 211.007V214.865ZM157.195 204.898C157.195 204.938 157.188 204.978 157.172 205.014C157.157 205.051 157.135 205.085 157.107 205.113C157.079 205.141 157.045 205.163 157.009 205.178C156.972 205.193 156.932 205.201 156.893 205.201H145.6C145.56 205.201 145.52 205.193 145.483 205.178C145.447 205.163 145.413 205.141 145.385 205.113C145.357 205.085 145.334 205.051 145.319 205.014C145.304 204.978 145.296 204.938 145.296 204.898V201.038C145.296 200.998 145.304 200.959 145.319 200.922C145.334 200.885 145.357 200.852 145.385 200.823C145.413 200.795 145.447 200.773 145.483 200.758C145.52 200.743 145.56 200.735 145.6 200.735H156.893C156.932 200.735 156.972 200.743 157.009 200.758C157.045 200.773 157.079 200.795 157.107 200.824C157.135 200.852 157.157 200.885 157.172 200.922C157.188 200.959 157.195 200.998 157.195 201.038V204.898ZM157.195 194.933C157.195 194.972 157.188 195.012 157.173 195.049C157.157 195.086 157.135 195.119 157.107 195.147C157.079 195.176 157.045 195.198 157.009 195.213C156.972 195.229 156.932 195.237 156.893 195.237H145.6C145.519 195.236 145.442 195.204 145.385 195.147C145.328 195.09 145.296 195.013 145.296 194.933V191.071C145.296 190.991 145.329 190.914 145.386 190.858C145.443 190.801 145.52 190.77 145.6 190.77H156.893C156.932 190.769 156.972 190.777 157.008 190.792C157.045 190.807 157.078 190.829 157.106 190.857C157.135 190.885 157.157 190.919 157.172 190.955C157.187 190.992 157.195 191.031 157.195 191.071V194.933ZM157.195 184.968C157.195 185.008 157.187 185.047 157.172 185.084C157.157 185.12 157.135 185.154 157.106 185.182C157.078 185.21 157.045 185.232 157.008 185.247C156.972 185.262 156.932 185.27 156.893 185.269H145.6C145.52 185.269 145.443 185.238 145.386 185.181C145.329 185.125 145.296 185.048 145.296 184.968V181.106C145.296 181.026 145.328 180.949 145.385 180.892C145.442 180.835 145.519 180.803 145.6 180.802H156.893C156.973 180.803 157.05 180.835 157.107 180.892C157.163 180.949 157.195 181.026 157.195 181.106V184.968ZM157.195 175.001C157.195 175.041 157.188 175.08 157.173 175.117C157.157 175.154 157.135 175.188 157.107 175.216C157.079 175.244 157.045 175.267 157.009 175.282C156.972 175.297 156.932 175.305 156.893 175.305H145.6C145.519 175.305 145.442 175.273 145.385 175.216C145.328 175.159 145.296 175.082 145.296 175.001V171.142C145.296 171.062 145.328 170.984 145.385 170.927C145.442 170.87 145.519 170.838 145.6 170.838H156.893C156.932 170.838 156.972 170.846 157.009 170.861C157.045 170.877 157.079 170.899 157.107 170.927C157.135 170.956 157.157 170.989 157.173 171.026C157.188 171.063 157.195 171.102 157.195 171.142V175.001ZM175.495 234.801C175.495 234.841 175.487 234.88 175.472 234.917C175.456 234.954 175.434 234.987 175.406 235.015C175.378 235.043 175.344 235.065 175.307 235.08C175.27 235.095 175.231 235.103 175.191 235.102H163.894C163.814 235.102 163.737 235.071 163.681 235.014C163.624 234.958 163.592 234.881 163.592 234.801V230.935C163.592 230.855 163.623 230.778 163.68 230.721C163.737 230.664 163.814 230.631 163.894 230.631H175.187C175.268 230.631 175.345 230.663 175.402 230.72C175.459 230.777 175.491 230.854 175.491 230.935L175.495 234.801ZM175.495 224.834C175.496 224.874 175.488 224.914 175.473 224.951C175.457 224.988 175.435 225.021 175.407 225.049C175.379 225.078 175.345 225.1 175.308 225.115C175.271 225.131 175.231 225.138 175.191 225.138H163.894C163.814 225.138 163.737 225.105 163.68 225.049C163.623 224.992 163.592 224.914 163.592 224.834V220.971C163.592 220.89 163.623 220.813 163.68 220.756C163.737 220.699 163.814 220.667 163.894 220.667H175.187C175.227 220.667 175.267 220.674 175.304 220.69C175.341 220.705 175.374 220.727 175.402 220.755C175.431 220.784 175.453 220.817 175.468 220.854C175.484 220.891 175.491 220.931 175.491 220.971L175.495 224.834ZM175.495 214.87C175.495 214.95 175.463 215.027 175.406 215.084C175.349 215.141 175.272 215.172 175.191 215.172H163.894C163.814 215.172 163.737 215.14 163.681 215.083C163.624 215.027 163.592 214.95 163.592 214.87V211.007C163.592 210.926 163.623 210.849 163.68 210.792C163.737 210.735 163.814 210.703 163.894 210.702H175.187C175.268 210.702 175.345 210.735 175.402 210.792C175.459 210.849 175.491 210.926 175.491 211.007L175.495 214.87ZM175.495 204.903C175.495 204.942 175.488 204.982 175.472 205.019C175.457 205.056 175.435 205.089 175.406 205.117C175.378 205.145 175.344 205.167 175.308 205.183C175.271 205.198 175.231 205.205 175.191 205.205H163.894C163.854 205.205 163.815 205.197 163.778 205.182C163.742 205.167 163.708 205.145 163.68 205.117C163.652 205.088 163.63 205.055 163.615 205.018C163.599 204.982 163.592 204.942 163.592 204.903V201.038C163.592 200.998 163.599 200.959 163.615 200.922C163.63 200.885 163.652 200.852 163.68 200.824C163.708 200.796 163.742 200.774 163.778 200.758C163.815 200.743 163.854 200.735 163.894 200.735H175.187C175.227 200.735 175.266 200.743 175.303 200.758C175.34 200.773 175.374 200.795 175.402 200.823C175.43 200.852 175.453 200.885 175.468 200.922C175.483 200.959 175.491 200.998 175.491 201.038L175.495 204.903ZM175.495 194.937C175.495 195.018 175.463 195.095 175.406 195.152C175.349 195.209 175.272 195.241 175.191 195.241H163.894C163.814 195.241 163.737 195.208 163.68 195.151C163.623 195.094 163.592 195.017 163.592 194.937V191.071C163.592 190.991 163.624 190.914 163.681 190.858C163.737 190.801 163.814 190.77 163.894 190.77H175.187C175.227 190.769 175.266 190.777 175.303 190.792C175.34 190.807 175.373 190.829 175.401 190.857C175.43 190.885 175.452 190.918 175.468 190.955C175.483 190.992 175.491 191.031 175.491 191.071L175.495 194.937ZM175.495 184.973C175.495 185.012 175.487 185.052 175.472 185.088C175.456 185.125 175.434 185.158 175.406 185.186C175.378 185.214 175.344 185.236 175.307 185.251C175.27 185.266 175.231 185.274 175.191 185.274H163.894C163.814 185.274 163.737 185.242 163.681 185.186C163.624 185.129 163.592 185.053 163.592 184.973V181.106C163.592 181.026 163.624 180.949 163.681 180.892C163.737 180.836 163.814 180.803 163.894 180.802H175.187C175.268 180.803 175.345 180.835 175.402 180.892C175.459 180.949 175.491 181.026 175.491 181.106L175.495 184.973ZM175.495 175.005C175.496 175.045 175.488 175.085 175.473 175.122C175.457 175.159 175.435 175.193 175.407 175.221C175.379 175.249 175.345 175.272 175.308 175.287C175.271 175.302 175.231 175.31 175.191 175.309H163.894C163.814 175.309 163.737 175.277 163.68 175.22C163.623 175.163 163.592 175.086 163.592 175.005V171.142C163.592 171.062 163.623 170.985 163.68 170.928C163.737 170.871 163.814 170.839 163.894 170.838H175.187C175.227 170.838 175.267 170.846 175.304 170.861C175.341 170.876 175.374 170.899 175.402 170.927C175.431 170.955 175.453 170.989 175.468 171.026C175.484 171.063 175.491 171.102 175.491 171.142L175.495 175.005ZM202.27 234.793C202.269 234.873 202.237 234.949 202.18 235.006C202.123 235.062 202.046 235.094 201.966 235.094H190.669C190.629 235.094 190.59 235.086 190.553 235.071C190.516 235.056 190.483 235.034 190.454 235.006C190.426 234.978 190.404 234.945 190.388 234.908C190.373 234.872 190.365 234.832 190.365 234.793V230.935C190.365 230.854 190.397 230.777 190.454 230.72C190.511 230.663 190.588 230.631 190.669 230.631H201.962C202.002 230.631 202.042 230.638 202.079 230.653C202.116 230.668 202.15 230.691 202.179 230.719C202.208 230.747 202.23 230.781 202.246 230.818C202.262 230.855 202.27 230.895 202.27 230.935V234.793ZM202.27 224.825C202.27 224.906 202.238 224.983 202.181 225.04C202.124 225.097 202.047 225.129 201.966 225.129H190.669C190.629 225.13 190.589 225.122 190.552 225.107C190.515 225.091 190.482 225.069 190.453 225.041C190.425 225.013 190.403 224.979 190.387 224.942C190.372 224.905 190.365 224.865 190.365 224.825V220.971C190.365 220.931 190.372 220.891 190.387 220.854C190.403 220.817 190.425 220.784 190.453 220.755C190.482 220.727 190.515 220.705 190.552 220.69C190.589 220.674 190.629 220.667 190.669 220.667H201.962C202.042 220.667 202.12 220.699 202.177 220.756C202.234 220.813 202.266 220.89 202.266 220.971L202.27 224.825ZM202.27 214.861C202.27 214.941 202.237 215.018 202.18 215.075C202.123 215.132 202.046 215.164 201.966 215.164H190.669C190.588 215.164 190.511 215.132 190.454 215.075C190.397 215.018 190.365 214.941 190.365 214.861V211.007C190.365 210.926 190.397 210.849 190.454 210.792C190.511 210.735 190.588 210.702 190.669 210.702H201.962C202.002 210.702 202.042 210.71 202.079 210.725C202.116 210.74 202.15 210.762 202.179 210.79C202.208 210.819 202.23 210.852 202.246 210.889C202.262 210.926 202.27 210.966 202.27 211.007V214.861ZM202.27 204.894C202.27 204.934 202.262 204.973 202.247 205.01C202.232 205.047 202.209 205.08 202.181 205.108C202.153 205.137 202.119 205.159 202.082 205.174C202.045 205.189 202.006 205.197 201.966 205.197H190.669C190.629 205.197 190.589 205.189 190.553 205.174C190.516 205.159 190.482 205.137 190.454 205.108C190.426 205.08 190.403 205.047 190.388 205.01C190.373 204.973 190.365 204.934 190.365 204.894V201.038C190.365 200.998 190.373 200.959 190.388 200.922C190.403 200.885 190.426 200.852 190.454 200.823C190.482 200.795 190.516 200.773 190.553 200.758C190.589 200.743 190.629 200.735 190.669 200.735H201.962C202.001 200.735 202.041 200.743 202.078 200.758C202.115 200.773 202.148 200.795 202.177 200.823C202.205 200.852 202.227 200.885 202.243 200.922C202.258 200.959 202.266 200.998 202.266 201.038L202.27 204.894ZM202.27 194.928C202.27 195.009 202.237 195.086 202.181 195.143C202.124 195.2 202.046 195.232 201.966 195.232H190.669C190.588 195.232 190.511 195.2 190.454 195.143C190.397 195.086 190.365 195.009 190.365 194.928V191.071C190.365 191.031 190.373 190.992 190.388 190.955C190.404 190.918 190.426 190.885 190.454 190.857C190.483 190.829 190.516 190.807 190.553 190.792C190.59 190.777 190.629 190.769 190.669 190.77H201.962C202.042 190.77 202.119 190.801 202.176 190.858C202.233 190.914 202.265 190.991 202.266 191.071L202.27 194.928ZM202.27 184.964C202.269 185.044 202.237 185.121 202.18 185.177C202.123 185.233 202.046 185.265 201.966 185.265H190.669C190.629 185.265 190.59 185.258 190.553 185.243C190.516 185.228 190.483 185.205 190.454 185.178C190.426 185.15 190.404 185.116 190.388 185.08C190.373 185.043 190.365 185.004 190.365 184.964V181.106C190.365 181.026 190.397 180.949 190.454 180.892C190.511 180.835 190.588 180.803 190.669 180.802H201.962C202.002 180.802 202.042 180.81 202.079 180.825C202.116 180.84 202.15 180.862 202.179 180.89C202.208 180.919 202.23 180.952 202.246 180.989C202.262 181.026 202.27 181.066 202.27 181.106V184.964ZM202.27 174.997C202.27 175.077 202.238 175.155 202.181 175.212C202.124 175.269 202.047 175.301 201.966 175.301H190.669C190.629 175.301 190.589 175.293 190.552 175.278C190.515 175.263 190.482 175.24 190.453 175.212C190.425 175.184 190.403 175.15 190.387 175.113C190.372 175.076 190.365 175.037 190.365 174.997V171.142C190.365 171.102 190.372 171.063 190.387 171.026C190.403 170.989 190.425 170.955 190.453 170.927C190.482 170.899 190.515 170.876 190.552 170.861C190.589 170.846 190.629 170.838 190.669 170.838H201.962C202.042 170.838 202.12 170.87 202.177 170.927C202.234 170.984 202.266 171.062 202.266 171.142L202.27 174.997Z" fill="#F2F2F2"/>
<path d="M131.733 143.425L129.263 144.996L130.762 142.272C130.338 141.933 129.812 141.745 129.269 141.739H129.23C129.059 141.742 128.887 141.729 128.717 141.7L127.88 142.231L128.239 141.579C127.646 141.372 127.134 140.983 126.775 140.468L125.278 141.418L126.224 139.697C125.348 138.646 124.17 138 122.873 138C121.315 138 119.927 138.927 119.033 140.369C118.768 140.801 118.394 141.155 117.948 141.396C117.502 141.636 117 141.754 116.494 141.738H116.41C114.691 141.738 113.296 143.687 113.296 146.092C113.296 148.497 114.691 150.447 116.41 150.447C116.788 150.446 117.16 150.352 117.494 150.175C118.616 149.598 120.087 149.581 121.262 150.101C121.765 150.328 122.311 150.446 122.863 150.447C123.416 150.448 123.962 150.333 124.467 150.108C125.631 149.598 127.088 149.61 128.202 150.18C128.532 150.355 128.9 150.446 129.274 150.447C130.993 150.447 132.388 148.497 132.388 146.092C132.397 145.163 132.172 144.245 131.733 143.425Z" fill="#F2F2F2"/>
<path opacity="0.03" d="M127.079 149.802C126.181 149.631 125.252 149.731 124.412 150.09C123.908 150.314 123.362 150.431 122.81 150.431C122.258 150.431 121.713 150.314 121.208 150.09C120.034 149.568 118.561 149.58 117.44 150.163C117.106 150.34 116.734 150.433 116.355 150.434C114.828 150.434 113.558 148.895 113.293 146.866C113.598 146.644 113.858 146.364 114.057 146.043C114.952 144.603 116.339 143.673 117.897 143.673C119.455 143.673 120.825 144.578 121.72 146.01C121.987 146.442 122.361 146.797 122.805 147.041C123.25 147.286 123.75 147.411 124.258 147.405H124.296C125.514 147.404 126.567 148.379 127.079 149.802Z" fill="black"/>
<path d="M216.509 154.202L214.769 155.306L215.825 153.385C215.526 153.146 215.156 153.014 214.773 153.009H214.746C214.625 153.01 214.504 153.001 214.384 152.982L213.795 153.356L214.047 152.897C213.629 152.75 213.268 152.476 213.015 152.113L211.96 152.792L212.626 151.578C212.009 150.838 211.185 150.384 210.261 150.384C209.163 150.384 208.186 151.036 207.555 152.054C207.369 152.358 207.105 152.608 206.791 152.778C206.476 152.947 206.123 153.03 205.766 153.018H205.707C204.495 153.018 203.513 154.392 203.513 156.087C203.513 157.782 204.495 159.156 205.707 159.156C205.973 159.155 206.236 159.089 206.472 158.965C206.884 158.764 207.335 158.656 207.794 158.647C208.252 158.638 208.707 158.729 209.127 158.913C209.482 159.071 209.867 159.153 210.256 159.153C210.645 159.153 211.029 159.071 211.384 158.913C211.801 158.732 212.252 158.643 212.706 158.652C213.16 158.66 213.607 158.767 214.017 158.963C214.25 159.085 214.51 159.149 214.773 159.151C215.985 159.151 216.968 157.776 216.968 156.081C216.975 155.426 216.818 154.78 216.509 154.202Z" fill="#F2F2F2"/>
<path opacity="0.03" d="M213.23 158.699C212.599 158.58 211.947 158.651 211.357 158.903C211.001 159.062 210.617 159.144 210.228 159.144C209.838 159.144 209.454 159.062 209.099 158.903C208.678 158.719 208.224 158.628 207.765 158.637C207.307 158.646 206.855 158.754 206.443 158.955C206.208 159.079 205.945 159.145 205.679 159.146C204.603 159.146 203.706 158.061 203.518 156.63C203.732 156.474 203.915 156.279 204.055 156.054C204.686 155.037 205.665 154.384 206.763 154.384C207.861 154.384 208.826 155.028 209.457 156.035C209.646 156.339 209.909 156.589 210.223 156.761C210.536 156.933 210.888 157.022 211.246 157.018H211.273C212.126 157.003 212.868 157.691 213.23 158.699Z" fill="black"/>
<path d="M194.744 143.858L193.526 144.63L194.265 143.281C194.056 143.114 193.797 143.022 193.529 143.019H193.509C193.424 143.021 193.34 143.014 193.257 143L192.843 143.262L193.02 142.94C192.728 142.838 192.476 142.646 192.3 142.392L191.561 142.86L192.027 142.012C191.831 141.758 191.58 141.551 191.294 141.406C191.008 141.262 190.693 141.182 190.372 141.174C189.602 141.174 188.918 141.633 188.477 142.345C188.346 142.558 188.161 142.732 187.941 142.851C187.721 142.97 187.473 143.028 187.223 143.02H187.183C186.334 143.02 185.647 143.983 185.647 145.169C185.647 146.355 186.333 147.316 187.181 147.316C187.368 147.315 187.551 147.269 187.716 147.182C188.005 147.041 188.321 146.965 188.642 146.959C188.963 146.953 189.281 147.017 189.575 147.146C189.825 147.257 190.096 147.315 190.37 147.316C190.641 147.315 190.908 147.258 191.156 147.149C191.448 147.023 191.763 146.961 192.081 146.967C192.399 146.973 192.712 147.047 192.999 147.185C193.162 147.27 193.344 147.315 193.529 147.316C194.376 147.316 195.065 146.353 195.065 145.167C195.069 144.711 194.958 144.261 194.744 143.858V143.858Z" fill="#F2F2F2"/>
<path opacity="0.03" d="M192.448 146.994C192.005 146.911 191.546 146.961 191.131 147.139C190.882 147.25 190.612 147.307 190.339 147.307C190.066 147.307 189.796 147.25 189.546 147.139C189.252 147.01 188.934 146.947 188.613 146.953C188.292 146.959 187.976 147.035 187.687 147.175C187.523 147.262 187.339 147.308 187.153 147.309C186.398 147.309 185.771 146.549 185.641 145.548C185.792 145.438 185.92 145.3 186.017 145.141C186.46 144.43 187.144 143.973 187.912 143.973C188.68 143.973 189.353 144.424 189.8 145.126C189.931 145.339 190.116 145.514 190.335 145.635C190.555 145.755 190.802 145.817 191.052 145.814H191.071C191.676 145.813 192.195 146.294 192.448 146.994Z" fill="black"/>
<path d="M110.975 249.633C111.272 249.085 110.936 248.414 110.542 247.924C110.149 247.434 109.685 246.927 109.695 246.303C109.71 245.408 110.659 244.879 111.424 244.405C111.988 244.053 112.508 243.635 112.973 243.16C113.168 242.977 113.329 242.762 113.449 242.523C113.606 242.173 113.602 241.775 113.593 241.392C113.559 240.115 113.496 238.838 113.403 237.562" stroke="#3F3D56" stroke-width="4" stroke-miterlimit="10"/>
<path d="M114.846 237.493C114.835 237.259 114.766 237.032 114.644 236.832C114.522 236.632 114.352 236.466 114.149 236.349L113.836 236.967L113.846 236.219C113.562 236.135 113.259 236.144 112.981 236.244C112.702 236.344 112.462 236.53 112.296 236.775C112.13 237.02 112.046 237.311 112.056 237.607C112.067 237.903 112.171 238.188 112.353 238.421C112.536 238.654 112.788 238.822 113.073 238.903C113.358 238.983 113.661 238.97 113.939 238.867C114.216 238.764 114.454 238.575 114.617 238.328C114.78 238.081 114.86 237.789 114.846 237.493V237.493Z" fill="#57B894"/>
<path d="M112.354 246.944C112.213 247.218 111.986 247.438 111.707 247.569C111.429 247.701 111.114 247.736 110.814 247.67C110.513 247.605 110.242 247.441 110.044 247.206C109.845 246.97 109.73 246.675 109.717 246.368C109.708 246.175 109.739 245.982 109.808 245.802C109.91 245.537 110.09 245.309 110.324 245.15C110.558 244.99 110.836 244.905 111.119 244.906C111.403 244.908 111.68 244.996 111.912 245.158C112.145 245.321 112.322 245.55 112.421 245.816L111.55 246.526L112.508 246.304C112.509 246.527 112.456 246.746 112.354 246.944V246.944Z" fill="#57B894"/>
<path d="M111.666 244.232C111.483 244.241 111.3 244.213 111.128 244.151C110.955 244.089 110.797 243.993 110.661 243.87C110.526 243.746 110.416 243.597 110.338 243.431C110.26 243.265 110.215 243.085 110.207 242.902C110.196 242.684 110.238 242.466 110.328 242.267C110.411 242.08 110.535 241.914 110.69 241.78C110.845 241.647 111.027 241.549 111.224 241.493V242.069L111.54 241.444C111.723 241.435 111.906 241.463 112.078 241.525C112.251 241.588 112.409 241.683 112.545 241.807C112.68 241.93 112.79 242.079 112.868 242.245C112.946 242.411 112.991 242.591 112.999 242.774C113.008 242.935 112.988 243.096 112.94 243.25C112.855 243.525 112.687 243.767 112.459 243.943C112.231 244.118 111.954 244.22 111.666 244.232Z" fill="#57B894"/>
<path d="M115.057 241.977C114.84 241.989 114.624 241.95 114.425 241.863C114.226 241.777 114.05 241.645 113.911 241.479C113.772 241.313 113.673 241.116 113.623 240.905C113.573 240.694 113.572 240.475 113.622 240.263C113.671 240.052 113.769 239.855 113.907 239.688C114.046 239.522 114.221 239.389 114.42 239.302C114.618 239.215 114.835 239.175 115.051 239.185C115.268 239.196 115.479 239.257 115.668 239.363L115.422 240.041L115.929 239.552C116.064 239.675 116.173 239.824 116.25 239.989C116.328 240.155 116.372 240.334 116.38 240.516C116.387 240.645 116.375 240.775 116.345 240.901C116.276 241.196 116.113 241.46 115.881 241.654C115.649 241.848 115.359 241.962 115.057 241.977V241.977Z" fill="#57B894"/>
<path opacity="0.1" d="M114.659 237.865C114.336 237.901 114.024 238 113.7 238.02C113.375 238.04 113.021 237.963 112.816 237.712C112.721 237.566 112.635 237.414 112.558 237.257C112.47 237.119 112.349 237.006 112.207 236.927C112.117 237.104 112.065 237.298 112.056 237.496C112.047 237.695 112.081 237.893 112.154 238.077C112.228 238.262 112.34 238.428 112.483 238.566C112.626 238.704 112.797 238.809 112.984 238.876C113.171 238.942 113.37 238.968 113.568 238.951C113.766 238.935 113.958 238.876 114.132 238.779C114.305 238.682 114.456 238.55 114.574 238.39C114.692 238.23 114.775 238.047 114.816 237.853C114.764 237.856 114.711 237.859 114.659 237.865Z" fill="black"/>
<path opacity="0.1" d="M115.057 241.977C114.816 241.988 114.577 241.937 114.361 241.828C114.146 241.719 113.963 241.557 113.829 241.356C113.696 241.156 113.616 240.924 113.598 240.684C113.581 240.443 113.625 240.202 113.728 239.984C113.84 240.061 113.935 240.159 114.009 240.273C114.093 240.431 114.185 240.585 114.286 240.734C114.504 240.989 114.875 241.072 115.213 241.058C115.55 241.043 115.874 240.945 116.21 240.914C116.256 240.914 116.303 240.914 116.354 240.905C116.284 241.201 116.119 241.465 115.885 241.658C115.651 241.852 115.36 241.964 115.057 241.977V241.977Z" fill="black"/>
<path opacity="0.1" d="M111.666 244.232C111.483 244.241 111.3 244.213 111.128 244.151C110.955 244.089 110.797 243.993 110.661 243.87C110.526 243.746 110.416 243.597 110.338 243.431C110.26 243.265 110.215 243.085 110.207 242.902C110.196 242.684 110.238 242.466 110.328 242.267C110.443 242.344 110.543 242.442 110.623 242.555C110.715 242.717 110.816 242.874 110.926 243.025C111.161 243.288 111.557 243.381 111.914 243.372C112.272 243.363 112.593 243.28 112.937 243.252C112.852 243.527 112.684 243.768 112.456 243.943C112.229 244.118 111.953 244.219 111.666 244.232V244.232Z" fill="black"/>
<path opacity="0.1" d="M112.354 246.944C112.213 247.218 111.986 247.438 111.707 247.569C111.429 247.701 111.114 247.736 110.814 247.67C110.513 247.605 110.242 247.441 110.044 247.206C109.845 246.97 109.73 246.675 109.717 246.368C109.708 246.175 109.739 245.982 109.808 245.802C109.923 245.877 110.027 245.969 110.114 246.075C110.23 246.247 110.354 246.413 110.488 246.571C110.776 246.851 111.234 246.967 111.64 246.977C111.879 246.98 112.117 246.969 112.354 246.944V246.944Z" fill="black"/>
<path d="M108.869 249.4C108.869 249.4 109.972 248.967 110.31 248.732C110.649 248.498 112.006 248.212 112.089 248.588C112.171 248.964 113.737 250.479 112.498 250.489C111.259 250.499 109.606 250.694 109.274 250.489C108.943 250.284 108.869 249.4 108.869 249.4Z" fill="#656380"/>
<path opacity="0.2" d="M112.515 250.356C111.271 250.367 109.624 250.561 109.293 250.356C109.041 250.202 108.94 249.65 108.905 249.395H108.869C108.869 249.395 108.939 250.284 109.27 250.486C109.601 250.688 111.248 250.495 112.493 250.486C112.852 250.486 112.976 250.355 112.97 250.166C112.92 250.283 112.786 250.355 112.515 250.356Z" fill="black"/>
<path d="M187.886 249.711C187.687 249.343 187.914 248.892 188.174 248.558C188.435 248.224 188.751 247.888 188.742 247.469C188.734 246.868 188.095 246.513 187.589 246.195C187.212 245.958 186.863 245.677 186.551 245.359C186.419 245.235 186.311 245.089 186.231 244.927C186.143 244.683 186.11 244.424 186.134 244.166C186.157 243.308 186.2 242.451 186.262 241.595" stroke="#3F3D56" stroke-width="4" stroke-miterlimit="10"/>
<path d="M185.287 241.555C185.294 241.398 185.341 241.245 185.423 241.111C185.505 240.977 185.619 240.866 185.755 240.787L185.965 241.202L185.958 240.699C186.059 240.67 186.163 240.657 186.268 240.663C186.453 240.672 186.632 240.735 186.781 240.846C186.93 240.956 187.044 241.108 187.106 241.283C187.169 241.457 187.179 241.647 187.134 241.827C187.089 242.007 186.992 242.169 186.855 242.294C186.717 242.419 186.546 242.5 186.363 242.528C186.179 242.555 185.992 242.528 185.824 242.449C185.656 242.369 185.515 242.242 185.42 242.083C185.324 241.924 185.278 241.74 185.287 241.555V241.555Z" fill="#57B894"/>
<path d="M186.96 247.905C187.058 248.096 187.219 248.247 187.416 248.334C187.613 248.42 187.834 248.436 188.041 248.379C188.248 248.321 188.429 248.195 188.554 248.02C188.679 247.845 188.74 247.633 188.727 247.418C188.714 247.204 188.627 247.001 188.482 246.842C188.337 246.684 188.141 246.58 187.929 246.549C187.716 246.518 187.5 246.56 187.315 246.67C187.13 246.779 186.988 246.949 186.914 247.15L187.5 247.626L186.854 247.482C186.856 247.629 186.892 247.774 186.96 247.905V247.905Z" fill="#57B894"/>
<path d="M187.428 246.084C187.551 246.09 187.674 246.071 187.79 246.03C187.906 245.988 188.012 245.924 188.103 245.841C188.194 245.758 188.268 245.657 188.32 245.546C188.373 245.434 188.402 245.314 188.408 245.191C188.416 245.042 188.389 244.894 188.327 244.758C188.271 244.633 188.188 244.521 188.084 244.432C187.98 244.342 187.857 244.276 187.725 244.24V244.626L187.512 244.205C187.263 244.194 187.02 244.281 186.836 244.449C186.652 244.616 186.542 244.85 186.53 245.098C186.526 245.206 186.54 245.315 186.571 245.418C186.627 245.604 186.74 245.768 186.893 245.888C187.047 246.007 187.234 246.076 187.428 246.084V246.084Z" fill="#57B894"/>
<path d="M185.145 244.57C185.29 244.576 185.435 244.549 185.568 244.491C185.701 244.432 185.818 244.343 185.911 244.232C186.004 244.12 186.07 243.988 186.103 243.847C186.136 243.705 186.136 243.558 186.102 243.417C186.069 243.275 186.003 243.144 185.91 243.032C185.817 242.92 185.699 242.832 185.566 242.774C185.433 242.715 185.289 242.688 185.144 242.696C184.999 242.703 184.857 242.743 184.73 242.814L184.896 243.268L184.556 242.941C184.374 243.108 184.265 243.341 184.253 243.588C184.249 243.675 184.256 243.763 184.276 243.848C184.323 244.046 184.433 244.224 184.59 244.354C184.747 244.484 184.942 244.56 185.145 244.57V244.57Z" fill="#57B894"/>
<path opacity="0.1" d="M185.411 241.809C185.627 241.832 185.843 241.899 186.055 241.912C186.164 241.926 186.274 241.914 186.378 241.877C186.481 241.84 186.574 241.779 186.65 241.699C186.714 241.601 186.772 241.499 186.824 241.394C186.883 241.302 186.964 241.225 187.059 241.172C187.134 241.316 187.168 241.478 187.16 241.64C187.149 241.867 187.055 242.082 186.897 242.245C186.739 242.408 186.527 242.509 186.301 242.528C186.074 242.547 185.849 242.483 185.666 242.348C185.483 242.213 185.356 242.016 185.307 241.794C185.343 241.801 185.377 241.804 185.411 241.809Z" fill="black"/>
<path opacity="0.1" d="M185.146 244.569C185.307 244.577 185.468 244.543 185.613 244.47C185.758 244.398 185.881 244.288 185.971 244.154C186.06 244.019 186.114 243.863 186.126 243.702C186.137 243.54 186.107 243.379 186.038 243.232C185.96 243.284 185.894 243.351 185.843 243.428C185.788 243.535 185.726 243.639 185.657 243.738C185.576 243.818 185.479 243.879 185.371 243.917C185.264 243.955 185.149 243.968 185.036 243.956C184.81 243.946 184.591 243.881 184.366 243.861C184.334 243.861 184.303 243.861 184.271 243.861C184.32 244.057 184.432 244.233 184.59 244.361C184.748 244.489 184.943 244.562 185.146 244.569V244.569Z" fill="black"/>
<path opacity="0.1" d="M187.428 246.084C187.551 246.09 187.674 246.071 187.79 246.029C187.906 245.988 188.012 245.923 188.103 245.841C188.194 245.758 188.268 245.657 188.32 245.546C188.373 245.434 188.402 245.314 188.408 245.191C188.416 245.042 188.389 244.894 188.327 244.758C188.25 244.809 188.183 244.874 188.13 244.949C188.068 245.058 188 245.164 187.925 245.266C187.837 245.348 187.733 245.412 187.618 245.452C187.504 245.492 187.383 245.507 187.262 245.498C187.029 245.498 186.806 245.436 186.575 245.418C186.631 245.604 186.743 245.767 186.896 245.887C187.049 246.006 187.234 246.075 187.428 246.084V246.084Z" fill="black"/>
<path opacity="0.1" d="M186.96 247.905C187.071 248.117 187.258 248.278 187.483 248.356C187.709 248.434 187.956 248.423 188.174 248.325C188.391 248.228 188.564 248.051 188.656 247.831C188.748 247.611 188.752 247.364 188.669 247.14C188.591 247.191 188.522 247.252 188.463 247.323C188.385 247.439 188.302 247.55 188.212 247.656C187.995 247.838 187.719 247.935 187.435 247.93C187.276 247.93 187.118 247.922 186.96 247.905V247.905Z" fill="black"/>
<path d="M189.301 249.454C189.301 249.454 188.561 249.264 188.337 249.106C188.114 248.947 187.199 248.757 187.144 249.012C187.089 249.267 186.032 250.279 186.868 250.286C187.703 250.293 188.809 250.323 189.029 250.188C189.249 250.052 189.301 249.454 189.301 249.454Z" fill="#656380"/>
<path opacity="0.2" d="M186.852 250.201C187.687 250.201 188.794 250.238 189.013 250.103C189.183 250.001 189.251 249.629 189.272 249.459H189.301C189.301 249.459 189.254 250.057 189.032 250.192C188.81 250.328 187.703 250.296 186.87 250.29C186.628 250.29 186.546 250.202 186.55 250.075C186.581 250.148 186.673 250.201 186.852 250.201Z" fill="black"/>
<path d="M192.5 250.286H119.155V250.574H192.5V250.286Z" fill="#3F3D56"/>
<path d="M234 250.286H195.094V250.574H234V250.286Z" fill="#3F3D56"/>
<path d="M116.561 250.286H92.209V250.574H116.561V250.286Z" fill="#3F3D56"/>
<path d="M162.114 208.952C161.518 207.185 159.604 206.235 157.838 206.83C156.071 207.425 155.122 209.34 155.717 211.107L157.07 215.123C157.665 216.89 159.579 217.84 161.346 217.245C163.112 216.65 164.062 214.735 163.466 212.968L162.114 208.952Z" fill="#FF6584"/>
<path d="M157.934 211.132C157.934 211.132 159.188 212.932 157.934 213.401C156.681 213.871 156.205 215.203 156.205 215.203C156.205 215.203 155.813 216.769 156.675 217.076C157.537 217.383 160.825 215.589 161.295 215.119C161.764 214.649 161.295 213.39 161.295 213.39C161.295 213.39 160.042 211.661 160.12 210.571C160.198 209.482 157.934 211.132 157.934 211.132Z" fill="#FBBEBE"/>
<path opacity="0.1" d="M157.934 211.132C157.934 211.132 159.188 212.932 157.934 213.401C156.681 213.871 156.205 215.203 156.205 215.203C156.205 215.203 155.813 216.769 156.675 217.076C157.537 217.383 160.825 215.589 161.295 215.119C161.764 214.649 161.295 213.39 161.295 213.39C161.295 213.39 160.042 211.661 160.12 210.571C160.198 209.482 157.934 211.132 157.934 211.132Z" fill="black"/>
<path d="M161.302 225.069C161.302 225.069 164.12 230.942 165.061 231.334C166.002 231.726 168.507 231.49 167.723 233.683C166.939 235.876 166.156 234.857 166.858 236.421C167.56 237.984 170.383 240.258 168.112 239.317C165.841 238.376 163.178 236.186 161.691 236.499C160.204 236.811 156.472 235.552 155.639 235.712C154.806 235.872 155.116 232.271 155.116 232.271L157.464 228.825L161.302 225.069Z" fill="#6C63FF"/>
<path d="M158.561 231.099C158.561 231.099 157.382 235.401 158.013 236.032C158.091 236.11 160.205 236.659 161.616 238.225C162.475 239.174 163.513 239.946 164.669 240.496L163.416 241.826C163.416 241.826 160.678 239.634 158.949 239.242C157.219 238.85 155.425 237.513 155.425 237.051C155.425 236.588 156.6 230.71 156.6 230.71L158.561 231.099Z" fill="#FBBEBE"/>
<path opacity="0.1" d="M158.561 231.099C158.561 231.099 157.382 235.401 158.013 236.032C158.091 236.11 160.205 236.659 161.616 238.225C162.475 239.174 163.513 239.946 164.669 240.496L163.416 241.826C163.416 241.826 160.678 239.634 158.949 239.242C157.219 238.85 155.425 237.513 155.425 237.051C155.425 236.588 156.6 230.71 156.6 230.71L158.561 231.099Z" fill="black"/>
<path d="M163.652 239.634C163.652 239.634 164.357 239.164 164.828 239.791C165.299 240.418 167.332 241.356 167.332 241.356C167.332 241.356 168.273 241.356 167.802 242.375L167.332 243.392L167.02 243.237C167.02 243.237 166.707 246.368 164.984 246.682C164.984 246.682 164.436 246.682 164.906 245.271C164.906 245.271 165.61 244.646 164.357 243.398C164.357 243.398 163.182 243.242 163.182 242.85C163.182 242.85 162.243 242.616 162.557 241.986C162.871 241.356 164.2 240.496 163.652 239.634Z" fill="#3F3D56"/>
<path d="M154.489 232.744C154.489 232.744 154.176 234.31 153.941 234.545C153.707 234.78 153.707 235.562 153.941 236.418C154.176 237.274 154.333 242.212 153.55 244.64C152.766 247.068 154.646 245.972 154.646 245.972C154.646 245.972 157.074 239.941 156.76 237.038C156.446 234.134 159.498 231.007 159.498 231.007L155.743 230.315L154.489 232.744Z" fill="#FBBEBE"/>
<path d="M153.76 243.838C153.76 243.838 153.159 244.254 153.08 244.567C153.033 244.755 152.922 244.921 152.767 245.036C152.767 245.036 152.14 246.133 152.14 247.072C152.14 248.012 150.183 249.423 150.183 249.423C150.183 249.423 148.068 250.518 150.966 250.362C153.864 250.207 154.568 250.048 154.568 250.048V250.362C154.568 250.362 155.82 250.44 155.743 249.498C155.665 248.555 155.583 246.368 155.583 246.368C155.583 246.368 156.522 245.428 156.209 244.724C155.897 244.019 155.345 244.046 155.345 244.046C155.345 244.046 154.872 245.585 154.48 245.506C154.088 245.427 153.813 244.361 153.76 243.838Z" fill="#3F3D56"/>
<path d="M154.881 219.04L152.767 226.635C152.767 226.635 151.67 229.298 152.532 229.219C153.394 229.14 153.784 226.4 153.784 226.4L155.43 222.642L155.665 219.667L154.881 219.04Z" fill="#FBBEBE"/>
<path d="M158.679 211.718C159.847 211.718 160.793 210.772 160.793 209.604C160.793 208.437 159.847 207.491 158.679 207.491C157.512 207.491 156.565 208.437 156.565 209.604C156.565 210.772 157.512 211.718 158.679 211.718Z" fill="#FBBEBE"/>
<path d="M156.917 215.987C156.917 215.987 156.597 214.329 157.539 213.592C157.539 213.592 156.369 213.481 156.134 213.793C156.134 213.793 154.724 213.871 154.724 214.812C154.724 215.753 154.568 216.926 154.489 217.082C154.41 217.237 154.098 217.946 154.568 219.587C155.038 221.229 155.865 221.977 155.389 222.838C155.241 223.142 155.119 223.457 155.026 223.782C154.59 225.196 154.412 226.677 154.5 228.154C154.584 229.552 154.536 231.55 153.78 232.818C152.528 234.932 161.455 231.566 161.612 230.862C161.769 230.157 162.002 228.276 161.689 227.259C161.501 226.598 161.447 225.905 161.532 225.223C161.532 225.223 162.159 222.405 160.515 220.838L162.707 214.339C162.707 214.339 161.767 213.321 161.063 213.399C160.358 213.476 156.917 215.987 156.917 215.987Z" fill="#6C63FF"/>
<path d="M161.694 216.221L161.656 216.329C161.406 217.087 159.966 221.567 160.754 222.642C160.754 222.642 161.694 222.877 162.006 221.624C162.319 220.37 163.338 215.517 162.946 215.125C162.554 214.733 161.694 216.221 161.694 216.221Z" fill="#FBBEBE"/>
<path opacity="0.1" d="M161.694 216.221L161.656 216.329C161.406 217.087 159.966 221.567 160.754 222.642C160.754 222.642 161.694 222.877 162.006 221.624C162.319 220.37 163.338 215.517 162.946 215.125C162.554 214.733 161.694 216.221 161.694 216.221Z" fill="black"/>
<path d="M162.711 214.263C162.711 214.263 163.338 214.498 163.181 215.128C163.024 215.757 161.308 216.929 161.308 216.929L161.151 215.597L162.711 214.263Z" fill="#6C63FF"/>
<path d="M159.934 207.076C159.769 207.068 159.604 207.088 159.446 207.136C159.326 206.915 159.15 206.73 158.935 206.6C158.72 206.469 158.475 206.398 158.224 206.393C157.973 206.388 157.725 206.45 157.505 206.572C157.285 206.694 157.102 206.872 156.974 207.088C156.845 207.304 156.776 207.55 156.774 207.801C156.771 208.052 156.836 208.3 156.96 208.518C157.084 208.737 157.264 208.918 157.481 209.044C157.699 209.171 157.945 209.237 158.197 209.237H158.269C158.37 209.231 158.472 209.247 158.567 209.285C158.662 209.323 158.747 209.381 158.816 209.456C158.974 209.629 159.171 209.76 159.392 209.838C159.612 209.916 159.848 209.939 160.08 209.904C160.311 209.869 160.53 209.778 160.717 209.638C160.905 209.498 161.055 209.314 161.154 209.103C161.254 208.891 161.299 208.658 161.287 208.425C161.275 208.191 161.206 207.964 161.085 207.764C160.965 207.564 160.797 207.396 160.596 207.276C160.395 207.157 160.168 207.088 159.934 207.077V207.076Z" fill="#FF6584"/>
<path d="M160.754 220.998C160.754 220.998 162.79 218.335 163.025 217.317C163.26 216.298 161.537 213.636 162.79 213.793C164.044 213.95 164.355 216.142 164.355 216.142C164.355 216.142 164.59 216.534 164.043 218.023C163.495 219.511 162.633 221.625 162.169 222.093C161.705 222.562 160.362 223.895 160.754 220.998Z" fill="#FBBEBE"/>
</g>
<path d="M137.441 39.1V40.96H133.741V53H131.461V40.96H127.741V39.1H137.441ZM138.99 47.44C138.99 46.3333 139.217 45.3533 139.67 44.5C140.137 43.6467 140.763 42.9867 141.55 42.52C142.35 42.04 143.23 41.8 144.19 41.8C145.057 41.8 145.81 41.9733 146.45 42.32C147.103 42.6533 147.623 43.0733 148.01 43.58V41.98H150.31V53H148.01V51.36C147.623 51.88 147.097 52.3133 146.43 52.66C145.763 53.0067 145.003 53.18 144.15 53.18C143.203 53.18 142.337 52.94 141.55 52.46C140.763 51.9667 140.137 51.2867 139.67 50.42C139.217 49.54 138.99 48.5467 138.99 47.44ZM148.01 47.48C148.01 46.72 147.85 46.06 147.53 45.5C147.223 44.94 146.817 44.5133 146.31 44.22C145.803 43.9267 145.257 43.78 144.67 43.78C144.083 43.78 143.537 43.9267 143.03 44.22C142.523 44.5 142.11 44.92 141.79 45.48C141.483 46.0267 141.33 46.68 141.33 47.44C141.33 48.2 141.483 48.8667 141.79 49.44C142.11 50.0133 142.523 50.4533 143.03 50.76C143.55 51.0533 144.097 51.2 144.67 51.2C145.257 51.2 145.803 51.0533 146.31 50.76C146.817 50.4667 147.223 50.04 147.53 49.48C147.85 48.9067 148.01 48.24 148.01 47.48ZM161.765 44.8V46.72H153.545V44.8H161.765ZM164.244 47.44C164.244 46.3333 164.471 45.3533 164.924 44.5C165.391 43.6467 166.017 42.9867 166.804 42.52C167.604 42.04 168.491 41.8 169.464 41.8C170.184 41.8 170.891 41.96 171.584 42.28C172.291 42.5867 172.851 43 173.264 43.52V38.2H175.564V53H173.264V51.34C172.891 51.8733 172.371 52.3133 171.704 52.66C171.051 53.0067 170.297 53.18 169.444 53.18C168.484 53.18 167.604 52.94 166.804 52.46C166.017 51.9667 165.391 51.2867 164.924 50.42C164.471 49.54 164.244 48.5467 164.244 47.44ZM173.264 47.48C173.264 46.72 173.104 46.06 172.784 45.5C172.477 44.94 172.071 44.5133 171.564 44.22C171.057 43.9267 170.511 43.78 169.924 43.78C169.337 43.78 168.791 43.9267 168.284 44.22C167.777 44.5 167.364 44.92 167.044 45.48C166.737 46.0267 166.584 46.68 166.584 47.44C166.584 48.2 166.737 48.8667 167.044 49.44C167.364 50.0133 167.777 50.4533 168.284 50.76C168.804 51.0533 169.351 51.2 169.924 51.2C170.511 51.2 171.057 51.0533 171.564 50.76C172.071 50.4667 172.477 50.04 172.784 49.48C173.104 48.9067 173.264 48.24 173.264 47.48ZM177.799 47.44C177.799 46.3333 178.025 45.3533 178.479 44.5C178.945 43.6467 179.572 42.9867 180.359 42.52C181.159 42.04 182.039 41.8 182.999 41.8C183.865 41.8 184.619 41.9733 185.259 42.32C185.912 42.6533 186.432 43.0733 186.819 43.58V41.98H189.119V53H186.819V51.36C186.432 51.88 185.905 52.3133 185.239 52.66C184.572 53.0067 183.812 53.18 182.959 53.18C182.012 53.18 181.145 52.94 180.359 52.46C179.572 51.9667 178.945 51.2867 178.479 50.42C178.025 49.54 177.799 48.5467 177.799 47.44ZM186.819 47.48C186.819 46.72 186.659 46.06 186.339 45.5C186.032 44.94 185.625 44.5133 185.119 44.22C184.612 43.9267 184.065 43.78 183.479 43.78C182.892 43.78 182.345 43.9267 181.839 44.22C181.332 44.5 180.919 44.92 180.599 45.48C180.292 46.0267 180.139 46.68 180.139 47.44C180.139 48.2 180.292 48.8667 180.599 49.44C180.919 50.0133 181.332 50.4533 181.839 50.76C182.359 51.0533 182.905 51.2 183.479 51.2C184.065 51.2 184.612 51.0533 185.119 50.76C185.625 50.4667 186.032 50.04 186.339 49.48C186.659 48.9067 186.819 48.24 186.819 47.48ZM194.973 39.1L194.713 48.8H192.813L192.553 39.1H194.973ZM193.833 53.14C193.42 53.14 193.073 53 192.793 52.72C192.513 52.44 192.373 52.0933 192.373 51.68C192.373 51.2667 192.513 50.92 192.793 50.64C193.073 50.36 193.42 50.22 193.833 50.22C194.233 50.22 194.573 50.36 194.853 50.64C195.133 50.92 195.273 51.2667 195.273 51.68C195.273 52.0933 195.133 52.44 194.853 52.72C194.573 53 194.233 53.14 193.833 53.14ZM46.7102 69.1L42.1102 77.96V83H39.8302V77.96L35.2102 69.1H37.7502L40.9702 75.92L44.1902 69.1H46.7102ZM53.2995 83.18C52.2595 83.18 51.3195 82.9467 50.4795 82.48C49.6395 82 48.9795 81.3333 48.4995 80.48C48.0195 79.6133 47.7795 78.6133 47.7795 77.48C47.7795 76.36 48.0262 75.3667 48.5195 74.5C49.0129 73.6333 49.6862 72.9667 50.5395 72.5C51.3929 72.0333 52.3462 71.8 53.3995 71.8C54.4529 71.8 55.4062 72.0333 56.2595 72.5C57.1129 72.9667 57.7862 73.6333 58.2795 74.5C58.7729 75.3667 59.0195 76.36 59.0195 77.48C59.0195 78.6 58.7662 79.5933 58.2595 80.46C57.7529 81.3267 57.0595 82 56.1795 82.48C55.3129 82.9467 54.3529 83.18 53.2995 83.18ZM53.2995 81.2C53.8862 81.2 54.4329 81.06 54.9395 80.78C55.4595 80.5 55.8795 80.08 56.1995 79.52C56.5195 78.96 56.6795 78.28 56.6795 77.48C56.6795 76.68 56.5262 76.0067 56.2195 75.46C55.9129 74.9 55.5062 74.48 54.9995 74.2C54.4929 73.92 53.9462 73.78 53.3595 73.78C52.7729 73.78 52.2262 73.92 51.7195 74.2C51.2262 74.48 50.8329 74.9 50.5395 75.46C50.2462 76.0067 50.0995 76.68 50.0995 77.48C50.0995 78.6667 50.3995 79.5867 50.9995 80.24C51.6129 80.88 52.3795 81.2 53.2995 81.2ZM71.2534 71.98V83H68.9734V81.7C68.6134 82.1533 68.1401 82.5133 67.5534 82.78C66.9801 83.0333 66.3668 83.16 65.7134 83.16C64.8468 83.16 64.0668 82.98 63.3734 82.62C62.6934 82.26 62.1534 81.7267 61.7534 81.02C61.3668 80.3133 61.1734 79.46 61.1734 78.46V71.98H63.4334V78.12C63.4334 79.1067 63.6801 79.8667 64.1734 80.4C64.6668 80.92 65.3401 81.18 66.1934 81.18C67.0468 81.18 67.7201 80.92 68.2134 80.4C68.7201 79.8667 68.9734 79.1067 68.9734 78.12V71.98H71.2534ZM76.5417 73.58C76.8751 73.02 77.3151 72.5867 77.8617 72.28C78.4217 71.96 79.0817 71.8 79.8417 71.8V74.16H79.2617C78.3684 74.16 77.6884 74.3867 77.2217 74.84C76.7684 75.2933 76.5417 76.08 76.5417 77.2V83H74.2617V71.98H76.5417V73.58ZM86.3728 77.44C86.3728 76.3333 86.5995 75.3533 87.0528 74.5C87.5195 73.6467 88.1461 72.9867 88.9328 72.52C89.7328 72.04 90.6128 71.8 91.5728 71.8C92.4395 71.8 93.1928 71.9733 93.8328 72.32C94.4861 72.6533 95.0061 73.0733 95.3928 73.58V71.98H97.6928V83H95.3928V81.36C95.0061 81.88 94.4795 82.3133 93.8128 82.66C93.1461 83.0067 92.3861 83.18 91.5328 83.18C90.5861 83.18 89.7195 82.94 88.9328 82.46C88.1461 81.9667 87.5195 81.2867 87.0528 80.42C86.5995 79.54 86.3728 78.5467 86.3728 77.44ZM95.3928 77.48C95.3928 76.72 95.2328 76.06 94.9128 75.5C94.6061 74.94 94.1995 74.5133 93.6928 74.22C93.1861 73.9267 92.6395 73.78 92.0528 73.78C91.4661 73.78 90.9195 73.9267 90.4128 74.22C89.9061 74.5 89.4928 74.92 89.1728 75.48C88.8661 76.0267 88.7128 76.68 88.7128 77.44C88.7128 78.2 88.8661 78.8667 89.1728 79.44C89.4928 80.0133 89.9061 80.4533 90.4128 80.76C90.9328 81.0533 91.4795 81.2 92.0528 81.2C92.6395 81.2 93.1861 81.0533 93.6928 80.76C94.1995 80.4667 94.6061 80.04 94.9128 79.48C95.2328 78.9067 95.3928 78.24 95.3928 77.48ZM105.128 71.8C105.981 71.8 106.734 71.9733 107.388 72.32C108.054 72.6533 108.574 73.0733 108.948 73.58V71.98H111.248V83.18C111.248 84.1933 111.034 85.0933 110.608 85.88C110.181 86.68 109.561 87.3067 108.748 87.76C107.948 88.2133 106.988 88.44 105.868 88.44C104.374 88.44 103.134 88.0867 102.148 87.38C101.161 86.6867 100.601 85.74 100.468 84.54H102.728C102.901 85.1133 103.268 85.5733 103.828 85.92C104.401 86.28 105.081 86.46 105.868 86.46C106.788 86.46 107.528 86.18 108.088 85.62C108.661 85.06 108.948 84.2467 108.948 83.18V81.34C108.561 81.86 108.034 82.3 107.368 82.66C106.714 83.0067 105.968 83.18 105.128 83.18C104.168 83.18 103.288 82.94 102.488 82.46C101.701 81.9667 101.074 81.2867 100.608 80.42C100.154 79.54 99.9275 78.5467 99.9275 77.44C99.9275 76.3333 100.154 75.3533 100.608 74.5C101.074 73.6467 101.701 72.9867 102.488 72.52C103.288 72.04 104.168 71.8 105.128 71.8ZM108.948 77.48C108.948 76.72 108.788 76.06 108.468 75.5C108.161 74.94 107.754 74.5133 107.248 74.22C106.741 73.9267 106.194 73.78 105.608 73.78C105.021 73.78 104.474 73.9267 103.968 74.22C103.461 74.5 103.048 74.92 102.728 75.48C102.421 76.0267 102.268 76.68 102.268 77.44C102.268 78.2 102.421 78.8667 102.728 79.44C103.048 80.0133 103.461 80.4533 103.968 80.76C104.488 81.0533 105.034 81.2 105.608 81.2C106.194 81.2 106.741 81.0533 107.248 80.76C107.754 80.4667 108.161 80.04 108.468 79.48C108.788 78.9067 108.948 78.24 108.948 77.48ZM124.342 77.22C124.342 77.6333 124.316 78.0067 124.262 78.34H115.842C115.909 79.22 116.236 79.9267 116.822 80.46C117.409 80.9933 118.129 81.26 118.982 81.26C120.209 81.26 121.076 80.7467 121.582 79.72H124.042C123.709 80.7333 123.102 81.5667 122.222 82.22C121.356 82.86 120.276 83.18 118.982 83.18C117.929 83.18 116.982 82.9467 116.142 82.48C115.316 82 114.662 81.3333 114.182 80.48C113.716 79.6133 113.482 78.6133 113.482 77.48C113.482 76.3467 113.709 75.3533 114.162 74.5C114.629 73.6333 115.276 72.9667 116.102 72.5C116.942 72.0333 117.902 71.8 118.982 71.8C120.022 71.8 120.949 72.0267 121.762 72.48C122.576 72.9333 123.209 73.5733 123.662 74.4C124.116 75.2133 124.342 76.1533 124.342 77.22ZM121.962 76.5C121.949 75.66 121.649 74.9867 121.062 74.48C120.476 73.9733 119.749 73.72 118.882 73.72C118.096 73.72 117.422 73.9733 116.862 74.48C116.302 74.9733 115.969 75.6467 115.862 76.5H121.962ZM132.146 71.8C133.013 71.8 133.786 71.98 134.466 72.34C135.159 72.7 135.699 73.2333 136.086 73.94C136.473 74.6467 136.666 75.5 136.666 76.5V83H134.406V76.84C134.406 75.8533 134.159 75.1 133.666 74.58C133.173 74.0467 132.499 73.78 131.646 73.78C130.793 73.78 130.113 74.0467 129.606 74.58C129.113 75.1 128.866 75.8533 128.866 76.84V83H126.586V71.98H128.866V73.24C129.239 72.7867 129.713 72.4333 130.286 72.18C130.873 71.9267 131.493 71.8 132.146 71.8ZM138.814 77.44C138.814 76.3333 139.041 75.3533 139.494 74.5C139.961 73.6467 140.588 72.9867 141.374 72.52C142.174 72.04 143.061 71.8 144.034 71.8C144.754 71.8 145.461 71.96 146.154 72.28C146.861 72.5867 147.421 73 147.834 73.52V68.2H150.134V83H147.834V81.34C147.461 81.8733 146.941 82.3133 146.274 82.66C145.621 83.0067 144.868 83.18 144.014 83.18C143.054 83.18 142.174 82.94 141.374 82.46C140.588 81.9667 139.961 81.2867 139.494 80.42C139.041 79.54 138.814 78.5467 138.814 77.44ZM147.834 77.48C147.834 76.72 147.674 76.06 147.354 75.5C147.048 74.94 146.641 74.5133 146.134 74.22C145.628 73.9267 145.081 73.78 144.494 73.78C143.908 73.78 143.361 73.9267 142.854 74.22C142.348 74.5 141.934 74.92 141.614 75.48C141.308 76.0267 141.154 76.68 141.154 77.44C141.154 78.2 141.308 78.8667 141.614 79.44C141.934 80.0133 142.348 80.4533 142.854 80.76C143.374 81.0533 143.921 81.2 144.494 81.2C145.081 81.2 145.628 81.0533 146.134 80.76C146.641 80.4667 147.048 80.04 147.354 79.48C147.674 78.9067 147.834 78.24 147.834 77.48ZM152.369 77.44C152.369 76.3333 152.596 75.3533 153.049 74.5C153.516 73.6467 154.142 72.9867 154.929 72.52C155.729 72.04 156.609 71.8 157.569 71.8C158.436 71.8 159.189 71.9733 159.829 72.32C160.482 72.6533 161.002 73.0733 161.389 73.58V71.98H163.689V83H161.389V81.36C161.002 81.88 160.476 82.3133 159.809 82.66C159.142 83.0067 158.382 83.18 157.529 83.18C156.582 83.18 155.716 82.94 154.929 82.46C154.142 81.9667 153.516 81.2867 153.049 80.42C152.596 79.54 152.369 78.5467 152.369 77.44ZM161.389 77.48C161.389 76.72 161.229 76.06 160.909 75.5C160.602 74.94 160.196 74.5133 159.689 74.22C159.182 73.9267 158.636 73.78 158.049 73.78C157.462 73.78 156.916 73.9267 156.409 74.22C155.902 74.5 155.489 74.92 155.169 75.48C154.862 76.0267 154.709 76.68 154.709 77.44C154.709 78.2 154.862 78.8667 155.169 79.44C155.489 80.0133 155.902 80.4533 156.409 80.76C156.929 81.0533 157.476 81.2 158.049 81.2C158.636 81.2 159.182 81.0533 159.689 80.76C160.196 80.4667 160.602 80.04 160.909 79.48C161.229 78.9067 161.389 78.24 161.389 77.48ZM174.159 68.2V83H171.879V68.2H174.159ZM181.932 83.18C180.892 83.18 179.952 82.9467 179.112 82.48C178.272 82 177.612 81.3333 177.132 80.48C176.652 79.6133 176.412 78.6133 176.412 77.48C176.412 76.36 176.659 75.3667 177.152 74.5C177.646 73.6333 178.319 72.9667 179.172 72.5C180.026 72.0333 180.979 71.8 182.032 71.8C183.086 71.8 184.039 72.0333 184.892 72.5C185.746 72.9667 186.419 73.6333 186.912 74.5C187.406 75.3667 187.652 76.36 187.652 77.48C187.652 78.6 187.399 79.5933 186.892 80.46C186.386 81.3267 185.692 82 184.812 82.48C183.946 82.9467 182.986 83.18 181.932 83.18ZM181.932 81.2C182.519 81.2 183.066 81.06 183.572 80.78C184.092 80.5 184.512 80.08 184.832 79.52C185.152 78.96 185.312 78.28 185.312 77.48C185.312 76.68 185.159 76.0067 184.852 75.46C184.546 74.9 184.139 74.48 183.632 74.2C183.126 73.92 182.579 73.78 181.992 73.78C181.406 73.78 180.859 73.92 180.352 74.2C179.859 74.48 179.466 74.9 179.172 75.46C178.879 76.0067 178.732 76.68 178.732 77.48C178.732 78.6667 179.032 79.5867 179.632 80.24C180.246 80.88 181.012 81.2 181.932 81.2ZM194.686 83.18C193.646 83.18 192.706 82.9467 191.866 82.48C191.026 82 190.366 81.3333 189.886 80.48C189.406 79.6133 189.166 78.6133 189.166 77.48C189.166 76.36 189.413 75.3667 189.906 74.5C190.4 73.6333 191.073 72.9667 191.926 72.5C192.78 72.0333 193.733 71.8 194.786 71.8C195.84 71.8 196.793 72.0333 197.646 72.5C198.5 72.9667 199.173 73.6333 199.666 74.5C200.16 75.3667 200.406 76.36 200.406 77.48C200.406 78.6 200.153 79.5933 199.646 80.46C199.14 81.3267 198.446 82 197.566 82.48C196.7 82.9467 195.74 83.18 194.686 83.18ZM194.686 81.2C195.273 81.2 195.82 81.06 196.326 80.78C196.846 80.5 197.266 80.08 197.586 79.52C197.906 78.96 198.066 78.28 198.066 77.48C198.066 76.68 197.913 76.0067 197.606 75.46C197.3 74.9 196.893 74.48 196.386 74.2C195.88 73.92 195.333 73.78 194.746 73.78C194.16 73.78 193.613 73.92 193.106 74.2C192.613 74.48 192.22 74.9 191.926 75.46C191.633 76.0067 191.486 76.68 191.486 77.48C191.486 78.6667 191.786 79.5867 192.386 80.24C193 80.88 193.766 81.2 194.686 81.2ZM207.02 77.5L212.1 83H209.02L204.94 78.26V83H202.66V68.2H204.94V76.8L208.94 71.98H212.1L207.02 77.5ZM217.734 83.18C216.868 83.18 216.088 83.0267 215.394 82.72C214.714 82.4 214.174 81.9733 213.774 81.44C213.374 80.8933 213.161 80.2867 213.134 79.62H215.494C215.534 80.0867 215.754 80.48 216.154 80.8C216.568 81.1067 217.081 81.26 217.694 81.26C218.334 81.26 218.828 81.14 219.174 80.9C219.534 80.6467 219.714 80.3267 219.714 79.94C219.714 79.5267 219.514 79.22 219.114 79.02C218.728 78.82 218.108 78.6 217.254 78.36C216.428 78.1333 215.754 77.9133 215.234 77.7C214.714 77.4867 214.261 77.16 213.874 76.72C213.501 76.28 213.314 75.7 213.314 74.98C213.314 74.3933 213.488 73.86 213.834 73.38C214.181 72.8867 214.674 72.5 215.314 72.22C215.968 71.94 216.714 71.8 217.554 71.8C218.808 71.8 219.814 72.12 220.574 72.76C221.348 73.3867 221.761 74.2467 221.814 75.34H219.534C219.494 74.8467 219.294 74.4533 218.934 74.16C218.574 73.8667 218.088 73.72 217.474 73.72C216.874 73.72 216.414 73.8333 216.094 74.06C215.774 74.2867 215.614 74.5867 215.614 74.96C215.614 75.2533 215.721 75.5 215.934 75.7C216.148 75.9 216.408 76.06 216.714 76.18C217.021 76.2867 217.474 76.4267 218.074 76.6C218.874 76.8133 219.528 77.0333 220.034 77.26C220.554 77.4733 221.001 77.7933 221.374 78.22C221.748 78.6467 221.941 79.2133 221.954 79.92C221.954 80.5467 221.781 81.1067 221.434 81.6C221.088 82.0933 220.594 82.48 219.954 82.76C219.328 83.04 218.588 83.18 217.734 83.18ZM228.853 77.48C228.853 76.3467 229.08 75.3533 229.533 74.5C230 73.6333 230.64 72.9667 231.453 72.5C232.267 72.0333 233.2 71.8 234.253 71.8C235.587 71.8 236.687 72.12 237.553 72.76C238.433 73.3867 239.027 74.2867 239.333 75.46H236.873C236.673 74.9133 236.353 74.4867 235.913 74.18C235.473 73.8733 234.92 73.72 234.253 73.72C233.32 73.72 232.573 74.0533 232.013 74.72C231.467 75.3733 231.193 76.2933 231.193 77.48C231.193 78.6667 231.467 79.5933 232.013 80.26C232.573 80.9267 233.32 81.26 234.253 81.26C235.573 81.26 236.447 80.68 236.873 79.52H239.333C239.013 80.64 238.413 81.5333 237.533 82.2C236.653 82.8533 235.56 83.18 234.253 83.18C233.2 83.18 232.267 82.9467 231.453 82.48C230.64 82 230 81.3333 229.533 80.48C229.08 79.6133 228.853 78.6133 228.853 77.48ZM243.885 68.2V83H241.605V68.2H243.885ZM256.979 77.22C256.979 77.6333 256.952 78.0067 256.899 78.34H248.479C248.546 79.22 248.872 79.9267 249.459 80.46C250.046 80.9933 250.766 81.26 251.619 81.26C252.846 81.26 253.712 80.7467 254.219 79.72H256.679C256.346 80.7333 255.739 81.5667 254.859 82.22C253.992 82.86 252.912 83.18 251.619 83.18C250.566 83.18 249.619 82.9467 248.779 82.48C247.952 82 247.299 81.3333 246.819 80.48C246.352 79.6133 246.119 78.6133 246.119 77.48C246.119 76.3467 246.346 75.3533 246.799 74.5C247.266 73.6333 247.912 72.9667 248.739 72.5C249.579 72.0333 250.539 71.8 251.619 71.8C252.659 71.8 253.586 72.0267 254.399 72.48C255.212 72.9333 255.846 73.5733 256.299 74.4C256.752 75.2133 256.979 76.1533 256.979 77.22ZM254.599 76.5C254.586 75.66 254.286 74.9867 253.699 74.48C253.112 73.9733 252.386 73.72 251.519 73.72C250.732 73.72 250.059 73.9733 249.499 74.48C248.939 74.9733 248.606 75.6467 248.499 76.5H254.599ZM258.463 77.44C258.463 76.3333 258.689 75.3533 259.143 74.5C259.609 73.6467 260.236 72.9867 261.023 72.52C261.823 72.04 262.703 71.8 263.663 71.8C264.529 71.8 265.283 71.9733 265.923 72.32C266.576 72.6533 267.096 73.0733 267.483 73.58V71.98H269.783V83H267.483V81.36C267.096 81.88 266.569 82.3133 265.903 82.66C265.236 83.0067 264.476 83.18 263.623 83.18C262.676 83.18 261.809 82.94 261.023 82.46C260.236 81.9667 259.609 81.2867 259.143 80.42C258.689 79.54 258.463 78.5467 258.463 77.44ZM267.483 77.48C267.483 76.72 267.323 76.06 267.003 75.5C266.696 74.94 266.289 74.5133 265.783 74.22C265.276 73.9267 264.729 73.78 264.143 73.78C263.556 73.78 263.009 73.9267 262.503 74.22C261.996 74.5 261.583 74.92 261.263 75.48C260.956 76.0267 260.803 76.68 260.803 77.44C260.803 78.2 260.956 78.8667 261.263 79.44C261.583 80.0133 261.996 80.4533 262.503 80.76C263.023 81.0533 263.569 81.2 264.143 81.2C264.729 81.2 265.276 81.0533 265.783 80.76C266.289 80.4667 266.696 80.04 267.003 79.48C267.323 78.9067 267.483 78.24 267.483 77.48ZM278.337 71.8C279.204 71.8 279.977 71.98 280.657 72.34C281.351 72.7 281.891 73.2333 282.277 73.94C282.664 74.6467 282.857 75.5 282.857 76.5V83H280.597V76.84C280.597 75.8533 280.351 75.1 279.857 74.58C279.364 74.0467 278.691 73.78 277.837 73.78C276.984 73.78 276.304 74.0467 275.797 74.58C275.304 75.1 275.057 75.8533 275.057 76.84V83H272.777V71.98H275.057V73.24C275.431 72.7867 275.904 72.4333 276.477 72.18C277.064 71.9267 277.684 71.8 278.337 71.8ZM286.686 83.14C286.272 83.14 285.926 83 285.646 82.72C285.366 82.44 285.226 82.0933 285.226 81.68C285.226 81.2667 285.366 80.92 285.646 80.64C285.926 80.36 286.272 80.22 286.686 80.22C287.086 80.22 287.426 80.36 287.706 80.64C287.986 80.92 288.126 81.2667 288.126 81.68C288.126 82.0933 287.986 82.44 287.706 82.72C287.426 83 287.086 83.14 286.686 83.14Z" fill="black"/>
<defs>
<clipPath id="clip0">
<rect width="143" height="112.583" fill="white" transform="translate(91 138)"/>
</clipPath>
</defs>
</svg>
