<svg xmlns="http://www.w3.org/2000/svg" width="603.486" height="642.812" viewBox="0 0 603.486 642.812">
  <g id="empty-todo" transform="translate(-658.753 -162.928)">
    <path id="Path_528" data-name="Path 528" d="M-102.885-16.778l3.963-4.286q1.638-1.585,2.536-2.348a21.678,21.678,0,0,1,2.224-1.624A7.768,7.768,0,0,1-89.93-26.6q1.443,0,1.443,1.074a3.787,3.787,0,0,1-.391,1.64A5.329,5.329,0,0,1-89.932-22.4a26.738,26.738,0,0,1-4.57,3.242,36.575,36.575,0,0,0-3.984,2.754q.235,1.445.519,2.607a15.892,15.892,0,0,0,.635,2.051q.351.889,1,2.139a20.428,20.428,0,0,0,1.562,2.578,11.012,11.012,0,0,0,4.2,3.75q.645.312.645.566a1.567,1.567,0,0,1-.685,1.074A6.088,6.088,0,0,1-92.8-.2,6.984,6.984,0,0,1-95.39.313,7.593,7.593,0,0,1-99.675-.943a7.987,7.987,0,0,1-2.9-3.525,19.52,19.52,0,0,1-1.506-6.216,11.463,11.463,0,0,1-.077-1.387h-.078a15.611,15.611,0,0,0-1.153,1.865q-.352.713-1.095,2.568a24.757,24.757,0,0,1-1.622,3.643,7.736,7.736,0,0,1-1.7,2.08A8.945,8.945,0,0,1-111.8-.605a4.418,4.418,0,0,1-1.818.527,1.123,1.123,0,0,1-.88-.4,1.414,1.414,0,0,1-.352-.967,2.949,2.949,0,0,1,.039-.547q.918-3.691,2-7.49t2.217-7.168q1.133-3.369,2.091-5.713a14.053,14.053,0,0,1,1.487-2.988,4.466,4.466,0,0,1,1.859-1.182,7.284,7.284,0,0,1,2.563-.459,3.377,3.377,0,0,1,1.722.323,1.167,1.167,0,0,1,.509,1.067q0,1.018-2.07,6.731-.137.411-.459,1.282t-.459,1.281l.078.1Zm22.466,10.7a5.845,5.845,0,0,0,1.367-1.211,9.429,9.429,0,0,0,1.6-2.91,12.122,12.122,0,0,0,.7-2.4,13.253,13.253,0,0,0,.254-2.48q0-1.074-.449-1.074-.625,0-1.914,2.754a23.9,23.9,0,0,0-1.24,3.311,10.456,10.456,0,0,0-.479,2.842A6.3,6.3,0,0,0-80.42-6.074Zm.039.625a1.356,1.356,0,0,0,1.523,1.172A7.169,7.169,0,0,0-75.049-6a4.5,4.5,0,0,1,1.836-1,2.05,2.05,0,0,1,1.094.313q.508.313.508.645a1.548,1.548,0,0,1-.566.918A20.4,20.4,0,0,1-74.561-3.1a20.639,20.639,0,0,1-2.6,1.641,14.516,14.516,0,0,1-2.5,1.035,7.747,7.747,0,0,1-2.227.381,5.426,5.426,0,0,1-3.906-1.4,4.9,4.9,0,0,1-1.465-3.721,12.467,12.467,0,0,1,.771-4.014,18.1,18.1,0,0,1,2.08-4.189,14.063,14.063,0,0,1,3.789-3.809A9.682,9.682,0,0,1-75.3-19a3.677,3.677,0,0,1,2.881,1.162,4.6,4.6,0,0,1,1.045,3.193,7.585,7.585,0,0,1-.83,3.3,11.862,11.862,0,0,1-2.451,3.3,12.941,12.941,0,0,1-2.607,2.07,4.621,4.621,0,0,1-2.236.742A2.028,2.028,0,0,1-80.381-5.449Zm17.031-.625a5.845,5.845,0,0,0,1.367-1.211,9.429,9.429,0,0,0,1.6-2.91,12.122,12.122,0,0,0,.7-2.4,13.254,13.254,0,0,0,.254-2.48q0-1.074-.449-1.074-.625,0-1.914,2.754a23.9,23.9,0,0,0-1.24,3.311,10.456,10.456,0,0,0-.479,2.842A6.3,6.3,0,0,0-63.35-6.074Zm.039.625a1.356,1.356,0,0,0,1.523,1.172A7.169,7.169,0,0,0-57.979-6a4.5,4.5,0,0,1,1.836-1,2.05,2.05,0,0,1,1.094.313q.508.313.508.645a1.548,1.548,0,0,1-.566.918A20.4,20.4,0,0,1-57.49-3.1a20.64,20.64,0,0,1-2.6,1.641,14.516,14.516,0,0,1-2.5,1.035,7.747,7.747,0,0,1-2.227.381,5.426,5.426,0,0,1-3.906-1.4,4.9,4.9,0,0,1-1.465-3.721,12.467,12.467,0,0,1,.771-4.014,18.1,18.1,0,0,1,2.08-4.189,14.063,14.063,0,0,1,3.789-3.809A9.682,9.682,0,0,1-58.232-19a3.677,3.677,0,0,1,2.881,1.162,4.6,4.6,0,0,1,1.045,3.193,7.585,7.585,0,0,1-.83,3.3,11.862,11.862,0,0,1-2.451,3.3A12.941,12.941,0,0,1-60.2-5.977a4.621,4.621,0,0,1-2.236.742A2.028,2.028,0,0,1-63.311-5.449Zm18.125.977a2.068,2.068,0,0,0,2.07,1.6,2.752,2.752,0,0,0,2-.967,6.909,6.909,0,0,0,1.484-2.617,10.774,10.774,0,0,0,.557-3.467,12.146,12.146,0,0,0-.225-2.5q-.225-1.055-.5-1.055-.2,0-1,1.035a22.6,22.6,0,0,0-1.6,2.4,33.642,33.642,0,0,0-2.48,4.688A8.348,8.348,0,0,0-45.186-4.473ZM-43.7-12.8l.607-1.139A27.659,27.659,0,0,1-41.5-16.46a8.309,8.309,0,0,1,1.3-1.483,4.658,4.658,0,0,1,1.351-.766,3.8,3.8,0,0,1,1.409-.255,4.2,4.2,0,0,1,2.632.879,5.529,5.529,0,0,1,1.761,2.52,10.675,10.675,0,0,1,.616,3.77,13.266,13.266,0,0,1-1.377,5.889,12.73,12.73,0,0,1-3.614,4.561A7.453,7.453,0,0,1-42.044.391,4.258,4.258,0,0,1-44.359-.2a5.344,5.344,0,0,1-1.71-2.012l-.133.333-.117.43q-1.27,4.082-2.021,6.006a6.283,6.283,0,0,1-1.3,2.354,1.4,1.4,0,0,1-1,.41A1.924,1.924,0,0,1-52.373,6.23,6.23,6.23,0,0,1-53,3.164a34.244,34.244,0,0,1,.469-5.156,59.713,59.713,0,0,1,1.3-6.133,51.254,51.254,0,0,1,1.842-5.684,15.792,15.792,0,0,1,1.46-2.734,6.942,6.942,0,0,1,1.518-1.7,2.171,2.171,0,0,1,1.129-.312,1.861,1.861,0,0,1,1.383.491,1.9,1.9,0,0,1,.487,1.4,10.2,10.2,0,0,1-.156,1.69q-.117.9-.215,2.083Zm30,6.84-.078.391a8.334,8.334,0,0,1-.078.957,11.618,11.618,0,0,1-.215,1.563,2.906,2.906,0,0,1-.41,1.006,5.52,5.52,0,0,1-.742.85A4.275,4.275,0,0,1-18.1.117a1.913,1.913,0,0,1-1.729-.859,5.269,5.269,0,0,1-.557-2.773,25.62,25.62,0,0,1,.342-3.76,35.466,35.466,0,0,1,.83-4.014l.156-.508a2.141,2.141,0,0,1,.117-.488,25.559,25.559,0,0,1,1.328-3.936,6.5,6.5,0,0,1,1.465-2.061,2.69,2.69,0,0,1,1.719-.605q1.387,0,1.68,1.68a4.231,4.231,0,0,0,.527-.547,5.625,5.625,0,0,1,.879-.908,1.206,1.206,0,0,1,.723-.225q1.68,0,1.68,3.32a15.643,15.643,0,0,1-.391,3.516,10.727,10.727,0,0,1-.986,2.773q-.6,1.074-1.182,1.074-.645,0-.645-2.441a10.848,10.848,0,0,0-.146-2.021,2.774,2.774,0,0,0-.459-1.143,14.433,14.433,0,0,0-.762,5Q-13.643-6.543-13.7-5.957ZM5.674-19.648q2.91,0,2.91.684,0,.781-1.309.84a6.556,6.556,0,0,0-2.949.9,8.457,8.457,0,0,0-2.432,2.188,10.886,10.886,0,0,0-1.66,3.125,11.248,11.248,0,0,0-.6,3.672,5.484,5.484,0,0,0,1,3.428,3.123,3.123,0,0,0,2.6,1.3,3.192,3.192,0,0,0,2.6-1.523A5.863,5.863,0,0,0,6.943-8.594a7.15,7.15,0,0,0-.693-3.115A6.554,6.554,0,0,0,4.229-14.16q-.566-.449-.566-.645,0-.273.8-.84A9.393,9.393,0,0,1,6.475-16.66a5.628,5.628,0,0,1,1.875-.41,3.277,3.277,0,0,1,1.67.459,4.492,4.492,0,0,1,1.4,1.309,6.451,6.451,0,0,1,.928,1.953A8.358,8.358,0,0,1,12.666-11,11.269,11.269,0,0,1,11.885-6.9,9.132,9.132,0,0,1,9.834-3.633,13.222,13.222,0,0,1,5.879-1.045a11.056,11.056,0,0,1-4.4,1.006,12.1,12.1,0,0,1-4.033-.7A8.441,8.441,0,0,1-5.732-2.6,6,6,0,0,1-7.295-7.031a10.2,10.2,0,0,1,1.113-4.531,14.784,14.784,0,0,1,3.018-4.111,15.2,15.2,0,0,1,4.2-2.91A10.929,10.929,0,0,1,5.674-19.648Zm19.355.8a3.6,3.6,0,0,1,2.363.859,2.764,2.764,0,0,1,.879,2.148,4.771,4.771,0,0,1-.674,2.363,6.19,6.19,0,0,1-1.7,1.953,3.44,3.44,0,0,1-2.061.762q-.605,0-.605-.43a2.366,2.366,0,0,1,.234-.684,5.725,5.725,0,0,0,.762-2.969q0-.84-.2-.84-.273,0-.781.7a6.86,6.86,0,0,0-.859,1.66,22.2,22.2,0,0,0-1.006,3.2,12.892,12.892,0,0,0-.4,2.871,4.536,4.536,0,0,0,.4,2.09,1.233,1.233,0,0,0,1.123.762,3.687,3.687,0,0,0,1.777-.7A11.33,11.33,0,0,0,26.4-6.836q.41-.527.723-.527.469,0,.469.527A6.149,6.149,0,0,1,25.713-2.48,10.519,10.519,0,0,1,22.754-.4a7.127,7.127,0,0,1-3,.791,5.4,5.4,0,0,1-3.867-1.465,4.874,4.874,0,0,1-1.543-3.691,12.528,12.528,0,0,1,.986-4.678,19.456,19.456,0,0,1,2.7-4.658A17.162,17.162,0,0,1,21.9-17.793a5.452,5.452,0,0,1,3.047-1.055ZM48.311,3.47q-2.734,3.522-4.16,3.522a3.8,3.8,0,0,1-2.178-.811,9.386,9.386,0,0,1-2.139-2.187,12.221,12.221,0,0,1-1.582-2.979,8.87,8.87,0,0,1-.586-3.047,1.583,1.583,0,0,1,.273-1.094,4.141,4.141,0,0,1,.527-.391q3.281-2.031,3.281-3.848,0-.957-.84-.957-.9,0-2.314,1.729a19.579,19.579,0,0,0-2.568,4.229A6.283,6.283,0,0,1,34.854-.352a2.074,2.074,0,0,1-1.387.391,2.894,2.894,0,0,1-1.8-.576,3.694,3.694,0,0,1-1.182-1.641,6.588,6.588,0,0,1-.42-2.432A22.451,22.451,0,0,1,30.6-9.219a34.481,34.481,0,0,1,1.475-5.02,38.894,38.894,0,0,1,2.256-4.922A31.364,31.364,0,0,1,37.061-23.4q2.813-3.555,5.488-3.555a4.646,4.646,0,0,1,2.373.605,4.072,4.072,0,0,1,1.611,1.719,5.656,5.656,0,0,1,.566,2.6,8.071,8.071,0,0,1-.9,3.623,8.587,8.587,0,0,1-2.334,2.949,4.621,4.621,0,0,1-2.881,1.143q-.684,0-.684-.488a3.138,3.138,0,0,1,.352-.918,16.857,16.857,0,0,0,1.719-7.715q0-1.113-.273-1.113-.2,0-.6.566a8.43,8.43,0,0,0-.771,1.387,43.28,43.28,0,0,0-3.105,11.113q-.059.332-.127.879t-.166,1.25l.078.078a17.143,17.143,0,0,1,1.318-1.689,10.477,10.477,0,0,1,1.377-1.2,8.181,8.181,0,0,1,4.922-2.07,2.75,2.75,0,0,1,1.924.683,2.267,2.267,0,0,1,.752,1.757,10.53,10.53,0,0,1-1.678,5.428,14.361,14.361,0,0,1-1.083,1.62q-.615.8-1.766,2.07a27.422,27.422,0,0,0,1.605,2.4A14.316,14.316,0,0,0,46.8,1.827,7.11,7.11,0,0,1,48.311,3.47ZM52.584.2a2.429,2.429,0,0,1-1.6-.8A4.646,4.646,0,0,1,49.96-2.295a7.609,7.609,0,0,1-.3-2.354,25.9,25.9,0,0,1,1.2-7.275,16.768,16.768,0,0,1,2.724-5.869,2.025,2.025,0,0,1,1.679-.762,2.11,2.11,0,0,1,1.826,1.035,4.8,4.8,0,0,1,.693,2.715A28.2,28.2,0,0,1,57.067-9a53.985,53.985,0,0,1-2.006,6.923A3.842,3.842,0,0,1,53.813-.117,2.221,2.221,0,0,1,52.623.2Zm2.347-19.629Q53.1-19.492,53.1-21.641a7.166,7.166,0,0,1,.537-2.49,5.945,5.945,0,0,1,1.221-2.1,2.215,2.215,0,0,1,.713-.527,2.356,2.356,0,0,1,.928-.156,1.909,1.909,0,0,1,1.436.479,2.258,2.258,0,0,1,.459,1.592,7.234,7.234,0,0,1-.479,2.627,5.483,5.483,0,0,1-1.279,2.012,2.375,2.375,0,0,1-1.641.771ZM68.089-10.3l1.177-1.371q1.786-1.978,2.83-2.947a8.967,8.967,0,0,1,1.873-1.4,3.626,3.626,0,0,1,1.688-.43,2.307,2.307,0,0,1,1.951.742,4.387,4.387,0,0,1,.566,2.578q0,.762-.156,2.246a31.539,31.539,0,0,0-.234,3.711A20.633,20.633,0,0,0,77.979-4a9.014,9.014,0,0,0,.41,1.484,4.429,4.429,0,0,1,.2.957.576.576,0,0,1-.234.488,5.456,5.456,0,0,1-1.6.918,4.779,4.779,0,0,1-1.68.391,3.069,3.069,0,0,1-2.021-.762,4.894,4.894,0,0,1-1.406-2.109,8.745,8.745,0,0,1-.5-3.047,18.156,18.156,0,0,1,.234-2.676L71.3-8.437q-.84.938-1.357,1.484t-.967,1.035q-2.188,2.5-3.711,4.512-.586.781-1.074,1.367a2.262,2.262,0,0,1-1.641.723,2.519,2.519,0,0,1-2.031-.937,3.656,3.656,0,0,1-.781-2.422,14.452,14.452,0,0,1,.215-2.246q.215-1.328.576-2.842t.859-3.115q.5-1.6,1.084-3.047a10.88,10.88,0,0,1,2.188-3.75,2.9,2.9,0,0,1,2.129-.879q2.032,0,2.032,2.637a27.457,27.457,0,0,1-.808,5.541Zm26.042.786v.078l-.078-.078a1.016,1.016,0,0,1-.312.039,9.241,9.241,0,0,1-.937.039q-1,0-1-.371a.764.764,0,0,1,.254-.469A7.384,7.384,0,0,0,93.34-12.48a8.026,8.026,0,0,0,.6-2.48,2.748,2.748,0,0,1,.039-.488q.02-.078.029-.137a.614.614,0,0,0,.01-.1q0-.273-.371-.273-.762,0-2.344,1.641a14.9,14.9,0,0,0-1.875,2.5,14.512,14.512,0,0,0-1.367,2.891,8.216,8.216,0,0,0-.488,2.6q0,1.133.566,1.133.547,0,2.754-1.836Q91.885-7.891,94.131-9.512Zm-1,4.16-.527.391a2.028,2.028,0,0,1-.186.156q-.127.1-.322.254A45.811,45.811,0,0,1,86.8-.84,7.124,7.124,0,0,1,83.447.234,3.164,3.164,0,0,1,80.9-.918,4.646,4.646,0,0,1,79.932-4a10.621,10.621,0,0,1,1.357-4.971,18.66,18.66,0,0,1,3.584-4.717,19.08,19.08,0,0,1,4.883-3.447,11.67,11.67,0,0,1,5.137-1.3,6.8,6.8,0,0,1,3.721.84,2.813,2.813,0,0,1,1.279,2.52A7.741,7.741,0,0,1,98.779-11.6a1.615,1.615,0,0,1,1.172.5,2.109,2.109,0,0,1,.371,1.377A20.382,20.382,0,0,1,99.7-5.479,36.023,36.023,0,0,1,98.174-.449a14.9,14.9,0,0,1-3.125,5.059,13.952,13.952,0,0,1-3.828,2.783,9,9,0,0,1-3.926,1.162,3.337,3.337,0,0,1-2.441-1.094A3.429,3.429,0,0,1,83.779,5a4.428,4.428,0,0,1,.469-1.9,5.626,5.626,0,0,1,1.211-1.689,15.622,15.622,0,0,1,4.473-2.93,2.1,2.1,0,0,1,.84-.273.3.3,0,0,1,.215.1.3.3,0,0,1,.1.215,1.4,1.4,0,0,1-.234.527,11.22,11.22,0,0,0-1.035,2.549,9.885,9.885,0,0,0-.449,2.686q0,1.328.41,1.328.215,0,.537-.479a6.284,6.284,0,0,0,.576-1.084A33.1,33.1,0,0,0,93.013-3.77Q93.074-4.3,93.135-5.352Zm12.148-1.855a1.165,1.165,0,0,1-1.328-1.309A7.351,7.351,0,0,1,104.17-9.8,102.95,102.95,0,0,1,107.607-21.8a5.459,5.459,0,0,1,1.036-1.914,5.688,5.688,0,0,1,2.229-1.338,8.429,8.429,0,0,1,2.933-.557q1.33,0,1.33.919,0,1.056-2.647,7.693-2.734,6.739-3.163,7.344a4.892,4.892,0,0,1-1.172,1.133,9.518,9.518,0,0,1-1.582.938A3.288,3.288,0,0,1,105.283-7.207ZM103.877.078a1.746,1.746,0,0,1-1.211-.42,1.411,1.411,0,0,1-.469-1.1,6.511,6.511,0,0,1,1.289-3.2,3.841,3.841,0,0,1,.469-.586,4.494,4.494,0,0,1,1.484-.957,4.5,4.5,0,0,1,1.719-.371,2.121,2.121,0,0,1,1.25.332,1.028,1.028,0,0,1,.469.879,5.281,5.281,0,0,1-.352,1.67,9.448,9.448,0,0,1-.84,1.807,2.987,2.987,0,0,1-.918.879A5.347,5.347,0,0,1,103.877.078Z" transform="translate(960 662)" fill="#005fd5"/>
    <path id="Path_527" data-name="Path 527" d="M-168.45-20.97V-3.36l-11.61-17.61h-2.1V0h2.1V-17.64L-168.45,0h2.1V-20.97Zm22.29,12.78c0-5.22-3.57-8.43-8.19-8.43-4.59,0-8.19,3.21-8.19,8.43,0,5.19,3.51,8.43,8.13,8.43A7.986,7.986,0,0,0-146.16-8.19Zm-14.25,0c0-4.5,2.91-6.6,6.03-6.6s6.06,2.1,6.06,6.6-3,6.6-6.09,6.6C-157.53-1.59-160.41-3.69-160.41-8.19Zm18.69,3.75c0,3.27,1.53,4.44,4.38,4.44h2.25V-1.8h-1.92c-1.89,0-2.58-.63-2.58-2.64V-14.61h4.5v-1.77h-4.5v-4.11h-2.13v4.11H-144v1.77h2.28ZM-131.64,0h2.1V-8.94c0-3.99,2.13-5.91,5.19-5.91,3,0,4.98,1.86,4.98,5.49V0h2.07V-9.6c0-4.8-2.91-7.08-6.54-7.08a6.166,6.166,0,0,0-5.7,3.09V-22.2h-2.1Zm18.99,0h2.1V-16.38h-2.1Zm1.05-19.47a1.524,1.524,0,0,0,1.53-1.56,1.5,1.5,0,0,0-1.53-1.53,1.5,1.5,0,0,0-1.53,1.53A1.524,1.524,0,0,0-111.6-19.47ZM-93.51,0h2.07V-9.6c0-4.8-2.94-7.08-6.66-7.08a5.985,5.985,0,0,0-5.58,3.09v-2.79h-2.1V0h2.1V-8.94c0-3.99,2.13-5.91,5.19-5.91,3,0,4.98,1.86,4.98,5.49Zm5.76-8.22c0,5.13,3.33,8.46,7.83,8.46a6.906,6.906,0,0,0,6.48-3.87V.42c0,3.72-2.43,5.79-5.55,5.79-3,0-5.07-1.53-5.76-3.75h-2.07c.66,3.42,3.6,5.58,7.83,5.58A7.251,7.251,0,0,0-71.34.42v-16.8h-2.1v3.57a6.88,6.88,0,0,0-6.48-3.81C-84.42-16.62-87.75-13.35-87.75-8.22Zm14.31.03c0,4.08-2.73,6.6-6.09,6.6-3.45,0-6.09-2.49-6.09-6.63,0-4.17,2.64-6.57,6.09-6.57C-76.17-14.79-73.44-12.27-73.44-8.19Zm30.54,0c0-5.22-3.57-8.43-8.19-8.43-4.59,0-8.19,3.21-8.19,8.43C-59.28-3-55.77.24-51.15.24A7.986,7.986,0,0,0-42.9-8.19Zm-14.25,0c0-4.5,2.91-6.6,6.03-6.6s6.06,2.1,6.06,6.6-3,6.6-6.09,6.6C-54.27-1.59-57.15-3.69-57.15-8.19ZM-26.79,0h2.07V-9.6c0-4.8-2.94-7.08-6.66-7.08a5.985,5.985,0,0,0-5.58,3.09v-2.79h-2.1V0h2.1V-8.94c0-3.99,2.13-5.91,5.19-5.91,3,0,4.98,1.86,4.98,5.49ZM-5.91-2.4l-5.58-13.98H-13.8L-7.08-.09l-3.18,7.8h2.19L1.65-16.38H-.51ZM19.92-8.19c0-5.22-3.57-8.43-8.19-8.43-4.59,0-8.19,3.21-8.19,8.43C3.54-3,7.05.24,11.67.24A7.986,7.986,0,0,0,19.92-8.19Zm-14.25,0c0-4.5,2.91-6.6,6.03-6.6s6.06,2.1,6.06,6.6-3,6.6-6.09,6.6C8.55-1.59,5.67-3.69,5.67-8.19Zm32.28-8.19h-2.1v8.91c0,3.99-2.13,5.91-5.19,5.91-3,0-4.98-1.86-4.98-5.49v-9.33H23.61v9.57c0,4.8,2.94,7.08,6.66,7.08a5.919,5.919,0,0,0,5.58-3.15V0h2.1Zm6.9,7.23c0-4.11,2.31-5.34,5.04-5.34h.57v-2.19c-2.82,0-4.71,1.2-5.61,3.21v-2.91h-2.1V0h2.1Zm19.05-3.6V-22.2H61.83V0H63.9V-3.6A6.883,6.883,0,0,0,70.41.24c4.47,0,7.8-3.33,7.8-8.46s-3.3-8.4-7.8-8.4A6.951,6.951,0,0,0,63.9-12.75ZM76.08-8.22c0,4.14-2.64,6.63-6.09,6.63-3.33,0-6.09-2.52-6.09-6.6s2.76-6.6,6.09-6.6C73.44-14.79,76.08-12.39,76.08-8.22Zm5.04,0c0,5.13,3.33,8.46,7.8,8.46a6.92,6.92,0,0,0,6.51-3.87V0h2.1V-16.38h-2.1v3.6a6.837,6.837,0,0,0-6.48-3.84C84.45-16.62,81.12-13.35,81.12-8.22Zm14.31.03c0,4.08-2.73,6.6-6.09,6.6-3.45,0-6.09-2.49-6.09-6.63,0-4.17,2.64-6.57,6.09-6.57C92.7-14.79,95.43-12.27,95.43-8.19Zm5.94,0c0,5.19,3.33,8.43,7.95,8.43,4.11,0,6.78-2.31,7.53-5.58H114.6c-.57,2.4-2.52,3.81-5.28,3.81-3.21,0-5.82-2.22-5.82-6.66s2.61-6.63,5.82-6.63c2.76,0,4.74,1.44,5.28,3.78h2.25c-.75-3.39-3.42-5.58-7.53-5.58C104.7-16.62,101.37-13.38,101.37-8.19ZM120.72,0h2.1V-7.35L129.57,0h2.85l-7.83-8.22,7.77-8.16h-2.94l-6.6,7.32V-22.2h-2.1Zm14.4,0h2.1V-22.2h-2.1Zm22.29-8.19c0-5.22-3.57-8.43-8.19-8.43-4.59,0-8.19,3.21-8.19,8.43,0,5.19,3.51,8.43,8.13,8.43A7.986,7.986,0,0,0,157.41-8.19Zm-14.25,0c0-4.5,2.91-6.6,6.03-6.6s6.06,2.1,6.06,6.6-3,6.6-6.09,6.6C146.04-1.59,143.16-3.69,143.16-8.19Zm17.13-.03c0,5.13,3.33,8.46,7.83,8.46a6.906,6.906,0,0,0,6.48-3.87V.42c0,3.72-2.43,5.79-5.55,5.79-3,0-5.07-1.53-5.76-3.75h-2.07c.66,3.42,3.6,5.58,7.83,5.58A7.251,7.251,0,0,0,176.7.42v-16.8h-2.1v3.57a6.88,6.88,0,0,0-6.48-3.81C163.62-16.62,160.29-13.35,160.29-8.22Zm14.31.03c0,4.08-2.73,6.6-6.09,6.6-3.45,0-6.09-2.49-6.09-6.63,0-4.17,2.64-6.57,6.09-6.57C171.87-14.79,174.6-12.27,174.6-8.19Zm8.76,6.78a1.492,1.492,0,0,0-1.5-1.53,1.5,1.5,0,0,0-1.53,1.53A1.524,1.524,0,0,0,181.86.15,1.518,1.518,0,0,0,183.36-1.41ZM-60.825,24.79c-5.88,0-10.38,4.44-10.38,10.71,0,6.3,4.5,10.71,10.38,10.71a10.073,10.073,0,0,0,10.2-9.81V34.87h-11.04v1.71h8.82c-.33,4.77-3.57,7.74-7.98,7.74-4.65,0-8.22-3.39-8.22-8.82s3.57-8.79,8.22-8.79a7.385,7.385,0,0,1,7.08,4.44h2.46A9.724,9.724,0,0,0-60.825,24.79Zm29.46,13.02c0-5.22-3.57-8.43-8.19-8.43-4.59,0-8.19,3.21-8.19,8.43,0,5.19,3.51,8.43,8.13,8.43A7.986,7.986,0,0,0-31.365,37.81Zm-14.25,0c0-4.5,2.91-6.6,6.03-6.6s6.06,2.1,6.06,6.6-3,6.6-6.09,6.6C-42.735,44.41-45.615,42.31-45.615,37.81Zm33.51,0c0-5.22-3.57-8.43-8.19-8.43-4.59,0-8.19,3.21-8.19,8.43,0,5.19,3.51,8.43,8.13,8.43A7.986,7.986,0,0,0-12.105,37.81Zm-14.25,0c0-4.5,2.91-6.6,6.03-6.6s6.06,2.1,6.06,6.6-3,6.6-6.09,6.6C-23.475,44.41-26.355,42.31-26.355,37.81Zm17.13-.03c0,5.13,3.33,8.46,7.83,8.46a6.831,6.831,0,0,0,6.48-3.9V46h2.1V23.8h-2.1v9.36a7.121,7.121,0,0,0-6.45-3.78C-5.9,29.38-9.225,32.65-9.225,37.78Zm14.31.03c0,4.08-2.73,6.6-6.09,6.6-3.45,0-6.09-2.49-6.09-6.63,0-4.17,2.64-6.57,6.09-6.57C2.355,31.21,5.085,33.73,5.085,37.81Zm16.32-11.28a1.5,1.5,0,0,0,1.5-1.56,1.475,1.475,0,0,0-1.5-1.53,1.5,1.5,0,0,0-1.53,1.53A1.524,1.524,0,0,0,21.405,26.53Zm-1.08,3.09V49.78c0,1.59-.63,2.16-2.19,2.16H17v1.8h1.47c2.64,0,3.96-1.23,3.96-3.87V29.62Zm22.32,8.19c0-5.22-3.57-8.43-8.19-8.43-4.59,0-8.19,3.21-8.19,8.43,0,5.19,3.51,8.43,8.13,8.43A7.986,7.986,0,0,0,42.645,37.81Zm-14.25,0c0-4.5,2.91-6.6,6.03-6.6s6.06,2.1,6.06,6.6-3,6.6-6.09,6.6C31.275,44.41,28.395,42.31,28.395,37.81Zm20.16-4.56V23.8h-2.07V46h2.07V42.4a6.883,6.883,0,0,0,6.51,3.84c4.47,0,7.8-3.33,7.8-8.46s-3.3-8.4-7.8-8.4A6.951,6.951,0,0,0,48.555,33.25Zm12.18,4.53c0,4.14-2.64,6.63-6.09,6.63-3.33,0-6.09-2.52-6.09-6.6s2.76-6.6,6.09-6.6C58.1,31.21,60.735,33.61,60.735,37.78Zm6.78,2.67h1.77l.27-15.42h-2.28Zm2.49,4.14a1.515,1.515,0,1,0-3.03,0,1.516,1.516,0,1,0,3.03,0Z" transform="translate(960 752)" fill="#65617d"/>
    <g id="undraw_buffer_wq43" transform="translate(658.844 113.878)">
      <path id="Path_294" data-name="Path 294" d="M941.979,709.971,880.23,603.017a1.965,1.965,0,0,0-3.411,0L815.069,709.971a1.965,1.965,0,0,0,1.7,2.977h18.42a1.977,1.977,0,0,1,1.97,1.971V737.75a1.971,1.971,0,0,0,1.965,1.971h24.01a1.971,1.971,0,0,0,1.971-1.971V726.713a1.965,1.965,0,0,1,1.965-1.965h22.855a1.971,1.971,0,0,1,1.971,1.965V737.75a1.971,1.971,0,0,0,1.971,1.971h24.04a1.971,1.971,0,0,0,1.971-1.971V714.895a1.971,1.971,0,0,1,1.971-1.971h18.42a1.971,1.971,0,0,0,1.709-2.953Zm-86.093,11.835a1.964,1.964,0,0,1-1.393.6h-8.668a1.971,1.971,0,0,1,0-3.941h8.668a1.971,1.971,0,0,1,1.393,3.364Zm56.725,0a1.964,1.964,0,0,1-1.393.6h-8.662a1.971,1.971,0,0,1,0-3.941h8.662a1.971,1.971,0,0,1,1.393,3.364Z" transform="translate(-385.235 -262.533)" fill="#005fd5" opacity="0.1"/>
      <path id="Path_295" data-name="Path 295" d="M306.8,711.555,245.048,604.6a1.971,1.971,0,0,0-3.411,0L188.3,696.981a162.927,162.927,0,0,0,22.343,23.046h8.668a1.971,1.971,0,1,1,0,3.941h-3.667a95.422,95.422,0,0,0,14.288,8.889V728.3a1.971,1.971,0,0,1,1.971-1.971h22.9a1.971,1.971,0,0,1,1.965,1.971v11.026a1.917,1.917,0,0,0,.185.828,1.971,1.971,0,0,0,1.786,1.143H282.77a1.929,1.929,0,0,0,1.566-.792,1.893,1.893,0,0,0,.4-1.191V716.485a1.971,1.971,0,0,1,1.971-1.971h18.42a1.971,1.971,0,0,0,1.673-2.959ZM265.981,720.6a1.965,1.965,0,0,1,1.393-.6h8.668a1.971,1.971,0,0,1,0,3.941h-8.668a1.971,1.971,0,0,1-1.393-3.364Zm-38.787-39.579a1.971,1.971,0,0,1-1.971-1.971V664.088a1.971,1.971,0,0,1,1.971-1.971h32.3a1.971,1.971,0,0,1,1.965,1.971v14.967a1.971,1.971,0,0,1-1.965,1.971Z" transform="translate(-131.725 -263.177)" fill="#005fd5" opacity="0.1"/>
      <path id="Path_296" data-name="Path 296" d="M633.731,434.623H557.336V418.1a3.953,3.953,0,0,0-3.953-3.953H530.926v-17.6a2.489,2.489,0,0,0-2.489-2.489h-28.9a2.489,2.489,0,0,0-2.489,2.489v17.6h-26.38a3.953,3.953,0,0,0-3.953,3.953v16.527H393.848a.8.8,0,0,0-.8.8v219.4a.8.8,0,0,0,.8.8h48.426a.8.8,0,0,0,.8-.8V625.307a.81.81,0,0,1,.8-.8h20.456a.81.81,0,0,1,.8.8v29.517a.8.8,0,0,0,.8.8h95.7a.81.81,0,0,0,.8-.8V625.307a.8.8,0,0,1,.8-.8H583.7a.8.8,0,0,1,.8.8v29.517a.81.81,0,0,0,.8.8h48.426a.81.81,0,0,0,.8-.8v-219.4A.81.81,0,0,0,633.731,434.623ZM434.409,614.251a.8.8,0,0,1-.8.8H403.7a.8.8,0,0,1-.8-.8V604.035a.8.8,0,0,1,.8-.8h29.91a.8.8,0,0,1,.8.8Zm0-26.4a.8.8,0,0,1-.8.8H403.7a.8.8,0,0,1-.8-.8v-10.21a.8.8,0,0,1,.8-.8h29.91a.8.8,0,0,1,.8.8Zm0-26.392a.8.8,0,0,1-.8.8H403.7a.8.8,0,0,1-.8-.8V551.245a.8.8,0,0,1,.8-.8h29.91a.8.8,0,0,1,.8.8Zm0-26.4a.8.8,0,0,1-.8.8H403.7a.8.8,0,0,1-.8-.8v-10.21a.8.8,0,0,1,.8-.8h29.91a.8.8,0,0,1,.8.8Zm0-26.392a.8.8,0,0,1-.8.8H403.7a.8.8,0,0,1-.8-.8V498.456a.8.8,0,0,1,.8-.8h29.91a.8.8,0,0,1,.8.8Zm0-26.392a.8.8,0,0,1-.8.8H403.7a.8.8,0,0,1-.8-.8V472.064a.8.8,0,0,1,.8-.8h29.91a.8.8,0,0,1,.8.8Zm0-26.4a.8.8,0,0,1-.8.8H403.7a.8.8,0,0,1-.8-.8v-10.21a.8.8,0,0,1,.8-.8h29.91a.8.8,0,0,1,.8.8Zm70.912,158.362a.8.8,0,0,1-.8.8H474.583a.8.8,0,0,1-.8-.8v-10.21a.81.81,0,0,1,.8-.8h29.91a.8.8,0,0,1,.8.8Zm0-26.4a.8.8,0,0,1-.8.8H474.583a.8.8,0,0,1-.8-.8v-10.2a.8.8,0,0,1,.8-.8h29.91a.8.8,0,0,1,.8.8Zm0-26.392a.8.8,0,0,1-.8.8H474.583a.81.81,0,0,1-.8-.8v-10.21a.81.81,0,0,1,.8-.8h29.91a.8.8,0,0,1,.8.8Zm0-26.4a.8.8,0,0,1-.8.8H474.583a.8.8,0,0,1-.8-.8v-10.2a.8.8,0,0,1,.8-.8h29.91a.8.8,0,0,1,.8.8Zm0-26.392a.8.8,0,0,1-.8.8H474.583a.81.81,0,0,1-.8-.8v-10.21a.8.8,0,0,1,.8-.8h29.91a.8.8,0,0,1,.8.8Zm0-26.392a.8.8,0,0,1-.8.8H474.583a.8.8,0,0,1-.8-.8v-10.21a.81.81,0,0,1,.8-.8h29.91a.8.8,0,0,1,.8.8Zm0-26.4a.8.8,0,0,1-.8.8H474.583a.8.8,0,0,1-.8-.8v-10.2a.8.8,0,0,1,.8-.8h29.91a.8.8,0,0,1,.8.8Zm48.455,158.362a.8.8,0,0,1-.8.8h-29.91a.8.8,0,0,1-.8-.8v-10.2a.81.81,0,0,1,.8-.8h29.91a.8.8,0,0,1,.8.8Zm0-26.4a.8.8,0,0,1-.8.8h-29.91a.8.8,0,0,1-.8-.8v-10.2a.8.8,0,0,1,.8-.8h29.91a.8.8,0,0,1,.8.8Zm0-26.392a.8.8,0,0,1-.8.8h-29.91a.81.81,0,0,1-.8-.8v-10.2a.81.81,0,0,1,.8-.8h29.91a.8.8,0,0,1,.8.8Zm0-26.4a.8.8,0,0,1-.8.8h-29.91a.8.8,0,0,1-.8-.8v-10.2a.8.8,0,0,1,.8-.8h29.91a.8.8,0,0,1,.8.8Zm0-26.392a.8.8,0,0,1-.8.8h-29.91a.81.81,0,0,1-.8-.8v-10.2a.8.8,0,0,1,.8-.8h29.91a.8.8,0,0,1,.8.8Zm0-26.392a.8.8,0,0,1-.8.8h-29.91a.8.8,0,0,1-.8-.8v-10.2a.81.81,0,0,1,.8-.8h29.91a.8.8,0,0,1,.8.8Zm0-26.4a.8.8,0,0,1-.8.8h-29.91a.8.8,0,0,1-.8-.8v-10.2a.8.8,0,0,1,.8-.8h29.91a.8.8,0,0,1,.8.8Zm70.912,158.362a.8.8,0,0,1-.8.8h-29.91a.8.8,0,0,1-.8-.8v-10.2a.8.8,0,0,1,.8-.8h29.91a.81.81,0,0,1,.8.8Zm0-26.4a.8.8,0,0,1-.8.8h-29.91a.8.8,0,0,1-.8-.8V577.643a.8.8,0,0,1,.8-.8h29.91a.8.8,0,0,1,.8.8Zm0-26.392a.81.81,0,0,1-.8.8h-29.91a.8.8,0,0,1-.8-.8v-10.2a.8.8,0,0,1,.8-.8h29.91a.81.81,0,0,1,.8.8Zm0-26.4a.8.8,0,0,1-.8.8h-29.91a.8.8,0,0,1-.8-.8V524.854a.8.8,0,0,1,.8-.8h29.91a.8.8,0,0,1,.8.8Zm0-26.392a.81.81,0,0,1-.8.8h-29.91a.8.8,0,0,1-.8-.8v-10.2a.8.8,0,0,1,.8-.8h29.91a.8.8,0,0,1,.8.8Zm0-26.392a.8.8,0,0,1-.8.8h-29.91a.8.8,0,0,1-.8-.8v-10.2a.8.8,0,0,1,.8-.8h29.91a.81.81,0,0,1,.8.8Zm0-26.4a.8.8,0,0,1-.8.8h-29.91a.8.8,0,0,1-.8-.8V445.673a.8.8,0,0,1,.8-.8h29.91a.8.8,0,0,1,.8.8Z" transform="translate(-214.578 -178.374)" fill="#005fd5" opacity="0.1"/>
      <g id="Group_16" data-name="Group 16" transform="translate(-0.09 187.087)" opacity="0.1">
        <path id="Path_297" data-name="Path 297" d="M170.616,691.519a14.556,14.556,0,0,1-1.923,7.37,15.086,15.086,0,0,1,0,14.741,13.546,13.546,0,0,1,1.453,3.572,270.332,270.332,0,0,1-17.914-26.791h0a14.289,14.289,0,0,1,1.881-6.287,14.556,14.556,0,0,1-1.923-7.323,15.158,15.158,0,0,1,.869-5.126,12.735,12.735,0,0,1,1.054-2.244c1.679-2.852,4.322-4.691,7.287-4.691s5.614,1.84,7.293,4.691a13.265,13.265,0,0,1,1.03,2.173,15.259,15.259,0,0,1,.893,5.2,14.556,14.556,0,0,1-1.923,7.37A14.556,14.556,0,0,1,170.616,691.519Z" transform="translate(-117.023 -474.996)" fill="#3f3d56"/>
        <ellipse id="Ellipse_56" data-name="Ellipse 56" cx="9.21" cy="12.062" rx="9.21" ry="12.062" transform="translate(35.167 174.979)" fill="#3f3d56"/>
        <ellipse id="Ellipse_57" data-name="Ellipse 57" cx="9.21" cy="12.062" rx="9.21" ry="12.062" transform="translate(35.167 160.238)" fill="#3f3d56"/>
        <path id="Path_298" data-name="Path 298" d="M181.434,444.738a43.925,43.925,0,0,1-9.448,27.285,44.133,44.133,0,0,1-26.2,70.59c-1.06.214-2.137.381-3.227.512a44.585,44.585,0,0,1-10.121.054q-1.679-.179-3.316-.494a43.639,43.639,0,0,1-13.693-5.007A439.687,439.687,0,0,1,94.65,487.77a43.93,43.93,0,0,1,7.912-15.747,44.169,44.169,0,0,1-7.114-41.442l33.506,11.246L97.531,425.5a44.31,44.31,0,0,1,5.084-8.049A44.133,44.133,0,1,1,175.5,368.069l-32.393,23.814,35.125-18.218a44.187,44.187,0,0,1-.845,34.965l-26.2-.2,24.207,3.977a44.309,44.309,0,0,1-3.435,5.049A43.937,43.937,0,0,1,181.434,444.738Z" transform="translate(-93.12 -346.029)" fill="#005fd5"/>
        <path id="Path_299" data-name="Path 299" d="M181.454,565.958a44.143,44.143,0,0,1-35.607,43.3c-1.067.216-2.144.382-3.234.513a44.585,44.585,0,0,1-10.121.054q-1.679-.179-3.316-.494a43.636,43.636,0,0,1-13.693-5.007A439.677,439.677,0,0,1,94.7,554.42a43.93,43.93,0,0,1,7.912-15.747,43.955,43.955,0,0,1-9.442-27.285c0-4.953,84.73,19.777,78.812,27.285a43.925,43.925,0,0,1,9.472,27.285Z" transform="translate(-93.14 -412.679)" opacity="0.1"/>
      </g>
      <g id="Group_17" data-name="Group 17" transform="translate(543.456 234.459)" opacity="0.1">
        <path id="Path_300" data-name="Path 300" d="M1071.441,690.44c-1.727,5.513-3.572,10.984-5.465,16.33a15.29,15.29,0,0,1-.786-4.888C1065.19,696.566,1067.809,692.047,1071.441,690.44Z" transform="translate(-1030.018 -532.768)" fill="#3f3d56"/>
        <path id="Path_301" data-name="Path 301" d="M1066.05,488.272c0,10.454-2.107,26.957-5.953,45.842a504,504,0,0,1-12.592,49.158c-1.726,5.513-3.572,10.984-5.465,16.33-2.173,6.067-4.465,11.972-6.864,17.622a44.294,44.294,0,0,1-19.593-68.917,44.353,44.353,0,0,1-7.144-41.537l33.506,11.27-31.422-16.36a44.453,44.453,0,0,1,5.031-8.067,44.288,44.288,0,0,1,17.336-68.012,75.937,75.937,0,0,1,29.023,38.06l-5.864,4.316,6.227-3.233a75.613,75.613,0,0,1,3.626,19.837h-1.75l1.786.292C1066.026,485.968,1066.05,487.159,1066.05,488.272Z" transform="translate(-1006.112 -425.6)" fill="#005fd5"/>
        <path id="Path_302" data-name="Path 302" d="M1060.166,598.484a504.041,504.041,0,0,1-12.592,49.158c-1.727,5.513-3.572,10.984-5.465,16.33-2.173,6.067-4.465,11.973-6.864,17.622a44.294,44.294,0,0,1-19.593-68.917,44.127,44.127,0,0,1-9.442-27.35C1006.21,582.332,1037,590.155,1060.166,598.484Z" transform="translate(-1006.151 -489.97)" opacity="0.1"/>
      </g>
      <path id="Path_303" data-name="Path 303" d="M381.685,172.731a17.2,17.2,0,0,0-9.966,1.089,14.711,14.711,0,0,1-11.99,0,16.824,16.824,0,0,0-14.1.274,8.716,8.716,0,0,1-4.06,1.018c-5.715,0-10.472-5.757-11.46-13.354a11.061,11.061,0,0,0,2.858-3.084c3.352-5.4,8.543-8.865,14.372-8.865s10.954,3.423,14.288,8.769a11.032,11.032,0,0,0,9.5,5.185h.149C375.827,163.765,379.768,167.414,381.685,172.731Z" transform="translate(-189.109 -79.542)" fill="#005fd5" opacity="0.1"/>
      <path id="Path_304" data-name="Path 304" d="M399.072,134.465l-9.24,5.864,5.6-10.186a9.168,9.168,0,0,0-5.59-1.994H389.7a10.812,10.812,0,0,1-1.917-.137l-3.131,1.983,1.345-2.441a11.121,11.121,0,0,1-5.477-4.167l-5.608,3.572,3.542-6.436c-3.28-3.935-7.7-6.352-12.556-6.352-5.828,0-11.02,3.471-14.372,8.871a10.716,10.716,0,0,1-9.526,5.12h-.316c-6.436,0-11.651,7.3-11.651,16.295s5.215,16.295,11.651,16.295a8.763,8.763,0,0,0,4.06-1.012,16.8,16.8,0,0,1,14.1-.28,14.711,14.711,0,0,0,11.99.03,16.842,16.842,0,0,1,13.979.268,8.722,8.722,0,0,0,4.013.994c6.436,0,11.651-7.293,11.651-16.295A20.7,20.7,0,0,0,399.072,134.465Z" transform="translate(-189.076 -65.12)" fill="#005fd5" opacity="0.1"/>
      <path id="Path_305" data-name="Path 305" d="M837.194,340.885a12.044,12.044,0,0,0-6.989.762,10.282,10.282,0,0,1-8.394,0,11.788,11.788,0,0,0-9.871.191,6.126,6.126,0,0,1-2.84.714c-4,0-7.329-4.036-8.019-9.353a7.7,7.7,0,0,0,2-2.155c2.346-3.78,5.953-6.2,10.055-6.2s7.674,2.381,10.02,6.132a7.74,7.74,0,0,0,6.644,3.655h.107C833.092,334.61,835.848,337.164,837.194,340.885Z" transform="translate(-379.688 -150.368)" fill="#005fd5" opacity="0.1"/>
      <path id="Path_306" data-name="Path 306" d="M849.376,314.089l-6.465,4.1,3.923-7.144a6.365,6.365,0,0,0-3.911-1.4h-.1a6.676,6.676,0,0,1-1.34-.1l-2.2,1.393.941-1.709a7.817,7.817,0,0,1-3.834-2.911l-3.923,2.489,2.477-4.507a11.488,11.488,0,0,0-8.787-4.441c-4.078,0-7.74,2.423-10.061,6.2a7.531,7.531,0,0,1-6.65,3.572h-.22c-4.5,0-8.156,5.108-8.156,11.407s3.655,11.407,8.156,11.407a6.054,6.054,0,0,0,2.84-.714,11.788,11.788,0,0,1,9.871-.19,10.42,10.42,0,0,0,4.221.9,10.3,10.3,0,0,0,4.167-.887,11.782,11.782,0,0,1,9.781.19,6.1,6.1,0,0,0,2.81.7c4.507,0,8.156-5.108,8.156-11.407A14.5,14.5,0,0,0,849.376,314.089Z" transform="translate(-379.684 -140.26)" fill="#005fd5" opacity="0.1"/>
      <path id="Path_307" data-name="Path 307" d="M284.41,295.885a12.05,12.05,0,0,1,6.989.762,10.264,10.264,0,0,0,8.388,0,11.788,11.788,0,0,1,9.871.191,6.145,6.145,0,0,0,2.84.714c4,0,7.335-4.036,8.025-9.353a7.614,7.614,0,0,1-2-2.155c-2.346-3.78-5.953-6.2-10.061-6.2s-7.668,2.381-10.014,6.132a7.74,7.74,0,0,1-6.65,3.655h-.1C288.512,289.61,285.75,292.164,284.41,295.885Z" transform="translate(-170.616 -132.159)" fill="#005fd5" opacity="0.1"/>
      <path id="Path_308" data-name="Path 308" d="M262.8,269.089l6.471,4.1-3.929-7.144a6.376,6.376,0,0,1,3.911-1.4h.137a6.707,6.707,0,0,0,1.34-.1l2.191,1.393-.941-1.709a7.829,7.829,0,0,0,3.84-2.911l3.923,2.489-2.483-4.507a11.5,11.5,0,0,1,8.793-4.441c4.078,0,7.71,2.423,10.061,6.2a7.525,7.525,0,0,0,6.65,3.572h.214c4.507,0,8.156,5.108,8.156,11.407s-3.65,11.407-8.156,11.407a6.09,6.09,0,0,1-2.84-.714,11.788,11.788,0,0,0-9.871-.191,10.389,10.389,0,0,1-4.215.9,10.252,10.252,0,0,1-4.167-.887,11.794,11.794,0,0,0-9.788.19,6.078,6.078,0,0,1-2.81.7c-4.5,0-8.156-5.108-8.156-11.407A14.5,14.5,0,0,1,262.8,269.089Z" transform="translate(-161.195 -122.051)" fill="#005fd5" opacity="0.1"/>
      <path id="Path_309" data-name="Path 309" d="M344.017,414.361l130.637,63.107a32.507,32.507,0,0,0,24.862,0l130.637-63.107c6.876-3.322,6.876-8.728,0-12.044L499.516,339.211a32.507,32.507,0,0,0-24.862,0L344.017,402.317C337.164,405.634,337.164,411.039,344.017,414.361Z" transform="translate(-192.657 -155.184)" fill="#192534"/>
      <path id="Path_310" data-name="Path 310" d="M630.031,566.038s-23.856-11.5-27.023-13.05-4.013-1.465-7.335.077-96.357,46.508-96.357,46.508a32.507,32.507,0,0,1-24.862,0s-90.57-43.7-94.815-45.782c-4.632-2.238-5.953-2.238-10.121-.232l-25.784,12.431c-6.876,3.322-6.876,8.722,0,12.044l130.637,63.107a32.507,32.507,0,0,0,24.862,0L629.87,578.034c7.031-3.245,7.031-8.644.155-11.966Z" transform="translate(-192.535 -242.236)" fill="#192534"/>
      <path id="Path_311" data-name="Path 311" d="M630.084,694.818s-23.856-11.5-27.023-13.05-4.013-1.465-7.335.077-96.28,46.556-96.28,46.556a32.436,32.436,0,0,1-24.862,0s-90.57-43.7-94.815-45.782c-4.632-2.238-5.953-2.238-10.121-.232l-25.784,12.431c-6.876,3.322-6.876,8.728,0,12.044L474.5,769.969a28.868,28.868,0,0,0,12.431,2.471,30.054,30.054,0,0,0,12.431-2.471l130.643-63.107C636.96,703.546,636.96,698.14,630.084,694.818Z" transform="translate(-192.588 -294.347)" fill="#192534"/>
      <ellipse id="Ellipse_58" data-name="Ellipse 58" cx="28.362" cy="39.394" rx="28.362" ry="39.394" transform="translate(186.777 106.549)" fill="#192534"/>
      <rect id="Rectangle_53" data-name="Rectangle 53" width="25.213" height="25.213" transform="translate(211.99 210.55)" fill="#005fd5"/>
      <path id="Path_312" data-name="Path 312" d="M415.59,582.662l8.281,11.645a15.086,15.086,0,0,1,5.983-12.062,73.725,73.725,0,0,0-11.722-9.4.941.941,0,0,0-.679-.226.983.983,0,0,0-.506.375,16.018,16.018,0,0,0-3.328,5.257C413.114,579.989,414.578,581.281,415.59,582.662Z" transform="translate(-222.86 -250.632)" fill="#fbbebe"/>
      <path id="Path_313" data-name="Path 313" d="M437.443,586.82a7.35,7.35,0,0,1,3.572,1.232,18.317,18.317,0,0,1,4.114,2.7,6.239,6.239,0,0,1,2.108,4.316,10.891,10.891,0,0,1-1.024,3.822,33.042,33.042,0,0,0-1.536,18.1c.387,1.977.958,4.048.345,5.953a9.712,9.712,0,0,1-3.405,4.221c-2.25,1.863-4.727,3.685-7.626,4.078s-6.251-1.191-6.894-4.013c-.381-1.679.22-3.4.637-5.066.994-3.983.97-8.138.941-12.246a16.9,16.9,0,0,0-.31-3.721c-.2-.857-.53-1.679-.81-2.518a10.468,10.468,0,0,1-.22-7,13.937,13.937,0,0,1,1.935-3.179C431.293,590.791,433.478,586.8,437.443,586.82Z" transform="translate(-228.244 -256.379)" fill="#f2f2f2"/>
      <path id="Path_314" data-name="Path 314" d="M432.189,287.824a6.361,6.361,0,0,1-3.316,7.079l-3.53,2.554c-.179.125-.375.286-.393.5a.75.75,0,0,0,.381.6,11.711,11.711,0,0,0,4.9,2.233,23.216,23.216,0,0,0,3.8.322c6.62.2,13.354.345,19.742-1.393a10.122,10.122,0,0,0,3.263-1.387,4.167,4.167,0,0,0,1.834-2.923,9.05,9.05,0,0,1-4.417-1.971c-1.345-.923-2.721-1.929-3.149-3.465-.268-.959-.113-1.994-.333-2.977a5.98,5.98,0,0,0-3.108-3.572c-3.655-2.072-7.972-2.2-11.955-3.28-1.429-.387-3.983-2.1-4.078.214C431.731,282.811,432.07,285.371,432.189,287.824Z" transform="translate(-227.486 -131.885)" fill="#fbbebe"/>
      <path id="Path_315" data-name="Path 315" d="M432.189,287.824a6.361,6.361,0,0,1-3.316,7.079l-3.53,2.554c-.179.125-.375.286-.393.5a.75.75,0,0,0,.381.6,11.711,11.711,0,0,0,4.9,2.233,23.216,23.216,0,0,0,3.8.322c6.62.2,13.354.345,19.742-1.393a10.122,10.122,0,0,0,3.263-1.387,4.167,4.167,0,0,0,1.834-2.923,9.05,9.05,0,0,1-4.417-1.971c-1.345-.923-2.721-1.929-3.149-3.465-.268-.959-.113-1.994-.333-2.977a5.98,5.98,0,0,0-3.108-3.572c-3.655-2.072-7.972-2.2-11.955-3.28-1.429-.387-3.983-2.1-4.078.214C431.731,282.811,432.07,285.371,432.189,287.824Z" transform="translate(-227.486 -131.885)" opacity="0.1"/>
      <path id="Path_316" data-name="Path 316" d="M393.967,395.039c-5.144-1.262-10.556.6-15.217,3.078s-8.972,5.733-13.925,7.609c-3.971,1.506-8.394,2.173-11.734,4.8-2.977,2.381-4.7,6-5.8,9.645a15.336,15.336,0,0,0-.822,6.37,17.263,17.263,0,0,0,1.566,4.763,210.657,210.657,0,0,0,12.163,22.028c7.8,12.865,15.669,25.826,25.779,36.977,3.227-2.215,2.911-7.549,6.108-9.8a17.284,17.284,0,0,0,2.459-1.6c1.512-1.566.923-4.126.208-6.18a309.274,309.274,0,0,0-15.723-37.316c8.7.06,15.991-6.739,24.558-8.263a45.185,45.185,0,0,1,7.18-.476,243.582,243.582,0,0,0,25.338-1.786c3.048-.381,6.281-.9,8.573-2.947,2.381-2.131,3.227-5.453,3.947-8.567,1.512-6.483,5.3-12.175,7.638-18.408.6-1.607,1.191-3.221,1.923-4.763.643-1.322,1.4-2.584,2.084-3.888a56.085,56.085,0,0,0,4.4-13.3c1.25-5.477,2.381-11.073,3.536-16.574.774-3.786,2.28-7.894.482-11.312a10.218,10.218,0,0,0-4.929-4.167,12.107,12.107,0,0,0-6.8-1.238c-4.548.72-7.615,4.888-10.169,8.71l-3.989,6.007a42.447,42.447,0,0,0-2.631,4.3c-1.5,2.941-2.316,6.168-3.465,9.258-3.1,8.3-8.93,15.795-16.848,19.748-2.108,1.054-4.334,1.846-6.454,2.864-1.661.8-3.257,1.732-4.935,2.494C403.915,395.212,398.855,396.236,393.967,395.039Z" transform="translate(-195.706 -156.347)" fill="#01e7c0"/>
      <circle id="Ellipse_59" data-name="Ellipse 59" cx="15.759" cy="15.759" r="15.759" transform="translate(202.536 125.457)" fill="#fbbebe"/>
      <path id="Path_317" data-name="Path 317" d="M438.929,299.07a16.287,16.287,0,0,1-2.626,5.09c-2.25,2.6-5.888,3.519-9.323,3.655a27.558,27.558,0,0,1-11.193-1.9c-1.524-.6-3.078-1.357-4.7-1.191-2.352.208-4.1,2.185-6.168,3.322a30.942,30.942,0,0,1-3.263,1.4,18.134,18.134,0,0,0-10.448,13.181c-1.191,6.716,4.215,13.1,7.489,19.087,1.435,2.631,3.108,5.18,3.905,8.061,1.34,4.846.048,10.008-1.649,14.741s-3.816,9.412-4.167,14.425c-.107,1.471.4,3.453,1.881,3.435a3.245,3.245,0,0,0,1.506-.6,13.4,13.4,0,0,1,8.7-1.6c2.09.339,4.078,1.191,6.168,1.482,4.108.6,8.2-.845,12.091-2.274,3.709-1.363,7.567-2.828,10.21-5.769,1.983-2.2,3.12-5.078,5.156-7.233,2.679-2.828,6.721-4.215,8.96-7.4,1.316-1.875,1.852-4.167,2.614-6.323s1.905-4.358,3.917-5.447c-1.078-1.881-2.28-3.9-2.149-6.067.113-1.887,1.161-3.572,1.935-5.3.506-1.137.9-2.322,1.3-3.5l1.286-3.828c.345-1.042.7-2.078.958-3.143.447-1.786.631-3.691,1.155-5.483,1.334-4.626,4.727-8.335,7.865-11.966a50.5,50.5,0,0,0-8.46-2.441,12.72,12.72,0,0,1-2.834-.738c-1.042-.458-1.923-1.191-2.929-1.738a16.33,16.33,0,0,0-5.126-1.3,72.632,72.632,0,0,1-12.068-2.643Z" transform="translate(-213.763 -139.94)" fill="#005fd5"/>
      <path id="Path_318" data-name="Path 318" d="M382.1,400.417a15.359,15.359,0,0,0,.137,4.167,16.306,16.306,0,0,0,1.709,4.048c3.274,6.257,5.953,12.806,8.65,19.343a26.008,26.008,0,0,1,1.732,5.227c.25,1.357.28,2.75.458,4.12a13.1,13.1,0,0,0,1.066,3.905c.631,1.345,4.048,8.531,5.358,9.234,2.816,1.53,6.6.119,8.388-2.542s-.6-12.121-1.417-15.211-2.524-5.876-4.1-8.668a159.232,159.232,0,0,1-7.46-15.05c-1.893-4.394-3.62-9.145-2.822-13.866.447-2.655,1.673-5.114,2.6-7.644s1.548-5.328.762-7.912a3.74,3.74,0,0,0-.6-1.256,4,4,0,0,0-1.667-1.078c-2.786-1.125-8.484-2.06-9.686,1.685-.494,1.554-.6,3.251-1.012,4.84a58.117,58.117,0,0,0-1.393,7.686C382.45,394.415,382.277,397.416,382.1,400.417Z" transform="translate(-210.115 -171.167)" fill="#fbbebe"/>
      <path id="Path_319" data-name="Path 319" d="M472.192,435.5q-5.269,6.215-10.252,12.675l8.6,6.352a18.123,18.123,0,0,1,1.25-3.274,18.344,18.344,0,0,1,2.042-2.887l8.71-10.794a15.425,15.425,0,0,0-6.757-2.286C474.633,435.457,473.341,435.338,472.192,435.5Z" transform="translate(-242.454 -195.062)" fill="#fbbebe"/>
      <path id="Path_320" data-name="Path 320" d="M532.546,319.841c2.274.518,4.548,1.036,6.793,1.667,4.662,1.316,9.377,3.227,12.6,6.841.714.8,1.363,2.012.732,2.881a4.038,4.038,0,0,1-.75.667,8.794,8.794,0,0,0-1.905,2.8,21.963,21.963,0,0,1-3.983,5.275,17.36,17.36,0,0,0-4.4-3.471l-3.572-2.233A13.751,13.751,0,0,0,533,331.98c-2.119-.327-4.257.339-6.4.5a13.562,13.562,0,0,1-7.8-1.786,1.869,1.869,0,0,1-.738-.637,1.846,1.846,0,0,1-.2-.691A9.371,9.371,0,0,1,520,322.532c1.1-1.4,3.572-4.019,5.471-4.263.935-.119,2.262.494,3.185.7Z" transform="translate(-265.069 -147.703)" fill="#fbbebe"/>
      <path id="Path_321" data-name="Path 321" d="M512.982,345.63a15.229,15.229,0,0,0-1.869.869c-4.667,2.435-9.484,4.995-12.693,9.168a36.445,36.445,0,0,0-3.834,6.852l-7.775,16.539-1.631,3.471-2.5,5.251-6.358,13.526a11.116,11.116,0,0,1,6.763.643,5.953,5.953,0,0,1,3.5,5.483c1.846-.161,2.828-2.167,4.126-3.489a25.837,25.837,0,0,1,3.679-2.661,29.083,29.083,0,0,0,4.364-4.233,128,128,0,0,1,13.2-12.717,29.693,29.693,0,0,0,2.62-2.346,21.617,21.617,0,0,0,3.989-6.71,58.418,58.418,0,0,0,3.917-14.586c.4-3.048.548-6.263-.7-9.073a10.121,10.121,0,0,0-11.163-5.6" transform="translate(-248.273 -158.781)" fill="#01e7c0"/>
      <path id="Path_322" data-name="Path 322" d="M511.982,346.63a15.23,15.23,0,0,0-1.869.869c-4.668,2.435-9.484,4.995-12.693,9.168a36.444,36.444,0,0,0-3.834,6.852l-7.775,16.539-1.631,3.471-2.5,5.251-6.358,13.526a11.116,11.116,0,0,1,6.763.643,5.953,5.953,0,0,1,3.5,5.483c1.846-.161,2.828-2.167,4.126-3.489a25.839,25.839,0,0,1,3.679-2.661,29.083,29.083,0,0,0,4.364-4.233,128.005,128.005,0,0,1,13.2-12.717,29.67,29.67,0,0,0,2.62-2.346,21.617,21.617,0,0,0,3.989-6.71,58.421,58.421,0,0,0,3.917-14.586c.4-3.048.548-6.263-.7-9.073a10.121,10.121,0,0,0-11.163-5.6" transform="translate(-247.869 -159.186)" opacity="0.1"/>
      <path id="Path_323" data-name="Path 323" d="M458.132,452.842l-6.513-.714a1.024,1.024,0,0,0-.536.042.953.953,0,0,0-.375.458q-3.143,5.918-5.87,12.05c-1.012,2.268-1.959,4.989-.679,7.144.381.631.935,1.155,1.292,1.786.81,1.482.441,3.328-.143,4.918a2.577,2.577,0,0,0-.25,1.447c.161.667.833,1.066,1.453,1.369a51.074,51.074,0,0,0,16.271,4.858,1.685,1.685,0,0,0,1.268-.185,1.7,1.7,0,0,0,.488-.875,15.577,15.577,0,0,0,.53-1.941c.429-2.346-.232-4.763-.732-7.073-.81-3.786-1.191-7.775-.1-11.484a15.39,15.39,0,0,1,2.084-4.358c1.036-1.512-2.506-2.935-3.447-3.995C461.282,454.473,460.794,453.134,458.132,452.842Z" transform="translate(-235.009 -201.868)" fill="#f2f2f2"/>
      <path id="Path_324" data-name="Path 324" d="M386.087,353.431l-1.977,12.1c1.661-1.572,4.132-1.857,6.418-1.905s4.947.173,6.549,1.887c.649.7,1.06,1.59,1.691,2.31a2.471,2.471,0,0,0,2.512.953,2.173,2.173,0,0,0,1.274-1.506,6.549,6.549,0,0,0,.119-2.042l-.649-13.348c-.161-3.221-.327-6.513-1.512-9.526a14.884,14.884,0,0,0-2.78-4.495,4.869,4.869,0,0,0-1.191-1.03,4.982,4.982,0,0,0-1.578-.47c-1.548-.244-4.066-.649-5.507.19-1.191.708-1.3,2.381-1.441,3.62C387.515,344.619,386.813,349.031,386.087,353.431Z" transform="translate(-210.96 -154.901)" fill="#005fd5"/>
      <ellipse id="Ellipse_60" data-name="Ellipse 60" cx="22.064" cy="9.454" rx="22.064" ry="9.454" transform="translate(196.231 122.307)" fill="#192534"/>
      <circle id="Ellipse_61" data-name="Ellipse 61" cx="12.603" cy="12.603" r="12.603" transform="translate(177.323 106.549)" fill="#192534"/>
      <circle id="Ellipse_62" data-name="Ellipse 62" cx="12.603" cy="12.603" r="12.603" transform="translate(221.45 103.399)" fill="#192534"/>
      <path id="Path_325" data-name="Path 325" d="M485.128,210.995a12.609,12.609,0,0,1,2.78,16.443,13.3,13.3,0,0,0,1.072-1.161,12.609,12.609,0,1,0-19.6-15.867,13.363,13.363,0,0,0-.91,1.293A12.6,12.6,0,0,1,485.128,210.995Z" transform="translate(-245.097 -102.172)" opacity="0.1"/>
      <path id="Path_326" data-name="Path 326" d="M400.71,214.5a12.609,12.609,0,0,1,15.836,5.209,13.035,13.035,0,0,0-.524-1.488,12.608,12.608,0,1,0-23.173,9.943,11.513,11.513,0,0,0,.717,1.4A12.6,12.6,0,0,1,400.71,214.5Z" transform="translate(-214.082 -104.13)" opacity="0.1"/>
      <path id="Path_327" data-name="Path 327" d="M444.944,258.326c-10.931,0-20-3.405-21.754-7.876a4.376,4.376,0,0,0-.31,1.578c0,5.221,9.877,9.454,22.064,9.454s22.064-4.233,22.064-9.454a4.257,4.257,0,0,0-.31-1.578C464.941,254.945,455.874,258.326,444.944,258.326Z" transform="translate(-226.649 -120.266)" opacity="0.1"/>
      <path id="Path_335" data-name="Path 335" d="M424.31,385.928l1.578,2.852L477.224,377.9l-2.03-3.227Z" transform="translate(-171.735 -131.763)" fill="#464a5f"/>
      <path id="Path_336" data-name="Path 336" d="M501.892,426.575l-7.775-46.116a1.476,1.476,0,0,1,1.3-1.709l58.939-6.287a1.471,1.471,0,0,1,1.613,1.262l5.513,40.394Z" transform="translate(-255.467 -169.636)" fill="#464a5f"/>
      <path id="Path_337" data-name="Path 337" d="M501.892,426.575l-7.775-46.116a1.476,1.476,0,0,1,1.3-1.709l58.939-6.287a1.471,1.471,0,0,1,1.613,1.262l5.513,40.394Z" transform="translate(-255.467 -169.636)" opacity="0.1"/>
      <path id="Path_338" data-name="Path 338" d="M503.405,426.575l-7.769-46.116a1.47,1.47,0,0,1,1.292-1.709l58.939-6.287a1.471,1.471,0,0,1,1.613,1.262l5.507,40.394Z" transform="translate(-256.081 -169.636)" fill="#464a5f"/>
      <path id="Path_339" data-name="Path 339" d="M409.31,319.752l6.382,39.18,53.284-10.96-4.953-34.822Z" transform="translate(-165.665 -106.869)" fill="#005fd5"/>
      <path id="Path_340" data-name="Path 340" d="M514.62,454.04l-.375-.756-7.055,1.578,17.968,27.457a2.322,2.322,0,0,0,2.6.958l63.107-18.343a2.322,2.322,0,0,0,.756-4.084L567.159,442.33l-5.1,1.191.226.524Z" transform="translate(-260.765 -197.911)" fill="#9c9ca1"/>
      <path id="Path_341" data-name="Path 341" d="M514.62,454.04l-.375-.756-7.055,1.578,17.968,27.457a2.322,2.322,0,0,0,2.6.958l63.107-18.343a2.322,2.322,0,0,0,.756-4.084L567.159,442.33l-5.1,1.191.226.524Z" transform="translate(-260.765 -197.911)" opacity="0.1"/>
      <path id="Path_342" data-name="Path 342" d="M516.13,454.04l-.375-.756-7.055,1.578,17.968,27.457a2.322,2.322,0,0,0,2.6.958l63.107-18.343a2.322,2.322,0,0,0,.75-4.084L568.663,442.33l-5.1,1.191.226.524Z" transform="translate(-261.376 -197.911)" fill="#9c9ca1"/>
      <path id="Path_343" data-name="Path 343" d="M568.276,477.272l20.278-5.281a.4.4,0,0,1,.363.089l9.008,8.174a.393.393,0,0,1-.155.667l-21.432,6.334a.387.387,0,0,1-.4-.125l-7.841-9.234a.4.4,0,0,1,.185-.625Z" transform="translate(-285.374 -209.909)" opacity="0.1"/>
      <path id="Path_344" data-name="Path 344" d="M569.021,476.53l20.278-5.269a.393.393,0,0,1,.363.089l9,8.168a.393.393,0,0,1-.155.667L577.07,486.52a.4.4,0,0,1-.411-.125l-7.835-9.234a.387.387,0,0,1,.2-.631Z" transform="translate(-285.666 -209.613)" fill="#939498"/>
      <g id="Group_18" data-name="Group 18" transform="translate(253.867 247.225)" opacity="0.1">
        <path id="Path_345" data-name="Path 345" d="M521.216,467.788l.911,1.465a.179.179,0,0,0,.185.083l3.078-.685a.179.179,0,0,0,.1-.274l-1.018-1.429a.173.173,0,0,0-.179-.071l-2.977.637a.173.173,0,0,0-.1.274Z" transform="translate(-520.293 -455.067)"/>
        <path id="Path_346" data-name="Path 346" d="M527.981,466.387l.9,1.47a.185.185,0,0,0,.191.077l3.072-.685a.173.173,0,0,0,.1-.274l-1.012-1.417a.179.179,0,0,0-.179-.071l-2.977.637a.173.173,0,0,0-.1.262Z" transform="translate(-523.034 -454.505)"/>
        <path id="Path_347" data-name="Path 347" d="M534.52,464.963l.911,1.465a.179.179,0,0,0,.185.077l3.078-.685a.179.179,0,0,0,.1-.274l-1.024-1.417a.185.185,0,0,0-.179-.071l-2.977.637a.179.179,0,0,0-.1.268Z" transform="translate(-525.68 -453.927)"/>
        <path id="Path_348" data-name="Path 348" d="M540.979,463.558l.9,1.447a.19.19,0,0,0,.2.083l3.048-.679a.191.191,0,0,0,.107-.292l-1-1.4a.184.184,0,0,0-.19-.071l-2.977.631a.19.19,0,0,0-.089.28Z" transform="translate(-528.293 -453.355)"/>
        <path id="Path_349" data-name="Path 349" d="M540.451,467.326l.911,1.465a.167.167,0,0,0,.185.077l3.072-.685a.167.167,0,0,0,.1-.268l-1.012-1.423a.173.173,0,0,0-.179-.065l-2.977.637a.173.173,0,0,0-.1.262Z" transform="translate(-528.08 -454.885)"/>
        <path id="Path_350" data-name="Path 350" d="M533.77,468.761l.911,1.465a.178.178,0,0,0,.19.077l3.072-.685a.173.173,0,0,0,.1-.274l-1.018-1.393a.167.167,0,0,0-.179-.065l-2.977.637a.179.179,0,0,0-.1.238Z" transform="translate(-525.382 -455.475)"/>
        <path id="Path_351" data-name="Path 351" d="M538.115,471.77l.911,1.471a.191.191,0,0,0,.191.077l3.072-.685a.173.173,0,0,0,.1-.274l-1.018-1.411a.173.173,0,0,0-.179-.071l-2.977.637a.179.179,0,0,0-.1.256Z" transform="translate(-527.137 -456.686)"/>
        <path id="Path_352" data-name="Path 352" d="M544.261,474.386l.911,1.465a.167.167,0,0,0,.185.077l3.072-.685a.173.173,0,0,0,.107-.268l-1.018-1.423a.173.173,0,0,0-.179-.065l-2.977.637a.173.173,0,0,0-.1.262Z" transform="translate(-529.621 -457.742)"/>
        <path id="Path_353" data-name="Path 353" d="M545.325,478.562l1.47,1.846a.173.173,0,0,0,.179.06l3.1-.8a.179.179,0,0,0,.1-.28l-1.524-1.857a.173.173,0,0,0-.179-.06l-3.048.822a.173.173,0,0,0-.089.274Z" transform="translate(-530.048 -459.352)"/>
        <path id="Path_354" data-name="Path 354" d="M552.125,476.68l1.512,1.9a.173.173,0,0,0,.179.06l4.042-1.119a.179.179,0,0,0,.089-.28l-1.524-1.863a.172.172,0,0,0-.179-.06l-4.025,1.084a.179.179,0,0,0-.1.28Z" transform="translate(-532.801 -458.482)"/>
        <path id="Path_355" data-name="Path 355" d="M538.675,480.25l1.471,1.846a.173.173,0,0,0,.179.06l3.1-.8a.179.179,0,0,0,.1-.28l-1.524-1.863a.167.167,0,0,0-.179-.054l-3.048.816a.179.179,0,0,0-.089.28Z" transform="translate(-527.357 -460.034)"/>
        <path id="Path_356" data-name="Path 356" d="M531.636,482.016l1.471,1.84a.173.173,0,0,0,.179.06l3.1-.8a.179.179,0,0,0,.1-.28l-1.518-1.875a.185.185,0,0,0-.185-.06l-3.048.822a.179.179,0,0,0-.089.3Z" transform="translate(-524.504 -460.74)"/>
        <path id="Path_357" data-name="Path 357" d="M547.428,462.048l.893,1.447a.191.191,0,0,0,.2.083l3.048-.679a.184.184,0,0,0,.107-.292l-1-1.4a.185.185,0,0,0-.191-.071l-2.941.631a.179.179,0,0,0-.119.28Z" transform="translate(-530.901 -452.744)"/>
        <path id="Path_358" data-name="Path 358" d="M546.986,465.812l.893,1.447a.19.19,0,0,0,.2.083l3.048-.679a.185.185,0,0,0,.107-.292l-.976-1.423a.185.185,0,0,0-.19-.071l-2.941.667a.185.185,0,0,0-.143.268Z" transform="translate(-530.727 -454.258)"/>
        <path id="Path_359" data-name="Path 359" d="M553.7,460.628l.893,1.447a.19.19,0,0,0,.2.083l3.048-.679a.184.184,0,0,0,.107-.292l-1-1.4a.185.185,0,0,0-.19-.071l-2.941.631a.185.185,0,0,0-.119.28Z" transform="translate(-533.441 -452.17)"/>
        <path id="Path_360" data-name="Path 360" d="M572.031,456.648l1.262,1.346a.166.166,0,0,0,.143.042l2.721-.631a.149.149,0,0,0,.071-.256L574.8,455.8a.161.161,0,0,0-.143-.036l-2.56.631a.149.149,0,0,0-.071.25Z" transform="translate(-540.852 -450.572)"/>
        <path id="Path_361" data-name="Path 361" d="M577.894,455.289l1.268,1.345a.143.143,0,0,0,.143.042l2.721-.631a.143.143,0,0,0,.065-.25l-1.423-1.351a.173.173,0,0,0-.143-.036l-2.56.631a.155.155,0,0,0-.071.25Z" transform="translate(-543.227 -450.022)"/>
        <path id="Path_362" data-name="Path 362" d="M572.154,460.3l1.268,1.345a.143.143,0,0,0,.143.042l2.721-.625a.149.149,0,0,0,.071-.256l-1.429-1.346a.149.149,0,0,0-.137-.042l-2.56.637a.149.149,0,0,0-.077.244Z" transform="translate(-540.905 -452.049)"/>
        <path id="Path_363" data-name="Path 363" d="M566.135,461.68l1.191,1.286a.184.184,0,0,0,.179.054l2.637-.6a.19.19,0,0,0,.083-.321l-1.363-1.286a.179.179,0,0,0-.173-.042l-2.477.6a.191.191,0,0,0-.077.31Z" transform="translate(-538.464 -452.597)"/>
        <path id="Path_364" data-name="Path 364" d="M570.705,468.492l1.191,1.286a.2.2,0,0,0,.179.054l2.637-.6a.185.185,0,0,0,.083-.316l-1.363-1.286a.2.2,0,0,0-.173-.048l-2.477.6a.19.19,0,0,0-.077.31Z" transform="translate(-540.313 -455.355)"/>
        <path id="Path_365" data-name="Path 365" d="M564.434,469.912l1.191,1.286a.2.2,0,0,0,.179.054l2.631-.6a.185.185,0,0,0,.089-.316l-1.363-1.286a.19.19,0,0,0-.173-.048l-2.483.6a.19.19,0,0,0-.071.31Z" transform="translate(-537.775 -455.929)"/>
        <path id="Path_366" data-name="Path 366" d="M558.062,471.48l1.191,1.286a.185.185,0,0,0,.179.054l2.637-.6a.191.191,0,0,0,.083-.322l-1.363-1.286a.178.178,0,0,0-.173-.042l-2.477.6a.185.185,0,0,0-.077.31Z" transform="translate(-535.195 -456.562)"/>
        <path id="Path_367" data-name="Path 367" d="M551.326,472.819l1.226,1.3a.179.179,0,0,0,.167.054l2.661-.6a.173.173,0,0,0,.083-.3l-1.381-1.316a.173.173,0,0,0-.161-.042l-2.506.6a.167.167,0,0,0-.089.3Z" transform="translate(-532.466 -457.11)"/>
        <path id="Path_368" data-name="Path 368" d="M564.361,465.96l1.191,1.286a.191.191,0,0,0,.179.054l2.631-.6a.185.185,0,0,0,.089-.316l-1.357-1.3a.191.191,0,0,0-.173-.048l-2.483.6a.185.185,0,0,0-.077.327Z" transform="translate(-537.737 -454.322)"/>
        <path id="Path_369" data-name="Path 369" d="M558.249,467.376l1.191,1.28a.173.173,0,0,0,.179.054l2.637-.6a.185.185,0,0,0,.083-.316l-1.363-1.286a.167.167,0,0,0-.173-.048l-2.477.6a.185.185,0,0,0-.077.316Z" transform="translate(-535.268 -454.899)"/>
        <path id="Path_370" data-name="Path 370" d="M551.7,468.771l1.191,1.286a.185.185,0,0,0,.179.054l2.631-.6a.191.191,0,0,0,.089-.322l-1.363-1.286a.185.185,0,0,0-.173-.042l-2.483.6a.185.185,0,0,0-.071.31Z" transform="translate(-532.62 -455.466)"/>
        <path id="Path_371" data-name="Path 371" d="M544.969,470.394l1.226,1.3a.2.2,0,0,0,.173.048l2.661-.6a.173.173,0,0,0,.077-.3l-1.381-1.3a.179.179,0,0,0-.161-.042l-2.506.6a.179.179,0,0,0-.089.292Z" transform="translate(-529.901 -456.131)"/>
        <path id="Path_372" data-name="Path 372" d="M570.674,464.49l1.191,1.28a.184.184,0,0,0,.179.06l2.631-.6a.185.185,0,0,0,.089-.316l-1.363-1.286a.173.173,0,0,0-.173-.048l-2.483.6a.19.19,0,0,0-.071.31Z" transform="translate(-540.3 -453.734)"/>
        <path id="Path_373" data-name="Path 373" d="M559.961,463.262l1.191,1.286a.19.19,0,0,0,.179.054l2.631-.6a.185.185,0,0,0,.083-.316l-1.357-1.286a.191.191,0,0,0-.173-.048l-2.483.6a.185.185,0,0,0-.071.31Z" transform="translate(-535.963 -453.238)"/>
        <path id="Path_374" data-name="Path 374" d="M583.568,453.9l1.328,1.4a.113.113,0,0,0,.107.036l2.81-.655a.113.113,0,0,0,.054-.191l-1.494-1.411a.113.113,0,0,0-.107,0l-2.643.655a.107.107,0,0,0-.054.161Z" transform="translate(-545.531 -449.481)"/>
        <path id="Path_375" data-name="Path 375" d="M589.271,452.63l1.328,1.411a.125.125,0,0,0,.107.036l2.81-.655a.113.113,0,0,0,.054-.191l-1.488-1.411a.1.1,0,0,0-.1,0l-2.649.655a.107.107,0,0,0-.06.155Z" transform="translate(-547.841 -448.971)"/>
        <path id="Path_376" data-name="Path 376" d="M595.135,451.362l1.191,1.3a.107.107,0,0,0,.113.036l2.62-.714a.119.119,0,0,0,.042-.2l-1.351-1.137a.119.119,0,0,0-.1,0l-2.483.548a.107.107,0,0,0-.036.161Z" transform="translate(-550.21 -448.5)"/>
        <path id="Path_377" data-name="Path 377" d="M601.277,453.4l1.191,1.31a.119.119,0,0,0,.107.036l2.62-.714a.113.113,0,0,0,.042-.2l-1.351-1.137a.1.1,0,0,0-.1,0l-2.477.542a.113.113,0,0,0-.036.161Z" transform="translate(-552.697 -449.327)"/>
        <path id="Path_378" data-name="Path 378" d="M600.522,457.357l1.149,1.238a.137.137,0,0,0,.149.042l2.524-.685a.149.149,0,0,0,.06-.262l-1.28-1.084a.149.149,0,0,0-.131-.03l-2.381.53a.149.149,0,0,0-.089.25Z" transform="translate(-552.383 -450.899)"/>
        <path id="Path_379" data-name="Path 379" d="M595.529,462.484l1.149,1.244a.149.149,0,0,0,.149.042l2.548-.691a.149.149,0,0,0,.059-.256l-1.28-1.084a.149.149,0,0,0-.131,0l-2.381.524a.155.155,0,0,0-.113.22Z" transform="translate(-550.373 -452.984)"/>
        <path id="Path_380" data-name="Path 380" d="M589.506,464.02l1.149,1.238a.137.137,0,0,0,.149.042l2.524-.685a.149.149,0,0,0,.06-.262l-1.28-1.084a.149.149,0,0,0-.131,0l-2.381.53a.149.149,0,0,0-.089.22Z" transform="translate(-547.933 -453.603)"/>
        <path id="Path_381" data-name="Path 381" d="M601.186,460.949l1.149,1.238a.161.161,0,0,0,.149.048l2.53-.691a.149.149,0,0,0,.054-.262l-1.28-1.078a.173.173,0,0,0-.131-.036l-2.381.53a.155.155,0,0,0-.089.25Z" transform="translate(-552.654 -452.354)"/>
        <path id="Path_382" data-name="Path 382" d="M600.192,465.278l1.732,1.56a.178.178,0,0,0,.143,0l2.506-.708a.149.149,0,0,0,.06-.256l-1.869-1.637a.137.137,0,0,0-.143,0l-2.381.792a.143.143,0,0,0-.048.25Z" transform="translate(-552.243 -453.992)"/>
        <path id="Path_383" data-name="Path 383" d="M589.987,456.241l1.191,1.31a.1.1,0,0,0,.107.03l2.62-.714a.107.107,0,0,0,.042-.191l-1.351-1.143a.107.107,0,0,0-.1,0l-2.477.548a.113.113,0,0,0-.036.161Z" transform="translate(-548.128 -450.474)"/>
        <path id="Path_384" data-name="Path 384" d="M584.322,457.609l1.149,1.238a.16.16,0,0,0,.149.048l2.53-.691a.149.149,0,0,0,.054-.262l-1.28-1.078a.173.173,0,0,0-.131-.036l-2.381.53a.149.149,0,0,0-.089.25Z" transform="translate(-545.827 -451.002)"/>
        <path id="Path_385" data-name="Path 385" d="M583.162,461.641l1.149,1.244a.149.149,0,0,0,.149.042l2.524-.691a.149.149,0,0,0,.06-.256l-1.286-1.083a.149.149,0,0,0-.131-.03l-2.381.524a.149.149,0,0,0-.083.25Z" transform="translate(-545.357 -452.635)"/>
        <path id="Path_386" data-name="Path 386" d="M577.172,463.091l1.149,1.244a.149.149,0,0,0,.149.042l2.524-.691a.149.149,0,0,0,.06-.256l-1.286-1.084a.137.137,0,0,0-.125-.03l-2.381.524a.149.149,0,0,0-.089.25Z" transform="translate(-542.934 -453.222)"/>
        <path id="Path_387" data-name="Path 387" d="M578.246,458.961l1.149,1.244a.137.137,0,0,0,.149.042l2.524-.691a.149.149,0,0,0,.06-.256l-1.28-1.084a.149.149,0,0,0-.131-.03l-2.381.53a.149.149,0,0,0-.089.244Z" transform="translate(-543.37 -451.551)"/>
        <path id="Path_388" data-name="Path 388" d="M583.256,465.361l1.149,1.244a.149.149,0,0,0,.149.042l2.524-.691a.149.149,0,0,0,.06-.256l-1.28-1.084a.149.149,0,0,0-.131-.03l-2.381.524a.155.155,0,0,0-.089.25Z" transform="translate(-545.398 -454.14)"/>
        <path id="Path_389" data-name="Path 389" d="M577.373,466.929l1.089,1.191a.179.179,0,0,0,.185.054l2.435-.661a.191.191,0,0,0,.071-.327l-1.191-1.024a.172.172,0,0,0-.161-.036l-2.31.506a.185.185,0,0,0-.119.3Z" transform="translate(-543.016 -454.762)"/>
        <path id="Path_390" data-name="Path 390" d="M595.815,454.772l1.191,1.31a.113.113,0,0,0,.113,0l2.62-.714a.107.107,0,0,0,.042-.19l-1.351-1.143a.131.131,0,0,0-.1,0l-2.477.548a.113.113,0,0,0-.042.191Z" transform="translate(-550.48 -449.868)"/>
        <path id="Path_391" data-name="Path 391" d="M594.977,458.715l1.149,1.244a.149.149,0,0,0,.149.042l2.524-.691a.149.149,0,0,0,.06-.256l-1.262-1.078a.148.148,0,0,0-.131-.03l-2.381.524a.149.149,0,0,0-.107.244Z" transform="translate(-550.141 -451.454)"/>
        <path id="Path_392" data-name="Path 392" d="M589.242,460.289l1.149,1.238a.155.155,0,0,0,.149.048l2.524-.691a.155.155,0,0,0,.06-.262l-1.286-1.078a.161.161,0,0,0-.125-.036l-2.381.53a.149.149,0,0,0-.089.25Z" transform="translate(-547.818 -452.087)"/>
        <path id="Path_393" data-name="Path 393" d="M566.044,457.938l1.268,1.345a.155.155,0,0,0,.143.042l2.721-.631a.149.149,0,0,0,.065-.256l-1.423-1.345a.155.155,0,0,0-.143-.036l-2.56.631a.155.155,0,0,0-.071.25Z" transform="translate(-538.432 -451.093)"/>
        <path id="Path_394" data-name="Path 394" d="M559.965,459.38l1.191,1.286a.184.184,0,0,0,.179.054l2.637-.6a.191.191,0,0,0,.083-.321l-1.363-1.286a.179.179,0,0,0-.173-.042l-2.477.6a.19.19,0,0,0-.077.31Z" transform="translate(-535.967 -451.666)"/>
        <path id="Path_395" data-name="Path 395" d="M553.407,464.475l.9,1.441a.184.184,0,0,0,.2.083l3.042-.679a.185.185,0,0,0,.113-.292l-1-1.393a.2.2,0,0,0-.19-.077l-2.977.631a.19.19,0,0,0-.089.286Z" transform="translate(-533.321 -453.725)"/>
        <path id="Path_396" data-name="Path 396" d="M519.827,465.523l3.006-.7a.173.173,0,0,1,.179.066l.53.7a.173.173,0,0,1-.1.274l-3.114.726a.173.173,0,0,1-.19-.083l-.423-.726a.173.173,0,0,1,.113-.256Z" transform="translate(-519.69 -454.237)"/>
        <path id="Path_397" data-name="Path 397" d="M526.758,464.013l2.977-.7a.167.167,0,0,1,.179.065l.53.691a.179.179,0,0,1-.1.28l-3.114.726a.179.179,0,0,1-.19-.083l-.423-.726a.173.173,0,0,1,.143-.256Z" transform="translate(-522.484 -453.626)"/>
        <path id="Path_398" data-name="Path 398" d="M533.469,462.526l2.977-.691a.167.167,0,0,1,.179.06l.53.7a.173.173,0,0,1-.1.274l-3.114.726a.173.173,0,0,1-.19-.083l-.423-.72a.179.179,0,0,1,.143-.262Z" transform="translate(-525.2 -453.026)"/>
        <path id="Path_399" data-name="Path 399" d="M540.034,461.077l2.977-.691a.167.167,0,0,1,.179.065l.53.691a.179.179,0,0,1-.1.28l-3.054.72a.167.167,0,0,1-.19-.077l-.423-.726a.179.179,0,0,1,.083-.262Z" transform="translate(-527.877 -452.44)"/>
        <path id="Path_400" data-name="Path 400" d="M546.665,459.608l2.977-.691a.2.2,0,0,1,.191.071l.512.673a.191.191,0,0,1-.107.3l-3.09.72a.19.19,0,0,1-.2-.089l-.411-.7a.19.19,0,0,1,.131-.28Z" transform="translate(-530.543 -451.847)"/>
        <path id="Path_401" data-name="Path 401" d="M553.121,458.266l2.977-.691a.179.179,0,0,1,.19.065l.512.673a.191.191,0,0,1-.107.3l-3.09.72a.191.191,0,0,1-.2-.089l-.417-.7a.185.185,0,0,1,.137-.274Z" transform="translate(-533.153 -451.302)"/>
        <path id="Path_402" data-name="Path 402" d="M559.439,456.963l2.756-.667a.179.179,0,0,1,.179.054l.536.56a.185.185,0,0,1-.089.31l-2.727.685a.172.172,0,0,1-.173-.048l-.6-.6a.191.191,0,0,1,.113-.3Z" transform="translate(-535.714 -450.785)"/>
        <path id="Path_403" data-name="Path 403" d="M565.605,455.527l2.84-.691a.143.143,0,0,1,.143.042l.6.625a.143.143,0,0,1-.071.244l-2.8.708a.155.155,0,0,1-.143-.042l-.625-.637a.149.149,0,0,1,.065-.25Z" transform="translate(-538.225 -450.195)"/>
        <path id="Path_404" data-name="Path 404" d="M571.718,454.1l2.84-.691a.131.131,0,0,1,.143.042l.6.6a.155.155,0,0,1-.071.25l-2.792.732a.161.161,0,0,1-.143-.042l-.643-.631a.149.149,0,0,1,.071-.256Z" transform="translate(-540.695 -449.615)"/>
        <path id="Path_405" data-name="Path 405" d="M577.855,452.838l2.84-.691a.155.155,0,0,1,.143.042l.6.6a.155.155,0,0,1-.071.25l-2.8.7a.155.155,0,0,1-.149-.042l-.625-.631a.155.155,0,0,1,.071-.226Z" transform="translate(-543.188 -449.107)"/>
        <path id="Path_406" data-name="Path 406" d="M583.643,451.429l2.929-.708a.107.107,0,0,1,.107,0l.649.685a.107.107,0,0,1-.054.185l-2.87.756a.1.1,0,0,1-.107,0l-.691-.7a.113.113,0,0,1,.036-.22Z" transform="translate(-545.524 -448.525)"/>
        <path id="Path_407" data-name="Path 407" d="M589.517,450.183l2.929-.714a.125.125,0,0,1,.107.036l.655.685a.113.113,0,0,1-.054.185l-2.893.726a.107.107,0,0,1-.107,0l-.691-.72a.113.113,0,0,1,.054-.2Z" transform="translate(-547.909 -448.024)"/>
        <path id="Path_408" data-name="Path 408" d="M595.336,448.924l2.7-.6a.113.113,0,0,1,.113.042l.524.643a.107.107,0,0,1-.059.173l-2.542.673a.1.1,0,0,1-.107-.03l-.691-.7a.108.108,0,0,1,.06-.208Z" transform="translate(-550.245 -447.562)"/>
        <path id="Path_409" data-name="Path 409" d="M600.9,447.642l2.709-.6a.107.107,0,0,1,.113.036l.524.643a.113.113,0,0,1-.06.179l-2.542.673a.131.131,0,0,1-.107,0l-.691-.7a.119.119,0,1,1,.054-.232Z" transform="translate(-552.493 -447.043)"/>
        <path id="Path_410" data-name="Path 410" d="M523.45,470.984l1,1.423a.173.173,0,0,0,.185.071l5.209-1.191a.173.173,0,0,0,.1-.274l-1.1-1.459a.179.179,0,0,0-.185-.06l-5.1,1.244a.185.185,0,0,0-.107.244Z" transform="translate(-521.206 -456.126)"/>
        <path id="Path_411" data-name="Path 411" d="M526.091,474.061l1,1.584a.167.167,0,0,0,.185.077l6.293-1.494a.173.173,0,0,0,.1-.28l-1.244-1.542a.173.173,0,0,0-.179-.06L526.2,473.8a.173.173,0,0,0-.107.262Z" transform="translate(-522.269 -457.28)"/>
        <path id="Path_412" data-name="Path 412" d="M528.47,477.161l1.191,1.721a.173.173,0,0,0,.185.071l8.335-2.06a.179.179,0,0,0,.1-.28l-1.345-1.721a.173.173,0,0,0-.179-.065l-8.24,2.066a.173.173,0,0,0-.048.268Z" transform="translate(-523.225 -458.284)"/>
        <path id="Path_413" data-name="Path 413" d="M560.521,472.255l1.524,1.84a.191.191,0,0,0,.191.06l18.337-4.578a.179.179,0,0,0,.083-.31l-1.869-1.863a.179.179,0,0,0-.179-.048l-17.991,4.6a.185.185,0,0,0-.1.3Z" transform="translate(-536.195 -455.259)"/>
        <path id="Path_414" data-name="Path 414" d="M592.3,466.737l1.786,1.786a.155.155,0,0,0,.149.042l3.757-1.006a.149.149,0,0,0,.065-.25l-1.863-1.828a.137.137,0,0,0-.143-.036l-3.691,1.018a.149.149,0,0,0-.06.274Z" transform="translate(-549.045 -454.487)"/>
        <path id="Path_415" data-name="Path 415" d="M607.589,465.041l.816.869a.107.107,0,0,0,.107.03l2.786-.75a.107.107,0,0,0,.048-.185l-.994-.935a.113.113,0,0,0-.107,0l-2.608.816a.107.107,0,0,0-.048.155Z" transform="translate(-555.252 -453.928)"/>
        <path id="Path_416" data-name="Path 416" d="M611.569,461.992l.976,1.024a.1.1,0,0,0,.113.03l2.554-.887a.107.107,0,0,0,.042-.185l-.953-.863a.119.119,0,0,0-.107,0l-2.578.72a.113.113,0,0,0-.048.161Z" transform="translate(-556.863 -452.731)"/>
        <path id="Path_417" data-name="Path 417" d="M614.237,464.435l-.7-.6a.113.113,0,0,1,.036-.191l2.542-.881a.107.107,0,0,1,.119,0l.792.768a.113.113,0,0,1-.048.191l-2.643.685A.119.119,0,0,1,614.237,464.435Z" transform="translate(-557.649 -453.399)"/>
        <path id="Path_418" data-name="Path 418" d="M619.107,462.282c.22.208.6.631.756.774a.113.113,0,0,0,.107.03l2.649-.72a.113.113,0,0,0,.048-.191l-.941-.845a.1.1,0,0,0-.107,0l-2.465.792a.107.107,0,0,0-.048.161Z" transform="translate(-559.912 -452.818)"/>
        <path id="Path_419" data-name="Path 419" d="M606.608,458.771l1.423,1.369a.1.1,0,0,0,.1.03l6.841-1.786a.107.107,0,0,0,.042-.191l-1.637-1.393a.1.1,0,0,0-.1,0l-6.6,1.786a.107.107,0,0,0-.071.185Z" transform="translate(-554.848 -450.986)"/>
        <path id="Path_420" data-name="Path 420" d="M605.837,455.557l1.465,1.3a.125.125,0,0,0,.1,0l5.144-1.191a.113.113,0,0,0,.048-.2l-1.685-1.411a.125.125,0,0,0-.1,0l-4.924,1.328a.113.113,0,0,0-.048.167Z" transform="translate(-554.542 -449.879)"/>
        <path id="Path_421" data-name="Path 421" d="M606.6,452.141l1.387,1.238a.107.107,0,0,0,.1,0l2.637-.6a.119.119,0,0,0,.054-.2l-1.643-1.417a.113.113,0,0,0-.107,0l-2.381.762a.113.113,0,0,0-.048.208Z" transform="translate(-554.839 -448.708)"/>
        <path id="Path_422" data-name="Path 422" d="M600.543,449.846l1.346,1.22a.119.119,0,0,0,.1,0l4.167-.994a.113.113,0,0,0,.048-.191l-1.6-1.34a.125.125,0,0,0-.1,0l-3.929,1.113a.113.113,0,0,0-.03.191Z" transform="translate(-552.392 -447.645)"/>
      </g>
      <path id="Path_423" data-name="Path 423" d="M521.221,467.043l.911,1.465a.179.179,0,0,0,.185.077l3.078-.685a.179.179,0,0,0,.1-.274l-1.018-1.417a.185.185,0,0,0-.179-.071l-2.977.637a.179.179,0,0,0-.1.268Z" transform="translate(-266.431 -207.544)" fill="#464a5f"/>
      <path id="Path_424" data-name="Path 424" d="M527.981,465.626l.9,1.465a.179.179,0,0,0,.191.077l3.072-.685a.173.173,0,0,0,.1-.274l-1.012-1.417a.173.173,0,0,0-.179-.065l-2.977.637a.173.173,0,0,0-.1.262Z" transform="translate(-269.166 -206.972)" fill="#464a5f"/>
      <path id="Path_425" data-name="Path 425" d="M534.52,464.206l.911,1.465a.167.167,0,0,0,.185.077l3.078-.685a.173.173,0,0,0,.1-.268l-1.024-1.423a.173.173,0,0,0-.179-.065l-2.977.637a.173.173,0,0,0-.1.262Z" transform="translate(-271.812 -206.397)" fill="#464a5f"/>
      <path id="Path_426" data-name="Path 426" d="M540.973,462.79l.9,1.447a.185.185,0,0,0,.2.083l3.048-.679a.191.191,0,0,0,.107-.292l-1.012-1.405a.185.185,0,0,0-.19-.077l-2.977.631a.191.191,0,0,0-.077.292Z" transform="translate(-274.419 -205.815)" fill="#464a5f"/>
      <path id="Path_427" data-name="Path 427" d="M540.451,466.567l.911,1.471a.184.184,0,0,0,.185.077l3.072-.685a.173.173,0,0,0,.1-.274l-1.012-1.417a.179.179,0,0,0-.179-.071l-2.977.637a.173.173,0,0,0-.1.262Z" transform="translate(-274.212 -207.353)" fill="#464a5f"/>
      <path id="Path_428" data-name="Path 428" d="M533.763,467.986l.911,1.465a.19.19,0,0,0,.191.083l3.072-.685a.173.173,0,0,0,.1-.274l-1.018-1.417a.173.173,0,0,0-.179-.071l-2.977.637a.179.179,0,0,0-.1.262Z" transform="translate(-271.508 -207.928)" fill="#464a5f"/>
      <path id="Path_429" data-name="Path 429" d="M538.111,471.015l.911,1.465a.173.173,0,0,0,.191.077l3.072-.685a.173.173,0,0,0,.1-.274l-1.018-1.417a.167.167,0,0,0-.179-.065l-2.977.631a.179.179,0,0,0-.1.268Z" transform="translate(-273.266 -209.153)" fill="#464a5f"/>
      <path id="Path_430" data-name="Path 430" d="M544.261,473.657l.911,1.47a.173.173,0,0,0,.185.077l3.072-.685a.179.179,0,0,0,.107-.274l-1.018-1.417a.179.179,0,0,0-.179-.071l-2.977.637a.173.173,0,0,0-.1.262Z" transform="translate(-275.754 -210.222)" fill="#464a5f"/>
      <path id="Path_431" data-name="Path 431" d="M545.325,477.808l1.47,1.84a.173.173,0,0,0,.179.06l3.1-.8a.179.179,0,0,0,.1-.28l-1.524-1.857a.173.173,0,0,0-.179-.06l-3.048.822a.179.179,0,0,0-.089.28Z" transform="translate(-276.181 -211.819)" fill="#464a5f"/>
      <path id="Path_432" data-name="Path 432" d="M552.125,475.924l1.512,1.9a.173.173,0,0,0,.179.06l4.042-1.119a.179.179,0,0,0,.089-.28l-1.524-1.857a.173.173,0,0,0-.179-.06l-4.024,1.083a.173.173,0,0,0-.1.274Z" transform="translate(-278.933 -210.953)" fill="#464a5f"/>
      <path id="Path_433" data-name="Path 433" d="M538.675,479.448l1.471,1.84a.173.173,0,0,0,.179.06l3.1-.8a.179.179,0,0,0,.1-.28l-1.524-1.857a.173.173,0,0,0-.179-.06l-3.048.822a.179.179,0,0,0-.089.28Z" transform="translate(-273.49 -212.483)" fill="#464a5f"/>
      <path id="Path_434" data-name="Path 434" d="M531.645,481.252l1.47,1.846a.173.173,0,0,0,.179.06l3.1-.8a.179.179,0,0,0,.1-.28l-1.518-1.857a.184.184,0,0,0-.185-.06l-3.048.822a.173.173,0,0,0-.089.274Z" transform="translate(-270.645 -213.215)" fill="#464a5f"/>
      <path id="Path_435" data-name="Path 435" d="M547.43,461.288l.893,1.447a.19.19,0,0,0,.2.083l3.048-.679a.184.184,0,0,0,.107-.292l-1-1.4a.184.184,0,0,0-.19-.071l-2.941.631a.185.185,0,0,0-.119.28Z" transform="translate(-277.037 -205.212)" fill="#464a5f"/>
      <path id="Path_436" data-name="Path 436" d="M546.98,465.068l.893,1.447a.19.19,0,0,0,.2.083l3.048-.679a.185.185,0,0,0,.107-.292l-1-1.393a.184.184,0,0,0-.19-.077l-2.941.631a.185.185,0,0,0-.119.28Z" transform="translate(-276.855 -206.742)" fill="#464a5f"/>
      <path id="Path_437" data-name="Path 437" d="M553.7,459.868l.893,1.447a.19.19,0,0,0,.2.083l3.048-.679a.185.185,0,0,0,.107-.292l-1-1.4a.191.191,0,0,0-.19-.071l-2.941.619a.185.185,0,0,0-.119.292Z" transform="translate(-279.569 -204.638)" fill="#464a5f"/>
      <path id="Path_438" data-name="Path 438" d="M572.031,455.888l1.262,1.345a.167.167,0,0,0,.143.042l2.721-.631a.149.149,0,0,0,.071-.256l-1.423-1.345a.161.161,0,0,0-.143-.036l-2.56.631a.149.149,0,0,0-.071.25Z" transform="translate(-286.985 -203.039)" fill="#464a5f"/>
      <path id="Path_439" data-name="Path 439" d="M577.9,454.546l1.268,1.34a.143.143,0,0,0,.143.048l2.721-.631a.149.149,0,0,0,.083-.244l-1.423-1.345a.155.155,0,0,0-.143-.036l-2.56.631a.155.155,0,0,0-.089.238Z" transform="translate(-289.367 -202.501)" fill="#464a5f"/>
      <path id="Path_440" data-name="Path 440" d="M572.155,459.548l1.268,1.345a.155.155,0,0,0,.143.042l2.721-.631a.149.149,0,0,0,.071-.256l-1.429-1.346a.143.143,0,0,0-.137-.036l-2.56.631a.155.155,0,0,0-.077.25Z" transform="translate(-287.038 -204.52)" fill="#464a5f"/>
      <path id="Path_441" data-name="Path 441" d="M566.129,460.926l1.191,1.28a.184.184,0,0,0,.179.054l2.637-.6a.185.185,0,0,0,.083-.316l-1.363-1.286a.167.167,0,0,0-.173-.048l-2.477.6a.185.185,0,0,0-.077.316Z" transform="translate(-284.59 -205.064)" fill="#464a5f"/>
      <path id="Path_442" data-name="Path 442" d="M570.705,467.73l1.191,1.286a.184.184,0,0,0,.179.054l2.637-.6a.191.191,0,0,0,.083-.322l-1.363-1.286a.179.179,0,0,0-.173-.042l-2.477.6a.19.19,0,0,0-.077.31Z" transform="translate(-286.446 -207.82)" fill="#464a5f"/>
      <path id="Path_443" data-name="Path 443" d="M564.434,469.152l1.191,1.286a.2.2,0,0,0,.179.054l2.631-.6a.185.185,0,0,0,.089-.316l-1.363-1.286a.2.2,0,0,0-.173-.048l-2.483.6a.19.19,0,0,0-.071.31Z" transform="translate(-283.908 -208.397)" fill="#464a5f"/>
      <path id="Path_444" data-name="Path 444" d="M558.027,470.7l1.191,1.286a.2.2,0,0,0,.179.054l2.637-.6a.186.186,0,1,0,.1-.357l-1.363-1.286a.179.179,0,0,0-.173-.048l-2.477.6a.185.185,0,0,0-.1.351Z" transform="translate(-281.293 -209.007)" fill="#464a5f"/>
      <path id="Path_445" data-name="Path 445" d="M551.331,472.07l1.226,1.3a.173.173,0,0,0,.167.048l2.661-.6a.179.179,0,0,0,.083-.3l-1.387-1.31a.19.19,0,0,0-.161-.042l-2.506.6a.173.173,0,0,0-.083.3Z" transform="translate(-278.604 -209.583)" fill="#464a5f"/>
      <path id="Path_446" data-name="Path 446" d="M564.365,465.2l1.191,1.286a.179.179,0,0,0,.179.054l2.631-.6a.19.19,0,0,0,.089-.322l-1.357-1.3a.184.184,0,0,0-.173-.042l-2.483.6a.185.185,0,0,0-.077.321Z" transform="translate(-283.874 -206.793)" fill="#464a5f"/>
      <path id="Path_447" data-name="Path 447" d="M558.255,466.632l1.191,1.286a.2.2,0,0,0,.179.054l2.637-.6a.185.185,0,0,0,.083-.316l-1.363-1.286a.2.2,0,0,0-.173-.048l-2.477.6a.191.191,0,0,0-.077.31Z" transform="translate(-281.408 -207.377)" fill="#464a5f"/>
      <path id="Path_448" data-name="Path 448" d="M551.7,468.021l1.191,1.28a.185.185,0,0,0,.179.06l2.631-.6a.185.185,0,0,0,.089-.316l-1.363-1.286a.173.173,0,0,0-.173-.048l-2.483.6a.185.185,0,0,0-.071.31Z" transform="translate(-278.753 -207.938)" fill="#464a5f"/>
      <path id="Path_449" data-name="Path 449" d="M544.966,469.581l1.226,1.3a.185.185,0,0,0,.173.048l2.661-.6a.179.179,0,0,0,.077-.3l-1.381-1.3a.179.179,0,0,0-.161-.048l-2.506.6a.179.179,0,0,0-.089.3Z" transform="translate(-276.031 -208.575)" fill="#464a5f"/>
      <path id="Path_450" data-name="Path 450" d="M570.674,463.732l1.191,1.286a.2.2,0,0,0,.179.054l2.631-.6a.185.185,0,0,0,.089-.316l-1.363-1.286a.2.2,0,0,0-.173-.048l-2.483.6a.19.19,0,0,0-.071.31Z" transform="translate(-286.433 -206.204)" fill="#464a5f"/>
      <path id="Path_451" data-name="Path 451" d="M559.961,462.5l1.191,1.286a.179.179,0,0,0,.179.054l2.631-.6a.185.185,0,0,0,.083-.316l-1.357-1.286a.2.2,0,0,0-.173-.048l-2.483.6a.185.185,0,0,0-.071.31Z" transform="translate(-282.096 -205.706)" fill="#464a5f"/>
      <path id="Path_452" data-name="Path 452" d="M583.57,453.141l1.328,1.411a.113.113,0,0,0,.107.03l2.81-.649a.113.113,0,0,0,.054-.19l-1.494-1.411a.119.119,0,0,0-.107,0l-2.643.655a.107.107,0,0,0-.054.155Z" transform="translate(-291.666 -201.953)" fill="#464a5f"/>
      <path id="Path_453" data-name="Path 453" d="M589.261,451.868l1.328,1.411a.143.143,0,0,0,.107.03l2.81-.649a.113.113,0,0,0,.054-.191l-1.488-1.411a.107.107,0,0,0-.1-.03l-2.649.655a.113.113,0,0,0-.059.185Z" transform="translate(-293.964 -201.43)" fill="#464a5f"/>
      <path id="Path_454" data-name="Path 454" d="M595.12,450.581l1.191,1.31a.113.113,0,0,0,.113,0l2.62-.714a.113.113,0,0,0,.042-.191l-1.351-1.143a.119.119,0,0,0-.1,0l-2.483.548a.107.107,0,0,0-.036.191Z" transform="translate(-296.328 -200.947)" fill="#464a5f"/>
      <path id="Path_455" data-name="Path 455" d="M601.287,452.671l1.191,1.31a.1.1,0,0,0,.107.03l2.62-.714a.107.107,0,0,0,.042-.191l-1.328-1.113a.107.107,0,0,0-.1,0l-2.477.548a.113.113,0,0,0-.06.131Z" transform="translate(-298.84 -201.816)" fill="#464a5f"/>
      <path id="Path_456" data-name="Path 456" d="M600.526,456.6l1.149,1.244a.167.167,0,0,0,.149.042l2.524-.691a.149.149,0,0,0,.06-.262l-1.28-1.078a.173.173,0,0,0-.131-.036l-2.381.53a.155.155,0,0,0-.089.25Z" transform="translate(-298.519 -203.369)" fill="#464a5f"/>
      <path id="Path_457" data-name="Path 457" d="M595.528,461.691l1.149,1.244a.137.137,0,0,0,.149.042l2.548-.691a.149.149,0,0,0,.06-.256l-1.3-1.054a.149.149,0,0,0-.131-.03l-2.381.53a.149.149,0,0,0-.089.214Z" transform="translate(-296.504 -205.443)" fill="#464a5f"/>
      <path id="Path_458" data-name="Path 458" d="M589.5,463.249l1.149,1.244a.167.167,0,0,0,.149.042l2.524-.691a.149.149,0,0,0,.06-.262L592.1,462.5a.173.173,0,0,0-.131-.036l-2.381.53a.155.155,0,0,0-.089.25Z" transform="translate(-294.056 -206.06)" fill="#464a5f"/>
      <path id="Path_459" data-name="Path 459" d="M601.186,460.191l1.149,1.244a.143.143,0,0,0,.149.042l2.53-.691a.149.149,0,0,0,.054-.256l-1.28-1.084a.149.149,0,0,0-.131-.03l-2.381.524a.155.155,0,0,0-.089.25Z" transform="translate(-298.786 -204.824)" fill="#464a5f"/>
      <path id="Path_460" data-name="Path 460" d="M600.207,464.524l1.732,1.554a.143.143,0,0,0,.143.03l2.506-.708a.149.149,0,0,0,.06-.256l-1.869-1.637a.137.137,0,0,0-.143,0l-2.381.792a.149.149,0,0,0-.048.226Z" transform="translate(-298.391 -206.472)" fill="#464a5f"/>
      <path id="Path_461" data-name="Path 461" d="M589.987,455.514l1.191,1.31a.113.113,0,0,0,.107.036l2.62-.714a.113.113,0,0,0,.042-.2l-1.351-1.137a.1.1,0,0,0-.1,0l-2.477.542a.113.113,0,0,0-.036.161Z" transform="translate(-294.261 -202.956)" fill="#464a5f"/>
      <path id="Path_462" data-name="Path 462" d="M584.326,456.851l1.149,1.244a.155.155,0,0,0,.149.042l2.53-.691a.149.149,0,0,0,.054-.256l-1.28-1.084a.149.149,0,0,0-.131-.03l-2.381.524a.155.155,0,0,0-.089.25Z" transform="translate(-291.964 -203.472)" fill="#464a5f"/>
      <path id="Path_463" data-name="Path 463" d="M583.162,460.887l1.149,1.238a.137.137,0,0,0,.149.042l2.524-.685a.155.155,0,0,0,.06-.262l-1.286-1.084a.149.149,0,0,0-.131-.03l-2.381.53a.149.149,0,0,0-.083.25Z" transform="translate(-291.49 -205.103)" fill="#464a5f"/>
      <path id="Path_464" data-name="Path 464" d="M577.172,462.337l1.149,1.238a.137.137,0,0,0,.149.042l2.524-.685a.155.155,0,0,0,.06-.262l-1.286-1.083a.137.137,0,0,0-.125-.03l-2.381.53a.149.149,0,0,0-.089.25Z" transform="translate(-289.067 -205.689)" fill="#464a5f"/>
      <path id="Path_465" data-name="Path 465" d="M578.242,458.209l1.149,1.238a.137.137,0,0,0,.149.042l2.524-.685a.155.155,0,0,0,.06-.262l-1.28-1.078a.172.172,0,0,0-.131-.036l-2.381.53a.149.149,0,0,0-.089.25Z" transform="translate(-289.5 -204.02)" fill="#464a5f"/>
      <path id="Path_466" data-name="Path 466" d="M583.256,464.6l1.149,1.244a.137.137,0,0,0,.149.042l2.524-.685a.149.149,0,0,0,.059-.262l-1.28-1.083a.149.149,0,0,0-.131-.03l-2.381.53a.149.149,0,0,0-.089.244Z" transform="translate(-291.53 -206.608)" fill="#464a5f"/>
      <path id="Path_467" data-name="Path 467" d="M577.373,466.176l1.09,1.191a.2.2,0,0,0,.185.054l2.435-.667a.185.185,0,0,0,.071-.321l-1.191-1.024a.173.173,0,0,0-.161-.042l-2.31.512a.185.185,0,0,0-.119.3Z" transform="translate(-289.148 -207.231)" fill="#464a5f"/>
      <path id="Path_468" data-name="Path 468" d="M595.828,454.034l1.191,1.31a.119.119,0,0,0,.113.036l2.62-.714a.113.113,0,0,0,.042-.2l-1.351-1.137a.1.1,0,0,0-.1,0l-2.477.548a.107.107,0,0,0-.042.155Z" transform="translate(-296.625 -202.358)" fill="#464a5f"/>
      <path id="Path_469" data-name="Path 469" d="M594.971,457.951l1.149,1.244a.137.137,0,0,0,.149.042l2.524-.685a.155.155,0,0,0,.06-.262l-1.286-1.083a.149.149,0,0,0-.131-.03l-2.381.53a.143.143,0,0,0-.083.244Z" transform="translate(-296.268 -203.917)" fill="#464a5f"/>
      <path id="Path_470" data-name="Path 470" d="M589.246,459.531l1.149,1.244a.149.149,0,0,0,.149.042l2.524-.691a.149.149,0,0,0,.06-.256l-1.286-1.084a.137.137,0,0,0-.125-.03l-2.381.524a.155.155,0,0,0-.089.25Z" transform="translate(-293.955 -204.556)" fill="#464a5f"/>
      <path id="Path_471" data-name="Path 471" d="M566.029,457.163l1.268,1.322a.143.143,0,0,0,.143.042l2.721-.625a.149.149,0,0,0,.065-.256L568.8,456.3a.161.161,0,0,0-.143-.042l-2.56.637a.149.149,0,0,0-.071.268Z" transform="translate(-284.549 -203.546)" fill="#464a5f"/>
      <path id="Path_472" data-name="Path 472" d="M559.959,458.656l1.191,1.28a.173.173,0,0,0,.179.054l2.637-.6a.185.185,0,0,0,.083-.316l-1.363-1.286a.167.167,0,0,0-.173-.048l-2.477.6a.185.185,0,0,0-.077.316Z" transform="translate(-282.093 -204.146)" fill="#464a5f"/>
      <path id="Path_473" data-name="Path 473" d="M553.407,463.718l.9,1.447a.19.19,0,0,0,.2.083l3.042-.679a.191.191,0,0,0,.113-.292l-1-1.4a.184.184,0,0,0-.19-.071l-2.977.631a.185.185,0,0,0-.089.28Z" transform="translate(-279.453 -206.195)" fill="#464a5f"/>
      <path id="Path_474" data-name="Path 474" d="M519.833,464.764l3.006-.7a.184.184,0,0,1,.179.065l.53.7a.173.173,0,0,1-.1.274l-3.114.708a.173.173,0,0,1-.19-.083l-.423-.72a.179.179,0,0,1,.113-.244Z" transform="translate(-265.829 -206.706)" fill="#464a5f"/>
      <path id="Path_475" data-name="Path 475" d="M526.758,463.254l2.977-.7a.185.185,0,0,1,.179.065l.53.7a.173.173,0,0,1-.1.274l-3.114.726a.173.173,0,0,1-.19-.083l-.423-.726a.173.173,0,0,1,.143-.256Z" transform="translate(-268.617 -206.095)" fill="#464a5f"/>
      <path id="Path_476" data-name="Path 476" d="M533.468,461.813l2.977-.7a.173.173,0,0,1,.179.065l.53.691a.179.179,0,0,1-.1.28l-3.114.726a.179.179,0,0,1-.191-.083l-.423-.726a.173.173,0,0,1,.143-.256Z" transform="translate(-271.332 -205.511)" fill="#464a5f"/>
      <path id="Path_477" data-name="Path 477" d="M540.034,460.323l2.977-.7a.173.173,0,0,1,.179.066l.53.7a.178.178,0,0,1-.1.274l-3.054.726a.173.173,0,0,1-.19-.083l-.423-.726a.173.173,0,0,1,.083-.256Z" transform="translate(-274.01 -204.908)" fill="#464a5f"/>
      <path id="Path_478" data-name="Path 478" d="M546.667,458.858l2.977-.691a.2.2,0,0,1,.19.065l.512.679a.184.184,0,0,1-.107.292l-3.09.72a.191.191,0,0,1-.2-.089l-.411-.7a.19.19,0,0,1,.131-.274Z" transform="translate(-276.678 -204.318)" fill="#464a5f"/>
      <path id="Path_479" data-name="Path 479" d="M553.128,457.527l2.977-.691a.184.184,0,0,1,.191.071l.512.673a.185.185,0,0,1-.107.292l-3.09.72a.19.19,0,0,1-.2-.089l-.4-.7a.185.185,0,0,1,.125-.274Z" transform="translate(-279.293 -203.779)" fill="#464a5f"/>
      <path id="Path_480" data-name="Path 480" d="M559.438,456.21l2.756-.673a.191.191,0,0,1,.179.054l.536.566a.179.179,0,0,1-.089.3l-2.727.685a.173.173,0,0,1-.173-.048l-.6-.6a.185.185,0,0,1,.113-.292Z" transform="translate(-281.847 -203.253)" fill="#464a5f"/>
      <path id="Path_481" data-name="Path 481" d="M565.618,454.778l2.84-.691a.161.161,0,0,1,.143.042l.6.6a.149.149,0,0,1-.071.25l-2.8.7a.143.143,0,0,1-.143-.042l-.625-.637a.149.149,0,0,1,.065-.22Z" transform="translate(-284.371 -202.668)" fill="#464a5f"/>
      <path id="Path_482" data-name="Path 482" d="M571.731,453.338l2.84-.691a.155.155,0,0,1,.143.042l.6.6a.155.155,0,0,1-.071.25l-2.792.732a.143.143,0,0,1-.143-.042l-.625-.637a.149.149,0,0,1,.054-.25Z" transform="translate(-286.841 -202.085)" fill="#464a5f"/>
      <path id="Path_483" data-name="Path 483" d="M577.835,452.087l2.84-.691a.143.143,0,0,1,.143.042l.6.6a.155.155,0,0,1-.071.25l-2.8.708a.173.173,0,0,1-.149-.042l-.625-.6a.149.149,0,0,1,.071-.262Z" transform="translate(-289.301 -201.578)" fill="#464a5f"/>
      <path id="Path_484" data-name="Path 484" d="M583.652,450.675l2.929-.714a.107.107,0,0,1,.107,0l.649.691a.113.113,0,0,1-.054.185l-2.87.756a.137.137,0,0,1-.107,0l-.69-.7a.113.113,0,0,1,.036-.214Z" transform="translate(-291.665 -200.993)" fill="#464a5f"/>
      <path id="Path_485" data-name="Path 485" d="M589.533,449.419l2.929-.708a.107.107,0,0,1,.107,0l.655.685a.107.107,0,0,1-.054.185l-2.893.726a.107.107,0,0,1-.107-.03l-.691-.7a.113.113,0,0,1,.054-.161Z" transform="translate(-294.058 -200.487)" fill="#464a5f"/>
      <path id="Path_486" data-name="Path 486" d="M595.349,448.162l2.7-.6a.1.1,0,0,1,.113.036l.524.643a.113.113,0,0,1-.06.179l-2.542.673a.137.137,0,0,1-.107-.03l-.691-.7a.107.107,0,0,1,.06-.2Z" transform="translate(-296.391 -200.028)" fill="#464a5f"/>
      <path id="Path_487" data-name="Path 487" d="M600.928,446.884l2.709-.6a.119.119,0,0,1,.113.036l.524.643a.113.113,0,0,1-.06.179l-2.542.673a.1.1,0,0,1-.107-.03l-.691-.7a.113.113,0,0,1,.054-.208Z" transform="translate(-298.653 -199.512)" fill="#464a5f"/>
      <path id="Path_488" data-name="Path 488" d="M523.451,470.244l1,1.423a.173.173,0,0,0,.185.071l5.209-1.191a.173.173,0,0,0,.1-.274l-1.1-1.453a.173.173,0,0,0-.185-.065l-5.1,1.25a.179.179,0,0,0-.107.238Z" transform="translate(-267.339 -208.602)" fill="#464a5f"/>
      <path id="Path_489" data-name="Path 489" d="M526.084,473.3l1,1.59a.173.173,0,0,0,.185.077l6.293-1.5a.173.173,0,0,0,.1-.28l-1.244-1.542a.184.184,0,0,0-.179-.06l-6.043,1.435a.173.173,0,0,0-.107.28Z" transform="translate(-268.394 -209.748)" fill="#464a5f"/>
      <path id="Path_490" data-name="Path 490" d="M528.47,476.41l1.191,1.721a.173.173,0,0,0,.185.065l8.335-2.06a.173.173,0,0,0,.1-.274l-1.345-1.727a.173.173,0,0,0-.179-.06l-8.24,2.06a.179.179,0,0,0-.048.274Z" transform="translate(-269.358 -210.755)" fill="#464a5f"/>
      <path id="Path_491" data-name="Path 491" d="M560.521,471.5l1.524,1.834a.191.191,0,0,0,.19.06l18.337-4.572a.185.185,0,0,0,.083-.315l-1.869-1.857a.2.2,0,0,0-.179-.054l-17.991,4.6a.191.191,0,0,0-.1.3Z" transform="translate(-282.328 -207.729)" fill="#464a5f"/>
      <path id="Path_492" data-name="Path 492" d="M592.3,465.984l1.786,1.786a.155.155,0,0,0,.149.036l3.757-1.006a.149.149,0,0,0,.065-.25l-1.863-1.822a.143.143,0,0,0-.143-.042l-3.691,1.024a.149.149,0,0,0-.06.274Z" transform="translate(-295.178 -206.956)" fill="#464a5f"/>
      <path id="Path_493" data-name="Path 493" d="M607.542,464.3l.816.863a.107.107,0,0,0,.107,0l2.786-.744a.113.113,0,0,0,.048-.191l-.994-.929a.1.1,0,0,0-.107-.03l-2.608.816a.11.11,0,0,0-.048.214Z" transform="translate(-301.338 -206.381)" fill="#464a5f"/>
      <path id="Path_494" data-name="Path 494" d="M611.544,461.213l.976,1.024a.1.1,0,0,0,.113,0l2.554-.881a.113.113,0,0,0,.042-.19l-.953-.857a.119.119,0,0,0-.107-.03l-2.578.726a.113.113,0,0,0-.048.208Z" transform="translate(-302.97 -205.173)" fill="#464a5f"/>
      <path id="Path_495" data-name="Path 495" d="M614.233,463.692l-.7-.566a.113.113,0,0,1,.036-.2l2.542-.881a.119.119,0,0,1,.119,0l.792.774a.107.107,0,0,1-.048.185l-2.643.685a.119.119,0,0,1-.1,0Z" transform="translate(-303.779 -205.884)" fill="#464a5f"/>
      <path id="Path_496" data-name="Path 496" d="M619.1,461.5c.22.214.6.631.756.774a.1.1,0,0,0,.107,0l2.649-.72a.107.107,0,0,0,.048-.185l-.941-.851a.119.119,0,0,0-.107,0l-2.465.792a.113.113,0,0,0-.048.191Z" transform="translate(-306.034 -205.267)" fill="#464a5f"/>
      <path id="Path_497" data-name="Path 497" d="M606.6,458.014l1.423,1.369a.1.1,0,0,0,.1,0l6.84-1.786a.113.113,0,0,0,.042-.2l-1.661-1.369a.107.107,0,0,0-.1,0l-6.6,1.786a.113.113,0,0,0-.048.2Z" transform="translate(-300.976 -203.45)" fill="#464a5f"/>
      <path id="Path_498" data-name="Path 498" d="M605.837,454.8l1.465,1.3a.107.107,0,0,0,.1,0l5.144-1.191a.113.113,0,0,0,.048-.2l-1.685-1.4a.107.107,0,0,0-.1,0l-4.924,1.322a.113.113,0,0,0-.048.167Z" transform="translate(-300.675 -202.35)" fill="#464a5f"/>
      <path id="Path_499" data-name="Path 499" d="M606.625,451.4l1.387,1.238a.131.131,0,0,0,.1.03l2.637-.6a.113.113,0,0,0,.054-.191l-1.643-1.417a.1.1,0,0,0-.107,0l-2.381.768a.107.107,0,0,0-.048.167Z" transform="translate(-300.992 -201.198)" fill="#464a5f"/>
      <path id="Path_500" data-name="Path 500" d="M600.5,449.084l1.346,1.191a.1.1,0,0,0,.1,0l4.167-.988a.113.113,0,0,0,.048-.2l-1.6-1.34a.1.1,0,0,0-.1,0l-3.929,1.107a.114.114,0,1,0-.03.226Z" transform="translate(-298.484 -200.099)" fill="#464a5f"/>
      <path id="Path_501" data-name="Path 501" d="M523.425,337.695a118.339,118.339,0,0,0-7.222,9.526,30.136,30.136,0,0,1-2.923,3.9c-1.542,1.625-3.471,2.846-5.049,4.441a29.6,29.6,0,0,0-4.4,6.424,47.079,47.079,0,0,0-2.381,4.662,23.57,23.57,0,0,0-1.042,15.1c.482,1.786,1.447,3.8,3.268,4.221,1.429.333,2.858-.429,4.108-1.191a9.507,9.507,0,0,0,3.519-3.072,9.911,9.911,0,0,0,1.024-3.757l1.566-11.46a13.232,13.232,0,0,1,.827-3.572,10.345,10.345,0,0,1,4.727-4.584c1.959-1.078,4.072-1.881,5.953-3.108,1.75-1.143,3.256-2.631,5.007-3.774,2.149-1.411,4.644-2.286,6.6-3.947s3.286-4.543,2.084-6.811a7.947,7.947,0,0,0-2.149-2.268l-3.828-3.084c-.816-.655-2.5-2.637-3.53-2.768s-2.59,1.429-3.28,2.042A28.977,28.977,0,0,0,523.425,337.695Z" transform="translate(-257.705 -153.495)" fill="#fbbebe"/>
      <path id="Path_502" data-name="Path 502" d="M510.077,310.628a12.621,12.621,0,0,1,2.381.6c.78.316,1.494.792,2.28,1.089a27.325,27.325,0,0,0,3.1.738,4.168,4.168,0,0,1,2.625,1.667,7.918,7.918,0,0,0-4.376,2.828,13.236,13.236,0,0,0-1.828,3.614,40.634,40.634,0,0,0-2.381,11.955,2.45,2.45,0,0,0,.536,2.006c-2.649-2.149-6.394-2.084-9.8-1.929a2.44,2.44,0,0,1-.953-.077,2.131,2.131,0,0,1-.839-.691,8.335,8.335,0,0,1-1.786-4,18.065,18.065,0,0,1,.6-6.317,32.548,32.548,0,0,0,.774-6.114c.03-2.1-.631-3.786-.976-5.781-.423-2.411,2.268-1.226,3.709-.947Z" transform="translate(-257.425 -143.848)" fill="#005fd5"/>
    </g>
  </g>
</svg>
