<svg width="378" height="330" viewBox="0 0 378 330" fill="none" xmlns="http://www.w3.org/2000/svg">
<path d="M107.711 27H105.471L100.399 19.336V27H98.1587V15.816H100.399L105.471 23.496V15.816H107.711V27ZM113.86 27.144C113.007 27.144 112.239 26.9573 111.556 26.584C110.874 26.2 110.335 25.6613 109.94 24.968C109.556 24.2747 109.364 23.4747 109.364 22.568C109.364 21.6613 109.562 20.8613 109.956 20.168C110.362 19.4747 110.911 18.9413 111.604 18.568C112.298 18.184 113.071 17.992 113.924 17.992C114.778 17.992 115.551 18.184 116.244 18.568C116.938 18.9413 117.482 19.4747 117.876 20.168C118.282 20.8613 118.484 21.6613 118.484 22.568C118.484 23.4747 118.276 24.2747 117.86 24.968C117.455 25.6613 116.9 26.2 116.196 26.584C115.503 26.9573 114.724 27.144 113.86 27.144ZM113.86 25.192C114.266 25.192 114.644 25.096 114.996 24.904C115.359 24.7013 115.647 24.4027 115.86 24.008C116.074 23.6133 116.18 23.1333 116.18 22.568C116.18 21.7253 115.956 21.08 115.508 20.632C115.071 20.1733 114.532 19.944 113.892 19.944C113.252 19.944 112.714 20.1733 112.276 20.632C111.85 21.08 111.636 21.7253 111.636 22.568C111.636 23.4107 111.844 24.0613 112.26 24.52C112.687 24.968 113.22 25.192 113.86 25.192ZM123.364 22.568C123.364 21.6507 123.551 20.8507 123.924 20.168C124.297 19.4747 124.815 18.9413 125.476 18.568C126.137 18.184 126.895 17.992 127.748 17.992C128.847 17.992 129.753 18.2693 130.468 18.824C131.193 19.368 131.679 20.136 131.924 21.128H129.508C129.38 20.744 129.161 20.4453 128.852 20.232C128.553 20.008 128.18 19.896 127.732 19.896C127.092 19.896 126.585 20.1307 126.212 20.6C125.839 21.0587 125.652 21.7147 125.652 22.568C125.652 23.4107 125.839 24.0667 126.212 24.536C126.585 24.9947 127.092 25.224 127.732 25.224C128.639 25.224 129.231 24.8187 129.508 24.008H131.924C131.679 24.968 131.193 25.7307 130.468 26.296C129.743 26.8613 128.836 27.144 127.748 27.144C126.895 27.144 126.137 26.9573 125.476 26.584C124.815 26.2 124.297 25.6667 123.924 24.984C123.551 24.2907 123.364 23.4853 123.364 22.568ZM135.805 15.16V27H133.565V15.16H135.805ZM141.954 27.144C141.101 27.144 140.333 26.9573 139.65 26.584C138.967 26.2 138.429 25.6613 138.034 24.968C137.65 24.2747 137.458 23.4747 137.458 22.568C137.458 21.6613 137.655 20.8613 138.05 20.168C138.455 19.4747 139.005 18.9413 139.698 18.568C140.391 18.184 141.165 17.992 142.018 17.992C142.871 17.992 143.645 18.184 144.338 18.568C145.031 18.9413 145.575 19.4747 145.97 20.168C146.375 20.8613 146.578 21.6613 146.578 22.568C146.578 23.4747 146.37 24.2747 145.954 24.968C145.549 25.6613 144.994 26.2 144.29 26.584C143.597 26.9573 142.818 27.144 141.954 27.144ZM141.954 25.192C142.359 25.192 142.738 25.096 143.09 24.904C143.453 24.7013 143.741 24.4027 143.954 24.008C144.167 23.6133 144.274 23.1333 144.274 22.568C144.274 21.7253 144.05 21.08 143.602 20.632C143.165 20.1733 142.626 19.944 141.986 19.944C141.346 19.944 140.807 20.1733 140.37 20.632C139.943 21.08 139.73 21.7253 139.73 22.568C139.73 23.4107 139.938 24.0613 140.354 24.52C140.781 24.968 141.314 25.192 141.954 25.192ZM156.589 18.136V27H154.333V25.88C154.045 26.264 153.667 26.568 153.197 26.792C152.739 27.0053 152.237 27.112 151.693 27.112C151 27.112 150.387 26.968 149.853 26.68C149.32 26.3813 148.899 25.9493 148.589 25.384C148.291 24.808 148.141 24.1253 148.141 23.336V18.136H150.381V23.016C150.381 23.72 150.557 24.264 150.909 24.648C151.261 25.0213 151.741 25.208 152.349 25.208C152.968 25.208 153.453 25.0213 153.805 24.648C154.157 24.264 154.333 23.72 154.333 23.016V18.136H156.589ZM158.223 22.536C158.223 21.64 158.399 20.8453 158.751 20.152C159.114 19.4587 159.605 18.9253 160.223 18.552C160.842 18.1787 161.53 17.992 162.287 17.992C162.863 17.992 163.413 18.12 163.935 18.376C164.458 18.6213 164.874 18.952 165.183 19.368V15.16H167.455V27H165.183V25.688C164.906 26.1253 164.517 26.4773 164.015 26.744C163.514 27.0107 162.933 27.144 162.271 27.144C161.525 27.144 160.842 26.952 160.223 26.568C159.605 26.184 159.114 25.6453 158.751 24.952C158.399 24.248 158.223 23.4427 158.223 22.536ZM165.199 22.568C165.199 22.024 165.093 21.56 164.879 21.176C164.666 20.7813 164.378 20.4827 164.015 20.28C163.653 20.0667 163.263 19.96 162.847 19.96C162.431 19.96 162.047 20.0613 161.695 20.264C161.343 20.4667 161.055 20.7653 160.831 21.16C160.618 21.544 160.511 22.0027 160.511 22.536C160.511 23.0693 160.618 23.5387 160.831 23.944C161.055 24.3387 161.343 24.6427 161.695 24.856C162.058 25.0693 162.442 25.176 162.847 25.176C163.263 25.176 163.653 25.0747 164.015 24.872C164.378 24.6587 164.666 24.36 164.879 23.976C165.093 23.5813 165.199 23.112 165.199 22.568ZM173.035 27.144C172.31 27.144 171.659 27.016 171.083 26.76C170.507 26.4933 170.048 26.136 169.707 25.688C169.376 25.24 169.195 24.744 169.163 24.2H171.419C171.462 24.5413 171.627 24.824 171.915 25.048C172.214 25.272 172.582 25.384 173.019 25.384C173.446 25.384 173.776 25.2987 174.011 25.128C174.256 24.9573 174.379 24.7387 174.379 24.472C174.379 24.184 174.23 23.9707 173.931 23.832C173.643 23.6827 173.179 23.5227 172.539 23.352C171.878 23.192 171.334 23.0267 170.907 22.856C170.491 22.6853 170.128 22.424 169.819 22.072C169.52 21.72 169.371 21.2453 169.371 20.648C169.371 20.1573 169.51 19.7093 169.787 19.304C170.075 18.8987 170.48 18.5787 171.003 18.344C171.536 18.1093 172.16 17.992 172.875 17.992C173.931 17.992 174.774 18.2587 175.403 18.792C176.032 19.3147 176.379 20.024 176.443 20.92H174.299C174.267 20.568 174.118 20.2907 173.851 20.088C173.595 19.8747 173.248 19.768 172.811 19.768C172.406 19.768 172.091 19.8427 171.867 19.992C171.654 20.1413 171.547 20.3493 171.547 20.616C171.547 20.9147 171.696 21.144 171.995 21.304C172.294 21.4533 172.758 21.608 173.387 21.768C174.027 21.928 174.555 22.0933 174.971 22.264C175.387 22.4347 175.744 22.7013 176.043 23.064C176.352 23.416 176.512 23.8853 176.523 24.472C176.523 24.984 176.379 25.4427 176.091 25.848C175.814 26.2533 175.408 26.5733 174.875 26.808C174.352 27.032 173.739 27.144 173.035 27.144ZM181.598 22.568C181.598 21.6507 181.785 20.8507 182.158 20.168C182.532 19.4747 183.049 18.9413 183.71 18.568C184.372 18.184 185.129 17.992 185.982 17.992C187.081 17.992 187.988 18.2693 188.702 18.824C189.428 19.368 189.913 20.136 190.158 21.128H187.742C187.614 20.744 187.396 20.4453 187.086 20.232C186.788 20.008 186.414 19.896 185.966 19.896C185.326 19.896 184.82 20.1307 184.446 20.6C184.073 21.0587 183.886 21.7147 183.886 22.568C183.886 23.4107 184.073 24.0667 184.446 24.536C184.82 24.9947 185.326 25.224 185.966 25.224C186.873 25.224 187.465 24.8187 187.742 24.008H190.158C189.913 24.968 189.428 25.7307 188.702 26.296C187.977 26.8613 187.07 27.144 185.982 27.144C185.129 27.144 184.372 26.9573 183.71 26.584C183.049 26.2 182.532 25.6667 182.158 24.984C181.785 24.2907 181.598 23.4853 181.598 22.568ZM195.735 27.144C194.882 27.144 194.114 26.9573 193.431 26.584C192.749 26.2 192.21 25.6613 191.815 24.968C191.431 24.2747 191.239 23.4747 191.239 22.568C191.239 21.6613 191.437 20.8613 191.831 20.168C192.237 19.4747 192.786 18.9413 193.479 18.568C194.173 18.184 194.946 17.992 195.799 17.992C196.653 17.992 197.426 18.184 198.119 18.568C198.813 18.9413 199.357 19.4747 199.751 20.168C200.157 20.8613 200.359 21.6613 200.359 22.568C200.359 23.4747 200.151 24.2747 199.735 24.968C199.33 25.6613 198.775 26.2 198.071 26.584C197.378 26.9573 196.599 27.144 195.735 27.144ZM195.735 25.192C196.141 25.192 196.519 25.096 196.871 24.904C197.234 24.7013 197.522 24.4027 197.735 24.008C197.949 23.6133 198.055 23.1333 198.055 22.568C198.055 21.7253 197.831 21.08 197.383 20.632C196.946 20.1733 196.407 19.944 195.767 19.944C195.127 19.944 194.589 20.1733 194.151 20.632C193.725 21.08 193.511 21.7253 193.511 22.568C193.511 23.4107 193.719 24.0613 194.135 24.52C194.562 24.968 195.095 25.192 195.735 25.192ZM206.914 18.008C207.97 18.008 208.824 18.344 209.474 19.016C210.125 19.6773 210.45 20.6053 210.45 21.8V27H208.21V22.104C208.21 21.4 208.034 20.8613 207.682 20.488C207.33 20.104 206.85 19.912 206.242 19.912C205.624 19.912 205.133 20.104 204.77 20.488C204.418 20.8613 204.242 21.4 204.242 22.104V27H202.002V18.136H204.242V19.24C204.541 18.856 204.92 18.5573 205.378 18.344C205.848 18.12 206.36 18.008 206.914 18.008ZM217.493 18.008C218.549 18.008 219.402 18.344 220.053 19.016C220.703 19.6773 221.029 20.6053 221.029 21.8V27H218.789V22.104C218.789 21.4 218.613 20.8613 218.261 20.488C217.909 20.104 217.429 19.912 216.821 19.912C216.202 19.912 215.711 20.104 215.349 20.488C214.997 20.8613 214.821 21.4 214.821 22.104V27H212.581V18.136H214.821V19.24C215.119 18.856 215.498 18.5573 215.957 18.344C216.426 18.12 216.938 18.008 217.493 18.008ZM231.399 22.376C231.399 22.696 231.377 22.984 231.335 23.24H224.855C224.908 23.88 225.132 24.3813 225.527 24.744C225.921 25.1067 226.407 25.288 226.983 25.288C227.815 25.288 228.407 24.9307 228.759 24.216H231.175C230.919 25.0693 230.428 25.7733 229.703 26.328C228.977 26.872 228.087 27.144 227.031 27.144C226.177 27.144 225.409 26.9573 224.727 26.584C224.055 26.2 223.527 25.6613 223.143 24.968C222.769 24.2747 222.583 23.4747 222.583 22.568C222.583 21.6507 222.769 20.8453 223.143 20.152C223.516 19.4587 224.039 18.9253 224.711 18.552C225.383 18.1787 226.156 17.992 227.031 17.992C227.873 17.992 228.625 18.1733 229.287 18.536C229.959 18.8987 230.476 19.416 230.839 20.088C231.212 20.7493 231.399 21.512 231.399 22.376ZM229.079 21.736C229.068 21.16 228.86 20.7013 228.455 20.36C228.049 20.008 227.553 19.832 226.967 19.832C226.412 19.832 225.943 20.0027 225.559 20.344C225.185 20.6747 224.956 21.1387 224.871 21.736H229.079ZM232.458 22.568C232.458 21.6507 232.644 20.8507 233.018 20.168C233.391 19.4747 233.908 18.9413 234.57 18.568C235.231 18.184 235.988 17.992 236.842 17.992C237.94 17.992 238.847 18.2693 239.562 18.824C240.287 19.368 240.772 20.136 241.018 21.128H238.602C238.474 20.744 238.255 20.4453 237.946 20.232C237.647 20.008 237.274 19.896 236.826 19.896C236.186 19.896 235.679 20.1307 235.306 20.6C234.932 21.0587 234.746 21.7147 234.746 22.568C234.746 23.4107 234.932 24.0667 235.306 24.536C235.679 24.9947 236.186 25.224 236.826 25.224C237.732 25.224 238.324 24.8187 238.602 24.008H241.018C240.772 24.968 240.287 25.7307 239.562 26.296C238.836 26.8613 237.93 27.144 236.842 27.144C235.988 27.144 235.231 26.9573 234.57 26.584C233.908 26.2 233.391 25.6667 233.018 24.984C232.644 24.2907 232.458 23.4853 232.458 22.568ZM245.267 19.976V24.264C245.267 24.5627 245.336 24.7813 245.475 24.92C245.624 25.048 245.869 25.112 246.211 25.112H247.251V27H245.843C243.955 27 243.011 26.0827 243.011 24.248V19.976H241.955V18.136H243.011V15.944H245.267V18.136H247.251V19.976H245.267ZM257.102 22.376C257.102 22.696 257.08 22.984 257.038 23.24H250.558C250.611 23.88 250.835 24.3813 251.23 24.744C251.624 25.1067 252.11 25.288 252.686 25.288C253.518 25.288 254.11 24.9307 254.462 24.216H256.878C256.622 25.0693 256.131 25.7733 255.406 26.328C254.68 26.872 253.79 27.144 252.734 27.144C251.88 27.144 251.112 26.9573 250.43 26.584C249.758 26.2 249.23 25.6613 248.846 24.968C248.472 24.2747 248.286 23.4747 248.286 22.568C248.286 21.6507 248.472 20.8453 248.846 20.152C249.219 19.4587 249.742 18.9253 250.414 18.552C251.086 18.1787 251.859 17.992 252.734 17.992C253.576 17.992 254.328 18.1733 254.99 18.536C255.662 18.8987 256.179 19.416 256.542 20.088C256.915 20.7493 257.102 21.512 257.102 22.376ZM254.782 21.736C254.771 21.16 254.563 20.7013 254.158 20.36C253.752 20.008 253.256 19.832 252.67 19.832C252.115 19.832 251.646 20.0027 251.262 20.344C250.888 20.6747 250.659 21.1387 250.574 21.736H254.782ZM258.161 22.536C258.161 21.64 258.337 20.8453 258.689 20.152C259.051 19.4587 259.542 18.9253 260.161 18.552C260.779 18.1787 261.467 17.992 262.225 17.992C262.801 17.992 263.35 18.12 263.873 18.376C264.395 18.6213 264.811 18.952 265.121 19.368V15.16H267.393V27H265.121V25.688C264.843 26.1253 264.454 26.4773 263.953 26.744C263.451 27.0107 262.87 27.144 262.209 27.144C261.462 27.144 260.779 26.952 260.161 26.568C259.542 26.184 259.051 25.6453 258.689 24.952C258.337 24.248 258.161 23.4427 258.161 22.536ZM265.137 22.568C265.137 22.024 265.03 21.56 264.817 21.176C264.603 20.7813 264.315 20.4827 263.953 20.28C263.59 20.0667 263.201 19.96 262.785 19.96C262.369 19.96 261.985 20.0613 261.633 20.264C261.281 20.4667 260.993 20.7653 260.769 21.16C260.555 21.544 260.449 22.0027 260.449 22.536C260.449 23.0693 260.555 23.5387 260.769 23.944C260.993 24.3387 261.281 24.6427 261.633 24.856C261.995 25.0693 262.379 25.176 262.785 25.176C263.201 25.176 263.59 25.0747 263.953 24.872C264.315 24.6587 264.603 24.36 264.817 23.976C265.03 23.5813 265.137 23.112 265.137 22.568ZM270.573 27.112C270.167 27.112 269.831 26.9893 269.565 26.744C269.309 26.488 269.181 26.1733 269.181 25.8C269.181 25.4267 269.309 25.1173 269.565 24.872C269.831 24.616 270.167 24.488 270.573 24.488C270.967 24.488 271.293 24.616 271.549 24.872C271.805 25.1173 271.933 25.4267 271.933 25.8C271.933 26.1733 271.805 26.488 271.549 26.744C271.293 26.9893 270.967 27.112 270.573 27.112ZM274.729 27.112C274.323 27.112 273.987 26.9893 273.721 26.744C273.465 26.488 273.337 26.1733 273.337 25.8C273.337 25.4267 273.465 25.1173 273.721 24.872C273.987 24.616 274.323 24.488 274.729 24.488C275.123 24.488 275.449 24.616 275.705 24.872C275.961 25.1173 276.089 25.4267 276.089 25.8C276.089 26.1733 275.961 26.488 275.705 26.744C275.449 26.9893 275.123 27.112 274.729 27.112ZM278.885 27.112C278.48 27.112 278.144 26.9893 277.877 26.744C277.621 26.488 277.493 26.1733 277.493 25.8C277.493 25.4267 277.621 25.1173 277.877 24.872C278.144 24.616 278.48 24.488 278.885 24.488C279.28 24.488 279.605 24.616 279.861 24.872C280.117 25.1173 280.245 25.4267 280.245 25.8C280.245 26.1733 280.117 26.488 279.861 26.744C279.605 26.9893 279.28 27.112 278.885 27.112Z" fill="#9B9B9B"/>
<g clip-path="url(#clip0)">
<path d="M222.97 180.58L226.315 192.133L229.659 203.687H222.97H216.28L219.625 192.133L222.97 180.58Z" fill="#3AD29F"/>
<path d="M229.556 179.015L232.898 190.568L236.243 202.125H229.556H222.866L226.211 190.568L229.556 179.015Z" fill="#3AD29F"/>
<path d="M236.139 179.015L239.484 190.568L242.829 202.125H236.139H229.45L232.795 190.568L236.139 179.015Z" fill="#3AD29F"/>
<path d="M286.995 186.069L290.34 197.623L293.685 209.18H286.995H280.305L283.65 197.623L286.995 186.069Z" fill="#3AD29F"/>
<path d="M73.0616 174.702L78.7885 185.285L84.5153 195.868L77.9822 197.284L71.4458 198.703L72.252 186.7L73.0616 174.702Z" fill="#3AD29F"/>
<path d="M33 279.957L45.6598 220.477L54.988 208.183L64.3163 192.233L81.6402 181.932L94.6331 174.622L99.9635 190.572L110.205 197.41L116.621 206.854L126.616 203.531L139.275 193.23L148.937 190.572L162.596 181.932L175.256 185.255L188.249 180.603L196.911 174.622L205.239 184.59L209.904 197.55L210.903 202.202H222.897H236.223L244.551 193.23L257.544 190.572H270.204L278.866 193.23L294.191 197.55L328.173 279.957H33Z" fill="#E0E0E0"/>
<g opacity="0.3">
<path opacity="0.3" d="M127.922 104.406H86.5309C83.76 104.406 81.5137 106.647 81.5137 109.41C81.5137 112.174 83.76 114.415 86.5309 114.415H127.922C130.693 114.415 132.939 112.174 132.939 109.41C132.939 106.647 130.693 104.406 127.922 104.406Z" fill="#E0E0E0"/>
<path opacity="0.3" d="M115.378 114.415H73.9877C71.2168 114.415 68.9705 116.655 68.9705 119.419C68.9705 122.183 71.2168 124.423 73.9877 124.423H115.378C118.149 124.423 120.396 122.183 120.396 119.419C120.396 116.655 118.149 114.415 115.378 114.415Z" fill="#E0E0E0"/>
<path opacity="0.3" d="M127.922 124.423H86.5309C83.76 124.423 81.5137 126.664 81.5137 129.427C81.5137 132.191 83.76 134.432 86.5309 134.432H127.922C130.693 134.432 132.939 132.191 132.939 129.427C132.939 126.664 130.693 124.423 127.922 124.423Z" fill="#E0E0E0"/>
</g>
<g opacity="0.5">
<path opacity="0.5" d="M175.256 268.43H108.292L112.213 92.6599H171.335L175.256 268.43Z" fill="url(#paint0_linear)"/>
</g>
<path d="M173.95 268.43H109.668L113.429 92.6599H170.185L173.95 268.43Z" fill="white"/>
<g opacity="0.05">
<path opacity="0.05" d="M125.033 268.43H109.668L113.429 92.6599H121.269L125.033 268.43Z" fill="black"/>
</g>
<path d="M99.9468 202.125H183.984C183.984 205.278 182.729 208.301 180.494 210.53C178.259 212.759 175.228 214.011 172.067 214.011H111.864C108.703 214.011 105.672 212.759 103.437 210.53C101.202 208.301 99.9468 205.278 99.9468 202.125V202.125Z" fill="#6C63FF"/>
<path d="M99.9468 143.025H183.984C183.984 146.177 182.729 149.2 180.494 151.429C178.259 153.658 175.228 154.911 172.067 154.911H111.864C108.703 154.911 105.672 153.658 103.437 151.429C101.202 149.2 99.9468 146.177 99.9468 143.025V143.025Z" fill="#6C63FF"/>
<path d="M141.964 133.162C150.45 133.162 157.329 126.301 157.329 117.837C157.329 109.373 150.45 102.512 141.964 102.512C133.478 102.512 126.599 109.373 126.599 117.837C126.599 126.301 133.478 133.162 141.964 133.162Z" fill="#FFFFA5"/>
<path opacity="0.1" d="M172.694 214.008H110.921V214.945H172.694V214.008Z" fill="black"/>
<path opacity="0.1" d="M171.441 154.897H111.864V155.522H171.441V154.897Z" fill="black"/>
<path d="M158.898 268.43H139.142V241.375C139.142 238.762 140.183 236.256 142.035 234.408C143.888 232.561 146.4 231.523 149.02 231.523V231.523C151.64 231.524 154.152 232.562 156.004 234.409C157.856 236.257 158.897 238.762 158.898 241.375V268.43Z" fill="#E0E0E0"/>
<path d="M327.283 280H33.1533C33.1533 280 52.143 236.47 80.9273 228.768C85.0765 227.634 89.4091 227.328 93.677 227.868C100.62 228.748 106.9 232.38 111.361 237.76C120.796 249.137 149.69 273.929 207.502 245.598C207.502 245.598 228.197 224.957 261.436 249.35C263.495 250.371 265.608 251.281 267.766 252.075C277.963 255.919 298.362 261.276 312.864 249.975C332.93 234.337 327.283 280 327.283 280Z" fill="#4D8AF0"/>
<g opacity="0.3">
<path opacity="0.3" d="M265.18 58.2184H223.789C221.019 58.2184 218.772 60.4589 218.772 63.2226C218.772 65.9864 221.019 68.2269 223.789 68.2269H265.18C267.951 68.2269 270.198 65.9864 270.198 63.2226C270.198 60.4589 267.951 58.2184 265.18 58.2184Z" fill="#E0E0E0"/>
<path opacity="0.3" d="M252.637 68.2269H211.246C208.475 68.2269 206.229 70.4673 206.229 73.2311C206.229 75.9949 208.475 78.2353 211.246 78.2353H252.637C255.408 78.2353 257.654 75.9949 257.654 73.2311C257.654 70.4673 255.408 68.2269 252.637 68.2269Z" fill="#E0E0E0"/>
<path opacity="0.3" d="M265.18 78.2354H223.789C221.019 78.2354 218.772 80.4758 218.772 83.2396C218.772 86.0034 221.019 88.2438 223.789 88.2438H265.18C267.951 88.2438 270.198 86.0034 270.198 83.2396C270.198 80.4758 267.951 78.2354 265.18 78.2354Z" fill="#E0E0E0"/>
</g>
<g opacity="0.3">
<path opacity="0.3" d="M307.824 127.999H266.433C263.662 127.999 261.416 130.239 261.416 133.003C261.416 135.767 263.662 138.007 266.433 138.007H307.824C310.595 138.007 312.841 135.767 312.841 133.003C312.841 130.239 310.595 127.999 307.824 127.999Z" fill="#E0E0E0"/>
<path opacity="0.3" d="M295.28 138.007H253.89C251.119 138.007 248.872 140.248 248.872 143.011C248.872 145.775 251.119 148.016 253.89 148.016H295.28C298.051 148.016 300.298 145.775 300.298 143.011C300.298 140.248 298.051 138.007 295.28 138.007Z" fill="#E0E0E0"/>
<path opacity="0.3" d="M307.824 148.016H266.433C263.662 148.016 261.416 150.256 261.416 153.02C261.416 155.784 263.662 158.024 266.433 158.024H307.824C310.595 158.024 312.841 155.784 312.841 153.02C312.841 150.256 310.595 148.016 307.824 148.016Z" fill="#E0E0E0"/>
</g>
<g opacity="0.3">
<path opacity="0.3" d="M244.501 131.129H255.475C255.475 131.129 251.341 138.426 244.501 131.129Z" fill="#030B44"/>
<path opacity="0.3" d="M245.164 134.232L252.36 125.968C252.36 125.968 255.172 133.867 245.164 134.232Z" fill="#030B44"/>
</g>
<g opacity="0.3">
<path opacity="0.3" d="M205.306 153.96H216.28C216.28 153.96 212.146 161.257 205.306 153.96Z" fill="#030B44"/>
<path opacity="0.3" d="M205.969 157.064L213.162 148.8C213.162 148.8 215.977 156.698 205.969 157.064Z" fill="#030B44"/>
</g>
<g opacity="0.3">
<path opacity="0.3" d="M191.11 68.2634H202.881C202.881 68.2634 198.446 76.1054 191.11 68.2634Z" fill="#030B44"/>
<path opacity="0.3" d="M191.82 71.5963L199.539 62.7275C199.539 62.7275 202.557 71.2008 191.82 71.5963Z" fill="#030B44"/>
</g>
<g opacity="0.05">
<path opacity="0.05" d="M110.205 213.961C110.538 213.991 110.888 214.008 111.234 214.008H123.227L122.974 202.125H110.468L110.205 213.961Z" fill="black"/>
</g>
<g opacity="0.05">
<path opacity="0.05" d="M122.348 143.015H112.353L112.097 154.897H122.601L122.348 143.015Z" fill="black"/>
</g>
<path d="M344.517 197.908C344.649 197.908 344.776 197.856 344.87 197.762C344.964 197.669 345.017 197.542 345.017 197.41C345.017 197.278 344.964 197.151 344.87 197.058C344.776 196.964 344.649 196.912 344.517 196.912C344.384 196.912 344.257 196.964 344.163 197.058C344.07 197.151 344.017 197.278 344.017 197.41C344.017 197.542 344.07 197.669 344.163 197.762C344.257 197.856 344.384 197.908 344.517 197.908Z" fill="#4D8AF0"/>
<path d="M184.141 80.2922C184.141 91.9854 165.188 101.462 141.807 101.462C118.427 101.462 99.4739 91.9854 99.4739 80.2922C99.4739 68.599 118.427 45 141.807 45C165.188 45 184.141 68.6023 184.141 80.2922Z" fill="#6C63FF"/>
<g opacity="0.05">
<path opacity="0.05" d="M99.2273 80.2922C99.2273 91.9854 118.18 101.462 141.561 101.462V45C118.18 45 99.2273 68.6023 99.2273 80.2922Z" fill="black"/>
</g>
</g>
<defs>
<linearGradient id="paint0_linear" x1="141.774" y1="268.43" x2="141.774" y2="92.6599" gradientUnits="userSpaceOnUse">
<stop stop-color="#808080" stop-opacity="0.25"/>
<stop offset="0.54" stop-color="#808080" stop-opacity="0.12"/>
<stop offset="1" stop-color="#808080" stop-opacity="0.1"/>
</linearGradient>
<clipPath id="clip0">
<rect x="33" y="45" width="312" height="235" fill="white"/>
</clipPath>
</defs>
</svg>
