<svg width="143" height="119" viewBox="0 0 143 119" fill="none" xmlns="http://www.w3.org/2000/svg">
<g clip-path="url(#clip0)">
<path opacity="0.1" d="M133.557 65.5752C128.065 74.4667 129.094 86.5797 131.506 96.1306C132.313 99.3285 133.243 102.704 132.553 106.283C131.709 110.659 128.632 114.096 125.517 116.064C119.84 119.642 113.356 119.543 108.635 115.801C104.559 112.569 101.874 106.932 97.7109 103.874C90.7508 98.7535 81.1932 101.857 72.8943 106.642C67.0256 110.019 60.5659 114.316 55.1415 111.883C51.3252 110.175 48.9454 105.354 47.8348 100.108C47.2987 97.5754 46.9744 94.8087 45.7453 92.8793C45.0137 91.7323 44.0082 90.9647 42.9656 90.3349C33.451 84.594 20.5776 89.3939 11.4021 82.8927C5.2046 78.5034 1.68158 69.4371 0.523525 59.7425C-0.634526 50.0479 0.317682 39.6746 1.50979 29.4613C2.35834 22.2 3.50602 14.4318 7.31486 8.52645C11.3443 2.28024 17.6958 -0.51315 23.2166 0.0796106C28.7373 0.672371 33.5309 4.17262 37.6626 8.45088C42.8264 13.7976 47.4838 20.6262 54.167 22.3511C58.7193 23.5263 63.6906 22.1659 68.5316 21.3968C76.6143 20.1105 84.5844 20.4795 92.4982 20.9626C100.074 21.4249 107.697 21.9999 114.756 24.6673C119.751 26.5568 123.585 30.4897 128.247 33.0475C131.286 34.7146 134.714 34.9265 137.545 37.1494C141.033 39.8879 144.051 44.9427 142.654 51.3327C141.323 57.4114 136.472 60.8569 133.557 65.5752Z" fill="#6C63FF"/>
<path d="M98.4033 45.4766C98.4033 45.4766 113.36 32.9352 116.686 26.6119C120.012 20.2887 124.246 14.8397 124.246 14.8397" stroke="#535461" stroke-width="2" stroke-miterlimit="10"/>
<path d="M122.28 28.9757L115.81 27.516C115.81 27.516 117.336 34.3446 122.28 28.9757Z" fill="#6C63FF"/>
<path d="M112.393 22.0048L116.116 27.5841C116.116 27.5841 108.837 28.1102 112.393 22.0048Z" fill="#6C63FF"/>
<path d="M124.825 23.7312L118.912 22.6938C118.912 22.6938 122.626 28.3473 124.825 23.7312Z" fill="#6C63FF"/>
<path d="M116.075 18.7446L118.987 22.562C118.987 22.562 113.831 23.051 116.075 18.7446Z" fill="#6C63FF"/>
<path d="M121.97 17.9844C121.97 17.9844 127.005 18.2244 127.597 18.7061C128.19 19.1877 126.847 22.0107 124.932 21.5498C123.017 21.089 121.97 17.9844 121.97 17.9844Z" fill="#6C63FF"/>
<path d="M119.957 13.4808C119.957 13.4808 122.014 17.2315 121.937 17.9458C121.86 18.6601 118.802 19.4618 118.185 16.7603C117.567 14.0588 119.957 13.4808 119.957 13.4808Z" fill="#6C63FF"/>
<path d="M126.354 16.3454C126.587 15.6076 126.178 14.8205 125.441 14.5875C124.703 14.3545 123.917 14.7638 123.684 15.5016C123.451 16.2395 123.86 17.0265 124.597 17.2595C125.335 17.4926 126.121 17.0833 126.354 16.3454Z" fill="#FFD037"/>
<path d="M124.162 14.9037C124.395 14.1658 123.986 13.3788 123.249 13.1458C122.512 12.9127 121.725 13.322 121.492 14.0599C121.259 14.7977 121.668 15.5848 122.406 15.8178C123.143 16.0508 123.929 15.6415 124.162 14.9037Z" fill="#FFD037"/>
<path d="M51.7509 94.6388C51.7509 94.6388 54.1514 87.493 38.9339 78.8787C38.9339 78.8787 23.4823 74.3693 25.0624 58.8834C25.0624 58.8834 7.25039 71.9419 19.3033 88.5763C31.3562 105.211 41.7594 101.58 41.7594 101.58L51.7509 94.6388Z" fill="#6C63FF"/>
<path d="M47.1114 97.8663C47.1114 97.8663 39.6862 89.8359 32.5691 86.7313C31.1474 86.091 29.841 85.2203 28.7025 84.1543C24.1651 80.005 22.1866 73.7439 23.3565 67.7052L25.067 58.8834" stroke="#535461" stroke-width="2" stroke-miterlimit="10"/>
<path d="M113.092 4.91992H28.5913V103.1H113.092V4.91992Z" fill="url(#paint0_linear)"/>
<path d="M112.109 6.0625H29.5762V101.955H112.109V6.0625Z" fill="#F7F7FD"/>
<path d="M55.425 16.8715H34.5608V18.5342H55.425V16.8715Z" fill="#E2E2EC"/>
<path d="M70.1953 20.9363H34.5608V22.599H70.1953V20.9363Z" fill="#E2E2EC"/>
<path d="M108.156 15.2828H93.3489V28.0687H108.156V15.2828Z" fill="white"/>
<path d="M108.078 15.3569V27.9946H93.4171V15.3569H108.078ZM108.226 15.2087H93.269V28.1428H108.226V15.2087Z" fill="#E2E2EC"/>
<path d="M93.2009 15.2828H78.3936V28.0687H93.2009V15.2828Z" fill="white"/>
<path d="M93.1208 15.3569V27.9946H78.4601V15.3569H93.1208ZM93.2689 15.2087H78.312V28.1428H93.2689V15.2087Z" fill="#E2E2EC"/>
<path d="M108.156 28.2169H93.3489V41.0028H108.156V28.2169Z" fill="white"/>
<path d="M108.078 28.291V40.9287H93.4171V28.291H108.078ZM108.226 28.1428H93.269V41.0769H108.226V28.1428Z" fill="#E2E2EC"/>
<path d="M93.2009 28.2169H78.3936V41.0028H93.2009V28.2169Z" fill="white"/>
<path d="M93.1208 28.291V40.9287H78.4601V28.291H93.1208ZM93.2689 28.1428H78.312V41.0769H93.2689V28.1428Z" fill="#E2E2EC"/>
<path d="M78.2453 28.2169H63.438V41.0028H78.2453V28.2169Z" fill="white"/>
<path d="M78.1714 28.291V40.9287H63.5106V28.291H78.1714ZM78.3195 28.1428H63.3625V41.0769H78.3195V28.1428Z" fill="#E2E2EC"/>
<path d="M63.29 28.2169H48.4827V41.0028H63.29V28.2169Z" fill="white"/>
<path d="M63.2158 28.291V40.9287H48.5551V28.291H63.2158ZM63.3639 28.1428H48.407V41.0769H63.3639V28.1428Z" fill="#E2E2EC"/>
<path d="M48.3345 28.2169H33.5271V41.0028H48.3345V28.2169Z" fill="white"/>
<path d="M48.2605 28.291V40.9287H33.5997V28.291H48.2605ZM48.4086 28.1428H33.4517V41.0769H48.4086V28.1428Z" fill="#E2E2EC"/>
<path d="M108.156 41.1494H93.3489V53.9353H108.156V41.1494Z" fill="white"/>
<path d="M108.078 41.225V53.8626H93.4171V41.225H108.078ZM108.226 41.0768H93.269V54.0108H108.226V41.0768Z" fill="#E2E2EC"/>
<path d="M93.2009 41.1494H78.3936V53.9353H93.2009V41.1494Z" fill="white"/>
<path d="M93.1208 41.225V53.8626H78.4601V41.225H93.1208ZM93.2689 41.0768H78.312V54.0108H93.2689V41.0768Z" fill="#E2E2EC"/>
<path d="M78.2453 41.1494H63.438V53.9353H78.2453V41.1494Z" fill="white"/>
<path d="M78.1714 41.225V53.8626H63.5106V41.225H78.1714ZM78.3195 41.0768H63.3625V54.0108H78.3195V41.0768Z" fill="#E2E2EC"/>
<path d="M63.29 41.1494H48.4827V53.9353H63.29V41.1494Z" fill="white"/>
<path d="M63.2158 41.225V53.8626H48.5551V41.225H63.2158ZM63.3639 41.0768H48.407V54.0108H63.3639V41.0768Z" fill="#E2E2EC"/>
<path d="M48.3345 41.1494H33.5271V53.9353H48.3345V41.1494Z" fill="white"/>
<path d="M48.2605 41.225V53.8626H33.5997V41.225H48.2605ZM48.4086 41.0768H33.4517V54.0108H48.4086V41.0768Z" fill="#E2E2EC"/>
<path d="M108.156 54.0835H93.3489V66.8693H108.156V54.0835Z" fill="white"/>
<path d="M108.078 54.1576V66.7952H93.4171V54.1576H108.078ZM108.226 54.0094H93.269V66.9434H108.226V54.0094Z" fill="#E2E2EC"/>
<path d="M93.2009 54.0835H78.3936V66.8693H93.2009V54.0835Z" fill="white"/>
<path d="M93.1208 54.1576V66.7952H78.4601V54.1576H93.1208ZM93.2689 54.0094H78.312V66.9434H93.2689V54.0094Z" fill="#E2E2EC"/>
<path d="M78.2453 54.0835H63.438V66.8693H78.2453V54.0835Z" fill="white"/>
<path d="M78.1714 54.1576V66.7952H63.5106V54.1576H78.1714ZM78.3195 54.0094H63.3625V66.9434H78.3195V54.0094Z" fill="#E2E2EC"/>
<path d="M63.29 54.0835H48.4827V66.8693H63.29V54.0835Z" fill="white"/>
<path d="M63.2158 54.1576V66.7952H48.5551V54.1576H63.2158ZM63.3639 54.0094H48.407V66.9434H63.3639V54.0094Z" fill="#E2E2EC"/>
<path d="M48.3345 54.0835H33.5271V66.8693H48.3345V54.0835Z" fill="white"/>
<path d="M48.2605 54.1576V66.7952H33.5997V54.1576H48.2605ZM48.4086 54.0094H33.4517V66.9434H48.4086V54.0094Z" fill="#E2E2EC"/>
<path d="M108.156 67.0161H93.3489V79.8019H108.156V67.0161Z" fill="white"/>
<path d="M108.078 67.0917V79.7279H93.4171V67.0917H108.078ZM108.226 66.9435H93.269V79.8761H108.226V66.9435Z" fill="#E2E2EC"/>
<path d="M93.2009 67.0161H78.3936V79.8019H93.2009V67.0161Z" fill="white"/>
<path d="M93.1208 67.0917V79.7279H78.4601V67.0917H93.1208ZM93.2689 66.9435H78.312V79.8761H93.2689V66.9435Z" fill="#E2E2EC"/>
<path d="M78.2453 67.0161H63.438V79.8019H78.2453V67.0161Z" fill="white"/>
<path d="M78.1714 67.0917V79.7279H63.5106V67.0917H78.1714ZM78.3195 66.9435H63.3625V79.8761H78.3195V66.9435Z" fill="#E2E2EC"/>
<path d="M63.29 67.0161H48.4827V79.8019H63.29V67.0161Z" fill="white"/>
<path d="M63.2158 67.0917V79.7279H48.5551V67.0917H63.2158ZM63.3639 66.9435H48.407V79.8761H63.3639V66.9435Z" fill="#E2E2EC"/>
<path d="M48.3345 67.0161H33.5271V79.8019H48.3345V67.0161Z" fill="white"/>
<path d="M48.2605 67.0917V79.7279H33.5997V67.0917H48.2605ZM48.4086 66.9435H33.4517V79.8761H48.4086V66.9435Z" fill="#E2E2EC"/>
<path d="M108.156 79.9501H93.3489V92.7359H108.156V79.9501Z" fill="white"/>
<path d="M108.078 80.0242V92.6618H93.4171V80.0242H108.078ZM108.226 79.876H93.269V92.81H108.226V79.876Z" fill="#E2E2EC"/>
<path d="M93.2009 79.9501H78.3936V92.7359H93.2009V79.9501Z" fill="white"/>
<path d="M93.1208 80.0242V92.6618H78.4601V80.0242H93.1208ZM93.2689 79.876H78.312V92.81H93.2689V79.876Z" fill="#E2E2EC"/>
<path d="M78.2453 79.9501H63.438V92.7359H78.2453V79.9501Z" fill="white"/>
<path d="M78.1714 80.0242V92.6618H63.5106V80.0242H78.1714ZM78.3195 79.876H63.3625V92.81H78.3195V79.876Z" fill="#E2E2EC"/>
<path d="M63.29 79.9501H48.4827V92.7359H63.29V79.9501Z" fill="white"/>
<path d="M63.2158 80.0242V92.6618H48.5551V80.0242H63.2158ZM63.3639 79.876H48.407V92.81H63.3639V79.876Z" fill="#E2E2EC"/>
<path d="M48.3345 79.9501H33.5271V92.7359H48.3345V79.9501Z" fill="white"/>
<path d="M48.2605 80.0242V92.6618H33.5997V80.0242H48.2605ZM48.4086 79.876H33.4517V92.81H48.4086V79.876Z" fill="#E2E2EC"/>
<path d="M64.6286 104.458C65.0521 104.136 65.4505 103.757 65.5734 103.294C65.6365 103.05 65.6031 102.79 65.4801 102.57C65.3572 102.349 65.1541 102.184 64.9129 102.109C64.3073 101.919 63.6601 102.257 63.1685 102.608C62.6768 102.96 62.1156 103.349 61.4729 103.277C62.1378 102.795 62.4547 102.014 62.271 101.304C62.2396 101.151 62.162 101.012 62.0489 100.904C61.7128 100.608 61.1026 100.737 60.6998 100.968C59.4189 101.709 59.062 103.124 59.0546 104.403C58.9257 103.942 59.0338 103.462 59.0309 102.988C59.0279 102.513 58.8695 101.99 58.3808 101.735C58.068 101.6 57.7293 101.535 57.3886 101.544C56.8125 101.527 56.1713 101.574 55.7789 101.918C55.2902 102.345 55.4175 103.062 55.8425 103.532C56.2675 104.001 56.9147 104.296 57.5085 104.621C57.9617 104.868 58.4208 105.157 58.6932 105.548C58.729 105.6 58.7588 105.656 58.7821 105.714H62.391C63.186 105.39 63.9376 104.968 64.6286 104.458Z" fill="#6C63FF"/>
<path d="M35.4803 31.0058C35.9465 31.0058 36.3244 30.6276 36.3244 30.1611C36.3244 29.6946 35.9465 29.3164 35.4803 29.3164C35.0141 29.3164 34.6362 29.6946 34.6362 30.1611C34.6362 30.6276 35.0141 31.0058 35.4803 31.0058Z" fill="#FC6681"/>
<path d="M37.5892 31.0058C38.0554 31.0058 38.4333 30.6276 38.4333 30.1611C38.4333 29.6946 38.0554 29.3164 37.5892 29.3164C37.123 29.3164 36.7451 29.6946 36.7451 30.1611C36.7451 30.6276 37.123 31.0058 37.5892 31.0058Z" fill="#FFD037"/>
<path d="M65.2877 43.5279C65.7539 43.5279 66.1318 43.1497 66.1318 42.6832C66.1318 42.2167 65.7539 41.8385 65.2877 41.8385C64.8215 41.8385 64.4436 42.2167 64.4436 42.6832C64.4436 43.1497 64.8215 43.5279 65.2877 43.5279Z" fill="#6C63FF"/>
<path d="M67.3981 43.5279C67.8642 43.5279 68.2422 43.1497 68.2422 42.6832C68.2422 42.2167 67.8642 41.8385 67.3981 41.8385C66.9319 41.8385 66.554 42.2167 66.554 42.6832C66.554 43.1497 66.9319 43.5279 67.3981 43.5279Z" fill="#6C63FF"/>
<path d="M110.421 67.7273C110.887 67.7273 111.265 67.3491 111.265 66.8826C111.265 66.4161 110.887 66.038 110.421 66.038C109.954 66.038 109.576 66.4161 109.576 66.8826C109.576 67.3491 109.954 67.7273 110.421 67.7273Z" fill="#6C63FF"/>
<path d="M110.843 66.7435C111.309 66.7435 111.687 66.3653 111.687 65.8988C111.687 65.4323 111.309 65.0541 110.843 65.0541C110.376 65.0541 109.999 65.4323 109.999 65.8988C109.999 66.3653 110.376 66.7435 110.843 66.7435Z" fill="#6C63FF"/>
<path d="M111.265 65.8987C111.731 65.8987 112.109 65.5205 112.109 65.054C112.109 64.5875 111.731 64.2094 111.265 64.2094C110.799 64.2094 110.421 64.5875 110.421 65.054C110.421 65.5205 110.799 65.8987 111.265 65.8987Z" fill="#6C63FF"/>
<path d="M95.517 31.0058C95.9832 31.0058 96.3611 30.6276 96.3611 30.1611C96.3611 29.6946 95.9832 29.3164 95.517 29.3164C95.0508 29.3164 94.6729 29.6946 94.6729 30.1611C94.6729 30.6276 95.0508 31.0058 95.517 31.0058Z" fill="#6C63FF"/>
<path d="M97.6258 31.0058C98.092 31.0058 98.4699 30.6276 98.4699 30.1611C98.4699 29.6946 98.092 29.3164 97.6258 29.3164C97.1597 29.3164 96.7817 29.6946 96.7817 30.1611C96.7817 30.6276 97.1597 31.0058 97.6258 31.0058Z" fill="#6C63FF"/>
<path d="M99.736 31.0058C100.202 31.0058 100.58 30.6276 100.58 30.1611C100.58 29.6946 100.202 29.3164 99.736 29.3164C99.2698 29.3164 98.8918 29.6946 98.8918 30.1611C98.8918 30.6276 99.2698 31.0058 99.736 31.0058Z" fill="#6C63FF"/>
<path d="M101.845 31.0058C102.311 31.0058 102.689 30.6276 102.689 30.1611C102.689 29.6946 102.311 29.3164 101.845 29.3164C101.379 29.3164 101.001 29.6946 101.001 30.1611C101.001 30.6276 101.379 31.0058 101.845 31.0058Z" fill="#6C63FF"/>
<path d="M95.517 57.1747C95.9832 57.1747 96.3611 56.7965 96.3611 56.33C96.3611 55.8635 95.9832 55.4854 95.517 55.4854C95.0508 55.4854 94.6729 55.8635 94.6729 56.33C94.6729 56.7965 95.0508 57.1747 95.517 57.1747Z" fill="#6C63FF"/>
<path d="M97.6258 57.1747C98.092 57.1747 98.4699 56.7965 98.4699 56.33C98.4699 55.8635 98.092 55.4854 97.6258 55.4854C97.1597 55.4854 96.7817 55.8635 96.7817 56.33C96.7817 56.7965 97.1597 57.1747 97.6258 57.1747Z" fill="#6C63FF"/>
<path d="M99.736 57.1747C100.202 57.1747 100.58 56.7965 100.58 56.33C100.58 55.8635 100.202 55.4854 99.736 55.4854C99.2698 55.4854 98.8918 55.8635 98.8918 56.33C98.8918 56.7965 99.2698 57.1747 99.736 57.1747Z" fill="#6C63FF"/>
<path d="M101.845 57.1747C102.311 57.1747 102.689 56.7965 102.689 56.33C102.689 55.8635 102.311 55.4854 101.845 55.4854C101.379 55.4854 101.001 55.8635 101.001 56.33C101.001 56.7965 101.379 57.1747 101.845 57.1747Z" fill="#6C63FF"/>
<path d="M50.3841 43.5279C50.8503 43.5279 51.2282 43.1497 51.2282 42.6832C51.2282 42.2167 50.8503 41.8385 50.3841 41.8385C49.918 41.8385 49.54 42.2167 49.54 42.6832C49.54 43.1497 49.918 43.5279 50.3841 43.5279Z" fill="#FFD037"/>
<path d="M35.4803 56.3316C35.9465 56.3316 36.3244 55.9534 36.3244 55.4869C36.3244 55.0204 35.9465 54.6422 35.4803 54.6422C35.0141 54.6422 34.6362 55.0204 34.6362 55.4869C34.6362 55.9534 35.0141 56.3316 35.4803 56.3316Z" fill="#FC6681"/>
<path d="M109.692 69.0018C110.618 69.5486 112.061 69.9043 113.89 68.7291L113.872 71.3313C114.003 73.1096 116.208 79.6167 116.208 79.6167L117.763 84.9663C118.877 88.7456 119.452 92.6634 119.472 96.6037C119.472 97.9093 119.593 99.2548 119.968 100.267C120.796 102.506 119.642 105.391 119.141 106.466C118.299 106.751 117.442 106.992 116.575 107.189C116.497 107.207 116.42 107.23 116.346 107.259L116.335 107.244C116.335 107.244 114.001 108.17 112.965 108.043C112.192 107.948 111.707 108.912 112.313 109.622C111.741 109.77 111.155 109.876 110.76 109.827C109.723 109.699 109.203 111.483 111.149 111.993C113.095 112.503 124.12 111.993 124.12 111.993C124.43 111.838 124.68 111.584 124.83 111.271C124.98 110.958 125.022 110.605 124.949 110.265C125.797 110.233 126.325 110.208 126.325 110.208C126.325 110.208 128.271 109.318 126.325 106.893L126.222 106.971L125.805 105.746V104.09C125.805 104.09 128.27 92.2351 127.492 90.8332C126.715 89.4313 126.325 82.293 126.325 82.293L126.589 74.5174C127.292 73.0652 127.652 70.789 127.834 69.0092C128.099 68.1601 128.266 67.2836 128.332 66.3966C128.363 65.9787 128.388 65.5401 128.404 65.0851C128.411 64.0872 128.248 63.0955 127.922 62.1524C128.662 61.0855 129.866 59.4361 130.86 58.461C132.416 56.9317 132.027 55.146 132.027 55.146L131.378 50.8114L129.822 43.4182C130.017 41.3673 129.589 40.1862 129.117 39.5194C129.229 38.8569 129.334 38.1945 129.413 37.5292C129.758 34.6357 129.604 31.7044 128.958 28.863C128.733 27.8716 128.427 26.855 127.732 26.1037C126.946 25.2531 125.669 24.7344 125.376 23.62C125.303 23.3429 125.3 23.048 125.195 22.7813C124.911 22.0522 124.011 21.7869 123.223 21.6921C121.819 21.5217 119.789 21.3957 118.44 21.944C117.498 22.3293 116.2 23.3903 115.685 24.5284C115.389 25.0515 115.251 25.6013 115.377 26.1185C115.427 26.3091 115.502 26.492 115.601 26.6624C115.4 27.2075 115.297 27.7841 115.299 28.3651C115.303 29.3638 115.608 30.3381 116.174 31.1609C116.74 31.9837 117.54 32.617 118.471 32.9782C118.502 33.076 118.53 33.1724 118.554 33.2672C118.612 33.4955 118.655 33.7278 118.681 33.9622C118.656 34.4068 118.628 34.8647 118.607 35.3167C118.592 35.3789 118.576 35.4402 118.559 35.5004C117.444 35.9947 116.356 36.5497 115.302 37.1631C116.08 38.3101 115.171 43.1545 115.171 43.1545C113.225 44.3015 111.279 47.2341 113.356 50.2928C115.432 53.3514 114.263 56.665 114.263 56.665L113.939 61.6486V61.6575L113.874 62.6548H113.899L113.874 63.0327L113.93 63.0431V63.4491C113.019 63.784 111.688 64.4598 110.894 65.709C110.519 66.3235 110.062 66.8844 109.536 67.3762C109.416 67.4808 109.322 67.6128 109.262 67.7611C109.203 67.9095 109.18 68.07 109.195 68.2291C109.21 68.3883 109.263 68.5414 109.35 68.6758C109.436 68.8103 109.554 68.922 109.692 69.0018ZM125.354 55.7595C125.276 54.8973 125.435 54.0302 125.814 53.2521C126.119 53.2581 126.425 53.2615 126.731 53.2625C126.762 53.4774 126.799 53.6819 126.844 53.8686C127.107 54.9919 126.054 55.5298 125.352 55.758L125.354 55.7595Z" fill="url(#paint1_linear)"/>
<path d="M125.61 105.165L126.109 106.663L124.48 108.293L119.113 109.542L115.244 109.167L115.494 107.794C115.568 107.498 115.722 107.229 115.939 107.015C116.156 106.802 116.427 106.652 116.723 106.583C118.314 106.209 121.347 105.356 121.983 104.172L125.61 105.165Z" fill="#DB8B8B"/>
<path opacity="0.1" d="M125.61 105.165L126.109 106.663L124.48 108.293L119.113 109.542L115.244 109.167L115.494 107.794C115.568 107.498 115.722 107.229 115.939 107.015C116.156 106.802 116.427 106.652 116.723 106.583C118.314 106.209 121.347 105.356 121.983 104.172L125.61 105.165Z" fill="black"/>
<path d="M116.498 108.786L117.247 107.788L116.498 106.63C116.498 106.63 114.252 107.537 113.253 107.413C112.255 107.288 111.756 109.043 113.628 109.536C115.5 110.03 126.109 109.536 126.109 109.536C126.109 109.536 127.981 108.662 126.109 106.289L124.48 107.539C124.48 107.539 121.734 109.037 120.362 108.788L116.498 108.786Z" fill="#2E3037"/>
<path d="M113.128 110.907L116.997 111.282L122.364 110.033L123.993 108.403L123.861 108.005L123.675 107.448L123.488 106.906L119.869 105.907C119.684 106.209 119.43 106.463 119.128 106.648C117.952 107.453 115.841 108.034 114.601 108.324C114.551 108.336 114.501 108.352 114.453 108.37C114.191 108.458 113.955 108.611 113.767 108.815C113.579 109.018 113.445 109.266 113.378 109.535L113.128 110.907Z" fill="#DB8B8B"/>
<path opacity="0.1" d="M113.128 110.907L116.997 111.282L122.364 110.033L123.993 108.403L123.861 108.005L122.371 109.152C122.371 109.152 119.626 110.651 118.253 110.402H114.376L115.125 109.403L114.453 108.366C114.191 108.454 113.955 108.607 113.767 108.81C113.579 109.014 113.445 109.262 113.378 109.53L113.128 110.907Z" fill="black"/>
<path d="M114.376 110.535L115.125 109.536L114.376 108.379C114.376 108.379 112.129 109.286 111.131 109.161C110.133 109.037 109.634 110.791 111.506 111.285C113.378 111.778 123.987 111.285 123.987 111.285C123.987 111.285 125.859 110.411 123.987 108.038L122.358 109.287C122.358 109.287 119.612 110.786 118.24 110.537L114.376 110.535Z" fill="#2E3037"/>
<path d="M117.496 38.0952C117.496 38.0952 123.488 38.7191 122.614 36.2221C122.37 35.514 122.306 34.756 122.429 34.017C122.585 33.1008 122.947 32.2322 123.488 31.4771L117.871 32.3514C118.208 32.9146 118.464 33.5221 118.632 34.1563C119.302 36.8045 117.496 38.0952 117.496 38.0952Z" fill="#DB8B8B"/>
<path d="M127.731 66.5715C127.731 66.5715 127.606 71.9419 126.358 74.5649L126.108 82.1834C126.108 82.1834 126.482 89.1779 127.232 90.5517C127.981 91.9254 125.603 103.541 125.603 103.541V105.54C125.603 105.54 121.604 107.038 120.485 105.289L121.609 90.4257L121.11 69.8184L127.731 66.5715Z" fill="#474463"/>
<path opacity="0.1" d="M127.731 66.5715C127.731 66.5715 127.606 71.9419 126.358 74.5649L126.108 82.1834C126.108 82.1834 126.482 89.1779 127.232 90.5517C127.981 91.9254 125.603 103.541 125.603 103.541V105.54C125.603 105.54 121.604 107.038 120.485 105.289L121.609 90.4257L121.11 69.8184L127.731 66.5715Z" fill="black"/>
<path d="M130.227 49.3354L130.977 51.3345L131.6 55.5817C131.684 56.1733 131.626 56.7765 131.431 57.3412C131.235 57.9059 130.908 58.4158 130.476 58.8285C128.979 60.3267 126.981 63.4491 126.981 63.4491L124.612 56.3359C124.612 56.3359 126.981 55.961 126.61 54.3369C126.238 52.7127 126.358 49.7044 126.358 49.7044L130.227 49.3354Z" fill="#FC6681"/>
<path opacity="0.05" d="M130.227 49.3354L130.977 51.3345L131.6 55.5817C131.684 56.1733 131.626 56.7765 131.431 57.3412C131.235 57.9059 130.908 58.4158 130.476 58.8285C128.979 60.3267 126.981 63.4491 126.981 63.4491L124.612 56.3359C124.612 56.3359 126.981 55.961 126.61 54.3369C126.238 52.7127 126.358 49.7044 126.358 49.7044L130.227 49.3354Z" fill="black"/>
<path opacity="0.1" d="M119.134 106.65C120.735 109.169 123.227 107.742 123.669 107.457L123.488 106.906L119.869 105.907C119.686 106.209 119.434 106.463 119.134 106.65Z" fill="black"/>
<path d="M114.127 71.4425C114.252 73.1911 116.374 79.5603 116.374 79.5603L117.871 84.8018C118.944 88.508 119.497 92.3451 119.516 96.2036C119.516 97.4825 119.633 98.8013 119.994 99.7927C120.993 102.54 118.996 106.288 118.996 106.288C120.744 109.41 123.735 107.287 123.735 107.287V105.289C123.735 105.289 126.105 94.4223 125.483 92.3002C124.861 90.1782 124.609 84.4313 124.609 84.4313V74.058C126.608 72.0645 127.824 69.4176 128.034 66.6011C128.064 66.1921 128.087 65.7624 128.104 65.3163C128.204 62.5007 126.279 59.1946 125.527 58.0179C125.346 57.7334 125.231 57.5734 125.231 57.5734L114.21 61.9479L114.185 61.9583V62.3851V63.3291L114.127 71.4425Z" fill="#474463"/>
<path opacity="0.1" d="M117.871 32.3499C118.207 32.9131 118.464 33.5206 118.632 34.1549C119.242 34.3865 119.892 34.4935 120.545 34.4696C121.197 34.4457 121.837 34.2913 122.429 34.0156C122.585 33.0999 122.947 32.2317 123.488 31.4771L117.871 32.3499Z" fill="black"/>
<path d="M120.368 34.2215C123.056 34.2215 125.235 32.0407 125.235 29.3505C125.235 26.6603 123.056 24.4795 120.368 24.4795C117.679 24.4795 115.5 26.6603 115.5 29.3505C115.5 32.0407 117.679 34.2215 120.368 34.2215Z" fill="#DB8B8B"/>
<path opacity="0.1" d="M114.127 63.3247L114.181 63.3351C119.414 64.4124 125.985 58.9531 125.985 58.9531C125.809 58.656 125.657 58.3453 125.53 58.0239C125.349 57.7394 125.234 57.5793 125.234 57.5793L114.213 61.9539L114.185 62.3911L114.127 63.3247Z" fill="black"/>
<path d="M115.5 37.9693C115.5 37.9693 122.49 33.7221 124.736 35.4708L127.857 39.4719C127.857 39.4719 129.854 40.0958 129.486 44.0925L130.977 51.3345L126.484 52.4593C126.484 52.4593 123.863 54.9578 125.985 58.5796C125.985 58.5796 119.37 64.0744 114.127 62.9512L114.502 57.0813C114.502 57.0813 115.626 53.8345 113.628 50.8366C111.631 47.8387 113.504 44.9668 115.376 43.842C115.376 43.8405 116.248 39.094 115.5 37.9693Z" fill="#FC6681"/>
<path d="M115.125 63.4491C115.125 63.4491 112.504 63.9485 111.256 65.9476C110.896 66.5472 110.456 67.0955 109.95 67.5777C109.836 67.6811 109.747 67.8097 109.692 67.9533C109.636 68.0968 109.614 68.2513 109.629 68.4046C109.643 68.5579 109.693 68.7058 109.774 68.8364C109.856 68.9671 109.967 69.077 110.098 69.1574C111.088 69.7502 112.704 70.1192 114.745 68.4416C118.246 65.5727 115.125 63.4491 115.125 63.4491Z" fill="#DB8B8B"/>
<path opacity="0.1" d="M118.995 40.3433C118.995 40.3433 121.492 40.0928 122.115 46.588C122.739 53.0832 123.744 54.5814 123.744 54.5814C123.744 54.5814 124.368 57.9542 122.87 59.9518C121.373 61.9494 118.502 66.1965 118.502 66.1965C118.502 66.1965 115.382 67.0709 114.758 63.9485L118.628 56.705C118.628 56.705 119.251 54.2065 117.754 52.4578C116.257 50.7092 115.125 39.094 118.995 40.3433Z" fill="black"/>
<path d="M118.74 39.9684C118.74 39.9684 121.237 39.718 121.86 46.2131C122.484 52.7083 123.489 54.2065 123.489 54.2065C123.489 54.2065 124.113 57.5793 122.616 59.5769C121.119 61.5745 118.247 65.8217 118.247 65.8217C118.247 65.8217 115.127 66.696 114.503 63.5736L118.373 56.3301C118.373 56.3301 118.996 53.8316 117.499 52.0829C116.002 50.3343 114.875 38.7192 118.74 39.9684Z" fill="#FC6681"/>
<path opacity="0.1" d="M116.685 44.6511C116.685 44.6511 116.436 48.5189 117.555 50.6469C118.675 52.7749 118.679 55.5179 117.555 57.0191" fill="black"/>
<path opacity="0.1" d="M116.061 39.9062C116.061 39.9062 117.059 38.9074 119.931 38.7814C122.802 38.6554 124.049 37.7826 124.049 37.7826" fill="black"/>
<path opacity="0.1" d="M123.004 23.0569C123.762 23.1503 124.633 23.4111 124.902 24.1239C125.003 24.3862 125.006 24.6752 125.076 24.9464C125.358 26.037 126.586 26.5453 127.343 27.3796C128.011 28.1206 128.305 29.112 128.527 30.0826C129.151 32.8661 129.301 35.7346 128.972 38.568C128.729 40.6427 128.231 42.6788 128.092 44.7594C127.953 46.84 128.208 49.0287 129.343 50.7774C129.832 51.5287 130.478 52.1896 130.824 53.0165C130.109 53.5974 129.121 53.6804 128.199 53.7115C127.126 53.7481 126.052 53.7481 124.978 53.7115C124.415 53.6923 123.827 53.6552 123.341 53.3707C122.982 53.1405 122.686 52.8229 122.482 52.4475C121.868 51.4102 121.714 50.1505 121.742 48.9413C121.77 47.7321 121.96 46.5288 121.982 45.3181C121.994 44.6586 121.942 43.9577 121.563 43.4183C121.289 43.0285 120.873 42.7662 120.517 42.4506C119.185 41.2651 118.723 39.3653 118.678 37.5796C118.634 35.7939 118.928 34.0052 118.777 32.2255C118.718 31.529 118.457 30.6917 117.773 30.5568C117.557 30.5139 117.329 30.5568 117.122 30.4738C116.572 30.2619 116.626 29.4869 116.469 28.9193C116.292 28.2821 115.749 27.7901 115.596 27.1411C115.237 25.6295 117.159 23.826 118.419 23.3C119.7 22.7635 121.653 22.891 123.004 23.0569Z" fill="black"/>
<path d="M123.128 22.8079C123.886 22.9013 124.757 23.1621 125.026 23.8749C125.127 24.1372 125.13 24.4261 125.2 24.6973C125.483 25.788 126.71 26.2963 127.467 27.1306C128.135 27.8716 128.43 28.863 128.652 29.8336C129.275 32.617 129.425 35.4856 129.096 38.319C128.853 40.3936 128.356 42.4298 128.216 44.5104C128.077 46.591 128.332 48.7797 129.468 50.5284C129.956 51.2797 130.602 51.9406 130.949 52.7675C130.233 53.3484 129.246 53.4314 128.323 53.4625C127.25 53.4991 126.176 53.4991 125.102 53.4625C124.539 53.4433 123.951 53.4062 123.466 53.1217C123.106 52.8915 122.81 52.5739 122.607 52.1985C121.992 51.1611 121.838 49.9015 121.866 48.6923C121.894 47.4831 122.084 46.2798 122.106 45.069C122.118 44.4096 122.066 43.7087 121.687 43.1692C121.413 42.7795 120.997 42.5172 120.642 42.2016C119.309 41.016 118.847 39.1162 118.802 37.3306C118.758 35.5449 119.053 33.7562 118.902 31.9764C118.842 31.2799 118.582 30.4427 117.898 30.3078C117.681 30.2648 117.453 30.3078 117.246 30.2248C116.697 30.0129 116.75 29.2379 116.593 28.6703C116.417 28.0331 115.873 27.5411 115.721 26.892C115.361 25.3805 117.283 23.577 118.543 23.0509C119.824 22.513 121.777 22.6405 123.128 22.8079Z" fill="#472727"/>
</g>
<defs>
<linearGradient id="paint0_linear" x1="70.8424" y1="103.099" x2="70.8424" y2="4.91992" gradientUnits="userSpaceOnUse">
<stop stop-color="#808080" stop-opacity="0.25"/>
<stop offset="0.54" stop-color="#808080" stop-opacity="0.12"/>
<stop offset="1" stop-color="#808080" stop-opacity="0.1"/>
</linearGradient>
<linearGradient id="paint1_linear" x1="-41700.2" y1="73183.2" x2="-41700.2" y2="17701.1" gradientUnits="userSpaceOnUse">
<stop stop-color="#808080" stop-opacity="0.25"/>
<stop offset="0.54" stop-color="#808080" stop-opacity="0.12"/>
<stop offset="1" stop-color="#808080" stop-opacity="0.1"/>
</linearGradient>
<clipPath id="clip0">
<rect width="143" height="118.672" fill="white"/>
</clipPath>
</defs>
</svg>
