<svg width="170" height="126" viewBox="0 0 170 126" fill="none" xmlns="http://www.w3.org/2000/svg">
<g clip-path="url(#clip0)">
<path opacity="0.1" d="M72.2268 8.45816C66.6493 6.18933 60.7552 4.28989 54.7381 4.53163C45.8849 4.87999 37.4054 10.2044 33.2399 18.023C29.7107 24.6462 29.2755 32.4107 27.7555 39.7607C25.8828 48.818 22.2965 57.4248 18.4642 65.8424C16.4054 70.3575 14.2342 74.9823 13.8966 79.9388C13.4269 86.8189 16.7146 93.6764 21.8689 98.2576C27.0232 102.839 33.8732 105.249 40.7411 105.776C44.3979 106.057 48.2183 105.797 51.4669 104.094C54.9031 102.292 57.4075 99.0354 60.8573 97.2606C64.0549 95.6089 67.7942 95.3837 71.3835 95.5984C76.0848 95.8799 80.7174 96.8648 85.1269 98.5204C90.1432 100.406 94.8083 103.136 99.8141 105.048C104.82 106.959 110.412 108.027 115.529 106.43C120.331 104.929 124.133 101.295 127.559 97.6089C133.182 91.5584 138.31 85.0659 142.894 78.1941C145.984 73.5633 148.859 68.6773 150.226 63.2793C152.837 52.9607 149.243 41.3178 141.269 34.2696C134.667 28.4316 125.8 25.897 117.123 24.3594C109.21 22.957 100.062 22.8699 92.7781 19.2152C85.8307 15.7241 79.5104 11.4222 72.2268 8.45816Z" fill="#005FD5"/>
<path d="M130.725 18.059C128.582 18.1446 128.474 23.6807 128.608 23.9225C128.741 24.1642 128.121 26.6628 128.121 26.6628C128.121 26.6628 127.149 30.4512 127.262 31.1554C127.374 31.8596 126.738 32.3206 126.738 32.3206C125.787 32.696 124.594 33.9062 124.277 34.2381L124.198 34.3236C124.198 34.3236 123.276 34.9243 123.114 35.1615C122.952 35.3987 122.514 35.2096 122.514 35.2096C122.514 35.2096 121.269 35.0894 121.106 35.1375C120.995 35.1705 120.821 34.9663 120.722 34.8372C120.676 34.7756 120.646 34.7291 120.646 34.7291L120.608 33.6119C120.561 33.5761 120.511 33.5449 120.458 33.5188C120.484 33.3927 120.515 33.2621 120.554 33.1284C121.114 32.8551 121.587 32.4308 121.918 31.9032C121.954 31.8461 121.987 31.7875 122.019 31.729C122.102 31.7866 122.202 31.8146 122.302 31.8086C122.347 31.8098 122.391 31.8058 122.434 31.7966C122.574 31.7588 122.705 31.6929 122.819 31.6029C123.128 31.3937 123.375 31.1041 123.533 30.765C123.56 30.7003 123.583 30.6335 123.6 30.5653C123.578 30.6028 123.554 30.6404 123.53 30.6764C123.589 30.518 123.612 30.3487 123.598 30.1803C123.584 30.0119 123.534 29.8486 123.45 29.7019C123.333 29.5127 123.15 29.3596 123.075 29.1493C122.949 28.7875 123.188 28.4136 123.335 28.0592C123.477 27.7368 123.523 27.3803 123.468 27.0322C123.439 26.8578 123.375 26.6911 123.279 26.5422C123.184 26.3934 123.059 26.2653 122.913 26.1658C122.323 25.7829 121.524 25.9931 120.841 25.8084C120.597 25.7292 120.359 25.6334 120.128 25.5216C119.777 25.3702 119.412 25.2565 119.037 25.1823C118.667 25.1087 118.218 25.1012 117.987 25.391C117.922 25.483 117.865 25.5799 117.816 25.6808C117.741 25.8015 117.644 25.9062 117.529 25.989C117.413 26.0717 117.283 26.1308 117.145 26.1628C117.009 26.1887 116.871 26.2032 116.732 26.2063C116.745 26.1499 116.745 26.0915 116.732 26.0352C116.558 25.4646 117.057 25.0411 117.705 24.7859C118.353 24.5306 120.818 22.5876 121.105 22.1267C121.392 21.6657 123.398 20.2197 123.398 20.2197C123.398 20.2197 126.399 19.3698 127.383 16.2737C128.368 13.1775 122.675 18.4359 122.101 18.5935C121.528 18.7512 120.707 19.3443 120.707 19.3443L117.057 21.457C116.361 21.85 115.702 22.3053 115.088 22.8174C114.204 23.5816 113.644 24.8805 113.644 24.8805C113.644 24.8805 113.295 25.4511 112.784 26.2769C112.503 26.7475 112.123 27.1517 111.671 27.4616L111.688 27.4316C111.647 27.4811 110.391 29.0683 110.28 29.762C110.169 30.4557 109.657 33.2831 109.657 33.2831C109.657 33.2831 109.207 35.5039 108.898 35.9408C108.898 35.9408 108.648 37.2156 108.499 37.3868C108.35 37.558 107.749 39.3643 107.851 39.5475C107.851 39.5475 107.278 40.7983 107.378 41.2713L106.344 43.7488C106.344 43.7488 105.783 44.9741 105.821 45.6903C105.839 46.0371 105.854 46.4411 105.864 46.7714C105.864 46.8239 105.864 46.8735 105.864 46.9215C105.864 46.9741 105.864 47.0252 105.864 47.0717C105.809 47.1648 105.666 47.402 105.517 47.6888C105.304 48.1063 105.078 48.6273 105.091 48.9486C105.115 49.5132 105.117 50.8916 104.857 51.3976L104.781 51.3676C104.69 51.5185 104.638 51.69 104.631 51.8661L104.649 51.8751C104.649 51.9187 104.635 51.9637 104.631 52.0118C104.568 52.5868 104.659 53.3872 104.515 53.5628C104.315 53.8061 104.415 59.1966 104.415 59.1966C104.415 59.1966 104.09 62.5706 104.739 64.7088L104.689 66.383C104.689 66.383 104.664 67.9611 104.739 68.1848C104.814 68.4086 104.839 70.0062 104.839 70.0062L105.213 72.6774C105.213 72.6774 104.713 76.8051 105.138 77.8247C105.384 78.3872 105.536 78.9862 105.588 79.598C105.804 79.717 106.035 79.8064 106.275 79.8638V80.0139L106.178 82.5245V82.6626C106.178 82.6626 106.166 82.7287 106.157 82.8383C106.157 82.8578 106.157 82.8789 106.157 82.8999C106.156 82.9059 106.156 82.9119 106.157 82.9179C106.157 82.9344 106.157 82.9524 106.157 82.9705C106.156 82.984 106.156 82.9975 106.157 83.011C106.157 83.023 106.157 83.035 106.157 83.047V83.0771C106.157 83.1386 106.157 83.2047 106.157 83.2738C106.157 83.3008 106.157 83.3293 106.157 83.3579C106.157 83.3864 106.157 83.3744 106.157 83.3819V83.4194C106.157 83.4359 106.157 83.4525 106.157 83.469V83.493C106.157 83.5185 106.164 83.5425 106.169 83.5681C106.168 83.5741 106.168 83.5801 106.169 83.5861C106.169 83.6146 106.179 83.6417 106.185 83.6687C106.185 83.6957 106.197 83.7227 106.205 83.7498C106.205 83.7527 106.205 83.7558 106.205 83.7588C106.205 83.7723 106.212 83.7873 106.217 83.8008C106.216 83.8073 106.216 83.8139 106.217 83.8203C106.217 83.8368 106.227 83.8534 106.232 83.8714V83.8834C106.247 83.9254 106.262 83.9675 106.28 84.0095C106.279 84.014 106.279 84.0186 106.28 84.023C106.28 84.0381 106.293 84.0546 106.301 84.0696L106.31 84.0906L106.329 84.1311L106.341 84.1537L106.362 84.1912L106.376 84.2137C106.376 84.2258 106.389 84.2378 106.397 84.2498C106.404 84.2618 106.407 84.2648 106.412 84.2738L106.434 84.3083L106.451 84.3309L106.475 84.3654L106.493 84.3879L106.52 84.4209L106.538 84.442L106.569 84.478L106.586 84.496L106.637 84.5456C106.642 84.5513 106.647 84.5564 106.653 84.5606C106.665 84.5729 106.678 84.5844 106.691 84.5951L106.715 84.6146L106.748 84.6417L106.776 84.6627L106.809 84.6867L106.841 84.7077L106.874 84.7288L106.908 84.7483L106.943 84.7693L106.979 84.7873L107.016 84.8053L107.054 84.8234L107.091 84.8399L107.132 84.8564L107.173 84.8714L107.215 84.8864L107.26 84.8999L107.33 84.921L107.389 84.936L107.435 84.945L107.483 84.9555H107.534L107.584 84.963H107.636H107.689H107.743H107.798H107.854H108.091H108.16H108.217L108.298 84.9555H108.347L108.484 84.9405C108.484 84.9405 110.184 85.1942 110.24 84.5216C110.24 84.487 110.24 84.451 110.247 84.4134V84.3279C110.246 84.3174 110.246 84.3068 110.247 84.2963C110.247 84.2633 110.247 84.2272 110.247 84.1912V84.1747C110.247 84.1372 110.247 84.0996 110.247 84.0606V83.9795C110.247 83.9134 110.247 83.8459 110.247 83.7783C110.247 83.7528 110.247 83.7287 110.247 83.7032C110.247 83.6341 110.247 83.5666 110.247 83.499V83.4885C110.247 83.472 110.247 83.4585 110.247 83.4419C110.237 83.1086 110.22 82.7993 110.21 82.6266C110.21 82.535 110.201 82.4765 110.201 82.4765C110.201 82.4765 109.621 81.6026 109.716 81.2752C109.81 80.9479 109.789 79.8368 109.789 79.8368C109.789 79.8368 109.564 79.3037 109.413 78.8322C109.401 78.7962 109.39 78.7601 109.38 78.7256C109.506 78.5817 109.624 78.4313 109.734 78.2752C109.949 77.1176 109.801 75.9218 109.311 74.8516C109.282 74.832 109.259 74.8057 109.243 74.7751C109.227 74.7445 109.219 74.7105 109.219 74.676C109.218 74.67 109.218 74.6639 109.219 74.658L109.509 71.1128L109.333 69.0497C109.333 69.0497 109.209 67.6398 109.483 67.0331L110.031 61.6922L110.808 58.5855C110.808 58.5855 111.057 58.4639 111.258 59.048C111.46 59.6321 111.955 62.2763 111.955 62.2763L113.155 66.6472C113.155 66.6472 113.355 68.2013 113.529 68.4206C113.703 68.6398 113.704 69.6098 113.704 69.6098C113.704 69.6098 114.078 70.3876 114.028 70.7269C113.979 71.0663 114.028 71.9897 114.151 72.305C114.275 72.6204 114.327 74.8576 114.327 74.8576C114.184 75.5893 114.201 76.3434 114.377 77.0679C114.677 78.1851 114.501 79.5935 114.501 79.5935C114.533 79.6422 114.567 79.6894 114.603 79.7346C114.591 79.7677 114.578 79.8007 114.566 79.8307C114.488 80.0335 114.426 80.1761 114.426 80.1761C114.426 80.1761 114.408 81.2872 114.501 81.6146C114.594 81.9419 114.015 82.8158 114.015 82.8158C114.015 82.8158 114.015 82.8699 114.006 82.966C113.995 83.1386 113.979 83.4464 113.968 83.7813C113.968 83.7963 113.968 83.8113 113.968 83.8278V83.8398V84.0411C113.968 84.0666 113.968 84.0921 113.968 84.1176C113.968 84.1852 113.968 84.2528 113.968 84.3188C113.968 84.3308 113.968 84.3444 113.968 84.3564C113.968 84.3684 113.968 84.3759 113.968 84.3849V84.3984C113.968 84.4375 113.968 84.4765 113.968 84.514V84.5306C113.968 84.5666 113.968 84.6026 113.968 84.6372C113.968 84.6467 113.968 84.6562 113.968 84.6657C113.968 84.6942 113.968 84.7243 113.968 84.7528C113.968 84.7813 113.968 84.8264 113.976 84.8609C114.033 85.5336 115.733 85.2798 115.733 85.2798L115.87 85.2963H115.918H116H116.056H116.126H116.36H116.416H116.471H116.525H116.578H116.629L116.68 85.2873L116.729 85.2798L116.777 85.2693L116.825 85.2603L116.884 85.2453L116.954 85.2243L116.998 85.2108L117.04 85.1957C117.054 85.1917 117.067 85.1866 117.081 85.1807L117.121 85.1642L117.16 85.1477L117.198 85.1312L117.235 85.1117L117.27 85.0936L117.306 85.0741L117.339 85.0531L117.373 85.0321L117.403 85.0111L117.436 84.987C117.446 84.9809 117.456 84.9738 117.465 84.966C117.476 84.9583 117.487 84.9498 117.498 84.9405L117.523 84.9195L117.561 84.8864L117.577 84.8699L117.628 84.8204L117.643 84.8023L117.676 84.7678L117.693 84.7453C117.703 84.735 117.713 84.7239 117.721 84.7122L117.738 84.6897L117.763 84.6552L117.778 84.6327L117.802 84.5981C117.807 84.5898 117.812 84.5818 117.817 84.5741C117.817 84.5621 117.831 84.5501 117.838 84.5381L117.852 84.5155C117.852 84.502 117.865 84.49 117.871 84.478C117.876 84.4708 117.88 84.4633 117.883 84.4555C117.883 84.442 117.897 84.4285 117.903 84.4149L117.913 84.3939C117.913 84.3789 117.927 84.3639 117.934 84.3474V84.3339C117.951 84.2918 117.967 84.2498 117.981 84.2077V84.1957C117.981 84.1792 117.991 84.1627 117.997 84.1462C117.997 84.1392 117.997 84.1321 117.997 84.1251C117.997 84.1116 117.997 84.0966 118.009 84.0831V84.0756C118.01 84.0726 118.01 84.0695 118.009 84.0666C118.009 84.0396 118.024 84.0125 118.03 83.987C118.03 83.96 118.042 83.9329 118.047 83.9059V83.8864C118.047 83.8609 118.056 83.8368 118.059 83.8128C118.062 83.7888 118.059 83.7963 118.059 83.7873C118.059 83.7783 118.059 83.7543 118.059 83.7377C118.059 83.7212 118.059 83.7122 118.059 83.7002C118.059 83.6882 118.059 83.6852 118.059 83.6762C118.059 83.6672 118.059 83.6206 118.059 83.5921C118.059 83.523 118.059 83.457 118.059 83.3954V83.3293C118.058 83.3158 118.058 83.3023 118.059 83.2888C118.059 83.2708 118.059 83.2543 118.059 83.2362C118.058 83.2303 118.058 83.2242 118.059 83.2182C118.059 83.1972 118.059 83.1762 118.059 83.1581C118.05 83.0485 118.039 82.9825 118.039 82.9825V82.8458L117.945 80.4163V80.2662C118.084 80.1881 118.227 80.0995 118.375 79.9959C118.375 79.9959 118.35 78.6115 118.749 78.0544C119.148 77.4974 118.55 76.0379 118.55 76.0379L118.3 70.817L118.399 68.4146C118.202 68.0581 118.098 67.657 118.099 67.2494C118.06 66.7285 117.925 66.2195 117.7 65.7478C117.7 65.7478 117.451 64.922 117.751 64.6787C118.051 64.4355 117.427 59.123 117.427 59.123C117.427 59.123 117.577 55.2416 117.292 52.9367V52.8992L117.372 52.8631C117.348 52.6784 117.322 52.5058 117.294 52.3451L117.21 52.3706C117.174 52.167 117.124 51.9663 117.06 51.77L116.66 49.9366C116.66 49.9366 116.651 49.8405 116.641 49.7009C116.627 49.5357 116.612 49.312 116.609 49.1153C116.608 49.0324 116.617 48.9497 116.636 48.869L116.615 48.851C116.617 48.8078 116.624 48.7649 116.636 48.7234L116.549 48.6498C116.549 48.6498 116.537 48.5672 116.528 48.4411C116.509 48.1618 116.498 47.6753 116.636 47.4005C116.836 46.9996 118.887 45.4816 118.887 45.4816L120.037 43.1797C120.037 43.1797 121.183 41.5641 122.055 41.2487C122.927 40.9334 125.643 39.1256 125.643 39.1256C125.643 39.1256 126.589 38.1541 126.664 37.9243L126.696 37.8763H126.714V37.8447L129.265 34.0203C130.285 33.1945 130.323 31.4347 130.323 31.4347L130.588 27.4136L130.501 25.0351L130.624 23.6838C130.624 23.6838 132.866 17.9749 130.725 18.059ZM116.113 28.4646C115.836 28.9504 115.69 29.5 115.69 30.0593C115.69 30.0863 115.69 30.1133 115.69 30.1404C115.69 30.1674 115.69 30.1839 115.69 30.2049C115.69 30.7044 115.806 31.197 116.03 31.6434C115.917 31.7704 115.832 31.9205 115.783 32.0834C115.657 31.9242 115.287 31.4377 115.266 31.1149C115.241 30.7275 114.867 30.4602 114.867 30.4602C114.867 30.4602 114.798 29.7244 114.891 29.5983L114.905 29.5863C114.905 29.5863 114.915 29.5683 114.936 29.5382C115.043 29.3776 115.401 28.8355 115.772 28.2184C115.834 28.2448 115.897 28.2659 115.963 28.2815L116.191 28.3385L116.113 28.4646Z" fill="url(#paint0_linear)"/>
<path d="M123.382 28.0592C123.404 28.0082 123.422 27.9541 123.44 27.9001C123.383 28.0196 123.333 28.1424 123.29 28.2679C123.322 28.1974 123.353 28.1283 123.382 28.0592Z" fill="url(#paint1_linear)"/>
<path d="M116.779 31.6299C116.779 31.6299 116.309 33.8702 115.443 34.16C114.578 34.4498 116.494 37.0129 116.494 37.0129L120.466 36.7952L120.538 35.9648C120.538 35.9648 119.787 34.3026 121.043 32.2801C122.299 30.2575 116.779 31.6299 116.779 31.6299Z" fill="#F6BAC2"/>
<path d="M110.55 84.5246C110.496 85.1927 108.853 84.9405 108.853 84.9405C106.128 85.3189 106.579 82.6461 106.579 82.6461V82.5095L106.673 80.0169L106.7 79.3217C106.7 79.3217 109.701 77.9493 109.625 78.2376C109.596 78.3457 109.659 78.6055 109.746 78.8863C109.896 79.3533 110.111 79.8818 110.111 79.8818C110.111 79.8818 110.129 80.9839 110.039 81.3083C109.949 81.6326 110.508 82.5005 110.508 82.5005C110.508 82.5005 110.508 82.5545 110.517 82.6506C110.562 83.2742 110.573 83.8998 110.55 84.5246Z" fill="#B77983"/>
<path d="M115.804 85.2467C115.804 85.2467 114.161 85.5005 114.107 84.8308C114.082 84.2046 114.091 83.5775 114.135 82.9524C114.135 82.8623 114.143 82.8022 114.143 82.8022C114.143 82.8022 114.703 81.9344 114.612 81.61C114.522 81.2857 114.54 80.1821 114.54 80.1821C114.54 80.1821 114.599 80.0424 114.676 79.8412C114.836 79.4193 115.078 78.7346 115.028 78.5394C114.956 78.2496 117.953 79.622 117.953 79.622L117.983 80.3998L118.074 82.8098V82.9464C118.074 82.9464 118.53 85.6266 115.804 85.2467Z" fill="#B77983"/>
<path d="M127.068 16.8052C126.114 19.8759 123.218 20.7197 123.218 20.7197C123.218 20.7197 121.279 22.1582 121.003 22.6087C120.727 23.0591 118.344 24.9931 117.717 25.2469C117.09 25.5006 116.611 25.9211 116.779 26.4856C116.929 27.0097 115.288 29.5743 115.04 29.9557L115.01 30.0037L114.492 30.5458L112.735 31.4362L111.304 30.9782L111.122 29.2575L111.881 27.9061C112.32 27.5964 112.687 27.1953 112.957 26.7304C113.451 25.9105 113.789 25.346 113.789 25.346C113.789 25.346 114.33 24.0576 115.184 23.2979C115.775 22.7897 116.411 22.3373 117.085 21.9465L120.613 19.8443C120.613 19.8443 121.407 19.2542 121.963 19.0936C122.52 18.9329 128.02 13.7346 127.068 16.8052Z" fill="#F6BAC2"/>
<path opacity="0.05" d="M112.735 30.3295L115.082 29.8596C115.057 29.8859 115.042 29.9206 115.04 29.9572L115.01 30.0052L114.492 30.5473L112.735 31.4377L111.304 30.9797L111.122 29.2589L111.881 27.9076C111.163 29.4091 111.863 30.4752 111.863 30.4752L112.735 30.3295Z" fill="black"/>
<path opacity="0.05" d="M126.459 38.0865C126.453 38.1022 126.447 38.1182 126.443 38.1345C126.42 38.1882 126.391 38.2387 126.355 38.2847L125.409 38.7472L123.964 38.8973L123.213 37.079L123.713 35.0864L123.989 34.714L124.066 34.6299C124.094 34.9903 124.24 36.8702 124.231 37.4348C124.219 38.061 124.681 38.1105 124.681 38.1105L126.459 38.0865Z" fill="black"/>
<path d="M126.387 38.2246C126.38 38.2403 126.375 38.2564 126.37 38.2727C126.298 38.5009 125.384 39.4649 125.384 39.4649C125.384 39.4649 122.76 41.2592 121.918 41.5671C121.076 41.8749 119.967 43.4815 119.967 43.4815L118.86 45.7684C118.86 45.7684 116.875 47.2699 116.683 47.6723C116.549 47.9456 116.56 48.4231 116.579 48.7054C116.579 48.83 116.597 48.9126 116.597 48.9126L116.012 49.5237L115.545 50.0102L114.888 50.6949L113.818 50.5448L110.484 50.0147L109.845 49.6543L106.296 47.6543C106.296 47.6543 106.296 47.5297 106.287 47.339C106.287 47.2549 106.287 47.1588 106.278 47.0522C106.268 46.7278 106.253 46.3239 106.236 45.9801C106.2 45.2698 106.742 44.0536 106.742 44.0536L107.74 41.5956C107.644 41.1271 108.197 39.8853 108.197 39.8853C108.101 39.7052 108.679 37.9108 108.823 37.7426C108.967 37.5745 109.209 36.3087 109.209 36.3087C109.509 35.8762 109.942 33.672 109.942 33.672C109.942 33.672 110.436 30.8776 110.543 30.1794C110.649 29.4812 111.863 27.9166 111.902 27.8685C111.036 29.4572 111.794 30.6133 111.794 30.6133L112.661 30.4632L115.01 30.0052C114.902 30.0773 114.974 30.8716 114.974 30.8716C115.182 31.0299 115.319 31.2632 115.358 31.5218C115.38 31.8746 115.808 32.4227 115.888 32.5203L115.9 32.5338C115.93 32.3662 115.996 32.2071 116.094 32.0677C116.191 31.9282 116.318 31.8116 116.465 31.726L117.007 32.4497L117.188 33.3161C117.188 33.3161 117.139 33.4377 116.827 33.678C116.515 33.9182 116.959 34.5444 116.959 34.5444C117.109 34.7981 117.152 35.7366 117.152 35.7366C117.55 35.3882 118.174 35.3882 118.174 35.3882C118.429 35.1329 118.636 34.8351 118.788 34.5083C118.801 34.4548 118.825 34.4049 118.86 34.3623C118.895 34.3197 118.939 34.2856 118.989 34.2625C119.038 34.2393 119.093 34.2278 119.148 34.2288C119.203 34.2298 119.257 34.2432 119.306 34.2681C119.487 34.1106 119.685 33.9731 119.895 33.8582C120.185 33.708 120.521 34.0083 120.521 34.0083L120.557 35.118C120.557 35.118 120.586 35.163 120.632 35.2246C120.727 35.3567 120.896 35.5594 121.003 35.5249C121.153 35.4768 122.362 35.5969 122.362 35.5969C122.362 35.5969 122.784 35.7771 122.94 35.5489C123.096 35.3207 123.99 34.7185 123.99 34.7185C123.99 34.7185 124.163 36.9543 124.163 37.579C124.163 38.2036 124.613 38.2547 124.613 38.2547L126.387 38.2246Z" fill="#D39999"/>
<path d="M116.539 36.9768C116.658 36.9768 116.755 36.88 116.755 36.7606C116.755 36.6412 116.658 36.5444 116.539 36.5444C116.419 36.5444 116.323 36.6412 116.323 36.7606C116.323 36.88 116.419 36.9768 116.539 36.9768Z" fill="#4B4442"/>
<path d="M114.962 40.1211C115.081 40.1211 115.178 40.0243 115.178 39.9049C115.178 39.7854 115.081 39.6886 114.962 39.6886C114.842 39.6886 114.746 39.7854 114.746 39.9049C114.746 40.0243 114.842 40.1211 114.962 40.1211Z" fill="#4B4442"/>
<path d="M111.858 46.8525C111.977 46.8525 112.074 46.7557 112.074 46.6363C112.074 46.5168 111.977 46.42 111.858 46.42C111.738 46.42 111.642 46.5168 111.642 46.6363C111.642 46.7557 111.738 46.8525 111.858 46.8525Z" fill="#4B4442"/>
<path d="M113.325 43.456C113.444 43.456 113.541 43.3592 113.541 43.2398C113.541 43.1203 113.444 43.0235 113.325 43.0235C113.206 43.0235 113.109 43.1203 113.109 43.2398C113.109 43.3592 113.206 43.456 113.325 43.456Z" fill="#4B4442"/>
<path opacity="0.05" d="M109.758 78.8863C108.63 80.2286 107.411 80.2061 106.685 80.0169L106.712 79.3217C106.712 79.3217 109.713 77.9493 109.637 78.2376C109.608 78.3457 109.665 78.6055 109.758 78.8863Z" fill="black"/>
<path opacity="0.05" d="M117.982 80.4058C116.066 81.514 114.942 80.2152 114.681 79.8473C114.842 79.4253 115.083 78.7406 115.034 78.5454C114.962 78.2556 117.958 79.628 117.958 79.628L117.982 80.4058Z" fill="black"/>
<path d="M118.752 78.0694C118.368 78.6235 118.391 79.9959 118.391 79.9959C115.912 81.7782 114.612 79.61 114.612 79.61C114.612 79.61 114.781 78.2136 114.492 77.1055C114.322 76.3863 114.305 75.6391 114.444 74.9132C114.444 74.9132 114.396 72.6969 114.275 72.3846C114.153 72.0723 114.107 71.1564 114.155 70.8185C114.203 70.4807 113.843 69.7119 113.843 69.7119C113.843 69.7119 113.843 68.7479 113.673 68.5317C113.504 68.3155 113.313 66.7719 113.313 66.7719L112.159 62.4369C112.159 62.4369 111.677 59.8122 111.485 59.2342C111.293 58.6561 111.052 58.7762 111.052 58.7762L110.358 61.8829L109.829 67.1818C109.563 67.7824 109.679 69.1818 109.679 69.1818L109.847 71.2284L109.568 74.745C109.567 74.751 109.567 74.7571 109.568 74.7631C109.567 74.7969 109.575 74.8303 109.59 74.8606C109.605 74.8909 109.628 74.9171 109.655 74.9372C110.128 76.0028 110.269 77.1867 110.058 78.3337C108.229 80.9839 106.014 79.61 106.014 79.61C105.966 79.0049 105.82 78.4116 105.582 77.8532C105.173 76.8412 105.654 72.748 105.654 72.748L105.293 70.0978C105.293 70.0978 105.269 68.5076 105.197 68.2959C105.125 68.0842 105.149 66.5136 105.149 66.5136L105.197 64.8514C104.571 62.7312 104.883 59.3843 104.883 59.3843C104.883 59.3843 104.787 54.0373 104.981 53.7956C105.12 53.6214 105.032 52.8286 105.092 52.2565C105.098 52.0828 105.146 51.9133 105.233 51.7625L105.257 51.7385C105.57 51.3526 105.57 49.812 105.545 49.2084C105.533 48.8901 105.75 48.3735 105.957 47.9591C106.107 47.6678 106.244 47.4276 106.295 47.3405L106.316 47.3059C106.316 47.3059 107.688 47.6438 111.322 49.3781C111.973 49.7004 112.671 49.9168 113.39 50.0192C113.747 50.067 114.109 50.0726 114.468 50.0357C115.016 49.983 115.546 49.8108 116.02 49.5312C116.271 49.3882 116.497 49.2062 116.691 48.9922C116.641 49.1423 116.671 49.6558 116.691 49.9622C116.7 50.1018 116.71 50.1964 116.71 50.1964L117.111 51.9832C117.176 52.1951 117.226 52.4114 117.261 52.6304C117.289 52.7896 117.313 52.9622 117.336 53.1454C117.617 55.4308 117.466 59.2822 117.466 59.2822C117.466 59.2822 118.067 64.5571 117.78 64.7973C117.493 65.0376 117.731 65.8574 117.731 65.8574C117.948 66.3274 118.079 66.8332 118.116 67.35C118.114 67.7536 118.214 68.1512 118.406 68.5061L118.308 70.8906L118.56 76.0634C118.56 76.0634 119.138 77.5154 118.752 78.0694Z" fill="#8499F0"/>
<path opacity="0.05" d="M115.93 69.35C115.93 69.35 117.753 68.2989 118.15 68.7719C118.548 69.2449 115.93 69.35 115.93 69.35Z" fill="black"/>
<path opacity="0.05" d="M117.031 69.9281C117.031 69.9281 116.731 70.0783 117.393 70.2705C118.055 70.4627 117.031 69.9281 117.031 69.9281Z" fill="black"/>
<path opacity="0.05" d="M106.007 67.0376C105.945 67.0557 107.524 68.1037 108.949 67.2358C108.943 67.2358 106.362 66.9295 106.007 67.0376Z" fill="black"/>
<path opacity="0.05" d="M108.871 69.0422C108.871 69.0422 108.439 69.892 107.554 70.0182C106.668 70.1443 108.871 69.0422 108.871 69.0422Z" fill="black"/>
<path opacity="0.05" d="M114.666 70.8861C114.666 70.8861 116.743 74.1895 116.345 74.9688C115.947 75.7481 114.666 70.8861 114.666 70.8861Z" fill="black"/>
<path opacity="0.05" d="M111.164 50.851L110.948 57.3182C110.948 57.3182 112.229 57.2641 112.448 55.1334C112.667 53.0027 112.828 51.267 112.828 51.267L111.164 50.851Z" fill="black"/>
<path d="M111.092 50.7069L110.876 57.174C110.876 57.174 112.157 57.12 112.377 54.9878C112.596 52.8556 112.759 51.1228 112.759 51.1228L111.092 50.7069Z" fill="#8499F0"/>
<path opacity="0.05" d="M108.493 50.9967C108.493 50.9967 107.482 53.71 105.168 52.3961C105.174 52.2224 105.223 52.0528 105.309 51.9021C105.942 52.1679 107.41 52.5568 108.01 50.797L108.493 50.9967Z" fill="black"/>
<path opacity="0.05" d="M108.421 50.7069C108.421 50.7069 107.41 53.4202 105.096 52.1063C105.102 51.9327 105.15 51.7631 105.237 51.6123C105.87 51.8796 107.338 52.267 107.938 50.5087L108.421 50.7069Z" fill="black"/>
<path d="M108.421 50.8511C108.421 50.8511 107.41 53.5643 105.096 52.2505C105.102 52.0768 105.15 51.9073 105.237 51.7565C105.87 52.0238 107.338 52.4112 107.938 50.6529L108.421 50.8511Z" fill="#8499F0"/>
<path opacity="0.05" d="M117.275 53.2896C114.733 54.4998 113.801 51.6469 113.801 51.6469L114.401 51.6649C114.506 53.4893 116.515 52.9983 117.204 52.7745C117.228 52.9397 117.252 53.1064 117.275 53.2896Z" fill="black"/>
<path opacity="0.05" d="M117.419 53.0733C114.878 54.2821 113.945 51.4291 113.945 51.4291L114.545 51.4472C114.65 53.2715 116.659 52.782 117.348 52.5583C117.372 52.7175 117.396 52.8901 117.419 53.0733Z" fill="black"/>
<path d="M117.346 53.1454C114.806 54.3541 113.873 51.5012 113.873 51.5012L114.473 51.5192C114.578 53.3451 116.587 52.8541 117.276 52.6304C117.3 52.7895 117.324 52.9622 117.346 53.1454Z" fill="#8499F0"/>
<path opacity="0.1" d="M108.421 50.8511C108.421 50.8511 107.41 53.5643 105.096 52.2505C105.102 52.0768 105.15 51.9073 105.237 51.7565C105.87 52.0238 107.338 52.4112 107.938 50.6529L108.421 50.8511Z" fill="white"/>
<path opacity="0.1" d="M117.346 53.1454C114.806 54.3541 113.873 51.5012 113.873 51.5012L114.473 51.5192C114.578 53.3451 116.587 52.8541 117.276 52.6304C117.3 52.7895 117.324 52.9622 117.346 53.1454Z" fill="white"/>
<path opacity="0.05" d="M110.568 84.0215C110.568 84.2062 110.568 84.3789 110.55 84.5215C110.496 85.1897 108.853 84.9375 108.853 84.9375C107.353 85.1462 106.812 84.4254 106.634 83.7362C106.578 83.5124 106.55 83.2823 106.551 83.0515C106.55 82.9139 106.559 82.7764 106.578 82.6401V82.5035C106.738 82.4554 106.906 82.4477 107.069 82.481C107.232 82.5143 107.384 82.5875 107.512 82.6941C108.179 83.2362 109.065 82.8203 109.065 82.8203C109.065 82.8203 109.714 82.8743 109.965 83.0906C110.106 83.2122 110.339 82.9194 110.516 82.6401C110.526 82.8203 110.543 83.1461 110.553 83.4945C110.565 83.6732 110.568 83.8533 110.568 84.0215Z" fill="black"/>
<path opacity="0.05" d="M107.933 83.9825C107.933 83.9825 107.483 84.4239 106.634 83.7422C106.578 83.5184 106.55 83.2883 106.551 83.0575C106.985 83.3879 107.789 83.9825 107.933 83.9825Z" fill="black"/>
<path opacity="0.05" d="M110.568 84.0215C110.532 84.0498 110.49 84.0703 110.445 84.0817C110.4 84.0931 110.353 84.0952 110.308 84.0879C110.262 84.0806 110.218 84.064 110.179 84.0391C110.14 84.0143 110.107 83.9817 110.081 83.9434C110.256 83.8101 110.417 83.6592 110.561 83.493C110.565 83.6732 110.568 83.8533 110.568 84.0215Z" fill="black"/>
<path opacity="0.05" d="M114.09 84.3308C114.09 84.517 114.09 84.6897 114.107 84.8308C114.161 85.5005 115.804 85.2468 115.804 85.2468C117.304 85.457 117.845 84.7362 118.023 84.0455C118.112 83.6871 118.13 83.315 118.079 82.9494V82.8128C117.919 82.7655 117.75 82.7582 117.587 82.7915C117.424 82.8247 117.272 82.8975 117.144 83.0035C116.476 83.5455 115.592 83.1296 115.592 83.1296C115.592 83.1296 114.943 83.1852 114.692 83.4014C114.551 83.523 114.318 83.2302 114.143 82.9509C114.132 83.1311 114.114 83.4569 114.104 83.8053C114.092 83.981 114.089 84.1612 114.09 84.3308Z" fill="black"/>
<path opacity="0.05" d="M116.725 84.2888C116.725 84.2888 117.175 84.7303 118.023 84.0486C118.08 83.8253 118.108 83.5957 118.107 83.3654C117.672 83.6942 116.868 84.2888 116.725 84.2888Z" fill="black"/>
<path opacity="0.05" d="M114.09 84.3308C114.127 84.3591 114.169 84.3795 114.213 84.3909C114.258 84.4023 114.305 84.4044 114.35 84.3971C114.396 84.3898 114.439 84.3732 114.478 84.3484C114.517 84.3235 114.551 84.291 114.576 84.2528C114.401 84.1197 114.24 83.9687 114.096 83.8023C114.092 83.981 114.089 84.1612 114.09 84.3308Z" fill="black"/>
<path opacity="0.05" d="M112.109 38.2246C112.109 38.2246 109.798 44.6077 110.688 45.1617C111.578 45.7158 112.109 38.2246 112.109 38.2246Z" fill="black"/>
<path opacity="0.05" d="M113.795 36.2546C113.795 36.2546 113.359 38.3748 113.577 38.567C113.795 38.7592 113.795 36.2546 113.795 36.2546Z" fill="black"/>
<path opacity="0.05" d="M118.461 41.1932C118.461 41.1932 115.62 43.8419 115.813 44.0596C116.005 44.2773 118.461 41.1932 118.461 41.1932Z" fill="black"/>
<path opacity="0.05" d="M120.632 35.3627C119.557 35.6916 117.042 36.4604 117.013 36.4543L117.153 35.8808C117.55 35.5324 118.175 35.5324 118.175 35.5324C118.429 35.2771 118.636 34.9793 118.788 34.6525C118.801 34.599 118.826 34.5491 118.86 34.5065C118.895 34.4639 118.939 34.4298 118.989 34.4066C119.039 34.3835 119.093 34.372 119.148 34.373C119.203 34.3739 119.257 34.3874 119.306 34.4123C119.488 34.2553 119.685 34.1179 119.896 34.0023C120.185 33.8522 120.521 34.1525 120.521 34.1525L120.557 35.2606C120.557 35.2606 120.586 35.3012 120.632 35.3627Z" fill="black"/>
<path d="M120.632 35.2216C119.557 35.5504 117.042 36.3192 117.013 36.3117L117.153 35.7396C117.55 35.3912 118.175 35.3912 118.175 35.3912C118.429 35.1359 118.636 34.8381 118.788 34.5113C118.801 34.4578 118.826 34.4079 118.86 34.3653C118.895 34.3227 118.939 34.2886 118.989 34.2655C119.039 34.2423 119.093 34.2308 119.148 34.2318C119.203 34.2328 119.257 34.2462 119.306 34.2711C119.487 34.1136 119.685 33.9761 119.896 33.8612C120.185 33.711 120.521 34.0113 120.521 34.0113L120.557 35.121C120.557 35.121 120.586 35.157 120.632 35.2216Z" fill="#D39999"/>
<path opacity="0.05" d="M116.887 34.6209C117.037 34.8747 117.079 35.8132 117.079 35.8132L116.661 36.1465L115.865 33.8522L115.829 32.6599L115.814 32.5924L115.826 32.6059C115.856 32.4384 115.923 32.2795 116.02 32.1402C116.118 32.001 116.245 31.8847 116.392 31.7996L116.934 32.5218L117.115 33.3882C117.115 33.3882 117.066 33.5098 116.754 33.7501C116.442 33.9903 116.887 34.6209 116.887 34.6209Z" fill="black"/>
<path d="M116.961 34.5444C117.111 34.7981 117.154 35.7366 117.154 35.7366L116.735 36.0744L115.94 33.7801L115.904 32.5879L115.888 32.5203L115.9 32.5338C115.93 32.3662 115.996 32.2071 116.094 32.0677C116.191 31.9282 116.318 31.8116 116.465 31.726L117.007 32.4497L117.189 33.3161C117.189 33.3161 117.139 33.4377 116.827 33.678C116.515 33.9182 116.961 34.5444 116.961 34.5444Z" fill="#D39999"/>
<path opacity="0.05" d="M122.266 30.6193C122.266 31.2622 122.075 31.8906 121.718 32.425C121.361 32.9594 120.854 33.3758 120.26 33.6216C119.666 33.8674 119.013 33.9316 118.383 33.806C117.753 33.6804 117.174 33.3707 116.72 32.916C116.266 32.4613 115.957 31.882 115.831 31.2515C115.706 30.6209 115.771 29.9674 116.016 29.3734C116.262 28.7795 116.679 28.2719 117.213 27.9148C117.747 27.5576 118.375 27.367 119.018 27.367C119.445 27.3634 119.87 27.4451 120.266 27.6073C120.661 27.7694 121.021 28.0089 121.323 28.3116C121.626 28.6144 121.865 28.9744 122.027 29.3706C122.189 29.7668 122.27 30.1913 122.266 30.6193Z" fill="black"/>
<path d="M122.266 30.4737C122.267 31.1171 122.076 31.7461 121.719 32.2812C121.362 32.8163 120.855 33.2333 120.261 33.4797C119.667 33.726 119.013 33.7906 118.383 33.6651C117.752 33.5397 117.173 33.2299 116.718 32.775C116.263 32.32 115.954 31.7404 115.828 31.1094C115.703 30.4783 115.768 29.8243 116.014 29.2299C116.26 28.6356 116.677 28.1276 117.212 27.7704C117.746 27.4131 118.375 27.2226 119.018 27.2229C119.445 27.2205 119.869 27.303 120.264 27.4655C120.659 27.628 121.018 27.8674 121.32 28.1697C121.622 28.4721 121.862 28.8314 122.024 29.2269C122.186 29.6223 122.269 30.0461 122.266 30.4737Z" fill="#F6BAC2"/>
<path opacity="0.05" d="M122.266 30.4737C122.267 31.0696 122.104 31.6542 121.794 32.1629C121.746 32.0773 121.717 31.9782 121.669 31.8911C121.602 31.7695 121.446 31.6674 121.33 31.741C121.282 31.7805 121.245 31.8324 121.224 31.8911C121.129 32.0908 120.961 32.2906 120.74 32.286C120.644 32.2758 120.554 32.2367 120.48 32.174C120.407 32.1113 120.354 32.0279 120.329 31.9347C120.283 31.747 120.275 31.552 120.305 31.3611C120.338 30.9707 120.344 30.5202 120.055 30.2575C119.868 30.1206 119.654 30.025 119.427 29.9767C119.207 29.9046 118.977 29.7905 118.887 29.5773C118.827 29.4271 118.842 29.268 118.788 29.1268C118.732 29.0137 118.65 28.9157 118.549 28.841C118.447 28.7662 118.329 28.717 118.204 28.6974C117.918 28.9344 117.554 29.0587 117.183 29.0472C116.842 29.0392 116.504 28.9857 116.177 28.8881C116.528 28.2592 117.076 27.7643 117.738 27.4812C118.399 27.198 119.136 27.1425 119.833 27.3233C120.529 27.5042 121.146 27.9111 121.586 28.4804C122.027 29.0497 122.266 29.7492 122.266 30.4692V30.4737Z" fill="black"/>
<path d="M118.788 28.9857C118.842 29.1359 118.827 29.298 118.887 29.4362C118.976 29.6494 119.207 29.7635 119.427 29.8356C119.654 29.8836 119.868 29.9788 120.055 30.1149C120.344 30.3791 120.338 30.8296 120.305 31.22C120.275 31.4109 120.283 31.6059 120.329 31.7936C120.355 31.8866 120.408 31.9698 120.481 32.0324C120.554 32.0951 120.645 32.1343 120.74 32.1449C120.961 32.1449 121.129 31.9497 121.224 31.75C121.245 31.6914 121.282 31.6395 121.33 31.5999C121.446 31.5233 121.602 31.6254 121.669 31.75C121.717 31.8801 121.782 32.0029 121.863 32.1149C121.916 32.161 121.98 32.1933 122.049 32.209C122.118 32.2247 122.189 32.2234 122.257 32.205C122.393 32.1679 122.52 32.1024 122.628 32.0128C122.929 31.8034 123.167 31.5164 123.318 31.1824C123.392 31.0156 123.426 30.8341 123.419 30.6518C123.411 30.4696 123.362 30.2916 123.275 30.1314C123.162 29.9422 122.984 29.7905 122.913 29.5818C122.79 29.2229 123.021 28.8536 123.164 28.5022C123.3 28.1809 123.345 27.8278 123.291 27.4827C123.264 27.3108 123.202 27.1462 123.11 26.9985C123.018 26.8508 122.898 26.7229 122.756 26.6223C122.185 26.2424 121.414 26.4511 120.754 26.2679C120.518 26.1903 120.288 26.0955 120.065 25.9841C119.728 25.8344 119.376 25.7216 119.015 25.6478C118.656 25.5757 118.223 25.5667 117.996 25.8535C117.934 25.9454 117.879 26.0418 117.831 26.1418C117.76 26.2606 117.666 26.364 117.555 26.446C117.444 26.528 117.317 26.5869 117.183 26.6193C116.989 26.6658 116.787 26.6538 116.582 26.6823C116.483 26.6893 116.386 26.7187 116.3 26.7683C116.213 26.818 116.139 26.8867 116.083 26.9691C115.984 27.1493 116.026 27.3685 116.05 27.5697C116.074 27.771 116.062 28.0112 115.9 28.1358C115.823 28.1944 115.718 28.2229 115.672 28.3055C115.65 28.3539 115.646 28.4081 115.658 28.4595C115.671 28.5108 115.701 28.5565 115.742 28.5893C115.827 28.6532 115.925 28.6964 116.029 28.7154C116.402 28.832 116.789 28.8982 117.18 28.9121C117.575 28.925 117.959 28.7833 118.251 28.5172C118.226 28.5427 118.061 28.5322 118.03 28.5307C118.322 28.5623 118.679 28.6914 118.788 28.9857Z" fill="#7E646B"/>
<g opacity="0.05">
<path opacity="0.05" d="M122.813 31.6479C122.704 31.7374 122.578 31.8033 122.442 31.8416C122.374 31.8593 122.303 31.8602 122.234 31.8442C122.166 31.8283 122.102 31.7959 122.049 31.75C121.967 31.6383 121.901 31.5154 121.854 31.3852C121.786 31.2635 121.63 31.1614 121.515 31.235C121.467 31.2752 121.43 31.3269 121.408 31.3852C121.315 31.5849 121.146 31.7846 120.925 31.7801C120.829 31.7699 120.739 31.7309 120.666 31.6681C120.592 31.6054 120.54 31.5219 120.515 31.4287C120.469 31.2411 120.46 31.0461 120.49 30.8551C120.524 30.4647 120.529 30.0158 120.241 29.7515C120.053 29.6147 119.839 29.519 119.612 29.4707C119.393 29.3986 119.162 29.2845 119.072 29.0713C119.012 28.9211 119.027 28.762 118.973 28.6208C118.884 28.3821 118.634 28.2515 118.389 28.1914C118.101 28.4268 117.739 28.5514 117.367 28.5428C116.977 28.5276 116.59 28.4609 116.216 28.3445C116.113 28.3253 116.015 28.2827 115.93 28.2199C115.912 28.2037 115.897 28.1856 115.883 28.1659C115.817 28.1943 115.759 28.2392 115.715 28.2965C115.694 28.3449 115.689 28.3991 115.702 28.4505C115.715 28.5018 115.744 28.5475 115.786 28.5803C115.87 28.6442 115.968 28.6874 116.072 28.7064C116.445 28.823 116.832 28.8892 117.223 28.9031C117.594 28.913 117.956 28.7888 118.244 28.5533C118.488 28.6133 118.74 28.7425 118.829 28.9812C118.883 29.1314 118.868 29.2935 118.928 29.4317C119.018 29.6449 119.247 29.759 119.468 29.8311C119.694 29.8791 119.908 29.9743 120.095 30.1104C120.385 30.3746 120.379 30.8251 120.346 31.2155C120.315 31.4064 120.323 31.6014 120.37 31.7891C120.395 31.8821 120.448 31.9653 120.521 32.0279C120.595 32.0906 120.685 32.1298 120.781 32.1404C121.002 32.1404 121.17 31.9452 121.264 31.7455C121.286 31.6869 121.322 31.635 121.371 31.5954C121.486 31.5188 121.642 31.6209 121.71 31.7455C121.757 31.8759 121.823 31.9988 121.905 32.1104C121.958 32.1565 122.022 32.1888 122.09 32.2045C122.159 32.2202 122.23 32.2189 122.298 32.2005C122.434 32.1634 122.56 32.0979 122.669 32.0083C122.969 31.7989 123.208 31.5119 123.359 31.1779C123.386 31.1137 123.407 31.0474 123.423 30.9797C123.27 31.2435 123.061 31.4713 122.813 31.6479Z" fill="black"/>
<path opacity="0.05" d="M123.113 28.7019C123.144 28.6328 123.174 28.5637 123.203 28.4962C123.231 28.4286 123.242 28.3911 123.258 28.337C123.203 28.4558 123.155 28.5777 123.113 28.7019Z" fill="black"/>
<path opacity="0.05" d="M116.096 27.7574C116.246 27.6298 116.257 27.4016 116.233 27.2049C116.215 27.0901 116.206 26.9741 116.204 26.858C116.172 26.8893 116.145 26.9246 116.122 26.9631C116.023 27.1433 116.065 27.3625 116.089 27.5637C116.097 27.628 116.099 27.6928 116.096 27.7574Z" fill="black"/>
</g>
<path opacity="0.05" d="M116.688 50.1108C116.409 50.1303 116.017 50.1513 115.546 50.1679C115.219 50.1784 114.853 50.1859 114.461 50.1859C114.119 50.1859 113.757 50.1859 113.382 50.1694C112.195 50.1387 111.013 50.0167 109.845 49.8045C108.286 49.5042 106.844 48.9862 105.944 48.1093C106.094 47.818 106.23 47.5762 106.281 47.4906C106.281 47.4065 106.281 47.3089 106.272 47.2038C107.856 47.9546 112.791 50.0402 116.574 48.8555C116.574 48.9801 116.592 49.0627 116.592 49.0627L116.677 49.1348C116.634 49.291 116.661 49.8045 116.688 50.1108Z" fill="black"/>
<path d="M116.688 49.9666C116.409 49.9862 116.017 50.0072 115.546 50.0222C115.219 50.0342 114.853 50.0402 114.461 50.0402C114.119 50.0402 113.757 50.0402 113.382 50.0237C112.196 49.9936 111.013 49.8721 109.845 49.6603C108.286 49.36 106.844 48.8405 105.944 47.9636C106.094 47.6723 106.23 47.432 106.281 47.345C106.281 47.2609 106.281 47.1648 106.272 47.0582C107.856 47.8089 112.791 49.8961 116.574 48.7174C116.574 48.842 116.592 48.9246 116.592 48.9246L116.677 48.9967C116.634 49.1468 116.661 49.6603 116.688 49.9666Z" fill="#4B4442"/>
<path d="M41.7941 115.684C41.6141 115.468 41.4805 115.216 41.4012 114.946C41.322 114.676 41.2989 114.392 41.3334 114.112L47.9568 59.8813L48.5059 55.3767C48.5675 54.8756 48.8091 54.414 49.1857 54.0781C49.5623 53.7421 50.0482 53.5547 50.5527 53.5508L69.9531 53.4217C70.2293 53.42 70.5025 53.3631 70.7565 53.2544C71.0105 53.1457 71.2402 52.9873 71.4322 52.7886C71.6243 52.5899 71.7747 52.3548 71.8748 52.0971C71.9748 51.8394 72.0224 51.5643 72.0148 51.288L72.0073 51.0823C71.9979 50.8036 72.0445 50.5259 72.1446 50.2657C72.2446 50.0055 72.3959 49.768 72.5896 49.5675C72.7832 49.367 73.0152 49.2076 73.2717 49.0987C73.5281 48.9898 73.8039 48.9336 74.0826 48.9336H94.4688C95.0184 48.9336 95.5456 49.1518 95.9347 49.5402C96.3237 49.9287 96.5429 50.4557 96.5441 51.0057C96.5439 51.0991 96.5379 51.1924 96.5261 51.285C96.4874 51.574 96.51 51.8679 96.5924 52.1476C96.6748 52.4272 96.8151 52.6864 97.0042 52.9082C97.1933 53.13 97.427 53.3095 97.69 53.435C97.953 53.5604 98.2395 53.6291 98.5308 53.6364L118.11 54.1364C118.407 54.1437 118.7 54.2151 118.968 54.3458C119.235 54.4764 119.472 54.6632 119.661 54.8934C119.85 55.1236 119.987 55.3919 120.063 55.68C120.14 55.9681 120.153 56.2692 120.102 56.5629L110.314 113.771L110.13 114.853C110.084 115.129 109.982 115.393 109.83 115.627L41.7941 115.684Z" fill="#B7B6CC"/>
<g opacity="0.5">
<path opacity="0.5" d="M100.712 37.0051L78.2939 69.4744L88.2148 76.3332L110.632 43.8638L100.712 37.0051Z" fill="url(#paint2_linear)"/>
</g>
<path d="M110.311 43.965L100.879 37.4442L78.7615 69.4787L88.1935 75.9994L110.311 43.965Z" fill="#F9FAFB"/>
<path d="M108.204 43.5846L101.559 38.962L96.9391 45.6121L103.585 50.2347L108.204 43.5846Z" fill="#F7B643"/>
<path opacity="0.5" d="M103.02 51.5857L96.3525 46.9759L91.7459 53.6482L98.4137 58.2579L103.02 51.5857Z" fill="#F7B643"/>
<path opacity="0.3" d="M97.4574 59.6413L90.7896 55.0315L86.1829 61.7037L92.8507 66.3135L97.4574 59.6413Z" fill="#F7B643"/>
<g opacity="0.5">
<path opacity="0.5" d="M87.2463 35.072L76.2251 72.8114L87.7993 76.196L98.8205 38.4566L87.2463 35.072Z" fill="url(#paint3_linear)"/>
</g>
<path d="M98.5566 38.6557L87.5527 35.4379L76.6797 72.6699L87.6835 75.8877L98.5566 38.6557Z" fill="#F9FAFB"/>
<path d="M96.7766 38.7874L88.9976 36.5126L86.7243 44.2969L94.5033 46.5717L96.7766 38.7874Z" fill="#F97878"/>
<path opacity="0.5" d="M94.0315 48.1851L86.2524 45.9103L83.9792 53.6945L91.7582 55.9693L94.0315 48.1851Z" fill="#F97878"/>
<path opacity="0.3" d="M91.2873 57.5813L83.5083 55.3065L81.235 63.0908L89.0141 65.3656L91.2873 57.5813Z" fill="#F97878"/>
<g opacity="0.5">
<path opacity="0.5" d="M79.3972 35.728L76.2461 74.9191L88.2656 75.8868L91.4167 36.6957L79.3972 35.728Z" fill="url(#paint4_linear)"/>
</g>
<path d="M91.1855 36.945L79.7583 36.025L76.6495 74.6892L88.0767 75.6092L91.1855 36.945Z" fill="#F9FAFB"/>
<path d="M89.4626 37.4358L81.3843 36.7854L80.7343 44.869L88.8126 45.5194L89.4626 37.4358Z" fill="#73B53B"/>
<path opacity="0.5" d="M88.6774 47.1929L80.5991 46.5425L79.9492 54.6262L88.0274 55.2766L88.6774 47.1929Z" fill="#73B53B"/>
<path opacity="0.3" d="M87.8932 56.9533L79.8149 56.3029L79.165 64.3865L87.2432 65.0369L87.8932 56.9533Z" fill="#73B53B"/>
<g opacity="0.5">
<path opacity="0.5" d="M86.2557 36.7841L74.21 37.3336L75.9992 76.6106L88.045 76.0611L86.2557 36.7841Z" fill="url(#paint5_linear)"/>
</g>
<path d="M86.0694 37.0572L74.6172 37.5796L76.3824 76.3285L87.8345 75.8061L86.0694 37.0572Z" fill="white"/>
<path d="M84.4207 37.7581L76.3247 38.1274L76.6938 46.2288L84.7897 45.8595L84.4207 37.7581Z" fill="#005FD5"/>
<path opacity="0.5" d="M85.1918 47.1923L77.0874 47.5977L77.4926 55.7075L85.597 55.3021L85.1918 47.1923Z" fill="#005FD5"/>
<path opacity="0.3" d="M85.3113 57.3194L77.2153 57.6887L77.5844 65.7901L85.6804 65.4208L85.3113 57.3194Z" fill="#005FD5"/>
<path d="M79.4802 88.6973L69.2946 92.6404L54.4078 98.3988C53.8451 97.3477 53.0168 95.9272 51.9919 94.232C48.4657 88.385 42.6316 79.2902 37.4367 71.2975C31.5847 62.2883 26.5474 54.686 26.5474 54.686L30.1937 53.6349L59.9793 44.9816L79.4802 88.6973Z" fill="#E6ECF8"/>
<path opacity="0.1" d="M79.4803 88.6973L69.2947 92.6404C63.6047 93.8266 57.7983 94.3606 51.9876 94.232C48.4613 88.385 42.6272 79.2902 37.4324 71.2975L30.1953 53.6289L59.9794 44.9816L79.4803 88.6973Z" fill="black"/>
<path d="M87.0581 86.2438C87.0581 86.2438 71.2349 95.6104 47.6105 93.4917L28.7773 47.5447L37.8031 45.9921L69.0051 40.6301L86.7114 85.3504L87.0581 86.2438Z" fill="#005FD5"/>
<path opacity="0.1" d="M86.7051 85.3564C82.9793 85.5396 78.6683 85.5216 74.3317 85.0035C69.6381 84.451 64.9174 83.3128 60.8704 81.2257C57.4867 79.4824 54.5937 77.5859 52.0713 75.3111C45.5095 69.4056 41.449 60.9579 37.8027 45.9981L69.0048 40.6361L86.7051 85.3564Z" fill="black"/>
<path d="M98.3138 82.7873C98.3138 82.7873 86.6502 85.0726 74.7779 83.6657C70.0843 83.1131 65.3636 81.9749 61.3167 79.8878C57.933 78.1445 55.0414 76.2481 52.5175 73.9732C44.3966 66.6622 40.1081 55.4578 35.686 32.8311C35.686 32.8311 55.0759 37.5144 74.2498 27.2559C74.2437 27.2634 80.7065 67.6217 98.3138 82.7873Z" fill="#F9FAFB"/>
<path opacity="0.1" d="M74.7775 83.6656C70.0839 83.1131 65.3632 81.9749 61.3162 79.8878C57.9325 78.1445 55.041 76.2481 52.5171 73.9732C59.4316 73.4116 60.4249 69.6293 60.4249 69.6293C65.5507 77.7691 74.7775 83.6656 74.7775 83.6656Z" fill="black"/>
<path opacity="0.3" d="M45.7153 41.1376C45.7153 41.1376 61.4829 40.2457 65.8855 36.8447L66.5532 38.9919C66.5532 38.9919 56.135 43.5911 45.7153 43.6467V41.1376Z" fill="#005FD5"/>
<path opacity="0.3" d="M45.7153 51.7385C45.7153 51.7385 60.9818 50.9021 72.5164 45.3269L72.9065 46.2188C72.9065 46.2188 63.7532 51.5658 45.7153 52.9652V51.7385Z" fill="#005FD5"/>
<path opacity="0.3" d="M46.9443 55.8692C46.9443 55.8692 62.2108 55.0329 73.7439 49.4576L74.134 50.3496C74.134 50.3496 64.9808 55.695 46.9443 57.096V55.8692Z" fill="#005FD5"/>
<path opacity="0.3" d="M48.1719 60.0059C48.1719 60.0059 63.4383 59.1696 74.9729 53.5944L75.3615 54.4863C75.3615 54.4863 66.2083 59.8332 48.1719 61.2327V60.0059Z" fill="#005FD5"/>
<path opacity="0.3" d="M49.4004 64.1427C49.4004 64.1427 64.6668 63.3063 76.1999 57.7311L76.5901 58.623C76.5901 58.623 67.4368 63.97 49.4004 65.3694V64.1427Z" fill="#005FD5"/>
<path opacity="0.3" d="M50.6279 68.2809C50.6279 68.2809 65.8944 67.4445 77.429 61.8693L77.8176 62.7612C77.8176 62.7612 68.6643 68.1067 50.6279 69.5076V68.2809Z" fill="#005FD5"/>
<path d="M157.972 119.644C157.972 119.644 151.627 119.261 152.375 123.71C152.375 123.71 152.225 124.495 152.939 124.853C152.939 124.853 152.949 124.522 153.589 124.635C153.817 124.673 154.048 124.685 154.279 124.668C154.59 124.647 154.886 124.525 155.121 124.32C155.121 124.32 156.905 123.583 157.598 120.667C157.598 120.667 158.111 120.03 158.09 119.866L157.02 120.317C157.02 120.317 157.386 121.09 157.098 121.731C157.098 121.731 157.064 120.345 156.858 120.38C156.816 120.38 156.302 120.647 156.302 120.647C156.302 120.647 156.93 121.998 156.452 122.971C156.452 122.971 156.632 121.312 156.101 120.745L155.35 121.185C155.35 121.185 156.086 122.575 155.587 123.71C155.587 123.71 155.715 121.97 155.191 121.291L154.508 121.824C154.508 121.824 155.2 123.195 154.779 124.137C154.779 124.137 154.723 122.11 154.36 121.956C154.36 121.956 153.76 122.483 153.673 122.707C153.673 122.707 154.145 123.701 153.851 124.227C153.851 124.227 153.671 122.875 153.524 122.875C153.524 122.875 152.924 123.776 152.867 124.377C152.867 124.377 152.892 123.464 153.38 122.784C153.036 122.849 152.719 123.014 152.468 123.257C152.468 123.257 152.561 122.623 153.527 122.569C153.527 122.569 154.019 121.89 154.15 121.848C154.15 121.848 153.189 121.769 152.607 122.027C152.607 122.027 153.12 121.426 154.327 121.701L155.001 121.152C155.001 121.152 153.736 120.977 153.2 121.17C153.2 121.17 153.817 120.641 155.182 121.019L155.916 120.581C155.916 120.581 154.839 120.348 154.196 120.431C154.196 120.431 154.873 120.064 156.132 120.461L156.656 120.225C156.656 120.225 155.866 120.075 155.635 120.045C155.404 120.015 155.391 119.958 155.391 119.958C155.891 119.873 156.405 119.931 156.875 120.123C156.875 120.123 157.99 119.715 157.972 119.644Z" fill="#005FD5"/>
<path opacity="0.1" d="M153.602 126C156.081 126 158.092 125.66 158.092 125.24C158.092 124.821 156.081 124.48 153.602 124.48C151.122 124.48 149.112 124.821 149.112 125.24C149.112 125.66 151.122 126 153.602 126Z" fill="#005FD5"/>
<path opacity="0.1" d="M122.106 123.791C130.559 123.791 137.411 123.17 137.411 122.404C137.411 121.638 130.559 121.016 122.106 121.016C113.653 121.016 106.8 121.638 106.8 122.404C106.8 123.17 113.653 123.791 122.106 123.791Z" fill="#005FD5"/>
<path d="M160.926 104.957C160.926 104.957 157.351 104.741 157.775 107.25C157.753 107.377 157.772 107.508 157.829 107.624C157.886 107.74 157.978 107.834 158.092 107.894C158.092 107.894 158.099 107.708 158.46 107.771C158.588 107.793 158.718 107.799 158.848 107.789C159.023 107.778 159.19 107.709 159.322 107.594C159.322 107.594 160.328 107.178 160.719 105.534C160.719 105.534 161.009 105.175 160.997 105.084L160.397 105.34C160.397 105.34 160.602 105.777 160.44 106.139C160.44 106.139 160.421 105.357 160.305 105.375C160.281 105.375 159.992 105.525 159.992 105.525C159.992 105.525 160.346 106.276 160.079 106.836C160.079 106.836 160.181 105.9 159.88 105.579L159.456 105.828C159.456 105.828 159.87 106.612 159.589 107.252C159.589 107.252 159.661 106.27 159.366 105.888L158.982 106.189C158.982 106.189 159.37 106.962 159.132 107.492C159.132 107.492 159.1 106.349 158.896 106.264C158.75 106.387 158.62 106.528 158.508 106.683C158.508 106.683 158.775 107.244 158.61 107.54C158.61 107.54 158.508 106.779 158.425 106.776C158.425 106.776 158.089 107.279 158.054 107.624C158.071 107.304 158.171 106.993 158.344 106.723C158.15 106.76 157.971 106.853 157.829 106.991C157.829 106.991 157.882 106.633 158.429 106.603C158.429 106.603 158.707 106.22 158.781 106.196C158.781 106.196 158.239 106.151 157.91 106.297C157.91 106.297 158.2 105.96 158.88 106.114L159.261 105.803C159.261 105.803 158.547 105.705 158.245 105.813C158.245 105.813 158.593 105.513 159.363 105.732L159.777 105.485C159.458 105.415 159.132 105.387 158.806 105.402C158.806 105.402 159.189 105.195 159.897 105.418L160.197 105.286C160.197 105.286 159.747 105.198 159.621 105.184C159.495 105.171 159.483 105.135 159.483 105.135C159.765 105.088 160.055 105.12 160.32 105.228C160.32 105.228 160.938 104.997 160.926 104.957Z" fill="#005FD5"/>
<path opacity="0.1" d="M158.466 108.54C159.864 108.54 160.997 108.349 160.997 108.112C160.997 107.876 159.864 107.684 158.466 107.684C157.067 107.684 155.934 107.876 155.934 108.112C155.934 108.349 157.067 108.54 158.466 108.54Z" fill="#005FD5"/>
<path d="M139.817 107.135C139.817 107.135 135.498 106.873 136.008 109.902C135.982 110.055 136.004 110.213 136.073 110.353C136.142 110.493 136.253 110.607 136.391 110.68C136.391 110.68 136.391 110.455 136.841 110.53C136.996 110.556 137.154 110.563 137.311 110.552C137.523 110.538 137.724 110.455 137.884 110.315C137.884 110.315 139.098 109.813 139.57 107.828C139.57 107.828 139.92 107.396 139.905 107.283L139.168 107.596C139.168 107.596 139.417 108.121 139.221 108.558C139.221 108.558 139.197 107.615 139.057 107.636C139.029 107.636 138.679 107.819 138.679 107.819C138.679 107.819 139.107 108.735 138.784 109.402C138.784 109.402 138.907 108.273 138.546 107.885L138.032 108.186C138.032 108.186 138.532 109.133 138.193 109.905C138.193 109.905 138.28 108.72 137.924 108.253L137.459 108.617C137.459 108.617 137.93 109.549 137.642 110.19C137.642 110.19 137.606 108.81 137.359 108.707C137.359 108.707 136.952 109.066 136.891 109.213C136.891 109.213 137.212 109.89 137.012 110.247C137.012 110.247 136.889 109.328 136.788 109.324C136.788 109.324 136.385 109.934 136.338 110.349C136.359 109.964 136.479 109.59 136.688 109.265C136.454 109.31 136.239 109.422 136.068 109.588C136.068 109.588 136.131 109.157 136.788 109.12C136.788 109.12 137.123 108.657 137.213 108.63C137.213 108.63 136.559 108.575 136.163 108.75C136.163 108.75 136.511 108.345 137.332 108.53L137.791 108.154C137.791 108.154 136.931 108.037 136.565 108.166C136.565 108.166 136.985 107.807 137.915 108.07L138.415 107.77C138.415 107.77 137.681 107.612 137.243 107.669C137.243 107.669 137.705 107.42 138.561 107.69L138.918 107.53C138.918 107.53 138.381 107.424 138.223 107.408C138.065 107.391 138.058 107.348 138.058 107.348C138.398 107.29 138.748 107.329 139.068 107.459C139.068 107.459 139.83 107.181 139.817 107.135Z" fill="#005FD5"/>
<path opacity="0.1" d="M136.843 111.461C138.531 111.461 139.899 111.229 139.899 110.944C139.899 110.659 138.531 110.428 136.843 110.428C135.155 110.428 133.786 110.659 133.786 110.944C133.786 111.229 135.155 111.461 136.843 111.461Z" fill="#005FD5"/>
<path opacity="0.1" d="M8.20054 123.736C10.6801 123.736 12.6901 123.396 12.6901 122.976C12.6901 122.556 10.6801 122.216 8.20054 122.216C5.721 122.216 3.71094 122.556 3.71094 122.976C3.71094 123.396 5.721 123.736 8.20054 123.736Z" fill="#005FD5"/>
<path d="M5.18604 119.446C5.18604 119.446 7.74595 119.368 8.51872 118.818C9.2915 118.269 12.4576 117.617 12.6497 118.492C12.8418 119.368 16.4986 122.88 13.607 122.904C10.7155 122.928 6.88914 122.453 6.11787 121.983C5.34659 121.513 5.18604 119.446 5.18604 119.446Z" fill="#A8A8A8"/>
<path opacity="0.2" d="M13.6581 122.596C10.7666 122.62 6.94023 122.146 6.16896 121.676C5.58375 121.318 5.34966 120.034 5.26864 119.443H5.18311C5.18311 119.443 5.34516 121.51 6.11494 121.98C6.88471 122.45 10.7231 122.926 13.6071 122.911C14.4414 122.904 14.7295 122.611 14.7145 122.161C14.5975 122.425 14.2793 122.592 13.6581 122.596Z" fill="black"/>
<path d="M126.417 -7.9205e-05L118.499 24.371L162.082 38.5501L170 14.179L126.417 -7.9205e-05Z" fill="url(#paint6_linear)"/>
<path d="M126.663 0.266361L118.854 24.3019L161.836 38.2851L169.645 14.2496L126.663 0.266361Z" fill="#F6F7F9"/>
<g opacity="0.2">
<path opacity="0.2" d="M131.288 18.2782C133.887 18.2782 135.993 16.17 135.993 13.5694C135.993 10.9688 133.887 8.86057 131.288 8.86057C128.689 8.86057 126.582 10.9688 126.582 13.5694C126.582 16.17 128.689 18.2782 131.288 18.2782Z" fill="#005FD5"/>
</g>
<g opacity="0.2">
<path opacity="0.2" d="M142.945 11.4951L142.546 12.7217L162.044 19.0647L162.442 17.8381L142.945 11.4951Z" fill="#005FD5"/>
</g>
<g opacity="0.2">
<path opacity="0.2" d="M141.929 14.6224L141.53 15.849L151.462 19.0802L151.861 17.8536L141.929 14.6224Z" fill="#005FD5"/>
</g>
<g opacity="0.2">
<path opacity="0.2" d="M140.911 17.7517L140.512 18.9784L156.576 24.2044L156.975 22.9778L140.911 17.7517Z" fill="#005FD5"/>
</g>
<g opacity="0.2">
<path opacity="0.2" d="M139.895 20.8799L139.497 22.1065L158.994 28.4496L159.392 27.2229L139.895 20.8799Z" fill="#005FD5"/>
</g>
<g opacity="0.5">
<path opacity="0.5" d="M152.53 29.9844L151.759 32.3563L157.155 34.1116L157.925 31.7398L152.53 29.9844Z" fill="#005FD5"/>
</g>
<path d="M140.296 72.5183C140.293 72.468 140.288 72.4178 140.281 72.3681C140.281 72.3155 140.264 72.263 140.255 72.2179C140.236 72.1158 140.215 72.0152 140.191 71.9176C140.179 71.8711 140.167 71.823 140.153 71.778C140.011 71.2454 139.755 70.75 139.403 70.326C139.383 70.302 139.362 70.2795 139.343 70.2569C139.323 70.2344 139.262 70.1699 139.221 70.1293C139.181 70.0888 139.143 70.0527 139.104 70.0182C139.065 69.9837 139.029 69.9521 138.993 69.9221C138.921 69.8635 138.854 69.814 138.795 69.7719C138.737 69.7299 138.709 69.7149 138.673 69.6939C138.588 69.6425 138.491 69.6112 138.391 69.6023L137.769 69.5407L136.918 69.4566L133.876 68.2749L133.756 68.317C133.667 68.0712 133.592 67.8205 133.531 67.5662C133.623 67.5263 133.705 67.4663 133.771 67.3905C133.843 67.3347 133.9 67.262 133.936 67.1788C134.013 67.0016 133.866 66.6247 133.896 66.4085C133.944 66.0616 134.124 65.7268 134.271 65.413C134.583 64.7388 134.811 64.0075 134.774 63.2673C134.736 62.527 134.398 61.7763 133.774 61.3633C133.452 61.1486 133.072 61.0345 132.736 60.8393C132.475 60.6891 132.245 60.4879 131.996 60.3168C131.384 59.9081 130.675 59.6655 129.941 59.6129C129.207 59.5603 128.471 59.6993 127.807 60.0165C127.175 60.3273 126.636 60.7927 126.04 61.1666C125.445 61.5405 124.743 61.8273 124.045 61.7162C124.035 61.7445 124.028 61.7737 124.024 61.8033L123.965 61.7958C123.845 62.1231 124.139 62.4474 124.415 62.6712C124.93 63.0961 125.514 63.5195 126.185 63.5346C126.444 63.5346 126.719 63.485 126.954 63.5916C127.008 63.6153 127.058 63.6456 127.104 63.6817C126.955 64.2804 126.974 64.9088 127.159 65.4974C127.345 66.086 127.689 66.6118 128.155 67.0166L126.602 66.458C126.602 66.458 126.537 66.4911 126.437 66.5541L124.282 65.1187C124.282 65.1187 119.962 63.5511 118.761 65.9926C117.561 68.4341 123.964 67.1743 123.964 67.1743L125.334 67.925C125.288 68.2084 125.341 68.4991 125.484 68.7479L129.219 71.0573C128.468 71.29 127.224 71.6579 127.004 71.6579C126.684 71.6579 125.803 71.9732 125.244 73.233C124.684 74.4928 122.682 80.6386 120.922 81.6626C119.162 82.6867 114.521 89.5412 114.521 89.5412L114.542 89.5952C114.459 89.6178 114.378 89.6403 114.299 89.6673C113.324 90.0059 112.481 90.6425 111.887 91.4872C111.809 91.5965 111.76 91.7246 111.746 91.8586C111.733 91.9926 111.754 92.1279 111.809 92.2511C111.863 92.3742 111.949 92.4809 112.058 92.5605C112.166 92.6401 112.294 92.6899 112.428 92.7049C114.26 92.9377 115.261 92.0923 115.742 91.4541C115.774 91.4136 115.802 91.3731 115.829 91.3325C115.972 91.3938 116.132 91.4013 116.28 91.3535L118.52 89.5412C118.52 89.5412 116.767 91.268 117.795 92.8446L117.717 92.9542C115.985 95.4294 114.714 98.1977 113.966 101.126C113.966 101.126 113.005 101.834 112.926 104.671C112.846 107.507 111.884 112.076 111.884 112.076C111.884 112.076 111.245 117.513 111.644 119.167C111.644 119.167 111.691 119.233 111.776 119.333C111.746 119.369 111.713 119.408 111.677 119.447C111.328 119.826 110.698 120.348 109.964 120.198C108.844 119.961 108.844 121.931 110.444 122.089C111.475 122.189 113.501 122.65 114.814 122.965C114.957 123.002 115.106 123.003 115.25 122.969C115.393 122.935 115.527 122.867 115.638 122.771C115.75 122.674 115.837 122.553 115.892 122.416C115.947 122.279 115.968 122.13 115.954 121.983C115.876 121.278 115.733 120.423 115.474 119.815C115.457 119.778 115.441 119.74 115.424 119.706C115.471 119.661 115.519 119.615 115.565 119.567C115.565 119.567 115.565 116.1 116.126 115.156C116.126 115.156 117.647 107.986 117.565 106.174C117.504 104.756 121.51 99.2351 123.254 96.9032L123.239 96.8146C123.689 96.214 123.968 95.8536 123.968 95.8536L125.317 104.442C125.317 104.442 125.958 106.333 126.758 107.357C126.758 107.357 130.198 113.896 130.599 115.944C130.899 117.498 131.526 118.416 131.812 118.77L131.708 118.869C131.343 119.204 130.808 119.539 130.198 119.411C129.079 119.174 129.079 121.144 130.679 121.302C131.71 121.404 133.735 121.865 135.047 122.18C135.19 122.216 135.34 122.217 135.483 122.183C135.627 122.149 135.761 122.081 135.873 121.985C135.985 121.888 136.072 121.766 136.127 121.629C136.182 121.492 136.203 121.344 136.189 121.197C136.097 120.377 135.919 119.357 135.573 118.755C135.545 118.703 135.515 118.653 135.482 118.605C135.604 118.556 135.713 118.48 135.8 118.381C135.8 118.381 133.719 113.417 133.719 112.075C133.719 112.075 132.839 106.955 129.879 105.064C129.879 105.064 130.158 98.6585 131.001 95.0939C131.022 95.0068 131.043 94.9197 131.064 94.8356C131.85 94.7127 132.629 94.5503 133.399 94.3491L133.479 91.9857L133.879 93.8761L138.36 91.1193C138.36 91.1193 138.321 90.6223 138.246 89.861C138.207 89.4796 138.16 89.0322 138.105 88.5472C138.06 88.1598 138.009 87.7484 137.955 87.3279C137.94 87.2228 137.926 87.1162 137.911 87.0111C137.853 86.5862 137.788 86.1567 137.719 85.7363C137.692 85.5781 137.665 85.422 137.638 85.2678C137.601 85.0621 137.563 84.8609 137.524 84.6672C137.505 84.5696 137.484 84.472 137.464 84.3774C137.445 84.2828 137.422 84.1882 137.401 84.0966C137.38 84.005 137.359 83.9164 137.338 83.8278C137.326 83.7843 137.316 83.7407 137.305 83.6987C137.282 83.6131 137.26 83.529 137.237 83.4479C137.144 83.1111 137.089 82.7644 137.075 82.4149C137.075 82.2767 137.075 82.1371 137.075 81.999C137.075 81.8608 137.096 81.7227 137.116 81.5845C137.125 81.517 137.137 81.4479 137.15 81.3803C137.201 81.1057 137.277 80.8363 137.377 80.5755C137.427 80.4449 137.484 80.3157 137.545 80.1881C137.695 79.8878 137.845 79.568 138.004 79.2271C138.085 79.0574 138.166 78.8833 138.247 78.7061C138.328 78.5289 138.411 78.3487 138.493 78.1655C139.272 76.4283 140.04 74.4928 140.246 73.221C140.267 73.0873 140.284 72.9612 140.291 72.8426C140.3 72.7347 140.301 72.6263 140.296 72.5183Z" fill="url(#paint7_linear)"/>
<path d="M126.93 67.8049L124.291 66.0196C124.291 66.0196 120.1 64.4655 118.935 66.874C117.771 69.2824 123.98 68.0392 123.98 68.0392L126.62 69.5137L126.93 67.8049Z" fill="#AE6E79"/>
<path d="M111.946 61.3678L98.2944 82.618L131.353 103.884L145.005 82.6342L111.946 61.3678Z" fill="#F9FAFB"/>
<path d="M107.023 75.1031L103.193 81.1357L104.611 82.0376L108.442 76.0049L107.023 75.1031Z" fill="#B7B6CC"/>
<path d="M116.139 69.1087L107.727 82.3578L109.028 83.1848L117.44 69.9357L116.139 69.1087Z" fill="#B7B6CC"/>
<path d="M118.918 70.8738L110.505 84.1228L111.806 84.9498L120.218 71.7007L118.918 70.8738Z" fill="#B7B6CC"/>
<path d="M121.695 72.6416L113.283 85.8906L114.584 86.7176L122.996 73.4685L121.695 72.6416Z" fill="#B7B6CC"/>
<path d="M124.629 75.2664L116.158 88.452L117.453 89.2847L125.923 76.0992L124.629 75.2664Z" fill="#B7B6CC"/>
<path d="M127.252 76.1737L118.84 89.4227L120.141 90.2497L128.553 77.0006L127.252 76.1737Z" fill="white"/>
<path d="M130.031 77.9387L121.619 91.1877L122.919 92.0147L131.332 78.7656L130.031 77.9387Z" fill="white"/>
<path d="M135.462 80.2307L133.284 83.6615L136.712 85.8412L138.89 82.4105L135.462 80.2307Z" fill="#B7B6CC"/>
<path d="M134.738 122.257C133.464 121.946 131.5 121.492 130.5 121.392C128.947 121.242 128.947 119.29 130.035 119.527C130.623 119.654 131.145 119.323 131.498 118.994C131.605 118.891 131.705 118.781 131.798 118.665C131.926 118.509 132.104 118.4 132.301 118.357C132.883 118.231 134.101 118.039 134.838 118.44C135.011 118.547 135.15 118.7 135.24 118.881C135.575 119.482 135.749 120.48 135.841 121.284C135.856 121.427 135.837 121.572 135.785 121.706C135.733 121.841 135.649 121.961 135.541 122.056C135.433 122.151 135.303 122.219 135.164 122.254C135.024 122.289 134.878 122.29 134.738 122.257Z" fill="#BEBED0"/>
<path d="M115.1 123.033C113.827 122.722 111.863 122.269 110.864 122.168C109.311 122.018 109.311 120.066 110.397 120.305C111.108 120.455 111.721 119.943 112.058 119.57C112.1 119.525 112.138 119.482 112.169 119.441C112.298 119.288 112.475 119.183 112.67 119.141C113.253 119.013 114.471 118.821 115.209 119.224C115.428 119.341 115.602 119.599 115.742 119.934C115.993 120.534 116.131 121.375 116.207 122.07C116.221 122.213 116.2 122.358 116.147 122.491C116.094 122.624 116.01 122.743 115.901 122.837C115.793 122.932 115.664 122.998 115.524 123.032C115.385 123.067 115.239 123.067 115.1 123.033Z" fill="#BEBED0"/>
<path opacity="0.1" d="M115.742 119.928C113.889 121.839 112.3 119.892 112.058 119.57C112.1 119.525 112.138 119.482 112.169 119.441C112.298 119.288 112.475 119.183 112.67 119.141C113.253 119.013 114.471 118.821 115.209 119.224C115.428 119.335 115.61 119.593 115.742 119.928Z" fill="black"/>
<path opacity="0.1" d="M135.248 118.881C134.445 119.429 131.743 119.294 131.743 119.294C131.654 119.2 131.572 119.1 131.498 118.994C131.605 118.891 131.705 118.781 131.798 118.665C131.926 118.509 132.104 118.4 132.301 118.357C132.883 118.231 134.101 118.039 134.838 118.44C135.013 118.546 135.155 118.699 135.248 118.881Z" fill="black"/>
<path d="M135.39 118.518C134.845 119.218 131.742 119.061 131.742 119.061C131.742 119.061 130.81 118.129 130.422 116.111C130.033 114.093 126.696 107.645 126.696 107.645C125.92 106.635 125.299 104.771 125.299 104.771L123.98 96.3056C123.98 96.3056 117.616 104.693 117.694 106.48C117.772 108.267 116.296 115.339 116.296 115.339C115.753 116.272 115.753 119.694 115.753 119.694C113.736 121.796 112.028 119.305 112.028 119.305C111.64 117.674 112.261 112.315 112.261 112.315C112.261 112.315 113.193 107.81 113.269 105.015C113.346 102.219 114.279 101.52 114.279 101.52C115.004 98.6386 116.238 95.9098 117.924 93.4632C118.392 92.792 118.703 92.4331 118.703 92.4331L131.276 93.9091C131.035 94.443 130.853 95.002 130.735 95.5759C129.918 99.0894 129.646 105.403 129.646 105.403C132.518 107.267 133.372 112.31 133.372 112.31C133.372 113.624 135.39 118.518 135.39 118.518Z" fill="#5C5C8E"/>
<g opacity="0.05">
<path opacity="0.05" d="M123.288 97.3401L123.126 96.3056C123.126 96.3056 116.763 104.693 116.841 106.48C116.919 108.267 115.444 115.339 115.444 115.339C114.899 116.271 114.899 119.693 114.899 119.693C114.574 120.06 114.154 120.33 113.685 120.473C114.296 120.633 115.036 120.515 115.831 119.693C115.831 119.693 115.831 116.276 116.374 115.339C116.374 115.339 117.849 108.271 117.771 106.48C117.711 105.082 121.596 99.6375 123.288 97.3401Z" fill="black"/>
<path opacity="0.05" d="M133.449 112.304C133.449 112.304 132.595 107.256 129.724 105.397C129.724 105.397 129.996 99.0834 130.812 95.5698C130.93 94.9959 131.112 94.4369 131.354 93.9031L118.781 92.4301C118.781 92.4301 118.751 92.4631 118.697 92.5292L130.422 93.9061C130.181 94.44 130 94.999 129.882 95.5728C129.064 99.0864 128.792 105.4 128.792 105.4C131.664 107.264 132.518 112.307 132.518 112.307C132.518 113.627 134.536 118.521 134.536 118.521C134.215 118.932 133.006 119.048 132.065 119.073C132.815 119.093 135.017 119.1 135.467 118.521C135.467 118.518 133.449 113.624 133.449 112.304Z" fill="black"/>
</g>
<path d="M116.374 91.3355C116.28 91.5649 116.156 91.7809 116.006 91.9782C115.54 92.6073 114.569 93.4392 112.792 93.2109C112.661 93.1942 112.537 93.1437 112.431 93.0645C112.326 92.9854 112.242 92.8802 112.19 92.7592C112.137 92.6382 112.116 92.5056 112.13 92.3742C112.143 92.2429 112.19 92.1173 112.267 92.0097C112.837 91.1773 113.656 90.5466 114.606 90.2079C114.928 90.1017 115.261 90.0341 115.598 90.0067L116.374 91.3355Z" fill="#AE6E79"/>
<path d="M132.766 69.6143L126.542 67.3364C126.542 67.3364 124.756 68.2689 125.455 69.5887L131.516 73.3951L132.766 69.6143Z" fill="#42383C"/>
<path opacity="0.1" d="M132.79 69.6398L126.564 67.362C126.564 67.362 124.779 68.2929 125.478 69.6143L131.531 73.4192L132.79 69.6398Z" fill="black"/>
<path d="M132.983 65.8604C132.983 65.8604 132.905 69.5107 134.536 70.7539C136.167 71.9972 129.801 72.6954 129.801 72.6954C129.801 72.6954 130.81 68.9671 129.801 67.0256C128.791 65.0841 132.983 65.8604 132.983 65.8604Z" fill="#AE6E79"/>
<path opacity="0.1" d="M131.276 93.8986C131.034 94.4325 130.853 94.9915 130.735 95.5653C123.233 96.7125 118.003 93.5878 118.003 93.5878C117.975 93.5427 117.948 93.4977 117.924 93.4527C118.392 92.7815 118.703 92.4226 118.703 92.4226L131.276 93.8986Z" fill="black"/>
<path opacity="0.1" d="M116.374 91.3355C116.28 91.5649 116.157 91.7809 116.006 91.9782C115.288 91.8581 114.713 90.4766 114.606 90.2154C114.928 90.1092 115.261 90.0417 115.598 90.0142L116.374 91.3355Z" fill="black"/>
<path d="M133.604 69.1233L130.81 70.1323L129.646 71.6864C129.646 71.6864 127.245 72.4627 126.93 72.4627C126.615 72.4627 125.766 72.7735 125.222 74.0153C124.679 75.257 122.739 81.3188 121.031 82.3263C119.324 83.3338 114.822 90.0922 114.822 90.0922C114.822 90.0922 115.598 92.1944 116.53 91.8791L118.703 90.0922C118.703 90.0922 116.995 91.801 118.003 93.3551C118.003 93.3551 124.369 97.16 133.139 94.8296L133.216 92.5007L133.604 94.3641L137.956 91.6463C137.956 91.6463 137.567 86.6327 136.867 84.0816C136.576 83.0088 136.683 81.8672 137.167 80.8668C138.294 78.5169 140.033 74.5919 139.821 73.1609C139.571 71.4747 138.621 70.7419 138.255 70.5212C138.172 70.4706 138.078 70.4393 137.982 70.4296L136.56 70.2885L133.604 69.1233Z" fill="#42383C"/>
<path opacity="0.05" d="M128.831 76.9283C128.831 76.9283 127.278 84.1506 125.571 85.3158C123.863 86.481 119.285 90.2093 119.129 90.831" fill="black"/>
<path d="M128.132 76.6955C128.132 76.6955 126.581 83.9179 124.873 85.0831C123.165 86.2483 118.586 89.9766 118.431 90.5967" fill="#42383C"/>
<path opacity="0.1" d="M129.607 71.6473C129.607 71.6473 134.962 69.8605 136.509 70.326L129.607 71.6473Z" fill="black"/>
<g opacity="0.05">
<path opacity="0.05" d="M137.159 80.8683C138.286 78.5184 140.025 74.5934 139.814 73.1624C139.563 71.4762 138.613 70.7434 138.247 70.5227C138.164 70.4721 138.071 70.4407 137.974 70.4311L137.374 70.371C137.438 70.3856 137.498 70.4104 137.554 70.4446C137.917 70.6668 138.87 71.3981 139.119 73.0858C139.331 74.5153 137.592 78.4418 136.466 80.7917C135.982 81.7916 135.876 82.9327 136.166 84.005C136.868 86.5576 137.257 91.5697 137.257 91.5697L133.515 93.9106L133.609 94.3611L137.961 91.6433C137.961 91.6433 137.572 86.6297 136.871 84.0786C136.578 83.0086 136.681 81.8689 137.159 80.8683Z" fill="black"/>
<path opacity="0.05" d="M135.856 70.2104L136.528 70.278L133.605 69.1233L133.342 69.2179L135.856 70.2104Z" fill="black"/>
</g>
<path opacity="0.05" d="M128.132 84.2287C128.132 84.2287 130.533 82.9089 131.314 83.2197C132.096 83.5305 134.962 83.1416 134.962 83.1416" fill="black"/>
<path opacity="0.05" d="M132.716 66.8319C132.628 66.0526 132.988 66.1713 132.988 66.1713C132.988 66.1713 128.797 65.395 129.805 67.3364C130.059 67.8714 130.204 68.4519 130.231 69.0437H130.272C131.436 69.0452 132.116 67.7419 132.716 66.8319Z" fill="black"/>
<path d="M130.267 68.7344C132.11 68.7344 133.605 67.2393 133.605 65.395C133.605 63.5506 132.11 62.0555 130.267 62.0555C128.424 62.0555 126.93 63.5506 126.93 65.395C126.93 67.2393 128.424 68.7344 130.267 68.7344Z" fill="#AE6E79"/>
<path opacity="0.1" d="M133.917 66.383C134.217 65.7178 134.44 64.997 134.404 64.2673C134.368 63.5375 134.041 62.7973 133.435 62.3889C133.123 62.1787 132.754 62.066 132.428 61.8738C132.175 61.7237 131.951 61.527 131.709 61.3588C131.118 60.9557 130.431 60.7156 129.718 60.6629C129.005 60.6102 128.29 60.7466 127.646 61.0585C127.034 61.3588 126.512 61.8258 125.934 62.1937C125.356 62.5615 124.675 62.8438 123.998 62.7357C123.881 63.0586 124.168 63.3769 124.43 63.5991C124.93 64.018 125.496 64.4355 126.147 64.449C126.399 64.449 126.665 64.4009 126.897 64.506C127.051 64.5912 127.182 64.7129 127.278 64.8604C127.592 65.2774 127.857 65.7282 128.071 66.2043C128.136 66.409 128.259 66.5905 128.425 66.7268C128.725 66.919 129.113 66.7584 129.475 66.7448C130.027 66.7223 130.525 67.0707 130.934 67.4431C131.342 67.8154 131.732 68.2419 132.248 68.4386C132.634 68.5887 133.405 68.5797 133.599 68.1187C133.672 67.9446 133.53 67.5722 133.56 67.359C133.632 67.0183 133.752 66.6897 133.917 66.383Z" fill="black"/>
<path d="M133.986 66.3034C134.286 65.6382 134.511 64.9174 134.473 64.1892C134.436 63.461 134.112 62.7177 133.505 62.3108C133.192 62.0991 132.823 61.9864 132.499 61.7943C132.245 61.6441 132.021 61.4489 131.78 61.2792C131.189 60.8761 130.502 60.636 129.788 60.5833C129.075 60.5306 128.36 60.667 127.716 60.9789C127.104 61.2792 126.582 61.7447 126.004 62.1126C125.427 62.4805 124.745 62.7642 124.069 62.6546C123.951 62.979 124.237 63.2973 124.501 63.518C125 63.9369 125.566 64.3544 126.217 64.3694C126.469 64.3694 126.735 64.3198 126.968 64.4264C127.122 64.5107 127.253 64.6326 127.349 64.7808C127.662 65.197 127.927 65.6473 128.139 66.1232C128.205 66.328 128.329 66.5094 128.495 66.6457C128.795 66.8379 129.184 66.6772 129.545 66.6637C130.098 66.6427 130.596 66.9911 131.002 67.3634C131.409 67.7358 131.801 68.1608 132.318 68.3575C132.704 68.5076 133.475 68.4986 133.669 68.0376C133.744 67.8635 133.601 67.4911 133.631 67.2779C133.703 66.9379 133.822 66.6098 133.986 66.3034Z" fill="#42383C"/>
<path opacity="0.1" d="M109.827 115.618C109.547 115.848 109.195 115.973 108.833 115.97L41.7941 115.684C41.6141 115.468 41.4805 115.216 41.4012 114.946C41.322 114.676 41.2989 114.392 41.3334 114.112L47.9568 59.8813L52.1102 59.8362C52.4576 59.8327 52.7963 59.9447 53.0732 60.1544C53.3502 60.3642 53.5498 60.66 53.6408 60.9954L54.4166 63.8604C54.5084 64.1994 54.7112 64.4978 54.9924 64.7079C55.2737 64.918 55.6172 65.0278 55.9681 65.0195L72.5445 64.6216C72.9543 64.6118 73.3439 64.442 73.6302 64.1486C73.9165 63.8551 74.0767 63.4612 74.0766 63.051V61.1531C74.0765 60.7396 74.2394 60.3429 74.5299 60.0488C74.8204 59.7548 75.215 59.5872 75.6281 59.5825L98.5983 59.3347C98.9658 59.3313 99.3228 59.457 99.6072 59.69C99.8915 59.923 100.085 60.2484 100.154 60.6095L110.313 113.764L110.379 114.106C110.433 114.385 110.41 114.673 110.313 114.939C110.215 115.205 110.047 115.44 109.827 115.618Z" fill="black"/>
<path d="M97.8482 60.087L74.878 60.3348C74.4649 60.3391 74.0701 60.5063 73.7794 60.8001C73.4886 61.0938 73.3254 61.4904 73.325 61.9039V63.8033C73.3247 64.2129 73.1646 64.6062 72.8786 64.8994C72.5927 65.1925 72.2037 65.3623 71.7944 65.3724L55.2195 65.7703C54.8683 65.7792 54.5243 65.6697 54.2427 65.4595C53.9611 65.2493 53.7582 64.9505 53.6665 64.6112L52.8877 61.7477C52.7969 61.4119 52.5971 61.1158 52.3198 60.9059C52.0425 60.6961 51.7033 60.5845 51.3557 60.5885L29.2153 60.8273C28.9885 60.8295 28.7648 60.881 28.5598 60.9781C28.3547 61.0752 28.1732 61.2157 28.0277 61.3899C27.8821 61.564 27.7761 61.7677 27.7169 61.9868C27.6577 62.206 27.6468 62.4354 27.6848 62.6592L36.5919 115.117C36.6538 115.482 36.8422 115.813 37.1242 116.052C37.4061 116.291 37.7633 116.423 38.133 116.425L108.079 116.725C108.31 116.726 108.539 116.675 108.749 116.577C108.959 116.479 109.144 116.336 109.292 116.158C109.44 115.979 109.546 115.771 109.604 115.546C109.662 115.322 109.669 115.088 109.626 114.86L99.4043 61.3618C99.3353 61.0005 99.1418 60.675 98.8574 60.4419C98.5729 60.2089 98.2158 60.0833 97.8482 60.087Z" fill="#E6E8EE"/>
<path d="M130.198 24.1642L130.078 25.5006L130.165 27.864L129.912 31.8506C129.912 31.8506 129.876 33.5969 128.89 34.4152L126.373 38.2817L126.358 38.2892L125.412 38.7517L123.967 38.9018L123.216 37.0835L123.713 35.0864L123.989 34.714L124.066 34.63C124.366 34.2996 125.524 33.0999 126.444 32.726C126.444 32.726 127.058 32.2755 126.95 31.5698C126.842 30.8641 127.778 27.1133 127.778 27.1133C127.778 27.1133 128.378 24.6327 128.248 24.391C128.117 24.1492 128.224 18.6581 130.294 18.574C132.365 18.4899 130.198 24.1642 130.198 24.1642Z" fill="#F6BAC2"/>
<path opacity="0.1" d="M22.7224 105.575C24.0658 105.575 25.1548 105.425 25.1548 105.24C25.1548 105.055 24.0658 104.905 22.7224 104.905C21.379 104.905 20.29 105.055 20.29 105.24C20.29 105.425 21.379 105.575 22.7224 105.575Z" fill="#005FD5"/>
<path opacity="0.1" d="M13.406 106.519C14.7494 106.519 15.8384 106.369 15.8384 106.184C15.8384 105.999 14.7494 105.849 13.406 105.849C12.0626 105.849 10.9736 105.999 10.9736 106.184C10.9736 106.369 12.0626 106.519 13.406 106.519Z" fill="#005FD5"/>
<path opacity="0.1" d="M2.43237 105.24C3.77572 105.24 4.86473 105.09 4.86473 104.905C4.86473 104.72 3.77572 104.57 2.43237 104.57C1.08901 104.57 0 104.72 0 104.905C0 105.09 1.08901 105.24 2.43237 105.24Z" fill="#005FD5"/>
<path opacity="0.1" d="M17.1349 109.114C18.0896 109.114 18.8635 109.007 18.8635 108.876C18.8635 108.745 18.0896 108.639 17.1349 108.639C16.1802 108.639 15.4062 108.745 15.4062 108.876C15.4062 109.007 16.1802 109.114 17.1349 109.114Z" fill="#005FD5"/>
<path opacity="0.1" d="M7.46543 108.876C8.42012 108.876 9.19405 108.77 9.19405 108.639C9.19405 108.508 8.42012 108.402 7.46543 108.402C6.51074 108.402 5.73682 108.508 5.73682 108.639C5.73682 108.77 6.51074 108.876 7.46543 108.876Z" fill="#005FD5"/>
<path d="M13.3531 106.111C13.3531 106.111 16.7638 94.9212 12.8189 90.4391C9.86739 87.0862 6.5167 87.4871 5.01616 87.9015C4.62817 88.0052 4.2673 88.192 3.95849 88.4489C3.64967 88.7058 3.40028 89.0267 3.22752 89.3895C2.70234 90.5217 2.79687 92.3596 6.50019 94.5053C12.6989 98.0969 13.0845 103.023 13.0845 103.023L13.3531 106.111Z" fill="#005FD5"/>
<path d="M5.55225 89.4886C5.55225 89.4886 15.6058 92.6418 13.355 106.111" stroke="#565987" stroke-miterlimit="10"/>
<path d="M11.4251 90.6163C11.4251 90.6163 10.0401 91.5502 10.4813 92.9542" stroke="#565987" stroke-miterlimit="10"/>
<path d="M6.56055 91.4481C6.56055 91.4481 7.40685 90.5862 8.43771 91.0622" stroke="#565987" stroke-miterlimit="10"/>
<path d="M10.5352 95.7816C10.5352 95.7816 12.0222 95.0308 12.4063 95.9723" stroke="#565987" stroke-miterlimit="10"/>
<path d="M14.2131 97.3537C14.2131 97.3537 13.0967 97.2651 13.0771 97.8041" stroke="#565987" stroke-miterlimit="10"/>
<path d="M13.4914 106.199C13.4914 106.199 9.49549 98.0669 8.3986 98.2411C7.87791 98.3267 7.63783 98.8417 7.52829 99.3552C7.3936 100.021 7.46965 100.713 7.74586 101.334C8.31307 102.641 9.83611 105.111 13.4914 106.199Z" fill="#005FD5"/>
<path d="M8.42822 99.7877C8.42822 99.7877 12.6207 105.872 13.431 106.139" stroke="#565987" stroke-miterlimit="10"/>
<path d="M8.04297 100.738H9.02132" stroke="#565987" stroke-miterlimit="10"/>
<path d="M9.21484 102.963L10.7499 103.029" stroke="#565987" stroke-miterlimit="10"/>
<path d="M10.1495 101.183L9.98291 101.983" stroke="#565987" stroke-miterlimit="10"/>
<path d="M11.7805 103.617L11.7505 104.343" stroke="#565987" stroke-miterlimit="10"/>
<path d="M13.3726 106.199C13.3726 106.199 17.367 98.0669 18.4639 98.2411C18.9861 98.3267 19.2261 98.8417 19.3342 99.3552C19.4689 100.021 19.3928 100.713 19.1166 101.334C18.5494 102.641 17.0249 105.111 13.3726 106.199Z" fill="#005FD5"/>
<path d="M18.4359 99.7877C18.4359 99.7877 14.2344 105.872 13.4316 106.139" stroke="#565987" stroke-miterlimit="10"/>
<path d="M18.8211 100.738H17.8428" stroke="#565987" stroke-miterlimit="10"/>
<path d="M17.6493 102.963L16.1143 103.029" stroke="#565987" stroke-miterlimit="10"/>
<path d="M16.7144 101.183L16.8809 101.983" stroke="#565987" stroke-miterlimit="10"/>
<path d="M15.0835 103.617L15.1135 104.343" stroke="#565987" stroke-miterlimit="10"/>
<path d="M6.51216 108.099C6.40344 108.01 6.3244 107.89 6.28557 107.755C6.26703 107.687 6.27278 107.615 6.30184 107.551C6.3309 107.487 6.38142 107.435 6.44463 107.405C6.59468 107.349 6.74474 107.45 6.86478 107.555C6.98482 107.66 7.12137 107.771 7.27142 107.746C7.19179 107.674 7.13223 107.582 7.09857 107.48C7.0649 107.378 7.05828 107.269 7.07936 107.163C7.08551 107.12 7.10369 107.078 7.13187 107.045C7.2129 106.957 7.35996 106.995 7.45749 107.064C7.7576 107.28 7.85213 107.699 7.85363 108.078C7.86866 107.939 7.86866 107.799 7.85363 107.66C7.84966 107.59 7.86291 107.52 7.89221 107.457C7.92151 107.393 7.96597 107.338 8.02169 107.295C8.09474 107.255 8.17709 107.236 8.26028 107.238C8.32922 107.228 8.39947 107.233 8.46644 107.252C8.53341 107.271 8.59559 107.305 8.64891 107.349C8.69998 107.419 8.72626 107.504 8.72354 107.59C8.72082 107.676 8.68926 107.759 8.63391 107.825C8.51895 107.954 8.38298 108.063 8.23177 108.147C8.11699 108.216 8.01908 108.31 7.94516 108.421C7.9361 108.437 7.92903 108.453 7.92416 108.47H7.05085C6.85535 108.371 6.67414 108.246 6.51216 108.099Z" fill="#005FD5"/>
<path d="M21.7355 104.822C21.6265 104.734 21.5474 104.615 21.5089 104.48C21.4902 104.412 21.4958 104.34 21.5245 104.277C21.5533 104.213 21.6035 104.161 21.6664 104.13C21.8165 104.075 21.9666 104.175 22.0866 104.28C22.2066 104.385 22.3417 104.499 22.4962 104.477C22.4166 104.405 22.3569 104.314 22.323 104.212C22.2891 104.11 22.2821 104.001 22.3027 103.896C22.3093 103.852 22.328 103.811 22.3567 103.777C22.4377 103.69 22.5848 103.728 22.6823 103.795C22.9899 104.013 23.077 104.432 23.0785 104.81C23.0935 104.671 23.0935 104.531 23.0785 104.391C23.0718 104.322 23.0819 104.253 23.108 104.188C23.1342 104.124 23.1755 104.067 23.2285 104.022C23.3019 103.983 23.3841 103.964 23.4671 103.966C23.5359 103.957 23.606 103.961 23.6729 103.98C23.7398 103.999 23.8021 104.032 23.8557 104.076C23.907 104.146 23.9332 104.231 23.9302 104.318C23.9272 104.404 23.8952 104.487 23.8392 104.554C23.7251 104.683 23.5896 104.792 23.4386 104.875C23.3238 104.943 23.2258 105.037 23.152 105.148C23.1432 105.164 23.1361 105.18 23.131 105.198H22.2772C22.0802 105.098 21.8979 104.972 21.7355 104.822Z" fill="#005FD5"/>
<path d="M16.6621 108.099C16.5535 108.009 16.474 107.89 16.434 107.755C16.4155 107.687 16.4212 107.615 16.4503 107.551C16.4793 107.487 16.5299 107.435 16.5931 107.405C16.7431 107.349 16.8932 107.45 17.0132 107.555C17.1333 107.66 17.2668 107.774 17.4229 107.753C17.3433 107.681 17.2837 107.589 17.2498 107.487C17.2159 107.385 17.2089 107.276 17.2293 107.171C17.236 107.127 17.2547 107.086 17.2833 107.052C17.3643 106.965 17.5114 107.003 17.6089 107.072C17.9165 107.288 18.0021 107.707 18.0051 108.085C18.0201 107.946 18.0201 107.806 18.0051 107.668C17.9993 107.598 18.0106 107.528 18.038 107.463C18.0655 107.399 18.1083 107.342 18.1626 107.298C18.2356 107.258 18.318 107.239 18.4012 107.241C18.4702 107.232 18.5404 107.236 18.6073 107.255C18.6743 107.275 18.7365 107.308 18.7899 107.352C18.841 107.422 18.8671 107.507 18.8641 107.593C18.8612 107.68 18.8292 107.762 18.7733 107.828C18.6589 107.957 18.5235 108.066 18.3727 108.15C18.2579 108.219 18.16 108.313 18.0861 108.424C18.077 108.44 18.07 108.456 18.0651 108.473H17.1948C17.0014 108.372 16.8222 108.246 16.6621 108.099Z" fill="#005FD5"/>
<path d="M2.27347 101.477C2.27347 101.477 1.94785 101.903 2.42352 102.547C2.89919 103.192 3.29233 103.735 3.13327 104.136C3.13327 104.136 2.41452 102.935 1.82931 102.924C1.2441 102.914 1.62974 102.19 2.27347 101.477Z" fill="#005FD5"/>
<path opacity="0.1" d="M2.27336 101.477C2.24525 101.518 2.22303 101.563 2.20733 101.611C1.63713 102.282 1.33252 102.908 1.88172 102.924C2.3919 102.939 3.00562 103.852 3.15117 104.084C3.14657 104.101 3.14106 104.119 3.13466 104.136C3.13466 104.136 2.41591 102.935 1.8307 102.924C1.24549 102.914 1.62963 102.19 2.27336 101.477Z" fill="black"/>
<path d="M1.66846 102.02C1.66846 102.171 1.68496 102.292 1.70597 102.292C1.72698 102.292 1.74348 102.171 1.74348 102.02C1.74348 101.87 1.72248 101.941 1.70147 101.941C1.68046 101.941 1.66846 101.87 1.66846 102.02Z" fill="#FFD037"/>
<path d="M1.45998 102.201C1.59202 102.273 1.70607 102.315 1.71657 102.297C1.72707 102.279 1.62804 102.207 1.49599 102.135C1.36394 102.062 1.41646 102.115 1.40596 102.135C1.39545 102.154 1.32793 102.129 1.45998 102.201Z" fill="#FFD037"/>
<path d="M3.99444 101.477C3.99444 101.477 4.32156 101.903 3.84439 102.547C3.36722 103.192 2.97558 103.735 3.13464 104.136C3.13464 104.136 3.85339 102.935 4.4386 102.924C5.02381 102.914 4.63817 102.19 3.99444 101.477Z" fill="#005FD5"/>
<path opacity="0.1" d="M3.99451 101.477C4.0228 101.518 4.04551 101.563 4.06204 101.611C4.63224 102.282 4.93685 102.908 4.38765 102.924C3.87747 102.939 3.26375 103.852 3.1167 104.084C3.12111 104.102 3.12714 104.119 3.13471 104.136C3.13471 104.136 3.85346 102.935 4.43867 102.924C5.02388 102.914 4.63824 102.19 3.99451 101.477Z" fill="black"/>
<path d="M4.60042 102.02C4.60042 102.171 4.58391 102.292 4.5629 102.292C4.5419 102.292 4.52539 102.171 4.52539 102.02C4.52539 101.87 4.5464 101.941 4.56741 101.941C4.58841 101.941 4.60042 101.87 4.60042 102.02Z" fill="#FFD037"/>
<path d="M4.80892 102.201C4.67688 102.273 4.56134 102.315 4.55233 102.297C4.54333 102.279 4.64087 102.207 4.77291 102.135C4.90496 102.062 4.85244 102.115 4.86144 102.135C4.87045 102.154 4.93947 102.129 4.80892 102.201Z" fill="#FFD037"/>
<path d="M4.49714 104.081C4.49714 104.081 3.58631 104.052 3.31172 103.857C3.03712 103.662 1.91022 103.427 1.84119 103.741C1.77217 104.055 0.472706 105.303 1.50057 105.31C2.52844 105.318 3.89092 105.15 4.16552 104.983C4.44012 104.816 4.49714 104.081 4.49714 104.081Z" fill="#A8A8A8"/>
<path opacity="0.2" d="M1.48232 105.201C2.51169 105.21 3.87267 105.042 4.14727 104.873C4.35585 104.747 4.43837 104.291 4.46689 104.079H4.4969C4.4969 104.079 4.43988 104.815 4.16528 104.98C3.89068 105.145 2.5297 105.316 1.50033 105.307C1.20022 105.307 1.10119 105.199 1.10719 105.043C1.1477 105.141 1.26925 105.193 1.48232 105.201Z" fill="black"/>
<path opacity="0.1" d="M5.09282 22.2738C6.88535 22.2738 8.33848 20.8197 8.33848 19.026C8.33848 17.2322 6.88535 15.7781 5.09282 15.7781C3.3003 15.7781 1.84717 17.2322 1.84717 19.026C1.84717 20.8197 3.3003 22.2738 5.09282 22.2738Z" fill="#005FD5"/>
<path opacity="0.1" d="M161.162 48.2279C162.954 48.2279 164.407 46.7738 164.407 44.9801C164.407 43.1863 162.954 41.7322 161.162 41.7322C159.369 41.7322 157.916 43.1863 157.916 44.9801C157.916 46.7738 159.369 48.2279 161.162 48.2279Z" fill="#005FD5"/>
<path opacity="0.1" d="M102.818 11.9597C104.61 11.9597 106.064 10.5056 106.064 8.71191C106.064 6.91818 104.61 5.46408 102.818 5.46408C101.025 5.46408 99.5723 6.91818 99.5723 8.71191C99.5723 10.5056 101.025 11.9597 102.818 11.9597Z" fill="#005FD5"/>
<path opacity="0.1" d="M11.584 42.3869C14.5881 42.3869 17.0234 39.95 17.0234 36.9438C17.0234 33.9377 14.5881 31.5008 11.584 31.5008C8.57985 31.5008 6.14453 33.9377 6.14453 36.9438C6.14453 39.95 8.57985 42.3869 11.584 42.3869Z" fill="#005FD5"/>
<path d="M64.553 88.3865L64.361 88.1943C64.3404 88.1751 64.3241 88.1518 64.3129 88.126C64.3017 88.1002 64.2959 88.0723 64.2959 88.0442C64.2959 88.016 64.3017 87.9882 64.3129 87.9623C64.3241 87.9365 64.3404 87.9132 64.361 87.894L66.0461 86.2063C66.0653 86.1857 66.0885 86.1693 66.1143 86.1581C66.1401 86.1469 66.168 86.1412 66.1961 86.1412C66.2242 86.1412 66.2521 86.1469 66.2779 86.1581C66.3037 86.1693 66.3269 86.1857 66.3462 86.2063L68.0313 87.8925C68.0514 87.912 68.0674 87.9353 68.0784 87.9611C68.0893 87.9869 68.095 88.0146 68.095 88.0427C68.095 88.0707 68.0893 88.0984 68.0784 88.1242C68.0674 88.15 68.0514 88.1733 68.0313 88.1928L67.8392 88.385C67.8198 88.4052 67.7964 88.4212 67.7707 88.4322C67.7449 88.4431 67.7172 88.4488 67.6892 88.4488C67.6611 88.4488 67.6334 88.4431 67.6076 88.4322C67.5819 88.4212 67.5586 88.4052 67.5391 88.385L66.5427 87.3339V89.828C66.5429 89.8553 66.5377 89.8824 66.5274 89.9077C66.5171 89.9331 66.5019 89.9561 66.4826 89.9755C66.4634 89.9949 66.4405 90.0103 66.4153 90.0208C66.39 90.0313 66.363 90.0367 66.3357 90.0367H66.0581C66.0027 90.0367 65.9497 90.0147 65.9106 89.9756C65.8715 89.9364 65.8495 89.8833 65.8495 89.828V87.3369L64.8531 88.388C64.8336 88.4081 64.8102 88.424 64.7844 88.4348C64.7585 88.4456 64.7308 88.4511 64.7028 88.451C64.6748 88.4509 64.6471 88.4451 64.6213 88.434C64.5956 88.4229 64.5724 88.4068 64.553 88.3865Z" fill="#F6F7F9"/>
<path d="M66.1931 84.6732C66.8695 84.6732 67.5307 84.8739 68.093 85.2499C68.6554 85.6259 69.0937 86.1603 69.3525 86.7856C69.6114 87.4109 69.6791 88.099 69.5471 88.7628C69.4152 89.4266 69.0895 90.0363 68.6112 90.5149C68.133 90.9935 67.5236 91.3194 66.8603 91.4514C66.1969 91.5835 65.5093 91.5157 64.8845 91.2567C64.2596 90.9977 63.7255 90.5591 63.3497 89.9963C62.974 89.4336 62.7734 88.772 62.7734 88.0952C62.7742 87.1879 63.1347 86.3179 63.7759 85.6763C64.417 85.0348 65.2864 84.674 66.1931 84.6732ZM66.1931 84.2227C65.4277 84.2227 64.6795 84.4498 64.0431 84.8753C63.4067 85.3009 62.9107 85.9057 62.6178 86.6133C62.3249 87.3209 62.2483 88.0995 62.3976 88.8507C62.5469 89.6018 62.9155 90.2919 63.4567 90.8334C63.9979 91.375 64.6875 91.7438 65.4382 91.8932C66.1888 92.0427 66.9669 91.966 67.6741 91.6729C68.3812 91.3798 68.9856 90.8834 69.4108 90.2466C69.836 89.6098 70.063 88.8611 70.063 88.0952C70.063 87.0681 69.6553 86.0832 68.9296 85.3569C68.2038 84.6307 67.2195 84.2227 66.1931 84.2227Z" fill="#F6F7F9"/>
</g>
<defs>
<linearGradient id="paint0_linear" x1="118" y1="85.3189" x2="118" y2="15.2992" gradientUnits="userSpaceOnUse">
<stop stop-color="#808080" stop-opacity="0.25"/>
<stop offset="0.54" stop-color="#808080" stop-opacity="0.12"/>
<stop offset="1" stop-color="#808080" stop-opacity="0.1"/>
</linearGradient>
<linearGradient id="paint1_linear" x1="251.656" y1="108.351" x2="251.656" y2="107.45" gradientUnits="userSpaceOnUse">
<stop stop-color="#808080" stop-opacity="0.25"/>
<stop offset="0.54" stop-color="#808080" stop-opacity="0.12"/>
<stop offset="1" stop-color="#808080" stop-opacity="0.1"/>
</linearGradient>
<linearGradient id="paint2_linear" x1="11055.3" y1="17255.9" x2="12858.4" y2="14647.8" gradientUnits="userSpaceOnUse">
<stop stop-color="#808080" stop-opacity="0.25"/>
<stop offset="0.54" stop-color="#808080" stop-opacity="0.12"/>
<stop offset="1" stop-color="#808080" stop-opacity="0.1"/>
</linearGradient>
<linearGradient id="paint3_linear" x1="15614.7" y1="13683.3" x2="16501.5" y2="10650.8" gradientUnits="userSpaceOnUse">
<stop stop-color="#808080" stop-opacity="0.25"/>
<stop offset="0.54" stop-color="#808080" stop-opacity="0.12"/>
<stop offset="1" stop-color="#808080" stop-opacity="0.1"/>
</linearGradient>
<linearGradient id="paint4_linear" x1="17279.9" y1="10112" x2="17533.5" y2="6962.64" gradientUnits="userSpaceOnUse">
<stop stop-color="#808080" stop-opacity="0.25"/>
<stop offset="0.54" stop-color="#808080" stop-opacity="0.12"/>
<stop offset="1" stop-color="#808080" stop-opacity="0.1"/>
</linearGradient>
<linearGradient id="paint5_linear" x1="6816.72" y1="28286.6" x2="6347.59" y2="18001.9" gradientUnits="userSpaceOnUse">
<stop stop-color="#808080" stop-opacity="0.25"/>
<stop offset="0.54" stop-color="#808080" stop-opacity="0.12"/>
<stop offset="1" stop-color="#808080" stop-opacity="0.1"/>
</linearGradient>
<linearGradient id="paint6_linear" x1="21101.4" y1="18652.1" x2="23522.7" y2="11209.6" gradientUnits="userSpaceOnUse">
<stop stop-color="#808080" stop-opacity="0.25"/>
<stop offset="0.54" stop-color="#808080" stop-opacity="0.12"/>
<stop offset="1" stop-color="#808080" stop-opacity="0.1"/>
</linearGradient>
<linearGradient id="paint7_linear" x1="27023.8" y1="53912.4" x2="27023.8" y2="27154.3" gradientUnits="userSpaceOnUse">
<stop stop-color="#808080" stop-opacity="0.25"/>
<stop offset="0.54" stop-color="#808080" stop-opacity="0.12"/>
<stop offset="1" stop-color="#808080" stop-opacity="0.1"/>
</linearGradient>
<clipPath id="clip0">
<rect width="170" height="126" fill="white"/>
</clipPath>
</defs>
</svg>
