<svg width="91" height="78" viewBox="0 0 91 78" fill="none" xmlns="http://www.w3.org/2000/svg">
<g clip-path="url(#clip0_4008:16282)">
<path d="M81.9647 43.3814C81.9498 44.5453 81.8968 45.8493 81.7778 47.2232L85.1149 43.0428L85.1384 43.1082C84.8652 42.1648 84.4611 41.2647 83.9379 40.4346L83.9643 40.4961L81.9647 43.3814Z" fill="#57B894"/>
<path d="M81.9665 43.1768L83.9035 40.3819C83.3466 39.5391 82.6797 38.8864 81.918 38.4884C81.8784 38.4677 81.8386 38.4483 81.7988 38.4292C81.8284 38.7443 81.99 40.5946 81.9665 43.1768Z" fill="#57B894"/>
<path d="M85.5319 51.29C85.6139 50.8026 85.6776 50.3163 85.7229 49.8311L80.6905 53.8019L80.6837 53.7668C80.608 54.0532 80.5291 54.3348 80.4468 54.6114L85.52 51.2127L85.5319 51.29Z" fill="#57B894"/>
<path d="M81.2646 51.1286L85.7686 46.935L85.7862 47.0076C85.7283 45.7109 85.5177 44.4256 85.1588 43.1787L81.7582 47.4387C81.6408 48.7258 81.4763 49.9558 81.2646 51.1286Z" fill="#57B894"/>
<path d="M81.6727 47.3661L75.648 41.3513L75.6742 41.2778C75.1855 42.0613 74.7769 42.8923 74.4546 43.7582L81.3106 50.2906C81.4738 49.2696 81.5903 48.2834 81.6727 47.3661Z" fill="#57B894"/>
<path d="M81.1535 51.2044C81.1995 50.955 81.2428 50.7072 81.2832 50.461L74.4019 43.9046L74.4274 43.8306C74.3135 44.1356 74.2067 44.4505 74.1069 44.7752L74.1319 44.701L81.1535 51.2044Z" fill="#57B894"/>
<path d="M80.7266 53.6009L85.717 49.6632L85.7316 49.7384C85.8104 48.8588 85.83 47.975 85.7904 47.0928L81.2256 51.3431C81.08 52.1244 80.9137 52.877 80.7266 53.6009Z" fill="#57B894"/>
<path d="M73.6286 50.9373L79.2713 57.5093C79.6542 56.6471 79.9853 55.7627 80.2627 54.8608L73.4717 48.4775C73.4569 49.3258 73.4986 50.174 73.5967 51.0166L73.6286 50.9373Z" fill="#57B894"/>
<path d="M81.7026 38.4292L81.7484 38.4053C80.5639 37.8554 79.3237 37.9939 78.1675 38.6885L81.8738 43.1777C81.8985 40.384 81.7055 38.4568 81.7026 38.4292Z" fill="#57B894"/>
<path d="M80.3031 55.0816C80.0477 55.8935 79.7485 56.6908 79.4067 57.47L84.5263 54.4199L84.536 54.4959C84.8948 53.798 85.1641 53.0572 85.3375 52.2912C85.4043 51.9899 85.4637 51.6883 85.5157 51.3862L80.3819 54.8254C80.3557 54.9109 80.3299 54.997 80.3031 55.0816Z" fill="#57B894"/>
<path d="M81.8716 43.3857L78.0802 38.7934L78.1093 38.7231C77.2418 39.2596 76.4233 40.1099 75.7129 41.2172L81.6885 47.183C81.8051 45.8246 81.8571 44.536 81.8716 43.3857Z" fill="#57B894"/>
<path d="M80.3113 54.7027C80.6409 53.6076 80.9115 52.4954 81.122 51.371L74.0832 44.8516C73.9499 45.2921 73.8305 45.7492 73.7251 46.2228C73.58 46.9016 73.4968 47.5923 73.4766 48.2863L80.3065 54.706L80.3113 54.7027Z" fill="#57B894"/>
<path d="M87.5614 61.7557C86.8111 62.6427 85.9424 63.613 84.9785 64.5949L90.2026 63.5136L90.1792 63.579C90.5678 62.6773 90.828 61.7251 90.952 60.7505L90.9333 60.8148L87.5614 61.7557Z" fill="#57B894"/>
<path d="M90.6321 57.9583C90.6147 57.917 90.5963 57.8767 90.5778 57.8364C90.4006 58.0981 89.3503 59.6267 87.6929 61.6005L90.9591 60.689C91.0654 59.683 90.966 58.753 90.6321 57.9583Z" fill="#57B894"/>
<path d="M79.9814 68.9346C79.7412 69.1067 79.5017 69.2729 79.2627 69.4332L85.3278 70.0664L85.2879 70.1335C85.6605 69.8106 86.0182 69.4769 86.3612 69.1323L79.9643 68.9659L79.9814 68.9346Z" fill="#57B894"/>
<path d="M82.104 67.2751L88.2353 66.9312L88.2028 66.9984C88.9814 65.9626 89.6352 64.8378 90.1504 63.6475L84.8267 64.7494C83.9192 65.6655 83.0116 66.5074 82.104 67.2751Z" fill="#57B894"/>
<path d="M80.1201 68.8341L86.4637 68.9991L86.4271 69.0663C87.0462 68.4394 87.6225 67.7713 88.152 67.0664L81.9379 67.4149C81.3298 67.9233 80.7238 68.3964 80.1201 68.8341Z" fill="#57B894"/>
<path d="M72.5692 72.4226C72.6114 72.3744 72.654 72.3254 72.698 72.2743C73.9739 71.9926 75.2113 71.5574 76.3836 70.9783L76.2921 66.4072C76.3364 66.2877 76.3791 66.1674 76.4202 66.0463L76.5176 70.9124C77.3598 70.4938 78.1763 70.0247 78.9626 69.5079L77.887 61.045C77.9307 61.0189 77.9751 60.992 78.0205 60.9644L79.0947 69.4165L79.1005 69.4171C80.0496 68.7848 80.9641 68.1016 81.8401 67.3705L80.7203 59.0467C80.7635 59.0109 80.8067 58.9747 80.85 58.9382L81.9699 67.2623C82.1637 67.0998 82.3543 66.9366 82.5417 66.7729L81.5277 58.3397C81.5707 58.2999 81.6136 58.2598 81.6564 58.2194L82.6712 66.6592C83.4451 65.9775 84.161 65.2926 84.8067 64.6389L83.9852 56.1459L84.052 56.106C83.8207 56.1813 83.5865 56.2667 83.3504 56.3601C83.7733 55.8141 84.1485 55.2323 84.4718 54.6215L79.3032 57.7007C78.9762 58.4235 78.6021 59.1239 78.1833 59.7973C78.0914 59.8949 78.0002 59.994 77.91 60.0956L77.9232 60.1989C77.8831 60.2589 77.8427 60.3184 77.8022 60.3774L77.7847 60.24C77.7333 60.2995 77.6824 60.3602 77.6316 60.4209C78.2431 59.5479 78.7715 58.619 79.2096 57.6465L73.6081 51.1226C73.6785 51.7287 73.7726 52.3374 73.8836 52.9402C73.3547 52.1806 72.7264 51.4959 72.0156 50.9048L72.0597 50.9551L71.0457 54.3201C71.3897 55.4316 71.7404 56.6882 72.05 58.0317L73.9114 53.0892C73.9255 53.1639 73.9399 53.2385 73.9545 53.313L72.0978 58.2429C72.3823 59.5034 72.6042 60.7243 72.7638 61.9054L75.092 57.7151C75.11 57.7724 75.128 57.8293 75.146 57.8858L72.7925 62.1214C72.8945 62.9096 72.9678 63.677 73.0126 64.4236L75.9043 60.0919C75.9241 60.1454 75.9436 60.1978 75.9628 60.2491L73.0405 64.6266L73.0233 64.5953C73.0394 64.8912 73.0509 65.1835 73.0578 65.4721L76.3592 61.2723C76.3811 61.3268 76.4015 61.377 76.4203 61.423L73.0617 65.6955C73.0632 65.785 73.0651 65.8749 73.0657 65.9637C73.0725 66.8151 73.0333 67.6663 72.948 68.5134L73.2687 68.147C73.2119 68.2853 73.1567 68.4216 73.1029 68.556L72.9205 68.7644C72.9061 68.8906 72.8901 69.0155 72.8735 69.1399C72.8113 69.301 72.7515 69.4583 72.6941 69.6116C72.7408 69.3234 72.781 69.0336 72.8148 68.7419L65.4805 64.2769C67.5931 68.8999 71.3176 73.1977 71.5559 73.4704C71.7161 73.1229 71.8606 72.7675 71.9894 72.4042C72.0332 72.3975 72.0769 72.3902 72.1206 72.383C72.1055 72.4266 72.0907 72.4705 72.0752 72.5137C72.0524 72.5175 72.0295 72.5217 72.0066 72.5254C72.0256 72.5296 72.0454 72.5339 72.0662 72.5384C71.9745 72.7929 71.8766 73.0415 71.7725 73.2842C71.9192 73.1354 72.1391 72.9055 72.4053 72.6079C74.0901 72.937 78.6099 73.5859 82.357 72.0203L76.4213 71.08C75.1977 71.6866 73.9037 72.1376 72.5692 72.4226ZM76.2585 64.7312L76.3909 64.5801L76.3952 64.7947L76.2628 64.9459L76.2585 64.7312Z" fill="#57B894"/>
<path d="M90.5041 57.774L90.5545 57.785C89.9913 56.6024 88.9482 55.9144 87.6167 55.7085L87.6212 61.541C89.4139 59.4051 90.4887 57.7971 90.5041 57.774Z" fill="#57B894"/>
<path d="M78.8536 69.7031C78.1415 70.1647 77.4048 70.587 76.647 70.9682L82.5264 71.8996L82.4857 71.9643C83.2051 71.6566 83.8828 71.2586 84.5026 70.7798C84.7453 70.5906 84.9826 70.3963 85.2144 70.197L79.077 69.5562C79.0025 69.6053 78.928 69.655 78.8536 69.7031Z" fill="#57B894"/>
<path d="M84.9354 64.5077C85.8877 63.5363 86.7458 62.5771 87.4873 61.7004L87.4827 55.7341L87.5497 55.6986C86.5409 55.5559 85.3707 55.6863 84.1206 56.0839L84.9354 64.5077Z" fill="#57B894"/>
<path d="M71.9677 50.8656C71.1787 50.237 70.3437 49.8234 69.4968 49.6814C69.4527 49.674 69.4089 49.668 69.3652 49.6621C69.4903 49.9525 70.2132 51.6622 70.9854 54.1252L71.9677 50.8656Z" fill="#57B894"/>
<path d="M71.9947 58.1999L64.4145 54.3505L64.4167 54.2725C64.1931 55.1693 64.0602 56.0865 64.02 57.0101L72.55 61.0936C72.3911 60.0719 72.1985 59.0978 71.9947 58.1999Z" fill="#57B894"/>
<path d="M72.5761 61.2647L64.0146 57.1662L64.016 57.0879C64.0016 57.4134 63.9969 57.746 64.0019 58.0858L64.0028 58.0075L72.6815 62.012C72.6486 61.7605 72.6135 61.5114 72.5761 61.2647Z" fill="#57B894"/>
<path d="M72.9596 65.766L64.5371 61.8042C64.784 62.6155 65.0847 63.4092 65.4373 64.1801L65.4431 64.0948L72.8316 68.5927C72.9305 67.6539 72.9732 66.71 72.9596 65.766Z" fill="#57B894"/>
<path d="M69.2735 49.691L69.3097 49.6541C68.0139 49.4989 66.8771 50.0158 65.9912 51.0354L70.8972 54.1539C70.0611 51.4892 69.2847 49.7164 69.2735 49.691Z" fill="#57B894"/>
<path d="M70.9593 54.3528L65.9408 51.1627L65.9468 51.0869C65.2868 51.8665 64.77 52.9293 64.4351 54.203L71.9535 58.021C71.6465 56.693 71.2995 55.4513 70.9593 54.3528Z" fill="#57B894"/>
<path d="M72.957 65.6002C72.9335 64.4564 72.8487 63.3146 72.7029 62.1799L64.0029 58.1655C64.0117 58.6259 64.0388 59.0976 64.0843 59.5808C64.1551 60.2715 64.2885 60.9541 64.4828 61.6204L72.9534 65.6048L72.957 65.6002Z" fill="#57B894"/>
<path d="M65.8676 45.3366L40.5996 42.1366C39.4543 32.566 41.1846 23.2225 44.1386 13.9307L69.4066 17.1306C65.5938 26.2463 64.4746 35.6548 65.8676 45.3366Z" fill="#F2F2F2"/>
<path d="M63.1105 19.2636L47.6689 17.3081L47.4598 18.9748L62.9014 20.9303L63.1105 19.2636Z" fill="#005FD5"/>
<path opacity="0.3" d="M65.0282 23.6089L44.0991 20.9585L43.9946 21.7919L64.9236 24.4423L65.0282 23.6089Z" fill="#005FD5"/>
<path opacity="0.3" d="M64.6908 26.3013L43.7617 23.6509L43.6572 24.4842L64.5863 27.1347L64.6908 26.3013Z" fill="#005FD5"/>
<path opacity="0.3" d="M64.3529 28.9937L43.4238 26.3433L43.3193 27.1766L64.2484 29.8271L64.3529 28.9937Z" fill="#005FD5"/>
<path opacity="0.3" d="M64.015 31.6866L43.0859 29.0361L42.9814 29.8695L63.9105 32.5199L64.015 31.6866Z" fill="#005FD5"/>
<path opacity="0.3" d="M63.6771 34.3789L42.748 31.7285L42.6435 32.5619L63.5726 35.2123L63.6771 34.3789Z" fill="#005FD5"/>
<path opacity="0.3" d="M63.3393 37.0713L42.4102 34.4209L42.3056 35.2543L63.2347 37.9047L63.3393 37.0713Z" fill="#005FD5"/>
<path opacity="0.3" d="M63.0014 39.7632L42.0723 37.1128L41.9677 37.9462L62.8968 40.5966L63.0014 39.7632Z" fill="#005FD5"/>
<path d="M53.9015 35.9076L30.2617 26.3884C31.5643 16.8381 35.5915 8.23849 40.7897 0L64.4295 9.51921C58.4448 17.369 54.9923 26.1868 53.9015 35.9076Z" fill="#E6E6E6"/>
<path d="M57.8015 9.98233L43.355 4.16504L42.7329 5.72435L57.1794 11.5416L57.8015 9.98233Z" fill="#005FD5"/>
<path opacity="0.3" d="M58.5624 14.6741L38.9819 6.78955L38.6709 7.56921L58.2513 15.4538L58.5624 14.6741Z" fill="#005FD5"/>
<path opacity="0.3" d="M57.5575 17.1937L37.9771 9.30908L37.666 10.0887L57.2464 17.9733L57.5575 17.1937Z" fill="#005FD5"/>
<path opacity="0.3" d="M56.5526 19.7122L36.9722 11.8276L36.6611 12.6073L56.2416 20.4919L56.5526 19.7122Z" fill="#005FD5"/>
<path opacity="0.3" d="M55.5472 22.2308L35.9668 14.3462L35.6557 15.1258L55.2362 23.0104L55.5472 22.2308Z" fill="#005FD5"/>
<path opacity="0.3" d="M54.5423 24.7498L34.9619 16.8652L34.6509 17.6449L54.2313 25.5295L54.5423 24.7498Z" fill="#005FD5"/>
<path opacity="0.3" d="M53.5375 27.2684L33.957 19.3838L33.646 20.1634L53.2264 28.048L53.5375 27.2684Z" fill="#005FD5"/>
<path opacity="0.3" d="M52.5326 29.7874L32.9521 21.9028L32.6411 22.6825L52.2215 30.5671L52.5326 29.7874Z" fill="#005FD5"/>
<path d="M48.0556 38.2002H22.5876C20.2599 28.8486 20.8135 19.361 22.5876 9.771H48.0556C45.4074 19.2942 45.4682 28.7695 48.0556 38.2002Z" fill="#F2F2F2"/>
<path d="M42.0745 12.6787H26.5107V14.3586H42.0745V12.6787Z" fill="#005FD5"/>
<path opacity="0.3" d="M44.5181 16.7495H23.4233V17.5895H44.5181V16.7495Z" fill="#005FD5"/>
<path opacity="0.3" d="M44.5181 19.4629H23.4233V20.3028H44.5181V19.4629Z" fill="#005FD5"/>
<path opacity="0.3" d="M44.5181 22.1763H23.4233V23.0162H44.5181V22.1763Z" fill="#005FD5"/>
<path opacity="0.3" d="M44.5181 24.8901H23.4233V25.7301H44.5181V24.8901Z" fill="#005FD5"/>
<path opacity="0.3" d="M44.5181 27.6035H23.4233V28.4435H44.5181V27.6035Z" fill="#005FD5"/>
<path opacity="0.3" d="M44.5181 30.3174H23.4233V31.1573H44.5181V30.3174Z" fill="#005FD5"/>
<path opacity="0.3" d="M44.5181 33.0312H23.4233V33.8712H44.5181V33.0312Z" fill="#005FD5"/>
<path d="M30.8887 32.525L22.1147 25.6721C22.0269 25.5188 21.9004 25.3913 21.7479 25.3027C21.5955 25.2141 21.4225 25.1675 21.2464 25.1675H16.5109C16.2452 25.1675 15.9905 25.2735 15.8026 25.4622C15.6148 25.6509 15.5093 25.9068 15.5093 26.1737V68.1642C15.5093 69.0298 15.8516 69.86 16.4608 70.4721C17.0701 71.0842 17.8964 71.428 18.758 71.428H67.3701C67.7968 71.428 68.2192 71.3436 68.6134 71.1796C69.0075 71.0156 69.3657 70.7752 69.6673 70.4721C69.969 70.169 70.2083 69.8092 70.3716 69.4132C70.5348 69.0172 70.6189 68.5928 70.6189 68.1642V35.4916C70.6189 34.7048 70.3078 33.9502 69.754 33.3939C69.2002 32.8376 68.4492 32.525 67.666 32.525H30.8887Z" fill="#3F3D56"/>
<path d="M68.9655 42.2627H60.1479V45.3632H68.9655V42.2627Z" fill="#005FD5"/>
<path d="M0 77.8073C0 77.8073 40.3278 54.6368 89.0255 77.8073H0Z" fill="#F2F2F2"/>
<path d="M8.63737 24.6356C8.63737 24.6356 9.0702 26.9402 8.76722 27.1141C8.52251 27.2686 8.29089 27.4432 8.07471 27.6359L8.85379 28.723L10.7149 29.1143L12.4895 27.462V25.8096C12.4895 25.8096 11.9701 24.9834 12.0567 24.4616C12.1432 23.9398 8.63737 24.6356 8.63737 24.6356Z" fill="#FBBEBE"/>
<path opacity="0.1" d="M8.63737 24.6356C8.63737 24.6356 9.0702 26.9402 8.76722 27.1141C8.52251 27.2686 8.29089 27.4432 8.07471 27.6359L8.85379 28.723L10.7149 29.1143L12.4895 27.462V25.8096C12.4895 25.8096 11.9701 24.9834 12.0567 24.4616C12.1432 23.9398 8.63737 24.6356 8.63737 24.6356Z" fill="black"/>
<path d="M5.65089 28.5928L5.3912 28.7232C5.3912 28.7232 4.82853 28.9406 4.56884 30.8104C4.30915 32.6802 3.70319 37.159 3.87632 37.2894C4.04945 37.4199 3.96289 38.2895 3.96289 38.2895L5.26136 31.4627L5.65089 28.5928Z" fill="#2F2E41"/>
<path d="M8.72836 17.9802C8.68877 18.0632 8.67489 18.1601 8.63774 18.2447C8.46905 18.6287 7.98883 18.5428 7.64246 18.688C7.34913 18.811 7.13019 19.1488 7.10724 19.5138C7.0975 19.6688 7.12011 19.8251 7.10625 19.9796C7.08064 20.265 6.93414 20.5164 6.882 20.7968C6.75534 21.478 7.05088 22.5537 7.38459 22.1861C7.48982 22.0702 7.62154 21.9933 7.73521 21.889C8.03041 21.618 8.18076 21.1871 8.42055 20.8488C8.45088 20.7992 8.49263 20.7576 8.54229 20.7276C8.71751 20.6401 8.87349 20.8743 9.01201 21.0277C9.0825 21.1051 9.16858 21.1665 9.26452 21.2078C9.36045 21.2491 9.46405 21.2695 9.56841 21.2675C9.67278 21.2655 9.77553 21.2412 9.86982 21.1962C9.96412 21.1512 10.0478 21.0866 10.1153 21.0066C10.1576 20.9448 10.2102 20.8908 10.2707 20.847C10.3383 20.8158 10.4144 20.8083 10.4868 20.8257C10.8283 20.8861 11.136 21.0702 11.3516 21.3431C11.4673 21.4853 11.564 21.6526 11.7026 21.7628C11.8413 21.8731 12.0435 21.9094 12.1684 21.7784C12.4196 21.9568 12.5134 22.3357 12.514 22.6807C12.5147 23.0258 12.4443 23.3686 12.4615 23.713C12.4787 24.0574 12.6133 24.4292 12.8865 24.5555C12.9295 24.2419 13.0915 23.9571 13.3387 23.7607C13.5248 23.6215 13.7509 23.5526 13.9083 23.371C14.2234 23.0074 14.1235 22.4027 14.1356 21.884C14.1506 21.2442 14.3712 20.6326 14.4102 19.9943C14.4297 19.6752 14.3969 19.3332 14.2298 19.0808C14.1033 18.9126 13.9429 18.773 13.7592 18.6712L12.2736 17.7137C12.2076 17.6647 12.1328 17.6291 12.0533 17.6087C11.8346 17.5693 11.6456 17.7753 11.4383 17.8661C11.2653 17.9278 11.081 17.9502 10.8984 17.9319C10.3217 17.9162 10.1594 18.0288 9.77174 17.6513C9.74157 17.6206 9.70466 17.5976 9.66398 17.5839C9.6233 17.5703 9.58 17.5665 9.53758 17.5728C9.30572 17.6097 8.8552 17.7143 8.72836 17.9802Z" fill="#2F2E41"/>
<path d="M9.54607 70.5107L10.4549 72.5109L8.68036 73.1197L7.77148 72.6414L7.98794 70.5107H9.54607Z" fill="#FBBEBE"/>
<path d="M8.72393 72.2066C8.72393 72.2066 7.29562 71.3369 7.03592 71.6413C6.77623 71.9457 4.69868 74.1633 4.69868 74.1633C4.69868 74.1633 1.4958 75.9026 3.96289 76.1635C6.42997 76.4244 10.4552 74.6416 10.4552 74.6416C10.4552 74.6416 10.6716 72.2935 10.4985 72.2501C10.3254 72.2066 9.58957 72.6414 9.24332 72.511C9.05209 72.4445 8.87565 72.3411 8.72393 72.2066Z" fill="#2F2E41"/>
<path d="M11.8831 72.6415V74.4242L9.5459 73.9025L10.0652 72.0762L11.8831 72.6415Z" fill="#FBBEBE"/>
<path d="M9.5029 73.2501C9.5029 73.2501 11.8834 72.8588 12.0998 74.0328C12.3162 75.2069 12.8789 76.9462 12.3162 77.381C11.7536 77.8159 8.85367 78.3811 8.81038 77.6419C8.7671 76.9027 9.11336 75.4678 9.11336 75.4678C9.11336 75.4678 9.32977 74.3372 9.19992 74.0328C9.07008 73.7284 9.5029 73.2501 9.5029 73.2501Z" fill="#2F2E41"/>
<path d="M4.74782 43.8875C4.74782 43.8875 2.79379 56.3348 4.39523 62.4225C5.99667 68.5101 7.12201 72.1192 7.12201 72.1192C7.12201 72.1192 9.89207 71.3365 9.89207 70.8147C9.89207 70.2929 8.81001 62.5529 8.55032 61.8137C8.29063 61.0745 7.85781 60.8136 8.24735 60.2048C8.63689 59.5961 9.28612 55.6826 9.28612 55.6826C9.28612 55.6826 10.7144 62.1616 10.801 62.3355C10.8876 62.5094 9.89207 72.4671 9.89207 72.4671C9.89207 72.4671 12.7492 74.5501 12.9218 72.9889C12.9651 72.5975 14.8695 58.7264 14.8695 58.5525C14.8695 58.3785 15.6486 45.0727 14.3934 44.4204C13.1382 43.7682 4.74782 43.8875 4.74782 43.8875Z" fill="#2F2E41"/>
<path d="M10.325 25.5055C11.9505 25.5055 13.2682 24.1817 13.2682 22.5487C13.2682 20.9156 11.9505 19.5918 10.325 19.5918C8.69955 19.5918 7.38184 20.9156 7.38184 22.5487C7.38184 24.1817 8.69955 25.5055 10.325 25.5055Z" fill="#FBBEBE"/>
<path d="M9.67601 28.4189V28.1145L8.81037 26.6796C8.81037 26.6796 7.94472 26.7665 7.81488 27.1579C7.68503 27.5492 6.21343 30.68 6.21343 30.68L4.65527 44.7251C4.65527 44.7251 8.94021 45.7687 9.58945 45.0295C10.2387 44.2903 12.7058 28.2015 12.7058 28.2015L13.052 26.2447C13.052 26.2447 12.4575 25.3751 12.3219 25.5055C12.1864 25.636 9.9357 28.158 9.9357 28.158L9.89242 28.5493L9.67601 28.4189Z" fill="#005FD5"/>
<path d="M8.78872 26.3966C8.78872 26.3966 7.988 26.2009 7.7283 26.6792C7.46861 27.1575 7.46861 27.3314 7.20892 27.5054C6.94922 27.6793 5.43435 28.462 5.34778 28.7664C5.26122 29.0708 3.40008 38.6806 3.40008 38.6806C3.40008 38.6806 2.49116 41.5505 2.92398 43.5072C3.3568 45.4639 3.05383 45.8553 3.96275 46.0292C4.87168 46.2032 5.00152 46.2032 5.00152 45.9423C5.00152 45.6814 6.17014 36.8543 6.99251 36.2455C7.81487 35.6367 7.59846 28.9838 7.59846 28.9838C7.59846 28.9838 8.76708 27.5489 8.76708 27.3314C8.76708 27.114 8.96185 26.3802 8.78872 26.3966Z" fill="#2F2E41"/>
<path d="M11.2343 27.9838C11.355 28.004 13.0088 25.8531 13.1387 25.9401C13.2685 26.027 13.9178 27.1576 14.0043 27.1576C14.0909 27.1576 17.7699 28.0707 18.0729 29.7666C18.3758 31.4624 15.952 36.8544 15.952 36.8544C15.952 36.8544 14.9133 39.9417 15.1297 41.2896C15.2765 42.3162 15.2472 43.3604 15.0431 44.3769C14.9565 44.7248 14.6536 45.1162 14.7401 45.2901C14.8267 45.464 12.8357 45.0727 12.0133 45.551C11.191 46.0293 7.51199 46.3772 7.72841 45.8554C7.94482 45.3336 8.07467 43.2899 8.68061 41.1157C9.28656 38.9415 10.8447 33.8105 10.585 33.4627C10.3253 33.1148 10.9746 27.9403 11.2343 27.9838Z" fill="#2F2E41"/>
<path d="M17.5531 29.2446L18.1157 29.7664C18.1157 29.7664 18.765 30.897 18.6784 31.4188C18.5918 31.9406 20.4962 39.811 19.7172 40.0719C18.9381 40.3328 17.0769 41.6373 16.8605 41.9852C16.6441 42.3331 16.1247 42.9418 15.7785 43.1158C15.4322 43.2897 15.086 43.5941 14.8696 43.4201C14.6531 43.2462 14.177 39.6806 14.5233 39.5501C14.8696 39.4197 15.2158 39.0283 15.5621 39.0283C15.9083 39.0283 16.1247 38.6805 16.1247 38.3761C16.1247 38.0717 15.865 36.2454 15.865 36.2454L15.3024 31.9406L17.5531 29.2446Z" fill="#2F2E41"/>
<path d="M9.24742 18.413C9.21241 18.4757 9.20014 18.549 9.16729 18.6129C9.01814 18.9032 8.59353 18.8383 8.28727 18.9481C8.15783 18.9967 8.04472 19.0811 7.96099 19.1916C7.87726 19.3021 7.82631 19.434 7.81402 19.5723C7.80541 19.6895 7.8254 19.8076 7.81314 19.9244C7.7905 20.1402 7.66096 20.3302 7.61486 20.5422C7.50287 21.0572 7.76419 21.8704 8.05925 21.5925C8.1523 21.5048 8.26877 21.4467 8.36927 21.3679C8.63029 21.163 8.76323 20.8372 8.97526 20.5816C9.00343 20.5429 9.04032 20.5115 9.0829 20.4899C9.23783 20.4238 9.37575 20.6008 9.49822 20.7168C9.63374 20.8364 9.80872 20.901 9.98907 20.898C10.1694 20.8951 10.3422 20.8248 10.4738 20.7008C10.5124 20.653 10.5589 20.6122 10.6112 20.5802C10.672 20.5565 10.7383 20.5509 10.8022 20.5641C11.0936 20.6044 11.363 20.7422 11.5669 20.9552C11.6589 21.0717 11.7629 21.1781 11.8773 21.2725C11.9998 21.3559 12.1787 21.3833 12.2891 21.2843C12.5113 21.4192 12.5941 21.7056 12.5947 21.9664C12.5953 22.2272 12.5331 22.4864 12.5483 22.7467C12.5635 23.0071 12.6825 23.2881 12.9241 23.3837C12.9462 23.2614 12.9932 23.1449 13.062 23.0416C13.1307 22.9382 13.2199 22.8502 13.3239 22.7828C13.4884 22.6776 13.6884 22.6255 13.8275 22.4882C14.1061 22.2134 14.0179 21.7562 14.0285 21.3641C14.0417 20.8805 14.2369 20.4181 14.2714 19.9355C14.2886 19.6944 14.2596 19.4358 14.1118 19.245C13.9955 19.1145 13.8539 19.0091 13.6957 18.9354L12.3821 18.2115C12.3223 18.1739 12.2564 18.147 12.1874 18.1322C11.994 18.1024 11.8268 18.2581 11.6435 18.3268C11.489 18.3735 11.327 18.3904 11.1662 18.3765C10.6563 18.3646 10.5127 18.4497 10.17 18.1643C10.1414 18.1406 10.1083 18.1231 10.0726 18.1129C10.037 18.1027 9.99965 18.1 9.96294 18.105C9.75793 18.1329 9.35957 18.212 9.24742 18.413Z" fill="#2F2E41"/>
</g>
<defs>
<clipPath id="clip0_4008:16282">
<rect width="91" height="78" fill="white"/>
</clipPath>
</defs>
</svg>
