<svg width="365" height="295" viewBox="0 0 365 295" fill="none" xmlns="http://www.w3.org/2000/svg">
<g clip-path="url(#clip0)">
<path d="M171.065 3.28759C152.416 8.13235 135.966 21.0669 119.615 38.0354C124.996 42.9399 128.246 49.7537 128.673 57.0219C129.099 64.2902 126.667 71.4371 121.896 76.9369C117.125 82.4366 110.393 85.8535 103.138 86.458C95.8819 87.0626 88.6774 84.8068 83.0621 80.1724C63.8561 103.116 42.885 127.371 17.2897 147.417C-47.8801 198.459 86.1373 291.547 171.065 291.547C255.993 291.547 324.841 227.018 324.841 147.417C324.841 67.8166 252.908 -17.9734 171.065 3.28759Z" fill="#F2F2F2"/>
<path d="M195.006 294.37C288.831 294.37 364.891 289.37 364.891 283.203C364.891 277.035 288.831 272.036 195.006 272.036C101.181 272.036 25.1211 277.035 25.1211 283.203C25.1211 289.37 101.181 294.37 195.006 294.37Z" fill="#3F3D56"/>
<path opacity="0.1" d="M199.765 288.512C232.118 288.512 258.346 285.725 258.346 282.288C258.346 278.85 232.118 276.064 199.765 276.064C167.411 276.064 141.184 278.85 141.184 282.288C141.184 285.725 167.411 288.512 199.765 288.512Z" fill="black"/>
<path d="M343.194 270.756C343.194 281.474 336.824 285.215 328.964 285.215C328.782 285.215 328.6 285.213 328.419 285.209C328.055 285.201 327.694 285.184 327.337 285.159C320.244 284.658 314.734 280.723 314.734 270.756C314.734 260.444 327.912 247.429 328.905 246.464L328.906 246.463C328.944 246.425 328.964 246.407 328.964 246.407C328.964 246.407 343.194 260.04 343.194 270.756Z" fill="#005FD5"/>
<path d="M328.446 283.576L333.651 276.305L328.433 284.375L328.42 285.209C328.056 285.201 327.694 285.184 327.338 285.159L327.898 274.438L327.895 274.354L327.904 274.34L327.957 273.326L322.727 265.236L327.973 272.567L327.986 272.781L328.409 264.681L323.931 256.321L328.464 263.26L328.906 246.464L328.907 246.407V246.463L328.834 259.707L333.292 254.456L328.815 260.847L328.697 268.101L332.861 261.139L328.68 269.168L328.615 273.201L334.656 263.511L328.591 274.607L328.446 283.576Z" fill="#3F3D56"/>
<path d="M174.57 88.0646C184.228 88.0646 192.057 80.2352 192.057 70.5771C192.057 60.919 184.228 53.0895 174.57 53.0895C164.911 53.0895 157.082 60.919 157.082 70.5771C157.082 80.2352 164.911 88.0646 174.57 88.0646Z" fill="#2F2E41"/>
<path d="M214.82 225.101L224.167 262.789L233.514 261.281L224.167 218.166L214.82 225.101Z" fill="#A0616A"/>
<path d="M227.486 260.376C227.486 260.376 222.163 262.176 222.865 263.387C223.567 264.598 223.567 272.135 221.155 274.849C218.743 277.563 212.712 286.005 219.647 286.307C226.582 286.608 233.516 282.085 233.516 282.085V274.246L234.722 281.482H235.928V273.342C235.928 273.342 238.944 268.216 237.134 265.201C235.325 262.186 234.146 259.558 231.872 259.816C229.597 260.075 227.486 260.376 227.486 260.376Z" fill="#2F2E41"/>
<path d="M178.039 257.06L176.531 265.201H187.084V257.06H178.039Z" fill="#A0616A"/>
<path d="M178.94 263.392C178.94 263.392 175.925 263.091 175.02 267.312C174.116 271.533 165.975 277.563 162.96 278.467C159.945 279.372 159.945 282.387 163.865 282.99C167.784 283.593 177.734 283.894 180.146 280.578C181.784 278.414 183.711 276.487 185.875 274.849L184.367 283.291H187.081C187.081 283.291 189.493 275.151 191.905 272.437C194.317 269.724 187.081 263.392 185.875 263.392H178.94Z" fill="#2F2E41"/>
<path d="M164.166 133.743C164.166 133.743 162.055 139.472 158.437 140.376C154.819 141.281 127.985 147.613 127.985 147.613C127.985 147.613 104.467 148.216 111.703 153.341C118.939 158.467 130.698 153.341 130.698 153.341C130.698 153.341 165.07 149.12 167.784 144.598C169.57 141.52 171.084 138.291 172.307 134.949L164.166 133.743Z" fill="#A0616A"/>
<path d="M175.622 108.416C175.622 108.416 158.436 136.457 160.547 137.06C162.657 137.663 182.255 143.995 183.16 141.583C184.064 139.17 184.064 128.015 184.064 128.015L175.622 108.416Z" fill="#2F2E41"/>
<path opacity="0.1" d="M175.622 108.416C175.622 108.416 158.436 136.457 160.547 137.06C162.657 137.663 182.255 143.995 183.16 141.583C184.064 139.17 184.064 128.015 184.064 128.015L175.622 108.416Z" fill="black"/>
<path d="M220.249 101.783L259.143 121.683C259.143 121.683 281.154 127.411 276.329 131.934C271.505 136.457 255.827 128.014 255.827 128.014L212.711 108.417L220.249 101.783Z" fill="#A0616A"/>
<path d="M170.5 86.1048C170.5 86.1048 178.038 97.5621 177.435 100.276C177.435 100.276 178.038 102.085 177.133 103.291C176.229 104.497 176.53 111.733 176.53 111.733L179.545 115.954L183.465 102.989L185.274 89.1199C185.274 89.1199 181.203 83.542 181.806 80.8285C182.409 78.1149 170.5 86.1048 170.5 86.1048Z" fill="#A0616A"/>
<path d="M194.318 151.231C194.318 151.231 177.433 196.457 177.433 216.356C177.433 236.256 171.102 258.869 175.926 260.98C180.75 263.09 205.172 263.392 205.775 260.98C206.378 258.568 202.76 160.577 200.951 156.658C199.142 152.738 194.318 151.231 194.318 151.231Z" fill="#2F2E41"/>
<path opacity="0.1" d="M194.318 151.231C194.318 151.231 177.433 196.457 177.433 216.356C177.433 236.256 171.102 258.869 175.926 260.98C180.75 263.09 205.172 263.392 205.775 260.98C206.378 258.568 202.76 160.577 200.951 156.658C199.142 152.738 194.318 151.231 194.318 151.231Z" fill="black"/>
<path d="M174.418 87.9139C180.579 87.9139 185.573 82.9193 185.573 76.7581C185.573 70.5969 180.579 65.6023 174.418 65.6023C168.256 65.6023 163.262 70.5969 163.262 76.7581C163.262 82.9193 168.256 87.9139 174.418 87.9139Z" fill="#A0616A"/>
<path d="M177.735 110.527L176.928 103.723C176.928 103.723 174.419 107.21 174.419 109.924C174.419 112.638 172.911 122.286 179.243 128.316C185.574 134.346 186.781 135.552 187.082 136.758C187.384 137.964 188.891 137.964 188.891 137.964L197.635 173.241C197.635 173.241 200.348 267.01 204.57 268.216C208.791 269.422 221.756 268.216 222.66 266.708C223.565 265.201 221.153 225.1 221.153 225.1C221.153 225.1 227.786 260.678 230.198 260.678C232.61 260.678 234.117 255.553 233.514 255.251C232.911 254.95 229.293 231.733 227.786 224.497C226.278 217.261 226.881 156.055 226.881 156.055C226.881 156.055 231.705 148.216 215.122 132.839C215.122 132.839 204.57 102.085 203.967 102.085C203.364 102.085 191.605 85.5018 191.605 85.5018C191.605 85.5018 184.971 85.5018 183.765 89.4214C182.559 93.341 177.735 110.527 177.735 110.527Z" fill="#2F2E41"/>
<path d="M187.988 87.9139L191.606 85.5018C191.606 85.5018 206.682 94.547 217.235 95.1501C227.787 95.7531 227.486 101.783 223.265 106.004C219.044 110.225 202.461 124.698 201.858 121.08C201.255 117.462 187.988 87.9139 187.988 87.9139Z" fill="#2F2E41"/>
<path d="M174.568 72.9892C181.229 72.9892 186.628 69.7495 186.628 65.753C186.628 61.7566 181.229 58.5168 174.568 58.5168C167.907 58.5168 162.508 61.7566 162.508 65.753C162.508 69.7495 167.907 72.9892 174.568 72.9892Z" fill="#2F2E41"/>
<path d="M175.775 60.3258C179.772 60.3258 183.011 57.086 183.011 53.0896C183.011 49.0932 179.772 45.8534 175.775 45.8534C171.779 45.8534 168.539 49.0932 168.539 53.0896C168.539 57.086 171.779 60.3258 175.775 60.3258Z" fill="#2F2E41"/>
<path d="M166.127 49.17C166.128 47.3814 166.79 45.6561 167.987 44.3271C169.184 42.9981 170.831 42.1594 172.61 41.9729C172.359 41.9469 172.108 41.9339 171.856 41.9338C169.938 41.9352 168.099 42.6981 166.743 44.055C165.387 45.412 164.625 47.2517 164.625 49.17C164.625 51.0883 165.387 52.9281 166.743 54.285C168.099 55.6419 169.938 56.4049 171.856 56.4062C172.108 56.4062 172.359 56.3931 172.61 56.3671C170.831 56.1806 169.184 55.342 167.987 54.0129C166.79 52.6839 166.128 50.9587 166.127 49.17Z" fill="#2F2E41"/>
<path d="M272.92 125.13L113.52 151.939L129.176 245.029L288.577 218.22L272.92 125.13Z" fill="#3F3D56"/>
<path opacity="0.3" d="M250.403 155.819L144.543 173.429C144.26 173.476 143.972 173.467 143.693 173.402C143.415 173.337 143.152 173.219 142.919 173.052C142.686 172.886 142.489 172.675 142.338 172.433C142.186 172.19 142.084 171.92 142.037 171.638C141.99 171.356 142 171.067 142.064 170.789C142.129 170.51 142.248 170.247 142.414 170.015C142.58 169.782 142.791 169.584 143.033 169.433C143.276 169.282 143.546 169.18 143.828 169.133L249.689 151.523C250.258 151.429 250.841 151.565 251.311 151.901C251.78 152.237 252.096 152.745 252.191 153.314C252.286 153.883 252.151 154.467 251.816 154.936C251.48 155.406 250.972 155.723 250.403 155.819Z" fill="white"/>
<path d="M221.204 167.49C226.186 167.49 230.225 163.451 230.225 158.469C230.225 153.487 226.186 149.448 221.204 149.448C216.222 149.448 212.184 153.487 212.184 158.469C212.184 163.451 216.222 167.49 221.204 167.49Z" fill="#F8FBFF"/>
<path opacity="0.3" d="M254.333 179.446L148.472 197.055C148.19 197.102 147.902 197.093 147.623 197.029C147.345 196.964 147.081 196.845 146.849 196.679C146.616 196.513 146.419 196.302 146.267 196.06C146.116 195.817 146.014 195.547 145.967 195.265C145.92 194.983 145.929 194.694 145.994 194.416C146.058 194.137 146.177 193.874 146.343 193.641C146.51 193.409 146.72 193.211 146.963 193.06C147.205 192.909 147.476 192.807 147.758 192.76L253.619 175.15C254.188 175.056 254.771 175.192 255.241 175.528C255.71 175.863 256.027 176.372 256.121 176.941C256.216 177.51 256.081 178.094 255.746 178.563C255.41 179.033 254.902 179.35 254.333 179.446Z" fill="#005FD5"/>
<path d="M177.267 199.08C182.249 199.08 186.288 195.041 186.288 190.059C186.288 185.077 182.249 181.038 177.267 181.038C172.285 181.038 168.246 185.077 168.246 190.059C168.246 195.041 172.285 199.08 177.267 199.08Z" fill="#005FD5"/>
<path opacity="0.3" d="M258.267 203.072L152.406 220.682C152.124 220.729 151.835 220.72 151.557 220.656C151.278 220.591 151.015 220.472 150.782 220.306C150.313 219.97 149.995 219.461 149.901 218.892C149.806 218.322 149.941 217.738 150.277 217.268C150.613 216.798 151.122 216.481 151.691 216.387L257.552 198.777C257.834 198.729 258.123 198.738 258.402 198.802C258.681 198.867 258.944 198.986 259.177 199.152C259.41 199.318 259.608 199.529 259.759 199.771C259.911 200.014 260.013 200.284 260.06 200.567C260.107 200.849 260.098 201.138 260.033 201.417C259.968 201.695 259.849 201.959 259.683 202.191C259.516 202.424 259.305 202.622 259.062 202.773C258.82 202.924 258.549 203.026 258.267 203.072Z" fill="#26A69A"/>
<path d="M214.029 217.245C219.011 217.245 223.049 213.206 223.049 208.224C223.049 203.242 219.011 199.203 214.029 199.203C209.047 199.203 205.008 203.242 205.008 208.224C205.008 213.206 209.047 217.245 214.029 217.245Z" fill="#26A69A"/>
<path d="M100.82 78.5414C111.803 78.5414 120.707 69.6379 120.707 58.6548C120.707 47.6718 111.803 38.7683 100.82 38.7683C89.8371 38.7683 80.9336 47.6718 80.9336 58.6548C80.9336 69.6379 89.8371 78.5414 100.82 78.5414Z" fill="#005CD5" fill-opacity="0.4"/>
</g>
<defs>
<clipPath id="clip0">
<rect width="364.891" height="294.37" fill="white"/>
</clipPath>
</defs>
</svg>
