<svg width="67" height="67" viewBox="0 0 67 67" fill="none" xmlns="http://www.w3.org/2000/svg">
<path opacity="0.8" fill-rule="evenodd" clip-rule="evenodd" d="M1.23303e-05 66.9963C0.192162 66.9988 0.384652 67 0.57747 67C21.95 67 39.2759 52.0015 39.2759 33.5C39.2759 14.9985 21.95 -7.57338e-07 0.577473 -1.69156e-06C0.384655 -1.69999e-06 0.192165 0.00121906 1.52586e-05 0.00365213L1.23303e-05 66.9963Z" fill="#005FD5"/>
<path opacity="0.8" fill-rule="evenodd" clip-rule="evenodd" d="M67 0.0036562C66.8078 0.00122241 66.6154 1.69999e-06 66.4225 1.69156e-06C45.05 7.57338e-07 27.7241 14.9985 27.7241 33.5C27.7241 52.0015 45.05 67 66.4225 67C66.6154 67 66.8078 66.9988 67 66.9963L67 0.0036562Z" fill="#26A69A"/>
</svg>
