<svg width="53" height="56" viewBox="0 0 53 56" fill="none" xmlns="http://www.w3.org/2000/svg">
<path d="M19.906 47.9542L20.9339 48.267L20.9369 48.2682L22.3114 48.5893H22.3149L23.7065 48.8218H23.7094H23.7106L25.1127 48.9601C25.1151 48.9601 25.1186 48.9601 25.1186 48.9601L26.5267 49.0063H26.5291H26.5308L27.9371 48.9601C27.9395 48.9601 27.9418 48.9601 27.9442 48.9601L29.3475 48.8218H29.3511L30.7415 48.5893H30.745L32.1195 48.2682L32.123 48.267L33.1509 47.9542L40.8507 55.6807L40.8543 55.6819C40.8661 55.6925 40.8784 55.6979 40.8932 55.6979C40.8979 55.6979 40.9026 55.6967 40.9079 55.6955C40.9126 55.6943 40.915 55.6896 40.9197 55.686C40.9244 55.6837 40.9303 55.6848 40.9344 55.6801C40.9368 55.6778 40.9356 55.6754 40.9368 55.673C40.9427 55.6659 40.9439 55.6606 40.9462 55.6523C40.9474 55.6452 40.9497 55.6387 40.9486 55.6304C40.9486 55.6281 40.9509 55.6257 40.9497 55.6233L38.2998 45.4981L38.5315 45.355V45.3538L38.5338 45.3526L39.6802 44.5271L39.6814 44.5259L39.6837 44.5247L40.7729 43.6282L40.7741 43.627L40.7765 43.6258L41.8055 42.6589V42.6565L41.8079 42.6553L42.7716 41.6227L42.7727 41.6216L42.7751 41.6204L43.6686 40.5251L43.6698 40.5228H43.671L44.4932 39.3737L44.4944 39.3713L44.4955 39.3701L45.2405 38.1678V38.1666L45.2417 38.1643L45.9071 36.917V36.9159L45.9083 36.9135L46.4906 35.6243V35.6231L46.4918 35.6207L46.9881 34.2984V34.296L46.9893 34.2948L47.3989 32.9399V32.9376L47.4001 32.9352L47.7201 31.5596V31.5573L47.7213 31.5561L47.9517 30.1586L47.9506 30.1574L47.9517 30.1551L48.0897 28.7476L48.0885 28.7458L48.0897 28.744L48.1356 27.3294V27.3276V27.3253L48.1138 26.6611H52.1795C52.2119 26.6611 52.2384 26.6345 52.2384 26.602V26.3962C52.2384 26.3631 52.2119 26.3365 52.1795 26.3365H48.1032L48.0897 25.9107L48.0885 25.9095L48.0897 25.9071L47.9517 24.499L47.9506 24.4966L47.9517 24.4943L47.7213 23.0992L47.7201 23.0968V23.0956L47.4001 21.7177L47.3989 21.7165V21.7141L46.9893 20.3604L46.9881 20.3581V20.3569L46.4918 19.0322L46.4906 19.031V19.0286L45.9083 17.7406L45.9071 17.7382V17.737L45.2417 16.4886L45.2405 16.4868V16.4851L44.4955 15.2851L44.4944 15.2839L44.4932 15.2816L43.671 14.1313L43.6698 14.1301L43.6686 14.1278L42.7751 13.0337L42.7727 13.0325L42.7716 13.0313L41.8079 11.9988L41.8055 11.9976V11.9952L40.7765 11.0283H40.7741L40.7729 11.0259L39.6837 10.1282H39.6814L39.6802 10.1258L38.5338 9.30083H38.5326L38.5315 9.29847L37.3332 8.55213H37.3309L37.3297 8.55095L36.0867 7.88327L36.0843 7.88268L36.0831 7.8809L34.7982 7.29779H34.7959L34.7947 7.29661L33.4756 6.79747H33.4733L33.4721 6.79629L32.123 6.38646H32.1206L32.1195 6.38527L30.745 6.06415H30.7426L30.7415 6.06296L29.3511 5.83173L29.3487 5.83291L29.3475 5.83173L27.9442 5.69334H27.9418H27.9395L27.8805 5.69098L26.585 0.745172C26.5845 0.741623 26.5815 0.740441 26.5803 0.738075C26.578 0.733344 26.5762 0.729204 26.5727 0.725656C26.5697 0.720925 26.5668 0.718559 26.5627 0.715011C26.5579 0.711462 26.5544 0.709097 26.5497 0.707914C26.5467 0.706731 26.5456 0.703183 26.5432 0.702C26.5403 0.702 26.5379 0.703183 26.535 0.703183C26.5326 0.703183 26.5302 0.700226 26.5279 0.700226C26.5243 0.700226 26.5232 0.703183 26.5202 0.703183C26.5173 0.703183 26.5149 0.702 26.5126 0.702C26.509 0.703183 26.5078 0.706731 26.5055 0.707914C26.5002 0.709097 26.4966 0.711462 26.4931 0.715011C26.4884 0.718559 26.4854 0.720925 26.4825 0.725656C26.479 0.729795 26.4766 0.733935 26.4748 0.738075C26.4737 0.740441 26.4707 0.741623 26.4695 0.745172L25.177 5.69453L25.1163 5.69689H25.1145H25.1122L23.71 5.83528L23.7076 5.83646L23.7059 5.83528L22.3149 6.06651L22.3131 6.0677H22.3108L20.9369 6.38882L20.9351 6.39H20.9334L19.5842 6.79984L19.5825 6.80102H19.5801L18.2616 7.30015L18.2605 7.30134H18.2581L16.9738 7.88445L16.9726 7.88622L16.9703 7.88682L15.7261 8.5545L15.7249 8.55568H15.7231L14.5261 9.30202L14.5249 9.30438H14.5225L13.3762 10.1294L13.375 10.1317H13.3726L12.2834 11.0295L12.2828 11.0318H12.2811L11.2508 11.9988L11.2502 12.0011L11.2484 12.0023L10.2842 13.0349L10.2836 13.0361L10.2812 13.0372L9.38714 14.1313L9.38655 14.1337L9.38478 14.1349L8.56316 15.2851V15.2869L8.56081 15.2887L7.81581 16.4886V16.4904L7.81404 16.4922L7.1498 17.7406V17.7418L7.14803 17.7441L6.56571 19.0322V19.0345L6.56453 19.0357L6.06826 20.3604V20.3616L6.06708 20.364L5.65745 21.7177V21.7201L5.65628 21.7212L5.33623 23.0992V23.1004L5.33506 23.1027L5.10814 24.4966V24.499L5.10696 24.5014L4.96904 25.9095V25.9112L4.96845 25.913L4.95549 26.3388H0.878651C0.845645 26.3388 0.819122 26.3654 0.819122 26.3986V26.6044C0.819122 26.6369 0.845645 26.6635 0.878651 26.6635H4.94429L4.92248 27.3276L4.92366 27.33L4.92248 27.3312L4.96786 28.7464L4.96845 28.7476V28.7499L5.10637 30.1574L5.10755 30.1598V30.161L5.33682 31.5584L5.338 31.5596V31.562L5.65804 32.9376L5.65922 32.9399V32.9423L6.06885 34.2972L6.07003 34.2984V34.3007L6.5663 35.6231L6.56748 35.6254V35.6266L7.1498 36.9159L7.15157 36.9182V36.9194L7.81581 38.1666L7.81758 38.169V38.1702L8.56257 39.3725L8.56434 39.3737L8.56493 39.376L9.38655 40.5251H9.38831L9.3889 40.5275L10.283 41.6227L10.2854 41.6239L10.286 41.6251L11.2502 42.6577L11.252 42.6589L11.2526 42.6612L12.2828 43.6282L12.2846 43.6293L12.2852 43.6305L13.3744 44.5271L13.3767 44.5282L13.3779 44.5294L14.5243 45.355L14.5266 45.3562L14.5278 45.3574L14.7589 45.5005L12.1084 55.6257C12.1078 55.6281 12.1101 55.6304 12.1095 55.6328C12.1084 55.6411 12.1107 55.6476 12.1131 55.6547C12.1148 55.663 12.1166 55.6683 12.1213 55.6754C12.1225 55.6778 12.1225 55.6801 12.1243 55.6825C12.1284 55.6872 12.1343 55.686 12.1384 55.6884C12.1431 55.6919 12.1455 55.6967 12.1508 55.6979C12.1555 55.699 12.1608 55.7002 12.1655 55.7002C12.1797 55.7002 12.1932 55.6943 12.2033 55.6843L12.2068 55.6831L19.906 47.9542ZM25.1581 48.3285L23.789 48.1925L22.4369 47.9707L21.0996 47.6567L20.4117 47.4485L20.7277 47.1298L21.1998 47.2729L21.2027 47.2741L22.5118 47.5804H22.5153L23.8402 47.7998L23.8432 47.801H23.8444L25.1811 47.9329C25.1811 47.9329 25.1847 47.9329 25.187 47.9329L26.4701 47.9767V48.3717L25.1581 48.3285ZM26.5285 41.3105L32.2326 47.0352L31.8242 47.1599L30.5198 47.4651L29.2008 47.6833L27.864 47.8152L26.5285 47.8601L25.1911 47.8152L23.8556 47.6833L22.5365 47.4651L21.2316 47.1599L20.8225 47.0352L26.5285 41.3105ZM31.9568 47.6561L30.6189 47.9701L29.2674 48.1919L27.8988 48.3279L26.5874 48.3705V47.9755L27.8687 47.9317H27.8699C27.8699 47.9317 27.8735 47.9317 27.8758 47.9317L29.2137 47.7998L29.2173 47.7986L30.5411 47.5792H30.5422H30.5458L31.8536 47.2729L31.8572 47.2717L32.3293 47.1286L32.6446 47.4474L31.9568 47.6561ZM47.3234 30.0764L47.0989 31.4337L46.7883 32.7761L46.3887 34.0949L45.9065 35.3818L45.3401 36.6373L44.693 37.8503L43.9686 39.0206L43.1688 40.1401L42.2971 41.2064L41.3588 42.2112L40.3574 43.1515L39.2959 44.0262L38.1319 44.8636L38.0234 44.4525L39.0525 43.7121L39.0537 43.7109L39.056 43.7098L40.0957 42.8564V42.854H40.0981L41.0776 41.932L41.0788 41.9297L41.08 41.9285L41.9989 40.9456L42.0001 40.9444L42.0012 40.9432L42.8529 39.9V39.8977H42.8553L43.638 38.8024V38.8L43.6403 38.7988L44.3482 37.6551V37.6539L44.3505 37.6515L44.9836 36.4629V36.4617L44.9847 36.4593L45.5394 35.2328V35.2304L45.5405 35.2292L46.0138 33.9678V33.9666L46.015 33.9642L46.4052 32.6738L46.404 32.6726L46.4052 32.6703L46.7105 31.358V31.3556L46.7117 31.3544L46.9303 30.025V30.0226L46.9315 30.0202L47.0629 28.6807V28.6784V28.676L47.1066 27.3294V27.3282V27.3259L47.0836 26.6026V26.6002L47.0812 26.5588H47.4773L47.5014 27.3282L47.4578 28.7026L47.3234 30.0764ZM33.2841 26.3382L28.1888 6.87376L29.2008 6.9743L30.5198 7.19252L31.8242 7.49768L33.1067 7.88859L34.358 8.36052L35.578 8.91584L36.758 9.54863L37.8955 10.2571L38.9835 11.0395L40.0209 11.8929L40.9969 12.8113L41.9122 13.7907L42.7615 14.8303L43.5419 15.9232L44.2474 17.0634L44.8792 18.2474L45.4321 19.4728L45.903 20.7271L46.292 22.014L46.5961 23.3239L46.8148 24.6474L46.9462 25.9875L46.958 26.3382H33.2841ZM46.9675 26.6623L46.9893 27.3288L46.9456 28.6701L46.8142 30.0084L46.5955 31.3331L46.2914 32.6419L45.9024 33.9299L45.4315 35.1854L44.8786 36.4084L44.2468 37.5936L43.5413 38.7338L42.761 39.8255L41.9116 40.8664L40.9963 41.8457L40.0203 42.7641L38.9818 43.6175L37.9916 44.3289L33.3672 26.6623H46.9675ZM48.0855 26.544C48.0867 26.5423 48.0903 26.5411 48.0903 26.5411C48.095 26.5363 48.095 26.5287 48.0973 26.5227C48.1009 26.5145 48.1068 26.5091 48.1068 26.5009V26.4997V26.4985L48.1056 26.4571H52.1199V26.544H48.0855ZM47.2845 21.7484L47.6034 23.1228L47.8327 24.5138L47.9706 25.9201L47.9853 26.398V26.3991L47.9865 26.4411H47.5916L47.5757 25.9461V25.9444V25.9426L47.4407 24.5682L47.4396 24.5658V24.5635L47.215 23.2015L47.2138 23.2003V23.1979L46.902 21.8525L46.9009 21.8513V21.849L46.5012 20.5278L46.5001 20.5254V20.5243L46.0144 19.2315L46.0132 19.2297V19.2279L45.4456 17.97L45.4445 17.9677V17.9665L44.795 16.7476L44.7938 16.7465V16.7441L44.0676 15.5719L44.0653 15.5708V15.5684L43.2631 14.4459L43.2608 14.4448V14.4424L42.3873 13.3755L42.3861 13.3743L42.3849 13.3732L41.4443 12.366L41.4419 12.3648V12.3625L40.4358 11.4174H40.4334V11.4151L39.3696 10.5398H39.3672L39.366 10.5374L38.2474 9.73255H38.245L38.2438 9.73018L37.0757 9.00159L37.0733 9.001L37.0721 8.99922L35.8586 8.34869L35.8562 8.3481L35.855 8.34633L34.6014 7.77682L34.599 7.77623L34.5979 7.77445L33.3083 7.28833H33.3059L33.3047 7.28714L31.988 6.88618H31.9857L31.9845 6.885L30.6448 6.57215H30.6424L30.6401 6.57097L29.2827 6.34565L29.2803 6.34683L29.2792 6.34565L28.0161 6.22087L27.91 5.8134L27.9306 5.81458L29.3328 5.95296L30.7179 6.18302L32.0888 6.50296L33.4344 6.9122L34.7487 7.40956L36.0313 7.99149L37.2702 8.65681L38.4649 9.40078L39.6077 10.2234L40.6945 11.12L41.7201 12.0833L42.6814 13.1124L43.5737 14.2041L44.3936 15.3519L45.1362 16.5483L45.7993 17.7926L46.3792 19.0783L46.8732 20.3971L47.2845 21.7484ZM5.22425 24.5138L5.45352 23.1228L5.77238 21.7484L6.18142 20.3971L6.67593 19.0783L7.25707 17.7926L7.91837 16.5495L8.66218 15.3508L9.48144 14.2041L10.3738 13.1124L11.3345 12.0833L12.3606 11.12L13.4475 10.2234L14.5915 9.40078L15.785 8.65681L17.0251 7.99149L18.3064 7.40956L19.6208 6.91161L20.9664 6.50296L22.3367 6.18302L23.723 5.95296L25.1245 5.81458L25.1463 5.8134L25.0391 6.22087L23.7772 6.34565L23.7748 6.34683L23.7731 6.34565L22.4145 6.57097L22.4127 6.57215H22.4104L21.0707 6.885L21.0689 6.88618H21.0671L19.7504 7.28714L19.7487 7.28833H19.7469L18.4585 7.77445L18.4567 7.77623L18.4544 7.77682L17.2007 8.34633L17.1995 8.3481L17.1972 8.34869L15.983 8.99922L15.9819 9.001L15.9795 9.00159L14.8113 9.73018L14.8101 9.73255H14.8078L13.6891 10.5374L13.6879 10.5398H13.6856L12.6217 11.4151L12.6211 11.4174H12.6194L11.6145 12.3625L11.6133 12.3648L11.6115 12.366L10.6702 13.3732L10.6691 13.3743L10.6673 13.3755L9.79441 14.443L9.79382 14.4453L9.79205 14.4465L8.99106 15.569V15.5714L8.98871 15.5725L8.26139 16.7447V16.747L8.25963 16.7482L7.61129 17.9671V17.9683L7.60952 17.9706L7.04135 19.2285V19.2303L7.04017 19.2321L6.5551 20.5249V20.526L6.55392 20.5284L6.15431 21.8496V21.8519L6.15313 21.8531L5.84134 23.1985V23.2009L5.84017 23.2021L5.61561 24.5641L5.6162 24.5664L5.61561 24.5688L5.48005 25.9432L5.48123 25.9455L5.48005 25.9467L5.46413 26.4417H5.04979L5.05274 26.4399C5.05686 26.4364 5.05686 26.4305 5.05922 26.4263C5.06393 26.4175 5.07042 26.4104 5.07101 26.3997V26.3986L5.08574 25.9207L5.22425 24.5138ZM6.24213 24.648L6.46021 23.3245L6.76433 22.0146L7.15275 20.7277L7.62426 19.4734L8.17711 18.248L8.80835 17.064L9.51562 15.9238L10.2948 14.8309L11.1453 13.7913L12.0594 12.8119L13.0361 11.8935L14.0722 11.0401L15.162 10.2577L16.2984 9.54922L17.4783 8.91643L18.6984 8.36111L19.9497 7.88918L21.2322 7.49827L22.5371 7.19311L23.8562 6.97489L24.8676 6.87435L19.7723 26.3382H6.0995L6.1107 25.9875L6.24213 24.648ZM15.0636 44.3289L14.0734 43.6175L13.0361 42.7641L12.0594 41.8457L11.1453 40.8664L10.2954 39.8255L9.51621 38.735L8.80776 37.5924L8.17711 36.4084L7.62426 35.1854L7.15275 33.9299L6.76433 32.6419L6.46021 31.3331L6.24213 30.0084L6.11011 28.6701L6.06649 27.3288L6.0883 26.6623H19.688L15.0636 44.3289ZM19.7198 26.544H6.07356L6.07651 26.5423C6.08064 26.5387 6.08064 26.5316 6.08358 26.5269C6.08771 26.5192 6.09419 26.5127 6.09478 26.5026V26.5009L6.09596 26.4571H19.7422L19.7198 26.544ZM5.98928 26.5594C5.97926 26.5701 5.97396 26.5848 5.97337 26.6008V26.6032L5.9492 27.3264L5.94979 27.3288L5.9492 27.3306L5.99341 28.6772L5.99459 28.679L5.99341 28.6813L6.12602 30.0208L6.12661 30.0232L6.12602 30.0256L6.34469 31.355L6.34587 31.3562V31.3586L6.65117 32.6708L6.65235 32.6732V32.6744L7.04135 33.9648L7.04253 33.9672V33.9684L7.51581 35.2298L7.51699 35.231V35.2334L8.07102 36.4599L8.07279 36.4623V36.4634L8.7058 37.6521L8.70757 37.6545L8.70815 37.6557L9.4172 38.7994L9.41896 38.8006L9.41955 38.803L10.2011 39.8982H10.2029L10.2034 39.9006L11.0551 40.9438L11.0575 40.945L11.0581 40.9462L11.9758 41.9291L11.9775 41.9303L11.9787 41.9326L12.9583 42.8546H12.9606L12.9618 42.857L14.0003 43.7104L14.0027 43.7115L14.0033 43.7127L15.0329 44.4531L14.9257 44.86L14.8779 44.831L13.7604 44.0273L12.6989 43.1527L11.6976 42.2124L10.7592 41.2076L9.88753 40.1413L9.0889 39.0218L8.36395 37.8514L7.71797 36.6385L7.15039 35.383L6.66767 34.0961L6.26866 32.7773L5.95804 31.4348L5.73408 30.0776L5.5991 28.7044L5.55549 27.33L5.57965 26.5606H5.98928V26.5594ZM4.97022 26.4565L4.96727 26.4577C4.96315 26.4624 4.96315 26.4695 4.9602 26.4737C4.95549 26.4819 4.94959 26.4884 4.949 26.4979V26.5003L4.94723 26.5434H0.937001V26.4565H4.97022Z" fill="#E4EDF8"/>
</svg>
