<svg width="24" height="25" viewBox="0 0 24 25" fill="none" xmlns="http://www.w3.org/2000/svg">
<path d="M7.17138 19.8008C6.74137 20.2955 6.02489 20.6984 5.45107 20.9663C5.11128 21.1249 4.76047 20.7673 4.92505 20.4303C4.95689 20.3651 4.9897 20.3006 5.02345 20.2367C4.65517 20.5301 3.97563 20.8408 3.42873 21.0644C3.10255 21.1978 2.77803 20.8736 2.9113 20.5474C3.13379 20.0027 3.44271 19.3264 3.73551 18.9567C3.67439 18.9894 3.60096 19.0246 3.52143 19.0604C3.17834 19.2152 2.83525 18.8564 3.00051 18.5183C3.30839 17.8884 3.70653 17.3169 4.18334 16.8128L7.17138 19.8008Z" fill="#FBB732"/>
<path d="M8.38802 7.16308C7.38542 8.46294 6.55715 9.88558 5.90724 11.3955C5.89535 11.4193 5.88744 11.4431 5.87949 11.4668C4.11995 11.019 2.24949 11.1022 0.529546 11.7125C0.168945 11.8394 -0.144143 11.4272 0.0698702 11.1142C0.382921 10.6624 0.735646 10.2383 1.13986 9.83413C3.12132 7.85267 5.78836 6.96099 8.38802 7.16308Z" fill="#223044"/>
<path d="M14.166 22.8642C13.7657 23.2645 13.3377 23.6211 12.8899 23.9302C12.5768 24.1482 12.1647 23.8351 12.2915 23.4745C12.9018 21.7546 12.985 19.888 12.5372 18.1285C12.561 18.1166 12.5887 18.1086 12.6125 18.0968C14.1224 17.4468 15.5451 16.6146 16.837 15.608C17.047 18.2038 16.1553 20.8748 14.166 22.8642Z" fill="#223044"/>
<path d="M6.64831 11.1973L12.8067 17.3557C12.664 17.423 12.5213 17.4865 12.3747 17.5499C11.2413 18.0373 10.0524 18.4177 8.82395 18.6833L5.32471 15.1801C5.58623 13.9516 5.96671 12.7587 6.45413 11.6293C6.51758 11.4827 6.58096 11.34 6.64831 11.1973Z" fill="#223044"/>
<path d="M15.4816 8.61747C14.8138 7.87545 13.6791 7.83788 12.9533 8.49462C12.2056 9.18338 12.1822 10.3064 12.8344 11.0229L12.8938 11.0824C13.5358 11.7405 14.6232 11.8115 15.3627 11.1458C16.0798 10.4852 16.159 9.36169 15.4816 8.61747ZM14.6811 10.3968C14.372 10.6782 13.9004 10.6663 13.6071 10.3731L13.5794 10.3453C13.2901 10.0283 13.3139 9.53292 13.6309 9.24361C13.94 8.96224 14.4116 8.97413 14.7089 9.26738L14.7326 9.29513C15.0307 9.61804 14.9928 10.1171 14.6811 10.3968Z" fill="#005FD5"/>
<path d="M21.4419 9.32685C21.4617 9.34665 21.4815 9.36252 21.5053 9.37043C20.2887 11.5144 18.6718 13.3968 16.7577 14.9225C15.7155 15.7586 14.5821 16.4839 13.3774 17.0822L10.3457 14.0546L12.6997 11.7045C13.5834 12.3981 14.8793 12.3822 15.763 11.5857C16.6903 10.7376 16.7973 9.33075 16.0404 8.35984L18.2557 6.14062L21.4419 9.32685Z" fill="#223044"/>
<path d="M14.6732 2.55817L17.8356 5.72059L15.6163 7.9398C14.7088 7.22648 13.409 7.278 12.553 8.0547C11.6415 8.88297 11.5028 10.2898 12.2755 11.2805L9.92553 13.6345L6.92163 10.6346C7.51608 9.42585 8.24527 8.29249 9.08141 7.24628C9.52923 6.6756 10.0127 6.13271 10.5279 5.61754C11.7445 4.40092 13.1196 3.34676 14.6255 2.49078C14.6375 2.5146 14.6534 2.53837 14.6732 2.55817Z" fill="#223044"/>
<path d="M23.9998 0.408311C23.9237 3.44525 23.1367 6.31476 21.7984 8.84342L15.1566 2.20153C17.689 0.863299 20.555 0.0762854 23.5917 0.000122789C23.8171 -0.00550222 24.0055 0.182898 23.9998 0.408311Z" fill="#223044"/>
<path d="M8.37618 19.0756L7.82932 19.6185L4.35779 16.1471L4.90469 15.6041L8.37618 19.0756Z" fill="#F67B99"/>
</svg>
