<svg width="24" height="24" viewBox="0 0 24 24" fill="none" xmlns="http://www.w3.org/2000/svg">
<path d="M4 22H19V4.52147L16.7335 2H4V22Z" fill="white"/>
<path d="M5 22H19V7.5L13.8667 2H5V22Z" fill="white" stroke="black"/>
<path d="M16 5L14 2.5L13 2V8H19L16 5Z" fill="black"/>
<path d="M12.0638 14.9763C12.0638 14.9763 12.2259 15.5373 12.2553 15.6818C12.2847 15.8263 12.3895 16.368 12.4028 16.5734C12.4231 16.8871 12.2676 17.5092 12.4037 17.6024C12.5396 17.6959 12.3697 19.9398 12.3441 19.9736C12.3186 20.0077 11.7323 20.1607 11.6897 20.1436C11.6473 20.1266 11.3923 20.1123 11.3753 20.1452C11.3582 20.1777 12.1782 20.2179 12.4559 20.1452C12.5901 20.1098 12.5055 19.8378 12.4971 19.7784C12.4971 19.7784 12.6246 17.8317 12.6246 17.5812C12.6246 17.5812 12.786 17.5344 12.5821 16.9479C12.512 16.7468 12.4895 15.5145 12.6009 15.1956L12.0638 14.9763Z" fill="black"/>
<path d="M13.0412 15.087C13.0412 15.087 13.6447 15.6989 13.9591 15.886C14.2325 16.0486 14.1376 16.226 13.9081 16.3108C13.9081 16.3108 12.6418 16.7102 12.1234 17.2373V17.5006C12.1234 17.5006 12.0469 17.4074 11.8259 18.3336C11.8259 18.3336 11.6815 17.7471 11.8259 17.4072C11.9702 17.0673 12.2168 16.8887 13.721 16.0388C13.721 16.0388 12.6418 15.1464 12.5993 15.121L13.0412 15.087Z" fill="black"/>
<path d="M10.3682 10.2736C10.3682 10.2736 10.1003 10.591 10.0067 10.7014C9.91325 10.8119 9.96425 11.4154 10.1087 11.5596C10.1087 11.5596 10.2107 11.4662 10.2957 10.9902C10.2957 10.9902 10.5082 10.8713 10.5592 10.6588L10.3682 10.2736Z" fill="black"/>
<path d="M10.3383 10.3786C10.3383 10.3786 10.398 9.9707 10.7973 9.9707C11.1968 9.9707 11.4547 10.1953 11.5453 10.6932C11.6218 11.1139 11.7238 11.5516 10.8057 12.2485C9.88785 12.9454 10.245 13.6337 10.3044 13.7017C10.3639 13.7697 10.6297 13.9738 10.8877 13.4383C11.1458 12.9029 12.3952 11.8745 14.0439 13.3363C15.2002 14.3615 14.7748 14.8576 14.7748 14.8576C14.7748 14.8576 13.8314 14.5348 13.5596 14.6962C13.5596 14.6962 13.585 14.8236 13.534 14.934C13.534 14.934 12.4123 15.6055 11.7322 14.7981C11.7322 14.7981 9.79461 14.5941 9.72657 13.4043C9.68349 12.6508 10.6027 11.9596 10.6027 11.9596C10.6027 11.9596 11.6983 11.1179 11.1289 10.5911C11.1289 10.5911 10.8154 11.0181 10.4743 10.7439C10.2918 10.5973 10.3383 10.3786 10.3383 10.3786Z" fill="black"/>
<path d="M10.4148 10.5824C10.4148 10.5824 10.1938 10.7013 10.1003 10.8118C10.1003 10.8118 10.0514 10.8588 10.0152 10.8482C9.96857 10.8344 9.96989 10.8049 9.96989 10.8049C9.96989 10.8049 9.92081 11.2616 10.103 11.5531C10.103 11.5531 10.1954 11.4654 10.2615 11.16C10.2615 11.16 10.094 11.1951 10.1301 10.8417C10.1408 10.7377 10.4148 10.5824 10.4148 10.5824Z" fill="black"/>
<path d="M10.6655 10.3981C10.7054 10.3981 10.7377 10.3658 10.7377 10.3259C10.7377 10.286 10.7054 10.2537 10.6655 10.2537C10.6256 10.2537 10.5933 10.286 10.5933 10.3259C10.5933 10.3658 10.6256 10.3981 10.6655 10.3981Z" fill="black"/>
<path d="M10.6763 10.3615C10.6962 10.3615 10.7124 10.3454 10.7124 10.3254C10.7124 10.3055 10.6962 10.2893 10.6763 10.2893C10.6563 10.2893 10.6401 10.3055 10.6401 10.3254C10.6401 10.3454 10.6563 10.3615 10.6763 10.3615Z" fill="black"/>
<path d="M12.2865 14.2072C11.9617 14.1554 11.8821 13.7168 11.8813 13.7123L11.9065 13.7079C11.9073 13.7121 11.9838 14.1329 12.2905 14.182L12.2865 14.2072Z" fill="black"/>
<path d="M12.6001 14.3827C12.5269 14.3827 12.4587 14.3614 12.3965 14.3189C12.1537 14.1541 12.0814 13.7302 12.0786 13.7123L12.1037 13.7083C12.1044 13.7126 12.1771 14.1393 12.4109 14.2981C12.4915 14.3529 12.5831 14.3697 12.6829 14.348L12.6883 14.3729C12.658 14.3795 12.6287 14.3827 12.6001 14.3827Z" fill="black"/>
<path d="M12.8893 14.4186C12.7978 14.4186 12.7168 14.3934 12.6472 14.3433C12.3786 14.1493 12.3755 13.6547 12.3755 13.6337H12.4013C12.4013 13.6386 12.4042 14.1363 12.6622 14.3227C12.7732 14.4027 12.9163 14.4145 13.0883 14.3577L13.0963 14.3819C13.0224 14.4063 12.9533 14.4186 12.8893 14.4186Z" fill="black"/>
<path d="M13.1365 14.3727C13.1035 14.3727 13.0709 14.3651 13.0389 14.35C12.8094 14.2425 12.6801 13.7842 12.6729 13.7114L12.6983 13.7089C12.7049 13.7767 12.8335 14.2257 13.0495 14.327C13.122 14.3609 13.1983 14.3515 13.2765 14.2988L13.2904 14.3199C13.2387 14.3549 13.1872 14.3727 13.1365 14.3727Z" fill="black"/>
<path d="M13.3234 14.306C13.315 14.306 13.3062 14.3051 13.298 14.3034C13.1033 14.2652 12.9771 13.7972 12.9717 13.7774L12.9964 13.7708C12.9976 13.7754 13.1238 14.2432 13.3028 14.2784C13.3559 14.2889 13.4102 14.2581 13.4643 14.187L13.4844 14.2023C13.4324 14.2713 13.3782 14.306 13.3234 14.306Z" fill="black"/>
<path d="M13.5128 14.2031C13.5019 14.2031 13.4909 14.2017 13.48 14.1993C13.3154 14.1618 13.2214 13.8545 13.2173 13.8414L13.2418 13.834C13.2426 13.8371 13.3356 14.1402 13.4857 14.1744C13.5406 14.1869 13.5983 14.1609 13.6565 14.0969L13.6753 14.1141C13.6213 14.1732 13.5668 14.2031 13.5128 14.2031Z" fill="black"/>
</svg>
