<svg width="24" height="24" viewBox="0 0 24 24" fill="none" xmlns="http://www.w3.org/2000/svg">
<path d="M4 22H19V4.52147L16.7335 2H4V22Z" fill="white"/>
<path d="M5 22H19V7.5L13.8667 2H5V22Z" fill="white" stroke="black"/>
<path d="M16 5L14 2.5L13 2V8H19L16 5Z" fill="black"/>
<path d="M12.1156 15.2525C11.9045 15.2076 11.7312 15.1366 11.5955 15.0393V14.826C11.7462 14.9233 11.9309 14.9944 12.1495 15.0393C12.3756 13.6626 12.5452 12.8432 12.6583 12.5814C12.7714 12.3195 12.8844 12.0913 12.9975 11.8967C13.2236 11.5301 13.5289 11.3468 13.9133 11.3468C14.0188 11.3468 14.0905 11.3917 14.1281 11.4815L14.1394 11.5376C13.9585 11.5376 13.8003 11.5975 13.6646 11.7172C13.5289 11.8369 13.4196 11.9828 13.3367 12.1549C13.2613 12.327 13.1935 12.5664 13.1332 12.8732C13.0352 13.3595 12.9673 13.801 12.9296 14.1975C12.892 14.5941 12.8731 14.8036 12.8731 14.826C12.8731 14.9083 12.8656 14.9869 12.8505 15.0617C13.1746 15.0168 13.4648 14.9308 13.7211 14.8036C13.7663 14.3472 13.8907 13.9469 14.0942 13.6027C14.2977 13.251 14.554 13.0752 14.8631 13.0752C15.0515 13.0752 15.1457 13.1762 15.1457 13.3782C15.1457 13.7748 14.9196 14.1713 14.4673 14.5679C14.3693 14.6577 14.2638 14.74 14.1508 14.8148C14.1281 14.9719 14.1168 15.1141 14.1168 15.2413C14.1168 15.795 14.2525 16.0718 14.5239 16.0718C14.5163 16.1616 14.4523 16.2065 14.3317 16.2065C14.1281 16.2065 13.9736 16.098 13.8681 15.881C13.7626 15.664 13.7098 15.3872 13.7098 15.0505C13.4384 15.1702 13.1445 15.245 12.8279 15.275C12.6394 16.8687 12.3982 17.9424 12.1043 18.4961C11.9611 18.7654 11.7877 19.0236 11.5842 19.2705C11.1847 19.7568 10.593 20 9.80905 20C9.42462 20 9.09296 19.9252 8.81407 19.7755C8.54271 19.6334 8.34673 19.4426 8.22613 19.2031C8.07538 18.8964 8 18.6046 8 18.3277C8 18.0509 8.04146 17.789 8.12437 17.5421C8.20729 17.2877 8.32035 17.0445 8.46357 16.8126C8.61432 16.5731 8.8103 16.3823 9.05151 16.2402C9.29271 16.0905 9.54899 16.0157 9.82035 16.0157C9.96357 16.0157 10.0653 16.0681 10.1256 16.1728L10.1595 16.229C9.52638 16.229 9.02513 16.517 8.65578 17.0932C8.41457 17.4747 8.29397 17.8676 8.29397 18.2716C8.29397 18.3988 8.30905 18.5297 8.3392 18.6644C8.44472 19.2106 8.74623 19.5398 9.24372 19.6521C9.36432 19.682 9.52638 19.697 9.7299 19.697C9.93342 19.697 10.1482 19.6409 10.3744 19.5286C10.6005 19.4239 10.7965 19.2555 10.9623 19.0236C11.1281 18.7841 11.2676 18.5447 11.3807 18.3053C11.5013 18.0658 11.6106 17.7516 11.7085 17.3625C11.8442 16.7789 11.9799 16.0756 12.1156 15.2525ZM16.6269 10C16.8756 10 17 10.1459 17 10.4377C17 10.6622 16.8794 10.8717 16.6382 11.0662C16.4045 11.2533 16.0314 11.3468 15.5188 11.3468C15.0138 11.3468 14.3241 11.2084 13.4497 10.9315C12.5754 10.6547 11.9121 10.5163 11.4598 10.5163C10.4874 10.5163 9.7299 10.9016 9.18719 11.6723C8.81784 12.196 8.63317 12.7572 8.63317 13.3558C8.63317 14.2088 8.92714 14.7737 9.51508 15.0505C9.71859 15.1478 9.94849 15.1964 10.2048 15.1964C10.2048 15.2488 10.1746 15.3049 10.1143 15.3648C10.054 15.4246 9.98618 15.4545 9.9108 15.4545C9.11935 15.4545 8.5691 15.1291 8.26005 14.4781C8.11683 14.1713 8.04523 13.8496 8.04523 13.5129C8.04523 13.1762 8.11307 12.8208 8.24874 12.4467C8.54271 11.6386 9.06658 11.04 9.82035 10.651C10.3103 10.404 10.8266 10.2806 11.3693 10.2806C11.9196 10.2806 12.598 10.404 13.4045 10.651C14.2186 10.8904 14.8405 11.0101 15.2701 11.0101C15.9183 11.0101 16.2915 10.8605 16.3894 10.5612C16.4422 10.419 16.4271 10.3255 16.3442 10.2806C16.3291 10.2731 16.3178 10.2694 16.3103 10.2694C16.3555 10.0898 16.4611 10 16.6269 10ZM14.8518 13.2884C14.7236 13.2884 14.5992 13.4082 14.4786 13.6476C14.358 13.8795 14.2638 14.1639 14.196 14.5006C14.5729 14.2013 14.8103 13.8795 14.9083 13.5354C14.9234 13.4755 14.9309 13.4194 14.9309 13.367C14.9309 13.3146 14.9045 13.2884 14.8518 13.2884Z" fill="black"/>
</svg>
