<svg width="30" height="30" viewBox="0 0 30 30" fill="none" xmlns="http://www.w3.org/2000/svg">
<path d="M24.5524 11.8046L24.4302 11.7578L23.9466 10.58L23.9986 10.4578C25.4598 7.0778 25.3584 6.9712 25.114 6.7268L23.164 4.782C23.071 4.69615 22.9499 4.64716 22.8234 4.6442C22.7168 4.6442 22.3814 4.6442 19.498 5.978L19.381 6.03L18.198 5.5464L18.146 5.4242C16.7914 2 16.6536 2 16.3156 2H13.5596C13.2242 2 13.0734 2 11.815 5.432L11.7682 5.5594L10.58 6.0508L10.4682 6.004C8.5182 5.1668 7.382 4.7404 7.0882 4.7404C6.96168 4.74336 6.84058 4.79235 6.7476 4.8782L4.7924 6.8282C4.5324 7.0882 4.4414 7.1844 5.9806 10.4968L6.0352 10.619L5.5542 11.7916L5.4372 11.8384C2 13.18 2 13.323 2 13.6792V16.4352C2 16.7914 2 16.937 5.4398 18.1954L5.562 18.2422L6.0534 19.42L6.0014 19.5422C4.5402 22.9222 4.6312 23.0184 4.8808 23.2732L6.8308 25.218C6.92511 25.305 7.04828 25.3541 7.1766 25.3558C7.2832 25.3558 7.6186 25.3558 10.502 24.0272L10.619 23.9726L11.8072 24.464L11.854 24.5862C13.2034 28 13.3464 28 13.6792 28H16.4352C16.781 28 16.9214 28 18.1798 24.568L18.2266 24.4406L19.42 23.9492L19.5318 23.996C21.4818 24.8384 22.618 25.2596 22.9118 25.2596C23.0405 25.2597 23.1643 25.2104 23.2576 25.1218L25.2128 23.1666C25.4572 22.9066 25.5638 22.8104 24.0194 19.5032L23.9648 19.3758L24.4458 18.2032L24.5628 18.1564C28 16.7992 28 16.6666 28 16.3V13.5622C28 13.206 28 13.063 24.5524 11.8046ZM15 18.5698C14.2945 18.5672 13.6056 18.3557 13.0203 17.9619C12.4349 17.5681 11.9794 17.0096 11.7112 16.3571C11.443 15.7046 11.3742 14.9872 11.5134 14.2956C11.6526 13.604 11.9936 12.9692 12.4934 12.4712C12.9931 11.9733 13.6292 11.6346 14.3213 11.4979C15.0135 11.3612 15.7306 11.4326 16.3821 11.7032C17.0336 11.9738 17.5904 12.4313 17.9821 13.0181C18.3738 13.6048 18.5828 14.2945 18.5828 15C18.58 15.9482 18.2013 16.8565 17.5296 17.5258C16.8579 18.195 15.9482 18.5705 15 18.5698V18.5698Z" fill="#9B9B9B"/>
</svg>
