<svg width="143" height="113" viewBox="0 0 143 113" fill="none" xmlns="http://www.w3.org/2000/svg">
<g clip-path="url(#clip0)">
<path d="M12.5638 96.8905C12.8787 96.3408 13.0414 95.7171 13.035 95.0836C13.035 93.451 12.0263 92.1267 10.777 92.1267C9.52767 92.1267 8.51899 93.451 8.51899 95.0836C8.51257 95.7171 8.67523 96.3408 8.99019 96.8905C8.68123 97.4427 8.519 98.0648 8.519 98.6975C8.519 99.3302 8.68123 99.9524 8.99019 100.504C8.68123 101.057 8.519 101.679 8.519 102.311C8.519 102.944 8.68123 103.566 8.99019 104.118C8.68123 104.671 8.519 105.293 8.519 105.925C8.519 106.558 8.68123 107.18 8.99019 107.732C8.67503 108.282 8.51236 108.906 8.51899 109.539C8.51899 111.172 9.52767 112.495 10.777 112.495C12.0263 112.495 13.035 111.172 13.035 109.539C13.0414 108.906 12.8787 108.283 12.5638 107.734C12.8727 107.182 13.035 106.56 13.035 105.927C13.035 105.294 12.8727 104.672 12.5638 104.12C12.8727 103.568 13.035 102.946 13.035 102.313C13.035 101.68 12.8727 101.058 12.5638 100.506C12.8727 99.9538 13.035 99.3317 13.035 98.699C13.035 98.0663 12.8727 97.4441 12.5638 96.892V96.8905Z" fill="#3F3D56"/>
<path d="M10.7697 94.4265C12.0168 94.4265 13.0277 93.1027 13.0277 91.4696C13.0277 89.8366 12.0168 88.5128 10.7697 88.5128C9.52266 88.5128 8.51172 89.8366 8.51172 91.4696C8.51172 93.1027 9.52266 94.4265 10.7697 94.4265Z" fill="#3F3D56"/>
<path d="M10.7697 90.8125C12.0168 90.8125 13.0277 89.4887 13.0277 87.8557C13.0277 86.2226 12.0168 84.8988 10.7697 84.8988C9.52266 84.8988 8.51172 86.2226 8.51172 87.8557C8.51172 89.4887 9.52266 90.8125 10.7697 90.8125Z" fill="#3F3D56"/>
<path d="M2.31415 63.1273C2.00632 62.7337 1.72564 62.3197 1.47406 61.888L7.40796 60.9139L0.9899 60.9615C0.374331 59.6218 0.0385607 58.1705 0.00313029 56.6966C-0.0323001 55.2226 0.233354 53.7569 0.783842 52.3892L9.39361 56.8562L1.45245 51.0188C2.19411 49.7288 3.19386 48.6057 4.38923 47.7196C5.5846 46.8335 6.94989 46.2034 8.39978 45.8688C9.84966 45.5342 11.353 45.5023 12.8158 45.775C14.2786 46.0477 15.6694 46.6192 16.9013 47.4537C18.1333 48.2882 19.1798 49.3679 19.9756 50.6252C20.7714 51.8825 21.2993 53.2904 21.5263 54.761C21.7534 56.2316 21.6747 57.7332 21.2951 59.1719C20.9156 60.6107 20.2433 61.9557 19.3204 63.1229C19.801 63.7345 20.2145 64.3958 20.5539 65.0956L12.8519 69.1015L21.0654 66.3449C21.642 68.05 21.7845 69.8719 21.48 71.6458C21.1756 73.4198 20.4339 75.0899 19.3219 76.5052C20.5777 78.1009 21.359 80.0177 21.5766 82.0366C21.7942 84.0554 21.4393 86.0948 20.5524 87.9214C19.6655 89.748 18.2824 91.2882 16.5614 92.3657C14.8403 93.4433 12.8507 94.0147 10.8202 94.0147C8.78961 94.0147 6.80004 93.4433 5.07899 92.3657C3.35793 91.2882 1.97486 89.748 1.08795 87.9214C0.201042 86.0948 -0.153906 84.0554 0.0637012 82.0366C0.281308 80.0177 1.06268 78.1009 2.31847 76.5052C0.819357 74.5978 0.00441875 72.2422 0.00441875 69.8162C0.00441875 67.3903 0.819357 65.0346 2.31847 63.1273H2.31415Z" fill="#57B894"/>
<path opacity="0.1" d="M21.642 69.8162C21.6457 72.2428 20.8303 74.5996 19.3278 76.5052C20.5836 78.1008 21.365 80.0177 21.5826 82.0366C21.8002 84.0554 21.4452 86.0948 20.5583 87.9214C19.6714 89.748 18.2883 91.2882 16.5673 92.3657C14.8462 93.4433 12.8567 94.0147 10.8261 94.0147C8.79554 94.0147 6.80597 93.4433 5.08492 92.3657C3.36386 91.2882 1.98079 89.748 1.09388 87.9214C0.206974 86.0948 -0.147973 84.0554 0.069634 82.0366C0.287241 80.0177 1.06862 78.1008 2.3244 76.5052C0.864705 74.6636 21.642 68.6015 21.642 69.8162Z" fill="black"/>
<path d="M128.858 100.692C129.098 100.274 129.222 99.7991 129.217 99.3171C129.217 98.075 128.449 97.0692 127.5 97.0692C126.55 97.0692 125.782 98.0779 125.782 99.3171C125.777 99.7991 125.901 100.274 126.141 100.692C125.905 101.112 125.782 101.585 125.782 102.066C125.782 102.548 125.905 103.021 126.141 103.441C125.905 103.861 125.782 104.334 125.782 104.816C125.782 105.297 125.905 105.771 126.141 106.191C125.905 106.61 125.782 107.083 125.782 107.564C125.782 108.046 125.905 108.519 126.141 108.938C125.901 109.357 125.777 109.831 125.782 110.313C125.782 111.555 126.551 112.562 127.5 112.562C128.448 112.562 129.217 111.554 129.217 110.313C129.222 109.831 129.098 109.357 128.858 108.938C129.094 108.519 129.217 108.046 129.217 107.564C129.217 107.083 129.094 106.61 128.858 106.191C129.094 105.771 129.217 105.297 129.217 104.816C129.217 104.334 129.094 103.861 128.858 103.441C129.094 103.021 129.217 102.548 129.217 102.066C129.217 101.585 129.094 101.112 128.858 100.692Z" fill="#3F3D56"/>
<path d="M127.5 98.8185C128.448 98.8185 129.217 97.8114 129.217 96.5692C129.217 95.3269 128.448 94.3198 127.5 94.3198C126.551 94.3198 125.782 95.3269 125.782 96.5692C125.782 97.8114 126.551 98.8185 127.5 98.8185Z" fill="#3F3D56"/>
<path d="M127.5 96.0692C128.448 96.0692 129.217 95.0621 129.217 93.8199C129.217 92.5776 128.448 91.5705 127.5 91.5705C126.551 91.5705 125.782 92.5776 125.782 93.8199C125.782 95.0621 126.551 96.0692 127.5 96.0692Z" fill="#3F3D56"/>
<path d="M121.069 75.0095C120.834 74.7105 120.62 74.3956 120.429 74.0671L124.943 73.325L120.06 73.3625C119.592 72.343 119.337 71.239 119.31 70.1177C119.283 68.9965 119.485 67.8814 119.903 66.8407L126.453 70.2399L120.413 65.8017C120.979 64.8247 121.741 63.9748 122.65 63.3047C123.559 62.6347 124.596 62.159 125.697 61.9071C126.798 61.6553 127.939 61.6327 129.049 61.8408C130.159 62.049 131.214 62.4833 132.149 63.1169C133.084 63.7504 133.878 64.5696 134.483 65.5235C135.088 66.4773 135.489 67.5454 135.663 68.6612C135.837 69.777 135.78 70.9167 135.494 72.0094C135.209 73.102 134.702 74.1242 134.004 75.0124C134.37 75.4771 134.685 75.98 134.944 76.5124L129.083 79.5572L135.334 77.4562C135.774 78.7533 135.882 80.1395 135.651 81.4892C135.419 82.8389 134.854 84.1094 134.007 85.1856C134.962 86.3994 135.556 87.8574 135.721 89.393C135.887 90.9285 135.616 92.4796 134.942 93.8689C134.267 95.2581 133.215 96.4295 131.906 97.249C130.597 98.0685 129.084 98.5031 127.539 98.5031C125.995 98.5031 124.481 98.0685 123.172 97.249C121.863 96.4295 120.811 95.2581 120.137 93.8689C119.462 92.4796 119.192 90.9285 119.357 89.393C119.522 87.8574 120.116 86.3994 121.071 85.1856C119.931 83.7349 119.31 81.943 119.31 80.0975C119.31 78.252 119.931 76.4601 121.071 75.0095H121.069Z" fill="#57B894"/>
<path opacity="0.1" d="M135.767 80.0975C135.769 81.9437 135.148 83.7366 134.004 85.1856C134.959 86.3994 135.553 87.8574 135.719 89.393C135.884 90.9285 135.614 92.4796 134.939 93.8689C134.264 95.2581 133.212 96.4295 131.903 97.249C130.594 98.0685 129.081 98.5031 127.536 98.5031C125.992 98.5031 124.479 98.0685 123.17 97.249C121.861 96.4295 120.809 95.2581 120.134 93.8689C119.459 92.4796 119.189 90.9285 119.354 89.393C119.52 87.8574 120.114 86.3994 121.069 85.1856C119.965 83.785 135.767 79.1739 135.767 80.0975Z" fill="black"/>
<path d="M114.681 28.9692H85.8282V22.7298C85.8284 22.5337 85.7899 22.3395 85.7149 22.1583C85.64 21.9771 85.53 21.8124 85.3914 21.6738C85.2527 21.5351 85.0881 21.4252 84.9068 21.3502C84.7256 21.2752 84.5314 21.2368 84.3353 21.237H75.8639V14.5898C75.8639 14.3406 75.7649 14.1016 75.5887 13.9254C75.4125 13.7493 75.1736 13.6503 74.9244 13.6503H64.0062C63.7571 13.6506 63.5184 13.7498 63.3423 13.9259C63.1662 14.102 63.0671 14.3407 63.0667 14.5898V21.237H53.1111C52.9146 21.2364 52.7201 21.2746 52.5384 21.3493C52.3568 21.4241 52.1917 21.534 52.0527 21.6727C51.9136 21.8113 51.8032 21.9761 51.7279 22.1575C51.6526 22.3389 51.6139 22.5334 51.6139 22.7298V28.9648H24.1073C24.0269 28.9652 23.9499 28.9974 23.8932 29.0544C23.8365 29.1114 23.8047 29.1885 23.8047 29.2689V112.111C23.8047 112.192 23.8365 112.269 23.8932 112.326C23.9499 112.383 24.0269 112.415 24.1073 112.415H42.3917C42.4722 112.415 42.5493 112.383 42.6063 112.326C42.6632 112.269 42.6954 112.192 42.6957 112.111V100.961C42.6961 100.881 42.7283 100.804 42.7852 100.747C42.8422 100.69 42.9193 100.658 42.9998 100.657H50.7234C50.8038 100.658 50.8807 100.69 50.9374 100.747C50.9941 100.804 51.026 100.881 51.026 100.961V112.106C51.026 112.186 51.0576 112.263 51.114 112.32C51.1704 112.377 51.247 112.409 51.3271 112.41H87.4608C87.5411 112.409 87.6178 112.377 87.6744 112.32C87.7311 112.263 87.763 112.186 87.7634 112.106V100.961C87.7634 100.881 87.795 100.804 87.8514 100.747C87.9078 100.69 87.9844 100.658 88.0646 100.657H95.7881C95.8688 100.657 95.9461 100.689 96.0031 100.746C96.0601 100.803 96.0922 100.881 96.0922 100.961V112.106C96.0926 112.186 96.1247 112.263 96.1816 112.32C96.2386 112.377 96.3157 112.409 96.3962 112.41H114.681C114.761 112.409 114.838 112.377 114.894 112.32C114.951 112.263 114.983 112.186 114.983 112.106V29.2732C114.983 29.1928 114.951 29.1157 114.895 29.0587C114.838 29.0018 114.761 28.9696 114.681 28.9692ZM39.4219 96.7925C39.4215 96.8723 39.3896 96.9487 39.3332 97.0051C39.2768 97.0615 39.2005 97.0933 39.1207 97.0937H27.8264C27.7868 97.0939 27.7474 97.0862 27.7107 97.0712C27.674 97.0561 27.6407 97.034 27.6125 97.006C27.5844 96.978 27.5621 96.9448 27.5469 96.9081C27.5317 96.8715 27.5238 96.8322 27.5238 96.7925V92.9351C27.5236 92.8952 27.5313 92.8557 27.5464 92.8188C27.5616 92.782 27.5838 92.7484 27.6119 92.7202C27.6401 92.6919 27.6735 92.6695 27.7103 92.6542C27.7471 92.6389 27.7866 92.631 27.8264 92.631H39.1207C39.2008 92.6318 39.2774 92.6642 39.3338 92.7211C39.3902 92.778 39.4219 92.8549 39.4219 92.9351V96.7925ZM39.4219 86.8254C39.4219 86.9054 39.3902 86.9821 39.3338 87.0388C39.2773 87.0956 39.2007 87.1276 39.1207 87.128H27.8264C27.7866 87.128 27.7471 87.1201 27.7103 87.1048C27.6735 87.0895 27.6401 87.0671 27.6119 87.0388C27.5838 87.0106 27.5616 86.9771 27.5464 86.9402C27.5313 86.9033 27.5236 86.8638 27.5238 86.8239V82.9708C27.5236 82.9309 27.5313 82.8914 27.5464 82.8546C27.5616 82.8177 27.5838 82.7842 27.6119 82.7559C27.6401 82.7276 27.6735 82.7052 27.7103 82.6899C27.7471 82.6746 27.7866 82.6668 27.8264 82.6668H39.1207C39.1604 82.6669 39.1998 82.675 39.2364 82.6903C39.273 82.7057 39.3063 82.7282 39.3343 82.7564C39.3622 82.7846 39.3844 82.8181 39.3994 82.8549C39.4144 82.8917 39.4221 82.9311 39.4219 82.9708V86.8254ZM39.4219 76.8611C39.4219 76.9411 39.3902 77.0179 39.3338 77.0746C39.2773 77.1313 39.2007 77.1633 39.1207 77.1637H27.8264C27.7462 77.1637 27.6692 77.1318 27.6125 77.0751C27.5557 77.0183 27.5238 76.9414 27.5238 76.8611V73.0065C27.5236 72.9667 27.5313 72.9272 27.5464 72.8903C27.5616 72.8534 27.5838 72.8199 27.6119 72.7916C27.6401 72.7634 27.6735 72.7409 27.7103 72.7256C27.7471 72.7104 27.7866 72.7025 27.8264 72.7025H39.1207C39.2008 72.7032 39.2774 72.7356 39.3338 72.7925C39.3902 72.8495 39.4219 72.9264 39.4219 73.0065V76.8611ZM39.4219 66.894C39.4221 66.9336 39.4144 66.9729 39.3994 67.0096C39.3843 67.0463 39.3622 67.0797 39.3342 67.1078C39.3062 67.136 39.2729 67.1583 39.2363 67.1735C39.1997 67.1887 39.1604 67.1965 39.1207 67.1965H27.8264C27.7866 67.1967 27.7472 67.189 27.7104 67.1739C27.6736 67.1588 27.6402 67.1365 27.612 67.1083C27.5839 67.0802 27.5616 67.0468 27.5465 67.01C27.5313 66.9732 27.5236 66.9337 27.5238 66.894V63.0379C27.5236 62.9981 27.5313 62.9587 27.5465 62.9219C27.5616 62.8851 27.5839 62.8517 27.612 62.8235C27.6402 62.7954 27.6736 62.7731 27.7104 62.758C27.7472 62.7428 27.7866 62.7351 27.8264 62.7353H39.1207C39.1604 62.7353 39.1997 62.7432 39.2363 62.7584C39.2729 62.7736 39.3062 62.7959 39.3342 62.824C39.3622 62.8522 39.3843 62.8855 39.3994 62.9222C39.4144 62.9589 39.4221 62.9983 39.4219 63.0379V66.894ZM39.4219 56.9282C39.4219 57.0084 39.3902 57.0853 39.3338 57.1422C39.2774 57.1991 39.2008 57.2315 39.1207 57.2323H27.8264C27.7866 57.2323 27.7471 57.2244 27.7103 57.2091C27.6735 57.1938 27.6401 57.1714 27.6119 57.1431C27.5838 57.1149 27.5616 57.0814 27.5464 57.0445C27.5313 57.0076 27.5236 56.9681 27.5238 56.9282V53.0708C27.5238 53.0311 27.5317 52.9918 27.5469 52.9552C27.5621 52.9186 27.5844 52.8853 27.6125 52.8573C27.6407 52.8293 27.674 52.8072 27.7107 52.7921C27.7474 52.7771 27.7868 52.7694 27.8264 52.7696H39.1207C39.2005 52.77 39.2768 52.8018 39.3332 52.8582C39.3896 52.9146 39.4215 52.991 39.4219 53.0708V56.9282ZM39.4219 46.964C39.4215 47.0437 39.3896 47.1201 39.3332 47.1765C39.2768 47.2329 39.2005 47.2647 39.1207 47.2651H27.8264C27.7868 47.2653 27.7474 47.2577 27.7107 47.2426C27.674 47.2276 27.6407 47.2054 27.6125 47.1774C27.5844 47.1494 27.5621 47.1162 27.5469 47.0795C27.5317 47.0429 27.5238 47.0036 27.5238 46.964V43.1065C27.5238 43.0261 27.5557 42.949 27.6124 42.892C27.6691 42.835 27.746 42.8028 27.8264 42.8024H39.1207C39.2008 42.8032 39.2774 42.8356 39.3338 42.8925C39.3902 42.9494 39.4219 43.0263 39.4219 43.1065V46.964ZM39.4219 36.9968C39.4221 37.0365 39.4144 37.0759 39.3994 37.1127C39.3844 37.1495 39.3622 37.183 39.3343 37.2112C39.3063 37.2394 39.273 37.2619 39.2364 37.2773C39.1998 37.2926 39.1604 37.3006 39.1207 37.3008H27.8264C27.7866 37.3008 27.7471 37.293 27.7103 37.2777C27.6735 37.2624 27.6401 37.24 27.6119 37.2117C27.5838 37.1834 27.5616 37.1499 27.5464 37.113C27.5313 37.0762 27.5236 37.0367 27.5238 36.9968V33.1422C27.5236 33.1024 27.5313 33.0628 27.5464 33.026C27.5616 32.9891 27.5838 32.9556 27.6119 32.9273C27.6401 32.8991 27.6735 32.8766 27.7103 32.8613C27.7471 32.846 27.7866 32.8382 27.8264 32.8382H39.1207C39.1604 32.8384 39.1998 32.8464 39.2364 32.8618C39.273 32.8771 39.3063 32.8996 39.3343 32.9278C39.3622 32.9561 39.3844 32.9895 39.3994 33.0263C39.4144 33.0631 39.4221 33.1025 39.4219 33.1422V36.9968ZM66.195 96.7969C66.195 96.8365 66.1872 96.8758 66.172 96.9124C66.1567 96.9491 66.1344 96.9824 66.1063 97.0103C66.0782 97.0383 66.0448 97.0605 66.0081 97.0755C65.9714 97.0906 65.9321 97.0982 65.8924 97.098H54.5996C54.5194 97.098 54.4425 97.0664 54.3856 97.01C54.3287 96.9536 54.2963 96.877 54.2955 96.7969V92.9351C54.2959 92.8546 54.3281 92.7774 54.385 92.7205C54.4419 92.6636 54.519 92.6314 54.5996 92.631H65.8924C65.9323 92.631 65.9717 92.6389 66.0085 92.6542C66.0454 92.6695 66.0788 92.6919 66.1069 92.7202C66.135 92.7484 66.1573 92.782 66.1724 92.8188C66.1875 92.8557 66.1952 92.8952 66.195 92.9351V96.7969ZM66.195 86.8297C66.1952 86.8696 66.1875 86.9091 66.1724 86.946C66.1573 86.9828 66.135 87.0164 66.1069 87.0446C66.0788 87.0729 66.0454 87.0953 66.0085 87.1106C65.9717 87.1259 65.9323 87.1338 65.8924 87.1338H54.5996C54.5189 87.1338 54.4416 87.1017 54.3846 87.0447C54.3276 86.9877 54.2955 86.9103 54.2955 86.8297V82.9708C54.2955 82.8902 54.3276 82.8128 54.3846 82.7558C54.4416 82.6988 54.5189 82.6668 54.5996 82.6668H65.8924C65.9323 82.6668 65.9717 82.6746 66.0085 82.6899C66.0454 82.7052 66.0788 82.7276 66.1069 82.7559C66.135 82.7842 66.1573 82.8177 66.1724 82.8546C66.1875 82.8914 66.1952 82.9309 66.195 82.9708V86.8297ZM66.195 76.8654C66.195 76.9457 66.1631 77.0227 66.1064 77.0794C66.0496 77.1362 65.9727 77.168 65.8924 77.168H54.5996C54.5192 77.168 54.4421 77.1362 54.3851 77.0795C54.3281 77.0228 54.2959 76.9458 54.2955 76.8654V73.0065C54.2959 72.926 54.3281 72.8489 54.385 72.792C54.4419 72.735 54.519 72.7029 54.5996 72.7025H65.8924C65.9323 72.7025 65.9717 72.7104 66.0085 72.7256C66.0454 72.7409 66.0788 72.7634 66.1069 72.7916C66.135 72.8199 66.1573 72.8534 66.1724 72.8903C66.1875 72.9272 66.1952 72.9667 66.195 73.0065V76.8654ZM66.195 66.8983C66.1952 66.9381 66.1875 66.9775 66.1724 67.0143C66.1572 67.0511 66.135 67.0845 66.1068 67.1127C66.0787 67.1408 66.0452 67.1631 66.0084 67.1782C65.9716 67.1934 65.9322 67.2011 65.8924 67.2009H54.5996C54.5597 67.2011 54.5202 67.1934 54.4833 67.1783C54.4464 67.1631 54.4129 67.1409 54.3847 67.1128C54.3564 67.0846 54.334 67.0512 54.3187 67.0144C54.3034 66.9776 54.2955 66.9381 54.2955 66.8983V63.0379C54.2955 62.9981 54.3034 62.9586 54.3187 62.9218C54.334 62.885 54.3564 62.8516 54.3847 62.8234C54.4129 62.7953 54.4464 62.7731 54.4833 62.7579C54.5202 62.7428 54.5597 62.7351 54.5996 62.7353H65.8924C65.9322 62.7351 65.9716 62.7428 66.0084 62.758C66.0452 62.7731 66.0787 62.7954 66.1068 62.8235C66.135 62.8517 66.1572 62.8851 66.1724 62.9219C66.1875 62.9587 66.1952 62.9981 66.195 63.0379V66.8983ZM66.195 56.9326C66.1952 56.9724 66.1875 57.0119 66.1724 57.0488C66.1573 57.0857 66.135 57.1192 66.1069 57.1475C66.0788 57.1757 66.0454 57.1981 66.0085 57.2134C65.9717 57.2287 65.9323 57.2366 65.8924 57.2366H54.5996C54.519 57.2362 54.4419 57.2041 54.385 57.1471C54.3281 57.0902 54.2959 57.0131 54.2955 56.9326V53.0708C54.2963 52.9906 54.3287 52.914 54.3856 52.8576C54.4425 52.8012 54.5194 52.7696 54.5996 52.7696H65.8924C65.9321 52.7694 65.9714 52.7771 66.0081 52.7921C66.0448 52.8072 66.0782 52.8293 66.1063 52.8573C66.1344 52.8853 66.1567 52.9186 66.172 52.9552C66.1872 52.9918 66.195 53.0311 66.195 53.0708V56.9326ZM66.195 46.9683C66.195 47.0079 66.1872 47.0472 66.172 47.0839C66.1567 47.1205 66.1344 47.1538 66.1063 47.1817C66.0782 47.2097 66.0448 47.2319 66.0081 47.2469C65.9714 47.262 65.9321 47.2696 65.8924 47.2694H54.5996C54.5194 47.2694 54.4425 47.2378 54.3856 47.1814C54.3287 47.125 54.2963 47.0484 54.2955 46.9683V43.1065C54.2959 43.026 54.3281 42.9489 54.385 42.8919C54.4419 42.835 54.519 42.8028 54.5996 42.8024H65.8924C65.9728 42.8028 66.0498 42.835 66.1065 42.892C66.1632 42.949 66.195 43.0261 66.195 43.1065V46.9683ZM66.195 37.0011C66.1952 37.041 66.1875 37.0805 66.1724 37.1174C66.1573 37.1542 66.135 37.1878 66.1069 37.216C66.0788 37.2443 66.0454 37.2667 66.0085 37.282C65.9717 37.2973 65.9323 37.3052 65.8924 37.3052H54.5996C54.5189 37.3052 54.4416 37.2731 54.3846 37.2161C54.3276 37.1591 54.2955 37.0818 54.2955 37.0011V33.1422C54.2955 33.0616 54.3276 32.9842 54.3846 32.9272C54.4416 32.8702 54.5189 32.8382 54.5996 32.8382H65.8924C65.9323 32.8382 65.9717 32.846 66.0085 32.8613C66.0454 32.8766 66.0788 32.8991 66.1069 32.9273C66.135 32.9556 66.1573 32.9891 66.1724 33.026C66.1875 33.0628 66.1952 33.1024 66.195 33.1422V37.0011ZM84.4953 96.8012C84.4951 96.8409 84.4871 96.8802 84.4717 96.9169C84.4563 96.9535 84.4339 96.9868 84.4056 97.0147C84.3774 97.0427 84.3439 97.0648 84.3072 97.0799C84.2704 97.0949 84.231 97.1025 84.1912 97.1023H72.8941C72.8141 97.1023 72.7373 97.0707 72.6806 97.0142C72.6239 96.9578 72.5919 96.8812 72.5915 96.8012V92.9351C72.5915 92.8547 72.6233 92.7776 72.68 92.7206C72.7367 92.6636 72.8137 92.6314 72.8941 92.631H84.1869C84.2676 92.631 84.3449 92.6631 84.4019 92.7201C84.4589 92.7771 84.491 92.8544 84.491 92.9351L84.4953 96.8012ZM84.4953 86.834C84.4955 86.874 84.4877 86.9136 84.4725 86.9506C84.4573 86.9876 84.4349 87.0212 84.4067 87.0494C84.3784 87.0777 84.3448 87.1001 84.3078 87.1153C84.2708 87.1305 84.2312 87.1383 84.1912 87.1381H72.8941C72.8137 87.1377 72.7367 87.1055 72.68 87.0485C72.6233 86.9915 72.5915 86.9144 72.5915 86.834V82.9708C72.5915 82.8904 72.6233 82.8133 72.68 82.7563C72.7367 82.6993 72.8137 82.6671 72.8941 82.6668H84.1869C84.2269 82.6666 84.2665 82.6743 84.3035 82.6895C84.3405 82.7047 84.3741 82.7271 84.4023 82.7554C84.4306 82.7837 84.453 82.8173 84.4682 82.8542C84.4834 82.8912 84.4911 82.9308 84.491 82.9708L84.4953 86.834ZM84.4953 76.8698C84.4949 76.9501 84.4627 77.0271 84.4057 77.0838C84.3487 77.1405 84.2716 77.1724 84.1912 77.1724H72.8941C72.8139 77.172 72.7372 77.14 72.6805 77.0833C72.6239 77.0266 72.5918 76.9499 72.5915 76.8698V73.0065C72.5915 72.9261 72.6233 72.849 72.68 72.792C72.7367 72.7351 72.8137 72.7029 72.8941 72.7025H84.1869C84.2676 72.7025 84.3449 72.7345 84.4019 72.7915C84.4589 72.8486 84.491 72.9259 84.491 73.0065L84.4953 76.8698ZM84.4953 66.9026C84.4953 66.9425 84.4874 66.9819 84.4721 67.0187C84.4568 67.0555 84.4344 67.089 84.4061 67.1171C84.3779 67.1452 84.3444 67.1675 84.3075 67.1826C84.2706 67.1977 84.2311 67.2054 84.1912 67.2052H72.8941C72.8543 67.2052 72.815 67.1974 72.7783 67.1822C72.7416 67.167 72.7082 67.1447 72.6801 67.1166C72.652 67.0885 72.6297 67.0551 72.6145 67.0184C72.5993 66.9817 72.5915 66.9423 72.5915 66.9026V63.0379C72.5915 62.9982 72.5993 62.9588 72.6145 62.9221C72.6297 62.8854 72.652 62.8521 72.6801 62.824C72.7082 62.7959 72.7416 62.7736 72.7783 62.7584C72.815 62.7432 72.8543 62.7353 72.8941 62.7353H84.1869C84.2268 62.7351 84.2663 62.7428 84.3032 62.7579C84.34 62.7731 84.3736 62.7953 84.4018 62.8234C84.4301 62.8516 84.4525 62.885 84.4678 62.9218C84.4831 62.9586 84.491 62.9981 84.491 63.0379L84.4953 66.9026ZM84.4953 56.9369C84.4953 57.0175 84.4633 57.0948 84.4062 57.1519C84.3492 57.2089 84.2719 57.2409 84.1912 57.2409H72.8941C72.8137 57.2405 72.7367 57.2083 72.68 57.1514C72.6233 57.0944 72.5915 57.0173 72.5915 56.9369V53.0708C72.5919 52.9908 72.6239 52.9142 72.6806 52.8577C72.7373 52.8013 72.8141 52.7696 72.8941 52.7696H84.1869C84.2267 52.7694 84.266 52.7771 84.3028 52.7921C84.3396 52.8071 84.3731 52.8293 84.4013 52.8572C84.4295 52.8852 84.452 52.9184 84.4674 52.9551C84.4828 52.9917 84.4908 53.031 84.491 53.0708L84.4953 56.9369ZM84.4953 46.9726C84.4951 47.0123 84.4871 47.0517 84.4717 47.0883C84.4563 47.1249 84.4339 47.1582 84.4056 47.1862C84.3774 47.2141 84.3439 47.2362 84.3072 47.2513C84.2704 47.2663 84.231 47.274 84.1912 47.2738H72.8941C72.8141 47.2738 72.7373 47.2421 72.6806 47.1856C72.6239 47.1292 72.5919 47.0526 72.5915 46.9726V43.1065C72.5918 43.0262 72.6238 42.9493 72.6804 42.8924C72.737 42.8355 72.8138 42.8032 72.8941 42.8024H84.1869C84.2674 42.8028 84.3446 42.835 84.4015 42.8919C84.4584 42.9489 84.4906 43.026 84.491 43.1065L84.4953 46.9726ZM84.4953 37.0054C84.4955 37.0454 84.4877 37.085 84.4725 37.122C84.4573 37.159 84.4349 37.1926 84.4067 37.2209C84.3784 37.2491 84.3448 37.2715 84.3078 37.2867C84.2708 37.3019 84.2312 37.3097 84.1912 37.3095H72.8941C72.8137 37.3091 72.7367 37.2769 72.68 37.2199C72.6233 37.1629 72.5915 37.0858 72.5915 37.0054V33.1422C72.5915 33.0618 72.6233 32.9847 72.68 32.9277C72.7367 32.8708 72.8137 32.8385 72.8941 32.8382H84.1869C84.2269 32.838 84.2665 32.8457 84.3035 32.8609C84.3405 32.8761 84.3741 32.8985 84.4023 32.9268C84.4306 32.9551 84.453 32.9887 84.4682 33.0256C84.4834 33.0626 84.4911 33.1022 84.491 33.1422L84.4953 37.0054ZM111.27 96.7925C111.269 96.8727 111.237 96.9493 111.18 97.0057C111.123 97.0621 111.046 97.0937 110.966 97.0937H99.6687C99.6289 97.0939 99.5895 97.0863 99.5527 97.0712C99.516 97.0562 99.4825 97.0341 99.4543 97.0061C99.426 96.9781 99.4036 96.9449 99.3882 96.9082C99.3728 96.8716 99.3648 96.8323 99.3646 96.7925V92.9351C99.3646 92.8544 99.3966 92.7771 99.4537 92.7201C99.5107 92.6631 99.588 92.631 99.6687 92.631H110.962C111.002 92.6307 111.042 92.6382 111.079 92.6533C111.116 92.6684 111.15 92.6907 111.179 92.719C111.208 92.7472 111.23 92.7809 111.246 92.8179C111.262 92.855 111.27 92.8948 111.27 92.9351V96.7925ZM111.27 86.8254C111.27 86.906 111.238 86.9834 111.181 87.0404C111.124 87.0974 111.046 87.1294 110.966 87.1294H99.6687C99.6287 87.1296 99.5891 87.1219 99.5521 87.1067C99.5151 87.0915 99.4815 87.0691 99.4532 87.0408C99.425 87.0125 99.4026 86.9789 99.3874 86.942C99.3722 86.905 99.3644 86.8654 99.3646 86.8254V82.9708C99.3644 82.9308 99.3722 82.8912 99.3874 82.8542C99.4026 82.8173 99.425 82.7837 99.4532 82.7554C99.4815 82.7271 99.5151 82.7047 99.5521 82.6895C99.5891 82.6743 99.6287 82.6666 99.6687 82.6668H110.962C111.042 82.6668 111.119 82.6988 111.176 82.7558C111.234 82.8128 111.266 82.8902 111.266 82.9708L111.27 86.8254ZM111.27 76.8611C111.269 76.9415 111.237 77.0185 111.18 77.0752C111.123 77.1319 111.046 77.1637 110.966 77.1637H99.6687C99.5883 77.1637 99.5111 77.1319 99.4542 77.0752C99.3972 77.0185 99.365 76.9415 99.3646 76.8611V73.0065C99.3646 72.9259 99.3966 72.8486 99.4537 72.7915C99.5107 72.7345 99.588 72.7025 99.6687 72.7025H110.962C111.002 72.7021 111.042 72.7097 111.079 72.7248C111.116 72.7399 111.15 72.7622 111.179 72.7904C111.208 72.8187 111.23 72.8523 111.246 72.8894C111.262 72.9265 111.27 72.9663 111.27 73.0065V76.8611ZM111.27 66.894C111.27 66.9338 111.262 66.9733 111.247 67.0101C111.231 67.0469 111.209 67.0803 111.181 67.1084C111.152 67.1366 111.119 67.1588 111.082 67.1739C111.045 67.1891 111.006 67.1967 110.966 67.1965H99.6687C99.6288 67.1967 99.5893 67.1891 99.5524 67.1739C99.5155 67.1588 99.482 67.1366 99.4538 67.1084C99.4255 67.0803 99.4031 67.0469 99.3878 67.0101C99.3725 66.9733 99.3646 66.9338 99.3646 66.894V63.0379C99.3646 62.9981 99.3725 62.9586 99.3878 62.9218C99.4031 62.885 99.4255 62.8516 99.4538 62.8234C99.482 62.7953 99.5155 62.7731 99.5524 62.7579C99.5893 62.7428 99.6288 62.7351 99.6687 62.7353H110.962C111.001 62.7351 111.041 62.7428 111.078 62.7579C111.115 62.7731 111.148 62.7953 111.176 62.8234C111.205 62.8516 111.227 62.885 111.242 62.9218C111.258 62.9586 111.266 62.9981 111.266 63.0379L111.27 66.894ZM111.27 56.9282C111.269 57.0088 111.237 57.0859 111.18 57.1428C111.123 57.1997 111.046 57.2319 110.966 57.2323H99.6687C99.588 57.2323 99.5107 57.2002 99.4537 57.1432C99.3966 57.0862 99.3646 57.0089 99.3646 56.9282V53.0708C99.3648 53.031 99.3728 52.9917 99.3882 52.9551C99.4036 52.9184 99.426 52.8852 99.4543 52.8572C99.4825 52.8293 99.516 52.8071 99.5527 52.7921C99.5895 52.7771 99.6289 52.7694 99.6687 52.7696H110.962C111.042 52.7696 111.119 52.8012 111.175 52.8576C111.232 52.914 111.265 52.9906 111.266 53.0708L111.27 56.9282ZM111.27 46.964C111.269 47.0441 111.237 47.1207 111.18 47.1771C111.123 47.2335 111.046 47.2651 110.966 47.2651H99.6687C99.6289 47.2653 99.5895 47.2577 99.5527 47.2426C99.516 47.2276 99.4825 47.2055 99.4543 47.1775C99.426 47.1495 99.4036 47.1163 99.3882 47.0796C99.3728 47.043 99.3648 47.0037 99.3646 46.964V43.1065C99.365 43.026 99.3971 42.9489 99.4541 42.8919C99.511 42.835 99.5881 42.8028 99.6687 42.8024H110.962C111.002 42.8021 111.042 42.8096 111.079 42.8247C111.116 42.8398 111.15 42.8621 111.179 42.8904C111.208 42.9186 111.23 42.9523 111.246 42.9894C111.262 43.0264 111.27 43.0662 111.27 43.1065V46.964ZM111.27 36.9968C111.27 37.0774 111.238 37.1548 111.181 37.2118C111.124 37.2688 111.046 37.3008 110.966 37.3008H99.6687C99.6287 37.301 99.5891 37.2933 99.5521 37.2781C99.5151 37.2629 99.4815 37.2405 99.4532 37.2122C99.425 37.1839 99.4026 37.1503 99.3874 37.1134C99.3722 37.0764 99.3644 37.0368 99.3646 36.9968V33.1422C99.3644 33.1022 99.3722 33.0626 99.3874 33.0256C99.4026 32.9887 99.425 32.9551 99.4532 32.9268C99.4815 32.8985 99.5151 32.8761 99.5521 32.8609C99.5891 32.8457 99.6287 32.838 99.6687 32.8382H110.962C111.042 32.8382 111.119 32.8702 111.176 32.9272C111.234 32.9842 111.266 33.0616 111.266 33.1422L111.27 36.9968Z" fill="#F2F2F2"/>
<path d="M40.7333 5.42524L38.2635 6.99589L39.7621 4.27246C39.3379 3.93313 38.8124 3.74545 38.2693 3.73931H38.2304C38.0585 3.74166 37.8869 3.72864 37.7174 3.7004L36.8802 4.23068L37.239 3.57936C36.6464 3.37191 36.1342 2.98322 35.7749 2.46837L34.2778 3.41797L35.2245 1.69746C34.3484 0.645552 33.1697 0 31.8728 0C30.3151 0 28.9275 0.926541 28.0326 2.36895C27.768 2.80099 27.3937 3.15525 26.9477 3.3957C26.5017 3.63614 26 3.7542 25.4936 3.73787H25.4101C23.691 3.73787 22.2961 5.68749 22.2961 8.09246C22.2961 10.4974 23.691 12.4471 25.4101 12.4471C25.788 12.4456 26.1599 12.3521 26.4937 12.1747C27.6162 11.5983 29.0874 11.581 30.2618 12.1012C30.7654 12.328 31.3111 12.4458 31.8634 12.4471C32.4156 12.4483 32.9619 12.3329 33.4665 12.1084C34.6308 11.5983 36.0876 11.6099 37.2015 12.1805C37.5321 12.3545 37.9 12.446 38.2736 12.4471C39.9927 12.4471 41.3875 10.4974 41.3875 8.09246C41.3969 7.16256 41.1719 6.24528 40.7333 5.42524Z" fill="#F2F2F2"/>
<path opacity="0.03" d="M36.0789 11.8015C35.181 11.6306 34.2524 11.7309 33.4117 12.0897C32.9077 12.3144 32.362 12.4305 31.8101 12.4305C31.2582 12.4305 30.7125 12.3144 30.2084 12.0897C29.0341 11.5681 27.5614 11.5796 26.4403 12.1632C26.1059 12.3401 25.7336 12.4331 25.3553 12.4341C23.8278 12.4341 22.5584 10.8952 22.2932 8.86627C22.5983 8.64367 22.8576 8.36431 23.0569 8.04348C23.9518 6.60252 25.3394 5.6731 26.8971 5.6731C28.4548 5.6731 29.8252 6.57802 30.72 8.01034C30.9869 8.44179 31.3608 8.79694 31.8054 9.04133C32.25 9.28572 32.7502 9.41106 33.2575 9.4052H33.2964C34.5141 9.40376 35.5674 10.3793 36.0789 11.8015Z" fill="black"/>
<path d="M125.509 16.2022L123.769 17.306L124.825 15.3852C124.526 15.1463 124.156 15.014 123.773 15.0091H123.746C123.625 15.0102 123.504 15.001 123.384 14.9817L122.795 15.3564L123.047 14.8967C122.629 14.7502 122.268 14.476 122.015 14.1128L120.96 14.7915L121.626 13.5782C121.009 12.8376 120.185 12.3837 119.261 12.3837C118.163 12.3837 117.186 13.0364 116.555 14.0537C116.369 14.3585 116.105 14.6083 115.791 14.7776C115.476 14.947 115.123 15.0299 114.766 15.0178H114.707C113.495 15.0178 112.513 16.3924 112.513 18.087C112.513 19.7816 113.495 21.1563 114.707 21.1563C114.973 21.1552 115.236 21.0894 115.472 20.9646C115.884 20.7644 116.335 20.6561 116.794 20.6471C117.252 20.6382 117.707 20.7288 118.127 20.9127C118.482 21.0714 118.867 21.1534 119.256 21.1534C119.645 21.1534 120.029 21.0714 120.384 20.9127C120.801 20.732 121.252 20.643 121.706 20.6517C122.16 20.6604 122.607 20.7666 123.017 20.9632C123.25 21.0851 123.51 21.1494 123.773 21.1505C124.985 21.1505 125.968 19.7758 125.968 18.0812C125.975 17.4264 125.818 16.7802 125.509 16.2022Z" fill="#F2F2F2"/>
<path opacity="0.03" d="M122.23 20.6995C121.599 20.5802 120.947 20.6509 120.356 20.9027C120.001 21.0618 119.617 21.144 119.227 21.144C118.838 21.144 118.454 21.0618 118.098 20.9027C117.678 20.7187 117.223 20.6281 116.765 20.637C116.306 20.646 115.855 20.7543 115.443 20.9545C115.207 21.0793 114.945 21.1451 114.679 21.1462C113.603 21.1462 112.706 20.0611 112.518 18.6303C112.732 18.4744 112.915 18.2787 113.055 18.0539C113.686 17.0365 114.665 16.3838 115.763 16.3838C116.861 16.3838 117.826 17.0279 118.457 18.0351C118.646 18.3389 118.909 18.589 119.222 18.7611C119.536 18.9333 119.888 19.0217 120.245 19.0179H120.273C121.126 19.0035 121.868 19.6908 122.23 20.6995Z" fill="black"/>
<path d="M103.744 5.85758L102.526 6.62994L103.265 5.28119C103.056 5.11446 102.797 5.02219 102.529 5.01894H102.509C102.424 5.0207 102.34 5.01443 102.257 5.0002L101.843 5.26246L102.02 4.93968C101.728 4.83809 101.476 4.64635 101.3 4.39212L100.561 4.86043L101.028 4.0117C100.831 3.758 100.58 3.55123 100.294 3.40642C100.008 3.26161 99.6927 3.18239 99.3719 3.1745C98.6024 3.1745 97.918 3.63273 97.477 4.34456C97.346 4.55757 97.1611 4.73223 96.941 4.85089C96.7209 4.96955 96.4733 5.02802 96.2234 5.02038H96.183C95.3343 5.02038 94.647 5.98294 94.647 7.16886C94.647 8.35477 95.3329 9.3159 96.1816 9.3159C96.368 9.31511 96.5515 9.26912 96.7162 9.18189C97.0048 9.04124 97.3206 8.96516 97.6416 8.95894C97.9627 8.95272 98.2812 9.0165 98.575 9.14586C98.8254 9.25738 99.0964 9.3153 99.3704 9.3159C99.641 9.3154 99.9085 9.25847 100.156 9.14874C100.448 9.02261 100.763 8.96055 101.081 8.96676C101.399 8.97298 101.712 9.04732 101.999 9.18477C102.162 9.27033 102.344 9.3153 102.529 9.3159C103.376 9.3159 104.065 8.35333 104.065 7.16742C104.069 6.71084 103.958 6.26057 103.744 5.85758Z" fill="#F2F2F2"/>
<path opacity="0.03" d="M101.448 8.99448C101.005 8.9108 100.546 8.96096 100.131 9.13858C99.8818 9.24984 99.6118 9.30734 99.3387 9.30734C99.0656 9.30734 98.7955 9.24984 98.5461 9.13858C98.2521 9.00998 97.9336 8.94661 97.6128 8.95283C97.2919 8.95905 96.9761 9.03471 96.6873 9.1746C96.5227 9.26233 96.3392 9.30835 96.1527 9.30861C95.3976 9.30861 94.7708 8.54922 94.6411 7.54775C94.7918 7.43811 94.9195 7.30007 95.0172 7.1414C95.4596 6.42956 96.144 5.97278 96.9121 5.97278C97.6801 5.97278 98.353 6.4238 98.7997 7.12555C98.9313 7.33866 99.1157 7.51409 99.3352 7.63479C99.5546 7.75549 99.8015 7.81734 100.052 7.81433H100.071C100.676 7.81289 101.195 8.29417 101.448 8.99448Z" fill="black"/>
<path d="M19.9746 111.633C20.2714 111.085 19.9357 110.414 19.5423 109.924C19.1489 109.434 18.6849 108.927 18.695 108.303C18.7094 107.408 19.659 106.879 20.4241 106.405C20.9878 106.053 21.5078 105.635 21.9732 105.16C22.1678 104.977 22.3287 104.762 22.4487 104.523C22.6058 104.173 22.6014 103.775 22.5928 103.392C22.5592 102.115 22.4958 100.838 22.4026 99.5621" stroke="#3F3D56" stroke-width="4" stroke-miterlimit="10"/>
<path d="M23.8465 99.493C23.8355 99.2591 23.7658 99.0317 23.644 98.8318C23.5221 98.6318 23.3519 98.4658 23.149 98.3488L22.8364 98.967L22.8464 98.2191C22.5625 98.1354 22.2593 98.1442 21.9806 98.244C21.702 98.3439 21.4622 98.5298 21.2961 98.7748C21.1299 99.0198 21.046 99.3113 21.0563 99.6071C21.0666 99.903 21.1706 100.188 21.3534 100.421C21.5362 100.654 21.7883 100.822 22.0733 100.903C22.3582 100.983 22.6613 100.97 22.9387 100.867C23.2161 100.764 23.4536 100.575 23.6168 100.328C23.7799 100.081 23.8604 99.7887 23.8465 99.493Z" fill="#57B894"/>
<path d="M21.3537 108.944C21.213 109.218 20.9857 109.438 20.7071 109.569C20.4286 109.701 20.1144 109.736 19.8135 109.67C19.5127 109.605 19.242 109.441 19.0436 109.206C18.8452 108.97 18.7303 108.675 18.7167 108.368C18.7081 108.175 18.739 107.982 18.8075 107.802C18.9095 107.537 19.0897 107.309 19.324 107.15C19.5584 106.99 19.8358 106.905 20.1195 106.906C20.4031 106.908 20.6796 106.996 20.9122 107.158C21.1447 107.321 21.3224 107.55 21.4214 107.816L20.5497 108.526L21.5079 108.304C21.5088 108.527 21.4559 108.746 21.3537 108.944Z" fill="#57B894"/>
<path d="M20.6664 106.232C20.4832 106.241 20.3001 106.213 20.1276 106.151C19.9552 106.089 19.7966 105.993 19.6611 105.87C19.5255 105.746 19.4156 105.597 19.3377 105.431C19.2597 105.265 19.2152 105.085 19.2067 104.902C19.1961 104.684 19.2376 104.466 19.3277 104.267C19.4114 104.08 19.535 103.914 19.6899 103.78C19.8447 103.647 20.0271 103.549 20.224 103.493V104.069L20.5396 103.444C20.7228 103.435 20.9058 103.463 21.0783 103.525C21.2508 103.588 21.4093 103.683 21.5449 103.807C21.6804 103.93 21.7903 104.079 21.8683 104.245C21.9463 104.411 21.9908 104.591 21.9993 104.774C22.0077 104.935 21.9877 105.096 21.9402 105.25C21.855 105.525 21.6869 105.767 21.4589 105.943C21.2308 106.118 20.9541 106.22 20.6664 106.232Z" fill="#57B894"/>
<path d="M24.0569 103.977C23.8403 103.989 23.624 103.95 23.4251 103.863C23.2262 103.777 23.0502 103.645 22.9109 103.479C22.7716 103.313 22.673 103.116 22.6227 102.905C22.5725 102.694 22.572 102.475 22.6214 102.263C22.6708 102.052 22.7686 101.855 22.9072 101.688C23.0457 101.522 23.2212 101.389 23.4197 101.302C23.6183 101.215 23.8344 101.175 24.051 101.185C24.2677 101.196 24.4788 101.257 24.6678 101.363L24.4214 102.041L24.9287 101.552C25.0635 101.675 25.1727 101.824 25.2501 101.989C25.3274 102.155 25.3715 102.334 25.3797 102.516C25.3865 102.645 25.3749 102.775 25.3451 102.901C25.2761 103.196 25.1132 103.46 24.8808 103.654C24.6485 103.848 24.3593 103.962 24.0569 103.977Z" fill="#57B894"/>
<path opacity="0.1" d="M23.6593 99.8647C23.3365 99.9007 23.0238 100 22.6996 100.02C22.3754 100.04 22.0209 99.9627 21.8163 99.712C21.7211 99.5656 21.6349 99.4135 21.5584 99.2566C21.4702 99.1193 21.3494 99.006 21.2068 98.9266C21.1167 99.1036 21.0654 99.2978 21.0564 99.4962C21.0473 99.6946 21.0807 99.8926 21.1543 100.077C21.2278 100.262 21.3399 100.428 21.483 100.566C21.6261 100.704 21.7969 100.809 21.984 100.876C22.1712 100.942 22.3704 100.968 22.5683 100.951C22.7662 100.935 22.9582 100.876 23.1316 100.779C23.3051 100.682 23.4558 100.55 23.5739 100.39C23.692 100.23 23.7747 100.047 23.8164 99.8532C23.7645 99.8561 23.7112 99.8589 23.6593 99.8647Z" fill="black"/>
<path opacity="0.1" d="M24.0568 103.977C23.816 103.988 23.5764 103.937 23.3613 103.828C23.1462 103.719 22.9629 103.557 22.8292 103.356C22.6955 103.156 22.616 102.924 22.5983 102.684C22.5806 102.443 22.6253 102.202 22.7282 101.984C22.8396 102.061 22.935 102.159 23.0092 102.273C23.0924 102.431 23.1848 102.585 23.2859 102.734C23.5035 102.989 23.8752 103.072 24.2124 103.058C24.5496 103.043 24.8738 102.945 25.2096 102.914C25.2557 102.914 25.3032 102.914 25.3537 102.905C25.2835 103.201 25.1189 103.465 24.8848 103.658C24.6508 103.852 24.3601 103.964 24.0568 103.977Z" fill="black"/>
<path opacity="0.1" d="M20.6664 106.232C20.4832 106.241 20.3001 106.213 20.1277 106.151C19.9552 106.089 19.7966 105.993 19.6611 105.87C19.5255 105.746 19.4156 105.597 19.3377 105.431C19.2597 105.265 19.2152 105.085 19.2067 104.902C19.1961 104.684 19.2376 104.466 19.3277 104.267C19.4427 104.344 19.5428 104.442 19.6231 104.555C19.7147 104.717 19.8157 104.874 19.9257 105.025C20.1606 105.288 20.5569 105.381 20.9142 105.372C21.2716 105.363 21.5929 105.28 21.9373 105.252C21.8518 105.527 21.6839 105.768 21.4565 105.943C21.2291 106.118 20.9532 106.219 20.6664 106.232Z" fill="black"/>
<path opacity="0.1" d="M21.3537 108.944C21.213 109.218 20.9857 109.438 20.7071 109.569C20.4286 109.701 20.1144 109.736 19.8135 109.67C19.5127 109.605 19.242 109.441 19.0436 109.206C18.8452 108.97 18.7303 108.675 18.7167 108.368C18.7081 108.175 18.739 107.982 18.8075 107.802C18.923 107.877 19.0265 107.969 19.1145 108.075C19.2299 108.247 19.3545 108.413 19.4877 108.571C19.7759 108.851 20.2341 108.967 20.6404 108.977C20.8786 108.98 21.1168 108.969 21.3537 108.944Z" fill="black"/>
<path d="M17.8694 111.4C17.8694 111.4 18.9717 110.967 19.3103 110.732C19.649 110.498 21.0064 110.212 21.0885 110.588C21.1706 110.964 22.737 112.479 21.4977 112.489C20.2585 112.499 18.6057 112.694 18.2743 112.489C17.9429 112.284 17.8694 111.4 17.8694 111.4Z" fill="#656380"/>
<path opacity="0.2" d="M21.515 112.356C20.2715 112.367 18.6244 112.561 18.293 112.356C18.0409 112.202 17.94 111.65 17.9054 111.395H17.8694C17.8694 111.395 17.9386 112.284 18.27 112.486C18.6014 112.688 20.2484 112.495 21.4934 112.486C21.8522 112.486 21.9761 112.355 21.9704 112.166C21.9199 112.283 21.7859 112.355 21.515 112.356Z" fill="black"/>
<path d="M96.8864 111.711C96.6876 111.343 96.9138 110.892 97.1746 110.558C97.4354 110.224 97.751 109.888 97.7423 109.469C97.7337 108.868 97.0954 108.513 96.5896 108.195C96.2117 107.958 95.863 107.677 95.5506 107.359C95.4195 107.235 95.3112 107.089 95.2307 106.927C95.1429 106.683 95.1099 106.424 95.1342 106.166C95.1573 105.308 95.2 104.451 95.2624 103.595" stroke="#3F3D56" stroke-width="4" stroke-miterlimit="10"/>
<path d="M94.2867 103.555C94.2942 103.398 94.341 103.245 94.4228 103.111C94.5046 102.977 94.6189 102.866 94.755 102.787L94.9654 103.202L94.9582 102.699C95.0587 102.67 95.1635 102.657 95.268 102.663C95.4534 102.672 95.632 102.735 95.7812 102.846C95.9305 102.956 96.0437 103.108 96.1065 103.283C96.1693 103.457 96.1788 103.647 96.134 103.827C96.0892 104.007 95.992 104.169 95.8547 104.294C95.7174 104.419 95.5461 104.5 95.3626 104.528C95.1791 104.555 94.9915 104.528 94.8237 104.449C94.6558 104.369 94.5152 104.242 94.4196 104.083C94.3241 103.924 94.2778 103.74 94.2867 103.555Z" fill="#57B894"/>
<path d="M95.9597 109.905C96.0583 110.096 96.2195 110.247 96.4163 110.334C96.6131 110.42 96.8336 110.436 97.0407 110.379C97.2478 110.321 97.429 110.195 97.5539 110.02C97.6789 109.845 97.7399 109.633 97.7268 109.418C97.7137 109.204 97.6273 109.001 97.482 108.842C97.3367 108.684 97.1415 108.58 96.929 108.549C96.7164 108.518 96.4995 108.56 96.3147 108.67C96.1298 108.779 95.9882 108.949 95.9136 109.15L96.5 109.626L95.8545 109.482C95.8558 109.629 95.8918 109.774 95.9597 109.905Z" fill="#57B894"/>
<path d="M96.428 108.084C96.5511 108.09 96.674 108.071 96.7899 108.03C96.9058 107.988 97.0122 107.924 97.1033 107.841C97.1943 107.758 97.268 107.657 97.3203 107.546C97.3726 107.434 97.4023 107.314 97.4079 107.191C97.4163 107.042 97.3886 106.894 97.3272 106.758C97.2711 106.633 97.1881 106.521 97.084 106.432C96.9799 106.342 96.8572 106.276 96.7249 106.24V106.626L96.5116 106.205C96.2631 106.194 96.0202 106.281 95.8362 106.449C95.6523 106.616 95.5423 106.85 95.5303 107.098C95.526 107.206 95.5397 107.315 95.5707 107.418C95.6269 107.604 95.7397 107.768 95.8933 107.888C96.0469 108.007 96.2337 108.076 96.428 108.084Z" fill="#57B894"/>
<path d="M94.1455 106.57C94.2906 106.576 94.4353 106.549 94.5682 106.491C94.7011 106.432 94.8186 106.343 94.9114 106.232C95.0042 106.12 95.0697 105.988 95.1029 105.847C95.136 105.705 95.1359 105.558 95.1025 105.417C95.069 105.275 95.0032 105.144 94.9102 105.032C94.8172 104.92 94.6996 104.832 94.5666 104.774C94.4336 104.715 94.2888 104.688 94.1437 104.696C93.9987 104.703 93.8572 104.743 93.7305 104.814L93.8962 105.268L93.5562 104.941C93.3737 105.108 93.2648 105.341 93.2536 105.588C93.2488 105.675 93.2566 105.763 93.2766 105.848C93.3234 106.046 93.4334 106.224 93.5902 106.354C93.747 106.484 93.9419 106.56 94.1455 106.57Z" fill="#57B894"/>
<path opacity="0.1" d="M94.4106 103.809C94.6268 103.832 94.8429 103.899 95.0547 103.912C95.1637 103.926 95.2744 103.914 95.3779 103.877C95.4813 103.84 95.5745 103.779 95.6499 103.699C95.7136 103.601 95.7718 103.499 95.8242 103.394C95.8832 103.302 95.9638 103.225 96.0591 103.172C96.1337 103.316 96.1685 103.478 96.16 103.64C96.1486 103.867 96.0552 104.082 95.8972 104.245C95.7392 104.408 95.5273 104.509 95.3009 104.528C95.0745 104.547 94.8489 104.483 94.6661 104.348C94.4833 104.213 94.3557 104.016 94.3069 103.794C94.3429 103.801 94.3775 103.804 94.4106 103.809Z" fill="black"/>
<path opacity="0.1" d="M94.1454 106.569C94.3072 106.577 94.4682 106.543 94.6128 106.47C94.7574 106.398 94.8806 106.288 94.9705 106.154C95.0604 106.019 95.1137 105.863 95.1255 105.702C95.1372 105.54 95.1069 105.379 95.0374 105.232C94.9601 105.284 94.8939 105.351 94.8429 105.428C94.7877 105.535 94.7256 105.639 94.657 105.738C94.5762 105.818 94.4785 105.879 94.371 105.917C94.2636 105.955 94.1491 105.968 94.0359 105.956C93.8097 105.946 93.5907 105.881 93.3659 105.861C93.3342 105.861 93.3025 105.861 93.2708 105.861C93.3202 106.057 93.4322 106.233 93.5899 106.361C93.7476 106.489 93.9426 106.562 94.1454 106.569Z" fill="black"/>
<path opacity="0.1" d="M96.428 108.084C96.551 108.09 96.674 108.071 96.7899 108.029C96.9058 107.988 97.0122 107.923 97.1033 107.841C97.1943 107.758 97.268 107.657 97.3203 107.546C97.3726 107.434 97.4023 107.314 97.4079 107.191C97.4163 107.042 97.3886 106.894 97.3272 106.758C97.2503 106.809 97.1834 106.874 97.1298 106.949C97.0682 107.058 96.9998 107.164 96.9252 107.266C96.8371 107.348 96.7325 107.412 96.6183 107.452C96.5042 107.492 96.3829 107.507 96.2623 107.498C96.0289 107.498 95.8055 107.436 95.575 107.418C95.631 107.604 95.7431 107.767 95.8958 107.887C96.0486 108.006 96.2345 108.075 96.428 108.084Z" fill="black"/>
<path opacity="0.1" d="M95.9597 109.905C96.0707 110.117 96.258 110.278 96.4835 110.356C96.709 110.434 96.9558 110.423 97.1736 110.325C97.3914 110.228 97.5638 110.051 97.6558 109.831C97.7478 109.611 97.7524 109.364 97.6687 109.14C97.5914 109.191 97.5219 109.252 97.4627 109.323C97.3854 109.439 97.3017 109.55 97.2119 109.656C96.9946 109.838 96.7187 109.935 96.4352 109.93C96.2764 109.93 96.1177 109.922 95.9597 109.905Z" fill="black"/>
<path d="M98.3015 111.454C98.3015 111.454 97.5608 111.264 97.3374 111.106C97.1141 110.947 96.1991 110.757 96.1443 111.012C96.0896 111.267 95.0319 112.279 95.8677 112.286C96.7034 112.293 97.8086 112.323 98.0291 112.188C98.2496 112.052 98.3015 111.454 98.3015 111.454Z" fill="#656380"/>
<path opacity="0.2" d="M95.8516 112.201C96.6874 112.201 97.794 112.238 98.0131 112.103C98.1831 112.001 98.2508 111.629 98.2724 111.459H98.3013C98.3013 111.459 98.2537 112.057 98.0318 112.192C97.8099 112.328 96.7032 112.296 95.8704 112.29C95.6283 112.29 95.5461 112.202 95.5505 112.075C95.5807 112.148 95.6729 112.201 95.8516 112.201Z" fill="black"/>
<path d="M101.5 112.286H28.155V112.574H101.5V112.286Z" fill="#3F3D56"/>
<path d="M143 112.286H104.094V112.574H143V112.286Z" fill="#3F3D56"/>
<path d="M25.5613 112.286H1.20898V112.574H25.5613V112.286Z" fill="#3F3D56"/>
<path d="M71.1135 70.952C70.5183 69.1852 68.6039 68.2352 66.8374 68.8303C65.0709 69.4253 64.1214 71.34 64.7165 73.1068L66.0694 77.1232C66.6646 78.8901 68.579 79.84 70.3455 79.245C72.112 78.65 73.0615 76.7353 72.4664 74.9685L71.1135 70.952Z" fill="#FF6584"/>
<path d="M66.9343 73.1319C66.9343 73.1319 68.188 74.9316 66.9343 75.4014C65.6807 75.8712 65.2051 77.2026 65.2051 77.2026C65.2051 77.2026 64.8132 78.7689 65.6749 79.0758C66.5366 79.3828 69.8249 77.5888 70.2946 77.119C70.7644 76.6493 70.2946 75.3899 70.2946 75.3899C70.2946 75.3899 69.0424 73.6607 69.1203 72.5713C69.1981 71.482 66.9343 73.1319 66.9343 73.1319Z" fill="#FBBEBE"/>
<path opacity="0.1" d="M66.9343 73.1319C66.9343 73.1319 68.188 74.9316 66.9343 75.4014C65.6807 75.8712 65.2051 77.2026 65.2051 77.2026C65.2051 77.2026 64.8132 78.7689 65.6749 79.0758C66.5366 79.3828 69.8249 77.5888 70.2946 77.119C70.7644 76.6493 70.2946 75.3899 70.2946 75.3899C70.2946 75.3899 69.0424 73.6607 69.1203 72.5713C69.1981 71.482 66.9343 73.1319 66.9343 73.1319Z" fill="black"/>
<path d="M70.3018 87.0689C70.3018 87.0689 73.1203 92.9423 74.0613 93.3342C75.0022 93.7262 77.5066 93.4898 76.7227 95.683C75.9389 97.8761 75.1564 96.8574 75.8582 98.4208C76.5599 99.9843 79.3828 102.258 77.1118 101.317C74.8408 100.376 72.1779 98.1859 70.6908 98.4986C69.2038 98.8113 65.4717 97.5519 64.6388 97.7119C63.8059 97.8718 64.1157 94.2708 64.1157 94.2708L66.4645 90.8255L70.3018 87.0689Z" fill="#6C63FF"/>
<path d="M67.5611 93.0993C67.5611 93.0993 66.3824 97.4006 67.0135 98.0318C67.0913 98.1096 69.2052 98.6586 70.6159 100.225C71.4756 101.174 72.5129 101.946 73.6693 102.496L72.4157 103.826C72.4157 103.826 69.6779 101.634 67.9487 101.242C66.2195 100.85 64.4255 99.5131 64.4255 99.0505C64.4255 98.588 65.5999 92.7103 65.5999 92.7103L67.5611 93.0993Z" fill="#FBBEBE"/>
<path opacity="0.1" d="M67.5611 93.0993C67.5611 93.0993 66.3824 97.4006 67.0135 98.0318C67.0913 98.1096 69.2052 98.6586 70.6159 100.225C71.4756 101.174 72.5129 101.946 73.6693 102.496L72.4157 103.826C72.4157 103.826 69.6779 101.634 67.9487 101.242C66.2195 100.85 64.4255 99.5131 64.4255 99.0505C64.4255 98.588 65.5999 92.7103 65.5999 92.7103L67.5611 93.0993Z" fill="black"/>
<path d="M72.6521 101.634C72.6521 101.634 73.3567 101.164 73.8279 101.791C74.2991 102.418 76.3323 103.356 76.3323 103.356C76.3323 103.356 77.2733 103.356 76.8021 104.375L76.3323 105.392L76.0196 105.237C76.0196 105.237 75.7069 108.368 73.9835 108.682C73.9835 108.682 73.436 108.682 73.9057 107.271C73.9057 107.271 74.6104 106.646 73.3567 105.398C73.3567 105.398 72.1823 105.242 72.1823 104.85C72.1823 104.85 71.2428 104.616 71.5569 103.986C71.8711 103.356 73.1997 102.496 72.6521 101.634Z" fill="#3F3D56"/>
<path d="M63.489 94.7435C63.489 94.7435 63.1764 96.3098 62.9415 96.5447C62.7066 96.7796 62.7066 97.562 62.9415 98.418C63.1764 99.2739 63.3334 104.212 62.5495 106.64C61.7657 109.068 63.6461 107.972 63.6461 107.972C63.6461 107.972 66.0741 101.941 65.76 99.0376C65.4459 96.1341 68.4979 93.0072 68.4979 93.0072L64.7427 92.3155L63.489 94.7435Z" fill="#FBBEBE"/>
<path d="M62.7598 105.838C62.7598 105.838 62.1589 106.254 62.0797 106.567C62.0327 106.755 61.9223 106.921 61.767 107.036C61.767 107.036 61.1401 108.133 61.1401 109.072C61.1401 110.012 59.1833 111.423 59.1833 111.423C59.1833 111.423 57.068 112.518 59.9658 112.362C62.8636 112.207 63.5682 112.048 63.5682 112.048V112.362C63.5682 112.362 64.8204 112.44 64.7426 111.498C64.6648 110.555 64.5826 108.368 64.5826 108.368C64.5826 108.368 65.5221 107.428 65.2094 106.724C64.8967 106.019 64.3449 106.046 64.3449 106.046C64.3449 106.046 63.8722 107.585 63.4803 107.506C63.0883 107.427 62.8131 106.361 62.7598 105.838Z" fill="#3F3D56"/>
<path d="M63.8807 81.0399L61.7669 88.6353C61.7669 88.6353 60.6703 91.2982 61.532 91.2189C62.3937 91.1397 62.7842 88.4004 62.7842 88.4004L64.4297 84.6423L64.6646 81.6667L63.8807 81.0399Z" fill="#FBBEBE"/>
<path d="M67.6793 73.7184C68.8468 73.7184 69.7932 72.772 69.7932 71.6045C69.7932 70.437 68.8468 69.4906 67.6793 69.4906C66.5119 69.4906 65.5654 70.437 65.5654 71.6045C65.5654 72.772 66.5119 73.7184 67.6793 73.7184Z" fill="#FBBEBE"/>
<path d="M65.917 77.9865C65.917 77.9865 65.5971 76.3294 66.5395 75.5916C66.5395 75.5916 65.3695 75.4807 65.1346 75.7934C65.1346 75.7934 63.7239 75.8712 63.7239 76.8121C63.7239 77.7531 63.5682 78.926 63.489 79.0816C63.4097 79.2373 63.0985 79.9462 63.5683 81.5875C64.038 83.2287 64.8651 83.9766 64.3896 84.8383C64.241 85.1416 64.1195 85.4574 64.0265 85.7821C63.5899 87.196 63.4117 88.677 63.5005 90.154C63.5841 91.5518 63.5365 93.5504 62.78 94.8184C61.5278 96.9323 70.4546 93.5662 70.6117 92.8616C70.7688 92.157 71.0022 90.2765 70.6895 89.2592C70.5008 88.5979 70.4474 87.9054 70.5324 87.2231C70.5324 87.2231 71.1593 84.4046 69.5151 82.8382L71.7068 76.3395C71.7068 76.3395 70.7673 75.3207 70.0627 75.3985C69.3581 75.4763 65.917 77.9865 65.917 77.9865Z" fill="#6C63FF"/>
<path d="M70.6937 78.2214L70.6563 78.3295C70.4056 79.0874 68.966 83.5674 69.7542 84.6424C69.7542 84.6424 70.6937 84.8772 71.0064 83.6236C71.3191 82.37 72.3379 77.5168 71.9459 77.1248C71.554 76.7329 70.6937 78.2214 70.6937 78.2214Z" fill="#FBBEBE"/>
<path opacity="0.1" d="M70.6937 78.2214L70.6563 78.3295C70.4056 79.0874 68.966 83.5674 69.7542 84.6424C69.7542 84.6424 70.6937 84.8772 71.0064 83.6236C71.3191 82.37 72.3379 77.5168 71.9459 77.1248C71.554 76.7329 70.6937 78.2214 70.6937 78.2214Z" fill="black"/>
<path d="M71.711 76.2631C71.711 76.2631 72.3378 76.498 72.1807 77.1277C72.0237 77.7574 70.3075 78.9289 70.3075 78.9289L70.1504 77.5975L71.711 76.2631Z" fill="#6C63FF"/>
<path d="M68.9345 69.0756C68.7694 69.0676 68.6042 69.0881 68.446 69.1361C68.3261 68.9153 68.1499 68.7302 67.9352 68.5997C67.7205 68.4691 67.4751 68.3977 67.2239 68.3928C66.9727 68.3879 66.7247 68.4497 66.5051 68.5718C66.2855 68.6939 66.1021 68.8719 65.9737 69.0879C65.8453 69.3038 65.7764 69.55 65.774 69.8012C65.7716 70.0524 65.8358 70.2998 65.96 70.5182C66.0843 70.7366 66.2642 70.9181 66.4814 71.0444C66.6986 71.1707 66.9454 71.2371 67.1967 71.237H67.2687C67.3705 71.2308 67.4724 71.2473 67.5671 71.2851C67.6618 71.323 67.7469 71.3814 67.8163 71.4561C67.9739 71.6288 68.1716 71.7601 68.3919 71.8382C68.6123 71.9163 68.8485 71.9389 69.0797 71.9039C69.3109 71.869 69.5299 71.7776 69.7173 71.6378C69.9047 71.4981 70.0548 71.3142 70.1543 71.1026C70.2537 70.8911 70.2995 70.6582 70.2875 70.4247C70.2755 70.1912 70.2061 69.9643 70.0855 69.764C69.9649 69.5637 69.7968 69.3962 69.596 69.2764C69.3952 69.1566 69.168 69.0881 68.9345 69.077V69.0756Z" fill="#FF6584"/>
<path d="M69.7544 82.9982C69.7544 82.9982 71.7905 80.3353 72.0253 79.3165C72.2602 78.2977 70.5368 75.6363 71.7905 75.7933C73.0441 75.9504 73.3554 78.1421 73.3554 78.1421C73.3554 78.1421 73.5902 78.5341 73.0427 80.0226C72.4951 81.5111 71.6334 83.625 71.1694 84.0933C70.7054 84.5616 69.3624 85.8945 69.7544 82.9982Z" fill="#FBBEBE"/>
</g>
<defs>
<clipPath id="clip0">
<rect width="143" height="112.583" fill="white"/>
</clipPath>
</defs>
</svg>
