<svg width="257" height="173" viewBox="0 0 257 173" fill="none" xmlns="http://www.w3.org/2000/svg">
<rect width="257" height="173" rx="3" fill="white"/>
<g clip-path="url(#clip0)">
<path d="M108.377 155.889L108.088 155.589C108.145 155.535 113.818 149.982 115.98 139.606C117.977 130.025 117.302 114.25 102.752 93.5108C96.6719 84.8455 92.5258 76.6585 90.4286 69.1773C88.715 63.0644 88.3522 57.3817 89.3503 52.2871C91.3234 42.2147 98.0301 37.7927 98.0976 37.7493L98.3229 38.0986C98.2568 38.1412 91.6903 42.4802 89.7558 52.3799C87.5365 63.7378 92.0234 77.4961 103.092 93.2721C109.555 102.484 113.858 111.505 115.88 120.084C117.5 126.956 117.669 133.562 116.382 139.718C114.188 150.209 108.434 155.833 108.377 155.889Z" fill="#F2F2F2"/>
<path d="M94.4143 60.9483C103.305 60.9483 110.512 53.7441 110.512 44.8574C110.512 35.9707 103.305 28.7666 94.4143 28.7666C85.5237 28.7666 78.3164 35.9707 78.3164 44.8574C78.3164 53.7441 85.5237 60.9483 94.4143 60.9483Z" fill="#F2F2F2"/>
<path d="M98.211 59.8479C93.873 59.8479 89.6323 58.5621 86.0254 56.153C82.4184 53.744 79.6071 50.32 77.947 46.3139C76.2869 42.3078 75.8525 37.8997 76.6988 33.6468C77.5451 29.394 79.6341 25.4875 82.7015 22.4214C85.769 19.3553 89.6772 17.2672 93.9319 16.4213C98.1866 15.5753 102.597 16.0095 106.605 17.6689C110.612 19.3282 114.038 22.1382 116.448 25.7436C118.858 29.349 120.145 33.5877 120.145 37.9239C120.138 43.7364 117.825 49.3091 113.713 53.4192C109.601 57.5293 104.026 59.8413 98.211 59.8479ZM98.211 16.4157C93.9552 16.4157 89.795 17.6771 86.2564 20.0405C82.7178 22.4038 79.9598 25.763 78.3312 29.6931C76.7026 33.6232 76.2764 37.9478 77.1067 42.12C77.937 46.2922 79.9863 50.1246 82.9956 53.1325C86.005 56.1405 89.8391 58.189 94.0131 59.0189C98.1871 59.8488 102.514 59.4228 106.445 57.7949C110.377 56.167 113.738 53.4102 116.102 49.8732C118.467 46.3362 119.729 42.1778 119.729 37.9239C119.722 32.2215 117.453 26.7546 113.419 22.7225C109.385 18.6903 103.916 16.4222 98.211 16.4157Z" fill="#F2F2F2"/>
<path d="M110.514 94.6997C117.886 94.6997 123.863 88.7255 123.863 81.3561C123.863 73.9866 117.886 68.0125 110.514 68.0125C103.141 68.0125 97.1641 73.9866 97.1641 81.3561C97.1641 88.7255 103.141 94.6997 110.514 94.6997Z" fill="#F2F2F2"/>
<path d="M103.709 141.01C111.082 141.01 117.058 135.036 117.058 127.666C117.058 120.297 111.082 114.323 103.709 114.323C96.3362 114.323 90.3594 120.297 90.3594 127.666C90.3594 135.036 96.3362 141.01 103.709 141.01Z" fill="#F2F2F2"/>
<path d="M159.75 39.6953H110.883V71.4969H159.75V39.6953Z" fill="#005FD5"/>
<path d="M224.953 155.885H179.695C179.695 155.885 178.778 142.436 184.206 142.284C189.634 142.131 189.022 148.244 195.826 139.838C202.63 131.433 210.886 131.891 211.957 136.858C213.027 141.825 209.892 145.799 215.626 144.576C221.36 143.353 229.616 146.563 224.953 155.885Z" fill="#F2F2F2"/>
<path d="M201.559 155.888L201.406 155.882C201.762 147.028 203.618 141.338 205.111 138.125C206.733 134.636 208.296 133.223 208.312 133.21L208.413 133.324C208.398 133.338 206.853 134.736 205.244 138.202C203.759 141.401 201.914 147.067 201.559 155.888Z" fill="white"/>
<path d="M217.94 155.907L217.793 155.864C218.931 152.111 220.983 148.699 223.764 145.934L223.867 146.047C221.106 148.793 219.07 152.181 217.94 155.907Z" fill="white"/>
<path d="M186.826 155.896L186.674 155.875C187.168 152.555 186.645 149.164 185.176 146.146C184.574 144.88 183.776 143.717 182.812 142.698L182.918 142.588C183.894 143.619 184.703 144.797 185.313 146.078C186.796 149.124 187.323 152.546 186.826 155.896Z" fill="white"/>
<path d="M18.786 155.842L18.6817 155.627C18.6499 155.562 15.5234 149.03 17.2665 142.588C19.0098 136.147 25.0048 132.081 25.0651 132.041L25.2632 131.908L25.3676 132.123C25.3994 132.188 28.5259 138.72 26.7826 145.161C25.0394 151.603 19.0445 155.669 18.9841 155.709L18.786 155.842ZM25.0955 132.528C24.0459 133.292 19.1902 137.072 17.668 142.697C16.1447 148.326 18.4321 154.034 18.9538 155.222C20.0033 154.458 24.859 150.678 26.3811 145.053C27.9046 139.424 25.6172 133.716 25.0955 132.528Z" fill="#3F3D56"/>
<path d="M10.7256 145.107C12.4686 151.548 18.4389 155.537 18.4389 155.537C18.4389 155.537 21.5832 149.083 19.8401 142.643C18.0971 136.202 12.1268 132.214 12.1268 132.214C12.1268 132.214 8.98255 138.667 10.7256 145.107Z" fill="#005FD5"/>
<path d="M18.8831 155.751L18.6451 155.739C18.5726 155.735 11.3416 155.289 6.55799 150.635C1.77464 145.98 1.13466 138.767 1.12877 138.695L1.10938 138.457L1.34738 138.47C1.41987 138.474 8.65095 138.92 13.4344 143.574C18.2179 148.229 18.8579 155.442 18.8637 155.514L18.8831 155.751ZM1.56994 138.905C1.72682 140.193 2.6712 146.273 6.84819 150.337C11.0252 154.401 17.1304 155.181 18.4226 155.304C18.2657 154.016 17.3213 147.936 13.1442 143.872C8.96419 139.804 2.86148 139.027 1.56994 138.905Z" fill="#3F3D56"/>
<path d="M24.0234 143.723C19.2405 148.377 18.6562 155.531 18.6562 155.531C18.6562 155.531 25.8267 155.14 30.6096 150.486C35.3925 145.832 35.9767 138.678 35.9767 138.678C35.9767 138.678 28.8063 139.069 24.0234 143.723Z" fill="#3F3D56"/>
<path d="M62.9062 103.4C58.1233 108.053 57.5391 115.208 57.5391 115.208C57.5391 115.208 64.7095 114.816 69.4924 110.162C74.2753 105.508 74.8595 98.3542 74.8595 98.3542C74.8595 98.3542 67.6891 98.7456 62.9062 103.4Z" fill="#3F3D56"/>
<path d="M18.5567 131.151C20.2794 131.151 21.6759 129.755 21.6759 128.033C21.6759 126.311 20.2794 124.915 18.5567 124.915C16.834 124.915 15.4375 126.311 15.4375 128.033C15.4375 129.755 16.834 131.151 18.5567 131.151Z" fill="#005FD5"/>
<path d="M56.3991 155.681L56.1108 155.381C56.1561 155.338 60.6555 150.932 62.3693 142.701C63.952 135.098 63.4145 122.58 51.8658 106.12C43.0085 93.4956 39.4242 82.4661 41.2125 73.3377C42.7835 65.3183 48.1266 61.7955 48.1804 61.7609L48.4057 62.1102C48.3534 62.144 43.1504 65.5838 41.6181 73.4306C39.8585 82.4414 43.4208 93.3594 52.2063 105.881C57.3441 113.204 60.7645 120.375 62.3722 127.196C63.6605 132.662 63.7946 137.916 62.7708 142.812C61.0253 151.16 56.4452 155.637 56.3991 155.681Z" fill="#3F3D56"/>
<path d="M54.3208 72.1204C74.9929 72.1204 91.751 69.2467 91.751 65.7018C91.751 62.1569 74.9929 59.2832 54.3208 59.2832C33.6487 59.2832 16.8906 62.1569 16.8906 65.7018C16.8906 69.2467 33.6487 72.1204 54.3208 72.1204Z" fill="#005FD5"/>
<path d="M47.3538 70.2497C21.4093 70.2497 1.08594 66.689 1.08594 62.1434C1.08594 57.5978 21.4093 54.0371 47.3538 54.0371C73.2984 54.0371 93.6217 57.5978 93.6217 62.1434C93.6217 66.689 73.2984 70.2497 47.3538 70.2497ZM47.3538 54.4528C22.4995 54.4528 1.50183 57.9747 1.50183 62.1434C1.50183 66.3121 22.4995 69.834 47.3538 69.834C72.2082 69.834 93.2058 66.3121 93.2058 62.1434C93.2058 57.9747 72.2082 54.4528 47.3538 54.4528Z" fill="#3F3D56"/>
<path d="M57.8694 30.642C57.8694 30.642 52.3228 29.0803 50.6822 36.6548C49.0416 44.2293 50.2916 48.0555 50.2916 48.0555L62.6739 46.6109C62.6739 46.6109 66.1894 32.9456 57.8694 30.642Z" fill="#2F2E41"/>
<path d="M49.5708 63.4487C49.5708 63.4487 41.4347 64.2587 42.8838 67.5419C44.333 70.8252 44.333 71.1149 44.333 71.1149L51.482 83.8616L53.8006 81.4474C53.8006 81.4474 51.1922 75.75 51.1922 73.9153C51.1922 72.0805 48.4872 68.8939 48.4872 68.8939L53.221 68.5076L49.5708 63.4487Z" fill="#A0616A"/>
<path d="M71.8647 67.3489L74.5698 73.2394C74.5698 73.2394 76.5986 75.2673 78.8206 83.3789C81.0426 91.4904 81.5256 91.2007 81.5256 91.2007L78.1443 91.8767C78.1443 91.8767 74.3766 83.0892 73.1207 82.4132C71.8647 81.7372 70.319 75.557 70.319 75.557L65.875 69.9562L67.2275 66.9626L71.8647 67.3489Z" fill="#A0616A"/>
<path d="M68.5829 60.5893L72.7371 68.3146C72.7371 68.3146 67.5202 65.9004 66.7473 71.2116L62.0135 67.542C62.0135 67.542 55.4441 69.6665 51.4831 68.894C51.4831 68.894 52.6424 65.2245 48.4883 63.5828L57.8593 62.424L57.4729 60.3962L58.439 58.4648L68.5829 60.5893Z" fill="#2F2E41"/>
<path d="M52.0637 82.1235C52.0637 82.1235 49.4552 81.7372 50.1315 84.0548L51.484 88.6899C51.484 88.6899 49.745 93.4217 52.4501 92.3594C55.1552 91.2972 56.8941 84.7307 56.8941 84.7307C56.8941 84.7307 58.0534 79.7093 56.8941 79.7093C55.7348 79.7093 52.0637 78.9368 52.4501 79.7093C52.8365 80.4818 52.0637 82.1235 52.0637 82.1235Z" fill="#2F2E41"/>
<path d="M81.2397 89.8487C81.2397 89.8487 77.8584 88.9796 77.0855 90.3315C76.3126 91.6835 76.5058 96.1255 76.5058 96.2221C76.5058 96.3186 77.6651 97.2843 78.0516 97.2843C78.438 97.2843 80.8532 101.63 84.138 100.085C87.4227 98.5396 81.2397 89.8487 81.2397 89.8487Z" fill="#2F2E41"/>
<path d="M56.8927 42.4349C58.9736 42.4349 60.6605 40.7487 60.6605 38.6688C60.6605 36.5888 58.9736 34.9027 56.8927 34.9027C54.8119 34.9027 53.125 36.5888 53.125 38.6688C53.125 40.7487 54.8119 42.4349 56.8927 42.4349Z" fill="#A0616A"/>
<path d="M59.9832 39.4413C59.9832 39.4413 60.7561 43.4971 61.4324 44.0765C62.1086 44.6559 56.3121 45.5249 56.3121 45.5249C56.3121 45.5249 57.1816 42.7245 56.1189 41.276C55.0562 39.8275 59.9832 39.4413 59.9832 39.4413Z" fill="#A0616A"/>
<path d="M70.1257 62.4239C69.4678 62.4239 67.7926 62.1515 65.9145 61.801C64.2896 61.4978 62.511 61.1376 61.1082 60.846C59.606 60.5331 58.5326 60.2994 58.5326 60.2994C58.5326 60.2994 58.1462 62.7136 56.8903 62.4239C55.8083 62.1747 52.5748 50.8852 51.7005 47.7651C51.6366 47.5373 51.6489 47.2949 51.7356 47.0747C51.8223 46.8545 51.9785 46.6687 52.1806 46.5455L56.6217 43.8349L57.7598 44.2694C57.7598 44.2694 59.6823 42.7843 60.7981 42.7543C61.9139 42.7244 63.8461 42.4347 63.8461 42.4347C63.8461 42.4347 66.0681 42.6278 66.4545 44.2694C66.841 45.9111 67.0342 56.1471 68.4833 57.9818C69.9325 59.8166 71.9613 62.4239 70.1257 62.4239Z" fill="#D0CDE1"/>
<path d="M56.6016 67.8316C56.6016 67.8316 56.6016 71.5977 59.1134 71.0183C61.6252 70.4389 59.3066 66.9625 59.3066 66.9625L56.6016 67.8316Z" fill="#A0616A"/>
<path d="M63.556 68.218C63.556 68.218 62.6865 72.66 60.851 71.9841C59.0154 71.3081 60.851 67.3489 60.851 67.3489L63.556 68.218Z" fill="#A0616A"/>
<path opacity="0.15" d="M67.615 57.6924C67.615 57.6924 66.6692 59.9482 65.9156 61.8013C64.2907 61.498 62.5121 61.1378 61.1094 60.8462C61.2102 60.5795 61.3516 60.33 61.5287 60.1065C62.2049 59.334 61.8185 59.1409 61.8185 59.1409C61.2388 57.9821 61.7219 56.437 61.7219 56.437C60.5626 53.3469 62.3015 49.4843 62.3015 49.4843L67.615 57.6924Z" fill="black"/>
<path d="M62.591 49.4841C62.591 49.4841 60.852 53.3468 62.0113 56.4369C62.0113 56.4369 61.5283 57.9819 62.108 59.1407C62.108 59.1407 62.4944 59.3338 61.8181 60.1064C61.1419 60.8789 60.5622 63.5828 61.0453 64.1622C61.5283 64.7415 60.369 65.8038 60.6588 66.3832C60.9487 66.9626 60.1758 67.7351 60.1758 67.7351C60.1758 67.7351 63.074 68.3145 63.5571 69.1836C63.5571 69.1836 64.1367 68.5076 63.8469 67.7351C63.5571 66.9626 63.7503 66.6729 64.0401 66.19C64.33 65.7072 65.1994 64.645 65.296 64.1622C65.3927 63.6793 67.9045 57.6922 67.9045 57.6922L66.7265 46.7816L62.591 49.4841Z" fill="#D0CDE1"/>
<path d="M52.5453 46.7803L52.3648 46.8131C52.1132 46.8587 51.8857 46.9916 51.7225 47.1885C51.5593 47.3853 51.4708 47.6334 51.4727 47.8891C51.4796 48.8586 51.5342 50.5793 51.7724 52.9605C52.1589 56.8231 53.5114 62.6171 53.8012 63.1965C54.2615 64.2218 54.7775 65.2211 55.347 66.19C56.2164 67.6385 56.4097 67.1557 56.2164 67.8317C56.1577 68.0179 56.1537 68.217 56.2051 68.4054C56.2565 68.5937 56.3611 68.7633 56.5063 68.8939C56.5063 68.8939 58.2452 66.9626 59.9842 68.0248C60.1085 67.7517 60.1743 67.4557 60.1774 67.1557C60.1774 66.6729 60.4672 66.19 59.9842 65.9003C59.5011 65.6106 60.274 64.3553 59.5011 63.6793C58.7283 63.0034 58.6317 63.0999 58.7283 62.424C58.7734 61.9644 58.7071 61.5007 58.5351 61.0721L52.5453 46.7803Z" fill="#D0CDE1"/>
<path d="M58.3005 33.8311C58.3005 33.8311 56.7381 37.9697 52.9101 39.6876L52.2852 36.0175L58.3005 33.8311Z" fill="#2F2E41"/>
<path d="M60.5626 38.2342C60.8561 38.2342 61.094 37.7802 61.094 37.2202C61.094 36.6603 60.8561 36.2063 60.5626 36.2063C60.2691 36.2063 60.0312 36.6603 60.0312 37.2202C60.0312 37.7802 60.2691 38.2342 60.5626 38.2342Z" fill="#A0616A"/>
<path d="M169.811 90.5904C173.539 90.5904 176.56 87.5702 176.56 83.8446C176.56 80.1191 173.539 77.0989 169.811 77.0989C166.084 77.0989 163.062 80.1191 163.062 83.8446C163.062 87.5702 166.084 90.5904 169.811 90.5904Z" fill="#2F2E41"/>
<path d="M168.914 77.2254C170.152 77.2254 171.155 76.2222 171.155 74.9847C171.155 73.7471 170.152 72.7439 168.914 72.7439C167.676 72.7439 166.672 73.7471 166.672 74.9847C166.672 76.2222 167.676 77.2254 168.914 77.2254Z" fill="#2F2E41"/>
<path d="M166.39 76.3726C166.045 75.9378 165.873 75.3902 165.908 74.8361C165.944 74.2819 166.184 73.7607 166.582 73.3733C166.519 73.4136 166.458 73.4573 166.398 73.5045C166.168 73.6875 165.975 73.9141 165.833 74.1714C165.69 74.4287 165.599 74.7116 165.565 75.0039C165.532 75.2963 165.556 75.5923 165.637 75.8753C165.718 76.1582 165.854 76.4224 166.037 76.6528C166.22 76.8832 166.447 77.0753 166.704 77.2181C166.962 77.361 167.245 77.4517 167.537 77.4852C167.83 77.5187 168.126 77.4943 168.409 77.4134C168.692 77.3325 168.956 77.1966 169.187 77.0136C169.246 76.9663 169.303 76.9166 169.356 76.8646C168.889 77.1645 168.326 77.2802 167.778 77.1893C167.23 77.0984 166.736 76.8073 166.39 76.3726Z" fill="#2F2E41"/>
<path d="M158.757 108.239L154.851 111.543C154.851 111.543 148.992 113.345 151.846 115.297C154.701 117.249 156.353 112.894 156.353 112.894L161.161 109.891L158.757 108.239Z" fill="#FFB9B9"/>
<path d="M167.174 93.823L166.723 93.5227C166.723 93.5227 164.92 93.5227 164.62 95.3247C164.319 97.1267 163.418 100.881 163.418 100.881C163.418 100.881 160.413 102.683 160.713 105.987L157.559 108.69C157.559 108.69 161.314 109.891 160.563 110.942L166.122 105.836L166.272 96.0756L167.174 93.823Z" fill="#2F2E41"/>
<path d="M168.976 90.3693C171.134 90.3693 172.883 88.6213 172.883 86.4649C172.883 84.3086 171.134 82.5605 168.976 82.5605C166.819 82.5605 165.07 84.3086 165.07 86.4649C165.07 88.6213 166.819 90.3693 168.976 90.3693Z" fill="#FFB9B9"/>
<path d="M167.774 89.1679C167.774 89.1679 170.178 91.8709 168.676 93.3726C167.173 94.8742 166.723 102.232 166.723 102.232L173.333 92.1712C173.333 92.1712 171.53 88.5672 171.68 87.3658L167.774 89.1679Z" fill="#FFB9B9"/>
<path d="M167.324 99.6798C167.324 99.6798 170.93 91.7639 172.883 91.2168L177.991 92.4717C177.991 92.4717 173.934 106.437 174.385 107.789C174.836 109.14 177.39 111.092 176.488 122.956C176.488 122.956 188.056 144.129 185.202 147.733C182.347 151.337 171.681 154.04 171.531 152.989C171.38 151.938 166.573 135.72 167.324 130.764C167.324 130.764 167.324 152.238 166.423 152.689C165.521 153.139 151.099 156.443 151.549 153.89C152 151.337 159.211 123.256 159.211 123.256L164.77 105.837L164.92 103.284C164.92 103.284 162.516 101.632 164.319 97.8777C166.122 94.1235 166.723 93.5229 166.723 93.5229L168.887 93.1167C168.887 93.1167 166.873 98.6286 167.324 99.6798Z" fill="#2F2E41"/>
<path d="M175.434 110.942L173.631 114.846C173.631 114.846 168.974 119.802 172.279 119.952C175.584 120.102 175.884 115.447 175.884 115.447L178.288 110.942H175.434Z" fill="#FFB9B9"/>
<path d="M176.038 92.6219H177.991C177.991 92.6219 178.591 91.7209 179.192 95.4751C179.793 99.2293 179.493 104.936 179.493 104.936L178.591 112.444C178.591 112.444 175.437 111.243 174.685 111.543C173.934 111.843 174.685 111.393 174.685 111.393L176.038 106.287L174.385 98.9289L176.038 92.6219Z" fill="#2F2E41"/>
<path d="M168.579 80.7079C166.027 81.4008 164.287 83.1685 164.691 84.6562C164.872 85.3218 165.453 85.8172 166.267 86.1009L166.981 85.2152L167.014 86.29C167.127 86.3092 167.242 86.3264 167.36 86.3389L168.267 84.4287L168.785 86.3321C169.21 86.2867 169.631 86.2075 170.043 86.0952C172.594 85.4022 174.335 83.6345 173.931 82.1469C173.526 80.6592 171.13 80.015 168.579 80.7079Z" fill="#2F2E41"/>
<path d="M172.955 86.3898C173.204 86.3898 173.405 86.0537 173.405 85.639C173.405 85.2243 173.204 84.8882 172.955 84.8882C172.706 84.8882 172.504 85.2243 172.504 85.639C172.504 86.0537 172.706 86.3898 172.955 86.3898Z" fill="#FFB9B9"/>
<path d="M157.672 155.885C159.624 155.885 161.207 155.187 161.207 154.326C161.207 153.465 159.624 152.768 157.672 152.768C155.719 152.768 154.137 153.465 154.137 154.326C154.137 155.187 155.719 155.885 157.672 155.885Z" fill="#2F2E41"/>
<path d="M176.861 155.143C179.296 154.183 180.929 152.54 180.508 151.472C180.087 150.404 177.771 150.316 175.336 151.275C172.9 152.235 171.267 153.879 171.688 154.947C172.109 156.015 174.425 156.102 176.861 155.143Z" fill="#2F2E41"/>
<path d="M152.987 113.331C152.925 113.316 146.758 111.747 144.411 105.515C141.737 98.4114 144.881 88.3945 153.758 75.7424C164.6 60.2891 165.189 55.0967 163.774 53.462C161.984 51.3943 156.366 54.1942 156.31 54.2227L156.122 53.8517C156.365 53.7291 162.086 50.8781 164.088 53.1897C166.288 55.7301 162.927 63.3981 154.099 75.9811C149.288 82.8372 146.144 88.9912 144.754 94.2722C143.626 98.5535 143.641 102.285 144.798 105.362C147.064 111.389 153.026 112.912 153.086 112.927L152.987 113.331Z" fill="#3F3D56"/>
<path d="M156.425 66.5084H104.23V32.4204H156.425V66.5084ZM104.646 66.0927H156.009V32.8361H104.646V66.0927Z" fill="#3F3D56"/>
<path d="M125.968 53.9856C127.177 53.9856 128.158 53.0055 128.158 51.7963C128.158 50.5872 127.177 49.6071 125.968 49.6071C124.758 49.6071 123.777 50.5872 123.777 51.7963C123.777 53.0055 124.758 53.9856 125.968 53.9856Z" fill="white"/>
<path d="M144.667 53.9856C145.876 53.9856 146.857 53.0055 146.857 51.7963C146.857 50.5872 145.876 49.6071 144.667 49.6071C143.457 49.6071 142.477 50.5872 142.477 51.7963C142.477 53.0055 143.457 53.9856 144.667 53.9856Z" fill="white"/>
<path d="M144.667 60.7219C144.667 61.373 140.443 63.248 135.232 63.248C130.021 63.248 125.797 61.373 125.797 60.7219C125.797 60.0709 130.021 60.8903 135.232 60.8903C140.443 60.8903 144.667 60.0709 144.667 60.7219Z" fill="#FFB9B9"/>
<path d="M229.74 155.584H1V156H229.74V155.584Z" fill="#3F3D56"/>
</g>
<defs>
<clipPath id="clip0">
<rect width="228.74" height="140" fill="white" transform="translate(1 16)"/>
</clipPath>
</defs>
</svg>
