<svg width="131" height="141" viewBox="0 0 131 141" fill="none" xmlns="http://www.w3.org/2000/svg">
<g clip-path="url(#clip0)">
<path d="M82.5705 80.2595L26.3762 94.7427C24.47 95.2317 22.4479 94.9439 20.7534 93.9426C19.059 92.9412 17.8305 91.308 17.3377 89.4013L0.343039 23.3487C-0.145528 21.4409 0.141966 19.417 1.14245 17.7211C2.14294 16.0251 3.77471 14.7956 5.67977 14.3024L57.9594 0.828125L71.3405 6.82359L87.9072 71.2131C88.3958 73.121 88.1083 75.1448 87.1078 76.8408C86.1073 78.5367 84.4755 79.7662 82.5705 80.2595Z" fill="#F2F2F2"/>
<path d="M6.21183 16.3736C4.8552 16.7249 3.69318 17.6005 2.98071 18.8082C2.26824 20.0159 2.06351 21.4571 2.41143 22.8157L19.4061 88.8683C19.757 90.2262 20.6318 91.3892 21.8385 92.1023C23.0452 92.8153 24.4852 93.0203 25.8426 92.672L82.0369 78.1888C83.3935 77.8376 84.5555 76.962 85.268 75.7543C85.9805 74.5466 86.1852 73.1054 85.8373 71.7468L69.5272 8.3549L57.7676 3.08594L6.21183 16.3736Z" fill="white"/>
<path d="M71.1969 7.16348L62.5001 9.40495C61.8652 9.56858 61.1914 9.47309 60.6268 9.13947C60.0623 8.80585 59.6533 8.26144 59.4898 7.626L57.8357 1.1971C57.8285 1.16895 57.8293 1.13933 57.8381 1.11164C57.8469 1.08394 57.8633 1.05929 57.8855 1.04051C57.9076 1.02174 57.9347 1.00959 57.9634 1.00547C57.9921 1.00135 58.0215 1.00542 58.048 1.01721L71.2211 6.87242C71.2504 6.88545 71.2749 6.90729 71.2913 6.93491C71.3076 6.96253 71.315 6.99455 71.3123 7.02655C71.3097 7.05854 71.2971 7.08891 71.2765 7.11345C71.2558 7.13799 71.228 7.15548 71.1969 7.16348Z" fill="#F2F2F2"/>
<path d="M66.6216 63.5717L41.0371 70.1657C40.8799 70.2062 40.7163 70.2154 40.5556 70.1926C40.3949 70.1698 40.2403 70.1156 40.1005 70.033C39.9607 69.9504 39.8386 69.841 39.741 69.7112C39.6435 69.5814 39.5724 69.4336 39.532 69.2762C39.4915 69.1189 39.4824 68.9552 39.5051 68.7943C39.5279 68.6335 39.5821 68.4787 39.6646 68.3388C39.7471 68.1989 39.8564 68.0767 39.9861 67.979C40.1158 67.8814 40.2635 67.8103 40.4207 67.7698L66.0051 61.1758C66.1623 61.1353 66.3259 61.1262 66.4866 61.1489C66.6474 61.1717 66.802 61.2259 66.9418 61.3085C67.0816 61.3911 67.2037 61.5005 67.3012 61.6303C67.3988 61.7602 67.4698 61.908 67.5103 62.0653C67.5508 62.2226 67.5599 62.3864 67.5371 62.5472C67.5144 62.708 67.4602 62.8628 67.3777 63.0027C67.2952 63.1426 67.1859 63.2649 67.0562 63.3625C66.9264 63.4601 66.7788 63.5312 66.6216 63.5717Z" fill="#CCCCCC"/>
<path d="M72.5992 66.343L42.0774 74.2095C41.76 74.2913 41.423 74.2435 41.1408 74.0767C40.8585 73.9099 40.654 73.6377 40.5723 73.32C40.4905 73.0023 40.5382 72.6651 40.7049 72.3825C40.8715 72.1 41.1435 71.8953 41.461 71.8135L71.9828 63.947C72.3001 63.8655 72.6368 63.9135 72.9188 64.0803C73.2009 64.2472 73.4052 64.5192 73.4869 64.8368C73.5686 65.1543 73.521 65.4913 73.3545 65.7737C73.1881 66.0562 72.9164 66.2609 72.5992 66.343Z" fill="#CCCCCC"/>
<path d="M30.595 78.1079C33.0077 78.1079 34.9635 76.1503 34.9635 73.7356C34.9635 71.3208 33.0077 69.3633 30.595 69.3633C28.1824 69.3633 26.2265 71.3208 26.2265 73.7356C26.2265 76.1503 28.1824 78.1079 30.595 78.1079Z" fill="#E6E6E6"/>
<path d="M63.9012 52.1301L29.9225 60.8843C28.9405 61.1361 27.8988 60.9878 27.026 60.4719C26.1531 59.9559 25.5203 59.1145 25.2665 58.1323L18.1458 30.4462C17.8942 29.4634 18.0424 28.4208 18.5579 27.5472C19.0734 26.6735 19.9141 26.0402 20.8955 25.7862L54.8742 17.032C55.8562 16.7802 56.8979 16.9285 57.7708 17.4444C58.6436 17.9604 59.2764 18.8018 59.5302 19.784L66.6509 47.4701C66.9025 48.4529 66.7543 49.4955 66.2388 50.3691C65.7233 51.2427 64.8826 51.876 63.9012 52.1301Z" fill="white"/>
<path d="M63.9012 52.1301L29.9225 60.8843C28.9405 61.1361 27.8988 60.9878 27.026 60.4719C26.1531 59.9559 25.5203 59.1145 25.2665 58.1323L18.1458 30.4462C17.8942 29.4634 18.0424 28.4208 18.5579 27.5472C19.0734 26.6735 19.9141 26.0402 20.8955 25.7862L54.8742 17.032C55.8562 16.7802 56.8979 16.9285 57.7708 17.4444C58.6436 17.9604 59.2764 18.8018 59.5302 19.784L66.6509 47.4701C66.9025 48.4529 66.7543 49.4955 66.2388 50.3691C65.7233 51.2427 64.8826 51.876 63.9012 52.1301ZM21.0076 26.2222C20.1417 26.4464 19.3999 27.0052 18.9451 27.776C18.4902 28.5468 18.3595 29.4668 18.5815 30.334L25.7022 58.02C25.9261 58.8867 26.4844 59.6291 27.2546 60.0844C28.0248 60.5396 28.9439 60.6705 29.8104 60.4483L63.7891 51.6941C64.6551 51.4699 65.3968 50.9111 65.8517 50.1403C66.3065 49.3695 66.4373 48.4495 66.2153 47.5823L59.0946 19.8963C58.8706 19.0295 58.3123 18.2871 57.5421 17.8319C56.772 17.3767 55.8528 17.2458 54.9864 17.468L21.0076 26.2222Z" fill="#E6E6E6"/>
<path d="M53.1504 26.3408L36.0018 30.759C35.8518 30.8009 35.6916 30.7842 35.5535 30.7124C35.4154 30.6406 35.3096 30.519 35.2577 30.3721C35.2335 30.2954 35.2251 30.2146 35.2332 30.1345C35.2413 30.0545 35.2655 29.9769 35.3045 29.9066C35.3435 29.8363 35.3964 29.7746 35.46 29.7254C35.5236 29.6762 35.5965 29.6405 35.6744 29.6204L53.1306 25.123C53.8358 25.4806 53.6502 26.2121 53.1502 26.3409L53.1504 26.3408Z" fill="#F2F2F2"/>
<path d="M53.9247 29.3506L36.7761 33.7688C36.6262 33.8106 36.466 33.794 36.3278 33.7222C36.1897 33.6504 36.084 33.5287 36.032 33.3819C36.0078 33.3052 35.9995 33.2243 36.0076 33.1443C36.0156 33.0643 36.0399 32.9867 36.0789 32.9164C36.1179 32.846 36.1708 32.7844 36.2344 32.7352C36.298 32.686 36.3709 32.6503 36.4487 32.6302L53.905 28.1328C54.6101 28.4904 54.4246 29.2218 53.9245 29.3507L53.9247 29.3506Z" fill="#F2F2F2"/>
<path d="M33.5099 36.4377L28.2763 37.7861C28.1053 37.8299 27.924 37.8041 27.7721 37.7143C27.6201 37.6245 27.51 37.478 27.4659 37.307L25.876 31.1256C25.8322 30.9546 25.858 30.7731 25.9477 30.621C26.0375 30.469 26.1838 30.3587 26.3546 30.3145L31.5882 28.9661C31.7591 28.9224 31.9404 28.9482 32.0924 29.038C32.2443 29.1278 32.3544 29.2742 32.3986 29.4452L33.9885 35.6266C34.0323 35.7976 34.0065 35.9791 33.9168 36.1312C33.827 36.2833 33.6807 36.3935 33.5099 36.4377V36.4377Z" fill="#E6E6E6"/>
<path d="M55.4603 35.5284L29.2883 42.2713C29.1384 42.3132 28.9782 42.2965 28.8401 42.2247C28.7019 42.1529 28.5962 42.0313 28.5442 41.8844C28.52 41.8077 28.5117 41.7269 28.5198 41.6468C28.5278 41.5668 28.5521 41.4893 28.5911 41.4189C28.6301 41.3486 28.683 41.2869 28.7466 41.2377C28.8102 41.1885 28.8831 41.1528 28.9609 41.1328L55.4407 34.3105C56.1458 34.6682 55.9603 35.3996 55.4603 35.5284L55.4603 35.5284Z" fill="#F2F2F2"/>
<path d="M56.2347 38.5401L30.0628 45.283C29.9129 45.3249 29.7527 45.3082 29.6145 45.2364C29.4764 45.1646 29.3707 45.043 29.3187 44.8962C29.2945 44.8194 29.2862 44.7386 29.2942 44.6586C29.3023 44.5785 29.3266 44.501 29.3656 44.4306C29.4046 44.3603 29.4575 44.2986 29.5211 44.2494C29.5846 44.2002 29.6576 44.1645 29.7354 44.1445L56.2152 37.3223C56.9203 37.6799 56.7348 38.4113 56.2347 38.5401V38.5401Z" fill="#F2F2F2"/>
<path d="M57.0088 41.5479L30.8369 48.2908C30.6869 48.3327 30.5267 48.3161 30.3886 48.2443C30.2504 48.1725 30.1447 48.0508 30.0927 47.904C30.0685 47.8273 30.0602 47.7464 30.0683 47.6664C30.0763 47.5864 30.1006 47.5088 30.1396 47.4385C30.1786 47.3681 30.2315 47.3065 30.2951 47.2573C30.3587 47.2081 30.4316 47.1723 30.5095 47.1523L56.9892 40.3301C57.6944 40.6877 57.5088 41.4191 57.0088 41.5479Z" fill="#F2F2F2"/>
<path d="M57.7833 44.5596L31.6113 51.3025C31.4614 51.3444 31.3012 51.3278 31.1631 51.256C31.0249 51.1841 30.9192 51.0625 30.8672 50.9157C30.843 50.839 30.8347 50.7581 30.8428 50.6781C30.8508 50.598 30.8751 50.5205 30.9141 50.4501C30.9531 50.3798 31.006 50.3182 31.0696 50.269C31.1332 50.2198 31.2061 50.184 31.2839 50.164L57.7637 43.3418C58.4689 43.6994 58.2833 44.4308 57.7833 44.5597L57.7833 44.5596Z" fill="#F2F2F2"/>
<path d="M58.5573 47.5694L32.3854 54.3123C32.2354 54.3542 32.0752 54.3376 31.9371 54.2657C31.799 54.1939 31.6932 54.0723 31.6413 53.9255C31.6171 53.8487 31.6088 53.7679 31.6168 53.6879C31.6249 53.6078 31.6491 53.5303 31.6881 53.4599C31.7271 53.3896 31.78 53.3279 31.8436 53.2787C31.9072 53.2295 31.9801 53.1938 32.058 53.1738L58.5377 46.3516C59.2429 46.7092 59.0573 47.4406 58.5573 47.5694Z" fill="#F2F2F2"/>
<path d="M30.9173 75.2686C30.8222 75.2932 30.7216 75.2863 30.6308 75.2488L30.6251 75.2465L29.4351 74.7415C29.3798 74.7181 29.3298 74.684 29.2877 74.6412C29.2456 74.5985 29.2124 74.5478 29.1899 74.4921C29.1675 74.4365 29.1562 74.3769 29.1567 74.3169C29.1572 74.2569 29.1696 74.1976 29.1931 74.1423C29.2165 74.0871 29.2506 74.037 29.2935 73.995C29.3363 73.9529 29.387 73.9198 29.4426 73.8974C29.4982 73.875 29.5578 73.8637 29.6177 73.8644C29.6777 73.865 29.737 73.8775 29.7921 73.901L30.5633 74.2293L31.5738 71.8501C31.5972 71.7949 31.6313 71.7449 31.674 71.703C31.7168 71.661 31.7673 71.6278 31.8229 71.6054C31.8784 71.583 31.9378 71.5717 31.9977 71.5723C32.0576 71.5728 32.1168 71.5852 32.1719 71.6087L32.1721 71.6087L32.166 71.6243L32.1723 71.6087C32.2836 71.6562 32.3714 71.7459 32.4166 71.8581C32.4619 71.9704 32.4607 72.096 32.4135 72.2075L31.2246 75.0049C31.1971 75.0694 31.155 75.1267 31.1018 75.1723C31.0485 75.2179 30.9855 75.2506 30.9176 75.2679L30.9173 75.2686Z" fill="white"/>
<path d="M104.124 105.43H46.0961C44.1283 105.428 42.2417 104.644 40.8503 103.252C39.4589 101.859 38.6762 99.9708 38.674 98.0013V29.7938C38.6762 27.8243 39.4589 25.9361 40.8503 24.5435C42.2417 23.1508 44.1283 22.3675 46.0961 22.3652H100.081L111.546 31.5111V98.0013C111.544 99.9708 110.761 101.859 109.369 103.252C107.978 104.644 106.091 105.428 104.124 105.43Z" fill="#E6E6E6"/>
<path d="M46.0961 24.5039C44.6948 24.5055 43.3513 25.0633 42.3604 26.0551C41.3696 27.0468 40.8122 28.3914 40.8106 29.7939V98.0014C40.8122 99.4039 41.3696 100.749 42.3604 101.74C43.3513 102.732 44.6948 103.29 46.0961 103.291H104.124C105.525 103.29 106.868 102.732 107.859 101.74C108.85 100.749 109.408 99.4039 109.409 98.0014V32.5415L99.3338 24.5039H46.0961Z" fill="white"/>
<path d="M92.8372 44.3374H66.4181C66.0903 44.3374 65.7759 44.207 65.5441 43.9751C65.3123 43.7431 65.1821 43.4284 65.1821 43.1003C65.1821 42.7722 65.3123 42.4576 65.5441 42.2256C65.7759 41.9936 66.0903 41.8633 66.4181 41.8633H92.8372C93.165 41.8633 93.4794 41.9936 93.7112 42.2256C93.943 42.4576 94.0732 42.7722 94.0732 43.1003C94.0732 43.4284 93.943 43.7431 93.7112 43.9751C93.4794 44.207 93.165 44.3374 92.8372 44.3374Z" fill="#005FD5"/>
<path d="M97.9356 48.5132H66.4181C66.0906 48.5127 65.7766 48.3822 65.5452 48.1502C65.3138 47.9183 65.1838 47.6039 65.1838 47.2761C65.1838 46.9483 65.3138 46.6339 65.5452 46.402C65.7766 46.17 66.0906 46.0395 66.4181 46.0391H97.9356C98.0981 46.0388 98.259 46.0707 98.4092 46.1327C98.5593 46.1948 98.6958 46.2859 98.8107 46.4008C98.9256 46.5157 99.0168 46.6521 99.0791 46.8023C99.1413 46.9525 99.1733 47.1135 99.1733 47.2761C99.1733 47.4387 99.1413 47.5997 99.0791 47.7499C99.0168 47.9001 98.9256 48.0365 98.8107 48.1514C98.6958 48.2663 98.5593 48.3574 98.4092 48.4195C98.259 48.4815 98.0981 48.5134 97.9356 48.5132Z" fill="#005FD5"/>
<path d="M92.8374 60.5723H66.4191C66.0913 60.5723 65.777 60.7026 65.5452 60.9346C65.3134 61.1665 65.1832 61.4812 65.1832 61.8092C65.1832 62.1373 65.3134 62.4519 65.5452 62.6839C65.777 62.9159 66.0913 63.0462 66.4191 63.0462H92.8374C93.1652 63.0462 93.4795 62.9159 93.7113 62.6839C93.9431 62.4519 94.0733 62.1373 94.0733 61.8092C94.0733 61.4812 93.9431 61.1665 93.7113 60.9346C93.4795 60.7026 93.1652 60.5723 92.8374 60.5723Z" fill="#CCCCCC"/>
<path d="M97.9361 64.748H66.4191C66.0913 64.748 65.777 64.8784 65.5452 65.1104C65.3134 65.3423 65.1832 65.657 65.1832 65.985C65.1832 66.3131 65.3134 66.6277 65.5452 66.8597C65.777 67.0917 66.0913 67.222 66.4191 67.222H97.9361C98.2639 67.222 98.5783 67.0917 98.8101 66.8597C99.0418 66.6277 99.172 66.3131 99.172 65.985C99.172 65.657 99.0418 65.3423 98.8101 65.1104C98.5783 64.8784 98.2639 64.748 97.9361 64.748Z" fill="#CCCCCC"/>
<path d="M92.8372 81.7573H66.4181C66.0903 81.7573 65.7759 81.627 65.5441 81.395C65.3123 81.163 65.1821 80.8483 65.1821 80.5202C65.1821 80.1922 65.3123 79.8775 65.5441 79.6455C65.7759 79.4135 66.0903 79.2832 66.4181 79.2832H92.8372C93.165 79.2832 93.4794 79.4135 93.7112 79.6455C93.943 79.8775 94.0732 80.1922 94.0732 80.5202C94.0732 80.8483 93.943 81.163 93.7112 81.395C93.4794 81.627 93.165 81.7573 92.8372 81.7573Z" fill="#CCCCCC"/>
<path d="M97.9356 85.9331H66.4181C66.0906 85.9326 65.7766 85.8021 65.5452 85.5702C65.3138 85.3382 65.1838 85.0238 65.1838 84.696C65.1838 84.3682 65.3138 84.0538 65.5452 83.8219C65.7766 83.59 66.0906 83.4594 66.4181 83.459H97.9356C98.0981 83.4588 98.259 83.4906 98.4092 83.5527C98.5593 83.6147 98.6958 83.7058 98.8107 83.8207C98.9256 83.9356 99.0168 84.0721 99.0791 84.2223C99.1413 84.3724 99.1733 84.5334 99.1733 84.696C99.1733 84.8586 99.1413 85.0196 99.0791 85.1698C99.0168 85.32 98.9256 85.4565 98.8107 85.5714C98.6958 85.6862 98.5593 85.7773 98.4092 85.8394C98.259 85.9015 98.0981 85.9333 97.9356 85.9331Z" fill="#CCCCCC"/>
<path d="M55.4165 49.561C57.8292 49.561 59.7851 47.6034 59.7851 45.1887C59.7851 42.7739 57.8292 40.8164 55.4165 40.8164C53.0039 40.8164 51.048 42.7739 51.048 45.1887C51.048 47.6034 53.0039 49.561 55.4165 49.561Z" fill="#005FD5"/>
<path d="M54.9837 46.8566C54.8854 46.8568 54.7897 46.8249 54.7111 46.7659L54.7062 46.7623L53.6796 45.9762C53.6319 45.9398 53.5918 45.8943 53.5617 45.8424C53.5316 45.7904 53.512 45.733 53.5041 45.6735C53.4962 45.614 53.5001 45.5535 53.5156 45.4955C53.531 45.4375 53.5578 45.3831 53.5943 45.3354C53.6308 45.2877 53.6763 45.2478 53.7283 45.2177C53.7803 45.1877 53.8376 45.1683 53.8971 45.1605C53.9566 45.1527 54.017 45.1567 54.075 45.1723C54.1329 45.1879 54.1872 45.2148 54.2347 45.2514L54.8997 45.7618L56.4711 43.71C56.5076 43.6624 56.553 43.6225 56.6048 43.5925C56.6567 43.5625 56.714 43.543 56.7733 43.5352C56.8327 43.5273 56.893 43.5313 56.9509 43.5468C57.0087 43.5622 57.063 43.589 57.1105 43.6255L57.1107 43.6256L57.1009 43.6391L57.1109 43.6256C57.2068 43.6993 57.2695 43.8081 57.2854 43.9281C57.3012 44.0481 57.2688 44.1695 57.1953 44.2656L55.347 46.678C55.3042 46.7335 55.2492 46.7785 55.1863 46.8094C55.1234 46.8403 55.0542 46.8563 54.9841 46.856L54.9837 46.8566Z" fill="white"/>
<path d="M60.234 63.8987C60.2342 64.4729 60.1214 65.0416 59.902 65.5722C59.6826 66.1028 59.3609 66.585 58.9553 66.9911C58.5497 67.3973 58.0682 67.7195 57.5381 67.9394C57.0081 68.1592 56.44 68.2724 55.8662 68.2725C55.8287 68.2733 55.7911 68.2718 55.7538 68.268C54.8948 68.246 54.0614 67.9709 53.3579 67.4771C52.6544 66.9834 52.1119 66.293 51.7985 65.4923C51.4851 64.6915 51.4145 63.8161 51.5957 62.9754C51.7769 62.1348 52.2018 61.3663 52.8172 60.7661C53.4326 60.1659 54.2112 59.7608 55.0556 59.6013C55.8999 59.4417 56.7725 59.535 57.5641 59.8694C58.3558 60.2037 59.0313 60.7643 59.5062 61.481C59.9811 62.1977 60.2343 63.0387 60.234 63.8987Z" fill="#CCCCCC"/>
<path d="M55.4165 86.9809C57.8292 86.9809 59.7851 85.0234 59.7851 82.6086C59.7851 80.1939 57.8292 78.2363 55.4165 78.2363C53.0039 78.2363 51.048 80.1939 51.048 82.6086C51.048 85.0234 53.0039 86.9809 55.4165 86.9809Z" fill="#CCCCCC"/>
<path d="M111.323 31.8064H102.342C101.686 31.8064 101.058 31.5458 100.594 31.0818C100.13 30.6178 99.8701 29.9885 99.8701 29.3323V22.6937C99.8701 22.6646 99.8782 22.6362 99.8937 22.6115C99.9091 22.5869 99.9312 22.5671 99.9573 22.5545C99.9834 22.5418 100.013 22.5368 100.041 22.54C100.07 22.5432 100.098 22.5544 100.12 22.5725L111.419 31.5306C111.444 31.5505 111.462 31.5778 111.471 31.6086C111.48 31.6395 111.479 31.6723 111.468 31.7026C111.458 31.733 111.438 31.7592 111.412 31.7778C111.386 31.7964 111.355 31.8064 111.323 31.8064Z" fill="#CCCCCC"/>
<path d="M60.234 63.8987C60.2342 64.4729 60.1214 65.0416 59.902 65.5722C59.6826 66.1028 59.361 66.585 58.9553 66.9911C58.5497 67.3973 58.0682 67.7195 57.5381 67.9394C57.0081 68.1592 56.44 68.2725 55.8662 68.2725C55.8287 68.2733 55.7911 68.2718 55.7538 68.268C55.1894 66.8591 54.9718 65.3351 55.1194 63.8244C55.267 62.3137 55.7754 60.8607 56.6017 59.5879C57.6179 59.7622 58.5398 60.2905 59.2045 61.0793C59.8691 61.8682 60.2338 62.8668 60.234 63.8987Z" fill="#005FD5"/>
<path d="M65.1821 61.8104C65.1827 61.4822 65.3132 61.1676 65.5451 60.9355C65.7769 60.7035 66.0913 60.5729 66.4192 60.5723H73.0024C73.3869 61.355 73.6601 62.1877 73.8143 63.0462H66.4192C66.0915 63.0461 65.7772 62.916 65.5453 62.6843C65.3134 62.4526 65.1828 62.1383 65.1821 61.8104Z" fill="#005FD5"/>
<path d="M73.9672 64.748C73.9677 65.5836 73.8573 66.4155 73.6389 67.222H66.4191C66.0913 67.222 65.777 67.0917 65.5452 66.8597C65.3134 66.6277 65.1832 66.3131 65.1832 65.985C65.1832 65.657 65.3134 65.3423 65.5452 65.1104C65.777 64.8784 66.0913 64.748 66.4191 64.748H73.9672Z" fill="#005FD5"/>
<path d="M90.2558 80.006C90.0694 80.3118 89.7693 80.5309 89.4214 80.6153C89.0736 80.6996 88.7065 80.6422 88.401 80.4557L72.656 70.8436C72.5047 70.7512 72.373 70.6299 72.2686 70.4866C72.1641 70.3434 72.0889 70.1809 72.0472 70.0085C72.0054 69.8361 71.998 69.6572 72.0254 69.482C72.0528 69.3067 72.1143 69.1386 72.2066 68.9872C72.2989 68.8357 72.4201 68.704 72.5632 68.5994C72.7064 68.4949 72.8687 68.4196 73.041 68.3778C73.2132 68.3361 73.392 68.3287 73.567 68.356C73.7421 68.3834 73.9101 68.4451 74.0614 68.5374L89.8064 78.1496C90.112 78.3361 90.331 78.6365 90.4152 78.9846C90.4995 79.3328 90.4421 79.7001 90.2558 80.006Z" fill="#3F3D56"/>
<path d="M74.5108 70.3927C73.3989 72.2172 71.7714 73.6706 69.8342 74.5694C67.897 75.4681 65.737 75.7716 63.6274 75.4417C61.5178 75.1117 59.5533 74.1631 57.9824 72.7157C56.4114 71.2683 55.3046 69.3872 54.8019 67.3102C54.2991 65.2332 54.423 63.0537 55.1579 61.0472C55.8928 59.0407 57.2057 57.2974 58.9305 56.0377C60.6553 54.778 62.7147 54.0585 64.848 53.9702C66.9814 53.8819 69.0931 54.4287 70.9159 55.5415C73.3578 57.0361 75.1076 59.439 75.7816 62.2232C76.4555 65.0073 75.9985 67.9454 74.5108 70.3927ZM58.3817 60.5461C57.5478 61.9145 57.1381 63.4996 57.2042 65.101C57.2704 66.7024 57.8096 68.2482 58.7535 69.543C59.6975 70.8377 61.0039 71.8232 62.5074 72.3749C64.011 72.9265 65.6442 73.0195 67.2006 72.6421C68.757 72.2647 70.1666 71.4339 71.2512 70.2547C72.3358 69.0755 73.0467 67.6009 73.294 66.0173C73.5412 64.4337 73.3137 62.8123 72.6403 61.3581C71.9668 59.904 70.8777 58.6823 69.5105 57.8477C67.6766 56.7309 65.475 56.3879 63.3886 56.8937C61.3023 57.3996 59.5017 58.7131 58.3817 60.5461Z" fill="#3F3D56"/>
<path d="M109.1 66.4991C112.151 66.4991 114.625 64.0238 114.625 60.9703C114.625 57.9168 112.151 55.4414 109.1 55.4414C106.05 55.4414 103.576 57.9168 103.576 60.9703C103.576 64.0238 106.05 66.4991 109.1 66.4991Z" fill="#A0616A"/>
<path d="M108.743 91.9666C108.637 91.6344 108.602 91.2834 108.64 90.9366C108.679 90.5898 108.79 90.2551 108.967 89.9543C109.143 89.6535 109.382 89.3936 109.666 89.1914C109.95 88.9892 110.273 88.8494 110.615 88.7811C110.724 88.7599 110.833 88.7464 110.943 88.7406L116.762 79.3934L111.447 74.3359C111.244 74.1427 111.081 73.9111 110.968 73.6546C110.855 73.398 110.794 73.1215 110.788 72.8411C110.782 72.5607 110.832 72.282 110.934 72.0209C111.037 71.7599 111.19 71.5217 111.385 71.3202C111.579 71.1187 111.812 70.9579 112.07 70.847C112.327 70.736 112.604 70.6772 112.884 70.674C113.164 70.6707 113.442 70.723 113.702 70.8279C113.962 70.9328 114.199 71.0882 114.398 71.2851L121.737 78.5277L121.752 78.5457C121.979 78.8914 122.088 79.3012 122.064 79.7142C122.04 80.1272 121.884 80.5214 121.618 80.8383L113.465 90.4894C113.489 90.5667 113.509 90.6453 113.526 90.7248C113.594 91.067 113.589 91.4198 113.511 91.76C113.434 92.1002 113.285 92.4201 113.076 92.6989C112.866 92.9777 112.6 93.2089 112.295 93.3776C111.989 93.5462 111.652 93.6483 111.305 93.6774C111.234 93.6835 111.164 93.6866 111.095 93.6866C110.572 93.6844 110.063 93.5169 109.641 93.2081C109.218 92.8992 108.904 92.4647 108.743 91.9666Z" fill="#A0616A"/>
<path d="M100.002 137.919L97.2448 137.918L95.9331 127.273L100.003 127.274L100.002 137.919Z" fill="#A0616A"/>
<path d="M100.705 140.594L91.8145 140.594V140.481C91.8145 140.026 91.904 139.576 92.0779 139.156C92.2518 138.735 92.5067 138.354 92.8281 138.032C93.1494 137.71 93.5309 137.455 93.9508 137.281C94.3707 137.107 94.8207 137.018 95.2751 137.018H95.2753L100.706 137.018L100.705 140.594Z" fill="#2F2E41"/>
<path d="M127.409 134.103L125.04 135.515L118.471 127.041L121.968 124.957L127.409 134.103Z" fill="#A0616A"/>
<path d="M129.381 136.042L121.742 140.594L121.684 140.497C121.451 140.106 121.298 139.674 121.233 139.224C121.167 138.773 121.191 138.315 121.303 137.874C121.415 137.433 121.612 137.018 121.884 136.654C122.156 136.289 122.496 135.982 122.887 135.749L122.887 135.749L127.553 132.969L129.381 136.042Z" fill="#2F2E41"/>
<path d="M95.5854 133.23C93.7382 111.461 92.6393 91.2376 99.3918 82.9878L99.444 82.9238L110.808 87.4735L110.827 87.5141C110.865 87.5977 114.644 95.9181 113.763 101.515L116.566 114.419L125.705 129.736C125.779 129.859 125.825 129.997 125.842 130.14C125.858 130.282 125.844 130.427 125.801 130.564C125.757 130.7 125.685 130.826 125.589 130.933C125.493 131.04 125.375 131.125 125.244 131.183L121.272 132.932C121.048 133.03 120.796 133.043 120.563 132.97C120.33 132.897 120.13 132.742 120.002 132.534L110.06 116.309L104.444 103.863C104.414 103.796 104.362 103.74 104.297 103.705C104.231 103.67 104.156 103.657 104.083 103.669C104.01 103.681 103.943 103.716 103.892 103.77C103.841 103.824 103.809 103.893 103.801 103.967L100.688 133.252C100.662 133.501 100.545 133.732 100.359 133.899C100.173 134.066 99.9319 134.159 99.6819 134.158H96.5942C96.3409 134.157 96.0972 134.061 95.9106 133.889C95.7241 133.718 95.6081 133.483 95.5854 133.23Z" fill="#2F2E41"/>
<path d="M99.4301 83.1611L99.3759 83.1352L99.3675 83.0756C98.943 80.1019 99.4454 76.7979 100.861 73.2553C101.559 71.5215 102.855 70.0962 104.515 69.2391C106.175 68.382 108.087 68.1502 109.903 68.5859C110.949 68.8439 111.93 69.3165 112.784 69.9738C113.638 70.6312 114.347 71.4589 114.865 72.4045C115.376 73.3405 115.687 74.3725 115.779 75.4352C115.871 76.4979 115.741 77.5681 115.398 78.5781C113.614 83.8006 111.299 88.687 111.276 88.7358L111.227 88.8378L99.4301 83.1611Z" fill="#005FD5"/>
<path d="M87.0315 75.7536C87.3051 75.5374 87.6213 75.3815 87.9593 75.2961C88.2973 75.2107 88.6496 75.1978 88.9929 75.2581C89.3363 75.3185 89.663 75.4508 89.9518 75.6463C90.2405 75.8419 90.4847 76.0963 90.6683 76.3929C90.726 76.487 90.7771 76.5851 90.8211 76.6864L101.607 78.8682L104.478 72.1142C104.588 71.8561 104.748 71.6224 104.948 71.4264C105.149 71.2305 105.386 71.0762 105.646 70.9726C105.907 70.8689 106.185 70.8179 106.465 70.8226C106.745 70.8272 107.022 70.8873 107.279 70.9994C107.536 71.1116 107.768 71.2736 107.962 71.476C108.156 71.6784 108.307 71.9173 108.409 72.1789C108.51 72.4404 108.558 72.7194 108.551 72.9998C108.544 73.2801 108.481 73.5563 108.367 73.8123L104.159 83.2286L104.147 83.2488C103.903 83.5827 103.558 83.8289 103.163 83.951C102.768 84.073 102.344 84.0644 101.955 83.9263L90.0674 79.6626C90.0035 79.7125 89.9371 79.759 89.8683 79.802C89.572 79.9857 89.2402 80.1047 88.8946 80.1512C88.5491 80.1976 88.1976 80.1705 87.8633 80.0715C87.529 79.9725 87.2193 79.804 86.9546 79.5769C86.69 79.3498 86.4762 79.0693 86.3274 78.7538C86.297 78.6901 86.2697 78.6256 86.2453 78.5604C86.0642 78.0694 86.0427 77.5336 86.1839 77.0295C86.3251 76.5255 86.6217 76.0789 87.0315 75.7536Z" fill="#A0616A"/>
<path d="M129.057 66.8911C128.525 65.9475 127.749 65.0832 126.725 64.7344C125.401 64.284 123.968 64.7636 122.607 65.0838C121.559 65.3305 120.463 65.4815 119.406 65.2733C118.35 65.0651 117.33 64.4496 116.85 63.485C116.142 62.0661 116.738 60.3739 116.695 58.7887C116.673 57.9258 116.455 57.0792 116.059 56.3126C115.662 55.5461 115.097 54.8797 114.406 54.3636C113.714 53.8475 112.915 53.4952 112.068 53.3333C111.221 53.1713 110.348 53.204 109.515 53.4288C108.212 53.0524 107.032 53.0176 106.226 54.0202C105.212 54.0202 104.24 54.4234 103.523 55.141C102.806 55.8587 102.403 56.8321 102.403 57.847H106.059C105.885 58.7801 106.084 59.7439 106.611 60.5328C107.256 61.4818 108.378 62.1683 108.594 63.2957C108.804 64.3883 108.062 65.425 107.283 66.2191C106.505 67.0133 105.602 67.8003 105.359 68.8858C105.21 69.7099 105.379 70.5599 105.832 71.264C106.284 71.9596 106.845 72.578 107.493 73.0954C110.414 75.5997 113.885 77.3769 117.623 78.282C120.255 78.9163 123.135 79.0807 125.578 77.9138C126.556 77.447 127.427 76.784 128.138 75.966C128.849 75.148 129.384 74.1924 129.71 73.1587C130.036 72.125 130.147 71.0351 130.034 69.9569C129.922 68.8787 129.589 67.8352 129.057 66.8911Z" fill="#2F2E41"/>
<path d="M129.882 140.827H87.1486C87.0889 140.827 87.0317 140.803 86.9895 140.761C86.9473 140.719 86.9236 140.662 86.9236 140.602C86.9236 140.542 86.9473 140.485 86.9895 140.443C87.0317 140.401 87.0889 140.377 87.1486 140.377H129.882C129.942 140.377 129.999 140.401 130.041 140.443C130.083 140.485 130.107 140.542 130.107 140.602C130.107 140.662 130.083 140.719 130.041 140.761C129.999 140.803 129.942 140.827 129.882 140.827Z" fill="#CCCCCC"/>
</g>
<defs>
<clipPath id="clip0">
<rect width="130" height="140" fill="white" transform="translate(0.106934 0.828125)"/>
</clipPath>
</defs>
</svg>
