<svg width="334" height="226" viewBox="0 0 334 226" fill="none" xmlns="http://www.w3.org/2000/svg">
<g clip-path="url(#clip0)">
<path opacity="0.1" d="M180.71 33.085C160.185 33.0526 140.408 26.6832 121.487 19.5951C102.566 12.5069 83.7953 4.60263 63.6413 1.21173C50.6634 -0.968346 35.9453 -0.821045 25.8374 6.92116C16.1128 14.3717 13.3285 26.7363 11.9953 38.1728C10.9954 46.7694 10.5471 55.799 14.405 63.6768C17.0861 69.1476 21.6579 73.6609 24.8935 78.8784C36.1518 97.026 29.4712 120.123 18.6287 138.63C13.5408 147.294 7.57986 155.611 3.74254 164.791C-0.0947744 173.971 -1.64917 184.388 2.31498 193.471C6.24963 202.477 15.0982 209.044 24.5632 213.524C43.8205 222.657 66.1985 224.666 87.9777 225.482C136.196 227.291 184.489 224.068 232.654 220.828C250.478 219.632 268.382 218.424 285.831 214.85C295.52 212.867 305.493 209.913 312.347 203.384C321.048 195.1 322.794 181.533 316.421 171.761C305.726 155.355 277.658 152.185 269.96 134.456C265.721 124.695 269.32 113.539 274.638 104.152C286.049 84.0339 305.737 66.0395 306.006 43.4963C306.189 28.0119 295.88 12.8781 280.531 6.10216C264.438 -1.00959 242.541 0.74036 231.324 13.8444C219.774 27.3373 198.835 33.1145 180.71 33.085Z" fill="#6C63FF"/>
<path d="M282.811 184.422C282.811 184.422 279.186 182.033 275.594 183.733C275.594 183.733 276.7 185.863 281.248 185.66L282.811 184.422Z" fill="#6C63FF"/>
<path d="M283.256 184.552C283.256 184.552 284.36 188.747 281.596 191.602C281.596 191.602 279.932 189.87 281.596 185.633L283.256 184.552Z" fill="#6C63FF"/>
<path d="M287.778 180.525C287.778 180.525 287.51 176.954 279.446 178.138C279.446 178.138 279.407 180.442 282.239 181.532C285.071 182.622 286.365 181.703 287.778 180.525Z" fill="#6C63FF"/>
<path d="M288.274 180.498C288.274 180.498 291.686 181.594 288.645 189.151C288.645 189.151 286.395 188.647 285.991 185.642C285.587 182.637 286.796 181.594 288.274 180.498Z" fill="#6C63FF"/>
<path d="M292.843 175.437C292.843 175.437 293.303 169.566 285.059 170.17C285.059 170.17 284.469 175.472 291.386 176.848L292.843 175.437Z" fill="#6C63FF"/>
<path d="M298.29 168.809C298.29 168.809 297.158 162.156 288.92 164.139C288.92 164.139 288.888 169.893 296.943 170.396L298.29 168.809Z" fill="#6C63FF"/>
<path d="M302.269 161.956C302.269 161.956 300.378 155.475 292.214 157.416C292.214 157.416 294.155 163.243 301.726 163.155L302.269 161.956Z" fill="#6C63FF"/>
<path d="M306.05 155.265C306.05 155.265 304.201 148.54 296.317 150.552C296.317 150.552 298.948 156.942 305.531 156.406L306.05 155.265Z" fill="#6C63FF"/>
<path d="M308.49 148.908C308.49 148.908 307.068 140.694 299.727 142.503C299.727 142.503 301.862 149.986 307.956 150.104L308.49 148.908Z" fill="#6C63FF"/>
<path d="M310.772 141.227C310.772 141.227 309.068 132.934 301.629 135.335C301.629 135.335 304.546 143.169 310.247 142.359L310.772 141.227Z" fill="#6C63FF"/>
<path d="M312.188 134.078C312.188 134.078 309.478 125.787 303.729 126.011C303.729 126.011 306.502 134.77 311.693 135.733L312.188 134.078Z" fill="#6C63FF"/>
<path d="M313.088 127.104C313.088 127.104 310.138 117.123 305.46 117.892C305.46 117.892 307.502 125.522 312.923 128.657L313.088 127.104Z" fill="#6C63FF"/>
<path d="M313.589 118.773C313.589 118.773 310.825 110.453 306.215 110.123C306.215 110.123 308.097 118.307 313.495 120.932L313.589 118.773Z" fill="#6C63FF"/>
<path d="M314.159 111.016C314.159 111.016 310.711 102.687 307.67 102.502C307.67 102.502 309.165 110.698 313.864 112.383L314.159 111.016Z" fill="#6C63FF"/>
<path d="M314.539 103.792C314.539 103.792 312.41 94.736 309.372 93.9995C309.372 93.9995 309.79 101.394 314.235 104.467L314.539 103.792Z" fill="#6C63FF"/>
<path d="M315.686 94.3383C315.686 94.3383 313.457 87.1323 310.988 86.0334C310.988 86.0334 311.477 94.5298 315.117 96.103L315.686 94.3383Z" fill="#6C63FF"/>
<path d="M316.639 88.1309L317.09 75.4216C317.09 75.4216 312.483 85.011 316.3 90.3728L316.639 88.1309Z" fill="#6C63FF"/>
<path d="M320.205 75.5012C320.205 75.5012 323.526 66.2182 324.334 65.7026C324.334 65.7026 317.816 71.7214 318.453 79.4695L320.205 75.5012Z" fill="#6C63FF"/>
<path d="M293.067 175.396C293.067 175.396 298.913 174.63 298.736 182.885C298.736 182.885 293.453 183.742 291.73 176.919L293.067 175.396Z" fill="#6C63FF"/>
<path d="M298.565 168.587C298.565 168.587 305.322 168.564 304.759 177.013C304.759 177.013 299.09 178.024 297.217 170.181L298.565 168.587Z" fill="#6C63FF"/>
<path d="M302.334 162.495C302.334 162.495 308.466 159.623 312.392 167.035C312.392 167.035 306.726 169.43 301.794 163.691L302.334 162.495Z" fill="#6C63FF"/>
<path d="M306.189 155.327C306.189 155.327 312.466 152.269 316.152 159.514C316.152 159.514 309.613 161.764 305.67 156.473L306.189 155.327Z" fill="#6C63FF"/>
<path d="M308.41 149.085C308.41 149.085 314.454 143.319 319.276 149.152C319.276 149.152 313.103 153.896 308.13 150.369L308.41 149.085Z" fill="#6C63FF"/>
<path d="M310.431 141.03C310.431 141.03 316.513 135.138 321.297 141.301C321.297 141.301 314.471 146.142 310.215 142.268L310.431 141.03Z" fill="#6C63FF"/>
<path d="M311.569 133.842C311.569 133.842 316.253 126.477 321.765 128.123C321.765 128.123 316.907 135.922 311.622 135.574L311.569 133.842Z" fill="#6C63FF"/>
<path d="M312.95 127.057C312.95 127.057 317.669 117.78 322.131 119.397C322.131 119.397 318.731 126.527 312.829 128.621L312.95 127.057Z" fill="#6C63FF"/>
<path d="M313.274 118.304C313.274 118.304 318.126 111.004 322.671 111.894C322.671 111.894 318.707 119.297 312.805 120.417L313.274 118.304Z" fill="#6C63FF"/>
<path d="M313.646 110.851C313.646 110.851 317.403 102.661 320.462 102.587C320.462 102.587 318.657 110.724 313.896 112.23L313.646 110.851Z" fill="#6C63FF"/>
<path d="M314.389 103.613C314.389 103.613 318.568 95.3165 321.709 95.3018C321.709 95.3018 319.571 102.393 314.53 104.343L314.389 103.613Z" fill="#6C63FF"/>
<path d="M315.02 94.8479C315.02 94.8479 318.146 87.9836 320.733 87.2058C320.733 87.2058 319.17 95.5726 315.362 96.6685L315.02 94.8479Z" fill="#6C63FF"/>
<path d="M317.014 87.8893L323.998 77.26C323.998 77.26 322.211 87.745 315.993 89.928L317.014 87.8893Z" fill="#6C63FF"/>
<path d="M321.81 76.3557C321.81 76.3557 329.93 70.7582 330.222 69.8508C330.222 69.8508 326.093 77.6932 318.424 79.0778L321.81 76.3557Z" fill="#6C63FF"/>
<path d="M322.294 73.8368C322.294 73.8368 331.617 64.8837 333.997 64.8955C333.997 64.8955 326.308 65.2461 322.069 73.3595L322.294 73.8368Z" fill="#6C63FF"/>
<path d="M315.108 96.1765L315.448 96.2207C317.2 82.5215 319.754 74.4199 322.641 73.4241L322.529 73.103C319.471 74.1636 316.905 82.1415 315.108 96.1765Z" fill="#444053"/>
<path d="M312.533 128.928L313.046 128.972C313.153 127.693 313.235 126.382 313.291 125.08C313.781 113.741 314.542 103.332 315.539 95.5284L315.244 95.1602C314.244 102.979 313.271 113.706 312.781 125.057C312.722 126.353 312.639 127.655 312.533 128.928Z" fill="#444053"/>
<path d="M273.237 190.945C273.329 190.904 282.363 186.877 291.739 177.264C297.232 171.635 301.797 165.171 305.263 158.114C309.596 149.297 312.239 138.461 313.126 127.935L312.593 128.185C310.602 151.81 299.833 167.957 291.268 176.748C281.982 186.276 273.051 190.265 272.963 190.3L273.237 190.945Z" fill="#444053"/>
<path d="M309.319 14.4004H25.9056C25.236 14.4004 24.5938 14.6661 24.1204 15.139C23.6469 15.6119 23.3809 16.2534 23.3809 16.9222V24.2696H311.843V16.9222C311.843 16.2534 311.577 15.6119 311.104 15.139C310.63 14.6661 309.988 14.4004 309.319 14.4004V14.4004Z" fill="#3F3D56"/>
<path d="M23.3809 24.2695V189.613C23.3809 190.962 23.9172 192.255 24.8719 193.209C25.8267 194.163 27.1215 194.698 28.4717 194.698H306.752C308.103 194.698 309.398 194.163 310.352 193.209C311.307 192.255 311.843 190.962 311.843 189.613V24.2695H23.3809Z" fill="white"/>
<path opacity="0.8" d="M27.9528 20.4367C28.6043 20.4367 29.1326 19.9091 29.1326 19.2583C29.1326 18.6074 28.6043 18.0798 27.9528 18.0798C27.3012 18.0798 26.7729 18.6074 26.7729 19.2583C26.7729 19.9091 27.3012 20.4367 27.9528 20.4367Z" fill="#FA5959"/>
<path opacity="0.8" d="M31.1969 20.4367C31.8485 20.4367 32.3767 19.9091 32.3767 19.2583C32.3767 18.6074 31.8485 18.0798 31.1969 18.0798C30.5453 18.0798 30.0171 18.6074 30.0171 19.2583C30.0171 19.9091 30.5453 20.4367 31.1969 20.4367Z" fill="#FED253"/>
<path opacity="0.8" d="M34.4415 20.4367C35.0931 20.4367 35.6213 19.9091 35.6213 19.2583C35.6213 18.6074 35.0931 18.0798 34.4415 18.0798C33.7899 18.0798 33.2617 18.6074 33.2617 19.2583C33.2617 19.9091 33.7899 20.4367 34.4415 20.4367Z" fill="#8CCF4D"/>
<g opacity="0.3">
<path opacity="0.3" d="M301.077 34.2832H34.4414V184.532H301.077V34.2832Z" stroke="#3F3D56" stroke-miterlimit="10"/>
<path opacity="0.3" d="M266.273 34.2832H69.2456V184.532H266.273V34.2832Z" stroke="#3F3D56" stroke-miterlimit="10"/>
<path opacity="0.3" d="M231.469 34.2832H104.05V184.532H231.469V34.2832Z" stroke="#3F3D56" stroke-miterlimit="10"/>
<path opacity="0.3" d="M196.664 34.2832H138.854V184.532H196.664V34.2832Z" stroke="#3F3D56" stroke-miterlimit="10"/>
<path opacity="0.3" d="M167.759 34.2832V184.532" stroke="#3F3D56" stroke-miterlimit="10"/>
<path opacity="0.3" d="M301.077 56.084H34.4414V162.731H301.077V56.084Z" stroke="#3F3D56" stroke-miterlimit="10"/>
<path opacity="0.3" d="M301.077 77.5901H34.4414V141.225H301.077V77.5901Z" stroke="#3F3D56" stroke-miterlimit="10"/>
<path opacity="0.3" d="M301.077 99.0962H34.4414V119.718H301.077V99.0962Z" stroke="#3F3D56" stroke-miterlimit="10"/>
</g>
<path opacity="0.1" d="M97.1188 42.6792H76.1772V50.3389H97.1188V42.6792Z" fill="#3F3D56"/>
<path opacity="0.1" d="M59.0699 63.5962H43.4375V71.2559H59.0699V63.5962Z" fill="#3F3D56"/>
<path opacity="0.1" d="M131.038 42.6792H110.096V50.3389H131.038V42.6792Z" fill="#3F3D56"/>
<path opacity="0.1" d="M162.893 42.6792H141.951V50.3389H162.893V42.6792Z" fill="#3F3D56"/>
<path opacity="0.1" d="M192.388 42.6792H171.446V50.3389H192.388V42.6792Z" fill="#3F3D56"/>
<path opacity="0.1" d="M225.422 42.6792H204.481V50.3389H225.422V42.6792Z" fill="#3F3D56"/>
<path opacity="0.1" d="M259.047 42.6792H238.105V50.3389H259.047V42.6792Z" fill="#3F3D56"/>
<path opacity="0.1" d="M294.736 42.6792H273.794V50.3389H294.736V42.6792Z" fill="#3F3D56"/>
<path d="M131.23 84.2039H117.624V97.3609H131.23V84.2039Z" fill="url(#paint0_linear)"/>
<path d="M130.997 84.4307H117.86V97.134H130.997V84.4307Z" fill="#7CFCFF"/>
<path d="M159.262 81.3521H145.656V94.5091H159.262V81.3521Z" fill="url(#paint1_linear)"/>
<path d="M159.029 81.5789H145.892V94.2822H159.029V81.5789Z" fill="#FFFFA5"/>
<path d="M213.238 126.132H199.632V139.289H213.238V126.132Z" fill="url(#paint2_linear)"/>
<path d="M213.005 126.359H199.868V139.062H213.005V126.359Z" fill="#FFFFA5"/>
<path d="M93.4113 60.7563H79.8052V73.9134H93.4113V60.7563Z" fill="url(#paint3_linear)"/>
<path d="M93.1752 60.9832H80.0381V73.6865H93.1752V60.9832Z" fill="#FFFFA5"/>
<path d="M120.446 79.6111H106.84V92.7681H120.446V79.6111Z" fill="url(#paint4_linear)"/>
<path d="M120.21 79.8379H107.073V92.5412H120.21V79.8379Z" fill="#FF69B4"/>
<path d="M229.153 126.038H215.547V139.195H229.153V126.038Z" fill="url(#paint5_linear)"/>
<path d="M228.921 126.265H215.784V138.968H228.921V126.265Z" fill="#7CFCFF"/>
<path d="M253.045 60.9302H239.438V74.0872H253.045V60.9302Z" fill="url(#paint6_linear)"/>
<path d="M252.812 61.157H239.675V73.8603H252.812V61.157Z" fill="#7CFCFF"/>
<path d="M251.57 102.764H237.964V115.921H251.57V102.764Z" fill="url(#paint7_linear)"/>
<path d="M251.337 102.991H238.2V115.694H251.337V102.991Z" fill="#7CFCFF"/>
<path d="M261.893 105.71H248.287V118.867H261.893V105.71Z" fill="url(#paint8_linear)"/>
<path d="M261.66 105.937H248.523V118.64H261.66V105.937Z" fill="#7CFCFF"/>
<path d="M218.37 121.445H204.764V134.602H218.37V121.445Z" fill="url(#paint9_linear)"/>
<path d="M218.134 121.672H204.997V134.375H218.134V121.672Z" fill="#FF69B4"/>
<path d="M219.845 81.6733H206.239V94.8304H219.845V81.6733Z" fill="url(#paint10_linear)"/>
<path d="M219.609 81.9001H206.472V94.6035H219.609V81.9001Z" fill="#FF69B4"/>
<path opacity="0.1" d="M59.0699 84.2188H43.4375V91.8785H59.0699V84.2188Z" fill="#3F3D56"/>
<path opacity="0.1" d="M59.0699 105.725H43.4375V113.385H59.0699V105.725Z" fill="#3F3D56"/>
<path opacity="0.1" d="M59.0699 127.231H43.4375V134.891H59.0699V127.231Z" fill="#3F3D56"/>
<path opacity="0.1" d="M59.0699 148.737H43.4375V156.397H59.0699V148.737Z" fill="#3F3D56"/>
<path opacity="0.1" d="M59.0699 170.243H43.4375V177.903H59.0699V170.243Z" fill="#3F3D56"/>
<path d="M90.9244 103.43C91.3609 103.153 91.1869 102.41 90.7386 102.154C90.2902 101.898 89.7328 101.983 89.2284 102.083C89.2499 101.955 89.23 101.823 89.1717 101.707C89.1135 101.59 89.0197 101.495 88.904 101.435V101.323C89.1989 101.029 89.0868 100.44 88.727 100.18C88.3671 99.9211 87.8067 99.9093 87.323 99.9329C87.3574 99.64 87.3219 99.3432 87.2193 99.0667C87.1168 98.7902 86.9502 98.5418 86.7331 98.342C86.6486 98.2509 86.5327 98.1951 86.4087 98.1858C86.1137 98.1858 86.0311 98.5629 86.0105 98.8428C85.9544 99.5778 85.833 100.306 85.6477 101.02L76.4806 116.339C75.4601 117.812 78.6308 113.393 77.6103 114.881C77.0934 115.691 76.4879 116.441 75.8052 117.117C75.1921 117.664 74.5062 118.123 73.7671 118.481C73.2734 118.496 72.7873 118.358 72.3749 118.086C71.857 117.724 71.4043 117.277 71.0358 116.764C70.2367 115.749 69.5141 114.677 68.8738 113.555C68.6518 113.2 68.4848 112.814 68.3783 112.409C68.2426 111.773 68.3783 111.084 68.1276 110.486C68.0209 110.263 67.8882 110.053 67.7324 109.861L67.0982 109.021V108.983C67.0274 107.74 66.0157 106.779 65.0719 105.96C64.2696 105.259 63.3995 104.529 62.3406 104.393C61.7743 104.32 61.1933 104.429 60.627 104.358C60.1639 104.299 59.7244 104.125 59.2643 104.048C58.8214 103.988 58.3731 103.979 57.9282 104.022L57.7394 103.848C58.7183 103.435 59.5499 102.737 60.1256 101.845C60.5621 101.141 60.801 100.328 61.2051 99.6029C61.6976 98.7191 62.4291 97.9885 62.9748 97.14C64.2932 95.1279 64.5351 92.5383 64.0012 90.1932C63.4673 87.8482 62.2168 85.7182 60.7567 83.818C57.9252 80.159 53.1765 78.8097 48.705 79.5168C48.4101 79.5639 48.1151 79.6199 47.8202 79.6847C47.0679 79.8428 46.3337 80.0767 45.6287 80.3829C44.6748 80.773 43.8471 81.4182 43.2366 82.2477C43.0721 82.4902 42.9327 82.7489 42.8208 83.0196C42.7384 83.2265 42.6713 83.4392 42.6202 83.656C42.483 84.3105 42.4462 84.9819 42.5111 85.6475C42.5288 85.8743 42.5523 86.1012 42.5789 86.328L42.6231 86.6698C42.6526 86.8966 42.6851 87.1234 42.7175 87.3503C42.7647 87.692 42.809 88.0338 42.8414 88.3696C42.8674 88.6074 42.8802 88.8464 42.8797 89.0855C42.8797 89.1474 42.8797 89.2063 42.8797 89.2652C42.8693 89.4431 42.8427 89.6196 42.8001 89.7926C42.7769 89.8877 42.7473 89.9812 42.7116 90.0724C42.6054 90.3431 42.4657 90.5994 42.2957 90.8355C42.066 91.1558 41.8168 91.4618 41.5495 91.7517L41.2929 92.0463C41.2074 92.1435 41.1248 92.2437 41.0392 92.3409C40.702 92.7337 40.3935 93.1501 40.116 93.5871C39.9807 93.807 39.8595 94.0353 39.7533 94.2706C39.6725 94.4489 39.6026 94.6318 39.5438 94.8185C39.4688 95.0688 39.4155 95.3251 39.3846 95.5845C39.3846 95.6493 39.3846 95.7141 39.3669 95.7789C39.3669 95.9056 39.3669 96.0352 39.3669 96.1649C39.3733 96.2932 39.3871 96.4211 39.4082 96.5478C39.4289 96.6735 39.4585 96.7975 39.4967 96.9191C39.5336 97.0422 39.58 97.1624 39.6353 97.2785C39.6353 97.3109 39.6648 97.3433 39.6825 97.3757L39.7297 97.4729C39.7621 97.5377 39.7946 97.5996 39.824 97.6644C39.8686 97.7582 39.9013 97.8572 39.9214 97.959C39.9214 97.9914 39.9214 98.0268 39.9214 98.0621C39.9214 98.0975 39.9214 98.1387 39.9214 98.1741C39.8744 98.47 39.7188 98.7378 39.4848 98.9253C39.4259 98.9813 39.3669 99.0314 39.3049 99.0844L39.2105 99.161L39.0188 99.3112L38.836 99.4585C38.6753 99.593 38.5263 99.7409 38.3906 99.9004C36.7298 99.8117 35.0651 99.9746 33.4531 100.384C32.8804 100.57 32.2851 100.678 31.6834 100.705C31.539 100.718 31.3936 100.696 31.2598 100.64C31.1261 100.584 31.0082 100.496 30.9165 100.384C30.8143 100.163 30.7864 99.9146 30.8369 99.6765C30.9164 98.6902 30.7545 97.6993 30.365 96.7894C30.2708 96.5231 30.108 96.2864 29.893 96.103C29.7835 96.014 29.6485 95.9621 29.5075 95.9547C29.3665 95.9472 29.2268 95.9847 29.1085 96.0618C29.6073 97.6735 29.5355 99.4077 28.9049 100.973C28.5811 101.711 28.2015 102.423 27.7694 103.103C27.0969 104.249 26.7194 105.56 26.1206 106.747C26.7901 109.013 26.6397 111.431 27.0055 113.77C27.3329 115.948 28.0938 118.033 28.8578 120.099C29.4477 121.657 30.0612 123.283 31.3117 124.379C31.7148 124.785 32.2585 125.021 32.8307 125.039C33.2543 124.987 33.659 124.833 34.0106 124.591C34.3753 124.393 34.7117 124.146 35.0104 123.858C35.121 123.737 35.2197 123.606 35.3054 123.466C35.342 123.663 35.4172 123.851 35.5266 124.02C36.2463 122.47 37.0368 120.956 37.8862 119.474C38.1392 119.339 38.3766 119.177 38.5941 118.991C38.5941 119.044 38.6206 119.097 38.6354 119.15C38.597 119.291 38.5617 119.445 38.5233 119.577C38.485 119.71 38.4407 119.851 38.3994 119.984C38.3581 120.116 38.3375 120.181 38.305 120.278C38.2726 120.375 38.2254 120.514 38.1812 120.632C38.1369 120.75 38.0868 120.888 38.0366 121.015C37.9865 121.141 37.9688 121.197 37.9305 121.286C37.839 121.51 37.7446 121.728 37.6355 121.946C37.7177 121.986 37.8024 122.02 37.8892 122.049L37.9452 122.066C38.0217 122.091 38.0995 122.11 38.1782 122.125H38.2638C38.3214 122.134 38.3795 122.14 38.4378 122.143H38.5027H38.6944C38.9055 122.134 39.1145 122.098 39.3167 122.037L39.4318 122.508C39.726 123.568 39.9157 124.653 39.9981 125.749C40.0541 126.986 39.8388 128.244 40.0777 129.461C40.1986 130.094 40.4434 130.701 40.5319 131.338C40.589 131.937 40.5781 132.541 40.4995 133.138C40.3618 134.583 40.2242 136.03 40.0866 137.477C40.0739 138.009 39.9472 138.531 39.7149 139.009C39.5114 139.363 39.1811 139.766 39.3875 140.117C39.7275 140.027 40.0734 139.961 40.4228 139.92C40.296 140.379 40.1809 140.842 40.0718 141.307C39.9654 141.653 39.9372 142.018 39.9892 142.377C40.063 142.712 40.2842 143.016 40.3078 143.358C40.3609 143.888 39.9922 144.356 39.7887 144.848C39.2695 146.103 39.8211 147.517 40.3786 148.761L42.0067 152.449L43.3428 155.475C43.738 156.358 44.1362 157.272 44.5226 158.179C46.2639 162.311 47.6858 166.569 48.7758 170.918C48.8122 171.115 48.8874 171.303 48.997 171.472C49.2212 171.766 49.6312 171.861 49.9645 172.043C50.9644 172.594 51.0794 174.238 50.165 174.921C50.3509 177.137 48.6903 179.279 47.8349 181.329C45.8647 186.043 46.2215 191.363 45.5461 196.431L46.31 195.986C46.4006 196.026 46.4842 196.081 46.5578 196.148C46.5401 196.242 46.5194 196.34 46.4958 196.442C46.3925 196.873 46.2276 197.287 46.0062 197.671C45.5608 198.434 44.8795 199.114 44.7763 199.992C44.7143 200.523 44.8766 201.053 44.8736 201.586C44.8736 201.636 44.8736 201.683 44.8736 201.733C44.8058 201.669 44.7025 201.675 44.5492 201.795C44.3091 202.047 44.1428 202.36 44.0684 202.7C43.9357 203.08 43.8295 203.466 43.7233 203.852L43.3281 205.213C43.1262 206.033 42.8589 206.836 42.5287 207.614C42.2464 208.134 42.0095 208.679 41.8209 209.24C41.7157 209.698 41.675 210.168 41.6999 210.636C41.6922 211.086 41.7569 211.533 41.8917 211.962C42.0687 212.384 42.3319 212.765 42.6646 213.08C42.9972 213.395 43.3919 213.638 43.8236 213.792C44.6875 214.095 45.5925 214.266 46.5076 214.298C46.7423 214.328 46.9801 214.321 47.2126 214.278C47.4615 214.206 47.6933 214.085 47.8939 213.921C49.1386 213.008 49.7816 211.329 49.8937 209.797C49.8622 209.481 49.806 209.167 49.7256 208.86C49.8022 207.184 49.5574 205.499 49.6843 203.828C49.7108 204.02 49.7374 204.208 49.7669 204.397L50.0618 206.273C50.0445 206.207 50.0099 206.146 49.9615 206.097C49.7432 206.792 49.7046 207.53 49.8494 208.244C49.9965 208.955 50.2037 209.652 50.4688 210.327L50.87 211.447C50.9666 211.784 51.129 212.1 51.3478 212.375C51.6988 212.761 52.2327 212.905 52.7459 213.029C53.849 213.35 54.9848 213.548 56.1319 213.618C56.2853 213.636 56.4405 213.607 56.5773 213.535C56.6475 213.483 56.7145 213.427 56.7779 213.367C56.8798 213.294 56.9884 213.231 57.1023 213.179C57.5952 212.92 57.9676 212.479 58.1405 211.95C58.2235 211.687 58.2493 211.41 58.2163 211.136C58.1832 210.862 58.092 210.598 57.9488 210.362C57.8147 210.163 57.6616 209.978 57.4916 209.809L55.4742 207.673C55.1657 207.307 54.8368 206.959 54.489 206.63C54.4475 206.587 54.3963 206.555 54.3398 206.537C54.2833 206.519 54.2232 206.514 54.1646 206.524C53.616 205.157 53.6868 203.56 53.7811 202.06C53.8106 201.613 54.0555 200.685 54.1528 199.922C54.5419 199.79 54.9045 199.591 55.2235 199.332C55.5309 199.108 55.7492 198.783 55.8399 198.413C56.8575 193.222 58.4945 188.19 60.04 183.132C60.1934 182.634 60.335 182.133 60.4913 181.636C60.5562 181.423 60.6152 181.208 60.6771 180.993C60.739 180.778 60.7803 180.646 60.8305 180.472C60.9131 180.177 60.9957 179.883 61.0753 179.588C61.0989 179.508 61.1195 179.429 61.1431 179.349C61.1418 179.334 61.1418 179.318 61.1431 179.302C61.2405 178.94 61.3349 178.578 61.4381 178.215C61.4735 178.074 61.5118 177.938 61.5472 177.797C61.6622 177.337 61.7773 176.872 61.8864 176.409C61.9044 176.345 61.9182 176.28 61.9277 176.215C61.9675 176.051 61.9562 175.88 61.8953 175.723C61.8659 175.662 61.827 175.606 61.7802 175.558C61.7478 175.52 61.7124 175.481 61.677 175.446C61.6416 175.411 61.6003 175.363 61.5649 175.319C61.4718 175.205 61.4017 175.074 61.3584 174.933C61.3584 174.792 61.3584 174.639 61.3584 174.509C61.3584 174.379 61.3407 174.214 61.3319 174.061C61.3635 173.862 61.4078 173.665 61.4646 173.472C61.5 173.357 61.5384 173.242 61.5738 173.127C61.6092 173.012 61.6622 172.833 61.7094 172.7C61.8859 172.499 61.9815 172.24 61.9778 171.973C62.1607 171.517 62.3623 171.07 62.5825 170.632C62.8541 170.188 63.0374 169.696 63.1223 169.183C63.121 168.719 63.0635 168.257 62.9512 167.807C62.6562 165.892 63.5411 164.027 64.1929 162.209C64.6765 160.869 65.0436 159.489 65.2901 158.085C65.4819 157.01 65.6146 155.881 66.1898 154.95C66.3795 154.689 66.5416 154.408 66.6735 154.114C66.7628 153.805 66.8065 153.486 66.8032 153.165C66.8758 151.864 67.1909 150.588 67.7324 149.403C67.8523 149.173 67.934 148.925 67.9742 148.669C67.9758 148.653 67.9758 148.636 67.9742 148.619V148.548L68.1246 148.525C68.3812 146.902 68.6408 145.093 68.4638 143.458C68.2337 141.564 67.3102 139.822 65.8712 138.567H65.9007C66.408 138.311 66.6351 137.683 66.644 137.13C66.6452 136.71 66.552 136.295 66.3713 135.917C66.1905 135.538 65.9269 135.204 65.5998 134.941C65.4536 134.85 65.332 134.724 65.2459 134.575C65.197 134.422 65.1819 134.261 65.2017 134.101C65.2041 133.62 65.0631 133.149 64.7969 132.748C64.5306 132.348 64.1509 132.035 63.7063 131.85C63.6139 131.825 63.5297 131.776 63.4614 131.709C63.3857 131.579 63.3625 131.425 63.3966 131.279C63.4239 130.8 63.32 130.324 63.0959 129.9C62.8719 129.476 62.5363 129.122 62.1253 128.875C62.2433 128.244 62.3613 127.584 62.1814 126.966C62.0014 126.347 61.4204 125.787 60.7833 125.876C61.3024 124.462 60.565 122.888 60.7597 121.395C60.8452 120.753 61.1018 120.137 61.1343 119.492C61.1638 118.902 61.0193 118.272 61.3054 117.759C61.5915 117.247 62.2669 116.846 62.0929 116.286C62.0191 116.048 61.7979 115.883 61.6947 115.65C61.5915 115.417 62.0044 115.061 62.2168 115.19C62.317 115.114 62.4173 115.034 62.5117 114.952C62.5425 115.251 62.6018 115.547 62.6887 115.836C62.8332 116.319 63.0544 116.772 63.2048 117.253C63.4349 117.986 63.4998 118.782 63.8714 119.453C64.4613 120.529 65.709 121.062 66.5525 121.955C67.0481 122.476 67.405 123.133 67.9152 123.628C68.3028 123.989 68.7279 124.308 69.1835 124.579L71.9089 126.347C72.1915 126.552 72.5066 126.708 72.8409 126.81C73.053 126.85 73.2711 126.847 73.482 126.8C73.6928 126.754 73.8919 126.665 74.0671 126.539C74.2424 126.413 74.3901 126.252 74.5013 126.067C74.6125 125.883 74.6848 125.677 74.7138 125.463C74.4633 125.375 74.2348 125.233 74.0443 125.048C74.0827 125.048 74.121 125.048 74.1593 125.03C74.8067 124.861 75.4057 124.543 75.9084 124.102C77.8492 122.558 79.2443 120.452 80.607 118.381C82.0345 116.21 88.904 110.465 88.904 110.465V108.138C89.7781 107.631 90.5535 106.972 91.1928 106.19C91.5374 105.773 91.7391 105.257 91.7679 104.717C91.7811 104.441 91.7066 104.168 91.5551 103.937C91.4036 103.706 91.1829 103.528 90.9244 103.43V103.43ZM33.7923 109.013C33.6605 109.859 33.4983 110.7 33.3056 111.534C33.0933 112.5 32.8215 113.451 32.4916 114.383L32.3854 114.678C32.288 114.495 32.1907 114.315 32.0904 114.13C31.8692 113.667 31.6893 113.187 31.5005 112.707L30.362 109.643C30.2145 109.245 30.0671 108.786 30.2883 108.42C30.4504 108.197 30.6767 108.027 30.9372 107.934C31.7377 107.568 32.5738 107.284 33.4325 107.089C33.7039 107.034 33.9718 106.964 34.2347 106.877C34.0231 107.574 33.875 108.289 33.7923 109.013V109.013ZM35.0517 105.183C35.0138 105.115 34.9938 105.038 34.9938 104.96C34.9938 104.882 35.0138 104.806 35.0517 104.738C35.137 104.652 35.2368 104.582 35.3467 104.532L35.4322 104.473C35.3142 104.717 35.1815 104.953 35.0517 105.192V105.183ZM37.4113 101.851C37.0765 102.128 36.772 102.44 36.5029 102.782C36.2141 103.163 35.9538 103.564 35.7242 103.984C35.759 103.821 35.747 103.651 35.6896 103.495C35.6322 103.339 35.5317 103.202 35.3998 103.1C35.2953 103.043 35.1966 102.975 35.1048 102.9C35.0063 102.768 34.9639 102.603 34.9872 102.441C35.0104 102.278 35.0973 102.132 35.2287 102.033C35.5001 101.847 35.8174 101.739 36.146 101.721L37.5057 101.521C37.4644 101.636 37.4379 101.748 37.4084 101.86L37.4113 101.851ZM50.1414 200.44C50.1654 200.033 50.1387 199.624 50.0618 199.223C50.2299 199.223 50.3981 199.223 50.5632 199.223C50.4246 199.615 50.283 200.031 50.1414 200.44Z" fill="url(#paint11_linear)"/>
<path d="M48.7558 80.4005C46.3962 80.7805 43.7711 81.6879 42.8568 83.8974C42.1754 85.5678 42.7034 87.4474 42.8774 89.2415C42.9434 89.7152 42.9264 90.1967 42.8273 90.6645C42.6326 91.4216 42.0958 92.0344 41.5767 92.6207C40.8555 93.365 40.25 94.2131 39.7804 95.1366C39.3557 96.0793 39.22 97.1988 39.6595 98.1415C39.809 98.3838 39.9092 98.6531 39.9544 98.934C39.9839 99.5468 39.3409 99.9357 38.869 100.328C37.0993 101.801 37.173 104.452 37.1583 106.759C37.1311 111.462 36.0857 116.104 34.0938 120.367C34.8403 120.744 35.6834 120.888 36.5132 120.78C37.343 120.672 38.1208 120.316 38.7451 119.76C38.4999 120.807 38.146 121.826 37.6892 122.8C39.1876 123.525 40.9956 122.334 41.7477 120.85C42.4999 119.365 42.5884 117.638 43.1222 116.062C43.6561 114.486 44.597 113.116 45.0129 111.528C45.1456 111.004 45.2282 110.444 45.5497 110.008C45.8206 109.693 46.139 109.421 46.4935 109.204C48.0493 108.082 49.2155 106.503 49.8294 104.688C51.664 105.091 53.537 105.498 55.4069 105.327C57.2769 105.156 59.1882 104.311 60.1763 102.714C60.6128 102.01 60.8488 101.2 61.2529 100.475C61.7484 99.591 62.4769 98.8604 63.0226 98.0149C64.3381 96.0027 64.5799 93.419 64.0461 91.074C63.5122 88.7289 62.2764 86.6078 60.8016 84.7076C57.976 81.0427 53.2273 79.6846 48.7558 80.4005Z" fill="#303D5C"/>
<path d="M33.8631 109.867C33.7304 110.709 33.5681 111.552 33.3794 112.386C33.1653 113.35 32.8935 114.3 32.5653 115.232C32.3723 115.639 32.2841 116.089 32.3087 116.54C32.3669 116.815 32.4738 117.079 32.6243 117.317C33.7009 119.229 35.1579 121.076 35.2789 123.268C35.3084 123.813 35.2789 124.406 35.5738 124.856C36.4056 123.067 37.3239 121.323 38.3287 119.624C39.3787 117.856 40.5467 116.048 40.8475 114.003C40.9675 113.043 40.9546 112.072 40.8092 111.116C40.6706 110.041 40.4287 108.939 39.7739 108.079C39.0601 107.148 37.1194 105.742 35.8422 106.034C34.3586 106.373 34.0519 108.668 33.8631 109.867Z" fill="#6C63FF"/>
<path d="M71.8798 120.172C73.2896 119.598 74.729 118.994 75.8469 117.957C76.5296 117.28 77.1351 116.531 77.652 115.721L80.9702 110.939C81.7547 109.802 82.5659 108.609 82.7399 107.239C84.6831 105.19 85.8539 102.53 86.0522 99.7148C86.0758 99.4349 86.1702 99.0667 86.4504 99.0579C86.5744 99.0671 86.6903 99.1229 86.7748 99.214C86.9916 99.4134 87.1581 99.6612 87.2607 99.9372C87.3632 100.213 87.3988 100.51 87.3647 100.802C87.8484 100.778 88.3734 100.767 88.7687 101.049C89.1639 101.332 89.2701 102.033 88.8454 102.266C88.9875 102.309 89.109 102.403 89.1867 102.529C89.2644 102.656 89.293 102.806 89.2671 102.953C89.7745 102.852 90.3319 102.77 90.7802 103.023C91.2286 103.277 91.3996 104.019 90.9661 104.296C91.2189 104.394 91.4353 104.567 91.5858 104.792C91.7362 105.017 91.8134 105.283 91.8067 105.554C91.7797 106.094 91.5778 106.611 91.2315 107.027C89.9573 108.736 87.7098 109.425 86.2321 110.963C85.7465 111.5 85.3112 112.081 84.9314 112.698L80.6516 119.203C79.2919 121.265 77.8968 123.377 75.956 124.915C75.4533 125.356 74.8543 125.674 74.2069 125.843C73.8827 125.925 73.5428 125.921 73.2206 125.832C72.8984 125.742 72.605 125.571 72.3694 125.334C71.9417 124.848 71.8768 124.155 71.8355 123.504C71.7647 122.408 71.9535 121.277 71.8798 120.172Z" fill="#EE8E9E"/>
<path d="M57.5481 210.516C57.7188 210.684 57.8719 210.87 58.0053 211.07C58.1484 211.305 58.2396 211.568 58.2727 211.841C58.3057 212.115 58.2799 212.392 58.197 212.655C58.026 213.183 57.6543 213.623 57.1617 213.88C57.0466 213.932 56.9369 213.995 56.8343 214.069C56.7716 214.13 56.7046 214.187 56.6338 214.24C56.496 214.308 56.3417 214.337 56.1884 214.322C55.0425 214.249 53.9081 214.052 52.8053 213.733C52.298 213.606 51.7612 213.462 51.4072 213.079C51.1884 212.804 51.0261 212.488 50.9294 212.151L50.5283 211.034C50.2649 210.359 50.0587 209.664 49.9118 208.954C49.7654 208.242 49.804 207.503 50.0239 206.81C50.1234 206.934 50.1756 207.089 50.1714 207.249C50.2894 208 50.5846 208.713 51.0326 209.328C51.1262 209.483 51.2392 209.624 51.3689 209.75C51.6621 209.975 52.0086 210.12 52.3747 210.171C53.0792 210.324 53.7956 210.416 54.516 210.445C54.6157 210.459 54.7173 210.446 54.811 210.41C54.9266 210.346 55.014 210.24 55.0558 210.115C55.1589 209.829 55.1589 209.517 55.0558 209.231C54.8611 208.686 54.3272 208.33 54.0736 207.811C53.8819 207.428 54.1444 207.007 54.5337 207.331C54.8832 207.659 55.2131 208.007 55.5218 208.374L57.5481 210.516Z" fill="#303D5C"/>
<path d="M53.8403 202.776C53.7253 204.576 53.6457 206.521 54.6308 208.032C54.9877 208.574 55.4626 209.031 55.8667 209.54C56.0984 209.795 56.2519 210.111 56.3091 210.451C56.3651 211.111 55.7457 211.676 55.0939 211.8C54.442 211.924 53.7755 211.718 53.1443 211.505C52.547 211.357 51.9848 211.093 51.4896 210.728C50.6313 210.003 50.4042 208.795 50.2331 207.687L49.832 205.113C49.5281 203.811 49.6565 202.446 50.1977 201.224L50.8584 199.291C50.9016 199.103 51.0052 198.935 51.1533 198.811C51.307 198.726 51.4838 198.693 51.6577 198.717C52.2889 198.749 53.8846 198.979 54.1913 199.648C54.4509 200.228 53.8846 202.084 53.8403 202.776Z" fill="#EE8E9E"/>
<path opacity="0.05" d="M53.8403 202.776C53.7253 204.576 53.6457 206.521 54.6308 208.032C54.9877 208.574 55.4626 209.031 55.8667 209.54C56.0984 209.795 56.2519 210.111 56.3091 210.451C56.3651 211.111 55.7457 211.676 55.0939 211.8C54.442 211.924 53.7755 211.718 53.1443 211.505C52.547 211.357 51.9848 211.093 51.4896 210.728C50.6313 210.003 50.4042 208.795 50.2331 207.687L49.832 205.113C49.5281 203.811 49.6565 202.446 50.1977 201.224L50.8584 199.291C50.9016 199.103 51.0052 198.935 51.1533 198.811C51.307 198.726 51.4838 198.693 51.6577 198.717C52.2889 198.749 53.8846 198.979 54.1913 199.648C54.4509 200.228 53.8846 202.084 53.8403 202.776Z" fill="black"/>
<path d="M68.0186 149.421C68.0199 149.437 68.0199 149.454 68.0186 149.471C67.9811 149.725 67.8992 149.972 67.7767 150.198C67.2353 151.381 66.9192 152.653 66.8447 153.952C66.8479 154.272 66.8042 154.592 66.7149 154.9C66.5826 155.194 66.4205 155.473 66.2312 155.734C65.656 156.668 65.5233 157.796 65.3316 158.866C65.0844 160.263 64.7173 161.637 64.2344 162.972C63.5766 164.793 62.6918 166.655 62.9926 168.57C63.105 169.02 63.1624 169.482 63.1637 169.946C63.0796 170.458 62.8963 170.95 62.6239 171.392C62.4037 171.828 62.2071 172.275 62.034 172.733C61.8423 173.222 61.6712 173.722 61.5208 174.229C61.3438 174.845 61.2259 175.576 61.6329 176.07C61.7594 176.192 61.8712 176.327 61.9662 176.474C62.0428 176.699 62.0428 176.944 61.9662 177.169C61.7322 178.151 61.4825 179.133 61.217 180.115C61.0105 180.881 60.7923 181.641 60.5681 182.401C58.9105 187.961 57.0287 193.464 55.9197 199.159C55.7604 199.978 54.7074 200.564 53.8934 200.744C53.4834 200.831 53.0586 200.82 52.6535 200.712C52.2485 200.604 51.8749 200.402 51.5633 200.122C51.5072 200.072 51.4541 200.016 51.404 199.963C50.5486 199.044 50.4218 197.633 50.4867 196.36C50.7816 190.5 53.7311 185.135 55.1351 179.441C55.6429 177.382 55.9491 175.278 56.0495 173.16C56.3769 166.089 56.5096 158.612 54.5069 151.816C54.091 150.402 53.5984 148.805 54.3476 147.538C54.8195 146.737 55.6955 146.262 56.5627 145.921C58.3312 145.232 60.2195 144.904 62.1169 144.954C64.0142 145.005 65.8824 145.434 67.6116 146.215C67.6144 146.357 67.6085 146.499 67.5939 146.639C67.5188 147.298 67.5954 147.965 67.818 148.59C67.9325 148.853 68.0004 149.134 68.0186 149.421Z" fill="#303D5C"/>
<path d="M43.7676 204.588L43.393 205.949C43.1935 206.768 42.9272 207.569 42.5967 208.344C42.3143 208.865 42.0774 209.409 41.8888 209.971C41.7836 210.428 41.7429 210.898 41.7678 211.367C41.7601 211.815 41.8248 212.262 41.9596 212.69C42.1361 213.111 42.3989 213.492 42.7311 213.806C43.0632 214.121 43.4575 214.363 43.8885 214.516C44.7523 214.82 45.6575 214.99 46.5726 215.02C46.807 215.053 47.0451 215.047 47.2775 215.002C47.5265 214.931 47.7582 214.81 47.9589 214.646C49.2036 213.736 49.8436 212.056 49.9557 210.521C49.9235 210.163 49.8533 209.81 49.7463 209.467C49.6489 209.337 48.7081 209.867 49.1121 210.312C49.702 210.966 47.9648 210.627 47.0799 210.572C46.6912 210.538 46.3057 210.475 45.9267 210.383L44.4932 210.088C44.0242 209.988 43.4845 209.826 43.3134 209.378C43.1423 208.931 43.5081 208.394 43.7912 207.958C44.5404 206.801 44.7351 205.384 44.9091 204.017C44.9415 203.748 45.2778 202.007 44.5846 202.544C44.3467 202.797 44.1807 203.109 44.1039 203.448C43.977 203.816 43.8708 204.202 43.7676 204.588Z" fill="#303D5C"/>
<path opacity="0.05" d="M61.6185 176.073C61.2115 175.578 61.3236 174.848 61.5094 174.232C61.5743 174.002 61.648 173.776 61.7247 173.549L56.097 171.646C56.0764 172.152 56.0528 172.653 56.0292 173.154C55.9311 175.273 55.6258 177.378 55.1178 179.438C53.7109 185.13 50.7584 190.494 50.4694 196.351C50.4015 197.7 50.5461 199.209 51.5459 200.116C51.857 200.396 52.23 200.599 52.6345 200.707C53.0389 200.816 53.4634 200.827 53.8731 200.741C54.6901 200.561 55.7401 199.972 55.9024 199.153C57.0173 193.458 58.8902 187.958 60.5508 182.393C61.0679 180.666 61.534 178.926 61.9489 177.172C62.0255 176.948 62.0255 176.704 61.9489 176.48C61.8565 176.331 61.7455 176.194 61.6185 176.073Z" fill="black"/>
<path d="M46.0686 198.413C45.6232 199.179 44.9449 199.857 44.8416 200.735C44.7797 201.262 44.9419 201.792 44.939 202.326C44.9172 202.767 44.8389 203.204 44.7059 203.625C44.1573 205.603 43.5261 207.553 42.8124 209.476C42.695 209.724 42.6432 209.998 42.6619 210.271C42.7327 210.722 43.1722 211.02 43.591 211.199C44.9331 211.771 46.4432 211.732 47.9003 211.674C48.324 211.691 48.7441 211.589 49.1125 211.379C49.6346 211.022 49.7644 210.318 49.7968 209.688C49.8971 207.861 49.5874 206.026 49.7968 204.211C49.8705 203.548 50.0092 202.897 50.1124 202.24C50.2569 201.327 50.3307 200.367 50.0298 199.492C49.7807 198.864 49.4322 198.28 48.9975 197.762C48.614 197.202 48.1288 196.718 47.567 196.336C47.3959 196.236 46.9092 195.924 46.7352 196.118C46.6467 196.219 46.6851 196.487 46.6733 196.61C46.6504 196.801 46.6169 196.989 46.573 197.176C46.4652 197.611 46.2953 198.027 46.0686 198.413V198.413Z" fill="#EE8E9E"/>
<path opacity="0.05" d="M56.8814 151.701C56.6189 152.057 56.6719 152.552 56.7781 152.982C56.9639 153.76 57.2766 154.505 57.5303 155.263C57.9454 156.622 58.2686 158.008 58.4977 159.411C58.7337 160.677 59.2351 162.089 59.0316 163.364C60.57 166.289 61.5813 169.461 62.0194 172.736C62.1344 173.575 60.2674 174.659 60.3028 175.505C60.3736 177.19 61.7186 177.326 60.7275 178.669C60.6774 178.737 61.0992 180.242 61.0431 180.307C60.639 180.793 60.1258 181.191 59.6922 181.636C59.133 182.268 58.6545 182.968 58.2676 183.718C55.7016 188.35 51.9911 193.6 53.1355 198.77C53.1588 198.956 53.1244 199.145 53.0368 199.311C52.9492 199.477 52.8128 199.612 52.6459 199.698C52.3071 199.861 51.9364 199.946 51.5604 199.948H51.3835C50.5281 199.029 50.4013 197.618 50.4662 196.345C50.7611 190.486 53.7106 185.121 55.1146 179.426C55.6224 177.367 55.9286 175.263 56.029 173.145C56.3563 166.075 56.4891 158.598 54.4864 151.801C54.0705 150.387 53.5779 148.79 54.3271 147.523C54.799 146.722 55.675 146.248 56.5422 145.906C58.3107 145.218 60.199 144.889 62.0964 144.94C63.9937 144.99 65.8618 145.419 67.591 146.201C67.5939 146.342 67.588 146.484 67.5733 146.625C67.4983 147.283 67.5749 147.951 67.7975 148.575C67.9212 148.843 67.9961 149.13 68.0187 149.424C68.0187 149.424 68.119 148.283 68.1161 148.301C65.8302 148.628 63.4175 150.122 61.111 150.461C59.9151 150.588 58.7371 150.847 57.5981 151.232C57.3206 151.32 57.0726 151.482 56.8814 151.701V151.701Z" fill="black"/>
<path d="M40.9572 139.156C40.6485 140.138 40.3761 141.13 40.1402 142.132C40.0352 142.478 40.007 142.843 40.0576 143.201C40.1313 143.537 40.3525 143.838 40.3761 144.179C40.4292 144.71 40.0605 145.178 39.857 145.67C39.3379 146.922 39.8924 148.336 40.4469 149.577L42.075 153.259L43.4141 156.282C43.8123 157.18 44.2075 158.079 44.5939 158.983C46.3342 163.11 47.7551 167.364 48.8442 171.707C48.8808 171.904 48.9549 172.092 49.0624 172.261C49.2896 172.556 49.6995 172.65 50.0299 172.833C51.0327 173.381 51.1478 175.025 50.2305 175.708C50.4192 177.92 48.7557 180.056 47.9033 182.107C45.933 186.82 46.2899 192.123 45.6145 197.191L46.3784 196.743C47.1128 197.079 47.0863 198.119 47.4815 198.823C48.0714 199.88 49.5226 200.028 50.726 199.948C51.101 199.946 51.4708 199.861 51.8084 199.698C51.9756 199.612 52.1123 199.477 52.1999 199.311C52.2876 199.145 52.3218 198.956 52.2981 198.77C51.1566 193.599 54.8641 188.349 57.4332 183.718C57.819 182.968 58.2966 182.268 58.8548 181.635C59.2914 181.176 59.8016 180.79 60.2087 180.307C61.3413 178.949 61.4858 177.034 61.4091 175.266C61.2292 171.11 60.1314 167.044 58.1941 163.361C58.4006 162.088 57.8992 160.677 57.6632 159.41C57.4333 158.008 57.1071 156.623 56.6869 155.265C56.4333 154.502 56.1236 153.76 55.9348 152.982C55.8316 152.552 55.7755 152.057 56.038 151.701C56.232 151.481 56.4831 151.319 56.7636 151.232C57.9026 150.847 59.0807 150.588 60.2765 150.46L68.19 149.326C68.4437 147.703 68.7033 145.894 68.5263 144.262C68.3361 142.749 67.7057 141.326 66.7132 140.168C65.7206 139.01 64.4097 138.169 62.9429 137.748C62.5978 137.657 62.1937 137.598 61.9105 137.816C54.9275 136.447 47.7083 136.909 40.9572 139.156V139.156Z" fill="#303D5C"/>
<path d="M48.1332 96.4653C48.2485 97.237 48.1283 98.0255 47.7881 98.7279C47.5583 99.1115 47.2581 99.4483 46.9032 99.7207C46.1381 100.335 45.2485 100.776 44.2959 101.014C43.7355 101.155 43.1161 101.25 42.7356 101.695C42.1811 102.363 42.5527 103.377 43.0305 104.107C43.8505 105.38 44.989 106.532 46.449 106.93C47.6288 107.248 48.8588 107.053 50.0504 107.26C50.9146 107.41 51.7287 107.766 52.5811 107.97C53.794 108.247 55.0571 108.217 56.2556 107.883C57.4542 107.549 58.5503 106.922 59.4446 106.058C58.1763 105.085 56.8608 104.051 56.2001 102.596C55.7351 101.554 55.6475 100.384 55.9524 99.2847C56.2473 98.2064 56.9404 97.1576 56.7281 96.044C56.5157 94.9304 55.4303 94.1851 54.3685 93.8139C53.3936 93.5181 52.3918 93.3198 51.3777 93.2217C50.8202 93.1451 47.2808 92.3644 47.0596 92.7504C46.9357 92.9684 47.6701 94.2587 47.7616 94.5445C47.9772 95.1636 48.1023 95.8105 48.1332 96.4653V96.4653Z" fill="#EE8E9E"/>
<path d="M52.5956 99.0459C56.5605 99.0459 59.7747 95.8355 59.7747 91.8753C59.7747 87.915 56.5605 84.7046 52.5956 84.7046C48.6307 84.7046 45.4165 87.915 45.4165 91.8753C45.4165 95.8355 48.6307 99.0459 52.5956 99.0459Z" fill="#EE8E9E"/>
<path d="M48.8026 103.727L53.6723 104.546C54.8692 104.79 56.0876 104.912 57.309 104.912C57.9759 104.845 58.6478 104.845 59.3147 104.912C59.7748 104.988 60.2143 105.162 60.6744 105.221C61.2437 105.292 61.8218 105.183 62.391 105.256C63.447 105.392 64.3171 106.122 65.1193 106.821C66.0602 107.64 67.0719 108.588 67.1457 109.84C67.1589 109.982 67.1387 110.126 67.0867 110.259C66.9942 110.409 66.8705 110.538 66.7239 110.636C65.839 111.369 65.3288 112.462 64.6917 113.429C64.0357 114.426 63.2184 115.307 62.2731 116.036C62.0607 115.9 61.6566 116.257 61.748 116.493C61.8395 116.728 62.0725 116.89 62.1492 117.129C62.3232 117.68 61.6419 118.086 61.3587 118.602C61.0756 119.117 61.2201 119.745 61.1906 120.331C61.1552 120.976 60.8956 121.592 60.816 122.231C60.6184 123.725 61.3587 125.298 60.8366 126.709C61.4767 126.63 62.0548 127.181 62.2347 127.797C62.4146 128.412 62.2996 129.075 62.1787 129.706C62.5897 129.951 62.9257 130.305 63.1503 130.727C63.3748 131.15 63.4795 131.626 63.4529 132.104C63.4278 132.16 63.4157 132.221 63.4175 132.283C63.4193 132.345 63.4349 132.405 63.4632 132.46C63.4915 132.515 63.5318 132.563 63.581 132.6C63.6303 132.637 63.6873 132.663 63.7478 132.675C64.1918 132.86 64.5709 133.172 64.8371 133.572C65.1033 133.973 65.2446 134.443 65.2432 134.923C65.2235 135.083 65.2386 135.246 65.2875 135.4C65.3734 135.548 65.4938 135.672 65.6385 135.763C65.9656 136.025 66.2293 136.358 66.4101 136.737C66.5909 137.115 66.684 137.529 66.6826 137.949C66.6826 138.517 66.4466 139.127 65.9423 139.383C64.9099 139.908 63.8039 140.111 62.6712 140.356C61.6276 140.602 60.571 140.79 59.5064 140.918C58.5254 140.998 57.541 141.029 56.5569 141.01L50.0444 140.983C48.2127 140.983 46.3811 140.983 44.5553 140.845C42.8505 140.73 41.1073 140.518 39.4556 140.965C39.2492 140.615 39.5795 140.211 39.783 139.861C40.0163 139.383 40.1431 138.86 40.1547 138.329L40.5676 133.995C40.6462 133.399 40.657 132.796 40.6 132.198C40.5115 131.559 40.2697 130.955 40.1458 130.321C39.9098 129.108 40.1252 127.852 40.0691 126.615C39.9849 125.519 39.7942 124.434 39.4999 123.374L38.208 118.072C38.0015 117.22 37.8924 116.23 37.5738 115.42C36.5808 112.867 35.5396 110.341 34.4503 107.843C34.4109 107.733 34.3957 107.617 34.4059 107.501C34.4161 107.385 34.4514 107.272 34.5093 107.171L35.5859 105.245C35.8739 104.697 36.2032 104.172 36.571 103.674C37.4802 102.526 38.7678 101.737 40.2048 101.447C41.6437 101.166 43.1356 101.386 44.4314 102.072C44.9329 102.34 45.3989 102.661 45.9062 102.926C46.7763 103.338 47.8381 103.792 48.8026 103.727Z" fill="#6C63FF"/>
<path d="M66.0811 108.45L67.7771 110.71C67.9329 110.902 68.0656 111.111 68.1723 111.334C68.426 111.923 68.2873 112.619 68.423 113.252C68.5287 113.658 68.6969 114.044 68.9215 114.398C69.5591 115.518 70.2798 116.588 71.0776 117.6C71.4462 118.114 71.9 118.562 72.4196 118.923C72.6798 119.103 72.9757 119.224 73.2872 119.28C73.5986 119.335 73.9184 119.323 74.2247 119.244C73.9684 119.344 73.7583 119.535 73.6348 119.78C72.9889 121.059 72.9417 122.573 73.216 123.976C73.2931 124.457 73.4528 124.921 73.6879 125.348C73.9234 125.779 74.3067 126.111 74.7674 126.282C74.7384 126.496 74.6661 126.701 74.5549 126.886C74.4436 127.071 74.2959 127.231 74.1205 127.357C73.9452 127.483 73.7461 127.571 73.5353 127.618C73.3244 127.664 73.1064 127.667 72.8945 127.626C72.5606 127.526 72.2463 127.369 71.9654 127.163L69.24 125.396C68.7851 125.124 68.36 124.805 67.9717 124.444C67.4615 123.937 67.1075 123.295 66.612 122.774C65.7684 121.89 64.5297 121.348 63.9339 120.275C63.5593 119.604 63.4944 118.802 63.2643 118.078C63.1139 117.597 62.8927 117.144 62.7481 116.661C62.2998 115.17 62.6243 113.535 63.3056 112.135C63.9869 110.736 65.0724 109.64 66.0811 108.45Z" fill="#6C63FF"/>
<path d="M59.6896 87.7863C59.0252 86.757 58.1679 85.8657 57.1649 85.1614C55.8228 84.1627 54.2802 83.3319 52.6079 83.2376C51.9086 83.202 51.2098 83.3155 50.5579 83.5705C50.5255 81.5466 50.0241 80.1973 48.7558 80.4006C46.3962 80.7806 43.7711 81.688 42.8568 83.8975C42.1754 85.5679 42.7034 87.4475 42.8774 89.2417C42.9434 89.7153 42.9264 90.1968 42.8273 90.6646C42.6326 91.4217 42.0958 92.0345 41.5767 92.6208C40.8555 93.3651 40.25 94.2132 39.7804 95.1367C39.3557 96.0794 39.22 97.1989 39.6595 98.1417C39.809 98.3839 39.9092 98.6532 39.9544 98.9342C39.9839 99.5469 39.3409 99.9358 38.869 100.328C37.0993 101.801 37.173 104.452 37.1583 106.759C37.1311 111.462 36.0857 116.104 34.0938 120.367C34.8403 120.744 35.6834 120.888 36.5132 120.78C37.343 120.672 38.1208 120.316 38.7451 119.76C38.4999 120.807 38.146 121.826 37.6892 122.8C39.1876 123.525 40.9956 122.335 41.7477 120.85C42.4999 119.365 42.5884 117.639 43.1222 116.062C43.6561 114.486 44.597 113.116 45.0129 111.529C45.1456 111.004 45.2282 110.444 45.5497 110.008C45.8206 109.693 46.139 109.422 46.4935 109.204C48.0391 108.096 45.762 99.7031 46.3667 97.9001C47.2515 98.0975 48.918 93.7756 49.8589 89.3566C50.5151 89.5825 51.215 89.6521 51.9029 89.5598C52.1421 89.5081 52.3875 89.4912 52.6314 89.5098C52.858 89.5562 53.074 89.6441 53.2685 89.769C53.9648 90.1957 54.6924 90.569 55.4453 90.8856C57.0026 91.4748 58.7133 91.3893 60.3739 91.3068C60.5989 90.0891 60.3544 88.8315 59.6896 87.7863V87.7863Z" fill="#303D5C"/>
<g opacity="0.1">
<path opacity="0.1" d="M34.9373 120.367C36.9353 116.11 37.9859 111.472 38.0166 106.771C38.0314 104.473 37.9547 101.804 39.7273 100.339C40.1992 99.9477 40.8422 99.5588 40.8127 98.946C40.7663 98.6654 40.6662 98.3963 40.5178 98.1535C40.0783 97.2167 40.2228 96.0913 40.6358 95.1486C41.1055 94.2244 41.7121 93.3762 42.435 92.6326C42.9511 92.0434 43.4909 91.4336 43.6826 90.6765C43.7815 90.2087 43.7994 89.7274 43.7357 89.2535C43.5587 87.4594 43.0337 85.5798 43.7151 83.9094C44.5999 81.7706 47.0746 80.8543 49.3752 80.4537C49.1751 80.39 48.9626 80.3758 48.7558 80.4124C46.3962 80.7925 43.7711 81.6999 42.8568 83.9094C42.1754 85.5798 42.7034 87.4594 42.8774 89.2535C42.9434 89.7272 42.9264 90.2086 42.8273 90.6765C42.6326 91.4336 42.0958 92.0464 41.5767 92.6326C40.8555 93.377 40.25 94.225 39.7804 95.1486C39.3557 96.0913 39.22 97.2108 39.6595 98.1535C39.809 98.3958 39.9092 98.6651 39.9544 98.946C39.9839 99.5588 39.3409 99.9477 38.869 100.339C37.0993 101.813 37.173 104.464 37.1583 106.771C37.1294 111.47 36.084 116.108 34.0938 120.367C34.7955 120.729 35.5883 120.877 36.3737 120.794C35.8717 120.746 35.3839 120.601 34.9373 120.367V120.367Z" fill="black"/>
<path opacity="0.1" d="M38.5326 122.788C38.9863 121.814 39.3373 120.795 39.5797 119.748C39.2768 120.025 38.9325 120.252 38.5592 120.423C38.329 121.231 38.0331 122.019 37.6743 122.78C38.1057 122.984 38.5914 123.046 39.0606 122.956C38.8782 122.923 38.7008 122.866 38.5326 122.788V122.788Z" fill="black"/>
<path opacity="0.1" d="M51.4014 83.5707C51.8401 83.4001 52.301 83.2929 52.77 83.2525H52.6078C52.2014 83.2315 51.7941 83.2622 51.3955 83.3438C51.3985 83.4086 51.4014 83.4882 51.4014 83.5707Z" fill="black"/>
<path opacity="0.1" d="M56.2885 90.8769C55.5366 90.5603 54.8099 90.187 54.1147 89.7603C53.9192 89.6353 53.7022 89.5475 53.4747 89.5011C53.2517 89.481 53.0269 89.4949 52.8081 89.5423C52.9679 89.6005 53.122 89.6735 53.2682 89.7603C53.9644 90.1871 54.6921 90.5603 55.445 90.8769C56.6173 91.2631 57.8525 91.4231 59.0847 91.3483C58.1328 91.348 57.1877 91.1886 56.2885 90.8769V90.8769Z" fill="black"/>
<path opacity="0.1" d="M50.7024 89.3479C50.7024 89.4127 50.6759 89.4775 50.6611 89.5423C51.0146 89.5948 51.3731 89.6047 51.7289 89.5718C51.3794 89.5356 51.0352 89.4605 50.7024 89.3479V89.3479Z" fill="black"/>
</g>
<path d="M35.7602 122.603C35.8012 122.982 35.7592 123.366 35.6369 123.728C35.5147 124.089 35.3152 124.42 35.0523 124.697C34.7533 124.985 34.417 125.232 34.0524 125.431C33.7006 125.672 33.296 125.824 32.8726 125.876C32.302 125.857 31.7599 125.622 31.3566 125.219C30.106 124.123 29.4807 122.499 28.9026 120.941C28.1387 118.879 27.3777 116.796 27.0503 114.619C26.6993 112.286 26.8497 109.87 26.1802 107.604C26.7701 106.426 27.1535 105.112 27.829 103.969C28.2576 103.288 28.6371 102.577 28.9645 101.842C29.5917 100.277 29.6625 98.5445 29.1651 96.9337C29.2834 96.8567 29.4231 96.8192 29.5641 96.8266C29.7051 96.834 29.8401 96.886 29.9497 96.9749C30.164 97.1589 30.3267 97.3955 30.4216 97.6614C30.8111 98.5702 30.973 99.5601 30.8935 100.546C30.843 100.783 30.871 101.03 30.9731 101.25C31.0645 101.362 31.1823 101.451 31.316 101.507C31.4498 101.564 31.5954 101.587 31.74 101.574C32.3414 101.544 32.9363 101.436 33.5097 101.253C35.2915 100.798 37.137 100.646 38.9693 100.802C39.3385 100.813 39.7012 100.901 40.034 101.061C40.1986 101.143 40.337 101.269 40.4339 101.425C40.5308 101.581 40.5823 101.761 40.5827 101.945L36.2174 102.584C35.8888 102.603 35.5715 102.711 35.3001 102.897C35.1695 102.995 35.0832 103.141 35.06 103.303C35.0368 103.464 35.0786 103.629 35.1762 103.76C35.2684 103.835 35.3671 103.902 35.4712 103.96C35.5831 104.045 35.6732 104.155 35.7342 104.281C35.7951 104.407 35.8251 104.546 35.8216 104.686C35.8182 104.827 35.7814 104.964 35.7143 105.087C35.6472 105.21 35.5517 105.316 35.4358 105.395C35.3259 105.445 35.226 105.515 35.1408 105.601C34.9638 105.84 35.1998 106.155 35.2765 106.444C35.3096 106.657 35.2771 106.875 35.1833 107.069C35.0896 107.263 34.939 107.424 34.7515 107.531C34.3729 107.738 33.9604 107.877 33.5333 107.94C32.6762 108.137 31.8411 108.421 31.041 108.786C30.7805 108.878 30.5542 109.048 30.3921 109.272C30.1768 109.637 30.3183 110.097 30.4658 110.494L31.6043 113.552C31.7813 114.033 31.9612 114.513 32.1942 114.975C32.4892 115.565 32.8402 116.136 33.1381 116.743C33.436 117.35 33.6307 117.877 33.8489 118.455C34.4182 120.013 35.5655 120.956 35.7602 122.603Z" fill="#EE8E9E"/>
<path d="M88.7565 102.764H75.1504V115.921H88.7565V102.764Z" fill="url(#paint12_linear)"/>
<path d="M88.5239 102.991H75.3867V115.694H88.5239V102.991Z" fill="#7CFCFF"/>
<path d="M86.247 101.989C86.0042 102.17 85.8288 102.426 85.7485 102.717C85.7299 102.777 85.7311 102.841 85.7518 102.901C85.7725 102.96 85.8116 103.011 85.8635 103.047C85.9288 103.068 85.9989 103.068 86.0641 103.047C86.3907 102.989 86.696 102.846 86.9489 102.631C86.8486 102.685 86.7595 102.757 86.6864 102.844C86.6505 102.888 86.628 102.941 86.6217 102.997C86.6154 103.054 86.6256 103.111 86.651 103.162C86.6873 103.206 86.7322 103.242 86.7829 103.267C86.8336 103.293 86.8892 103.308 86.946 103.312C87.3668 103.388 87.7995 103.368 88.2113 103.253C88.0194 103.325 87.8417 103.429 87.6863 103.562C87.6091 103.63 87.5477 103.714 87.5064 103.808C87.4651 103.903 87.445 104.005 87.4474 104.107C87.4477 104.146 87.4563 104.184 87.4726 104.219C87.4889 104.254 87.5125 104.286 87.5418 104.311C87.5846 104.338 87.633 104.355 87.6834 104.361C88.0736 104.429 88.4729 104.429 88.8632 104.361C88.9638 104.357 89.0618 104.328 89.1484 104.276C89.2349 104.225 89.3072 104.153 89.3587 104.066C89.3787 103.969 89.3788 103.868 89.3591 103.77C89.3393 103.673 89.3001 103.58 89.2437 103.498C89.0344 103.048 88.9334 102.556 88.9487 102.06C88.9615 101.96 88.9472 101.858 88.9074 101.765C88.8424 101.675 88.7505 101.608 88.6449 101.574C88.229 101.391 87.6627 101.138 87.1997 101.279C86.8384 101.451 86.5147 101.692 86.247 101.989V101.989Z" fill="#EE8E9E"/>
</g>
<defs>
<linearGradient id="paint0_linear" x1="124.428" y1="97.3609" x2="124.428" y2="84.2039" gradientUnits="userSpaceOnUse">
<stop stop-color="#808080" stop-opacity="0.25"/>
<stop offset="0.54" stop-color="#808080" stop-opacity="0.12"/>
<stop offset="1" stop-color="#808080" stop-opacity="0.1"/>
</linearGradient>
<linearGradient id="paint1_linear" x1="7178.66" y1="4302.13" x2="7178.66" y2="3714.54" gradientUnits="userSpaceOnUse">
<stop stop-color="#808080" stop-opacity="0.25"/>
<stop offset="0.54" stop-color="#808080" stop-opacity="0.12"/>
<stop offset="1" stop-color="#808080" stop-opacity="0.1"/>
</linearGradient>
<linearGradient id="paint2_linear" x1="9722.55" y1="6346.77" x2="9722.55" y2="5759.18" gradientUnits="userSpaceOnUse">
<stop stop-color="#808080" stop-opacity="0.25"/>
<stop offset="0.54" stop-color="#808080" stop-opacity="0.12"/>
<stop offset="1" stop-color="#808080" stop-opacity="0.1"/>
</linearGradient>
<linearGradient id="paint3_linear" x1="4074.97" y1="3361.73" x2="4074.97" y2="2774.13" gradientUnits="userSpaceOnUse">
<stop stop-color="#808080" stop-opacity="0.25"/>
<stop offset="0.54" stop-color="#808080" stop-opacity="0.12"/>
<stop offset="1" stop-color="#808080" stop-opacity="0.1"/>
</linearGradient>
<linearGradient id="paint4_linear" x1="5349.13" y1="4222.63" x2="5349.13" y2="3635.04" gradientUnits="userSpaceOnUse">
<stop stop-color="#808080" stop-opacity="0.25"/>
<stop offset="0.54" stop-color="#808080" stop-opacity="0.12"/>
<stop offset="1" stop-color="#808080" stop-opacity="0.1"/>
</linearGradient>
<linearGradient id="paint5_linear" x1="10472.6" y1="6342.47" x2="10472.6" y2="5754.88" gradientUnits="userSpaceOnUse">
<stop stop-color="#808080" stop-opacity="0.25"/>
<stop offset="0.54" stop-color="#808080" stop-opacity="0.12"/>
<stop offset="1" stop-color="#808080" stop-opacity="0.1"/>
</linearGradient>
<linearGradient id="paint6_linear" x1="11598.6" y1="3369.66" x2="11598.6" y2="2782.07" gradientUnits="userSpaceOnUse">
<stop stop-color="#808080" stop-opacity="0.25"/>
<stop offset="0.54" stop-color="#808080" stop-opacity="0.12"/>
<stop offset="1" stop-color="#808080" stop-opacity="0.1"/>
</linearGradient>
<linearGradient id="paint7_linear" x1="11529.1" y1="5279.79" x2="11529.1" y2="4692.2" gradientUnits="userSpaceOnUse">
<stop stop-color="#808080" stop-opacity="0.25"/>
<stop offset="0.54" stop-color="#808080" stop-opacity="0.12"/>
<stop offset="1" stop-color="#808080" stop-opacity="0.1"/>
</linearGradient>
<linearGradient id="paint8_linear" x1="12015.6" y1="5414.31" x2="12015.6" y2="4826.72" gradientUnits="userSpaceOnUse">
<stop stop-color="#808080" stop-opacity="0.25"/>
<stop offset="0.54" stop-color="#808080" stop-opacity="0.12"/>
<stop offset="1" stop-color="#808080" stop-opacity="0.1"/>
</linearGradient>
<linearGradient id="paint9_linear" x1="9964.3" y1="6132.76" x2="9964.3" y2="5545.16" gradientUnits="userSpaceOnUse">
<stop stop-color="#808080" stop-opacity="0.25"/>
<stop offset="0.54" stop-color="#808080" stop-opacity="0.12"/>
<stop offset="1" stop-color="#808080" stop-opacity="0.1"/>
</linearGradient>
<linearGradient id="paint10_linear" x1="10033.8" y1="4316.79" x2="10033.8" y2="3729.2" gradientUnits="userSpaceOnUse">
<stop stop-color="#808080" stop-opacity="0.25"/>
<stop offset="0.54" stop-color="#808080" stop-opacity="0.12"/>
<stop offset="1" stop-color="#808080" stop-opacity="0.1"/>
</linearGradient>
<linearGradient id="paint11_linear" x1="8053.66" y1="76316.6" x2="22671" y2="76316.6" gradientUnits="userSpaceOnUse">
<stop stop-color="#808080" stop-opacity="0.25"/>
<stop offset="0.54" stop-color="#808080" stop-opacity="0.12"/>
<stop offset="1" stop-color="#808080" stop-opacity="0.1"/>
</linearGradient>
<linearGradient id="paint12_linear" x1="3855.75" y1="5279.79" x2="3855.75" y2="4692.2" gradientUnits="userSpaceOnUse">
<stop stop-color="#808080" stop-opacity="0.25"/>
<stop offset="0.54" stop-color="#808080" stop-opacity="0.12"/>
<stop offset="1" stop-color="#808080" stop-opacity="0.1"/>
</linearGradient>
<clipPath id="clip0">
<rect width="334" height="226" fill="white"/>
</clipPath>
</defs>
</svg>
