<svg width="142" height="94" viewBox="0 0 142 94" fill="none" xmlns="http://www.w3.org/2000/svg">
<g clip-path="url(#clip0_3983:15853)">
<path d="M138.155 92.7999L138.366 92.7958C138.284 90.4544 138.035 88.1219 137.618 85.8164C136.708 80.8803 135.194 77.6386 133.118 76.1812L132.997 76.3535C137.846 79.7579 138.153 92.6698 138.155 92.7999Z" fill="#F1F1F1"/>
<path d="M135.524 92.75L135.734 92.7459C135.73 92.5127 135.598 87.0167 133.434 85.4976L133.313 85.6699C135.39 87.1277 135.523 92.694 135.524 92.75Z" fill="#F1F1F1"/>
<path d="M131.799 76.3724C132.38 76.3724 132.852 75.901 132.852 75.3195C132.852 74.738 132.38 74.2666 131.799 74.2666C131.217 74.2666 130.746 74.738 130.746 75.3195C130.746 75.901 131.217 76.3724 131.799 76.3724Z" fill="#F1F1F1"/>
<path d="M132.32 85.4271C132.902 85.4271 133.373 84.9557 133.373 84.3742C133.373 83.7927 132.902 83.3213 132.32 83.3213C131.739 83.3213 131.268 83.7927 131.268 84.3742C131.268 84.9557 131.739 85.4271 132.32 85.4271Z" fill="#F1F1F1"/>
<path d="M136.015 77.003C135.909 77.8151 136.019 78.6408 136.332 79.3973C136.88 78.7847 137.24 78.0267 137.367 77.2147C137.494 76.4026 137.384 75.5711 137.049 74.8203C136.519 75.4447 136.162 76.1974 136.015 77.003Z" fill="#F1F1F1"/>
<path d="M132.573 80.0727C133.354 80.3181 134.186 80.354 134.986 80.1768C134.478 79.5304 133.794 79.0446 133.017 78.7779C132.239 78.5113 131.401 78.4751 130.604 78.6737C131.126 79.3044 131.805 79.7868 132.573 80.0727Z" fill="#F1F1F1"/>
<path d="M132.533 88.0916C133.081 88.2636 133.664 88.2888 134.225 88.1646C133.869 87.7115 133.39 87.371 132.845 87.1841C132.3 86.9971 131.712 86.9718 131.153 87.111C131.52 87.5531 131.995 87.8912 132.533 88.0916Z" fill="#F1F1F1"/>
<path d="M48.4844 92.7997L48.1787 92.7938C48.2969 89.3954 48.6595 86.0098 49.2637 82.6635C50.5854 75.4989 52.7832 70.7936 55.7959 68.6782L55.9714 68.9283C48.9336 73.8698 48.4879 92.611 48.4844 92.7997Z" fill="#F1F1F1"/>
<path d="M52.3047 92.7264L51.999 92.7204C52.0056 92.3819 52.1966 84.4046 55.3371 82.1997L55.5126 82.4498C52.4988 84.5658 52.3062 92.6451 52.3047 92.7264Z" fill="#F1F1F1"/>
<path d="M57.7099 68.9554C58.5539 68.9554 59.2381 68.2712 59.2381 67.4272C59.2381 66.5831 58.5539 65.8989 57.7099 65.8989C56.8659 65.8989 56.1816 66.5831 56.1816 67.4272C56.1816 68.2712 56.8659 68.9554 57.7099 68.9554Z" fill="#F1F1F1"/>
<path d="M56.953 82.0985C57.7971 82.0985 58.4813 81.4143 58.4813 80.5702C58.4813 79.7262 57.7971 79.042 56.953 79.042C56.109 79.042 55.4248 79.7262 55.4248 80.5702C55.4248 81.4143 56.109 82.0985 56.953 82.0985Z" fill="#F1F1F1"/>
<path d="M51.592 69.8721C51.7451 71.051 51.586 72.2494 51.1306 73.3475C50.3351 72.4583 49.8137 71.3581 49.6291 70.1794C49.4446 69.0007 49.6048 67.7938 50.0905 66.7041C50.8597 67.6104 51.3775 68.7029 51.592 69.8721Z" fill="#F1F1F1"/>
<path d="M56.5875 74.3272C55.4534 74.6834 54.2456 74.7356 53.085 74.4784C53.8219 73.5402 54.8144 72.835 55.9429 72.448C57.0714 72.0609 58.2878 72.0083 59.4455 72.2967C58.687 73.2121 57.7015 73.9123 56.5875 74.3272Z" fill="#F1F1F1"/>
<path d="M56.6435 85.9663C55.8485 86.216 55.002 86.2526 54.1885 86.0723C54.705 85.4147 55.4007 84.9205 56.1917 84.6491C56.9827 84.3778 57.8352 84.341 58.6467 84.5431C58.1151 85.1847 57.4243 85.6755 56.6435 85.9663Z" fill="#F1F1F1"/>
<path d="M24.8721 27.7179L24.1367 23.2193L22.0605 22.7002C22.0605 22.7002 20.4126 22.1926 20.0274 25.5119C19.6423 28.8311 19.9409 35.0283 19.9409 35.0283L15.3823 49.4639C15.0323 49.6303 14.7376 49.894 14.5335 50.2234C14.3295 50.5529 14.2247 50.9342 14.2318 51.3217C14.2388 51.7092 14.3574 52.0865 14.5733 52.4083C14.7892 52.7301 15.0933 52.9829 15.4492 53.1364C15.805 53.2899 16.1976 53.3376 16.5798 53.2738C16.9621 53.2099 17.3179 53.0373 17.6045 52.7765C17.8912 52.5157 18.0967 52.1778 18.1963 51.8033C18.2959 51.4288 18.2855 51.0335 18.1662 50.6647L24.0935 37.1046L24.8721 27.7179Z" fill="#FFB7B7"/>
<path d="M37.4982 24.1774L36.4082 19.7513L38.1139 18.4586C38.1139 18.4586 39.4302 17.3448 41.0876 20.2462C42.7451 23.1477 44.9038 28.9644 44.9038 28.9644L54.7642 40.4509C55.1515 40.4665 55.526 40.5933 55.843 40.8162C56.1601 41.0391 56.4061 41.3487 56.5518 41.7078C56.6974 42.067 56.7365 42.4605 56.6643 42.8412C56.5921 43.222 56.4117 43.5739 56.1447 43.8548C55.8777 44.1357 55.5354 44.3337 55.1587 44.4251C54.7821 44.5164 54.3871 44.4973 54.0211 44.3701C53.655 44.2428 53.3334 44.0127 53.0947 43.7073C52.8561 43.402 52.7104 43.0343 52.6753 42.6484L41.8999 32.5045L37.4982 24.1774Z" fill="#FFB7B7"/>
<path d="M46.0191 90.4428L48.4917 90.4426L49.6681 80.9053L46.0186 80.9054L46.0191 90.4428Z" fill="#FFB7B7"/>
<path d="M45.3887 89.634L50.2582 89.6338H50.2584C51.0815 89.6338 51.8707 89.9608 52.4527 90.5427C53.0347 91.1247 53.3617 91.914 53.3617 92.737V92.8379L45.3888 92.8382L45.3887 89.634Z" fill="#2F2E41"/>
<path d="M14.9595 90.4428L17.4321 90.4426L18.6085 80.9053L14.959 80.9054L14.9595 90.4428Z" fill="#FFB7B7"/>
<path d="M14.3281 89.634L19.1977 89.6338H19.1979C20.0209 89.6338 20.8102 89.9608 21.3922 90.5427C21.9741 91.1247 22.3011 91.914 22.3012 92.737V92.8379L14.3283 92.8382L14.3281 89.634Z" fill="#2F2E41"/>
<path d="M30.1242 15.7016C33.8177 15.7016 36.8119 12.7074 36.8119 9.01388C36.8119 5.32036 33.8177 2.32617 30.1242 2.32617C26.4307 2.32617 23.4365 5.32036 23.4365 9.01388C23.4365 12.7074 26.4307 15.7016 30.1242 15.7016Z" fill="#2F2E41"/>
<path d="M24.9037 5.40711C25.9844 4.3264 26.2034 2.79325 25.3929 1.98271C24.5824 1.17218 23.0492 1.3912 21.9685 2.47191C20.8878 3.55262 20.6688 5.08578 21.4793 5.89631C22.2898 6.70684 23.823 6.48782 24.9037 5.40711Z" fill="#2F2E41"/>
<path d="M37.0945 3.28357C37.5448 2.22945 36.7704 0.888212 35.3649 0.287836C33.9594 -0.312541 32.455 0.0552916 32.0048 1.10941C31.5545 2.16353 32.3288 3.50477 33.7343 4.10515C35.1398 4.70552 36.6442 4.33769 37.0945 3.28357Z" fill="#2F2E41"/>
<path d="M35.3167 13.3323C36.8203 10.5818 35.8094 7.1332 33.0589 5.62963C30.3084 4.12606 26.8598 5.13691 25.3562 7.88743C23.8527 10.6379 24.8635 14.0866 27.614 15.5901C30.3646 17.0937 33.8132 16.0828 35.3167 13.3323Z" fill="#FFB7B7"/>
<path d="M24.3721 7.03985C25.6691 7.93379 27.2085 8.40954 28.7837 8.40325C28.2218 8.79285 27.5821 9.05602 26.9088 9.17462C29.0031 9.62387 31.1677 9.63603 33.2669 9.21035C33.7336 9.13552 34.1838 8.98088 34.598 8.7532C34.8043 8.63795 34.9841 8.48055 35.1257 8.29125C35.2672 8.10195 35.3674 7.88497 35.4195 7.65443C35.559 6.85752 34.9381 6.1335 34.2927 5.64556C33.3047 4.90988 32.1655 4.40301 30.9575 4.16162C29.7496 3.92024 28.5031 3.95038 27.3082 4.24985C26.528 4.45153 25.7464 4.79228 25.2396 5.41886C24.7328 6.04544 24.5827 7.01141 25.0655 7.65662L24.3721 7.03985Z" fill="#2F2E41"/>
<path d="M27.4917 17.9908L21.874 22.5787L26.7825 34.2823L26.8761 36.1549C26.8761 36.1549 21.7806 40.8529 18.6279 53.9768C15.4751 67.1007 9.10742 84.5391 9.10742 84.5391L21.8463 87.6555L30.7033 57.9679L41.994 81.2587L43.6002 88.1476L53.4474 85.4139L49.647 66.927L40.3258 38.2309L41.0913 30.3033C41.0913 30.3033 42.797 26.3463 39.8338 22.157L38.9043 18.2205L34.0931 17.4004L27.4917 17.9908Z" fill="#2F2E41"/>
<path d="M121.957 59.6421H82.955C82.6436 59.6417 82.345 59.5179 82.1247 59.2976C81.9045 59.0774 81.7806 58.7788 81.7803 58.4673V45.31C81.7806 44.9986 81.9045 44.7 82.1247 44.4797C82.345 44.2595 82.6436 44.1356 82.955 44.1353H121.957C122.269 44.1356 122.567 44.2595 122.787 44.4797C123.008 44.7 123.132 44.9986 123.132 45.31V58.4673C123.132 58.7788 123.008 59.0774 122.787 59.2976C122.567 59.5179 122.269 59.6417 121.957 59.6421Z" fill="#E5E5E5"/>
<path d="M98.2276 47.6582H87.8896V48.833H98.2276V47.6582Z" fill="white"/>
<path d="M111.854 49.0679C112.244 49.0679 112.559 48.7523 112.559 48.3631C112.559 47.9738 112.244 47.6582 111.854 47.6582C111.465 47.6582 111.149 47.9738 111.149 48.3631C111.149 48.7523 111.465 49.0679 111.854 49.0679Z" fill="#005FD5"/>
<path d="M114.204 49.0679C114.593 49.0679 114.909 48.7523 114.909 48.3631C114.909 47.9738 114.593 47.6582 114.204 47.6582C113.815 47.6582 113.499 47.9738 113.499 48.3631C113.499 48.7523 113.815 49.0679 114.204 49.0679Z" fill="#005FD5"/>
<path d="M116.553 49.0679C116.943 49.0679 117.258 48.7523 117.258 48.3631C117.258 47.9738 116.943 47.6582 116.553 47.6582C116.164 47.6582 115.849 47.9738 115.849 48.3631C115.849 48.7523 116.164 49.0679 116.553 49.0679Z" fill="#005FD5"/>
<path d="M121.957 76.3238H82.955C82.6436 76.3234 82.345 76.1995 82.1247 75.9793C81.9045 75.7591 81.7806 75.4605 81.7803 75.149V61.9917C81.7806 61.6802 81.9045 61.3816 82.1247 61.1614C82.345 60.9411 82.6436 60.8173 82.955 60.8169H121.957C122.269 60.8173 122.567 60.9411 122.787 61.1614C123.008 61.3816 123.132 61.6802 123.132 61.9917V75.149C123.132 75.4605 123.008 75.7591 122.787 75.9793C122.567 76.1995 122.269 76.3234 121.957 76.3238Z" fill="#E5E5E5"/>
<path d="M98.2276 64.3403H87.8896V65.5151H98.2276V64.3403Z" fill="white"/>
<path d="M111.854 65.75C112.244 65.75 112.559 65.4345 112.559 65.0452C112.559 64.6559 112.244 64.3403 111.854 64.3403C111.465 64.3403 111.149 64.6559 111.149 65.0452C111.149 65.4345 111.465 65.75 111.854 65.75Z" fill="#005FD5"/>
<path d="M114.204 65.75C114.593 65.75 114.909 65.4345 114.909 65.0452C114.909 64.6559 114.593 64.3403 114.204 64.3403C113.815 64.3403 113.499 64.6559 113.499 65.0452C113.499 65.4345 113.815 65.75 114.204 65.75Z" fill="#005FD5"/>
<path d="M116.553 65.75C116.943 65.75 117.258 65.4345 117.258 65.0452C117.258 64.6559 116.943 64.3403 116.553 64.3403C116.164 64.3403 115.849 64.6559 115.849 65.0452C115.849 65.4345 116.164 65.75 116.553 65.75Z" fill="#005FD5"/>
<path d="M121.957 93.0039H82.955C82.6436 93.0036 82.345 92.8797 82.1247 92.6595C81.9045 92.4392 81.7806 92.1406 81.7803 91.8292V78.6718C81.7806 78.3604 81.9045 78.0618 82.1247 77.8415C82.345 77.6213 82.6436 77.4974 82.955 77.4971H121.957C122.269 77.4974 122.567 77.6213 122.787 77.8415C123.008 78.0618 123.132 78.3604 123.132 78.6718V91.8292C123.132 92.1406 123.008 92.4392 122.787 92.6595C122.567 92.8797 122.269 93.0036 121.957 93.0039Z" fill="#E5E5E5"/>
<path d="M98.2276 81.022H87.8896V82.1967H98.2276V81.022Z" fill="white"/>
<path d="M111.854 82.4317C112.244 82.4317 112.559 82.1161 112.559 81.7268C112.559 81.3375 112.244 81.022 111.854 81.022C111.465 81.022 111.149 81.3375 111.149 81.7268C111.149 82.1161 111.465 82.4317 111.854 82.4317Z" fill="#005FD5"/>
<path d="M114.204 82.4317C114.593 82.4317 114.909 82.1161 114.909 81.7268C114.909 81.3375 114.593 81.022 114.204 81.022C113.815 81.022 113.499 81.3375 113.499 81.7268C113.499 82.1161 113.815 82.4317 114.204 82.4317Z" fill="#005FD5"/>
<path d="M116.553 82.4317C116.943 82.4317 117.258 82.1161 117.258 81.7268C117.258 81.3375 116.943 81.022 116.553 81.022C116.164 81.022 115.849 81.3375 115.849 81.7268C115.849 82.1161 116.164 82.4317 116.553 82.4317Z" fill="#005FD5"/>
<path d="M75.1555 64.6342C74.4126 64.6317 73.673 64.536 72.954 64.3494L72.8123 64.3102L72.6808 64.2443C67.9278 61.8613 63.9181 58.7136 60.7627 54.8887C58.1508 51.7039 56.1144 48.088 54.7452 44.2034C53.1078 39.5525 52.32 34.6452 52.4195 29.7156C52.4215 29.6121 52.4232 29.5322 52.4232 29.4771C52.4232 27.0808 53.7534 24.9782 55.8119 24.1205C57.3874 23.464 71.6923 17.5884 72.7259 17.1639C74.6724 16.1886 76.7489 17.0026 77.0812 17.145C77.8266 17.4497 91.0506 22.8585 93.9083 24.2193C96.8534 25.6217 97.6392 28.1412 97.6392 29.4087C97.6392 35.1474 96.6453 40.5107 94.6852 45.3496C93.1021 49.2663 90.8585 52.8822 88.0519 56.0398C82.637 62.1335 77.2206 64.2937 77.1684 64.3128C76.521 64.5355 75.84 64.6442 75.1555 64.6342ZM73.8817 61.479C74.3513 61.5843 75.4324 61.7422 76.1371 61.4852C77.0323 61.1587 81.5657 58.8079 85.802 54.0405C91.6551 47.4537 94.625 39.1735 94.6294 29.4299C94.6189 29.2325 94.4787 27.8246 92.6143 26.9368C89.812 25.6024 76.0668 19.9819 75.9282 19.9253L75.8903 19.9092C75.6022 19.7885 74.6855 19.5342 74.0536 19.8654L73.927 19.9244C73.7738 19.9873 58.589 26.224 56.9696 26.8988C55.8367 27.3708 55.4331 28.5402 55.4331 29.4771C55.4331 29.5456 55.4313 29.6452 55.4288 29.7739C55.2994 36.4409 56.8421 52.8461 73.8817 61.479Z" fill="#3F3D56"/>
<path d="M73.3552 18.5332C73.3552 18.5332 58.0324 24.8265 56.3906 25.5105C54.7489 26.1946 53.928 27.8363 53.928 29.478C53.928 31.1198 52.6967 52.5422 73.3552 62.8998C73.3552 62.8998 75.2301 63.4186 76.6526 62.8998C78.0752 62.3811 96.1342 53.6252 96.1342 29.4096C96.1342 29.4096 96.1342 26.947 93.2612 25.5789C90.3881 24.2108 76.4975 18.5332 76.4975 18.5332C76.4975 18.5332 74.7917 17.7807 73.3552 18.5332Z" fill="#005FD5"/>
<path opacity="0.2" d="M74.9971 23.4575V57.0301C74.9971 57.0301 90.4567 49.5884 90.3199 30.0245L74.9971 23.4575Z" fill="black"/>
<path d="M141.828 93.005H0.171913C0.126319 93.005 0.0825919 92.9868 0.050352 92.9546C0.0181121 92.9224 0 92.8786 0 92.833C0 92.7875 0.0181121 92.7437 0.050352 92.7115C0.0825919 92.6792 0.126319 92.6611 0.171913 92.6611H141.828C141.874 92.6611 141.917 92.6792 141.95 92.7115C141.982 92.7437 142 92.7875 142 92.833C142 92.8786 141.982 92.9224 141.95 92.9546C141.917 92.9868 141.874 93.005 141.828 93.005Z" fill="#CBCBCB"/>
</g>
<defs>
<clipPath id="clip0_3983:15853">
<rect width="142" height="93.0048" fill="white"/>
</clipPath>
</defs>
</svg>
