<svg width="433" height="268" viewBox="0 0 433 268" fill="none" xmlns="http://www.w3.org/2000/svg">
<path opacity="0.1" d="M282.648 51.9974H42.2981V77.766H282.648V51.9974Z" fill="#005FD5"/>
<path opacity="0.36" d="M170.108 52.4412H139.048V77.9242H170.108V52.4412Z" fill="#005FD5"/>
<path opacity="0.17" d="M170.108 75.4463H139.048V77.766H170.108V75.4463Z" fill="#005FD5"/>
<path opacity="0.36" d="M208.502 52.4412H177.442V77.9242H208.502V52.4412Z" fill="#005FD5"/>
<path opacity="0.17" d="M208.502 75.4463H177.442V77.766H208.502V75.4463Z" fill="#005FD5"/>
<path opacity="0.17" d="M131.713 88.5663H100.654V114.049H131.713V88.5663Z" fill="#005FD5"/>
<path opacity="0.17" d="M131.713 111.73H100.654V114.049H131.713V111.73Z" fill="#005FD5"/>
<path opacity="0.17" d="M170.108 88.5663H139.048V114.049H170.108V88.5663Z" fill="#005FD5"/>
<path opacity="0.17" d="M170.108 111.73H139.048V114.049H170.108V111.73Z" fill="#005FD5"/>
<path opacity="0.17" d="M208.502 88.5663H177.442V114.049H208.502V88.5663Z" fill="#005FD5"/>
<path opacity="0.17" d="M208.502 111.73H177.442V114.049H208.502V111.73Z" fill="#005FD5"/>
<path opacity="0.17" d="M246.895 88.5663H215.835V114.049H246.895V88.5663Z" fill="#005FD5"/>
<path opacity="0.17" d="M246.895 111.73H215.835V114.049H246.895V111.73Z" fill="#005FD5"/>
<path d="M34.8801 266.947L30.5791 266.268L71.9158 194.063L75.5515 196.145L34.8801 266.947Z" fill="#90D7D0"/>
<path d="M46.1982 266.947L41.8972 266.268L83.2345 194.063L86.8702 196.145L46.1982 266.947Z" fill="#90D7D0"/>
<path d="M254.661 52.5921C254.33 52.5921 254.062 52.3244 254.062 51.9936V5.99827C254.062 3.35101 251.908 1.19708 249.261 1.19708H57.6623C55.0151 1.19708 52.8611 3.35101 52.8611 5.99827V51.9936C52.8611 52.3244 52.5934 52.5921 52.2626 52.5921C51.9318 52.5921 51.6641 52.3244 51.6641 51.9936V5.99827C51.6641 2.6911 54.3552 0 57.6623 0H249.261C252.568 0 255.259 2.6911 255.259 5.99827V51.9936C255.259 52.3244 254.991 52.5921 254.661 52.5921Z" fill="#005FD5"/>
<path d="M249.261 166.412H57.6623C54.3552 166.412 51.6641 163.721 51.6641 160.414V77.7646C51.6641 77.4338 51.9318 77.1661 52.2626 77.1661C52.5934 77.1661 52.8611 77.4338 52.8611 77.7646V160.414C52.8611 163.061 55.0151 165.215 57.6623 165.215H249.261C251.908 165.215 254.062 163.061 254.062 160.414V77.7716C254.062 77.4408 254.33 77.1731 254.661 77.1731C254.991 77.1731 255.259 77.4408 255.259 77.7716V160.414C255.259 163.721 252.568 166.412 249.261 166.412Z" fill="#005FD5"/>
<path opacity="0.23" d="M254.661 78.3703C254.33 78.3703 254.062 78.1026 254.062 77.7718V51.9959C254.062 51.6651 254.33 51.3974 254.661 51.3974C254.992 51.3974 255.259 51.6651 255.259 51.9959V77.7718C255.259 78.1026 254.992 78.3703 254.661 78.3703Z" fill="#005FD5"/>
<path d="M431.924 267.426H0.717782C0.321482 267.426 0 267.105 0 266.709C0 266.312 0.321482 265.991 0.717782 265.991H431.924C432.321 265.991 432.642 266.312 432.642 266.709C432.642 267.105 432.321 267.426 431.924 267.426Z" fill="#005FD5"/>
<path d="M321.42 261.563C320.52 261.563 319.734 260.899 319.606 259.982L317.103 242.061C316.963 241.058 317.662 240.132 318.666 239.991C319.665 239.85 320.595 240.55 320.735 241.554L323.238 259.475C323.378 260.478 322.679 261.404 321.676 261.545C321.59 261.557 321.504 261.563 321.42 261.563Z" fill="#EFDAC3"/>
<path d="M323.842 255.48C323.842 255.48 320.354 256.721 318.23 255.123C318.23 255.123 305.652 259.551 302.679 260.259C301.164 260.619 300.255 261.236 299.727 261.867C299.183 262.517 299.681 263.51 300.528 263.51H325.138C325.138 263.51 327.827 259.465 323.842 255.48Z" fill="#E4EDF8"/>
<path d="M324.487 266.04H300.447C299.579 266.04 298.875 265.336 298.875 264.468C298.875 263.6 299.579 262.896 300.447 262.896H324.487C325.355 262.896 326.059 263.6 326.059 264.468C326.059 265.336 325.355 266.04 324.487 266.04Z" fill="#90D7D0"/>
<path d="M300.926 261.066C299.898 261.066 299.001 260.308 298.854 259.261L295.995 238.787C295.835 237.641 296.634 236.583 297.78 236.423C298.924 236.268 299.985 237.061 300.145 238.208L303.004 258.681C303.164 259.827 302.365 260.886 301.219 261.046C301.121 261.059 301.023 261.066 300.926 261.066Z" fill="#EFDAC3"/>
<path d="M303.694 254.12C303.694 254.12 299.709 255.537 297.283 253.712C297.283 253.712 282.914 258.77 279.517 259.579C277.786 259.991 276.748 260.696 276.145 261.416C275.524 262.158 276.092 263.293 277.06 263.293H305.175C305.175 263.293 308.246 258.672 303.694 254.12Z" fill="#90D7D0"/>
<path d="M290.699 261.443C290.392 261.443 290.086 261.326 289.852 261.092L285.272 256.511C284.804 256.044 284.804 255.286 285.272 254.819C285.74 254.351 286.497 254.351 286.965 254.819L291.545 259.4C292.013 259.867 292.013 260.625 291.545 261.092C291.311 261.326 291.005 261.443 290.699 261.443Z" fill="#E4EDF8"/>
<path d="M295.134 259.155C294.828 259.155 294.522 259.038 294.288 258.804L289.707 254.224C289.239 253.756 289.239 252.998 289.707 252.531C290.175 252.063 290.932 252.063 291.4 252.531L295.98 257.112C296.448 257.579 296.448 258.337 295.98 258.804C295.747 259.038 295.44 259.155 295.134 259.155Z" fill="#E4EDF8"/>
<path d="M293.053 55.6394C293.053 55.6394 288.731 57.0803 289.348 58.3154C289.966 59.5505 292.436 62.05 292.436 62.05L293.053 55.6394Z" fill="#EFDAC3"/>
<path d="M280.888 143.273C280.888 143.273 275.665 147.245 268.358 145.606C261.05 143.967 260.938 143.643 259.801 141.539C258.665 139.436 258.359 135.216 258.896 134.086C259.433 132.956 268.286 135.528 268.099 134.417C267.911 133.305 262.598 132.831 263.263 130.982C263.928 129.132 277.465 132.692 279.764 134.105C282.062 135.519 280.888 143.273 280.888 143.273Z" fill="#EFDAC3"/>
<path d="M308.128 70.356H299.87V85.7035H308.128V70.356Z" fill="#EFDAC3"/>
<path d="M314.964 61.4721C314.964 68.0462 309.634 73.3755 303.06 73.3755C296.486 73.3755 291.157 68.0462 291.157 61.4721C291.157 59.2117 293.467 44.9253 297.78 44.9253C304.354 44.9253 314.964 54.8981 314.964 61.4721Z" fill="#EFDAC3"/>
<path d="M289.867 152.33C286.795 152.33 284.777 152.03 284.197 151.932L288.307 127.739C288.307 127.739 288.235 127.723 288.096 127.705C288.117 127.707 288.165 127.713 288.238 127.721C289.506 127.854 298.367 128.479 308.808 121.553C315.543 117.086 316.619 106.636 313.767 99.1138C311.366 92.7771 314.555 85.6934 320.892 83.2916C327.229 80.8887 334.312 84.0795 336.714 90.4162C339.908 98.8431 340.624 108.371 338.731 117.245C336.501 127.694 330.691 136.486 322.372 142.004C309.105 150.804 296.801 152.33 289.867 152.33Z" fill="#DDDDDD"/>
<path d="M284.197 151.932L288.307 127.739C288.307 127.739 288.235 127.723 288.096 127.705C288.117 127.707 288.165 127.713 288.238 127.721C285.698 127.096 280.53 127.767 279.643 135.384C278.523 144.993 280.298 151.567 284.197 151.932Z" fill="#DDDDDD"/>
<path d="M315.284 166.398H293.867L290.553 131.781H332.793V151.103C332.793 159.55 324.954 166.398 315.284 166.398Z" fill="#90D7D0"/>
<path d="M295.798 248.631L285.393 199.307L285.25 198.628L285.497 196.781C285.949 193.414 286.474 190.062 286.995 186.709C287.534 183.359 288.08 180.011 288.658 176.669C289.216 173.324 289.834 169.99 290.423 166.651L292.279 156.651L292.094 158.503C292.094 157.91 292.082 157.316 292.092 156.723C292.122 156.13 292.122 155.537 292.184 154.944C292.224 154.351 292.298 153.758 292.379 153.165C292.478 152.572 292.573 151.979 292.743 151.385H310.101C310.271 151.979 310.365 152.572 310.465 153.165C310.545 153.758 310.62 154.351 310.66 154.944C310.722 155.537 310.722 156.13 310.752 156.723C310.762 157.316 310.75 157.91 310.75 158.503V159.509L310.564 160.355L308.383 170.289C307.625 173.594 306.897 176.905 306.109 180.204C305.341 183.508 304.541 186.804 303.734 190.099C302.909 193.391 302.088 196.683 301.193 199.961L301.298 197.435L302.633 247.826L295.798 248.631Z" fill="#90D7D0"/>
<path d="M316.248 252.001C315.804 248.114 315.428 244.227 315.03 240.339L313.94 228.675L312.955 217.009C312.636 213.121 312.288 209.232 312.019 205.343L312.019 205.335L312.033 204.757L312.748 177.239L313.084 163.522L313.223 156.727L313.247 153.416C313.248 152.883 313.247 152.35 313.236 151.88C313.231 151.647 313.224 151.417 313.214 151.267C313.21 151.16 313.203 151.169 313.201 151.124C313.201 151.16 313.203 151.212 313.208 151.255L313.239 151.528C313.257 151.655 313.279 151.781 313.306 151.905L330.315 148.443C330.352 148.639 330.384 148.835 330.412 149.033C330.44 149.221 330.468 149.471 330.47 149.52L330.511 150.081C330.52 150.322 330.532 150.618 330.532 150.798C330.538 151.222 330.533 151.566 330.527 151.908C330.515 152.587 330.492 153.202 330.467 153.817C330.414 155.039 330.34 156.22 330.266 157.395L329.772 164.369C329.413 168.99 328.987 173.584 328.574 178.177L327.937 185.061L327.238 191.937L325.805 205.684L325.819 205.098C325.689 208.995 325.478 212.893 325.297 216.791L324.726 228.484L324.049 240.18C323.789 244.079 323.55 247.977 323.244 251.877L316.248 252.001Z" fill="#90D7D0"/>
<path d="M335.607 152.964L335.116 152.924C335.254 151.22 335.384 148.333 335.141 147.844C334.735 147.513 330.289 147.637 326.151 147.962V150.176H325.658V147.508L325.885 147.489C329.343 147.211 335.201 146.858 335.582 147.626C335.957 148.381 335.668 152.205 335.607 152.964Z" fill="#666666"/>
<path d="M303.597 152.977C303.505 152.21 303.075 148.343 303.653 147.555C304.203 146.803 312.8 147.156 317.876 147.433L318.159 147.449V150.174H317.56V148.015C311.436 147.688 304.713 147.553 304.105 147.941C303.843 148.308 303.935 150.763 304.191 152.906L303.597 152.977Z" fill="#666666"/>
<path d="M318.241 247.004C318.087 247.004 317.956 246.886 317.943 246.73L314.486 205.252L316.08 168.387C316.087 168.222 316.223 168.093 316.392 168.101C316.558 168.109 316.686 168.248 316.679 168.413L315.084 205.239L318.539 246.68C318.553 246.845 318.431 246.99 318.266 247.003C318.258 247.004 318.249 247.004 318.241 247.004Z" fill="#666666"/>
<path d="M299.156 245.025C299.018 245.025 298.894 244.929 298.863 244.789L289.087 199.425L297.091 160.971L297.213 153.856C295.946 153.55 295.013 152.906 294.436 151.941C293.454 150.298 293.495 147.799 294.56 144.302C294.608 144.144 294.773 144.054 294.934 144.102C295.092 144.151 295.181 144.318 295.133 144.476C294.134 147.756 294.072 150.164 294.949 151.634C295.48 152.522 296.339 153.075 297.576 153.323L297.821 153.372L297.683 161.037L289.699 199.423L299.449 244.663C299.484 244.824 299.381 244.983 299.219 245.018C299.198 245.023 299.177 245.025 299.156 245.025Z" fill="#666666"/>
<path d="M147.17 170.944C146.839 170.944 146.572 170.676 146.572 170.345V161.278C146.572 160.947 146.839 160.68 147.17 160.68C147.501 160.68 147.769 160.947 147.769 161.278V170.345C147.769 170.676 147.501 170.944 147.17 170.944Z" fill="#005FD5"/>
<path d="M153.462 168.746C153.131 168.746 152.863 168.479 152.863 168.148V161.28C152.863 160.95 153.131 160.682 153.462 160.682C153.792 160.682 154.06 160.95 154.06 161.28V168.148C154.06 168.479 153.792 168.746 153.462 168.746Z" fill="#005FD5"/>
<path d="M159.754 170.946C159.423 170.946 159.155 170.678 159.155 170.347V161.28C159.155 160.95 159.423 160.682 159.754 160.682C160.084 160.682 160.352 160.95 160.352 161.28V170.347C160.352 170.678 160.084 170.946 159.754 170.946Z" fill="#005FD5"/>
<path d="M255.963 212.686C255.632 212.686 255.364 212.418 255.364 212.087V203.02C255.364 202.689 255.632 202.422 255.963 202.422C256.293 202.422 256.561 202.689 256.561 203.02V212.087C256.561 212.418 256.293 212.686 255.963 212.686Z" fill="#005FD5"/>
<path d="M262.254 210.486C261.923 210.486 261.656 210.218 261.656 209.887V203.02C261.656 202.689 261.923 202.422 262.254 202.422C262.585 202.422 262.853 202.689 262.853 203.02V209.887C262.853 210.218 262.585 210.486 262.254 210.486Z" fill="#005FD5"/>
<path d="M268.546 212.686C268.215 212.686 267.947 212.418 267.947 212.087V203.02C267.947 202.689 268.215 202.422 268.546 202.422C268.876 202.422 269.144 202.689 269.144 203.02V212.087C269.144 212.418 268.876 212.686 268.546 212.686Z" fill="#005FD5"/>
<path opacity="0.17" d="M231.944 93.1875H219.815V95.5072H231.944V93.1875Z" fill="#005FD5"/>
<path d="M231.776 231.804H116.898C116.568 231.804 116.3 231.536 116.3 231.205C116.3 230.875 116.568 230.607 116.898 230.607H231.776C232.106 230.607 232.374 230.875 232.374 231.205C232.374 231.536 232.106 231.804 231.776 231.804Z" fill="#005FD5"/>
<path opacity="0.36" d="M131.714 52.4412H100.654V77.9242H131.714V52.4412Z" fill="#005FD5"/>
<path opacity="0.27" d="M52.2626 78.3633C51.9318 78.3633 51.6641 78.0956 51.6641 77.7648V51.9959C51.6641 51.6651 51.9318 51.3974 52.2626 51.3974C52.5934 51.3974 52.8611 51.6651 52.8611 51.9959V77.7648C52.8611 78.0956 52.5934 78.3633 52.2626 78.3633Z" fill="#005FD5"/>
<path d="M94.6824 16.317H60.0278V161.862H94.6824V16.317Z" fill="#E4EDF8"/>
<path d="M279.748 26.3231H255.259V30.6794H279.748V26.3231Z" fill="#E4EDF8"/>
<path fill-rule="evenodd" clip-rule="evenodd" d="M321.812 143.657L298.189 142.827C290.389 142.553 284.338 135.92 284.779 128.128L285.398 121.279C277.68 128.247 270.512 130.34 264.686 130.34C260.669 130.34 257.293 129.346 254.81 128.263C234.08 119.221 228.695 98.7953 228.695 96.2407C228.695 89.4294 234.214 83.9049 241.025 83.9049C246.382 83.9049 250.943 87.3225 252.643 92.0988L252.691 92.1348C253.948 95.3131 257.06 102.484 264.59 105.758C264.656 105.788 264.686 105.794 264.686 105.794C267.229 105.74 275.058 97.8569 280.146 87.4901C282.4 82.895 287.148 80.3305 291.959 80.6384L305.946 78.186C320.771 75.5867 334.897 85.498 337.497 100.324C338.044 103.443 338.188 106.62 337.926 109.776L336.2 130.531C335.772 138.092 329.38 143.923 321.812 143.657Z" fill="#E4EDF8"/>
<path d="M283.247 78.3633H41.7V51.3974H283.247V78.3633ZM42.897 77.1662H282.05V52.5945H42.897V77.1662Z" fill="#005FD5"/>
<path d="M312.467 261.892C312.198 261.892 311.93 261.79 311.726 261.585L307.716 257.575C307.307 257.166 307.307 256.502 307.716 256.093C308.125 255.684 308.789 255.684 309.198 256.093L313.208 260.103C313.617 260.512 313.617 261.176 313.208 261.585C313.003 261.79 312.735 261.892 312.467 261.892Z" fill="#005FD5"/>
<path d="M316.349 259.886C316.081 259.886 315.813 259.784 315.608 259.579L311.598 255.57C311.189 255.161 311.189 254.497 311.598 254.088C312.007 253.678 312.67 253.678 313.08 254.088L317.09 258.097C317.499 258.506 317.499 259.169 317.09 259.579C316.886 259.784 316.617 259.886 316.349 259.886Z" fill="#005FD5"/>
<path d="M304.431 266.182H276.968C275.976 266.182 275.172 265.378 275.172 264.386C275.172 263.394 275.976 262.59 276.968 262.59H304.431C305.423 262.59 306.227 263.394 306.227 264.386C306.227 265.378 305.423 266.182 304.431 266.182Z" fill="#005FD5"/>
<path d="M292.227 19.4863H255.229V23.8426H292.227V19.4863Z" fill="#005FD5"/>
<path d="M280.058 126.066C279.902 126.066 279.745 126.005 279.628 125.883C279.398 125.644 279.405 125.266 279.643 125.037C285.248 119.633 295.733 108.567 299.474 101.36C300.594 99.2029 302.526 92.9731 300.975 88.5116C300.291 86.547 299.001 85.1266 297.138 84.289C296.837 84.1534 296.702 83.7992 296.838 83.4976C296.974 83.1972 297.33 83.0627 297.629 83.1972C299.804 84.1751 301.309 85.8304 302.105 88.1182C303.8 92.9918 301.78 99.5156 300.537 101.912C296.724 109.255 286.131 120.445 280.474 125.898C280.358 126.01 280.208 126.066 280.058 126.066Z" fill="#005FD5"/>
<path fill-rule="evenodd" clip-rule="evenodd" d="M58.6994 13.1727H248.225C249.684 13.1727 250.867 11.9897 250.867 10.5304V6.90073C250.867 5.44146 249.684 4.25848 248.225 4.25848H58.6994C57.24 4.25848 56.0571 5.44146 56.0571 6.90073V10.5304C56.0571 11.9897 57.24 13.1727 58.6994 13.1727ZM31.6338 185.323H275.29C277.061 185.323 278.496 183.888 278.496 182.117C278.496 180.346 277.061 178.911 275.29 178.911H31.6338C29.8632 178.911 28.4277 180.346 28.4277 182.117C28.4277 183.888 29.8632 185.323 31.6338 185.323ZM289.393 199.428H45.7367C43.9661 199.428 42.5308 197.992 42.5308 196.222C42.5308 194.451 43.9661 193.016 45.7367 193.016H289.393C291.164 193.016 292.599 194.451 292.599 196.222C292.599 197.992 291.164 199.428 289.393 199.428ZM307.593 41.9811C313.897 41.9811 320.862 47.4843 320.213 54.0748C321.481 56.261 320.179 59.586 319.135 62.2532L319.135 62.2535C318.588 63.6496 318.112 64.8654 318.112 65.6434C318.112 71.0686 315.186 72.1031 309.737 72.1031C304.287 72.1031 298.528 66.4143 298.528 60.9891C298.528 59.4617 298.984 58.118 299.762 56.9757C296.559 55.1931 293.334 52.2307 291.226 48.5037C287.693 42.2596 291.891 37.1918 294.282 37.7089C296.447 38.1771 298.548 39.0645 300.549 39.9097C303.081 40.9792 305.454 41.9811 307.593 41.9811ZM215.836 52.4411H246.896V77.9241H215.836V52.4411Z" fill="#005FD5"/>
<path d="M246.895 75.4463H215.835V77.766H246.895V75.4463Z" fill="black" fill-opacity="0.32"/>
<path d="M229.944 55.8401H217.814V58.1599H229.944V55.8401Z" fill="black" fill-opacity="0.32"/>
<path opacity="0.17" d="M195.091 55.8401H182.961V58.1599H195.091V55.8401Z" fill="#005FD5"/>
<path opacity="0.17" d="M195.091 93.1875H182.961V95.5072H195.091V93.1875Z" fill="#005FD5"/>
<path opacity="0.17" d="M156.697 55.8401H144.567V58.1599H156.697V55.8401Z" fill="#005FD5"/>
<path opacity="0.17" d="M156.697 93.1875H144.567V95.5072H156.697V93.1875Z" fill="#005FD5"/>
<path opacity="0.17" d="M118.303 55.8401H106.173V58.1599H118.303V55.8401Z" fill="#005FD5"/>
<path opacity="0.17" d="M118.303 93.1875H106.173V95.5072H118.303V93.1875Z" fill="#005FD5"/>
<path fill-rule="evenodd" clip-rule="evenodd" d="M224.09 79.727C224.788 85.3099 227.72 89.5738 229.746 91.5954C230.15 89.1377 237.903 85.4041 241.765 84.0967C241.588 78.1295 240.295 68.0908 238.472 68.0908C237.096 68.0908 237.081 70.2094 237.068 72.0954C237.059 73.4265 237.05 74.6418 236.565 74.915C235.989 75.2387 235.185 72.0368 234.339 68.6703C233.459 65.1683 232.534 61.4882 231.776 61.4134C230.952 61.3321 230.597 62.1732 230.12 63.3014C229.735 64.2107 229.272 65.3066 228.421 66.2564C228.216 66.4855 227.992 66.7186 227.757 66.9632C225.808 68.9896 223.1 71.8054 224.09 79.727Z" fill="#EFDAC3"/>
<path d="M300.298 59.7517C300.775 57.5257 299.908 55.4531 298.363 55.1225C296.818 54.7918 295.179 56.3282 294.703 58.5542C294.227 60.7802 295.093 62.8528 296.638 63.1835C298.183 63.5141 299.822 61.9777 300.298 59.7517Z" fill="#EFDAC3"/>
<path d="M297.232 63.6976C296.064 63.6976 295.23 62.6624 295.192 62.6145C295.089 62.4853 295.112 62.2977 295.241 62.1948C295.37 62.0925 295.558 62.1135 295.661 62.2421C295.669 62.2521 296.482 63.251 297.464 63.0791C298.409 62.9172 299.291 61.7318 300.016 59.651C300.071 59.4949 300.244 59.4125 300.397 59.4663C300.553 59.5206 300.636 59.6913 300.581 59.8474C299.768 62.1825 298.752 63.469 297.561 63.6701C297.448 63.6888 297.339 63.6976 297.232 63.6976Z" fill="#666666"/>
<path d="M296.478 61.4815C296.228 61.4815 295.986 61.3564 295.82 61.1402C295.641 60.9069 295.588 60.6164 295.677 60.3616C295.793 60.0325 296.08 59.8466 296.311 59.697C296.48 59.5877 296.646 59.4655 296.673 59.3334C296.678 59.3083 296.647 59.2522 296.623 59.2399C296.474 59.3165 296.322 59.2569 296.246 59.1096C296.17 58.9628 296.254 58.7799 296.401 58.7039C296.589 58.6075 296.808 58.6297 296.989 58.7665C297.202 58.9272 297.311 59.2037 297.26 59.4533C297.179 59.8496 296.819 60.0816 296.645 60.1932C296.466 60.3096 296.29 60.4235 296.242 60.5597C296.22 60.6223 296.24 60.7047 296.294 60.776C296.349 60.8462 296.412 60.8982 296.489 60.8824C296.648 60.8678 296.797 60.994 296.81 61.1589C296.822 61.3237 296.698 61.4669 296.533 61.4798C296.515 61.4809 296.497 61.4815 296.478 61.4815Z" fill="#666666"/>
<path opacity="0.38" d="M50.1719 183.4C51.0538 183.4 51.7687 182.685 51.7687 181.803C51.7687 180.921 51.0538 180.206 50.1719 180.206C49.2901 180.206 48.5752 180.921 48.5752 181.803C48.5752 182.685 49.2901 183.4 50.1719 183.4Z" fill="#F2F2F2"/>
<path opacity="0.38" d="M54.6619 183.4C55.5438 183.4 56.2587 182.685 56.2587 181.803C56.2587 180.921 55.5438 180.206 54.6619 180.206C53.7801 180.206 53.0652 180.921 53.0652 181.803C53.0652 182.685 53.7801 183.4 54.6619 183.4Z" fill="black"/>
<path opacity="0.38" d="M59.4561 183.4C60.338 183.4 61.0529 182.685 61.0529 181.803C61.0529 180.921 60.338 180.206 59.4561 180.206C58.5743 180.206 57.8594 180.921 57.8594 181.803C57.8594 182.685 58.5743 183.4 59.4561 183.4Z" fill="#B3B3B3"/>
<path d="M67.9816 19.6945H63.1785V24.4976H67.9816V19.6945Z" fill="#005FD5"/>
<path opacity="0.17" d="M89.3408 31.9299H66.5022V36.733H89.3408V31.9299Z" fill="#005FD5"/>
<path opacity="0.17" d="M89.3408 57.8254H66.5022V62.6285H89.3408V57.8254Z" fill="#005FD5"/>
<path opacity="0.17" d="M89.3408 89.5446H66.5022V94.3477H89.3408V89.5446Z" fill="#005FD5"/>
<path opacity="0.17" d="M89.3408 41.8408H66.5022V46.6439H89.3408V41.8408Z" fill="#005FD5"/>
<path opacity="0.17" d="M89.3408 67.7363H66.5022V72.5394H89.3408V67.7363Z" fill="#005FD5"/>
<path opacity="0.17" d="M89.3408 99.4554H66.5022V104.258H89.3408V99.4554Z" fill="#005FD5"/>
<path opacity="0.17" d="M89.3408 109.366H66.5022V114.169H89.3408V109.366Z" fill="#005FD5"/>
<path opacity="0.17" d="M131.713 75.4463H100.654V77.766H131.713V75.4463Z" fill="#005FD5"/>
</svg>
