<svg width="378" height="330" viewBox="0 0 378 330" fill="none" xmlns="http://www.w3.org/2000/svg">
<g clip-path="url(#clip0)">
<path d="M185.546 248.651C185.388 248.496 185.223 248.328 185.106 248.195C184.881 247.947 184.724 247.645 184.65 247.319H184.767L184.822 247.07C185.697 243.004 185.496 238.779 184.238 234.815C182.981 230.85 180.711 227.282 177.652 224.464C177.665 224.446 177.676 224.427 177.684 224.406C179.279 219.607 179.378 214.437 177.969 209.581C179.4 207.769 180.683 205.843 181.804 203.825C185.759 200.801 189.867 196.425 191.131 190.74C191.275 190.124 191.383 189.499 191.455 188.871C191.778 188.547 192.237 187.845 191.752 186.568C191.712 186.464 191.665 186.364 191.61 186.267C191.594 186.238 191.574 186.209 191.555 186.183C191.52 186.126 191.482 186.071 191.442 186.018L191.367 185.934C191.329 185.892 191.289 185.852 191.248 185.815L191.164 185.743L191.034 185.653L190.944 185.598L190.805 185.53L190.717 185.491L190.562 185.439L190.484 185.417C190.411 185.397 190.338 185.382 190.264 185.371C189.771 185.314 189.272 185.364 188.799 185.517C188.799 185.517 187.635 187.535 188.091 188.305C187.739 188.751 186.798 189.944 185.504 191.477C185.517 190.193 185.388 188.911 185.119 187.655C184.996 187.034 184.837 186.42 184.644 185.818C184.815 185.391 184.935 184.563 183.965 183.599C183.886 183.521 183.802 183.448 183.712 183.383L183.628 183.328C183.573 183.29 183.516 183.256 183.457 183.224L183.357 183.179C183.305 183.156 183.25 183.134 183.198 183.117L183.095 183.088L182.939 183.056H182.836H182.681H182.584L182.419 183.072H182.338C182.262 183.085 182.189 183.102 182.118 183.124C181.645 183.275 181.211 183.527 180.844 183.861C180.844 183.861 180.617 186.18 181.348 186.694C181.009 188.023 179.298 194.769 177.034 200.267C176.276 200.923 175.48 201.534 174.651 202.098V201.6C174.656 201.508 174.656 201.416 174.651 201.325V201.325C174.641 201.237 174.627 201.149 174.609 201.063L174.651 201.04L174.825 200.943L175.078 200.788L175.239 200.684C175.36 200.6 175.476 200.513 175.589 200.422L175.721 200.309C175.802 200.241 175.876 200.17 175.954 200.099L176.064 199.944C176.157 199.849 176.246 199.75 176.332 199.646L176.426 199.533C176.508 199.432 176.586 199.324 176.659 199.21L176.753 199.071C176.82 198.967 176.883 198.859 176.944 198.747L177.002 198.644C177.076 198.505 177.144 198.362 177.209 198.217L177.261 198.088C177.308 197.971 177.351 197.851 177.39 197.729C177.39 197.687 177.419 197.644 177.432 197.602C177.48 197.447 177.522 197.279 177.555 197.124C177.555 197.091 177.555 197.059 177.571 197.027C177.597 196.889 177.618 196.75 177.636 196.61C177.636 196.561 177.636 196.516 177.636 196.467C177.636 196.296 177.662 196.125 177.662 195.947C177.662 194.97 177.41 194.01 176.931 193.159L177.199 193.088L177.396 193.026C177.471 193 177.506 192.978 177.497 192.962C177.358 192.774 177.215 192.596 177.07 192.422L176.927 192.26C176.827 192.143 176.724 192.03 176.604 191.936L176.439 191.768C176.336 191.668 176.232 191.568 176.116 191.474L175.954 191.328C175.825 191.215 175.695 191.112 175.563 191.005L175.479 190.937C175.32 190.821 175.155 190.711 175.003 190.614L174.822 190.504C174.719 190.439 174.612 190.378 174.499 190.319L174.288 190.21L173.994 190.067L173.778 189.97C173.674 189.928 173.567 189.886 173.454 189.851L173.257 189.779C173.098 189.728 172.933 189.682 172.781 189.64L172.536 189.585L172.274 189.53L172.009 189.488L171.766 189.459L171.494 189.437H171.258H170.987C170.836 189.437 170.686 189.444 170.537 189.459C167.018 189.747 163.94 192.819 163.94 197.699V201.755H169.437V203.592C168.449 204.048 167.612 204.778 167.025 205.695C166.438 206.612 166.126 207.678 166.126 208.766V224.409L161.511 245.851H161.488V245.909L160.583 249.945L167.442 251.041C167.521 251.011 167.585 250.953 167.625 250.879C167.665 250.805 167.677 250.719 167.659 250.637C167.646 250.526 167.619 250.417 167.578 250.313C167.468 250.047 167.337 249.79 167.187 249.544C166.944 249.127 166.656 248.68 166.462 248.276C166.362 248.07 166.287 247.853 166.239 247.629C166.216 247.514 166.201 247.397 166.194 247.28L171.242 230.69H171.219L171.339 230.298C171.339 230.298 177.781 233.06 179.424 238.58C180.766 243.056 179.932 245.957 179.57 246.895H179.547V246.95C179.476 247.128 179.424 247.228 179.424 247.228H179.547V250.265H186.51C187.04 249.997 186.232 249.321 185.546 248.651Z" fill="url(#paint0_linear)"/>
<path d="M174.033 215.904C174.033 215.904 186.044 203.275 182.118 191.138L178.968 191.784C178.968 191.784 174.741 209.572 170.236 212.123C165.731 214.675 174.033 215.904 174.033 215.904Z" fill="#6C63FF"/>
<path opacity="0.05" d="M174.033 215.904C174.033 215.904 186.044 203.275 182.118 191.138L178.968 191.784C178.968 191.784 174.741 209.572 170.236 212.123C165.731 214.675 174.033 215.904 174.033 215.904Z" fill="black"/>
<path opacity="0.2" d="M181.64 191.419L182.163 191.312C186.077 203.45 174.078 216.078 174.078 216.078L173.71 216.017C175.094 214.497 185.291 202.738 181.64 191.419Z" fill="white"/>
<path d="M181.976 191.455C181.976 191.455 182.849 190.368 181.481 189.006C180.113 187.645 178.438 189.259 178.438 189.259C178.438 189.259 178.198 191.674 179.004 192.056C179.809 192.438 181.976 191.455 181.976 191.455Z" fill="#985454"/>
<path opacity="0.2" d="M181.623 191.535C181.623 191.535 182.496 190.449 181.128 189.087C180.945 188.89 180.717 188.738 180.463 188.645C180.21 188.553 179.938 188.521 179.67 188.554C179.984 188.45 180.321 188.439 180.641 188.521C180.962 188.603 181.252 188.775 181.478 189.016C182.846 190.378 181.973 191.464 181.973 191.464C181.328 191.753 180.653 191.97 179.961 192.111C180.53 191.966 181.086 191.773 181.623 191.535V191.535Z" fill="white"/>
<path d="M307.374 35H65.6584C60.7467 35 56.7649 38.9818 56.7649 43.8935V183.861C56.7649 188.773 60.7467 192.755 65.6584 192.755H307.374C312.286 192.755 316.268 188.773 316.268 183.861V43.8935C316.268 38.9818 312.286 35 307.374 35Z" fill="url(#paint1_linear)"/>
<path d="M303.6 36.6073H68.6044C63.6927 36.6073 59.7109 40.5891 59.7109 45.5008V179.738C59.7109 184.65 63.6927 188.631 68.6044 188.631H303.6C308.512 188.631 312.494 184.65 312.494 179.738V45.5008C312.494 40.5891 308.512 36.6073 303.6 36.6073Z" fill="white"/>
<path d="M86.8185 60.471H79.4514V81.3885H86.8185V60.471Z" fill="#0BC6A0"/>
<path d="M96.2455 60.471H88.8784V81.3885H96.2455V60.471Z" fill="#0BC6A0"/>
<path d="M105.673 60.471H98.3057V81.3885H105.673V60.471Z" fill="#0BC6A0"/>
<path d="M122.172 60.471H114.805V81.3885H122.172V60.471Z" fill="#0BC6A0"/>
<path d="M131.6 60.471H124.233V81.3885H131.6V60.471Z" fill="#0BC6A0"/>
<path d="M141.027 60.471H133.66V81.3885H141.027V60.471Z" fill="#0BC6A0"/>
<path d="M157.527 60.471H150.16V81.3885H157.527V60.471Z" fill="#0BC6A0"/>
<path d="M166.954 60.471H159.587V81.3885H166.954V60.471Z" fill="#0BC6A0"/>
<path d="M176.381 60.471H169.014V81.3885H176.381V60.471Z" fill="#0BC6A0"/>
<path d="M192.881 60.471H185.514V81.3885H192.881V60.471Z" fill="#0BC6A0"/>
<path d="M202.308 60.471H194.941V81.3885H202.308V60.471Z" fill="#0BC6A0"/>
<path d="M211.735 60.471H204.368V81.3885H211.735V60.471Z" fill="#0BC6A0"/>
<path d="M143.679 165.945H79.4514V175.372H143.679V165.945Z" fill="#BDBDBD"/>
<path d="M190.818 150.037H79.4514V159.464H190.818V150.037Z" fill="#E0E0E0"/>
<path d="M262.577 114.333C262.568 114.129 262.6 113.925 262.671 113.733C262.741 113.541 262.849 113.364 262.988 113.214C263.127 113.064 263.294 112.943 263.48 112.857C263.666 112.772 263.867 112.724 264.071 112.716H266.293V99.4569H246.501V114.721H262.58L262.577 114.333Z" fill="url(#paint2_linear)"/>
<path d="M264.071 128.66C263.866 128.652 263.665 128.605 263.48 128.519C263.294 128.434 263.126 128.312 262.988 128.162C262.849 128.012 262.741 127.836 262.67 127.644C262.6 127.451 262.568 127.247 262.577 127.043V126.655H246.497V141.919H266.293V128.66H264.071Z" fill="url(#paint3_linear)"/>
<path d="M262.577 116.714H246.497V124.679H262.577V116.714Z" fill="url(#paint4_linear)"/>
<path d="M271.855 127.056C271.864 127.26 271.832 127.464 271.761 127.657C271.691 127.849 271.583 128.025 271.444 128.175C271.306 128.325 271.138 128.447 270.952 128.532C270.766 128.618 270.566 128.665 270.361 128.673H268.146V141.932H287.938V126.668H271.855V127.056Z" fill="url(#paint5_linear)"/>
<path d="M268.142 99.4569V112.716H270.358C270.562 112.724 270.763 112.772 270.949 112.857C271.135 112.943 271.302 113.064 271.441 113.214C271.58 113.364 271.688 113.541 271.758 113.733C271.829 113.925 271.86 114.129 271.852 114.333V114.721H287.931V99.4569H268.142Z" fill="url(#paint6_linear)"/>
<path d="M287.934 116.714H271.855V124.679H287.934V116.714Z" fill="url(#paint7_linear)"/>
<path d="M262.645 114.485C262.646 114.108 262.796 113.746 263.064 113.479C263.331 113.212 263.693 113.062 264.071 113.062H266.186V101.278H247.306V114.831H262.645V114.485Z" fill="#6C63FF"/>
<path d="M264.071 127.201C263.693 127.201 263.331 127.052 263.064 126.785C262.796 126.518 262.646 126.156 262.645 125.778V125.436H247.306V138.989H266.183V127.201H264.071Z" fill="#6C63FF"/>
<path d="M262.645 116.597H247.306V123.667H262.645V116.597Z" fill="#6C63FF"/>
<path d="M271.493 125.778C271.492 126.156 271.341 126.518 271.074 126.785C270.807 127.052 270.444 127.201 270.067 127.201H267.952V138.986H286.829V125.436H271.493V125.778Z" fill="#6C63FF"/>
<path d="M267.955 101.278V113.062H270.07C270.448 113.062 270.81 113.212 271.077 113.479C271.345 113.746 271.495 114.108 271.496 114.485V114.828H286.835V101.278H267.955Z" fill="#6C63FF"/>
<path d="M286.832 116.597H271.493V123.667H286.832V116.597Z" fill="#6C63FF"/>
<g opacity="0.2">
<path opacity="0.2" d="M56.4802 177.131L56.5094 177.034C56.5094 177.034 56.1504 176.982 56.4802 177.131Z" fill="url(#paint8_linear)"/>
</g>
<g opacity="0.2">
<path opacity="0.2" d="M89.8519 183.069C89.8179 182.958 89.7757 182.85 89.7257 182.745C89.7257 182.713 89.6902 182.684 89.674 182.652C89.6416 182.589 89.606 182.529 89.5673 182.471C89.5446 182.438 89.5188 182.409 89.4961 182.377C89.4596 182.33 89.4207 182.284 89.3797 182.241L89.2956 182.16C89.2536 182.121 89.2115 182.086 89.1662 182.053L89.0757 181.989L88.9334 181.905L88.8428 181.856L88.6811 181.788L88.6003 181.756C88.5227 181.73 88.4461 181.708 88.3707 181.691C87.8551 181.593 87.3246 181.608 86.8151 181.733C86.8151 181.733 85.3307 183.923 85.9031 184.708L85.7156 184.65C85.7156 184.65 74.6908 196.939 68.4719 199.236C68.3123 199.128 68.1474 199.026 67.9771 198.932V196.632C67.9821 196.536 67.9821 196.44 67.9771 196.344C67.9667 196.252 67.9516 196.16 67.9318 196.07L67.9771 196.044L68.1614 195.94L68.4298 195.778L68.6012 195.668C68.7284 195.58 68.8524 195.487 68.9731 195.39L69.1122 195.271C69.1963 195.2 69.2771 195.125 69.358 195.048L69.5003 194.908C69.5995 194.807 69.6943 194.699 69.7849 194.585L69.8851 194.462C69.9714 194.357 70.0533 194.249 70.1309 194.139L70.2312 193.99C70.3023 193.882 70.3702 193.774 70.4349 193.667L70.4964 193.557C70.574 193.411 70.6483 193.259 70.713 193.104L70.768 192.968C70.8176 192.843 70.8639 192.717 70.9071 192.59C70.9071 192.544 70.9362 192.502 70.9523 192.457C71.0041 192.292 71.0461 192.134 71.0817 191.953C71.0817 191.92 71.0817 191.885 71.1011 191.849C71.1291 191.705 71.1518 191.558 71.169 191.409C71.169 191.361 71.169 191.309 71.169 191.261C71.1852 191.079 71.1981 190.895 71.1981 190.711C71.2 189.332 70.7272 187.995 69.8593 186.924C70.3314 186.186 70.6386 185.753 70.6386 185.753C70.3541 185.559 70.0759 185.378 69.7978 185.21L69.5294 185.051C69.345 184.941 69.1575 184.831 68.9764 184.728L68.653 184.563C68.488 184.476 68.3296 184.392 68.1582 184.311L67.8348 184.165C67.6763 184.094 67.5114 184.023 67.3658 183.961L67.0424 183.839C66.8872 183.777 66.719 183.722 66.5767 183.67L66.2857 183.573C66.1272 183.522 65.9623 183.48 65.8103 183.438L65.5516 183.366C65.3737 183.324 65.1991 183.286 65.0244 183.253L64.8368 183.214C64.6008 183.172 64.3647 183.14 64.1318 183.117C62.6886 182.964 61.2302 183.187 59.8985 183.764C59.9697 182.07 60.2543 180.676 60.8493 179.812L60.7038 179.764L60.652 179.812C60.652 179.812 60.4774 179.851 60.209 179.9C60.1231 180.038 60.0464 180.181 59.9794 180.33C60.0983 179.731 60.3275 179.16 60.6553 178.645L60.5098 178.596C60.72 178.383 61.4799 177.448 60.458 175.922C59.2905 174.172 57.1496 175.534 57.1496 175.534C56.9836 176.11 56.8753 176.702 56.8262 177.299C56.6613 177.235 56.5481 177.183 56.4705 177.144C55.4453 180.76 54.8867 184.492 54.8082 188.25C50.9533 193.725 49.3557 201.807 49.0452 203.55L49.0226 203.689C48.9999 203.815 48.9902 203.883 48.9902 203.883L59.0156 204.116C59.0156 204.151 59.0156 204.184 59.0156 204.219V220.092L51.7003 235.518C51.7003 235.518 54.4654 235.618 58.6696 236.165L57.5151 244.418L57.1302 246.733H64.0769C64.8498 245.191 60.9884 244.418 60.9884 244.418H60.9011L62.4081 236.718C63.0743 236.83 63.7588 236.953 64.4617 237.086C65.4933 237.285 66.5389 237.403 67.589 237.439C68.4584 237.469 69.3289 237.431 70.1924 237.326C70.7001 241.501 70.0339 243.994 69.9045 244.421H69.8625L69.4776 246.737H76.4243C77.0969 245.391 74.2478 244.631 73.5137 244.473L73.546 244.246C73.9041 241.642 73.9962 239.008 73.8209 236.385C74.7145 236.021 75.5476 235.524 76.2917 234.91V234.91L76.3887 234.826L76.4178 234.797L71.2434 220.286C72.2136 216.179 68.8438 211.877 70.6419 209.707C72.44 207.537 71.3372 204.798 71.1399 204.329C75.9909 202.208 85.8191 196.891 88.5744 187.684C88.7766 187.036 88.9407 186.378 89.066 185.711C89.066 185.711 90.4566 185.084 89.8519 183.069Z" fill="url(#paint9_linear)"/>
</g>
<path d="M57.583 179.828C57.583 179.828 52.3148 196.441 61.1404 205.639L63.6921 203.699C63.6921 203.699 58.4724 185.565 61.3927 181.306C56.2441 179.57 57.583 179.828 57.583 179.828Z" fill="#FF5252"/>
<path d="M61.2244 181.293C61.2244 181.293 62.2949 180.401 61.2244 178.793C60.154 177.186 58.1909 178.438 58.1909 178.438C58.1909 178.438 57.4762 180.756 58.1909 181.293C58.9057 181.83 61.2244 181.293 61.2244 181.293Z" fill="#F6B9AD"/>
<path d="M65.3802 202.712H65.8103C67.0713 202.712 68.0935 201.69 68.0935 200.429V197.59C68.0935 196.329 67.0713 195.306 65.8103 195.306H65.3802C64.1192 195.306 63.097 196.329 63.097 197.59V200.429C63.097 201.69 64.1192 202.712 65.3802 202.712Z" fill="#F6B9AD"/>
<path opacity="0.2" d="M63.3429 204.756C63.3429 204.756 58.1879 186.846 60.995 182.441C61.244 182.396 61.4025 182.361 61.4025 182.361L61.4478 182.315L61.5804 182.361C58.6698 186.62 63.8798 204.753 63.8798 204.753L61.3281 206.693L61.105 206.454L63.3429 204.756Z" fill="white"/>
<path d="M65.5063 197.894C68.5623 197.894 71.0397 195.416 71.0397 192.36C71.0397 189.304 68.5623 186.827 65.5063 186.827C62.4503 186.827 59.9729 189.304 59.9729 192.36C59.9729 195.416 62.4503 197.894 65.5063 197.894Z" fill="#F6B9AD"/>
<path opacity="0.2" d="M67.4694 200.212V197.803C67.4686 197.627 67.4491 197.451 67.4112 197.279C68.4898 196.723 69.3557 195.828 69.8756 194.731C70.3954 193.635 70.5404 192.398 70.2883 191.211C70.0361 190.024 69.4007 188.953 68.4799 188.162C67.5592 187.372 66.4041 186.906 65.1926 186.836H65.516C66.7532 186.841 67.9532 187.26 68.9242 188.027C69.8952 188.793 70.5813 189.863 70.8728 191.066C71.1644 192.268 71.0446 193.533 70.5326 194.66C70.0206 195.786 69.1459 196.708 68.0483 197.279C68.0862 197.451 68.1057 197.627 68.1065 197.803V200.212C68.1092 200.567 68.0355 200.919 67.8906 201.243C67.7456 201.568 67.5327 201.857 67.2663 202.092C66.9998 202.327 66.686 202.502 66.3461 202.605C66.0062 202.708 65.6482 202.737 65.2961 202.69C65.8966 202.609 66.4476 202.314 66.8471 201.858C67.2467 201.403 67.4677 200.818 67.4694 200.212V200.212Z" fill="white"/>
<path d="M59.8857 219.933C59.8857 219.933 70.558 221.14 70.9525 219.933C72.2267 216.03 68.8116 211.826 70.5256 209.769C72.2978 207.644 70.9525 204.766 70.9525 204.766C70.9525 204.039 70.8094 203.32 70.5313 202.648C70.2532 201.977 69.8456 201.367 69.3318 200.853C68.818 200.339 68.208 199.932 67.5367 199.654C66.8653 199.376 66.1458 199.232 65.4191 199.232V199.232C64.6925 199.232 63.9729 199.376 63.3016 199.654C62.6302 199.932 62.0203 200.339 61.5064 200.853C60.9926 201.367 60.585 201.977 60.3069 202.648C60.0289 203.32 59.8857 204.039 59.8857 204.766V219.933Z" fill="#FF5252"/>
<path opacity="0.2" d="M70.5384 209.769C72.3106 207.644 70.9653 204.766 70.9653 204.766C70.9653 204.039 70.8222 203.32 70.5441 202.648C70.266 201.977 69.8584 201.367 69.3446 200.853C68.8308 200.339 68.2208 199.932 67.5494 199.654C66.8781 199.376 66.1586 199.232 65.4319 199.232C65.3123 199.232 65.1958 199.232 65.0762 199.252C66.4778 199.341 67.7928 199.961 68.7539 200.985C69.715 202.01 70.2502 203.361 70.2506 204.766C70.2506 204.766 71.5959 207.644 69.8237 209.769C68.1064 211.829 71.5215 216.033 70.2506 219.933C70.1277 220.305 69.0281 220.447 67.5664 220.467C69.3709 220.486 70.8198 220.363 70.9588 219.933C72.2524 216.03 68.8244 211.826 70.5384 209.769Z" fill="white"/>
<path d="M68.6951 219.581C72.5985 225.104 74.3126 233.445 73.2001 241.472L73.1677 241.711H69.8335C69.8335 241.711 70.8651 238.678 69.8335 233.322C69.1992 230.115 67.4025 227.255 64.7884 225.292L61.5803 241.711H58.4854L61.5803 219.581H68.6951Z" fill="#F6B9AD"/>
<path d="M87.4523 187.752C87.4523 187.752 88.7459 187.212 88.1832 185.362C87.6205 183.512 85.3858 184.133 85.3858 184.133C85.3858 184.133 84.0243 186.141 84.5482 186.862C85.0721 187.584 87.4523 187.752 87.4523 187.752Z" fill="#F6B9AD"/>
<path d="M68.5139 205.655C68.5139 205.655 85.0914 200.283 87.4523 187.752L84.3799 186.811C84.3799 186.811 72.1781 200.432 67.0166 200.529C61.8551 200.626 68.5139 205.655 68.5139 205.655Z" fill="#FF5252"/>
<path opacity="0.2" d="M86.8767 187.765L87.3877 187.923C85.0398 200.458 68.4591 205.83 68.4591 205.83L68.1648 205.6C70.1149 204.915 84.6873 199.456 86.8767 187.765Z" fill="white"/>
<g opacity="0.2">
<path opacity="0.2" d="M64.0803 225.289L60.8689 241.708H61.5804L64.698 225.767C64.5003 225.597 64.2942 225.438 64.0803 225.289V225.289Z" fill="white"/>
<path opacity="0.2" d="M68.6951 219.581H67.9868C71.8903 225.104 73.6043 233.445 72.4918 241.472L72.4594 241.711H73.1677L73.2 241.472C74.3061 233.445 72.5759 225.101 68.6951 219.581Z" fill="white"/>
</g>
<path opacity="0.2" d="M87.0999 187.655C87.0999 187.655 88.3935 187.115 87.8308 185.265C87.7642 185.003 87.6365 184.761 87.4584 184.558C87.2802 184.355 87.0565 184.197 86.8056 184.097C87.1307 184.156 87.4322 184.307 87.6746 184.531C87.917 184.756 88.0901 185.045 88.1736 185.365C88.7266 187.215 87.4427 187.755 87.4427 187.755C86.7384 187.701 86.0422 187.569 85.3665 187.364C85.9352 187.509 86.515 187.606 87.0999 187.655V187.655Z" fill="white"/>
<path d="M59.8857 219.328L53.1719 233.497C57.0963 233.692 61.002 234.166 64.8596 234.913C72.2978 236.33 75.839 232.788 75.839 232.788L71.043 219.332L59.8857 219.328Z" fill="#263238"/>
<path d="M61.6709 241.643C61.6709 241.643 65.2283 242.351 64.5039 243.768H58.1296L58.4854 241.643H61.6709Z" fill="#FF5252"/>
<path d="M73.0027 241.643C73.0027 241.643 76.5601 242.351 75.8356 243.768H69.4614L69.8172 241.643H73.0027Z" fill="#FF5252"/>
<path d="M70.5255 187.81C70.5255 187.81 62.0234 199.85 65.9203 204.795L50.6914 204.439C50.6914 204.439 54.9409 177.186 70.5255 187.81Z" fill="#FCCC63"/>
<path opacity="0.2" d="M70.5255 187.81C68.3296 186.312 66.3601 185.569 64.5943 185.394C66.0805 185.861 67.4847 186.558 68.7565 187.457C68.7565 187.457 60.2575 199.498 64.1513 204.458L50.7463 204.135C50.7108 204.336 50.6946 204.458 50.6946 204.458L65.9235 204.814C62.0233 199.85 70.5255 187.81 70.5255 187.81Z" fill="white"/>
<path opacity="0.2" d="M71.0397 219.328H69.9887L74.7847 232.785C74.7847 232.785 72.495 235.068 67.7378 235.233C73.2162 235.408 75.8454 232.785 75.8454 232.785L71.0397 219.328Z" fill="white"/>
<path opacity="0.2" d="M61.6709 241.643H60.9626C60.9626 241.643 64.5201 242.351 63.7956 243.768H64.4909C65.2121 242.351 61.6709 241.643 61.6709 241.643Z" fill="white"/>
<path opacity="0.2" d="M73.0027 241.643H72.2944C72.2944 241.643 75.8518 242.351 75.1274 243.768H75.8357C76.5439 242.351 73.0027 241.643 73.0027 241.643Z" fill="white"/>
<g opacity="0.2">
<path opacity="0.2" d="M315.686 181.601L315.718 181.678C315.977 181.51 315.686 181.601 315.686 181.601Z" fill="url(#paint10_linear)"/>
</g>
<g opacity="0.2">
<path opacity="0.2" d="M319.757 241.016L325.375 239.399L324.181 236.01L324.165 235.961H324.146L317.885 217.796L316.268 204.197C316.248 204.024 316.218 203.852 316.181 203.682C321.294 194.925 316.181 182.736 315.725 181.675C315.666 181.714 315.576 181.766 315.446 181.837C315.345 181.35 315.196 180.874 315 180.417C315 180.417 313.108 179.505 312.319 181.064C311.63 182.419 312.342 183.114 312.539 183.269L312.426 183.324C312.745 183.716 312.988 184.163 313.144 184.644C313.073 184.531 312.996 184.423 312.911 184.32C312.685 184.32 312.536 184.291 312.536 184.291L312.491 184.256L312.377 184.311C313.092 185.129 313.49 186.665 313.671 188.544C313.429 188.278 313.164 188.033 312.879 187.813C311.641 186.883 310.103 186.445 308.561 186.584V186.584L308.28 186.617C308.12 186.638 307.963 186.667 307.808 186.704L307.691 186.73L307.494 186.782L307.268 186.853L307.106 186.908L306.828 187.018L306.724 187.063C306.611 187.115 306.498 187.17 306.401 187.228C306.038 187.461 305.651 187.655 305.246 187.807C305.191 187.823 305.133 187.833 305.078 187.846C304.612 187.934 304.129 187.856 303.713 187.626L303.574 187.542C303.521 187.506 303.469 187.469 303.419 187.428C303.39 187.557 303.39 187.691 303.419 187.82C303.482 188.127 303.663 188.396 303.924 188.57C303.996 188.62 304.074 188.661 304.157 188.693C304.279 188.74 304.41 188.761 304.541 188.754C304.586 188.752 304.63 188.747 304.674 188.738L304.642 188.757C304.564 188.806 304.486 188.851 304.406 188.89H304.389C304.302 188.932 304.215 188.971 304.127 189.007C303.68 189.178 303.198 189.242 302.721 189.194V189.194L302.565 189.175C302.488 189.175 302.41 189.152 302.336 189.133C302.366 189.183 302.398 189.231 302.433 189.278L302.468 189.32L302.543 189.411L302.585 189.456L302.666 189.537L302.711 189.579L302.808 189.657L302.847 189.686L302.989 189.779L303.038 189.805L303.141 189.86L303.209 189.889L303.3 189.928L303.374 189.954L303.464 189.983L303.539 190.006L303.642 190.028L303.768 190.051H303.862H303.953H304.205H304.299H304.376H304.467C304.646 190.014 304.819 189.95 304.978 189.86C304.878 189.922 304.774 189.977 304.655 190.032L304.499 190.109L304.338 190.187L304.179 190.258L304.014 190.326L303.856 190.387L303.684 190.449L303.526 190.501L303.345 190.556L303.193 190.598L302.996 190.646L302.853 190.678L302.627 190.721L302.507 190.74L302.164 190.785C302.366 190.818 302.559 190.892 302.73 191.002C302.84 191.062 302.958 191.108 303.08 191.138C303.133 191.141 303.187 191.141 303.241 191.138H303.442H303.574L303.746 191.115H303.875H304.03C304.356 191.109 304.679 191.172 304.978 191.299C305.136 191.374 305.281 191.473 305.408 191.594C305.369 191.678 305.33 191.765 305.295 191.852C305.259 191.94 305.237 192.004 305.211 192.079C305.159 192.232 305.114 192.387 305.075 192.545C304.94 193.114 304.906 193.703 304.975 194.284C304.975 194.391 305.004 194.498 305.023 194.608L305.039 194.695C305.057 194.779 305.076 194.862 305.098 194.944V195.009C305.126 195.11 305.156 195.21 305.188 195.31L305.211 195.368C305.239 195.45 305.269 195.531 305.301 195.61L305.33 195.681C305.413 195.874 305.508 196.061 305.615 196.241L305.647 196.296C305.697 196.378 305.749 196.458 305.803 196.535V196.558C305.865 196.646 305.93 196.733 305.997 196.817V196.836C306.059 196.914 306.124 196.989 306.191 197.062L306.213 197.088C306.36 197.248 306.516 197.398 306.682 197.538V197.538C307.113 197.896 307.6 198.179 308.125 198.375C308.121 198.453 308.121 198.531 308.125 198.608V198.608C308.12 198.688 308.12 198.768 308.125 198.848L308.345 200.704C308.245 200.773 308.148 200.845 308.054 200.921C303.413 199.439 295.169 186.022 295.169 186.022L295.011 186.041C295.593 185.485 294.707 183.48 294.707 183.48C294.3 183.297 293.859 183.206 293.413 183.214H293.326H293.287H293.219H293.177H293.112H293.067H293.006H292.96L292.896 183.234H292.854L292.786 183.263H292.75L292.65 183.315L292.556 183.373L292.524 183.396L292.459 183.444L292.424 183.473L292.369 183.525L292.333 183.56L292.281 183.615L292.246 183.654L292.194 183.719L292.162 183.761L292.11 183.842L292.084 183.881C292.058 183.923 292.035 183.965 292.01 184.01C291.221 185.562 292.275 186.251 292.275 186.251C292.279 186.812 292.316 187.373 292.385 187.93C293.539 198.301 305.576 205.018 306.191 205.354C306.019 206.03 304.635 212.01 307.808 218.889C307.817 218.905 307.827 218.92 307.84 218.934C305.47 221.699 303.863 225.034 303.178 228.61C302.492 232.186 302.751 235.879 303.93 239.324L304.001 239.535H304.105C304.101 239.583 304.094 239.632 304.085 239.68C304.068 239.767 304.043 239.853 304.011 239.936C303.956 240.079 303.885 240.216 303.798 240.343C303.704 240.482 303.591 240.624 303.474 240.77L303.351 240.922C302.853 241.523 302.352 242.109 302.795 242.271L303.118 242.232L308.901 241.663L308.577 239.024H308.684C308.684 239.024 308.632 238.946 308.548 238.797V238.749H308.529C308.115 237.969 307.093 235.531 307.801 231.505C308.674 226.534 313.991 223.471 313.991 223.471L314.133 223.795H314.114L320.21 237.701C320.21 237.756 320.21 237.814 320.21 237.876C320.206 238.015 320.19 238.153 320.162 238.289C320.141 238.399 320.113 238.507 320.078 238.613C319.874 239.205 319.482 239.906 319.337 240.434C319.316 240.505 319.3 240.577 319.288 240.65C319.272 240.733 319.272 240.817 319.288 240.899C319.301 240.951 319.327 240.999 319.365 241.036C319.403 241.074 319.45 241.1 319.502 241.113V241.113L319.579 241.09L319.748 241.042L319.757 241.016ZM313.212 200.17C313.093 200.121 312.973 200.076 312.853 200.038L312.649 198.301C312.633 198.168 312.605 198.037 312.565 197.91C312.921 197.683 313.247 197.413 313.535 197.104C313.438 198.217 313.322 199.258 313.212 200.17Z" fill="url(#paint11_linear)"/>
</g>
<path d="M292.401 187.884C292.401 187.884 291.233 187.124 292.106 185.404C292.98 183.683 295.078 184.692 295.078 184.692C295.078 184.692 296.049 186.914 295.402 187.529C294.755 188.143 292.401 187.884 292.401 187.884Z" fill="#CA7070"/>
<path d="M310.369 245.909L305.482 246.484C305.524 246.711 305.516 246.943 305.46 247.166C305.404 247.389 305.302 247.598 305.159 247.778C304.59 248.616 303.377 249.689 304.037 249.929L310.741 249.136L310.369 245.909Z" fill="#00695C"/>
<path opacity="0.2" d="M305.524 247.752C305.667 247.572 305.77 247.363 305.826 247.14C305.881 246.917 305.889 246.685 305.848 246.459L305.492 246.501C305.533 246.727 305.526 246.959 305.47 247.182C305.414 247.405 305.311 247.614 305.169 247.794C304.599 248.632 303.387 249.705 304.046 249.945L304.402 249.903C303.746 249.663 304.958 248.59 305.524 247.752Z" fill="white"/>
<path d="M327.648 242.843L323.156 244.137C323.347 244.665 323.341 245.245 323.14 245.77C322.765 246.866 321.798 248.334 322.493 248.538L328.987 246.685L327.648 242.843Z" fill="#00695C"/>
<path d="M318.269 182.632C318.269 182.632 325.449 198.511 317.758 208.682L314.997 207.043C314.997 207.043 318.053 188.421 314.651 184.537C319.57 182.228 318.269 182.632 318.269 182.632Z" fill="#00695C"/>
<path d="M314.829 184.514C314.829 184.514 313.661 183.754 314.534 182.034C315.408 180.313 317.506 181.323 317.506 181.323C317.506 181.323 318.477 183.544 317.83 184.159C317.183 184.773 314.829 184.514 314.829 184.514Z" fill="#CA7070"/>
<path opacity="0.2" d="M323.496 245.728C323.697 245.203 323.702 244.623 323.512 244.095L327.667 242.901L327.648 242.846L323.156 244.14C323.347 244.669 323.341 245.248 323.14 245.773C322.765 246.869 321.798 248.338 322.493 248.541L322.765 248.464C322.241 248.16 323.133 246.776 323.496 245.728Z" fill="white"/>
<path d="M312.346 198.908L311.919 198.959C310.667 199.107 309.772 200.242 309.92 201.494L310.253 204.314C310.401 205.566 311.536 206.461 312.788 206.313L313.216 206.263C314.468 206.115 315.363 204.98 315.215 203.727L314.882 200.908C314.734 199.655 313.599 198.76 312.346 198.908Z" fill="#CA7070"/>
<path opacity="0.2" d="M315.476 208.064C315.476 208.064 318.493 189.673 315.191 185.633C314.939 185.633 314.777 185.601 314.777 185.601L314.725 185.562L314.599 185.62C318.001 189.501 314.945 208.126 314.945 208.126L317.707 209.766C317.772 209.678 317.836 209.591 317.898 209.5L315.476 208.064Z" fill="white"/>
<path d="M312.525 201.493C315.56 201.134 317.729 198.383 317.37 195.348C317.012 192.314 314.261 190.144 311.226 190.503C308.191 190.861 306.021 193.612 306.38 196.647C306.739 199.682 309.49 201.852 312.525 201.493Z" fill="#CA7070"/>
<path opacity="0.2" d="M310.844 204.035L310.563 201.642C310.544 201.467 310.544 201.29 310.563 201.115C309.427 200.689 308.462 199.903 307.817 198.875C307.171 197.848 306.882 196.637 306.992 195.429C307.102 194.221 307.606 193.083 308.427 192.189C309.247 191.296 310.339 190.697 311.533 190.484L311.21 190.51C309.98 190.657 308.834 191.213 307.957 192.089C307.081 192.964 306.523 194.109 306.374 195.339C306.225 196.569 306.493 197.813 307.135 198.873C307.777 199.932 308.757 200.746 309.916 201.182C309.897 201.358 309.897 201.534 309.916 201.71L310.198 204.103C310.236 204.456 310.351 204.797 310.533 205.102C310.715 205.407 310.96 205.669 311.252 205.872C311.545 206.074 311.877 206.211 312.227 206.273C312.576 206.336 312.935 206.322 313.28 206.234C312.677 206.221 312.099 205.992 311.652 205.588C311.205 205.184 310.918 204.633 310.844 204.035V204.035Z" fill="white"/>
<path d="M320.689 222.731C320.689 222.731 310.233 225.179 309.693 224.024C305.951 215.939 307.914 208.96 307.914 208.96C307.829 208.238 307.887 207.506 308.085 206.807C308.282 206.107 308.616 205.453 309.066 204.883C309.517 204.312 310.076 203.836 310.71 203.481C311.345 203.126 312.043 202.9 312.765 202.816V202.816C313.487 202.73 314.219 202.788 314.919 202.986C315.618 203.184 316.272 203.517 316.843 203.968C317.413 204.418 317.89 204.977 318.244 205.612C318.599 206.246 318.825 206.945 318.91 207.667L320.689 222.731Z" fill="#00695C"/>
<path d="M320.689 222.731L328.062 244.143L323.276 244.709L316.388 228.988C316.388 228.988 310.498 232.381 309.531 237.885C308.564 243.39 310.502 246.216 310.502 246.216L305.385 246.837L305.305 246.604C303.995 242.788 303.712 238.696 304.483 234.736C305.255 230.776 307.054 227.089 309.7 224.044" fill="#263238"/>
<path opacity="0.2" d="M310.32 223.956C306.579 215.871 308.542 208.892 308.542 208.892C308.377 207.497 308.75 206.091 309.584 204.96C310.418 203.829 311.652 203.058 313.034 202.803C312.914 202.803 312.798 202.803 312.678 202.832C311.956 202.916 311.257 203.143 310.623 203.497C309.988 203.852 309.43 204.328 308.979 204.899C308.529 205.47 308.195 206.123 307.997 206.823C307.8 207.523 307.742 208.254 307.827 208.976C307.827 208.976 305.864 215.949 309.606 224.04C309.796 224.451 311.258 224.403 313.06 224.17C311.604 224.322 310.485 224.312 310.32 223.956Z" fill="white"/>
<path d="M307.824 208.886C307.824 208.886 292.472 200.636 292.404 187.884L295.593 187.506C295.593 187.506 305.162 203.087 310.223 204.109C315.285 205.131 307.824 208.886 307.824 208.886Z" fill="#00695C"/>
<g opacity="0.2">
<path opacity="0.2" d="M316.533 229.373L323.295 244.806L324.004 244.722L317.115 229.001C317.115 229.001 316.895 229.121 316.533 229.373Z" fill="white"/>
<path opacity="0.2" d="M310.421 224.034L309.713 224.118C307.067 227.163 305.268 230.85 304.496 234.81C303.725 238.77 304.008 242.863 305.318 246.678L305.398 246.911L306.107 246.827L306.026 246.594C304.716 242.779 304.433 238.686 305.205 234.726C305.976 230.766 307.775 227.079 310.421 224.034V224.034Z" fill="white"/>
</g>
<path opacity="0.2" d="M292.954 187.997L292.424 188.059C292.491 200.811 307.843 209.061 307.843 209.061L308.167 208.886C306.394 207.87 293.019 199.892 292.954 187.997Z" fill="white"/>
<path d="M307.2 194.071C307.64 194.718 307.847 195.478 308.102 196.205C308.649 197.703 309.612 199.148 311.074 199.782C311.883 200.105 312.755 200.236 313.623 200.164C314.939 200.093 316.326 199.669 317.144 198.634C317.647 197.937 317.942 197.112 317.995 196.254C318.126 194.981 317.935 193.696 317.442 192.516C316.948 191.336 316.166 190.298 315.168 189.498C313.144 187.946 310.204 187.635 307.966 188.851C307.564 189.111 307.136 189.328 306.689 189.498C306.343 189.596 305.979 189.609 305.627 189.537C305.275 189.464 304.946 189.308 304.668 189.081C304.632 189.272 304.643 189.469 304.698 189.656C304.754 189.843 304.852 190.014 304.986 190.155C305.12 190.296 305.286 190.404 305.469 190.469C305.653 190.534 305.849 190.555 306.042 190.53C305.658 190.774 305.23 190.939 304.782 191.017C304.334 191.094 303.876 191.083 303.432 190.982C303.732 191.458 304.2 191.803 304.743 191.95C305.285 192.097 305.863 192.034 306.362 191.775C305.415 192.338 304.357 192.686 303.261 192.797C303.49 192.774 303.985 193.14 304.273 193.188C304.627 193.203 304.982 193.187 305.334 193.14C305.7 193.115 306.065 193.188 306.393 193.352C306.721 193.515 307 193.764 307.2 194.071V194.071Z" fill="#263238"/>
<g opacity="0.2">
<path opacity="0.2" d="M306.039 190.53C305.655 190.774 305.226 190.939 304.777 191.015C305.352 190.977 305.908 190.796 306.394 190.488C306.223 190.509 306.049 190.494 305.883 190.445C305.717 190.395 305.564 190.312 305.432 190.2C305.3 190.088 305.193 189.95 305.117 189.795C305.041 189.64 304.998 189.47 304.991 189.298C304.876 189.235 304.768 189.163 304.667 189.081C304.632 189.272 304.643 189.469 304.698 189.655C304.753 189.841 304.851 190.012 304.985 190.153C305.119 190.295 305.284 190.402 305.467 190.468C305.65 190.533 305.846 190.554 306.039 190.53V190.53Z" fill="white"/>
<path opacity="0.2" d="M307.041 189.456C307.489 189.286 307.917 189.069 308.318 188.809C308.962 188.463 309.661 188.234 310.385 188.133C309.538 188.204 308.715 188.447 307.966 188.848C307.564 189.108 307.136 189.325 306.689 189.495C306.627 189.514 306.562 189.524 306.501 189.537C306.684 189.533 306.865 189.506 307.041 189.456V189.456Z" fill="white"/>
<path opacity="0.2" d="M304.625 193.152C304.337 193.104 303.843 192.738 303.613 192.761C304.709 192.651 305.768 192.302 306.714 191.739C306.499 191.859 306.263 191.938 306.019 191.972C305.161 192.424 304.223 192.706 303.257 192.803C303.487 192.78 303.982 193.146 304.27 193.194C304.518 193.224 304.769 193.214 305.013 193.165C304.884 193.177 304.754 193.173 304.625 193.152V193.152Z" fill="white"/>
<path opacity="0.2" d="M313.978 200.122C313.11 200.194 312.238 200.063 311.429 199.74C309.968 199.093 309.004 197.661 308.457 196.163C308.192 195.436 307.998 194.666 307.555 194.029C307.355 193.721 307.076 193.472 306.747 193.309C306.419 193.145 306.052 193.072 305.686 193.097C305.509 193.1 305.333 193.117 305.159 193.146C305.217 193.146 305.272 193.146 305.333 193.146C305.7 193.12 306.066 193.193 306.395 193.357C306.723 193.521 307.002 193.77 307.203 194.077C307.642 194.724 307.849 195.484 308.105 196.212C308.651 197.709 309.615 199.155 311.077 199.789C311.885 200.112 312.758 200.242 313.625 200.17C313.829 200.17 314.036 200.138 314.243 200.109L313.978 200.122Z" fill="white"/>
<path opacity="0.2" d="M305.793 191.985C305.417 192.002 305.043 191.925 304.704 191.762C304.365 191.598 304.072 191.352 303.852 191.047C303.709 191.035 303.566 191.013 303.426 190.982C303.672 191.37 304.03 191.673 304.453 191.852C304.876 192.031 305.343 192.078 305.793 191.985V191.985Z" fill="white"/>
</g>
<path opacity="0.2" d="M292.757 187.842C292.757 187.842 291.589 187.082 292.462 185.362C292.574 185.115 292.743 184.899 292.955 184.73C293.167 184.561 293.416 184.445 293.681 184.392C293.351 184.392 293.028 184.486 292.749 184.664C292.471 184.841 292.249 185.095 292.11 185.394C291.233 187.115 292.404 187.875 292.404 187.875C293.106 187.952 293.814 187.952 294.516 187.875C293.93 187.913 293.341 187.902 292.757 187.842Z" fill="white"/>
<path d="M179.457 245.99H184.375C184.358 246.221 184.39 246.454 184.47 246.673C184.551 246.891 184.677 247.089 184.841 247.254C185.504 248.021 186.833 248.942 186.209 249.259H179.457V245.99Z" fill="#6C63FF"/>
<path opacity="0.2" d="M184.472 247.254C184.308 247.089 184.182 246.891 184.102 246.673C184.021 246.454 183.989 246.221 184.007 245.99H184.362C184.345 246.221 184.377 246.454 184.457 246.673C184.538 246.891 184.664 247.089 184.828 247.254C185.491 248.021 186.82 248.942 186.196 249.259H185.84C186.474 248.942 185.145 248.021 184.472 247.254Z" fill="white"/>
<path d="M161.935 244.974L166.546 245.728C166.421 246.274 166.495 246.848 166.757 247.345C167.258 248.389 168.374 249.731 167.711 250.019L161.045 248.942L161.935 244.974Z" fill="#6C63FF"/>
<path opacity="0.2" d="M166.401 247.351C166.14 246.855 166.065 246.281 166.191 245.734L161.922 245.036V244.981L166.534 245.734C166.408 246.281 166.482 246.855 166.744 247.351C167.245 248.396 168.361 249.738 167.698 250.026L167.42 249.98C167.934 249.618 166.88 248.347 166.401 247.351Z" fill="white"/>
<path d="M171.983 206.962H172.413C173.674 206.962 174.696 205.939 174.696 204.678V201.839C174.696 200.578 173.674 199.556 172.413 199.556H171.983C170.722 199.556 169.7 200.578 169.7 201.839V204.678C169.7 205.939 170.722 206.962 171.983 206.962Z" fill="#985454"/>
<path d="M172.109 202.143C175.165 202.143 177.642 199.666 177.642 196.61C177.642 193.554 175.165 191.076 172.109 191.076C169.053 191.076 166.575 193.554 166.575 196.61C166.575 199.666 169.053 202.143 172.109 202.143Z" fill="#985454"/>
<path opacity="0.2" d="M174.072 204.471V202.062C174.071 201.886 174.052 201.71 174.014 201.538C175.092 200.982 175.958 200.087 176.478 198.991C176.998 197.894 177.143 196.657 176.891 195.47C176.639 194.283 176.003 193.212 175.082 192.421C174.162 191.631 173.007 191.165 171.795 191.096H172.119C173.359 191.096 174.564 191.513 175.539 192.281C176.513 193.048 177.202 194.12 177.494 195.326C177.786 196.532 177.665 197.801 177.149 198.929C176.634 200.057 175.754 200.98 174.651 201.548C174.689 201.72 174.708 201.896 174.709 202.072V204.471C174.712 204.827 174.638 205.178 174.493 205.503C174.348 205.827 174.135 206.116 173.869 206.351C173.602 206.586 173.289 206.761 172.949 206.864C172.609 206.967 172.251 206.996 171.899 206.949C172.499 206.868 173.05 206.573 173.45 206.117C173.849 205.662 174.07 205.077 174.072 204.471V204.471Z" fill="white"/>
<path d="M166.488 224.199C166.488 224.199 177.16 225.405 177.555 224.199C180.32 215.723 177.555 209.028 177.555 209.028C177.555 208.302 177.412 207.582 177.134 206.911C176.856 206.239 176.448 205.629 175.934 205.116C175.42 204.602 174.81 204.194 174.139 203.916C173.468 203.638 172.748 203.495 172.021 203.495C170.559 203.495 169.156 204.074 168.119 205.105C167.082 206.137 166.496 207.537 166.488 208.999V224.199Z" fill="#6C63FF"/>
<path d="M166.488 224.199L161.669 246.329H166.488L171.485 229.91C171.485 229.91 177.733 232.588 179.337 237.94C180.941 243.292 179.337 246.329 179.337 246.329H184.511L184.563 246.09C185.416 242.147 185.217 238.048 183.987 234.206C182.756 230.364 180.537 226.913 177.552 224.199V224.199" fill="#263238"/>
<path opacity="0.2" d="M176.927 224.199C179.692 215.723 176.927 209.028 176.927 209.028C176.927 207.623 176.392 206.271 175.431 205.245C174.47 204.22 173.155 203.599 171.753 203.508C171.873 203.508 171.989 203.508 172.109 203.508C173.569 203.508 174.97 204.085 176.007 205.114C177.043 206.142 177.631 207.539 177.642 208.999C177.642 208.999 180.407 215.69 177.642 224.17C177.5 224.6 176.041 224.723 174.227 224.703C175.698 224.697 176.804 224.558 176.927 224.199Z" fill="white"/>
<g opacity="0.2">
<path opacity="0.2" d="M171.391 230.285L166.485 246.404H165.77L170.767 229.985C170.767 229.985 171.006 230.085 171.391 230.285Z" fill="white"/>
<path opacity="0.2" d="M176.837 224.273H177.552C180.537 226.987 182.756 230.438 183.987 234.281C185.217 238.123 185.416 242.221 184.563 246.164L184.511 246.404H183.796L183.848 246.164C184.701 242.221 184.503 238.123 183.272 234.281C182.041 230.438 179.822 226.987 176.837 224.273V224.273Z" fill="white"/>
</g>
<path d="M173.409 208.921C173.409 208.921 189.56 202.373 191.002 189.702L187.871 188.984C187.871 188.984 176.678 203.446 171.536 203.912C166.394 204.378 173.409 208.921 173.409 208.921Z" fill="#6C63FF"/>
<path opacity="0.2" d="M190.439 189.757L190.96 189.876C189.517 202.547 173.367 209.096 173.367 209.096L173.043 208.886C174.952 208.068 189.094 201.561 190.439 189.757Z" fill="white"/>
<path d="M190.73 189.918C190.73 189.918 191.972 189.288 191.29 187.483C190.607 185.679 188.412 186.458 188.412 186.458C188.412 186.458 187.196 188.56 187.765 189.243C188.334 189.925 190.73 189.918 190.73 189.918Z" fill="#985454"/>
<path opacity="0.2" d="M190.381 189.847C190.381 189.847 191.623 189.217 190.94 187.412C190.854 187.156 190.709 186.925 190.516 186.736C190.323 186.547 190.089 186.406 189.831 186.325C190.16 186.361 190.471 186.49 190.729 186.697C190.987 186.904 191.181 187.18 191.287 187.493C191.972 189.297 190.727 189.928 190.727 189.928C190.021 189.925 189.317 189.845 188.628 189.689C189.207 189.79 189.793 189.843 190.381 189.847V189.847Z" fill="white"/>
<path d="M172.507 194.769L172.183 202.208H164.376V198.282C164.376 190.352 172.759 187.341 177.48 193.715C177.597 193.87 172.507 194.769 172.507 194.769Z" fill="#263238"/>
<path opacity="0.2" d="M170.773 190.294C172.762 190.459 174.803 191.539 176.417 193.718C176.533 193.874 171.459 194.782 171.459 194.782L171.103 202.221H172.183L172.539 194.782C172.539 194.782 177.613 193.877 177.497 193.718C175.576 191.147 173.079 190.103 170.773 190.294Z" fill="white"/>
</g>
<path d="M110.242 272.832L106.466 280.112V284H104.226V280.112L100.434 272.832H102.962L105.362 277.936L107.746 272.832H110.242ZM115.47 284.144C114.616 284.144 113.848 283.957 113.166 283.584C112.483 283.2 111.944 282.661 111.55 281.968C111.166 281.275 110.974 280.475 110.974 279.568C110.974 278.661 111.171 277.861 111.566 277.168C111.971 276.475 112.52 275.941 113.214 275.568C113.907 275.184 114.68 274.992 115.534 274.992C116.387 274.992 117.16 275.184 117.854 275.568C118.547 275.941 119.091 276.475 119.486 277.168C119.891 277.861 120.094 278.661 120.094 279.568C120.094 280.475 119.886 281.275 119.47 281.968C119.064 282.661 118.51 283.2 117.806 283.584C117.112 283.957 116.334 284.144 115.47 284.144ZM115.47 282.192C115.875 282.192 116.254 282.096 116.606 281.904C116.968 281.701 117.256 281.403 117.47 281.008C117.683 280.613 117.79 280.133 117.79 279.568C117.79 278.725 117.566 278.08 117.118 277.632C116.68 277.173 116.142 276.944 115.502 276.944C114.862 276.944 114.323 277.173 113.886 277.632C113.459 278.08 113.246 278.725 113.246 279.568C113.246 280.411 113.454 281.061 113.87 281.52C114.296 281.968 114.83 282.192 115.47 282.192ZM130.105 275.136V284H127.849V282.88C127.561 283.264 127.182 283.568 126.713 283.792C126.254 284.005 125.753 284.112 125.209 284.112C124.515 284.112 123.902 283.968 123.369 283.68C122.835 283.381 122.414 282.949 122.105 282.384C121.806 281.808 121.657 281.125 121.657 280.336V275.136H123.897V280.016C123.897 280.72 124.073 281.264 124.425 281.648C124.777 282.021 125.257 282.208 125.865 282.208C126.483 282.208 126.969 282.021 127.321 281.648C127.673 281.264 127.849 280.72 127.849 280.016V275.136H130.105ZM134.555 276.512C134.843 276.043 135.216 275.675 135.675 275.408C136.144 275.141 136.678 275.008 137.275 275.008V277.36H136.683C135.979 277.36 135.446 277.525 135.083 277.856C134.731 278.187 134.555 278.763 134.555 279.584V284H132.315V275.136H134.555V276.512ZM145.988 284.144C145.263 284.144 144.612 284.016 144.036 283.76C143.46 283.493 143.002 283.136 142.66 282.688C142.33 282.24 142.148 281.744 142.116 281.2H144.372C144.415 281.541 144.58 281.824 144.868 282.048C145.167 282.272 145.535 282.384 145.972 282.384C146.399 282.384 146.73 282.299 146.964 282.128C147.21 281.957 147.332 281.739 147.332 281.472C147.332 281.184 147.183 280.971 146.884 280.832C146.596 280.683 146.132 280.523 145.492 280.352C144.831 280.192 144.287 280.027 143.86 279.856C143.444 279.685 143.082 279.424 142.772 279.072C142.474 278.72 142.324 278.245 142.324 277.648C142.324 277.157 142.463 276.709 142.74 276.304C143.028 275.899 143.434 275.579 143.956 275.344C144.49 275.109 145.114 274.992 145.828 274.992C146.884 274.992 147.727 275.259 148.356 275.792C148.986 276.315 149.332 277.024 149.396 277.92H147.252C147.22 277.568 147.071 277.291 146.804 277.088C146.548 276.875 146.202 276.768 145.764 276.768C145.359 276.768 145.044 276.843 144.82 276.992C144.607 277.141 144.5 277.349 144.5 277.616C144.5 277.915 144.65 278.144 144.948 278.304C145.247 278.453 145.711 278.608 146.34 278.768C146.98 278.928 147.508 279.093 147.924 279.264C148.34 279.435 148.698 279.701 148.996 280.064C149.306 280.416 149.466 280.885 149.476 281.472C149.476 281.984 149.332 282.443 149.044 282.848C148.767 283.253 148.362 283.573 147.828 283.808C147.306 284.032 146.692 284.144 145.988 284.144ZM159.683 275.136V284H157.427V282.88C157.139 283.264 156.76 283.568 156.291 283.792C155.832 284.005 155.331 284.112 154.787 284.112C154.094 284.112 153.48 283.968 152.947 283.68C152.414 283.381 151.992 282.949 151.683 282.384C151.384 281.808 151.235 281.125 151.235 280.336V275.136H153.475V280.016C153.475 280.72 153.651 281.264 154.003 281.648C154.355 282.021 154.835 282.208 155.443 282.208C156.062 282.208 156.547 282.021 156.899 281.648C157.251 281.264 157.427 280.72 157.427 280.016V275.136H159.683ZM164.133 276.432C164.421 276.005 164.816 275.659 165.317 275.392C165.829 275.125 166.41 274.992 167.061 274.992C167.818 274.992 168.501 275.179 169.109 275.552C169.728 275.925 170.213 276.459 170.565 277.152C170.928 277.835 171.109 278.629 171.109 279.536C171.109 280.443 170.928 281.248 170.565 281.952C170.213 282.645 169.728 283.184 169.109 283.568C168.501 283.952 167.818 284.144 167.061 284.144C166.4 284.144 165.818 284.016 165.317 283.76C164.826 283.493 164.432 283.152 164.133 282.736V284H161.893V272.16H164.133V276.432ZM168.821 279.536C168.821 279.003 168.709 278.544 168.485 278.16C168.272 277.765 167.984 277.467 167.621 277.264C167.269 277.061 166.885 276.96 166.469 276.96C166.064 276.96 165.68 277.067 165.317 277.28C164.965 277.483 164.677 277.781 164.453 278.176C164.24 278.571 164.133 279.035 164.133 279.568C164.133 280.101 164.24 280.565 164.453 280.96C164.677 281.355 164.965 281.659 165.317 281.872C165.68 282.075 166.064 282.176 166.469 282.176C166.885 282.176 167.269 282.069 167.621 281.856C167.984 281.643 168.272 281.339 168.485 280.944C168.709 280.549 168.821 280.08 168.821 279.536ZM176.129 284.144C175.403 284.144 174.753 284.016 174.177 283.76C173.601 283.493 173.142 283.136 172.801 282.688C172.47 282.24 172.289 281.744 172.257 281.2H174.513C174.555 281.541 174.721 281.824 175.009 282.048C175.307 282.272 175.675 282.384 176.113 282.384C176.539 282.384 176.87 282.299 177.105 282.128C177.35 281.957 177.473 281.739 177.473 281.472C177.473 281.184 177.323 280.971 177.025 280.832C176.737 280.683 176.273 280.523 175.633 280.352C174.971 280.192 174.427 280.027 174.001 279.856C173.585 279.685 173.222 279.424 172.913 279.072C172.614 278.72 172.465 278.245 172.465 277.648C172.465 277.157 172.603 276.709 172.881 276.304C173.169 275.899 173.574 275.579 174.097 275.344C174.63 275.109 175.254 274.992 175.969 274.992C177.025 274.992 177.867 275.259 178.497 275.792C179.126 276.315 179.473 277.024 179.537 277.92H177.393C177.361 277.568 177.211 277.291 176.945 277.088C176.689 276.875 176.342 276.768 175.905 276.768C175.499 276.768 175.185 276.843 174.961 276.992C174.747 277.141 174.641 277.349 174.641 277.616C174.641 277.915 174.79 278.144 175.089 278.304C175.387 278.453 175.851 278.608 176.481 278.768C177.121 278.928 177.649 279.093 178.065 279.264C178.481 279.435 178.838 279.701 179.137 280.064C179.446 280.416 179.606 280.885 179.617 281.472C179.617 281.984 179.473 282.443 179.185 282.848C178.907 283.253 178.502 283.573 177.969 283.808C177.446 284.032 176.833 284.144 176.129 284.144ZM180.88 279.568C180.88 278.651 181.066 277.851 181.44 277.168C181.813 276.475 182.33 275.941 182.992 275.568C183.653 275.184 184.41 274.992 185.264 274.992C186.362 274.992 187.269 275.269 187.984 275.824C188.709 276.368 189.194 277.136 189.44 278.128H187.024C186.896 277.744 186.677 277.445 186.368 277.232C186.069 277.008 185.696 276.896 185.248 276.896C184.608 276.896 184.101 277.131 183.728 277.6C183.354 278.059 183.168 278.715 183.168 279.568C183.168 280.411 183.354 281.067 183.728 281.536C184.101 281.995 184.608 282.224 185.248 282.224C186.154 282.224 186.746 281.819 187.024 281.008H189.44C189.194 281.968 188.709 282.731 187.984 283.296C187.258 283.861 186.352 284.144 185.264 284.144C184.41 284.144 183.653 283.957 182.992 283.584C182.33 283.2 181.813 282.667 181.44 281.984C181.066 281.291 180.88 280.485 180.88 279.568ZM193.321 276.512C193.609 276.043 193.982 275.675 194.441 275.408C194.91 275.141 195.443 275.008 196.041 275.008V277.36H195.449C194.745 277.36 194.211 277.525 193.849 277.856C193.497 278.187 193.321 278.763 193.321 279.584V284H191.081V275.136H193.321V276.512ZM198.685 274.08C198.291 274.08 197.96 273.957 197.693 273.712C197.437 273.456 197.309 273.141 197.309 272.768C197.309 272.395 197.437 272.085 197.693 271.84C197.96 271.584 198.291 271.456 198.685 271.456C199.08 271.456 199.405 271.584 199.661 271.84C199.928 272.085 200.061 272.395 200.061 272.768C200.061 273.141 199.928 273.456 199.661 273.712C199.405 273.957 199.08 274.08 198.685 274.08ZM199.789 275.136V284H197.549V275.136H199.789ZM204.242 276.416C204.53 276.011 204.925 275.675 205.426 275.408C205.938 275.131 206.52 274.992 207.17 274.992C207.928 274.992 208.61 275.179 209.218 275.552C209.837 275.925 210.322 276.459 210.674 277.152C211.037 277.835 211.218 278.629 211.218 279.536C211.218 280.443 211.037 281.248 210.674 281.952C210.322 282.645 209.837 283.184 209.218 283.568C208.61 283.952 207.928 284.144 207.17 284.144C206.52 284.144 205.944 284.011 205.442 283.744C204.952 283.477 204.552 283.141 204.242 282.736V288.224H202.002V275.136H204.242V276.416ZM208.93 279.536C208.93 279.003 208.818 278.544 208.594 278.16C208.381 277.765 208.093 277.467 207.73 277.264C207.378 277.061 206.994 276.96 206.578 276.96C206.173 276.96 205.789 277.067 205.426 277.28C205.074 277.483 204.786 277.781 204.562 278.176C204.349 278.571 204.242 279.035 204.242 279.568C204.242 280.101 204.349 280.565 204.562 280.96C204.786 281.355 205.074 281.659 205.426 281.872C205.789 282.075 206.173 282.176 206.578 282.176C206.994 282.176 207.378 282.069 207.73 281.856C208.093 281.643 208.381 281.339 208.594 280.944C208.818 280.549 208.93 280.08 208.93 279.536ZM215.454 276.976V281.264C215.454 281.563 215.524 281.781 215.662 281.92C215.812 282.048 216.057 282.112 216.398 282.112H217.438V284H216.03C214.142 284 213.198 283.083 213.198 281.248V276.976H212.142V275.136H213.198V272.944H215.454V275.136H217.438V276.976H215.454ZM220.185 274.08C219.791 274.08 219.46 273.957 219.193 273.712C218.937 273.456 218.809 273.141 218.809 272.768C218.809 272.395 218.937 272.085 219.193 271.84C219.46 271.584 219.791 271.456 220.185 271.456C220.58 271.456 220.905 271.584 221.161 271.84C221.428 272.085 221.561 272.395 221.561 272.768C221.561 273.141 221.428 273.456 221.161 273.712C220.905 273.957 220.58 274.08 220.185 274.08ZM221.289 275.136V284H219.049V275.136H221.289ZM227.438 284.144C226.585 284.144 225.817 283.957 225.134 283.584C224.452 283.2 223.913 282.661 223.518 281.968C223.134 281.275 222.942 280.475 222.942 279.568C222.942 278.661 223.14 277.861 223.534 277.168C223.94 276.475 224.489 275.941 225.182 275.568C225.876 275.184 226.649 274.992 227.502 274.992C228.356 274.992 229.129 275.184 229.822 275.568C230.516 275.941 231.06 276.475 231.454 277.168C231.86 277.861 232.062 278.661 232.062 279.568C232.062 280.475 231.854 281.275 231.438 281.968C231.033 282.661 230.478 283.2 229.774 283.584C229.081 283.957 228.302 284.144 227.438 284.144ZM227.438 282.192C227.844 282.192 228.222 282.096 228.574 281.904C228.937 281.701 229.225 281.403 229.438 281.008C229.652 280.613 229.758 280.133 229.758 279.568C229.758 278.725 229.534 278.08 229.086 277.632C228.649 277.173 228.11 276.944 227.47 276.944C226.83 276.944 226.292 277.173 225.854 277.632C225.428 278.08 225.214 278.725 225.214 279.568C225.214 280.411 225.422 281.061 225.838 281.52C226.265 281.968 226.798 282.192 227.438 282.192ZM238.618 275.008C239.674 275.008 240.527 275.344 241.178 276.016C241.828 276.677 242.154 277.605 242.154 278.8V284H239.914V279.104C239.914 278.4 239.738 277.861 239.386 277.488C239.034 277.104 238.554 276.912 237.946 276.912C237.327 276.912 236.836 277.104 236.474 277.488C236.122 277.861 235.946 278.4 235.946 279.104V284H233.706V275.136H235.946V276.24C236.244 275.856 236.623 275.557 237.082 275.344C237.551 275.12 238.063 275.008 238.618 275.008ZM249.232 274.08C248.838 274.08 248.507 273.957 248.24 273.712C247.984 273.456 247.856 273.141 247.856 272.768C247.856 272.395 247.984 272.085 248.24 271.84C248.507 271.584 248.838 271.456 249.232 271.456C249.627 271.456 249.952 271.584 250.208 271.84C250.475 272.085 250.608 272.395 250.608 272.768C250.608 273.141 250.475 273.456 250.208 273.712C249.952 273.957 249.627 274.08 249.232 274.08ZM250.336 275.136V284H248.096V275.136H250.336ZM257.461 275.008C258.517 275.008 259.371 275.344 260.021 276.016C260.672 276.677 260.997 277.605 260.997 278.8V284H258.757V279.104C258.757 278.4 258.581 277.861 258.229 277.488C257.877 277.104 257.397 276.912 256.789 276.912C256.171 276.912 255.68 277.104 255.317 277.488C254.965 277.861 254.789 278.4 254.789 279.104V284H252.549V275.136H254.789V276.24C255.088 275.856 255.467 275.557 255.925 275.344C256.395 275.12 256.907 275.008 257.461 275.008ZM267.191 276.976H265.639V284H263.367V276.976H262.359V275.136H263.367V274.688C263.367 273.6 263.677 272.8 264.295 272.288C264.914 271.776 265.847 271.536 267.095 271.568V273.456C266.551 273.445 266.173 273.536 265.959 273.728C265.746 273.92 265.639 274.267 265.639 274.768V275.136H267.191V276.976ZM272.579 284.144C271.726 284.144 270.958 283.957 270.275 283.584C269.592 283.2 269.054 282.661 268.659 281.968C268.275 281.275 268.083 280.475 268.083 279.568C268.083 278.661 268.28 277.861 268.675 277.168C269.08 276.475 269.63 275.941 270.323 275.568C271.016 275.184 271.79 274.992 272.643 274.992C273.496 274.992 274.27 275.184 274.963 275.568C275.656 275.941 276.2 276.475 276.595 277.168C277 277.861 277.203 278.661 277.203 279.568C277.203 280.475 276.995 281.275 276.579 281.968C276.174 282.661 275.619 283.2 274.915 283.584C274.222 283.957 273.443 284.144 272.579 284.144ZM272.579 282.192C272.984 282.192 273.363 282.096 273.715 281.904C274.078 281.701 274.366 281.403 274.579 281.008C274.792 280.613 274.899 280.133 274.899 279.568C274.899 278.725 274.675 278.08 274.227 277.632C273.79 277.173 273.251 276.944 272.611 276.944C271.971 276.944 271.432 277.173 270.995 277.632C270.568 278.08 270.355 278.725 270.355 279.568C270.355 280.411 270.563 281.061 270.979 281.52C271.406 281.968 271.939 282.192 272.579 282.192Z" fill="black"/>
<defs>
<linearGradient id="paint0_linear" x1="176.268" y1="251.051" x2="176.268" y2="183.037" gradientUnits="userSpaceOnUse">
<stop stop-color="#808080" stop-opacity="0.25"/>
<stop offset="0.54" stop-color="#808080" stop-opacity="0.12"/>
<stop offset="1" stop-color="#808080" stop-opacity="0.1"/>
</linearGradient>
<linearGradient id="paint1_linear" x1="110403" y1="76987.7" x2="110403" y2="35" gradientUnits="userSpaceOnUse">
<stop stop-color="#808080" stop-opacity="0.25"/>
<stop offset="0.54" stop-color="#808080" stop-opacity="0.12"/>
<stop offset="1" stop-color="#808080" stop-opacity="0.1"/>
</linearGradient>
<linearGradient id="paint2_linear" x1="256.394" y1="114.721" x2="256.394" y2="99.4569" gradientUnits="userSpaceOnUse">
<stop stop-opacity="0.12"/>
<stop offset="0.55" stop-opacity="0.09"/>
<stop offset="1" stop-opacity="0.02"/>
</linearGradient>
<linearGradient id="paint3_linear" x1="16248.9" y1="6944.08" x2="16248.9" y2="6223.6" gradientUnits="userSpaceOnUse">
<stop stop-opacity="0.12"/>
<stop offset="0.55" stop-opacity="0.09"/>
<stop offset="1" stop-opacity="0.02"/>
</linearGradient>
<linearGradient id="paint4_linear" x1="10465.8" y1="2325.5" x2="10465.8" y2="2129.31" gradientUnits="userSpaceOnUse">
<stop stop-opacity="0.12"/>
<stop offset="0.55" stop-opacity="0.09"/>
<stop offset="1" stop-opacity="0.02"/>
</linearGradient>
<linearGradient id="paint5_linear" x1="17592.6" y1="6944.1" x2="17592.6" y2="6223.61" gradientUnits="userSpaceOnUse">
<stop stop-opacity="0.12"/>
<stop offset="0.55" stop-opacity="0.09"/>
<stop offset="1" stop-opacity="0.02"/>
</linearGradient>
<linearGradient id="paint6_linear" x1="17589.7" y1="5632.54" x2="17589.7" y2="4912.05" gradientUnits="userSpaceOnUse">
<stop stop-opacity="0.12"/>
<stop offset="0.55" stop-opacity="0.09"/>
<stop offset="1" stop-opacity="0.02"/>
</linearGradient>
<linearGradient id="paint7_linear" x1="11752" y1="2325.5" x2="11752" y2="2129.31" gradientUnits="userSpaceOnUse">
<stop stop-opacity="0.12"/>
<stop offset="0.55" stop-opacity="0.09"/>
<stop offset="1" stop-opacity="0.02"/>
</linearGradient>
<linearGradient id="paint8_linear" x1="88.3724" y1="235.762" x2="88.3724" y2="235.726" gradientUnits="userSpaceOnUse">
<stop stop-color="#808080" stop-opacity="0.25"/>
<stop offset="0.54" stop-color="#808080" stop-opacity="0.12"/>
<stop offset="1" stop-color="#808080" stop-opacity="0.1"/>
</linearGradient>
<linearGradient id="paint9_linear" x1="9502.31" y1="55436.5" x2="9502.31" y2="39537.5" gradientUnits="userSpaceOnUse">
<stop stop-color="#808080" stop-opacity="0.25"/>
<stop offset="0.54" stop-color="#808080" stop-opacity="0.12"/>
<stop offset="1" stop-color="#808080" stop-opacity="0.1"/>
</linearGradient>
<linearGradient id="paint10_linear" x1="450.132" y1="306.511" x2="450.129" y2="306.483" gradientUnits="userSpaceOnUse">
<stop stop-color="#808080" stop-opacity="0.25"/>
<stop offset="0.54" stop-color="#808080" stop-opacity="0.12"/>
<stop offset="1" stop-color="#808080" stop-opacity="0.1"/>
</linearGradient>
<linearGradient id="paint11_linear" x1="38665.1" y1="19787.2" x2="37285.3" y2="8111.87" gradientUnits="userSpaceOnUse">
<stop stop-color="#808080" stop-opacity="0.25"/>
<stop offset="0.54" stop-color="#808080" stop-opacity="0.12"/>
<stop offset="1" stop-color="#808080" stop-opacity="0.1"/>
</linearGradient>
<clipPath id="clip0">
<rect x="49" y="35" width="280" height="216.054" fill="white"/>
</clipPath>
</defs>
</svg>
