<svg width="255" height="178" viewBox="0 0 255 178" fill="none" xmlns="http://www.w3.org/2000/svg">
<g clip-path="url(#clip0)">
<path d="M64.5411 6.12428H38.231V36.7457H64.5411V6.12428Z" fill="#F2F2F2"/>
<path d="M135.553 23.9868H109.243V54.6082H135.553V23.9868Z" fill="#F2F2F2"/>
<path d="M206.821 6.12428H180.511V36.7457H206.821V6.12428Z" fill="#F2F2F2"/>
<path d="M127.62 109.813H58.3984V127.055H127.62V109.813Z" fill="#3F3D56"/>
<path d="M200.315 177.681H139.326L156.453 148.047L169.82 124.917L200.315 177.681Z" fill="#3F3D56"/>
<path d="M136.348 131.634H34.9795V177.693H136.348V131.634Z" fill="#3F3D56"/>
<path d="M169.714 124.877C176.352 124.877 181.733 119.501 181.733 112.869C181.733 106.238 176.352 100.862 169.714 100.862C163.075 100.862 157.694 106.238 157.694 112.869C157.694 119.501 163.075 124.877 169.714 124.877Z" fill="#6C63FF"/>
<path d="M220.278 177.49H0.399414V178H220.278V177.49Z" fill="#3F3D56"/>
<path opacity="0.1" d="M127.619 110.969V127.056H111.32L121.282 109.813H126.953L127.619 110.969Z" fill="black"/>
<path opacity="0.1" d="M136.348 131.634V177.693H82.0542L82.1053 177.604L108.673 131.634H136.348Z" fill="black"/>
<path opacity="0.1" d="M173.58 177.681H139.326L156.453 148.047L157.22 149.371L173.58 177.681Z" fill="black"/>
<path d="M169.772 177.719H85.6152L85.6817 177.604L113.282 129.848L127.694 104.909L153.388 149.371L169.749 177.681L169.772 177.719Z" fill="#6C63FF"/>
<path d="M127.566 105.537C130.426 105.537 132.743 103.222 132.743 100.365C132.743 97.5091 130.426 95.1936 127.566 95.1936C124.707 95.1936 122.389 97.5091 122.389 100.365C122.389 103.222 124.707 105.537 127.566 105.537Z" fill="#3F3D56"/>
<path d="M113.271 102.012C102.775 102.02 92.352 100.272 82.434 96.8405C69.1379 92.248 58.2453 85.9135 50.0591 78.0129C34.5742 63.0682 21.8788 60.8159 13.9571 61.5575C5.38192 62.3607 0.390519 66.7473 0.341127 66.7916L0 66.4117C0.0503879 66.3664 5.1447 61.8803 13.8763 61.0526C18.9966 60.5675 24.3512 61.4126 29.7918 63.5653C36.5764 66.2498 43.5148 70.9872 50.4141 77.6459C58.5464 85.4945 69.3756 91.7902 82.6009 96.358C106.88 104.744 134.243 102.713 157.674 90.7877C165.432 86.8389 173.1 84.1436 180.464 82.7766C189.75 81.0524 198.557 81.4526 206.641 83.9653C224.406 89.4866 236.541 89.1938 243.592 87.9765C251.2 86.6628 254.652 84.0338 254.686 84.0074L255 84.4102C254.857 84.5212 251.412 87.1442 243.679 88.4794C236.572 89.7067 224.351 90.004 206.489 84.4525C188.404 78.8323 170.087 85.0424 157.906 91.2422C146.325 97.168 133.679 100.732 120.705 101.726C118.218 101.916 115.74 102.011 113.271 102.012Z" fill="#3F3D56"/>
<path d="M55.5962 82.5115L55.2306 82.155C56.912 80.2505 58.1864 78.0232 58.9759 75.6094C60.2188 71.8728 60.8259 65.9716 56.6596 59.0782C52.3968 52.0251 52.205 46.2964 52.7946 42.7327C53.4363 38.8549 55.0733 36.6813 55.1427 36.5907L55.5487 36.9006C55.5323 36.9219 53.9095 39.0839 53.2937 42.846C52.7252 46.3194 52.9236 51.9092 57.0969 58.8143C61.3698 65.884 60.7368 71.9491 59.4535 75.7921C58.0629 79.9559 55.6963 82.409 55.5962 82.5115Z" fill="#3F3D56"/>
<path d="M74.7588 37.0009H37.9756V0.255173H74.7588V37.0009ZM38.4865 36.4905H74.2479V0.76553H38.4865V36.4905Z" fill="#3F3D56"/>
<path d="M126.863 100.629L126.498 100.273C128.179 98.3682 129.453 96.1409 130.243 93.7272C131.486 89.9905 132.093 84.0893 127.927 77.1958C123.664 70.1428 123.472 64.4141 124.062 60.8503C124.703 56.9726 126.34 54.7989 126.41 54.7084L126.816 55.0182C126.799 55.0395 125.177 57.2016 124.561 60.9637C123.992 64.437 124.19 70.0269 128.364 76.9319C132.637 84.0017 132.004 90.0668 130.72 93.9099C129.33 98.0737 126.963 100.527 126.863 100.629Z" fill="#3F3D56"/>
<path d="M146.026 55.1185H109.243V18.3728H146.026V55.1185ZM109.754 54.6082H145.515V18.8832H109.754V54.6082Z" fill="#3F3D56"/>
<path d="M197.876 82.2563L197.51 81.8998C199.191 79.9953 200.466 77.768 201.255 75.3543C202.498 71.6177 203.105 65.7164 198.939 58.823C194.676 51.7699 194.484 46.0413 195.074 42.4775C195.716 38.5997 197.352 36.4261 197.422 36.3355L197.828 36.6454C197.812 36.6667 196.189 38.8287 195.573 42.5909C195.004 46.0642 195.203 51.6541 199.376 58.5591C203.649 65.6288 203.016 71.6939 201.733 75.5369C200.342 79.7008 197.976 82.1539 197.876 82.2563Z" fill="#3F3D56"/>
<path d="M217.038 36.7457H180.255V0H217.038V36.7457ZM180.766 36.2353H216.527V0.510357H180.766V36.2353Z" fill="#3F3D56"/>
<path d="M68.1173 10.9727H45.6387V11.483H68.1173V10.9727Z" fill="#3F3D56"/>
<path d="M68.1173 16.5866H45.6387V17.097H68.1173V16.5866Z" fill="#3F3D56"/>
<path d="M68.1173 22.2005H45.6387V22.7109H68.1173V22.2005Z" fill="#3F3D56"/>
<path d="M138.874 28.3248H116.395V28.8352H138.874V28.3248Z" fill="#3F3D56"/>
<path d="M138.874 33.9387H116.395V34.4491H138.874V33.9387Z" fill="#3F3D56"/>
<path d="M138.874 39.5527H116.395V40.063H138.874V39.5527Z" fill="#3F3D56"/>
<path d="M209.886 10.9727H187.407V11.483H209.886V10.9727Z" fill="#3F3D56"/>
<path d="M209.886 16.5866H187.407V17.097H209.886V16.5866Z" fill="#3F3D56"/>
<path d="M209.886 22.2005H187.407V22.7109H209.886V22.2005Z" fill="#3F3D56"/>
<path d="M209.823 169.477C211.2 174.563 215.916 177.712 215.916 177.712C215.916 177.712 218.4 172.617 217.023 167.531C215.646 162.446 210.93 159.297 210.93 159.297C210.93 159.297 208.446 164.392 209.823 169.477Z" fill="#6C63FF"/>
<path d="M211.846 168.384C215.625 172.059 216.086 177.708 216.086 177.708C216.086 177.708 210.421 177.399 206.643 173.724C202.864 170.05 202.402 164.401 202.402 164.401C202.402 164.401 208.067 164.71 211.846 168.384Z" fill="#3F3D56"/>
<path d="M75.2697 142.39H48.9595V173.011H75.2697V142.39Z" fill="#F2F2F2"/>
<path d="M85.4873 173.011H48.7041V136.265H85.4873V173.011ZM49.215 172.501H84.9764V136.776H49.215V172.501Z" fill="white"/>
<path d="M78.3351 147.238H55.8564V147.748H78.3351V147.238Z" fill="#6C63FF"/>
<path d="M78.3351 152.852H55.8564V153.362H78.3351V152.852Z" fill="#6C63FF"/>
<path d="M78.3351 158.466H55.8564V158.976H78.3351V158.466Z" fill="#6C63FF"/>
<path d="M57.8666 55.4213H57.8666C51.7279 55.4213 46.7515 60.9384 46.7515 67.744V76.3907H49.4135L50.9547 73.1871L50.5694 76.3907H67.6799L69.081 73.4783L68.7307 76.3907H70.6572V69.6015C70.6572 61.77 64.9306 55.4213 57.8666 55.4213Z" fill="#2F2E41"/>
<path d="M45.1305 111.914L38.3059 114.812L14.5905 134.071C13.7184 135.142 13.184 136.447 13.055 137.821C12.8843 140.037 5.71854 151.627 8.27774 153.161C10.837 154.695 20.0501 159.297 20.562 156.229C21.0738 153.161 23.8037 140.037 23.8037 140.037L46.666 119.584L45.1305 111.914Z" fill="#2F2E41"/>
<path d="M18.3444 153.672L15.444 162.194C15.444 162.194 18.515 165.432 16.9795 168.159V177.534H14.5909L13.9084 172.591C13.9084 172.591 11.1878 177.471 9.81368 177.534C6.93306 177.665 1.22858 178.688 1.05796 177.154C0.887349 175.62 5.37771 174.125 5.37771 174.125L10.1549 161.001L12.2023 152.99L18.3444 153.672Z" fill="#2F2E41"/>
<path d="M62.875 109.698C62.875 109.698 64.4105 124.697 59.9745 127.424C55.5386 130.151 35.9179 138.844 35.9179 138.844C35.9179 138.844 44.278 146.684 42.5719 148.559C40.8657 150.434 33.1881 155.547 32.1644 154.524C31.1407 153.502 19.7095 141.23 21.0744 137.31C22.4393 133.39 41.3775 120.607 41.3775 120.607L43.5955 112.596L44.278 106.119L51.4438 101.517L62.875 109.698Z" fill="#2F2E41"/>
<path d="M55.0579 74.7774C58.9861 74.7774 62.1706 71.5962 62.1706 67.672C62.1706 63.7478 58.9861 60.5666 55.0579 60.5666C51.1297 60.5666 47.9453 63.7478 47.9453 67.672C47.9453 71.5962 51.1297 74.7774 55.0579 74.7774Z" fill="#FFB9B9"/>
<path d="M60.5713 70.5822C60.5713 70.5822 60.2301 77.0589 65.5191 79.1042C70.8082 81.1495 52.3818 94.4439 52.3818 94.4439V79.6156C52.3818 79.6156 54.7704 77.0589 52.3818 73.1388L60.5713 70.5822Z" fill="#FFB9B9"/>
<path d="M71.9171 101.006L70.5522 107.653L66.4575 130.492C66.4575 130.492 69.8698 140.207 65.2632 140.037C60.6566 139.866 62.8746 129.469 62.8746 129.469L65.2632 110.551V103.222L71.9171 101.006Z" fill="#FFB9B9"/>
<path d="M42.5713 97.7675L41.0358 103.733L34.0406 120.607C34.0406 120.607 29.2634 128.617 33.1875 128.447C37.1117 128.276 37.1117 120.607 37.1117 120.607L45.1306 106.971V99.3015L42.5713 97.7675Z" fill="#FFB9B9"/>
<path d="M41.3771 147.536L47.0074 152.82C47.0074 152.82 50.9316 151.968 52.4671 156.569C54.0026 161.171 55.0263 164.069 55.0263 164.069L52.9789 165.262L50.4197 161.683C50.4197 161.683 48.8842 168.159 47.3487 168.671C45.8131 169.182 38.1355 172.591 38.8179 168.671L42.5715 163.217C42.5715 163.217 43.0833 157.081 41.5478 156.569C40.0122 156.058 35.9175 150.945 35.9175 150.945L41.3771 147.536Z" fill="#2F2E41"/>
<path d="M63.1453 114.982C63.1453 114.982 47.1075 109.187 46.0838 109.698C45.3218 110.035 44.5102 110.245 43.6807 110.321L43.6952 107.994C43.6952 107.994 48.9843 106.119 51.8847 107.312C54.7852 108.505 63.6571 113.789 63.6571 113.789L63.1453 114.982Z" fill="#3F3D56"/>
<path d="M53.4052 91.0351C53.4052 91.0351 58.0118 85.7514 59.3768 82.513C60.2403 80.5498 61.8254 78.9928 63.8049 78.1632C63.8049 78.1632 74.0496 80.4677 73.879 84.5583C73.7084 88.6489 67.3956 94.9552 67.3956 94.9552C67.3956 94.9552 68.2487 117.624 63.6421 117.283C62.6485 116.098 61.9472 114.697 61.5947 113.192C61.0829 110.806 45.2158 108.25 45.2158 108.25C45.2158 108.25 43.8508 110.636 43.6802 109.613C43.5096 108.59 45.0451 83.5357 45.0451 83.5357L53.1812 78.1632L53.4052 91.0351Z" fill="#D0CDE1"/>
<path d="M72.565 82.9118L72.6792 82.9758C73.0439 83.1803 73.3474 83.478 73.5586 83.8385C73.7699 84.1989 73.8812 84.6091 73.8811 85.0268L73.8794 97.6757C73.8807 98.0195 73.9568 98.359 74.1026 98.6704C74.2483 98.9819 74.4601 99.258 74.7233 99.4795C75.3806 100.038 75.99 100.843 74.7323 101.261C72.6849 101.943 64.666 105.352 64.4954 104.159C64.3248 102.966 63.9836 101.602 64.4954 101.602C64.8961 101.602 67.2836 89.3804 69.202 84.1547C69.3192 83.8348 69.5045 83.5441 69.7452 83.3028C69.9859 83.0615 70.2762 82.8753 70.596 82.7571C70.9159 82.6389 71.2576 82.5915 71.5975 82.6182C71.9375 82.6449 72.2676 82.7451 72.565 82.9118Z" fill="#D0CDE1"/>
<path d="M47.3488 82.9391L44.9602 83.6209L42.2304 95.3813C42.2304 95.3813 38.9887 96.0631 40.0124 97.2562C41.0361 98.4493 45.3014 101.517 45.3014 101.517L47.3488 82.9391Z" fill="#D0CDE1"/>
<path d="M61.0264 58.8158C60.4915 58.0983 59.7984 57.5135 59.0007 57.1069C58.203 56.7003 57.3223 56.4827 56.4268 56.471H56.2086C52.0012 56.471 48.5903 60.2744 48.5903 64.9662V64.9662H50.0001L50.2278 63.2349L50.5617 64.9662H58.9232L59.6237 63.5015L59.4486 64.9662H61.0935C61.8611 68.7744 60.7582 72.5826 57.7848 76.3907H60.587L61.988 73.4614L61.6378 76.3907H66.9793L68.0301 69.6532C68.0301 64.6074 65.0954 60.3286 61.0264 58.8158Z" fill="#2F2E41"/>
<path opacity="0.1" d="M106.043 109.813H79.4775V118.463H106.043V109.813Z" fill="black"/>
<path d="M105.021 102.387H81.0103V117.187H105.021V102.387Z" fill="#6C63FF"/>
</g>
<defs>
<clipPath id="clip0">
<rect width="255" height="178" fill="white"/>
</clipPath>
</defs>
</svg>
