<svg width="143" height="108" viewBox="0 0 143 108" fill="none" xmlns="http://www.w3.org/2000/svg">
<g clip-path="url(#clip0)">
<path d="M122.032 10.7845C120.963 13.9379 119.324 16.8111 115.983 16.8111C112.642 16.8111 110.122 14.1076 109.933 10.7845C109.693 6.53815 112.565 4.74023 115.983 4.75782C120.021 4.7786 123.301 7.04212 122.032 10.7845Z" fill="#2F2E41"/>
<path d="M121.873 10.3087H109.933V25.3753H121.873V10.3087Z" fill="#2F2E41"/>
<path d="M90.2885 56.3074H47.8953L37.0466 107.186H101.137L90.2885 56.3074Z" fill="#F2F2F2"/>
<path d="M101.137 50.7456C101.137 51.6646 95.184 52.4544 86.7058 52.7884C84.3571 52.8806 81.8157 52.9397 79.152 52.9544C78.6426 52.9581 78.1295 52.96 77.6127 52.96C64.6205 52.96 54.0881 51.969 54.0881 50.7456C54.0881 49.5222 64.6205 48.5312 77.6127 48.5312C90.605 48.5312 101.137 49.5222 101.137 50.7456Z" fill="#3F3D56"/>
<path d="M53.914 50.7087L41.8596 107.172L42.2219 107.249L54.2763 50.7855L53.914 50.7087Z" fill="#3F3D56"/>
<path d="M101.319 50.7072L100.956 50.7839L112.996 107.25L113.359 107.173L101.319 50.7072Z" fill="#3F3D56"/>
<path d="M143 106.843H0V107.212H143V106.843Z" fill="#2F2E41"/>
<path d="M73.5827 50.9067L72.822 50.6586C70.1069 49.7467 68.3232 49.1643 67.6879 47.7377C67.5622 47.4683 67.4921 47.1766 67.4816 46.8798C67.4711 46.583 67.5205 46.2871 67.6269 46.0096C67.7333 45.7322 67.8944 45.4788 68.1008 45.2645C68.3073 45.0502 68.5548 44.8793 68.8286 44.762C69.151 44.6216 69.5002 44.5527 69.8519 44.5602C70.2037 44.5677 70.5495 44.6514 70.8656 44.8055C70.963 44.4687 71.1329 44.1571 71.3633 43.8922C71.5938 43.6274 71.8794 43.4157 72.2002 43.2719C72.4713 43.1484 72.7646 43.0803 73.0626 43.0716C73.3606 43.063 73.6573 43.114 73.9352 43.2216C74.213 43.3293 74.4664 43.4914 74.6802 43.6983C74.8941 43.9052 75.0641 44.1528 75.1802 44.4263C75.8156 45.853 75.0519 47.5612 73.9085 50.1784L73.5827 50.9067Z" fill="#FF6584"/>
<path d="M86.7057 52.7883C84.3569 52.8806 81.8155 52.9396 79.1519 52.9544C79.3934 52.597 79.732 52.3154 80.128 52.1424C80.4502 52.0021 80.7992 51.9333 81.1508 51.9409C81.5024 51.9486 81.848 52.0325 82.1637 52.1867C82.2617 51.8501 82.4318 51.5386 82.6624 51.2738C82.893 51.0091 83.1785 50.7974 83.4993 50.6533C83.7705 50.5298 84.0638 50.4618 84.3618 50.4532C84.6599 50.4446 84.9566 50.4957 85.2345 50.6034C85.5124 50.7111 85.7658 50.8733 85.9797 51.0802C86.1935 51.2872 86.3636 51.5348 86.4797 51.8084C86.6167 52.1178 86.6934 52.4504 86.7057 52.7883Z" fill="#FF6584"/>
<path d="M74.1328 27.4665L73.8198 27.2311C72.7069 26.3786 71.973 25.8263 71.9061 25.0644C71.8909 24.9197 71.9049 24.7734 71.9474 24.6342C71.9899 24.4949 72.06 24.3656 72.1535 24.2538C72.2471 24.1421 72.3622 24.0502 72.4921 23.9835C72.6219 23.9169 72.7639 23.8768 72.9095 23.8658C73.0814 23.8518 73.2542 23.8751 73.416 23.9343C73.5779 23.9935 73.7248 24.087 73.8467 24.2084C73.9456 24.0678 74.0741 23.9502 74.2231 23.8639C74.3722 23.7777 74.5383 23.7248 74.71 23.7089C74.8553 23.6946 75.0021 23.7094 75.1416 23.7526C75.2811 23.7958 75.4105 23.8664 75.5221 23.9603C75.6337 24.0542 75.7253 24.1694 75.7914 24.2992C75.8576 24.4289 75.8969 24.5706 75.907 24.7158C75.974 25.4776 75.3475 26.1485 74.4001 27.1805L74.1328 27.4665Z" fill="#FF6584"/>
<path d="M78.9488 14.9185L78.6358 14.6831C77.5228 13.8306 76.789 13.2783 76.7221 12.5165C76.7068 12.3717 76.7208 12.2254 76.7633 12.0862C76.8058 11.947 76.8759 11.8176 76.9694 11.7059C77.063 11.5941 77.1781 11.5022 77.308 11.4355C77.4378 11.3689 77.5798 11.3289 77.7255 11.3178C77.8973 11.3038 78.0701 11.3272 78.2319 11.3863C78.3938 11.4455 78.5407 11.539 78.6626 11.6605C78.7615 11.5198 78.89 11.4022 79.039 11.316C79.1881 11.2297 79.3542 11.1768 79.5259 11.1609C79.6712 11.1466 79.818 11.1614 79.9575 11.2046C80.097 11.2478 80.2264 11.3184 80.338 11.4123C80.4497 11.5062 80.5412 11.6214 80.6073 11.7512C80.6735 11.8809 80.7128 12.0226 80.723 12.1678C80.7899 12.9296 80.1634 13.6005 79.216 14.6325L78.9488 14.9185Z" fill="#FF6584"/>
<path d="M80.074 37.8689L79.9577 37.2122C79.5623 34.8577 79.2901 33.3174 80.0958 32.2881C80.2457 32.0895 80.434 31.923 80.6497 31.7982C80.8653 31.6735 81.1038 31.5931 81.3512 31.5619C81.5986 31.5306 81.8497 31.5491 82.0898 31.6163C82.3298 31.6835 82.5539 31.7979 82.7488 31.9529C82.9799 32.1344 83.1685 32.3638 83.3017 32.6252C83.4348 32.8866 83.5092 33.1738 83.5198 33.4667C83.8076 33.4055 84.1052 33.4074 84.3922 33.4723C84.6791 33.5373 84.9485 33.6636 85.1815 33.8426C85.3798 33.9931 85.5459 34.1817 85.6698 34.3973C85.7937 34.6129 85.8729 34.851 85.9028 35.0976C85.9327 35.3442 85.9126 35.5943 85.8437 35.833C85.7748 36.0717 85.6586 36.2943 85.5018 36.4875C84.6961 37.5169 83.1302 37.6293 80.7417 37.8212L80.074 37.8689Z" fill="#FF6584"/>
<path d="M23.5039 107.112L23.1746 106.942C27.4502 98.708 25.1639 88.0142 22.4932 80.4934C20.6798 75.4383 18.3667 70.5752 15.5881 65.9756L15.9013 65.7784C18.6942 70.4014 21.0194 75.2893 22.8423 80.3702C25.5376 87.9598 27.84 98.7602 23.5039 107.112Z" fill="#2F2E41"/>
<path d="M26.6743 65.844L24.271 78.9464L24.6353 79.0127L27.0386 65.9103L26.6743 65.844Z" fill="#2F2E41"/>
<path d="M10.6939 77.0075L10.4226 77.259L22.8332 90.5452L23.1045 90.2937L10.6939 77.0075Z" fill="#2F2E41"/>
<path d="M33.0052 91.602L26.7102 100.277L27.0105 100.493L33.3055 91.8182L33.0052 91.602Z" fill="#2F2E41"/>
<path d="M27.7849 62.371C28.808 62.371 29.6373 61.5448 29.6373 60.5257C29.6373 59.5066 28.808 58.6804 27.7849 58.6804C26.7619 58.6804 25.9326 59.5066 25.9326 60.5257C25.9326 61.5448 26.7619 62.371 27.7849 62.371Z" fill="#6C63FF"/>
<path d="M7.59452 76.5797C8.61753 76.5797 9.44685 75.7536 9.44685 74.7345C9.44685 73.7153 8.61753 72.8892 7.59452 72.8892C6.5715 72.8892 5.74219 73.7153 5.74219 74.7345C5.74219 75.7536 6.5715 76.5797 7.59452 76.5797Z" fill="#3F3D56"/>
<path d="M15.7449 78.425C16.7679 78.425 17.5972 77.5988 17.5972 76.5797C17.5972 75.5605 16.7679 74.7344 15.7449 74.7344C14.7219 74.7344 13.8926 75.5605 13.8926 76.5797C13.8926 77.5988 14.7219 78.425 15.7449 78.425Z" fill="#3F3D56"/>
<path d="M12.0401 85.6217C13.0631 85.6217 13.8924 84.7956 13.8924 83.7764C13.8924 82.7573 13.0631 81.9312 12.0401 81.9312C11.0171 81.9312 10.1877 82.7573 10.1877 83.7764C10.1877 84.7956 11.0171 85.6217 12.0401 85.6217Z" fill="#6C63FF"/>
<path d="M35.1944 90.2349C36.2174 90.2349 37.0467 89.4087 37.0467 88.3896C37.0467 87.3705 36.2174 86.5443 35.1944 86.5443C34.1714 86.5443 33.342 87.3705 33.342 88.3896C33.342 89.4087 34.1714 90.2349 35.1944 90.2349Z" fill="#3F3D56"/>
<path d="M29.0816 92.2647C30.1046 92.2647 30.9339 91.4385 30.9339 90.4194C30.9339 89.4003 30.1046 88.5741 29.0816 88.5741C28.0586 88.5741 27.2292 89.4003 27.2292 90.4194C27.2292 91.4385 28.0586 92.2647 29.0816 92.2647Z" fill="#3F3D56"/>
<path d="M33.3421 98.1697C34.3651 98.1697 35.1944 97.3436 35.1944 96.3244C35.1944 95.3053 34.3651 94.4791 33.3421 94.4791C32.3191 94.4791 31.4897 95.3053 31.4897 96.3244C31.4897 97.3436 32.3191 98.1697 33.3421 98.1697Z" fill="#3F3D56"/>
<path d="M13.8926 64.5854C14.9156 64.5854 15.7449 63.7592 15.7449 62.7401C15.7449 61.7209 14.9156 60.8948 13.8926 60.8948C12.8696 60.8948 12.0403 61.7209 12.0403 62.7401C12.0403 63.7592 12.8696 64.5854 13.8926 64.5854Z" fill="#3F3D56"/>
<path d="M122.224 21.5333H123.239C123.239 21.5333 125.722 24.6809 124.593 28.9526C123.465 33.2243 124.368 34.0112 124.368 34.0112C124.368 34.0112 125.837 38.637 124.257 45.6066C122.677 52.5762 125.722 54.4703 125.722 54.4703L122.901 48.8497L121.321 34.0112L122.224 21.5333Z" fill="#6C63FF"/>
<path opacity="0.1" d="M122.224 21.5391H123.239C123.239 21.5391 125.722 24.6866 124.593 28.9583C123.465 33.23 124.368 34.0169 124.368 34.0169C124.368 34.0169 125.837 38.6428 124.257 45.6124C122.677 52.582 125.722 54.476 125.722 54.476L122.901 48.8554L121.321 34.0169L122.224 21.5391Z" fill="black"/>
<path d="M118.669 16.0813C118.669 16.0813 117.767 19.6786 118.218 19.6786C118.669 19.6786 120.249 21.5896 120.249 21.5896L121.265 25.2992L120.475 27.9971L117.767 27.4351L114.381 23.7254L113.366 22.7137L112.463 19.4537C112.463 19.4537 113.592 18.1048 112.802 16.9806C112.012 15.8565 118.669 16.0813 118.669 16.0813Z" fill="#FBBEBE"/>
<path opacity="0.1" d="M118.669 16.0813C118.669 16.0813 117.767 19.6786 118.218 19.6786C118.669 19.6786 120.249 21.5896 120.249 21.5896L121.265 25.2992L120.475 27.9971L117.767 27.4351L114.381 23.7254L113.366 22.7137L112.463 19.4537C112.463 19.4537 113.592 18.1048 112.802 16.9806C112.012 15.8565 118.669 16.0813 118.669 16.0813Z" fill="black"/>
<path d="M91.3618 26.0861L88.8793 22.0392C88.8793 22.0392 86.1995 16.1325 84.2812 18.2684C82.3629 20.4042 87.1866 24.7371 87.1866 24.7371L89.6692 27.9971L91.3618 26.0861Z" fill="#FBBEBE"/>
<path d="M124.311 61.2714L122.506 74.4237C122.506 74.4237 122.732 75.4354 120.475 79.145C118.218 82.8547 112.125 90.9484 112.125 90.9484L110.319 87.576C110.319 87.576 112.463 76.8968 116.187 74.6485L115.735 58.4611L124.311 61.2714Z" fill="#FBBEBE"/>
<path opacity="0.1" d="M124.311 61.2714L122.506 74.4237C122.506 74.4237 122.732 75.4354 120.475 79.145C118.218 82.8547 112.125 90.9484 112.125 90.9484L110.319 87.576C110.319 87.576 112.463 76.8968 116.187 74.6485L115.735 58.4611L124.311 61.2714Z" fill="black"/>
<path d="M110.319 86.2271L112.802 90.9484C112.802 90.9484 110.77 96.6814 111.56 97.2435C112.35 97.8056 113.366 102.864 111.222 102.302C109.078 101.74 107.385 99.4918 107.385 99.1545C107.385 98.8173 108.627 94.0959 107.949 92.9718C107.272 91.8477 106.821 91.5104 106.821 91.5104L105.128 94.3208L104.564 93.9835L107.385 89.2622C107.385 89.2622 107.724 88.3629 109.078 87.8008L110.319 86.2271Z" fill="#2F2E41"/>
<path opacity="0.1" d="M110.319 86.2271L112.802 90.9484C112.802 90.9484 110.77 96.6814 111.56 97.2435C112.35 97.8056 113.366 102.864 111.222 102.302C109.078 101.74 107.385 99.4918 107.385 99.1545C107.385 98.8173 108.627 94.0959 107.949 92.9718C107.272 91.8477 106.821 91.5104 106.821 91.5104L105.128 94.3208L104.564 93.9835L107.385 89.2622C107.385 89.2622 107.724 88.3629 109.078 87.8008L110.319 86.2271Z" fill="black"/>
<path d="M115.762 59.4053C115.762 59.4053 116.638 71.8382 114.72 75.0982V91.2856L112.125 91.6229C112.125 91.6229 107.724 82.8547 109.642 74.4237C111.56 65.9927 106.821 58.4611 106.821 58.4611L115.762 59.4053Z" fill="#FBBEBE"/>
<path d="M115.115 18.8355C117.732 18.8355 119.854 16.7217 119.854 14.1142C119.854 11.5066 117.732 9.39282 115.115 9.39282C112.497 9.39282 110.375 11.5066 110.375 14.1142C110.375 16.7217 112.497 18.8355 115.115 18.8355Z" fill="#FBBEBE"/>
<path d="M119.911 26.5358L115.171 20.5779L112.463 18.7793L111.335 20.2407L108.175 21.14C108.175 21.14 106.144 21.5896 104 24.0627C101.856 26.5358 98.0194 27.9972 98.0194 27.9972L94.8598 27.4351C94.8598 27.4351 91.1361 25.7489 91.1361 25.2992C91.1361 24.8496 87.8636 28.3344 88.6535 29.6834C89.4434 31.0323 91.136 32.7185 92.0388 33.6178C92.9415 34.5171 93.28 37.1026 98.8093 36.3157C104.339 35.5288 106.37 32.8309 106.37 32.8309C106.37 32.8309 107.385 38.0019 110.319 39.0136C113.253 40.0253 122.845 40.6998 122.845 40.6998L124.876 33.955C124.876 33.955 127.133 31.0323 124.086 26.7606C124.086 26.7606 124.027 24.3716 123.7 22.7818C123.572 22.1635 123.404 21.6661 123.183 21.4772C122.393 20.8027 118.218 19.6786 118.218 19.6786C118.218 19.6786 118.895 21.9269 119.234 22.0393C119.572 22.1517 120.362 25.9737 119.911 26.5358Z" fill="#6C63FF"/>
<path d="M104.733 60.0911C110.416 59.6976 113.725 60.625 115.201 61.3321C115.475 61.4558 115.733 61.6121 115.97 61.7975C116.078 61.8886 116.13 61.9594 116.13 62.0021C116.13 62.3393 123.916 63.0138 126.737 62.3393C129.558 61.6649 124.819 47.1636 123.578 45.9271C122.337 44.6905 123.006 40.1648 123.006 40.1648C123.006 40.1648 120.531 39.6319 119.854 39.8568C119.177 40.0816 115.679 39.5195 114.438 38.845C113.196 38.1706 111.617 38.6202 110.601 38.3954C110.147 38.2953 109.918 38.464 109.804 38.682C109.627 39.0092 109.359 39.2788 109.033 39.4588C106.637 40.8336 104.714 50.3393 103.266 55.5946C101.687 61.3276 104.733 60.0911 104.733 60.0911Z" fill="#2F2E41"/>
<path d="M115.171 90.2739L115.623 92.747C115.623 92.747 117.992 96.1194 117.315 98.9297C117.315 98.9297 117.879 102.639 119.911 103.651C121.942 104.663 120.249 107.023 118.331 106.911C116.413 106.799 114.607 107.023 114.381 106.461C114.156 105.899 112.802 100.391 112.802 100.391L112.431 106.837L111.303 106.949L111.673 99.4918C111.673 99.4918 110.77 97.8056 112.012 94.9953L111.698 90.6815C111.698 90.6815 114.833 91.3981 115.171 90.2739Z" fill="#2F2E41"/>
<path opacity="0.1" d="M115.201 61.3321C115.475 61.4558 115.733 61.6121 115.97 61.7975C116.03 60.7352 116.375 54.3108 115.961 54.4142L115.201 61.3321Z" fill="black"/>
<path d="M113.153 7.61252C113.153 7.61252 113.1 7.32145 111.048 8.08831C108.995 8.85516 107.764 14.5142 108.791 17.8373C109.204 19.1764 108.868 20.142 108.319 20.8176C106.258 23.3527 107.069 27.1605 110.071 28.4641C110.156 28.5009 110.242 28.5373 110.33 28.5733L111.613 29.3401C111.613 29.3401 109.978 27.1963 110.796 24.454C111.507 22.1174 111.595 19.6367 111.051 17.2561C110.957 16.8545 110.85 16.4405 110.729 16.0181C109.703 12.4394 110.202 12.8527 113.794 9.27404C113.794 9.27404 115.847 10.8078 117.643 11.5746C119.439 12.3415 120.979 13.1083 119.696 15.6645C118.413 18.2207 115.334 20.5213 117.387 23.8443C119.439 27.1673 119.696 25.8893 119.439 27.1673L119.183 28.4454L120.722 26.9117L119.696 28.9567C119.696 28.9567 123.032 28.9567 124.058 26.4005L124.571 26.9117C124.571 26.9117 126.624 23.3331 122.775 20.01C122.775 20.01 121.492 19.2432 123.288 16.687C125.084 14.1308 123.705 8.63499 121.396 7.61251C119.086 6.59004 113.153 7.61252 113.153 7.61252Z" fill="#2F2E41"/>
<path d="M115.983 6.02667C117.302 6.02667 118.371 4.96158 118.371 3.64773C118.371 2.33388 117.302 1.2688 115.983 1.2688C114.664 1.2688 113.595 2.33388 113.595 3.64773C113.595 4.96158 114.664 6.02667 115.983 6.02667Z" fill="#2F2E41"/>
<path d="M113.117 2.37893C113.117 1.78921 113.337 1.22052 113.734 0.783174C114.131 0.34583 114.677 0.0710068 115.266 0.0120133C115.188 0.00423997 115.108 0 115.028 0C114.394 0 113.787 0.250636 113.339 0.696773C112.891 1.14291 112.64 1.748 112.64 2.37893C112.64 3.00987 112.891 3.61496 113.339 4.06109C113.787 4.50723 114.394 4.75787 115.028 4.75787C115.108 4.75787 115.188 4.75363 115.266 4.74585C114.677 4.68686 114.131 4.41203 113.734 3.97469C113.337 3.53735 113.117 2.96866 113.117 2.37893Z" fill="#2F2E41"/>
<path d="M85.0616 20.0854L84.7486 19.85C83.6356 18.9975 82.9018 18.4452 82.8348 17.6833C82.8196 17.5386 82.8336 17.3923 82.8761 17.2531C82.9186 17.1138 82.9887 16.9845 83.0822 16.8727C83.1758 16.761 83.2909 16.6691 83.4208 16.6024C83.5506 16.5358 83.6926 16.4957 83.8383 16.4847C84.0101 16.4707 84.1829 16.494 84.3447 16.5532C84.5066 16.6124 84.6535 16.7059 84.7754 16.8273C84.8743 16.6866 85.0028 16.5691 85.1518 16.4828C85.3009 16.3966 85.467 16.3437 85.6387 16.3278C85.784 16.3135 85.9308 16.3283 86.0703 16.3715C86.2098 16.4147 86.3392 16.4853 86.4508 16.5792C86.5625 16.673 86.654 16.7883 86.7202 16.918C86.7863 17.0478 86.8256 17.1895 86.8358 17.3346C86.9027 18.0965 86.2762 18.7673 85.3288 19.7994L85.0616 20.0854Z" fill="#FF6584"/>
<path d="M136.724 77.3425C138.233 77.3425 139.457 76.1235 139.457 74.6197C139.457 73.1159 138.233 71.8969 136.724 71.8969C135.214 71.8969 133.99 73.1159 133.99 74.6197C133.99 76.1235 135.214 77.3425 136.724 77.3425Z" fill="#F1F1F1"/>
<path d="M60.7781 18.8466C62.2877 18.8466 63.5114 17.6275 63.5114 16.1237C63.5114 14.6199 62.2877 13.4009 60.7781 13.4009C59.2686 13.4009 58.0449 14.6199 58.0449 16.1237C58.0449 17.6275 59.2686 18.8466 60.7781 18.8466Z" fill="#F1F1F1"/>
<path d="M34.2896 49.6631C35.7991 49.6631 37.0228 48.444 37.0228 46.9402C37.0228 45.4365 35.7991 44.2174 34.2896 44.2174C32.7801 44.2174 31.5564 45.4365 31.5564 46.9402C31.5564 48.444 32.7801 49.6631 34.2896 49.6631Z" fill="#F1F1F1"/>
</g>
<defs>
<clipPath id="clip0">
<rect width="143" height="107.25" fill="white"/>
</clipPath>
</defs>
</svg>
