<svg width="378" height="330" viewBox="0 0 378 330" fill="none" xmlns="http://www.w3.org/2000/svg">
<g clip-path="url(#clip0)">
<path d="M185.546 248.651C185.388 248.496 185.223 248.328 185.106 248.195C184.881 247.947 184.724 247.645 184.65 247.319H184.767L184.822 247.07C185.697 243.004 185.496 238.779 184.238 234.815C182.981 230.85 180.711 227.282 177.652 224.464C177.665 224.446 177.676 224.427 177.684 224.406C179.279 219.607 179.378 214.437 177.969 209.581C179.4 207.769 180.683 205.843 181.804 203.825C185.759 200.801 189.867 196.425 191.131 190.74C191.275 190.124 191.383 189.499 191.455 188.871C191.778 188.547 192.237 187.845 191.752 186.568C191.712 186.464 191.665 186.364 191.61 186.267C191.594 186.238 191.574 186.209 191.555 186.183C191.52 186.126 191.482 186.071 191.442 186.018L191.367 185.934C191.329 185.892 191.289 185.852 191.248 185.815L191.164 185.743L191.034 185.653L190.944 185.598L190.805 185.53L190.717 185.491L190.562 185.439L190.484 185.417C190.411 185.397 190.338 185.382 190.264 185.371C189.771 185.314 189.272 185.364 188.799 185.517C188.799 185.517 187.635 187.535 188.091 188.305C187.739 188.751 186.798 189.944 185.504 191.477C185.517 190.193 185.388 188.911 185.119 187.655C184.996 187.034 184.837 186.42 184.644 185.818C184.815 185.391 184.935 184.563 183.965 183.599C183.886 183.521 183.802 183.448 183.712 183.383L183.628 183.328C183.573 183.29 183.516 183.256 183.457 183.224L183.357 183.179C183.305 183.156 183.25 183.134 183.198 183.117L183.095 183.088L182.939 183.056H182.836H182.681H182.584L182.419 183.072H182.338C182.262 183.085 182.189 183.102 182.118 183.124C181.645 183.275 181.211 183.527 180.844 183.861C180.844 183.861 180.617 186.18 181.348 186.694C181.009 188.023 179.298 194.769 177.034 200.267C176.276 200.923 175.48 201.534 174.651 202.098V201.6C174.656 201.508 174.656 201.416 174.651 201.325V201.325C174.641 201.237 174.627 201.149 174.609 201.063L174.651 201.04L174.825 200.943L175.078 200.788L175.239 200.684C175.36 200.6 175.476 200.513 175.589 200.422L175.721 200.309C175.802 200.241 175.876 200.17 175.954 200.099L176.064 199.944C176.157 199.849 176.246 199.75 176.332 199.646L176.426 199.533C176.508 199.432 176.586 199.324 176.659 199.21L176.753 199.071C176.82 198.967 176.883 198.859 176.944 198.747L177.002 198.644C177.076 198.505 177.144 198.362 177.209 198.217L177.261 198.088C177.308 197.971 177.351 197.851 177.39 197.729C177.39 197.687 177.419 197.644 177.432 197.602C177.48 197.447 177.522 197.279 177.555 197.124C177.555 197.091 177.555 197.059 177.571 197.027C177.597 196.889 177.618 196.75 177.636 196.61C177.636 196.561 177.636 196.516 177.636 196.467C177.636 196.296 177.662 196.125 177.662 195.947C177.662 194.97 177.41 194.01 176.931 193.159L177.199 193.088L177.396 193.026C177.471 193 177.506 192.978 177.497 192.962C177.358 192.774 177.215 192.596 177.07 192.422L176.927 192.26C176.827 192.143 176.724 192.03 176.604 191.936L176.439 191.768C176.336 191.668 176.232 191.568 176.116 191.474L175.954 191.328C175.825 191.215 175.695 191.112 175.563 191.005L175.479 190.937C175.32 190.821 175.155 190.711 175.003 190.614L174.822 190.504C174.719 190.439 174.612 190.378 174.499 190.319L174.288 190.21L173.994 190.067L173.778 189.97C173.674 189.928 173.567 189.886 173.454 189.851L173.257 189.779C173.098 189.728 172.933 189.682 172.781 189.64L172.536 189.585L172.274 189.53L172.009 189.488L171.766 189.459L171.494 189.437H171.258H170.987C170.836 189.437 170.686 189.444 170.537 189.459C167.018 189.747 163.94 192.819 163.94 197.699V201.755H169.437V203.592C168.449 204.048 167.612 204.778 167.025 205.695C166.438 206.612 166.126 207.678 166.126 208.766V224.409L161.511 245.851H161.488V245.909L160.583 249.945L167.442 251.041C167.521 251.011 167.585 250.953 167.625 250.879C167.665 250.805 167.677 250.719 167.659 250.637C167.646 250.526 167.619 250.417 167.578 250.313C167.468 250.047 167.337 249.79 167.187 249.544C166.944 249.127 166.656 248.68 166.462 248.276C166.362 248.07 166.287 247.853 166.239 247.629C166.216 247.514 166.201 247.397 166.194 247.28L171.242 230.69H171.219L171.339 230.298C171.339 230.298 177.781 233.06 179.424 238.58C180.766 243.056 179.932 245.957 179.57 246.895H179.547V246.95C179.476 247.128 179.424 247.228 179.424 247.228H179.547V250.265H186.51C187.04 249.997 186.232 249.321 185.546 248.651Z" fill="url(#paint0_linear)"/>
<path d="M174.033 215.904C174.033 215.904 186.044 203.275 182.118 191.138L178.968 191.784C178.968 191.784 174.741 209.572 170.236 212.123C165.731 214.675 174.033 215.904 174.033 215.904Z" fill="#6C63FF"/>
<path opacity="0.05" d="M174.033 215.904C174.033 215.904 186.044 203.275 182.118 191.138L178.968 191.784C178.968 191.784 174.741 209.572 170.236 212.123C165.731 214.675 174.033 215.904 174.033 215.904Z" fill="black"/>
<path opacity="0.2" d="M181.64 191.419L182.163 191.312C186.077 203.45 174.078 216.078 174.078 216.078L173.71 216.017C175.094 214.497 185.291 202.738 181.64 191.419Z" fill="white"/>
<path d="M181.976 191.455C181.976 191.455 182.849 190.368 181.481 189.006C180.113 187.645 178.438 189.259 178.438 189.259C178.438 189.259 178.198 191.674 179.004 192.056C179.809 192.438 181.976 191.455 181.976 191.455Z" fill="#985454"/>
<path opacity="0.2" d="M181.623 191.535C181.623 191.535 182.496 190.449 181.128 189.087C180.945 188.89 180.717 188.738 180.463 188.645C180.21 188.553 179.938 188.521 179.67 188.554C179.984 188.45 180.321 188.439 180.641 188.521C180.962 188.603 181.252 188.775 181.478 189.016C182.846 190.378 181.973 191.464 181.973 191.464C181.328 191.753 180.653 191.97 179.961 192.111C180.53 191.966 181.086 191.773 181.623 191.535V191.535Z" fill="white"/>
<path d="M307.374 35H65.6584C60.7467 35 56.7649 38.9818 56.7649 43.8935V183.861C56.7649 188.773 60.7467 192.755 65.6584 192.755H307.374C312.286 192.755 316.268 188.773 316.268 183.861V43.8935C316.268 38.9818 312.286 35 307.374 35Z" fill="url(#paint1_linear)"/>
<path d="M303.6 36.6073H68.6044C63.6927 36.6073 59.7109 40.5891 59.7109 45.5008V179.738C59.7109 184.65 63.6927 188.631 68.6044 188.631H303.6C308.512 188.631 312.494 184.65 312.494 179.738V45.5008C312.494 40.5891 308.512 36.6073 303.6 36.6073Z" fill="white"/>
<path d="M86.8185 60.471H79.4514V81.3885H86.8185V60.471Z" fill="#0BC6A0"/>
<path d="M96.2455 60.471H88.8784V81.3885H96.2455V60.471Z" fill="#0BC6A0"/>
<path d="M105.673 60.471H98.3057V81.3885H105.673V60.471Z" fill="#0BC6A0"/>
<path d="M122.172 60.471H114.805V81.3885H122.172V60.471Z" fill="#0BC6A0"/>
<path d="M131.6 60.471H124.233V81.3885H131.6V60.471Z" fill="#0BC6A0"/>
<path d="M141.027 60.471H133.66V81.3885H141.027V60.471Z" fill="#0BC6A0"/>
<path d="M157.527 60.471H150.16V81.3885H157.527V60.471Z" fill="#0BC6A0"/>
<path d="M166.954 60.471H159.587V81.3885H166.954V60.471Z" fill="#0BC6A0"/>
<path d="M176.381 60.471H169.014V81.3885H176.381V60.471Z" fill="#0BC6A0"/>
<path d="M192.881 60.471H185.514V81.3885H192.881V60.471Z" fill="#0BC6A0"/>
<path d="M202.308 60.471H194.941V81.3885H202.308V60.471Z" fill="#0BC6A0"/>
<path d="M211.735 60.471H204.368V81.3885H211.735V60.471Z" fill="#0BC6A0"/>
<path d="M143.679 165.945H79.4514V175.372H143.679V165.945Z" fill="#BDBDBD"/>
<path d="M190.818 150.037H79.4514V159.464H190.818V150.037Z" fill="#E0E0E0"/>
<path d="M262.577 114.333C262.568 114.129 262.6 113.925 262.671 113.733C262.741 113.541 262.849 113.364 262.988 113.214C263.127 113.064 263.294 112.943 263.48 112.857C263.666 112.772 263.867 112.724 264.071 112.716H266.293V99.4569H246.501V114.721H262.58L262.577 114.333Z" fill="url(#paint2_linear)"/>
<path d="M264.071 128.66C263.866 128.652 263.665 128.605 263.48 128.519C263.294 128.434 263.126 128.312 262.988 128.162C262.849 128.012 262.741 127.836 262.67 127.644C262.6 127.451 262.568 127.247 262.577 127.043V126.655H246.497V141.919H266.293V128.66H264.071Z" fill="url(#paint3_linear)"/>
<path d="M262.577 116.714H246.497V124.679H262.577V116.714Z" fill="url(#paint4_linear)"/>
<path d="M271.855 127.056C271.864 127.26 271.832 127.464 271.761 127.657C271.691 127.849 271.583 128.025 271.444 128.175C271.306 128.325 271.138 128.447 270.952 128.532C270.766 128.618 270.566 128.665 270.361 128.673H268.146V141.932H287.938V126.668H271.855V127.056Z" fill="url(#paint5_linear)"/>
<path d="M268.142 99.4569V112.716H270.358C270.562 112.724 270.763 112.772 270.949 112.857C271.135 112.943 271.302 113.064 271.441 113.214C271.58 113.364 271.688 113.541 271.758 113.733C271.829 113.925 271.86 114.129 271.852 114.333V114.721H287.931V99.4569H268.142Z" fill="url(#paint6_linear)"/>
<path d="M287.934 116.714H271.855V124.679H287.934V116.714Z" fill="url(#paint7_linear)"/>
<path d="M262.645 114.485C262.646 114.108 262.796 113.746 263.064 113.479C263.331 113.212 263.693 113.062 264.071 113.062H266.186V101.278H247.306V114.831H262.645V114.485Z" fill="#6C63FF"/>
<path d="M264.071 127.201C263.693 127.201 263.331 127.052 263.064 126.785C262.796 126.518 262.646 126.156 262.645 125.778V125.436H247.306V138.989H266.183V127.201H264.071Z" fill="#6C63FF"/>
<path d="M262.645 116.597H247.306V123.667H262.645V116.597Z" fill="#6C63FF"/>
<path d="M271.493 125.778C271.492 126.156 271.341 126.518 271.074 126.785C270.807 127.052 270.444 127.201 270.067 127.201H267.952V138.986H286.829V125.436H271.493V125.778Z" fill="#6C63FF"/>
<path d="M267.955 101.278V113.062H270.07C270.448 113.062 270.81 113.212 271.077 113.479C271.345 113.746 271.495 114.108 271.496 114.485V114.828H286.835V101.278H267.955Z" fill="#6C63FF"/>
<path d="M286.832 116.597H271.493V123.667H286.832V116.597Z" fill="#6C63FF"/>
<g opacity="0.2">
<path opacity="0.2" d="M56.4802 177.131L56.5094 177.034C56.5094 177.034 56.1504 176.982 56.4802 177.131Z" fill="url(#paint8_linear)"/>
</g>
<g opacity="0.2">
<path opacity="0.2" d="M89.8519 183.069C89.8179 182.958 89.7757 182.85 89.7257 182.745C89.7257 182.713 89.6902 182.684 89.674 182.652C89.6416 182.589 89.606 182.529 89.5673 182.471C89.5446 182.438 89.5188 182.409 89.4961 182.377C89.4596 182.33 89.4207 182.284 89.3797 182.241L89.2956 182.16C89.2536 182.121 89.2115 182.086 89.1662 182.053L89.0757 181.989L88.9334 181.905L88.8428 181.856L88.6811 181.788L88.6003 181.756C88.5227 181.73 88.4461 181.708 88.3707 181.691C87.8551 181.593 87.3246 181.608 86.8151 181.733C86.8151 181.733 85.3307 183.923 85.9031 184.708L85.7156 184.65C85.7156 184.65 74.6908 196.939 68.4719 199.236C68.3123 199.128 68.1474 199.026 67.9771 198.932V196.632C67.9821 196.536 67.9821 196.44 67.9771 196.344C67.9667 196.252 67.9516 196.16 67.9318 196.07L67.9771 196.044L68.1614 195.94L68.4298 195.778L68.6012 195.668C68.7284 195.58 68.8524 195.487 68.9731 195.39L69.1122 195.271C69.1963 195.2 69.2771 195.125 69.358 195.048L69.5003 194.908C69.5995 194.807 69.6943 194.699 69.7849 194.585L69.8851 194.462C69.9714 194.357 70.0533 194.249 70.1309 194.139L70.2312 193.99C70.3023 193.882 70.3702 193.774 70.4349 193.667L70.4964 193.557C70.574 193.411 70.6483 193.259 70.713 193.104L70.768 192.968C70.8176 192.843 70.8639 192.717 70.9071 192.59C70.9071 192.544 70.9362 192.502 70.9523 192.457C71.0041 192.292 71.0461 192.134 71.0817 191.953C71.0817 191.92 71.0817 191.885 71.1011 191.849C71.1291 191.705 71.1518 191.558 71.169 191.409C71.169 191.361 71.169 191.309 71.169 191.261C71.1852 191.079 71.1981 190.895 71.1981 190.711C71.2 189.332 70.7272 187.995 69.8593 186.924C70.3314 186.186 70.6386 185.753 70.6386 185.753C70.3541 185.559 70.0759 185.378 69.7978 185.21L69.5294 185.051C69.345 184.941 69.1575 184.831 68.9764 184.728L68.653 184.563C68.488 184.476 68.3296 184.392 68.1582 184.311L67.8348 184.165C67.6763 184.094 67.5114 184.023 67.3658 183.961L67.0424 183.839C66.8872 183.777 66.719 183.722 66.5767 183.67L66.2857 183.573C66.1272 183.522 65.9623 183.48 65.8103 183.438L65.5516 183.366C65.3737 183.324 65.1991 183.286 65.0244 183.253L64.8368 183.214C64.6008 183.172 64.3647 183.14 64.1318 183.117C62.6886 182.964 61.2302 183.187 59.8985 183.764C59.9697 182.07 60.2543 180.676 60.8493 179.812L60.7038 179.764L60.652 179.812C60.652 179.812 60.4774 179.851 60.209 179.9C60.1231 180.038 60.0464 180.181 59.9794 180.33C60.0983 179.731 60.3275 179.16 60.6553 178.645L60.5098 178.596C60.72 178.383 61.4799 177.448 60.458 175.922C59.2905 174.172 57.1496 175.534 57.1496 175.534C56.9836 176.11 56.8753 176.702 56.8262 177.299C56.6613 177.235 56.5481 177.183 56.4705 177.144C55.4453 180.76 54.8867 184.492 54.8082 188.25C50.9533 193.725 49.3557 201.807 49.0452 203.55L49.0226 203.689C48.9999 203.815 48.9902 203.883 48.9902 203.883L59.0156 204.116C59.0156 204.151 59.0156 204.184 59.0156 204.219V220.092L51.7003 235.518C51.7003 235.518 54.4654 235.618 58.6696 236.165L57.5151 244.418L57.1302 246.733H64.0769C64.8498 245.191 60.9884 244.418 60.9884 244.418H60.9011L62.4081 236.718C63.0743 236.83 63.7588 236.953 64.4617 237.086C65.4933 237.285 66.5389 237.403 67.589 237.439C68.4584 237.469 69.3289 237.431 70.1924 237.326C70.7001 241.501 70.0339 243.994 69.9045 244.421H69.8625L69.4776 246.737H76.4243C77.0969 245.391 74.2478 244.631 73.5137 244.473L73.546 244.246C73.9041 241.642 73.9962 239.008 73.8209 236.385C74.7145 236.021 75.5476 235.524 76.2917 234.91V234.91L76.3887 234.826L76.4178 234.797L71.2434 220.286C72.2136 216.179 68.8438 211.877 70.6419 209.707C72.44 207.537 71.3372 204.798 71.1399 204.329C75.9909 202.208 85.8191 196.891 88.5744 187.684C88.7766 187.036 88.9407 186.378 89.066 185.711C89.066 185.711 90.4566 185.084 89.8519 183.069Z" fill="url(#paint9_linear)"/>
</g>
<path d="M57.583 179.828C57.583 179.828 52.3148 196.441 61.1404 205.639L63.6921 203.699C63.6921 203.699 58.4724 185.565 61.3927 181.306C56.2441 179.57 57.583 179.828 57.583 179.828Z" fill="#FF5252"/>
<path d="M61.2244 181.293C61.2244 181.293 62.2949 180.401 61.2244 178.793C60.154 177.186 58.1909 178.438 58.1909 178.438C58.1909 178.438 57.4762 180.756 58.1909 181.293C58.9057 181.83 61.2244 181.293 61.2244 181.293Z" fill="#F6B9AD"/>
<path d="M65.3802 202.712H65.8103C67.0713 202.712 68.0935 201.69 68.0935 200.429V197.59C68.0935 196.329 67.0713 195.306 65.8103 195.306H65.3802C64.1192 195.306 63.097 196.329 63.097 197.59V200.429C63.097 201.69 64.1192 202.712 65.3802 202.712Z" fill="#F6B9AD"/>
<path opacity="0.2" d="M63.3429 204.756C63.3429 204.756 58.1879 186.846 60.995 182.441C61.244 182.396 61.4025 182.361 61.4025 182.361L61.4478 182.315L61.5804 182.361C58.6698 186.62 63.8798 204.753 63.8798 204.753L61.3281 206.693L61.105 206.454L63.3429 204.756Z" fill="white"/>
<path d="M65.5063 197.894C68.5623 197.894 71.0397 195.416 71.0397 192.36C71.0397 189.304 68.5623 186.827 65.5063 186.827C62.4503 186.827 59.9729 189.304 59.9729 192.36C59.9729 195.416 62.4503 197.894 65.5063 197.894Z" fill="#F6B9AD"/>
<path opacity="0.2" d="M67.4694 200.212V197.803C67.4686 197.627 67.4491 197.451 67.4112 197.279C68.4898 196.723 69.3557 195.828 69.8756 194.731C70.3954 193.635 70.5404 192.398 70.2883 191.211C70.0361 190.024 69.4007 188.953 68.4799 188.162C67.5592 187.372 66.4041 186.906 65.1926 186.836H65.516C66.7532 186.841 67.9532 187.26 68.9242 188.027C69.8952 188.793 70.5813 189.863 70.8728 191.066C71.1644 192.268 71.0446 193.533 70.5326 194.66C70.0206 195.786 69.1459 196.708 68.0483 197.279C68.0862 197.451 68.1057 197.627 68.1065 197.803V200.212C68.1092 200.567 68.0355 200.919 67.8906 201.243C67.7456 201.568 67.5327 201.857 67.2663 202.092C66.9998 202.327 66.686 202.502 66.3461 202.605C66.0062 202.708 65.6482 202.737 65.2961 202.69C65.8966 202.609 66.4476 202.314 66.8471 201.858C67.2467 201.403 67.4677 200.818 67.4694 200.212V200.212Z" fill="white"/>
<path d="M59.8857 219.933C59.8857 219.933 70.558 221.14 70.9525 219.933C72.2267 216.03 68.8116 211.826 70.5256 209.769C72.2978 207.644 70.9525 204.766 70.9525 204.766C70.9525 204.039 70.8094 203.32 70.5313 202.648C70.2532 201.977 69.8456 201.367 69.3318 200.853C68.818 200.339 68.208 199.932 67.5367 199.654C66.8653 199.376 66.1458 199.232 65.4191 199.232V199.232C64.6925 199.232 63.9729 199.376 63.3016 199.654C62.6302 199.932 62.0203 200.339 61.5064 200.853C60.9926 201.367 60.585 201.977 60.3069 202.648C60.0289 203.32 59.8857 204.039 59.8857 204.766V219.933Z" fill="#FF5252"/>
<path opacity="0.2" d="M70.5384 209.769C72.3106 207.644 70.9653 204.766 70.9653 204.766C70.9653 204.039 70.8222 203.32 70.5441 202.648C70.266 201.977 69.8584 201.367 69.3446 200.853C68.8308 200.339 68.2208 199.932 67.5494 199.654C66.8781 199.376 66.1586 199.232 65.4319 199.232C65.3123 199.232 65.1958 199.232 65.0762 199.252C66.4778 199.341 67.7928 199.961 68.7539 200.985C69.715 202.01 70.2502 203.361 70.2506 204.766C70.2506 204.766 71.5959 207.644 69.8237 209.769C68.1064 211.829 71.5215 216.033 70.2506 219.933C70.1277 220.305 69.0281 220.447 67.5664 220.467C69.3709 220.486 70.8198 220.363 70.9588 219.933C72.2524 216.03 68.8244 211.826 70.5384 209.769Z" fill="white"/>
<path d="M68.6951 219.581C72.5985 225.104 74.3126 233.445 73.2001 241.472L73.1677 241.711H69.8335C69.8335 241.711 70.8651 238.678 69.8335 233.322C69.1992 230.115 67.4025 227.255 64.7884 225.292L61.5803 241.711H58.4854L61.5803 219.581H68.6951Z" fill="#F6B9AD"/>
<path d="M87.4523 187.752C87.4523 187.752 88.7459 187.212 88.1832 185.362C87.6205 183.512 85.3858 184.133 85.3858 184.133C85.3858 184.133 84.0243 186.141 84.5482 186.862C85.0721 187.584 87.4523 187.752 87.4523 187.752Z" fill="#F6B9AD"/>
<path d="M68.5139 205.655C68.5139 205.655 85.0914 200.283 87.4523 187.752L84.3799 186.811C84.3799 186.811 72.1781 200.432 67.0166 200.529C61.8551 200.626 68.5139 205.655 68.5139 205.655Z" fill="#FF5252"/>
<path opacity="0.2" d="M86.8767 187.765L87.3877 187.923C85.0398 200.458 68.4591 205.83 68.4591 205.83L68.1648 205.6C70.1149 204.915 84.6873 199.456 86.8767 187.765Z" fill="white"/>
<g opacity="0.2">
<path opacity="0.2" d="M64.0803 225.289L60.8689 241.708H61.5804L64.698 225.767C64.5003 225.597 64.2942 225.438 64.0803 225.289V225.289Z" fill="white"/>
<path opacity="0.2" d="M68.6951 219.581H67.9868C71.8903 225.104 73.6043 233.445 72.4918 241.472L72.4594 241.711H73.1677L73.2 241.472C74.3061 233.445 72.5759 225.101 68.6951 219.581Z" fill="white"/>
</g>
<path opacity="0.2" d="M87.0999 187.655C87.0999 187.655 88.3935 187.115 87.8308 185.265C87.7642 185.003 87.6365 184.761 87.4584 184.558C87.2802 184.355 87.0565 184.197 86.8056 184.097C87.1307 184.156 87.4322 184.307 87.6746 184.531C87.917 184.756 88.0901 185.045 88.1736 185.365C88.7266 187.215 87.4427 187.755 87.4427 187.755C86.7384 187.701 86.0422 187.569 85.3665 187.364C85.9352 187.509 86.515 187.606 87.0999 187.655V187.655Z" fill="white"/>
<path d="M59.8857 219.328L53.1719 233.497C57.0963 233.692 61.002 234.166 64.8596 234.913C72.2978 236.33 75.839 232.788 75.839 232.788L71.043 219.332L59.8857 219.328Z" fill="#263238"/>
<path d="M61.6709 241.643C61.6709 241.643 65.2283 242.351 64.5039 243.768H58.1296L58.4854 241.643H61.6709Z" fill="#FF5252"/>
<path d="M73.0027 241.643C73.0027 241.643 76.5601 242.351 75.8356 243.768H69.4614L69.8172 241.643H73.0027Z" fill="#FF5252"/>
<path d="M70.5255 187.81C70.5255 187.81 62.0234 199.85 65.9203 204.795L50.6914 204.439C50.6914 204.439 54.9409 177.186 70.5255 187.81Z" fill="#FCCC63"/>
<path opacity="0.2" d="M70.5255 187.81C68.3296 186.312 66.3601 185.569 64.5943 185.394C66.0805 185.861 67.4847 186.558 68.7565 187.457C68.7565 187.457 60.2575 199.498 64.1513 204.458L50.7463 204.135C50.7108 204.336 50.6946 204.458 50.6946 204.458L65.9235 204.814C62.0233 199.85 70.5255 187.81 70.5255 187.81Z" fill="white"/>
<path opacity="0.2" d="M71.0397 219.328H69.9887L74.7847 232.785C74.7847 232.785 72.495 235.068 67.7378 235.233C73.2162 235.408 75.8454 232.785 75.8454 232.785L71.0397 219.328Z" fill="white"/>
<path opacity="0.2" d="M61.6709 241.643H60.9626C60.9626 241.643 64.5201 242.351 63.7956 243.768H64.4909C65.2121 242.351 61.6709 241.643 61.6709 241.643Z" fill="white"/>
<path opacity="0.2" d="M73.0027 241.643H72.2944C72.2944 241.643 75.8518 242.351 75.1274 243.768H75.8357C76.5439 242.351 73.0027 241.643 73.0027 241.643Z" fill="white"/>
<g opacity="0.2">
<path opacity="0.2" d="M315.686 181.601L315.718 181.678C315.977 181.51 315.686 181.601 315.686 181.601Z" fill="url(#paint10_linear)"/>
</g>
<g opacity="0.2">
<path opacity="0.2" d="M319.757 241.016L325.375 239.399L324.181 236.01L324.165 235.961H324.146L317.885 217.796L316.268 204.197C316.248 204.024 316.218 203.852 316.181 203.682C321.294 194.925 316.181 182.736 315.725 181.675C315.666 181.714 315.576 181.766 315.446 181.837C315.345 181.35 315.196 180.874 315 180.417C315 180.417 313.108 179.505 312.319 181.064C311.63 182.419 312.342 183.114 312.539 183.269L312.426 183.324C312.745 183.716 312.988 184.163 313.144 184.644C313.073 184.531 312.996 184.423 312.911 184.32C312.685 184.32 312.536 184.291 312.536 184.291L312.491 184.256L312.377 184.311C313.092 185.129 313.49 186.665 313.671 188.544C313.429 188.278 313.164 188.033 312.879 187.813C311.641 186.883 310.103 186.445 308.561 186.584V186.584L308.28 186.617C308.12 186.638 307.963 186.667 307.808 186.704L307.691 186.73L307.494 186.782L307.268 186.853L307.106 186.908L306.828 187.018L306.724 187.063C306.611 187.115 306.498 187.17 306.401 187.228C306.038 187.461 305.651 187.655 305.246 187.807C305.191 187.823 305.133 187.833 305.078 187.846C304.612 187.934 304.129 187.856 303.713 187.626L303.574 187.542C303.521 187.506 303.469 187.469 303.419 187.428C303.39 187.557 303.39 187.691 303.419 187.82C303.482 188.127 303.663 188.396 303.924 188.57C303.996 188.62 304.074 188.661 304.157 188.693C304.279 188.74 304.41 188.761 304.541 188.754C304.586 188.752 304.63 188.747 304.674 188.738L304.642 188.757C304.564 188.806 304.486 188.851 304.406 188.89H304.389C304.302 188.932 304.215 188.971 304.127 189.007C303.68 189.178 303.198 189.242 302.721 189.194V189.194L302.565 189.175C302.488 189.175 302.41 189.152 302.336 189.133C302.366 189.183 302.398 189.231 302.433 189.278L302.468 189.32L302.543 189.411L302.585 189.456L302.666 189.537L302.711 189.579L302.808 189.657L302.847 189.686L302.989 189.779L303.038 189.805L303.141 189.86L303.209 189.889L303.3 189.928L303.374 189.954L303.464 189.983L303.539 190.006L303.642 190.028L303.768 190.051H303.862H303.953H304.205H304.299H304.376H304.467C304.646 190.014 304.819 189.95 304.978 189.86C304.878 189.922 304.774 189.977 304.655 190.032L304.499 190.109L304.338 190.187L304.179 190.258L304.014 190.326L303.856 190.387L303.684 190.449L303.526 190.501L303.345 190.556L303.193 190.598L302.996 190.646L302.853 190.678L302.627 190.721L302.507 190.74L302.164 190.785C302.366 190.818 302.559 190.892 302.73 191.002C302.84 191.062 302.958 191.108 303.08 191.138C303.133 191.141 303.187 191.141 303.241 191.138H303.442H303.574L303.746 191.115H303.875H304.03C304.356 191.109 304.679 191.172 304.978 191.299C305.136 191.374 305.281 191.473 305.408 191.594C305.369 191.678 305.33 191.765 305.295 191.852C305.259 191.94 305.237 192.004 305.211 192.079C305.159 192.232 305.114 192.387 305.075 192.545C304.94 193.114 304.906 193.703 304.975 194.284C304.975 194.391 305.004 194.498 305.023 194.608L305.039 194.695C305.057 194.779 305.076 194.862 305.098 194.944V195.009C305.126 195.11 305.156 195.21 305.188 195.31L305.211 195.368C305.239 195.45 305.269 195.531 305.301 195.61L305.33 195.681C305.413 195.874 305.508 196.061 305.615 196.241L305.647 196.296C305.697 196.378 305.749 196.458 305.803 196.535V196.558C305.865 196.646 305.93 196.733 305.997 196.817V196.836C306.059 196.914 306.124 196.989 306.191 197.062L306.213 197.088C306.36 197.248 306.516 197.398 306.682 197.538V197.538C307.113 197.896 307.6 198.179 308.125 198.375C308.121 198.453 308.121 198.531 308.125 198.608V198.608C308.12 198.688 308.12 198.768 308.125 198.848L308.345 200.704C308.245 200.773 308.148 200.845 308.054 200.921C303.413 199.439 295.169 186.022 295.169 186.022L295.011 186.041C295.593 185.485 294.707 183.48 294.707 183.48C294.3 183.297 293.859 183.206 293.413 183.214H293.326H293.287H293.219H293.177H293.112H293.067H293.006H292.96L292.896 183.234H292.854L292.786 183.263H292.75L292.65 183.315L292.556 183.373L292.524 183.396L292.459 183.444L292.424 183.473L292.369 183.525L292.333 183.56L292.281 183.615L292.246 183.654L292.194 183.719L292.162 183.761L292.11 183.842L292.084 183.881C292.058 183.923 292.035 183.965 292.01 184.01C291.221 185.562 292.275 186.251 292.275 186.251C292.279 186.812 292.316 187.373 292.385 187.93C293.539 198.301 305.576 205.018 306.191 205.354C306.019 206.03 304.635 212.01 307.808 218.889C307.817 218.905 307.827 218.92 307.84 218.934C305.47 221.699 303.863 225.034 303.178 228.61C302.492 232.186 302.751 235.879 303.93 239.324L304.001 239.535H304.105C304.101 239.583 304.094 239.632 304.085 239.68C304.068 239.767 304.043 239.853 304.011 239.936C303.956 240.079 303.885 240.216 303.798 240.343C303.704 240.482 303.591 240.624 303.474 240.77L303.351 240.922C302.853 241.523 302.352 242.109 302.795 242.271L303.118 242.232L308.901 241.663L308.577 239.024H308.684C308.684 239.024 308.632 238.946 308.548 238.797V238.749H308.529C308.115 237.969 307.093 235.531 307.801 231.505C308.674 226.534 313.991 223.471 313.991 223.471L314.133 223.795H314.114L320.21 237.701C320.21 237.756 320.21 237.814 320.21 237.876C320.206 238.015 320.19 238.153 320.162 238.289C320.141 238.399 320.113 238.507 320.078 238.613C319.874 239.205 319.482 239.906 319.337 240.434C319.316 240.505 319.3 240.577 319.288 240.65C319.272 240.733 319.272 240.817 319.288 240.899C319.301 240.951 319.327 240.999 319.365 241.036C319.403 241.074 319.45 241.1 319.502 241.113V241.113L319.579 241.09L319.748 241.042L319.757 241.016ZM313.212 200.17C313.093 200.121 312.973 200.076 312.853 200.038L312.649 198.301C312.633 198.168 312.605 198.037 312.565 197.91C312.921 197.683 313.247 197.413 313.535 197.104C313.438 198.217 313.322 199.258 313.212 200.17Z" fill="url(#paint11_linear)"/>
</g>
<path d="M292.401 187.884C292.401 187.884 291.233 187.124 292.106 185.404C292.98 183.683 295.078 184.692 295.078 184.692C295.078 184.692 296.049 186.914 295.402 187.529C294.755 188.143 292.401 187.884 292.401 187.884Z" fill="#CA7070"/>
<path d="M310.369 245.909L305.482 246.484C305.524 246.711 305.516 246.943 305.46 247.166C305.404 247.389 305.302 247.598 305.159 247.778C304.59 248.616 303.377 249.689 304.037 249.929L310.741 249.136L310.369 245.909Z" fill="#00695C"/>
<path opacity="0.2" d="M305.524 247.752C305.667 247.572 305.77 247.363 305.826 247.14C305.881 246.917 305.889 246.685 305.848 246.459L305.492 246.501C305.533 246.727 305.526 246.959 305.47 247.182C305.414 247.405 305.311 247.614 305.169 247.794C304.599 248.632 303.387 249.705 304.046 249.945L304.402 249.903C303.746 249.663 304.958 248.59 305.524 247.752Z" fill="white"/>
<path d="M327.648 242.843L323.156 244.137C323.347 244.665 323.341 245.245 323.14 245.77C322.765 246.866 321.798 248.334 322.493 248.538L328.987 246.685L327.648 242.843Z" fill="#00695C"/>
<path d="M318.269 182.632C318.269 182.632 325.449 198.511 317.758 208.682L314.997 207.043C314.997 207.043 318.053 188.421 314.651 184.537C319.57 182.228 318.269 182.632 318.269 182.632Z" fill="#00695C"/>
<path d="M314.829 184.514C314.829 184.514 313.661 183.754 314.534 182.034C315.408 180.313 317.506 181.323 317.506 181.323C317.506 181.323 318.477 183.544 317.83 184.159C317.183 184.773 314.829 184.514 314.829 184.514Z" fill="#CA7070"/>
<path opacity="0.2" d="M323.496 245.728C323.697 245.203 323.702 244.623 323.512 244.095L327.667 242.901L327.648 242.846L323.156 244.14C323.347 244.669 323.341 245.248 323.14 245.773C322.765 246.869 321.798 248.338 322.493 248.541L322.765 248.464C322.241 248.16 323.133 246.776 323.496 245.728Z" fill="white"/>
<path d="M312.346 198.908L311.919 198.959C310.667 199.107 309.772 200.242 309.92 201.494L310.253 204.314C310.401 205.566 311.536 206.461 312.788 206.313L313.216 206.263C314.468 206.115 315.363 204.98 315.215 203.727L314.882 200.908C314.734 199.655 313.599 198.76 312.346 198.908Z" fill="#CA7070"/>
<path opacity="0.2" d="M315.476 208.064C315.476 208.064 318.493 189.673 315.191 185.633C314.939 185.633 314.777 185.601 314.777 185.601L314.725 185.562L314.599 185.62C318.001 189.501 314.945 208.126 314.945 208.126L317.707 209.766C317.772 209.678 317.836 209.591 317.898 209.5L315.476 208.064Z" fill="white"/>
<path d="M312.525 201.493C315.56 201.134 317.729 198.383 317.37 195.348C317.012 192.314 314.261 190.144 311.226 190.503C308.191 190.861 306.021 193.612 306.38 196.647C306.739 199.682 309.49 201.852 312.525 201.493Z" fill="#CA7070"/>
<path opacity="0.2" d="M310.844 204.035L310.563 201.642C310.544 201.467 310.544 201.29 310.563 201.115C309.427 200.689 308.462 199.903 307.817 198.875C307.171 197.848 306.882 196.637 306.992 195.429C307.102 194.221 307.606 193.083 308.427 192.189C309.247 191.296 310.339 190.697 311.533 190.484L311.21 190.51C309.98 190.657 308.834 191.213 307.957 192.089C307.081 192.964 306.523 194.109 306.374 195.339C306.225 196.569 306.493 197.813 307.135 198.873C307.777 199.932 308.757 200.746 309.916 201.182C309.897 201.358 309.897 201.534 309.916 201.71L310.198 204.103C310.236 204.456 310.351 204.797 310.533 205.102C310.715 205.407 310.96 205.669 311.252 205.872C311.545 206.074 311.877 206.211 312.227 206.273C312.576 206.336 312.935 206.322 313.28 206.234C312.677 206.221 312.099 205.992 311.652 205.588C311.205 205.184 310.918 204.633 310.844 204.035V204.035Z" fill="white"/>
<path d="M320.689 222.731C320.689 222.731 310.233 225.179 309.693 224.024C305.951 215.939 307.914 208.96 307.914 208.96C307.829 208.238 307.887 207.506 308.085 206.807C308.282 206.107 308.616 205.453 309.066 204.883C309.517 204.312 310.076 203.836 310.71 203.481C311.345 203.126 312.043 202.9 312.765 202.816V202.816C313.487 202.73 314.219 202.788 314.919 202.986C315.618 203.184 316.272 203.517 316.843 203.968C317.413 204.418 317.89 204.977 318.244 205.612C318.599 206.246 318.825 206.945 318.91 207.667L320.689 222.731Z" fill="#00695C"/>
<path d="M320.689 222.731L328.062 244.143L323.276 244.709L316.388 228.988C316.388 228.988 310.498 232.381 309.531 237.885C308.564 243.39 310.502 246.216 310.502 246.216L305.385 246.837L305.305 246.604C303.995 242.788 303.712 238.696 304.483 234.736C305.255 230.776 307.054 227.089 309.7 224.044" fill="#263238"/>
<path opacity="0.2" d="M310.32 223.956C306.579 215.871 308.542 208.892 308.542 208.892C308.377 207.497 308.75 206.091 309.584 204.96C310.418 203.829 311.652 203.058 313.034 202.803C312.914 202.803 312.798 202.803 312.678 202.832C311.956 202.916 311.257 203.143 310.623 203.497C309.988 203.852 309.43 204.328 308.979 204.899C308.529 205.47 308.195 206.123 307.997 206.823C307.8 207.523 307.742 208.254 307.827 208.976C307.827 208.976 305.864 215.949 309.606 224.04C309.796 224.451 311.258 224.403 313.06 224.17C311.604 224.322 310.485 224.312 310.32 223.956Z" fill="white"/>
<path d="M307.824 208.886C307.824 208.886 292.472 200.636 292.404 187.884L295.593 187.506C295.593 187.506 305.162 203.087 310.223 204.109C315.285 205.131 307.824 208.886 307.824 208.886Z" fill="#00695C"/>
<g opacity="0.2">
<path opacity="0.2" d="M316.533 229.373L323.295 244.806L324.004 244.722L317.115 229.001C317.115 229.001 316.895 229.121 316.533 229.373Z" fill="white"/>
<path opacity="0.2" d="M310.421 224.034L309.713 224.118C307.067 227.163 305.268 230.85 304.496 234.81C303.725 238.77 304.008 242.863 305.318 246.678L305.398 246.911L306.107 246.827L306.026 246.594C304.716 242.779 304.433 238.686 305.205 234.726C305.976 230.766 307.775 227.079 310.421 224.034V224.034Z" fill="white"/>
</g>
<path opacity="0.2" d="M292.954 187.997L292.424 188.059C292.491 200.811 307.843 209.061 307.843 209.061L308.167 208.886C306.394 207.87 293.019 199.892 292.954 187.997Z" fill="white"/>
<path d="M307.2 194.071C307.64 194.718 307.847 195.478 308.102 196.205C308.649 197.703 309.612 199.148 311.074 199.782C311.883 200.105 312.755 200.236 313.623 200.164C314.939 200.093 316.326 199.669 317.144 198.634C317.647 197.937 317.942 197.112 317.995 196.254C318.126 194.981 317.935 193.696 317.442 192.516C316.948 191.336 316.166 190.298 315.168 189.498C313.144 187.946 310.204 187.635 307.966 188.851C307.564 189.111 307.136 189.328 306.689 189.498C306.343 189.596 305.979 189.609 305.627 189.537C305.275 189.464 304.946 189.308 304.668 189.081C304.632 189.272 304.643 189.469 304.698 189.656C304.754 189.843 304.852 190.014 304.986 190.155C305.12 190.296 305.286 190.404 305.469 190.469C305.653 190.534 305.849 190.555 306.042 190.53C305.658 190.774 305.23 190.939 304.782 191.017C304.334 191.094 303.876 191.083 303.432 190.982C303.732 191.458 304.2 191.803 304.743 191.95C305.285 192.097 305.863 192.034 306.362 191.775C305.415 192.338 304.357 192.686 303.261 192.797C303.49 192.774 303.985 193.14 304.273 193.188C304.627 193.203 304.982 193.187 305.334 193.14C305.7 193.115 306.065 193.188 306.393 193.352C306.721 193.515 307 193.764 307.2 194.071V194.071Z" fill="#263238"/>
<g opacity="0.2">
<path opacity="0.2" d="M306.039 190.53C305.655 190.774 305.226 190.939 304.777 191.015C305.352 190.977 305.908 190.796 306.394 190.488C306.223 190.509 306.049 190.494 305.883 190.445C305.717 190.395 305.564 190.312 305.432 190.2C305.3 190.088 305.193 189.95 305.117 189.795C305.041 189.64 304.998 189.47 304.991 189.298C304.876 189.235 304.768 189.163 304.667 189.081C304.632 189.272 304.643 189.469 304.698 189.655C304.753 189.841 304.851 190.012 304.985 190.153C305.119 190.295 305.284 190.402 305.467 190.468C305.65 190.533 305.846 190.554 306.039 190.53V190.53Z" fill="white"/>
<path opacity="0.2" d="M307.041 189.456C307.489 189.286 307.917 189.069 308.318 188.809C308.962 188.463 309.661 188.234 310.385 188.133C309.538 188.204 308.715 188.447 307.966 188.848C307.564 189.108 307.136 189.325 306.689 189.495C306.627 189.514 306.562 189.524 306.501 189.537C306.684 189.533 306.865 189.506 307.041 189.456V189.456Z" fill="white"/>
<path opacity="0.2" d="M304.625 193.152C304.337 193.104 303.843 192.738 303.613 192.761C304.709 192.651 305.768 192.302 306.714 191.739C306.499 191.859 306.263 191.938 306.019 191.972C305.161 192.424 304.223 192.706 303.257 192.803C303.487 192.78 303.982 193.146 304.27 193.194C304.518 193.224 304.769 193.214 305.013 193.165C304.884 193.177 304.754 193.173 304.625 193.152V193.152Z" fill="white"/>
<path opacity="0.2" d="M313.978 200.122C313.11 200.194 312.238 200.063 311.429 199.74C309.968 199.093 309.004 197.661 308.457 196.163C308.192 195.436 307.998 194.666 307.555 194.029C307.355 193.721 307.076 193.472 306.747 193.309C306.419 193.145 306.052 193.072 305.686 193.097C305.509 193.1 305.333 193.117 305.159 193.146C305.217 193.146 305.272 193.146 305.333 193.146C305.7 193.12 306.066 193.193 306.395 193.357C306.723 193.521 307.002 193.77 307.203 194.077C307.642 194.724 307.849 195.484 308.105 196.212C308.651 197.709 309.615 199.155 311.077 199.789C311.885 200.112 312.758 200.242 313.625 200.17C313.829 200.17 314.036 200.138 314.243 200.109L313.978 200.122Z" fill="white"/>
<path opacity="0.2" d="M305.793 191.985C305.417 192.002 305.043 191.925 304.704 191.762C304.365 191.598 304.072 191.352 303.852 191.047C303.709 191.035 303.566 191.013 303.426 190.982C303.672 191.37 304.03 191.673 304.453 191.852C304.876 192.031 305.343 192.078 305.793 191.985V191.985Z" fill="white"/>
</g>
<path opacity="0.2" d="M292.757 187.842C292.757 187.842 291.589 187.082 292.462 185.362C292.574 185.115 292.743 184.899 292.955 184.73C293.167 184.561 293.416 184.445 293.681 184.392C293.351 184.392 293.028 184.486 292.749 184.664C292.471 184.841 292.249 185.095 292.11 185.394C291.233 187.115 292.404 187.875 292.404 187.875C293.106 187.952 293.814 187.952 294.516 187.875C293.93 187.913 293.341 187.902 292.757 187.842Z" fill="white"/>
<path d="M179.457 245.99H184.375C184.358 246.221 184.39 246.454 184.47 246.673C184.551 246.891 184.677 247.089 184.841 247.254C185.504 248.021 186.833 248.942 186.209 249.259H179.457V245.99Z" fill="#6C63FF"/>
<path opacity="0.2" d="M184.472 247.254C184.308 247.089 184.182 246.891 184.102 246.673C184.021 246.454 183.989 246.221 184.007 245.99H184.362C184.345 246.221 184.377 246.454 184.457 246.673C184.538 246.891 184.664 247.089 184.828 247.254C185.491 248.021 186.82 248.942 186.196 249.259H185.84C186.474 248.942 185.145 248.021 184.472 247.254Z" fill="white"/>
<path d="M161.935 244.974L166.546 245.728C166.421 246.274 166.495 246.848 166.757 247.345C167.258 248.389 168.374 249.731 167.711 250.019L161.045 248.942L161.935 244.974Z" fill="#6C63FF"/>
<path opacity="0.2" d="M166.401 247.351C166.14 246.855 166.065 246.281 166.191 245.734L161.922 245.036V244.981L166.534 245.734C166.408 246.281 166.482 246.855 166.744 247.351C167.245 248.396 168.361 249.738 167.698 250.026L167.42 249.98C167.934 249.618 166.88 248.347 166.401 247.351Z" fill="white"/>
<path d="M171.983 206.962H172.413C173.674 206.962 174.696 205.939 174.696 204.678V201.839C174.696 200.578 173.674 199.556 172.413 199.556H171.983C170.722 199.556 169.7 200.578 169.7 201.839V204.678C169.7 205.939 170.722 206.962 171.983 206.962Z" fill="#985454"/>
<path d="M172.109 202.143C175.165 202.143 177.642 199.666 177.642 196.61C177.642 193.554 175.165 191.076 172.109 191.076C169.053 191.076 166.575 193.554 166.575 196.61C166.575 199.666 169.053 202.143 172.109 202.143Z" fill="#985454"/>
<path opacity="0.2" d="M174.072 204.471V202.062C174.071 201.886 174.052 201.71 174.014 201.538C175.092 200.982 175.958 200.087 176.478 198.991C176.998 197.894 177.143 196.657 176.891 195.47C176.639 194.283 176.003 193.212 175.082 192.421C174.162 191.631 173.007 191.165 171.795 191.096H172.119C173.359 191.096 174.564 191.513 175.539 192.281C176.513 193.048 177.202 194.12 177.494 195.326C177.786 196.532 177.665 197.801 177.149 198.929C176.634 200.057 175.754 200.98 174.651 201.548C174.689 201.72 174.708 201.896 174.709 202.072V204.471C174.712 204.827 174.638 205.178 174.493 205.503C174.348 205.827 174.135 206.116 173.869 206.351C173.602 206.586 173.289 206.761 172.949 206.864C172.609 206.967 172.251 206.996 171.899 206.949C172.499 206.868 173.05 206.573 173.45 206.117C173.849 205.662 174.07 205.077 174.072 204.471V204.471Z" fill="white"/>
<path d="M166.488 224.199C166.488 224.199 177.16 225.405 177.555 224.199C180.32 215.723 177.555 209.028 177.555 209.028C177.555 208.302 177.412 207.582 177.134 206.911C176.856 206.239 176.448 205.629 175.934 205.116C175.42 204.602 174.81 204.194 174.139 203.916C173.468 203.638 172.748 203.495 172.021 203.495C170.559 203.495 169.156 204.074 168.119 205.105C167.082 206.137 166.496 207.537 166.488 208.999V224.199Z" fill="#6C63FF"/>
<path d="M166.488 224.199L161.669 246.329H166.488L171.485 229.91C171.485 229.91 177.733 232.588 179.337 237.94C180.941 243.292 179.337 246.329 179.337 246.329H184.511L184.563 246.09C185.416 242.147 185.217 238.048 183.987 234.206C182.756 230.364 180.537 226.913 177.552 224.199V224.199" fill="#263238"/>
<path opacity="0.2" d="M176.927 224.199C179.692 215.723 176.927 209.028 176.927 209.028C176.927 207.623 176.392 206.271 175.431 205.245C174.47 204.22 173.155 203.599 171.753 203.508C171.873 203.508 171.989 203.508 172.109 203.508C173.569 203.508 174.97 204.085 176.007 205.114C177.043 206.142 177.631 207.539 177.642 208.999C177.642 208.999 180.407 215.69 177.642 224.17C177.5 224.6 176.041 224.723 174.227 224.703C175.698 224.697 176.804 224.558 176.927 224.199Z" fill="white"/>
<g opacity="0.2">
<path opacity="0.2" d="M171.391 230.285L166.485 246.404H165.77L170.767 229.985C170.767 229.985 171.006 230.085 171.391 230.285Z" fill="white"/>
<path opacity="0.2" d="M176.837 224.273H177.552C180.537 226.987 182.756 230.438 183.987 234.281C185.217 238.123 185.416 242.221 184.563 246.164L184.511 246.404H183.796L183.848 246.164C184.701 242.221 184.503 238.123 183.272 234.281C182.041 230.438 179.822 226.987 176.837 224.273V224.273Z" fill="white"/>
</g>
<path d="M173.409 208.921C173.409 208.921 189.56 202.373 191.002 189.702L187.871 188.984C187.871 188.984 176.678 203.446 171.536 203.912C166.394 204.378 173.409 208.921 173.409 208.921Z" fill="#6C63FF"/>
<path opacity="0.2" d="M190.439 189.757L190.96 189.876C189.517 202.547 173.367 209.096 173.367 209.096L173.043 208.886C174.952 208.068 189.094 201.561 190.439 189.757Z" fill="white"/>
<path d="M190.73 189.918C190.73 189.918 191.972 189.288 191.29 187.483C190.607 185.679 188.412 186.458 188.412 186.458C188.412 186.458 187.196 188.56 187.765 189.243C188.334 189.925 190.73 189.918 190.73 189.918Z" fill="#985454"/>
<path opacity="0.2" d="M190.381 189.847C190.381 189.847 191.623 189.217 190.94 187.412C190.854 187.156 190.709 186.925 190.516 186.736C190.323 186.547 190.089 186.406 189.831 186.325C190.16 186.361 190.471 186.49 190.729 186.697C190.987 186.904 191.181 187.18 191.287 187.493C191.972 189.297 190.727 189.928 190.727 189.928C190.021 189.925 189.317 189.845 188.628 189.689C189.207 189.79 189.793 189.843 190.381 189.847V189.847Z" fill="white"/>
<path d="M172.507 194.769L172.183 202.208H164.376V198.282C164.376 190.352 172.759 187.341 177.48 193.715C177.597 193.87 172.507 194.769 172.507 194.769Z" fill="#263238"/>
<path opacity="0.2" d="M170.773 190.294C172.762 190.459 174.803 191.539 176.417 193.718C176.533 193.874 171.459 194.782 171.459 194.782L171.103 202.221H172.183L172.539 194.782C172.539 194.782 177.613 193.877 177.497 193.718C175.576 191.147 173.079 190.103 170.773 190.294Z" fill="white"/>
</g>
<path d="M94.1944 284.112C93.4157 284.112 92.7117 283.979 92.0824 283.712C91.4637 283.445 90.973 283.061 90.6104 282.56C90.2477 282.059 90.061 281.467 90.0504 280.784H92.4504C92.4824 281.243 92.6424 281.605 92.9304 281.872C93.229 282.139 93.6344 282.272 94.1464 282.272C94.669 282.272 95.0797 282.149 95.3784 281.904C95.677 281.648 95.8264 281.317 95.8264 280.912C95.8264 280.581 95.725 280.309 95.5224 280.096C95.3197 279.883 95.0637 279.717 94.7544 279.6C94.4557 279.472 94.0397 279.333 93.5064 279.184C92.781 278.971 92.189 278.763 91.7304 278.56C91.2824 278.347 90.893 278.032 90.5624 277.616C90.2424 277.189 90.0824 276.624 90.0824 275.92C90.0824 275.259 90.2477 274.683 90.5784 274.192C90.909 273.701 91.373 273.328 91.9704 273.072C92.5677 272.805 93.2504 272.672 94.0184 272.672C95.1704 272.672 96.1037 272.955 96.8184 273.52C97.5437 274.075 97.9437 274.853 98.0184 275.856H95.5544C95.533 275.472 95.3677 275.157 95.0584 274.912C94.7597 274.656 94.3597 274.528 93.8584 274.528C93.421 274.528 93.069 274.64 92.8024 274.864C92.5464 275.088 92.4184 275.413 92.4184 275.84C92.4184 276.139 92.5144 276.389 92.7064 276.592C92.909 276.784 93.1544 276.944 93.4424 277.072C93.741 277.189 94.157 277.328 94.6904 277.488C95.4157 277.701 96.0077 277.915 96.4664 278.128C96.925 278.341 97.3197 278.661 97.6504 279.088C97.981 279.515 98.1464 280.075 98.1464 280.768C98.1464 281.365 97.9917 281.92 97.6824 282.432C97.373 282.944 96.9197 283.355 96.3224 283.664C95.725 283.963 95.0157 284.112 94.1944 284.112ZM102.696 276.976V281.264C102.696 281.563 102.766 281.781 102.904 281.92C103.054 282.048 103.299 282.112 103.64 282.112H104.68V284H103.272C101.384 284 100.44 283.083 100.44 281.248V276.976H99.3844V275.136H100.44V272.944H102.696V275.136H104.68V276.976H102.696ZM105.715 279.536C105.715 278.64 105.891 277.845 106.243 277.152C106.606 276.459 107.092 275.925 107.7 275.552C108.318 275.179 109.006 274.992 109.764 274.992C110.425 274.992 111.001 275.125 111.492 275.392C111.993 275.659 112.393 275.995 112.692 276.4V275.136H114.948V284H112.692V282.704C112.404 283.12 112.004 283.467 111.492 283.744C110.99 284.011 110.409 284.144 109.748 284.144C109.001 284.144 108.318 283.952 107.7 283.568C107.092 283.184 106.606 282.645 106.243 281.952C105.891 281.248 105.715 280.443 105.715 279.536ZM112.692 279.568C112.692 279.024 112.585 278.56 112.372 278.176C112.158 277.781 111.87 277.483 111.508 277.28C111.145 277.067 110.756 276.96 110.34 276.96C109.924 276.96 109.54 277.061 109.188 277.264C108.836 277.467 108.548 277.765 108.324 278.16C108.11 278.544 108.004 279.003 108.004 279.536C108.004 280.069 108.11 280.539 108.324 280.944C108.548 281.339 108.836 281.643 109.188 281.856C109.55 282.069 109.934 282.176 110.34 282.176C110.756 282.176 111.145 282.075 111.508 281.872C111.87 281.659 112.158 281.36 112.372 280.976C112.585 280.581 112.692 280.112 112.692 279.568ZM119.375 276.512C119.663 276.043 120.037 275.675 120.495 275.408C120.965 275.141 121.498 275.008 122.095 275.008V277.36H121.503C120.799 277.36 120.266 277.525 119.903 277.856C119.551 278.187 119.375 278.763 119.375 279.584V284H117.135V275.136H119.375V276.512ZM126.212 276.976V281.264C126.212 281.563 126.281 281.781 126.42 281.92C126.569 282.048 126.815 282.112 127.156 282.112H128.196V284H126.788C124.9 284 123.956 283.083 123.956 281.248V276.976H122.9V275.136H123.956V272.944H126.212V275.136H128.196V276.976H126.212ZM142.1 275.136L136.612 288.192H134.228L136.148 283.776L132.596 275.136H135.108L137.396 281.328L139.716 275.136H142.1ZM147.243 284.144C146.39 284.144 145.622 283.957 144.939 283.584C144.256 283.2 143.718 282.661 143.323 281.968C142.939 281.275 142.747 280.475 142.747 279.568C142.747 278.661 142.944 277.861 143.339 277.168C143.744 276.475 144.294 275.941 144.987 275.568C145.68 275.184 146.454 274.992 147.307 274.992C148.16 274.992 148.934 275.184 149.627 275.568C150.32 275.941 150.864 276.475 151.259 277.168C151.664 277.861 151.867 278.661 151.867 279.568C151.867 280.475 151.659 281.275 151.243 281.968C150.838 282.661 150.283 283.2 149.579 283.584C148.886 283.957 148.107 284.144 147.243 284.144ZM147.243 282.192C147.648 282.192 148.027 282.096 148.379 281.904C148.742 281.701 149.03 281.403 149.243 281.008C149.456 280.613 149.563 280.133 149.563 279.568C149.563 278.725 149.339 278.08 148.891 277.632C148.454 277.173 147.915 276.944 147.275 276.944C146.635 276.944 146.096 277.173 145.659 277.632C145.232 278.08 145.019 278.725 145.019 279.568C145.019 280.411 145.227 281.061 145.643 281.52C146.07 281.968 146.603 282.192 147.243 282.192ZM161.878 275.136V284H159.622V282.88C159.334 283.264 158.956 283.568 158.486 283.792C158.028 284.005 157.526 284.112 156.982 284.112C156.289 284.112 155.676 283.968 155.142 283.68C154.609 283.381 154.188 282.949 153.878 282.384C153.58 281.808 153.43 281.125 153.43 280.336V275.136H155.67V280.016C155.67 280.72 155.846 281.264 156.198 281.648C156.55 282.021 157.03 282.208 157.638 282.208C158.257 282.208 158.742 282.021 159.094 281.648C159.446 281.264 159.622 280.72 159.622 280.016V275.136H161.878ZM166.328 276.512C166.616 276.043 166.99 275.675 167.448 275.408C167.918 275.141 168.451 275.008 169.048 275.008V277.36H168.456C167.752 277.36 167.219 277.525 166.856 277.856C166.504 278.187 166.328 278.763 166.328 279.584V284H164.088V275.136H166.328V276.512ZM180.706 278.272C181.335 278.389 181.852 278.704 182.258 279.216C182.663 279.728 182.866 280.315 182.866 280.976C182.866 281.573 182.716 282.101 182.418 282.56C182.13 283.008 181.708 283.36 181.154 283.616C180.599 283.872 179.943 284 179.186 284H174.37V272.832H178.978C179.735 272.832 180.386 272.955 180.93 273.2C181.484 273.445 181.9 273.787 182.178 274.224C182.466 274.661 182.61 275.157 182.61 275.712C182.61 276.363 182.434 276.907 182.082 277.344C181.74 277.781 181.282 278.091 180.706 278.272ZM176.61 277.44H178.658C179.191 277.44 179.602 277.323 179.89 277.088C180.178 276.843 180.322 276.496 180.322 276.048C180.322 275.6 180.178 275.253 179.89 275.008C179.602 274.763 179.191 274.64 178.658 274.64H176.61V277.44ZM178.866 282.176C179.41 282.176 179.831 282.048 180.13 281.792C180.439 281.536 180.594 281.173 180.594 280.704C180.594 280.224 180.434 279.851 180.114 279.584C179.794 279.307 179.362 279.168 178.818 279.168H176.61V282.176H178.866ZM193.019 275.136V284H190.763V282.88C190.475 283.264 190.096 283.568 189.627 283.792C189.168 284.005 188.667 284.112 188.123 284.112C187.43 284.112 186.816 283.968 186.283 283.68C185.75 283.381 185.328 282.949 185.019 282.384C184.72 281.808 184.571 281.125 184.571 280.336V275.136H186.811V280.016C186.811 280.72 186.987 281.264 187.339 281.648C187.691 282.021 188.171 282.208 188.779 282.208C189.398 282.208 189.883 282.021 190.235 281.648C190.587 281.264 190.763 280.72 190.763 280.016V275.136H193.019ZM198.621 284.144C197.896 284.144 197.245 284.016 196.669 283.76C196.093 283.493 195.634 283.136 195.293 282.688C194.962 282.24 194.781 281.744 194.749 281.2H197.005C197.048 281.541 197.213 281.824 197.501 282.048C197.8 282.272 198.168 282.384 198.605 282.384C199.032 282.384 199.362 282.299 199.597 282.128C199.842 281.957 199.965 281.739 199.965 281.472C199.965 281.184 199.816 280.971 199.517 280.832C199.229 280.683 198.765 280.523 198.125 280.352C197.464 280.192 196.92 280.027 196.493 279.856C196.077 279.685 195.714 279.424 195.405 279.072C195.106 278.72 194.957 278.245 194.957 277.648C194.957 277.157 195.096 276.709 195.373 276.304C195.661 275.899 196.066 275.579 196.589 275.344C197.122 275.109 197.746 274.992 198.461 274.992C199.517 274.992 200.36 275.259 200.989 275.792C201.618 276.315 201.965 277.024 202.029 277.92H199.885C199.853 277.568 199.704 277.291 199.437 277.088C199.181 276.875 198.834 276.768 198.397 276.768C197.992 276.768 197.677 276.843 197.453 276.992C197.24 277.141 197.133 277.349 197.133 277.616C197.133 277.915 197.282 278.144 197.581 278.304C197.88 278.453 198.344 278.608 198.973 278.768C199.613 278.928 200.141 279.093 200.557 279.264C200.973 279.435 201.33 279.701 201.629 280.064C201.938 280.416 202.098 280.885 202.109 281.472C202.109 281.984 201.965 282.443 201.677 282.848C201.4 283.253 200.994 283.573 200.461 283.808C199.938 284.032 199.325 284.144 198.621 284.144ZM205.084 274.08C204.689 274.08 204.358 273.957 204.092 273.712C203.836 273.456 203.708 273.141 203.708 272.768C203.708 272.395 203.836 272.085 204.092 271.84C204.358 271.584 204.689 271.456 205.084 271.456C205.478 271.456 205.804 271.584 206.06 271.84C206.326 272.085 206.46 272.395 206.46 272.768C206.46 273.141 206.326 273.456 206.06 273.712C205.804 273.957 205.478 274.08 205.084 274.08ZM206.188 275.136V284H203.948V275.136H206.188ZM213.313 275.008C214.369 275.008 215.222 275.344 215.873 276.016C216.524 276.677 216.849 277.605 216.849 278.8V284H214.609V279.104C214.609 278.4 214.433 277.861 214.081 277.488C213.729 277.104 213.249 276.912 212.641 276.912C212.022 276.912 211.532 277.104 211.169 277.488C210.817 277.861 210.641 278.4 210.641 279.104V284H208.401V275.136H210.641V276.24C210.94 275.856 211.318 275.557 211.777 275.344C212.246 275.12 212.758 275.008 213.313 275.008ZM227.219 279.376C227.219 279.696 227.198 279.984 227.155 280.24H220.675C220.728 280.88 220.952 281.381 221.347 281.744C221.742 282.107 222.227 282.288 222.803 282.288C223.635 282.288 224.227 281.931 224.579 281.216H226.995C226.739 282.069 226.248 282.773 225.523 283.328C224.798 283.872 223.907 284.144 222.851 284.144C221.998 284.144 221.23 283.957 220.547 283.584C219.875 283.2 219.347 282.661 218.963 281.968C218.59 281.275 218.403 280.475 218.403 279.568C218.403 278.651 218.59 277.845 218.963 277.152C219.336 276.459 219.859 275.925 220.531 275.552C221.203 275.179 221.976 274.992 222.851 274.992C223.694 274.992 224.446 275.173 225.107 275.536C225.779 275.899 226.296 276.416 226.659 277.088C227.032 277.749 227.219 278.512 227.219 279.376ZM224.899 278.736C224.888 278.16 224.68 277.701 224.275 277.36C223.87 277.008 223.374 276.832 222.787 276.832C222.232 276.832 221.763 277.003 221.379 277.344C221.006 277.675 220.776 278.139 220.691 278.736H224.899ZM232.246 284.144C231.521 284.144 230.87 284.016 230.294 283.76C229.718 283.493 229.259 283.136 228.918 282.688C228.587 282.24 228.406 281.744 228.374 281.2H230.63C230.673 281.541 230.838 281.824 231.126 282.048C231.425 282.272 231.793 282.384 232.23 282.384C232.657 282.384 232.987 282.299 233.222 282.128C233.467 281.957 233.59 281.739 233.59 281.472C233.59 281.184 233.441 280.971 233.142 280.832C232.854 280.683 232.39 280.523 231.75 280.352C231.089 280.192 230.545 280.027 230.118 279.856C229.702 279.685 229.339 279.424 229.03 279.072C228.731 278.72 228.582 278.245 228.582 277.648C228.582 277.157 228.721 276.709 228.998 276.304C229.286 275.899 229.691 275.579 230.214 275.344C230.747 275.109 231.371 274.992 232.086 274.992C233.142 274.992 233.985 275.259 234.614 275.792C235.243 276.315 235.59 277.024 235.654 277.92H233.51C233.478 277.568 233.329 277.291 233.062 277.088C232.806 276.875 232.459 276.768 232.022 276.768C231.617 276.768 231.302 276.843 231.078 276.992C230.865 277.141 230.758 277.349 230.758 277.616C230.758 277.915 230.907 278.144 231.206 278.304C231.505 278.453 231.969 278.608 232.598 278.768C233.238 278.928 233.766 279.093 234.182 279.264C234.598 279.435 234.955 279.701 235.254 280.064C235.563 280.416 235.723 280.885 235.734 281.472C235.734 281.984 235.59 282.443 235.302 282.848C235.025 283.253 234.619 283.573 234.086 283.808C233.563 284.032 232.95 284.144 232.246 284.144ZM240.965 284.144C240.239 284.144 239.589 284.016 239.013 283.76C238.437 283.493 237.978 283.136 237.637 282.688C237.306 282.24 237.125 281.744 237.093 281.2H239.349C239.391 281.541 239.557 281.824 239.845 282.048C240.143 282.272 240.511 282.384 240.949 282.384C241.375 282.384 241.706 282.299 241.941 282.128C242.186 281.957 242.309 281.739 242.309 281.472C242.309 281.184 242.159 280.971 241.861 280.832C241.573 280.683 241.109 280.523 240.469 280.352C239.807 280.192 239.263 280.027 238.837 279.856C238.421 279.685 238.058 279.424 237.749 279.072C237.45 278.72 237.301 278.245 237.301 277.648C237.301 277.157 237.439 276.709 237.717 276.304C238.005 275.899 238.41 275.579 238.933 275.344C239.466 275.109 240.09 274.992 240.805 274.992C241.861 274.992 242.703 275.259 243.333 275.792C243.962 276.315 244.309 277.024 244.373 277.92H242.229C242.197 277.568 242.047 277.291 241.781 277.088C241.525 276.875 241.178 276.768 240.741 276.768C240.335 276.768 240.021 276.843 239.797 276.992C239.583 277.141 239.477 277.349 239.477 277.616C239.477 277.915 239.626 278.144 239.925 278.304C240.223 278.453 240.687 278.608 241.317 278.768C241.957 278.928 242.485 279.093 242.901 279.264C243.317 279.435 243.674 279.701 243.973 280.064C244.282 280.416 244.442 280.885 244.453 281.472C244.453 281.984 244.309 282.443 244.021 282.848C243.743 283.253 243.338 283.573 242.805 283.808C242.282 284.032 241.669 284.144 240.965 284.144ZM258.248 276.288C258.248 276.885 258.104 277.445 257.816 277.968C257.539 278.491 257.096 278.912 256.488 279.232C255.891 279.552 255.133 279.712 254.216 279.712H252.344V284H250.104V272.832H254.216C255.08 272.832 255.816 272.981 256.424 273.28C257.032 273.579 257.485 273.989 257.784 274.512C258.093 275.035 258.248 275.627 258.248 276.288ZM254.12 277.904C254.739 277.904 255.197 277.765 255.496 277.488C255.795 277.2 255.944 276.8 255.944 276.288C255.944 275.2 255.336 274.656 254.12 274.656H252.344V277.904H254.12ZM262.078 272.16V284H259.838V272.16H262.078ZM263.715 279.536C263.715 278.64 263.891 277.845 264.243 277.152C264.606 276.459 265.092 275.925 265.7 275.552C266.318 275.179 267.006 274.992 267.764 274.992C268.425 274.992 269.001 275.125 269.492 275.392C269.993 275.659 270.393 275.995 270.692 276.4V275.136H272.948V284H270.692V282.704C270.404 283.12 270.004 283.467 269.492 283.744C268.99 284.011 268.409 284.144 267.748 284.144C267.001 284.144 266.318 283.952 265.7 283.568C265.092 283.184 264.606 282.645 264.243 281.952C263.891 281.248 263.715 280.443 263.715 279.536ZM270.692 279.568C270.692 279.024 270.585 278.56 270.372 278.176C270.158 277.781 269.87 277.483 269.508 277.28C269.145 277.067 268.756 276.96 268.34 276.96C267.924 276.96 267.54 277.061 267.188 277.264C266.836 277.467 266.548 277.765 266.324 278.16C266.11 278.544 266.004 279.003 266.004 279.536C266.004 280.069 266.11 280.539 266.324 280.944C266.548 281.339 266.836 281.643 267.188 281.856C267.55 282.069 267.934 282.176 268.34 282.176C268.756 282.176 269.145 282.075 269.508 281.872C269.87 281.659 270.158 281.36 270.372 280.976C270.585 280.581 270.692 280.112 270.692 279.568ZM280.047 275.008C281.103 275.008 281.957 275.344 282.607 276.016C283.258 276.677 283.583 277.605 283.583 278.8V284H281.343V279.104C281.343 278.4 281.167 277.861 280.815 277.488C280.463 277.104 279.983 276.912 279.375 276.912C278.757 276.912 278.266 277.104 277.903 277.488C277.551 277.861 277.375 278.4 277.375 279.104V284H275.135V275.136H277.375V276.24C277.674 275.856 278.053 275.557 278.511 275.344C278.981 275.12 279.493 275.008 280.047 275.008ZM286.705 284.112C286.3 284.112 285.964 283.989 285.697 283.744C285.441 283.488 285.313 283.173 285.313 282.8C285.313 282.427 285.441 282.117 285.697 281.872C285.964 281.616 286.3 281.488 286.705 281.488C287.1 281.488 287.425 281.616 287.681 281.872C287.937 282.117 288.065 282.427 288.065 282.8C288.065 283.173 287.937 283.488 287.681 283.744C287.425 283.989 287.1 284.112 286.705 284.112ZM94.0918 300.288C94.0918 300.885 93.9478 301.445 93.6597 301.968C93.3824 302.491 92.9398 302.912 92.3318 303.232C91.7344 303.552 90.9771 303.712 90.0598 303.712H88.1878V308H85.9478V296.832H90.0598C90.9238 296.832 91.6598 296.981 92.2678 297.28C92.8758 297.579 93.3291 297.989 93.6278 298.512C93.9371 299.035 94.0918 299.627 94.0918 300.288ZM89.9638 301.904C90.5824 301.904 91.0411 301.765 91.3398 301.488C91.6384 301.2 91.7878 300.8 91.7878 300.288C91.7878 299.2 91.1798 298.656 89.9638 298.656H88.1878V301.904H89.9638ZM95.1061 303.536C95.1061 302.64 95.2821 301.845 95.6341 301.152C95.9968 300.459 96.4821 299.925 97.0901 299.552C97.7088 299.179 98.3968 298.992 99.1541 298.992C99.8155 298.992 100.391 299.125 100.882 299.392C101.383 299.659 101.783 299.995 102.082 300.4V299.136H104.338V308H102.082V306.704C101.794 307.12 101.394 307.467 100.882 307.744C100.381 308.011 99.7995 308.144 99.1381 308.144C98.3915 308.144 97.7088 307.952 97.0901 307.568C96.4821 307.184 95.9968 306.645 95.6341 305.952C95.2821 305.248 95.1061 304.443 95.1061 303.536ZM102.082 303.568C102.082 303.024 101.975 302.56 101.762 302.176C101.549 301.781 101.261 301.483 100.898 301.28C100.535 301.067 100.146 300.96 99.7301 300.96C99.3141 300.96 98.9301 301.061 98.5781 301.264C98.2261 301.467 97.9381 301.765 97.7141 302.16C97.5008 302.544 97.3941 303.003 97.3941 303.536C97.3941 304.069 97.5008 304.539 97.7141 304.944C97.9381 305.339 98.2261 305.643 98.5781 305.856C98.9408 306.069 99.3248 306.176 99.7301 306.176C100.146 306.176 100.535 306.075 100.898 305.872C101.261 305.659 101.549 305.36 101.762 304.976C101.975 304.581 102.082 304.112 102.082 303.568ZM115.006 299.136L109.518 312.192H107.134L109.054 307.776L105.502 299.136H108.014L110.302 305.328L112.622 299.136H115.006ZM119.45 303.536C119.45 302.64 119.626 301.845 119.978 301.152C120.341 300.459 120.826 299.925 121.434 299.552C122.053 299.179 122.741 298.992 123.498 298.992C124.159 298.992 124.735 299.125 125.226 299.392C125.727 299.659 126.127 299.995 126.426 300.4V299.136H128.682V308H126.426V306.704C126.138 307.12 125.738 307.467 125.226 307.744C124.725 308.011 124.143 308.144 123.482 308.144C122.735 308.144 122.053 307.952 121.434 307.568C120.826 307.184 120.341 306.645 119.978 305.952C119.626 305.248 119.45 304.443 119.45 303.536ZM126.426 303.568C126.426 303.024 126.319 302.56 126.106 302.176C125.893 301.781 125.605 301.483 125.242 301.28C124.879 301.067 124.49 300.96 124.074 300.96C123.658 300.96 123.274 301.061 122.922 301.264C122.57 301.467 122.282 301.765 122.058 302.16C121.845 302.544 121.738 303.003 121.738 303.536C121.738 304.069 121.845 304.539 122.058 304.944C122.282 305.339 122.57 305.643 122.922 305.856C123.285 306.069 123.669 306.176 124.074 306.176C124.49 306.176 124.879 306.075 125.242 305.872C125.605 305.659 125.893 305.36 126.106 304.976C126.319 304.581 126.426 304.112 126.426 303.568ZM134.262 308.144C133.536 308.144 132.886 308.016 132.31 307.76C131.734 307.493 131.275 307.136 130.934 306.688C130.603 306.24 130.422 305.744 130.39 305.2H132.646C132.688 305.541 132.854 305.824 133.142 306.048C133.44 306.272 133.808 306.384 134.246 306.384C134.672 306.384 135.003 306.299 135.238 306.128C135.483 305.957 135.606 305.739 135.606 305.472C135.606 305.184 135.456 304.971 135.158 304.832C134.87 304.683 134.406 304.523 133.766 304.352C133.104 304.192 132.56 304.027 132.134 303.856C131.718 303.685 131.355 303.424 131.046 303.072C130.747 302.72 130.598 302.245 130.598 301.648C130.598 301.157 130.736 300.709 131.014 300.304C131.302 299.899 131.707 299.579 132.23 299.344C132.763 299.109 133.387 298.992 134.102 298.992C135.158 298.992 136 299.259 136.63 299.792C137.259 300.315 137.606 301.024 137.67 301.92H135.526C135.494 301.568 135.344 301.291 135.078 301.088C134.822 300.875 134.475 300.768 134.038 300.768C133.632 300.768 133.318 300.843 133.094 300.992C132.88 301.141 132.774 301.349 132.774 301.616C132.774 301.915 132.923 302.144 133.222 302.304C133.52 302.453 133.984 302.608 134.614 302.768C135.254 302.928 135.782 303.093 136.198 303.264C136.614 303.435 136.971 303.701 137.27 304.064C137.579 304.416 137.739 304.885 137.75 305.472C137.75 305.984 137.606 306.443 137.318 306.848C137.04 307.253 136.635 307.573 136.102 307.808C135.579 308.032 134.966 308.144 134.262 308.144ZM151.881 299.136L146.393 312.192H144.009L145.929 307.776L142.377 299.136H144.889L147.177 305.328L149.497 299.136H151.881ZM157.024 308.144C156.171 308.144 155.403 307.957 154.72 307.584C154.038 307.2 153.499 306.661 153.104 305.968C152.72 305.275 152.528 304.475 152.528 303.568C152.528 302.661 152.726 301.861 153.12 301.168C153.526 300.475 154.075 299.941 154.768 299.568C155.462 299.184 156.235 298.992 157.088 298.992C157.942 298.992 158.715 299.184 159.408 299.568C160.102 299.941 160.646 300.475 161.04 301.168C161.446 301.861 161.648 302.661 161.648 303.568C161.648 304.475 161.44 305.275 161.024 305.968C160.619 306.661 160.064 307.2 159.36 307.584C158.667 307.957 157.888 308.144 157.024 308.144ZM157.024 306.192C157.43 306.192 157.808 306.096 158.16 305.904C158.523 305.701 158.811 305.403 159.024 305.008C159.238 304.613 159.344 304.133 159.344 303.568C159.344 302.725 159.12 302.08 158.672 301.632C158.235 301.173 157.696 300.944 157.056 300.944C156.416 300.944 155.878 301.173 155.44 301.632C155.014 302.08 154.8 302.725 154.8 303.568C154.8 304.411 155.008 305.061 155.424 305.52C155.851 305.968 156.384 306.192 157.024 306.192ZM171.66 299.136V308H169.404V306.88C169.116 307.264 168.737 307.568 168.268 307.792C167.809 308.005 167.308 308.112 166.764 308.112C166.07 308.112 165.457 307.968 164.924 307.68C164.39 307.381 163.969 306.949 163.66 306.384C163.361 305.808 163.212 305.125 163.212 304.336V299.136H165.452V304.016C165.452 304.72 165.628 305.264 165.98 305.648C166.332 306.021 166.812 306.208 167.42 306.208C168.038 306.208 168.524 306.021 168.876 305.648C169.228 305.264 169.404 304.72 169.404 304.016V299.136H171.66ZM176.11 300.512C176.398 300.043 176.771 299.675 177.23 299.408C177.699 299.141 178.232 299.008 178.83 299.008V301.36H178.238C177.534 301.36 177 301.525 176.638 301.856C176.286 302.187 176.11 302.763 176.11 303.584V308H173.87V299.136H176.11V300.512ZM186.759 300.976V305.264C186.759 305.563 186.828 305.781 186.967 305.92C187.116 306.048 187.362 306.112 187.703 306.112H188.743V308H187.335C185.447 308 184.503 307.083 184.503 305.248V300.976H183.447V299.136H184.503V296.944H186.759V299.136H188.743V300.976H186.759ZM198.594 303.376C198.594 303.696 198.573 303.984 198.53 304.24H192.05C192.103 304.88 192.327 305.381 192.722 305.744C193.117 306.107 193.602 306.288 194.178 306.288C195.01 306.288 195.602 305.931 195.954 305.216H198.37C198.114 306.069 197.623 306.773 196.898 307.328C196.173 307.872 195.282 308.144 194.226 308.144C193.373 308.144 192.605 307.957 191.922 307.584C191.25 307.2 190.722 306.661 190.338 305.968C189.965 305.275 189.778 304.475 189.778 303.568C189.778 302.651 189.965 301.845 190.338 301.152C190.711 300.459 191.234 299.925 191.906 299.552C192.578 299.179 193.351 298.992 194.226 298.992C195.069 298.992 195.821 299.173 196.482 299.536C197.154 299.899 197.671 300.416 198.034 301.088C198.407 301.749 198.594 302.512 198.594 303.376ZM196.274 302.736C196.263 302.16 196.055 301.701 195.65 301.36C195.245 301.008 194.749 300.832 194.162 300.832C193.607 300.832 193.138 301.003 192.754 301.344C192.381 301.675 192.151 302.139 192.066 302.736H196.274ZM199.653 303.536C199.653 302.64 199.829 301.845 200.181 301.152C200.544 300.459 201.029 299.925 201.637 299.552C202.256 299.179 202.944 298.992 203.701 298.992C204.362 298.992 204.938 299.125 205.429 299.392C205.93 299.659 206.33 299.995 206.629 300.4V299.136H208.885V308H206.629V306.704C206.341 307.12 205.941 307.467 205.429 307.744C204.928 308.011 204.346 308.144 203.685 308.144C202.938 308.144 202.256 307.952 201.637 307.568C201.029 307.184 200.544 306.645 200.181 305.952C199.829 305.248 199.653 304.443 199.653 303.536ZM206.629 303.568C206.629 303.024 206.522 302.56 206.309 302.176C206.096 301.781 205.808 301.483 205.445 301.28C205.082 301.067 204.693 300.96 204.277 300.96C203.861 300.96 203.477 301.061 203.125 301.264C202.773 301.467 202.485 301.765 202.261 302.16C202.048 302.544 201.941 303.003 201.941 303.536C201.941 304.069 202.048 304.539 202.261 304.944C202.485 305.339 202.773 305.643 203.125 305.856C203.488 306.069 203.872 306.176 204.277 306.176C204.693 306.176 205.082 306.075 205.445 305.872C205.808 305.659 206.096 305.36 206.309 304.976C206.522 304.581 206.629 304.112 206.629 303.568ZM222.081 299.008C223.169 299.008 224.043 299.344 224.705 300.016C225.377 300.677 225.713 301.605 225.713 302.8V308H223.473V303.104C223.473 302.411 223.297 301.883 222.945 301.52C222.593 301.147 222.113 300.96 221.505 300.96C220.897 300.96 220.411 301.147 220.049 301.52C219.697 301.883 219.521 302.411 219.521 303.104V308H217.281V303.104C217.281 302.411 217.105 301.883 216.753 301.52C216.401 301.147 215.921 300.96 215.313 300.96C214.694 300.96 214.203 301.147 213.841 301.52C213.489 301.883 213.313 302.411 213.313 303.104V308H211.073V299.136H213.313V300.208C213.601 299.835 213.969 299.541 214.417 299.328C214.875 299.115 215.377 299.008 215.921 299.008C216.614 299.008 217.233 299.157 217.777 299.456C218.321 299.744 218.742 300.16 219.041 300.704C219.329 300.192 219.745 299.781 220.289 299.472C220.843 299.163 221.441 299.008 222.081 299.008ZM231.23 308.144C230.505 308.144 229.854 308.016 229.278 307.76C228.702 307.493 228.244 307.136 227.902 306.688C227.572 306.24 227.39 305.744 227.358 305.2H229.614C229.657 305.541 229.822 305.824 230.11 306.048C230.409 306.272 230.777 306.384 231.214 306.384C231.641 306.384 231.972 306.299 232.206 306.128C232.452 305.957 232.574 305.739 232.574 305.472C232.574 305.184 232.425 304.971 232.126 304.832C231.838 304.683 231.374 304.523 230.734 304.352C230.073 304.192 229.529 304.027 229.102 303.856C228.686 303.685 228.324 303.424 228.014 303.072C227.716 302.72 227.566 302.245 227.566 301.648C227.566 301.157 227.705 300.709 227.982 300.304C228.27 299.899 228.676 299.579 229.198 299.344C229.732 299.109 230.356 298.992 231.07 298.992C232.126 298.992 232.969 299.259 233.598 299.792C234.228 300.315 234.574 301.024 234.638 301.92H232.494C232.462 301.568 232.313 301.291 232.046 301.088C231.79 300.875 231.444 300.768 231.006 300.768C230.601 300.768 230.286 300.843 230.062 300.992C229.849 301.141 229.742 301.349 229.742 301.616C229.742 301.915 229.892 302.144 230.19 302.304C230.489 302.453 230.953 302.608 231.582 302.768C232.222 302.928 232.75 303.093 233.166 303.264C233.582 303.435 233.94 303.701 234.238 304.064C234.548 304.416 234.708 304.885 234.718 305.472C234.718 305.984 234.574 306.443 234.286 306.848C234.009 307.253 233.604 307.573 233.07 307.808C232.548 308.032 231.934 308.144 231.23 308.144ZM243.842 298.992C244.503 298.992 245.084 299.125 245.586 299.392C246.087 299.648 246.482 299.984 246.77 300.4V299.136H249.026V308.064C249.026 308.885 248.86 309.616 248.53 310.256C248.199 310.907 247.703 311.419 247.042 311.792C246.38 312.176 245.58 312.368 244.642 312.368C243.383 312.368 242.348 312.075 241.538 311.488C240.738 310.901 240.284 310.101 240.178 309.088H242.402C242.519 309.493 242.77 309.813 243.154 310.048C243.548 310.293 244.023 310.416 244.578 310.416C245.228 310.416 245.756 310.219 246.162 309.824C246.567 309.44 246.77 308.853 246.77 308.064V306.688C246.482 307.104 246.082 307.451 245.57 307.728C245.068 308.005 244.492 308.144 243.842 308.144C243.095 308.144 242.412 307.952 241.794 307.568C241.175 307.184 240.684 306.645 240.322 305.952C239.97 305.248 239.794 304.443 239.794 303.536C239.794 302.64 239.97 301.845 240.322 301.152C240.684 300.459 241.17 299.925 241.778 299.552C242.396 299.179 243.084 298.992 243.842 298.992ZM246.77 303.568C246.77 303.024 246.663 302.56 246.45 302.176C246.236 301.781 245.948 301.483 245.586 301.28C245.223 301.067 244.834 300.96 244.418 300.96C244.002 300.96 243.618 301.061 243.266 301.264C242.914 301.467 242.626 301.765 242.402 302.16C242.188 302.544 242.082 303.003 242.082 303.536C242.082 304.069 242.188 304.539 242.402 304.944C242.626 305.339 242.914 305.643 243.266 305.856C243.628 306.069 244.012 306.176 244.418 306.176C244.834 306.176 245.223 306.075 245.586 305.872C245.948 305.659 246.236 305.36 246.45 304.976C246.663 304.581 246.77 304.112 246.77 303.568ZM253.453 300.512C253.741 300.043 254.115 299.675 254.573 299.408C255.043 299.141 255.576 299.008 256.173 299.008V301.36H255.581C254.877 301.36 254.344 301.525 253.981 301.856C253.629 302.187 253.453 302.763 253.453 303.584V308H251.213V299.136H253.453V300.512ZM261.618 308.144C260.765 308.144 259.997 307.957 259.314 307.584C258.631 307.2 258.093 306.661 257.698 305.968C257.314 305.275 257.122 304.475 257.122 303.568C257.122 302.661 257.319 301.861 257.714 301.168C258.119 300.475 258.669 299.941 259.362 299.568C260.055 299.184 260.829 298.992 261.682 298.992C262.535 298.992 263.309 299.184 264.002 299.568C264.695 299.941 265.239 300.475 265.634 301.168C266.039 301.861 266.242 302.661 266.242 303.568C266.242 304.475 266.034 305.275 265.618 305.968C265.213 306.661 264.658 307.2 263.954 307.584C263.261 307.957 262.482 308.144 261.618 308.144ZM261.618 306.192C262.023 306.192 262.402 306.096 262.754 305.904C263.117 305.701 263.405 305.403 263.618 305.008C263.831 304.613 263.938 304.133 263.938 303.568C263.938 302.725 263.714 302.08 263.266 301.632C262.829 301.173 262.29 300.944 261.65 300.944C261.01 300.944 260.471 301.173 260.034 301.632C259.607 302.08 259.394 302.725 259.394 303.568C259.394 304.411 259.602 305.061 260.018 305.52C260.445 305.968 260.978 306.192 261.618 306.192ZM280.173 299.136L277.581 308H275.165L273.549 301.808L271.933 308H269.501L266.893 299.136H269.165L270.733 305.888L272.429 299.136H274.797L276.461 305.872L278.029 299.136H280.173ZM284.777 308.144C284.052 308.144 283.401 308.016 282.825 307.76C282.249 307.493 281.791 307.136 281.449 306.688C281.119 306.24 280.937 305.744 280.905 305.2H283.161C283.204 305.541 283.369 305.824 283.657 306.048C283.956 306.272 284.324 306.384 284.761 306.384C285.188 306.384 285.519 306.299 285.753 306.128C285.999 305.957 286.121 305.739 286.121 305.472C286.121 305.184 285.972 304.971 285.673 304.832C285.385 304.683 284.921 304.523 284.281 304.352C283.62 304.192 283.076 304.027 282.649 303.856C282.233 303.685 281.871 303.424 281.561 303.072C281.263 302.72 281.113 302.245 281.113 301.648C281.113 301.157 281.252 300.709 281.529 300.304C281.817 299.899 282.223 299.579 282.745 299.344C283.279 299.109 283.903 298.992 284.617 298.992C285.673 298.992 286.516 299.259 287.145 299.792C287.775 300.315 288.121 301.024 288.185 301.92H286.041C286.009 301.568 285.86 301.291 285.593 301.088C285.337 300.875 284.991 300.768 284.553 300.768C284.148 300.768 283.833 300.843 283.609 300.992C283.396 301.141 283.289 301.349 283.289 301.616C283.289 301.915 283.439 302.144 283.737 302.304C284.036 302.453 284.5 302.608 285.129 302.768C285.769 302.928 286.297 303.093 286.713 303.264C287.129 303.435 287.487 303.701 287.785 304.064C288.095 304.416 288.255 304.885 288.265 305.472C288.265 305.984 288.121 306.443 287.833 306.848C287.556 307.253 287.151 307.573 286.617 307.808C286.095 308.032 285.481 308.144 284.777 308.144ZM291.096 308.112C290.691 308.112 290.355 307.989 290.088 307.744C289.832 307.488 289.704 307.173 289.704 306.8C289.704 306.427 289.832 306.117 290.088 305.872C290.355 305.616 290.691 305.488 291.096 305.488C291.491 305.488 291.816 305.616 292.072 305.872C292.328 306.117 292.456 306.427 292.456 306.8C292.456 307.173 292.328 307.488 292.072 307.744C291.816 307.989 291.491 308.112 291.096 308.112Z" fill="black"/>
<defs>
<linearGradient id="paint0_linear" x1="176.268" y1="251.051" x2="176.268" y2="183.037" gradientUnits="userSpaceOnUse">
<stop stop-color="#808080" stop-opacity="0.25"/>
<stop offset="0.54" stop-color="#808080" stop-opacity="0.12"/>
<stop offset="1" stop-color="#808080" stop-opacity="0.1"/>
</linearGradient>
<linearGradient id="paint1_linear" x1="110403" y1="76987.7" x2="110403" y2="35" gradientUnits="userSpaceOnUse">
<stop stop-color="#808080" stop-opacity="0.25"/>
<stop offset="0.54" stop-color="#808080" stop-opacity="0.12"/>
<stop offset="1" stop-color="#808080" stop-opacity="0.1"/>
</linearGradient>
<linearGradient id="paint2_linear" x1="256.394" y1="114.721" x2="256.394" y2="99.4569" gradientUnits="userSpaceOnUse">
<stop stop-opacity="0.12"/>
<stop offset="0.55" stop-opacity="0.09"/>
<stop offset="1" stop-opacity="0.02"/>
</linearGradient>
<linearGradient id="paint3_linear" x1="16248.9" y1="6944.08" x2="16248.9" y2="6223.6" gradientUnits="userSpaceOnUse">
<stop stop-opacity="0.12"/>
<stop offset="0.55" stop-opacity="0.09"/>
<stop offset="1" stop-opacity="0.02"/>
</linearGradient>
<linearGradient id="paint4_linear" x1="10465.8" y1="2325.5" x2="10465.8" y2="2129.31" gradientUnits="userSpaceOnUse">
<stop stop-opacity="0.12"/>
<stop offset="0.55" stop-opacity="0.09"/>
<stop offset="1" stop-opacity="0.02"/>
</linearGradient>
<linearGradient id="paint5_linear" x1="17592.6" y1="6944.1" x2="17592.6" y2="6223.61" gradientUnits="userSpaceOnUse">
<stop stop-opacity="0.12"/>
<stop offset="0.55" stop-opacity="0.09"/>
<stop offset="1" stop-opacity="0.02"/>
</linearGradient>
<linearGradient id="paint6_linear" x1="17589.7" y1="5632.54" x2="17589.7" y2="4912.05" gradientUnits="userSpaceOnUse">
<stop stop-opacity="0.12"/>
<stop offset="0.55" stop-opacity="0.09"/>
<stop offset="1" stop-opacity="0.02"/>
</linearGradient>
<linearGradient id="paint7_linear" x1="11752" y1="2325.5" x2="11752" y2="2129.31" gradientUnits="userSpaceOnUse">
<stop stop-opacity="0.12"/>
<stop offset="0.55" stop-opacity="0.09"/>
<stop offset="1" stop-opacity="0.02"/>
</linearGradient>
<linearGradient id="paint8_linear" x1="88.3724" y1="235.762" x2="88.3724" y2="235.726" gradientUnits="userSpaceOnUse">
<stop stop-color="#808080" stop-opacity="0.25"/>
<stop offset="0.54" stop-color="#808080" stop-opacity="0.12"/>
<stop offset="1" stop-color="#808080" stop-opacity="0.1"/>
</linearGradient>
<linearGradient id="paint9_linear" x1="9502.31" y1="55436.5" x2="9502.31" y2="39537.5" gradientUnits="userSpaceOnUse">
<stop stop-color="#808080" stop-opacity="0.25"/>
<stop offset="0.54" stop-color="#808080" stop-opacity="0.12"/>
<stop offset="1" stop-color="#808080" stop-opacity="0.1"/>
</linearGradient>
<linearGradient id="paint10_linear" x1="450.132" y1="306.511" x2="450.129" y2="306.483" gradientUnits="userSpaceOnUse">
<stop stop-color="#808080" stop-opacity="0.25"/>
<stop offset="0.54" stop-color="#808080" stop-opacity="0.12"/>
<stop offset="1" stop-color="#808080" stop-opacity="0.1"/>
</linearGradient>
<linearGradient id="paint11_linear" x1="38665.1" y1="19787.2" x2="37285.3" y2="8111.87" gradientUnits="userSpaceOnUse">
<stop stop-color="#808080" stop-opacity="0.25"/>
<stop offset="0.54" stop-color="#808080" stop-opacity="0.12"/>
<stop offset="1" stop-color="#808080" stop-opacity="0.1"/>
</linearGradient>
<clipPath id="clip0">
<rect x="49" y="35" width="280" height="216.054" fill="white"/>
</clipPath>
</defs>
</svg>
