<svg width="143" height="125" viewBox="0 0 143 125" fill="none" xmlns="http://www.w3.org/2000/svg">
<path d="M93.2209 125C88.4174 124.19 83.7978 123.494 79.3622 122.912L81.1157 119.527C80.5244 119.322 77.9266 121.261 77.9266 121.261L80.2278 111.434C77.254 111.791 75.7421 121.825 75.7421 121.825L72.4196 118.433L74.0281 122.247C60.4525 120.655 48.7282 120.064 38.8667 120.043L40.3675 117.146C39.7762 116.941 37.1785 118.88 37.1785 118.88L39.4796 109.053C36.5059 109.41 34.9939 119.444 34.9939 119.444L31.6714 116.052L33.3751 120.091C26.6184 120.202 19.8719 120.659 13.1623 121.458C14.6803 116.944 19.837 112.652 19.837 112.652C15.8988 113.818 13.833 115.772 12.7536 117.594C12.6571 108.281 14.2124 99.0234 17.3477 90.2482C17.3477 90.2482 9.2076 107.887 10.2463 119.726L10.3705 121.829C3.46951 122.813 0 123.836 0 123.836L93.2209 125Z" fill="#3F3D56"/>
<path d="M58.6446 101.644L58.6445 101.305C59.321 101.305 60.0077 101.291 60.6858 101.264L60.6995 101.603C60.0169 101.63 59.3256 101.644 58.6446 101.644ZM56.5902 101.605C55.91 101.578 55.2199 101.538 54.539 101.484L54.5658 101.146C55.2422 101.2 55.9278 101.24 56.6035 101.266L56.5902 101.605ZM62.7506 101.48L62.7236 101.142C63.3988 101.088 64.0821 101.02 64.7545 100.939L64.7953 101.276C64.1184 101.357 63.4305 101.426 62.7506 101.48V101.48ZM52.4941 101.282C51.8156 101.201 51.131 101.106 50.4589 100.999L50.5129 100.664C51.1804 100.771 51.8606 100.866 52.5345 100.946L52.4941 101.282ZM66.83 100.989L66.7757 100.655C67.443 100.548 68.1186 100.425 68.7837 100.29L68.8515 100.622C68.182 100.758 67.5018 100.881 66.83 100.989V100.989ZM48.437 100.633C47.7674 100.498 47.0927 100.348 46.4314 100.187L46.5123 99.8576C47.1692 100.018 47.8394 100.167 48.5045 100.301L48.437 100.633ZM70.8567 100.173L70.7753 99.8442C71.4341 99.6827 72.0975 99.5059 72.7471 99.3184L72.8418 99.644C72.1877 99.8326 71.5198 100.011 70.8567 100.173V100.173ZM44.4456 99.6597C43.7895 99.4711 43.1292 99.267 42.483 99.0529L42.5905 98.7313C43.2324 98.9441 43.8883 99.1469 44.54 99.3342L44.4456 99.6597ZM74.8036 99.0347L74.6958 98.7134C75.3381 98.4997 75.9849 98.2699 76.6184 98.0302L76.7393 98.3468C76.1015 98.5882 75.4502 98.8196 74.8036 99.0347V99.0347ZM40.5414 98.3652C39.9031 98.1243 39.2601 97.8669 38.6303 97.5997L38.7636 97.288C39.3892 97.5534 40.0279 97.8092 40.662 98.0482L40.5414 98.3652ZM78.64 97.5838L78.5064 97.2721C79.1284 97.0076 79.753 96.7272 80.3625 96.4385L80.5087 96.7446C79.895 97.0351 79.2662 97.3175 78.64 97.5838V97.5838ZM36.7523 96.758C36.1342 96.4658 35.5146 96.1574 34.9107 95.8413L35.069 95.5415C35.6689 95.8553 36.2843 96.1617 36.8982 96.4519L36.7523 96.758ZM82.3428 95.8305L82.1843 95.5308C82.7835 95.2168 83.3838 94.8867 83.9683 94.5501L84.1387 94.8432C83.5503 95.1822 82.946 95.5144 82.3428 95.8305V95.8305ZM33.1084 94.8515C32.5154 94.5102 31.9232 94.1532 31.3481 93.7904L31.5302 93.5042C32.1014 93.8645 32.6897 94.2192 33.2787 94.5583L33.1084 94.8515ZM85.894 93.7844L85.7119 93.4982C86.2823 93.1384 86.8543 92.7614 87.4121 92.3774L87.6054 92.656C87.0441 93.0426 86.4682 93.4223 85.894 93.7844L85.894 93.7844ZM29.6326 92.6599C29.07 92.2728 28.5088 91.8698 27.9645 91.462L28.169 91.1914C28.7097 91.5963 29.2672 91.9967 29.826 92.3813L29.6326 92.6599ZM89.2707 91.4599L89.066 91.1892C89.6055 90.7852 90.1456 90.3635 90.6714 89.9357L90.8867 90.1981C90.3574 90.6287 89.8136 91.0532 89.2707 91.4599H89.2707ZM26.3463 90.1984C25.818 89.7686 25.2913 89.3223 24.7806 88.8716L25.0063 88.6182C25.5136 89.0657 26.0368 89.5092 26.5616 89.936L26.3463 90.1984ZM92.4511 88.8724L92.2255 88.619C92.7324 88.1716 93.2371 87.7079 93.7256 87.2409L93.9612 87.4854C93.4696 87.9554 92.9615 88.4221 92.4511 88.8724H92.4511ZM23.2698 87.4839C22.7791 87.0144 22.29 86.5277 21.8164 86.0374L22.0617 85.8024C22.5322 86.2896 23.018 86.7732 23.5056 87.2394L23.2698 87.4839ZM95.4147 86.0387L95.1695 85.8038C95.6385 85.318 96.1046 84.8156 96.5548 84.3102L96.8093 84.5352C96.3561 85.0437 95.8869 85.5497 95.4147 86.0387ZM20.4225 84.5345C19.9689 84.0253 19.5207 83.5014 19.0903 82.9773L19.3538 82.7629C19.7812 83.2835 20.2265 83.804 20.677 84.3095L20.4225 84.5345ZM98.1426 82.977L97.8791 82.7625C98.3091 82.2391 98.7334 81.7008 99.1405 81.1626L99.4123 81.3664C99.0026 81.9082 98.5753 82.45 98.1426 82.977ZM17.8222 81.3689C17.4121 80.8268 17.0076 80.2693 16.62 79.7116L16.8998 79.5187C17.2848 80.0727 17.6866 80.6266 18.0939 81.1651L17.8222 81.3689ZM100.616 79.7059L100.337 79.5134C100.723 78.9568 101.103 78.3861 101.465 77.817L101.753 77.9983C101.388 78.5712 101.005 79.1458 100.616 79.7059ZM15.4859 78.0079C15.1213 77.4355 14.7633 76.8477 14.4217 76.2607L14.7161 76.091C15.0553 76.674 15.411 77.2578 15.7731 77.8264L15.4859 78.0079ZM102.819 76.2462L102.525 76.0764C102.866 75.4903 103.198 74.8906 103.513 74.2942L103.814 74.452C103.497 75.0524 103.162 75.6561 102.819 76.2462ZM13.4293 74.4725C13.1123 73.8732 12.8031 73.2589 12.5104 72.6468L12.8176 72.5012C13.1084 73.1092 13.4155 73.7193 13.7303 74.3147L13.4293 74.4725ZM104.736 72.6188L104.428 72.4732C104.72 71.8631 105.003 71.2384 105.269 70.6164L105.582 70.7494C105.314 71.3756 105.029 72.0046 104.736 72.6188ZM11.6665 70.7866C11.3985 70.1626 11.1403 69.526 10.899 68.8944L11.217 68.7739C11.4567 69.4011 11.7131 70.0336 11.9793 70.6533L11.6665 70.7866ZM106.352 68.8465L106.034 68.7264C106.275 68.0927 106.506 67.4466 106.721 66.8065L107.043 66.9137C106.828 67.5583 106.595 68.2085 106.352 68.8465ZM10.2072 66.9674C9.99051 66.3233 9.78433 65.666 9.59435 65.0141L9.92115 64.9198C10.1099 65.5673 10.3147 66.2201 10.5298 66.8598L10.2072 66.9674ZM107.654 64.9595L107.327 64.8655C107.515 64.219 107.692 63.5584 107.854 62.9018L108.185 62.9825C108.022 63.6436 107.843 64.3088 107.654 64.9595ZM9.0617 63.0376C8.89822 62.3778 8.74628 61.7063 8.60988 61.0414L8.94333 60.9736C9.07874 61.634 9.22968 62.3012 9.392 62.9565L9.0617 63.0376ZM108.634 60.986L108.3 60.9185C108.435 60.2586 108.558 59.5858 108.666 58.9189L109.002 58.9728C108.893 59.6441 108.77 60.3214 108.634 60.986ZM8.23963 59.0286C8.13056 58.3597 8.03353 57.6781 7.95129 57.0026L8.28906 56.9619C8.3708 57.6329 8.46716 58.3099 8.57557 58.9743L8.23963 59.0286ZM109.288 56.946L108.95 56.9057C109.031 56.235 109.099 55.5546 109.153 54.8833L109.492 54.9101C109.438 55.5859 109.369 56.2709 109.288 56.9461V56.946ZM7.74503 54.9669C7.69012 54.2902 7.64825 53.603 7.62059 52.9243L7.96051 52.9106C7.98801 53.5847 8.02963 54.2674 8.08412 54.9396L7.74503 54.9669ZM109.614 52.8678L109.274 52.8544C109.301 52.1793 109.315 51.4955 109.315 50.8221L109.314 50.7099H109.655L109.655 50.8214C109.655 51.4999 109.641 52.1881 109.614 52.8678ZM7.91789 50.8783H7.57764L7.57772 50.8214C7.57772 50.1604 7.59059 49.4911 7.6161 48.8327L7.95602 48.8458C7.93077 49.4999 7.91798 50.1647 7.91798 50.8221L7.91789 50.8783ZM109.27 48.678C109.242 48.0053 109.199 47.3226 109.144 46.6491L109.483 46.6215C109.539 47.2995 109.581 47.9867 109.61 48.664L109.27 48.678ZM8.07523 46.8166L7.73597 46.7902C7.78947 46.1117 7.85742 45.4266 7.93784 44.7538L8.27577 44.7938C8.19585 45.4622 8.1284 46.1428 8.07523 46.8166H8.07523ZM108.937 44.627C108.855 43.9588 108.758 43.2818 108.648 42.615L108.984 42.5603C109.094 43.2316 109.192 43.9131 109.274 44.586L108.937 44.627ZM8.55755 42.7808L8.22161 42.7272C8.32944 42.0564 8.45246 41.3788 8.58745 40.7136L8.92091 40.7806C8.7869 41.4415 8.6647 42.1144 8.55754 42.7808H8.55755ZM108.278 40.616C108.141 39.9539 107.99 39.2871 107.827 38.6337L108.157 38.5521C108.321 39.2099 108.474 39.8814 108.611 40.5478L108.278 40.616ZM9.36507 38.7968L9.03453 38.7164C9.19635 38.0569 9.37413 37.3916 9.56286 36.7386L9.88983 36.8323C9.70234 37.4809 9.52581 38.1418 9.36507 38.7968ZM107.296 36.6711C107.106 36.024 106.901 35.3714 106.685 34.7316L107.008 34.6237C107.225 35.2679 107.432 35.9248 107.622 36.5763L107.296 36.6711ZM10.4941 34.8908L10.1712 34.784C10.3865 34.1388 10.6184 33.4883 10.8606 32.8503L11.1789 32.9701C10.9383 33.6038 10.7079 34.25 10.4941 34.8908ZM105.996 32.8183C105.754 32.1881 105.497 31.5561 105.231 30.9396L105.544 30.8061C105.811 31.4267 106.07 32.063 106.314 32.6974L105.996 32.8183ZM11.9414 31.0793L11.6282 30.9466C11.8956 30.3207 12.1798 29.6913 12.4726 29.0763L12.78 29.2214C12.4891 29.8324 12.207 30.4575 11.9414 31.0793ZM104.391 29.0925C104.1 28.4852 103.792 27.8754 103.476 27.2801L103.777 27.1219C104.095 27.7212 104.405 28.3351 104.698 28.9466L104.391 29.0925ZM13.6935 27.3994L13.3921 27.2421C13.7092 26.6401 14.0434 26.0361 14.385 25.4467L14.6798 25.6161C14.3403 26.2015 14.0085 26.8016 13.6935 27.3994ZM102.488 25.5053C102.148 24.9221 101.792 24.3386 101.429 23.7709L101.716 23.5891C102.081 24.1606 102.44 24.748 102.783 25.3351L102.488 25.5053ZM15.7373 23.8745L15.4497 23.6934C15.8148 23.1187 16.1965 22.5437 16.5842 21.9845L16.8641 22.177C16.479 22.7325 16.0999 23.3036 15.7373 23.8745ZM100.301 22.0797C99.9148 21.5259 99.5125 20.9723 99.1049 20.4347L99.3764 20.2305C99.7868 20.7718 100.192 21.329 100.58 21.8866L100.301 22.0797ZM18.0583 20.5263L17.7864 20.3228C18.1964 19.7793 18.623 19.237 19.0542 18.7108L19.3178 18.925C18.8894 19.4477 18.4657 19.9864 18.0583 20.5263ZM97.8434 18.8382C97.4143 18.3169 96.9683 17.797 96.5184 17.2931L96.7726 17.0679C97.2257 17.5752 97.6744 18.0986 98.1066 18.6235L97.8434 18.8382ZM20.6406 17.3755L20.3859 17.151C20.8376 16.6428 21.3062 16.1364 21.7787 15.6459L22.0243 15.8805C21.5549 16.3677 21.0894 16.8708 20.6406 17.3755V17.3755ZM95.1321 15.8014C94.6613 15.3149 94.175 14.832 93.6866 14.366L93.922 14.1213C94.4136 14.5905 94.9032 15.0766 95.377 15.5663L95.1321 15.8014ZM23.4666 14.4419L23.2306 14.1977C23.7216 13.7273 24.2292 13.2601 24.7393 12.809L24.9652 13.0623C24.4585 13.5104 23.9543 13.9746 23.4666 14.4419V14.4419ZM92.1845 12.989C91.6761 12.5414 91.1522 12.0985 90.6277 11.6728L90.8427 11.4101C91.3707 11.8388 91.898 12.2845 92.4098 12.7352L92.1845 12.989ZM26.5178 11.7437L26.3022 11.4817C26.8301 11.0511 27.3734 10.626 27.9168 10.2181L28.1217 10.4886C27.5818 10.8938 27.0422 11.3162 26.5178 11.7437ZM89.0186 10.4195C88.4759 10.0139 87.9178 9.61407 87.3604 9.23125L87.5535 8.95233C88.1147 9.33771 88.6764 9.74014 89.223 10.1485L89.0186 10.4195ZM29.7746 9.29834L29.5807 9.01991C30.1416 8.63287 30.717 8.25262 31.2911 7.88965L31.4735 8.17569C30.9033 8.53617 30.3317 8.91386 29.7746 9.29834H29.7746ZM85.655 8.11001C85.0813 7.74919 84.4926 7.39524 83.9052 7.05799L84.0753 6.76451C84.6664 7.10399 85.259 7.46034 85.8367 7.82355L85.655 8.11001ZM33.2158 7.12227L33.0451 6.82912C33.6334 6.4894 34.2373 6.15654 34.8399 5.83998L34.9988 6.13958C34.4001 6.45408 33.8002 6.7847 33.2158 7.12227ZM82.114 6.0768C81.5131 5.7633 80.8973 5.45765 80.2838 5.16839L80.4293 4.86216C81.047 5.15333 81.6671 5.46105 82.2718 5.7767L82.114 6.0768ZM36.8193 5.22976L36.6729 4.92387C37.2864 4.63262 37.9149 4.34956 38.5408 4.08255L38.6747 4.39398C38.053 4.65918 37.4287 4.94033 36.8193 5.22976ZM78.4175 4.33434C77.7922 4.0699 77.1532 3.81487 76.5182 3.57615L76.6385 3.25917C77.2776 3.49947 77.9211 3.75631 78.5504 4.02249L78.4175 4.33434ZM40.5619 3.6338L40.4407 3.31715C41.0774 3.07545 41.7283 2.84335 42.3754 2.6272L42.4836 2.94848C41.8409 3.16313 41.1943 3.39375 40.5619 3.6338H40.5619ZM74.5888 2.89521C73.9458 2.68287 73.2897 2.48079 72.6386 2.29459L72.7327 1.96902C73.3881 2.15645 74.0485 2.35986 74.6958 2.5736L74.5888 2.89521ZM44.4318 2.34116L44.3368 2.01592C44.9911 1.82633 45.6589 1.64749 46.3213 1.48429L46.4031 1.81317C45.745 1.9753 45.0818 2.15298 44.4318 2.34116ZM70.6656 1.7733C70.0087 1.61374 69.3382 1.46526 68.673 1.332L68.7401 0.999802C69.4098 1.13397 70.0848 1.28353 70.7462 1.44408L70.6656 1.7733ZM48.3941 1.36542L48.3258 1.03355C48.9928 0.897566 49.6728 0.773158 50.347 0.663723L50.4018 0.998068C49.7321 1.10684 49.0566 1.23043 48.3941 1.36542ZM66.6642 0.971353C65.9951 0.865135 65.3148 0.771009 64.6422 0.691764L64.6823 0.355268C65.3593 0.435091 66.0441 0.529803 66.7177 0.63684L66.6642 0.971353ZM52.4226 0.711699L52.3814 0.375368C53.0582 0.293311 53.746 0.223748 54.4257 0.16882L54.4533 0.506475C53.7781 0.561162 53.0949 0.63014 52.4226 0.711699ZM62.6108 0.493242C61.9363 0.440882 61.2506 0.401341 60.5729 0.375781L60.5859 0.0371379C61.2681 0.0629453 61.9582 0.102731 62.6373 0.155423L62.6108 0.493242ZM56.4909 0.382315L56.477 0.0438406C57.1573 0.0158885 57.8486 0.00115027 58.5315 0L58.532 0.338813C57.8536 0.339964 57.1669 0.354606 56.4909 0.382315Z" fill="#3F3D56"/>
<path d="M42.65 70.0756C42.65 70.0756 41.2661 75.9815 42.4523 75.9815C43.6386 75.9815 46.011 73.2254 46.011 73.2254V71.6505L42.65 70.0756Z" fill="#A0616A"/>
<path d="M45.5168 64.8588L41.9583 70.3709H44.5284L45.5168 64.8588Z" fill="#D0CDE1"/>
<path d="M48.0869 112.894H43.342V116.831H48.0869V112.894Z" fill="#A0616A"/>
<path d="M58.5654 112.303L59.5539 116.831L64.4964 115.65L63.3103 111.713L58.5654 112.303Z" fill="#A0616A"/>
<path d="M43.7376 71.5522C43.7376 71.5522 42.1559 72.3396 41.9582 75.8832C41.7605 79.4268 42.5514 88.6794 42.5514 88.6794C42.5514 88.6794 41.7605 92.8136 42.5514 96.554C43.3422 100.294 41.7605 113.878 42.7491 113.878C43.7376 113.878 48.8779 114.469 49.0756 113.878C49.2733 113.288 49.471 104.429 49.471 104.429C49.471 104.429 51.0526 99.9007 49.471 97.1446C49.471 97.1446 53.0296 100.098 53.0296 100.885C53.0296 101.673 56.786 113.878 58.5653 114.075C60.3447 114.272 65.2873 113.878 64.2988 112.106C63.3102 110.335 60.9378 102.263 60.9378 102.263C60.9378 102.263 59.1585 96.3572 55.9952 93.7979L57.5768 81.1986C57.5768 81.1986 60.9378 72.7334 58.9608 71.5522C56.9837 70.371 43.7376 71.5522 43.7376 71.5522Z" fill="#2F2E41"/>
<path d="M49.6686 39.4632C52.5075 39.4632 54.8089 37.1715 54.8089 34.3447C54.8089 31.5178 52.5075 29.2262 49.6686 29.2262C46.8297 29.2262 44.5283 31.5178 44.5283 34.3447C44.5283 37.1715 46.8297 39.4632 49.6686 39.4632Z" fill="#A0616A"/>
<path d="M47.0984 37.4945C47.0984 37.4945 49.0754 43.991 48.4823 44.7785C47.8892 45.566 54.8088 40.4475 54.8088 40.4475C54.8088 40.4475 52.2387 38.6757 53.2272 36.1165L47.0984 37.4945Z" fill="#A0616A"/>
<path d="M55.4021 39.8568C55.4021 39.8568 53.0296 40.6443 51.8434 42.0223C50.6572 43.4004 47.8893 43.5972 47.8893 43.5972C47.8893 43.5972 45.4425 44.9694 44.5284 47.3377C43.5541 49.8617 44.1204 53.4154 44.5284 54.2279C45.3192 55.8029 45.3192 59.7402 45.3192 59.7402L44.3307 68.7959C44.3307 68.7959 40.772 72.1426 43.5398 72.5364C46.3077 72.9301 51.2503 72.3395 54.2158 72.5364C57.1814 72.7332 60.5424 73.127 59.5538 71.1583C58.5653 69.1897 57.3791 67.8116 58.5653 63.8743C59.4936 60.7933 59.4533 49.2736 59.3919 44.409C59.3835 43.7409 59.2036 43.0861 58.8692 42.5068C58.5349 41.9275 58.0573 41.443 57.4818 41.0994L55.4021 39.8568Z" fill="#D0CDE1"/>
<path d="M47.6917 69.9772C47.6917 69.9772 46.7922 71.9491 46.7032 73.127C46.0112 82.2812 51.0526 73.127 51.0526 73.127V71.5521L47.6917 69.9772Z" fill="#A0616A"/>
<path d="M61.531 115.256C61.531 115.256 58.5654 113.091 58.5654 114.272C58.5654 115.453 55.2045 120.178 55.2045 120.178C55.2045 120.178 49.6687 124.115 54.2159 124.115C58.7631 124.115 60.7402 123.328 60.7402 123.328L65.485 120.178C65.485 120.178 66.6713 118.8 66.2759 117.225C65.8804 115.65 64.4965 113.484 64.4965 113.484C64.4965 113.484 62.9149 115.65 61.531 115.256Z" fill="#2F2E41"/>
<path d="M44.1328 115.847C44.1328 115.847 43.7374 113.878 42.3535 114.862C40.9696 115.847 37.2132 118.8 37.2132 118.8C37.2132 118.8 30.2936 120.375 34.6431 122.343C38.9925 124.312 48.8777 121.556 48.8777 121.556C48.8777 121.556 49.2731 115.256 48.8777 115.453C48.4823 115.65 44.3305 116.24 44.1328 115.847Z" fill="#2F2E41"/>
<path opacity="0.1" d="M52.5354 46.0581L53.1284 58.0668L47.3813 69.6575L46.4065 69.2882L52.3377 58.4605L52.5354 46.0581Z" fill="black"/>
<path d="M57.1813 42.4161L58.6641 42.1208C58.6641 42.1208 63.1124 45.3691 61.7285 51.8657C60.3446 58.3622 54.2157 68.2054 54.2157 68.2054C54.2157 68.2054 52.8318 69.9772 52.4364 70.3709C52.041 70.7647 51.2502 70.3709 51.6456 70.9615C52.041 71.5521 51.0525 71.9459 51.0525 71.9459C51.0525 71.9459 46.703 71.9459 47.0984 70.3709C47.4938 68.796 54.2157 57.5747 54.2157 57.5747L53.2272 47.1409C53.2272 47.1409 52.4364 42.0224 57.1813 42.4161Z" fill="#D0CDE1"/>
<path opacity="0.1" d="M59.0596 60.626V59.2479L52.3376 70.2724L59.0596 60.626Z" fill="black"/>
<path d="M46.0213 29.6031L45.1715 29.2643C45.1715 29.2643 46.9483 27.3164 49.4204 27.4858L48.7251 26.7236C48.7251 26.7236 50.4247 26.0461 51.9698 27.8246C52.782 28.7595 53.7217 29.8584 54.3075 31.0964H55.2176L54.8378 31.9292L56.1672 32.762L54.8027 32.6124C54.9319 33.3313 54.8877 34.0706 54.6736 34.7692L54.7102 35.4274C54.7102 35.4274 53.1285 32.9907 53.1285 32.6519V33.4988C53.1285 33.4988 52.2788 32.7366 52.2788 32.2285L51.8152 32.8213L51.5835 31.8897L48.7251 32.8213L49.1887 32.0591L47.4118 32.3132L48.1071 31.3816C48.1071 31.3816 46.0985 32.4825 46.0213 33.4141C45.944 34.3457 44.9398 35.5314 44.9398 35.5314L44.4762 34.6845C44.4762 34.6845 43.781 30.8734 46.0213 29.6031Z" fill="#2F2E41"/>
<path d="M143 27.7515H69.6956V42.163H143V27.7515Z" fill="#6C63FF"/>
<path d="M143 44.5962H69.6956V59.0077H143V44.5962Z" fill="#E6E6E6"/>
<path d="M77.4019 39.1684C79.7895 39.1684 81.725 37.2411 81.725 34.8637C81.725 32.4863 79.7895 30.559 77.4019 30.559C75.0144 30.559 73.0789 32.4863 73.0789 34.8637C73.0789 37.2411 75.0144 39.1684 77.4019 39.1684Z" fill="white"/>
<path d="M130.407 33.1792H87.7397V34.115H130.407V33.1792Z" fill="white"/>
<path d="M130.407 35.6123H87.7397V36.5481H130.407V35.6123Z" fill="white"/>
<path d="M77.4019 56.2002C79.7895 56.2002 81.725 54.2729 81.725 51.8954C81.725 49.518 79.7895 47.5907 77.4019 47.5907C75.0144 47.5907 73.0789 49.518 73.0789 51.8954C73.0789 54.2729 75.0144 56.2002 77.4019 56.2002Z" fill="white"/>
<path d="M130.407 50.2109H87.7397V51.1468H130.407V50.2109Z" fill="white"/>
<path d="M130.407 52.644H87.7397V53.5799H130.407V52.644Z" fill="white"/>
<path d="M130.407 50.2109H87.7397V51.1468H130.407V50.2109Z" fill="white"/>
<path d="M130.407 52.644H87.7397V53.5799H130.407V52.644Z" fill="white"/>
<path d="M143 61.1434H69.6956V75.555H143V61.1434Z" fill="#E6E6E6"/>
<path d="M77.4019 72.7475C79.7895 72.7475 81.725 70.8202 81.725 68.4428C81.725 66.0654 79.7895 64.1381 77.4019 64.1381C75.0144 64.1381 73.0789 66.0654 73.0789 68.4428C73.0789 70.8202 75.0144 72.7475 77.4019 72.7475Z" fill="white"/>
<path d="M130.407 66.7583H87.7397V67.6941H130.407V66.7583Z" fill="white"/>
<path d="M130.407 69.1914H87.7397V70.1272H130.407V69.1914Z" fill="white"/>
<path d="M130.407 66.7583H87.7397V67.6941H130.407V66.7583Z" fill="white"/>
<path d="M130.407 69.1914H87.7397V70.1272H130.407V69.1914Z" fill="white"/>
<path d="M77.0081 36.4911L75.4597 34.4355L75.8265 34.1616L77.0878 35.8362L82.0539 31.7904L82.3441 32.1438L77.0081 36.4911Z" fill="#6C63FF"/>
</svg>
