<svg width="255" height="140" viewBox="0 0 255 140" fill="none" xmlns="http://www.w3.org/2000/svg">
  <g clip-path="url(#clip0)">
    <path d="M255 14.5129H81.5513V127.647H255V14.5129Z" fill="#3F3D56"/>
    <path d="M89.5403 13.8796H76.2952V128.069H89.5403V13.8796Z" fill="#D0CDE1"/>
    <path d="M149.669 45.3293H114.979V45.7514H149.669V45.3293Z" fill="#D0CDE1"/>
    <path d="M228.72 106.54H180.995V61.7928H228.72V106.54ZM181.416 106.118H228.299V62.215H181.416V106.118Z" fill="#D0CDE1"/>
    <path d="M181.349 61.8496L181.062 62.1583L228.366 106.483L228.653 106.175L181.349 61.8496Z" fill="#D0CDE1"/>
    <path d="M228.367 61.8508L181.061 106.174L181.348 106.482L228.654 62.1595L228.367 61.8508Z" fill="#D0CDE1"/>
    <path d="M163.966 76.3568H114.979V76.779H163.966V76.3568Z" fill="#D0CDE1"/>
    <path d="M163.966 83.9554H114.979V84.3775H163.966V83.9554Z" fill="#D0CDE1"/>
    <path d="M163.966 91.554H114.979V91.9761H163.966V91.554Z" fill="#D0CDE1"/>
    <path d="M155.783 8.91913C158.236 8.91913 160.225 6.92251 160.225 4.45956C160.225 1.99661 158.236 0 155.783 0C153.329 0 151.341 1.99661 151.341 4.45956C151.341 6.92251 153.329 8.91913 155.783 8.91913Z" fill="#3F3D56"/>
    <path d="M168.276 8.91913C170.729 8.91913 172.718 6.92251 172.718 4.45956C172.718 1.99661 170.729 0 168.276 0C165.822 0 163.833 1.99661 163.833 4.45956C163.833 6.92251 165.822 8.91913 168.276 8.91913Z" fill="#6C63FF"/>
    <path d="M180.769 8.91913C183.222 8.91913 185.211 6.92251 185.211 4.45956C185.211 1.99661 183.222 0 180.769 0C178.315 0 176.327 1.99661 176.327 4.45956C176.327 6.92251 178.315 8.91913 180.769 8.91913Z" fill="#D0CDE1"/>
    <path d="M149.417 139.278H0V139.81H149.417V139.278Z" fill="#3F3D56"/>
    <path d="M44.0987 51.9193C45.713 51.9193 47.0217 50.6055 47.0217 48.9848C47.0217 47.3641 45.713 46.0503 44.0987 46.0503C42.4844 46.0503 41.1758 47.3641 41.1758 48.9848C41.1758 50.6055 42.4844 51.9193 44.0987 51.9193Z" fill="#2F2E41"/>
    <path d="M50.271 48.5501C54.9034 48.5501 58.6587 44.414 58.6587 39.3119C58.6587 34.2097 54.9034 30.0736 50.271 30.0736C45.6386 30.0736 41.8833 34.2097 41.8833 39.3119C41.8833 44.414 45.6386 48.5501 50.271 48.5501Z" fill="#2F2E41"/>
    <path d="M44.3694 79.0363L44.1529 80.1231C44.1529 80.1231 43.5033 80.7752 43.8281 81.1013C44.1529 81.4274 44.0446 82.949 44.0446 82.949L43.3951 87.1877L39.606 104.36C39.606 104.36 34.6262 107.621 30.7289 114.033C26.8317 120.445 26.7234 122.076 26.7234 122.076L31.0537 123.923L41.8794 110.772C41.8794 110.772 44.9107 108.925 45.9932 107.294C47.0758 105.664 53.7878 88.818 53.7878 88.818L57.5768 106.425C57.5768 106.425 57.3603 112.837 58.3346 116.967C58.9337 119.574 59.296 122.229 59.4172 124.901L64.5053 124.358C64.5053 124.358 64.1805 108.925 63.6392 107.294C63.6392 107.294 65.9126 88.4919 61.3658 80.9926L58.6594 70.0154L54.1125 69.798L44.3694 79.0363Z" fill="#2F2E41"/>
    <path d="M31.9197 123.489L26.5068 120.119L24.0169 124.902C24.0169 124.902 18.4957 128.271 19.6866 130.771C20.8774 133.27 21.96 133.922 21.96 133.922L22.7178 133.596L24.1251 136.205C24.1251 136.205 27.8059 141.53 33.76 138.813C34.0395 138.436 34.1904 137.979 34.1904 137.509C34.1904 137.039 34.0395 136.582 33.76 136.205C32.7857 134.792 30.2958 131.749 30.2958 131.749L31.9197 123.489Z" fill="#2F2E41"/>
    <path d="M65.0466 123.597L59.0924 124.032L59.742 128.923C59.742 128.923 56.9273 135.879 58.8759 136.422C60.2623 136.782 61.6736 137.036 63.098 137.183L63.3145 136.422C63.3145 136.422 71.6503 140.987 74.6815 137.618C74.6815 137.618 75.3311 135.227 73.4907 134.466C71.6503 133.705 68.0778 132.075 67.6448 131.205C67.2117 130.336 65.0466 123.597 65.0466 123.597Z" fill="#2F2E41"/>
    <path d="M50.5401 45.996C53.41 45.996 55.7365 43.6603 55.7365 40.7791C55.7365 37.8979 53.41 35.5622 50.5401 35.5622C47.6702 35.5622 45.3438 37.8979 45.3438 40.7791C45.3438 43.6603 47.6702 45.996 50.5401 45.996Z" fill="#FFB8B8"/>
    <path d="M46.6427 43.931C46.6427 43.931 47.2923 48.1697 44.0445 49.8C40.7968 51.4303 52.5969 53.3866 52.5969 53.3866C52.5969 53.3866 50.7565 50.5608 51.0813 49.5826C51.4061 48.6044 53.0299 44.6918 53.0299 44.6918L46.6427 43.931Z" fill="#FFB8B8"/>
    <path d="M45.7767 49.9086C45.7767 49.9086 42.6372 48.061 41.5546 48.9305C40.4721 49.7999 40.1473 76.4278 44.0446 77.5147L44.1528 78.9276C44.1528 78.9276 42.7455 79.5797 44.0446 79.5797C45.3437 79.5797 51.4061 75.1236 51.6226 73.4933C51.8391 71.8631 58.1181 71.537 58.1181 71.537C58.1181 71.537 59.7419 78.4929 60.2832 78.2755C60.8245 78.0581 60.8245 73.3847 60.608 72.7325C60.3915 72.0804 63.0979 70.0154 62.3401 68.7112C61.5823 67.407 59.5254 62.9509 59.5254 62.9509C59.5254 62.9509 59.7419 60.125 56.819 57.5166C56.819 57.5166 55.9648 52.6617 52.1157 52.5894C48.2666 52.5171 45.7767 49.9086 45.7767 49.9086Z" fill="#575A89"/>
    <path d="M45.3665 34.4304V40.3935H46.7419L48.4924 38.5104L48.258 40.3935H54.3382L53.9631 38.5104L54.7133 40.3935H55.6823V34.4304H45.3665Z" fill="#2F2E41"/>
    <path d="M58.0863 87.8617H13.231V128.988H58.0863V87.8617Z" fill="#6C63FF"/>
    <path d="M39.7913 109.277C36.0099 115.474 37.3109 123.184 37.3109 123.184C37.3109 123.184 44.7427 120.845 48.5241 114.647C52.3055 108.449 51.0045 100.74 51.0045 100.74C51.0045 100.74 43.5727 103.079 39.7913 109.277Z" fill="#3F3D56"/>
    <path d="M37.1566 123.235L36.9416 123.201C36.8638 123.189 29.1251 121.901 24.4904 116.334C19.8557 110.767 19.9672 102.892 19.9687 102.813L19.9733 102.595L20.1883 102.629C20.2661 102.642 28.0048 103.929 32.6395 109.496C37.2742 115.063 37.1627 122.938 37.1612 123.017L37.1566 123.235Z" fill="#D0CDE1"/>
    <path d="M37.547 103.101C39.8545 103.101 41.7251 101.223 41.7251 98.9065C41.7251 96.5899 39.8545 94.7119 37.547 94.7119C35.2395 94.7119 33.3689 96.5899 33.3689 98.9065C33.3689 101.223 35.2395 103.101 37.547 103.101Z" fill="#3F3D56"/>
    <path d="M37.6575 76.4278L38.9566 86.1008C38.9566 86.1008 38.1988 94.5783 41.1217 94.687C44.0447 94.7956 42.2043 85.9921 42.2043 85.9921L41.8795 77.1886C41.8795 77.1886 39.4978 73.2759 37.6575 76.4278Z" fill="#FFB8B8"/>
    <path d="M42.5291 49.5826C42.5291 49.5826 41.7713 47.5176 40.1474 49.1479C38.5235 50.7781 37.1162 55.0169 37.1162 57.6253C37.1162 60.2337 37.441 75.341 37.441 75.341C37.441 75.341 35.7088 75.9931 36.8997 76.9713C38.0905 77.9494 39.7144 76.4279 39.7144 76.4279C39.7144 76.4279 41.8795 77.9494 42.096 77.9494C42.3126 77.9494 42.2043 76.1018 42.2043 76.1018C42.2043 76.1018 43.2869 73.276 43.0704 71.1023C42.8538 68.9285 42.5291 49.5826 42.5291 49.5826Z" fill="#575A89"/>
    <path d="M228.72 39.4193H114.769V31.6096H228.72V39.4193ZM115.19 38.9971H228.299V32.0318H115.19V38.9971Z" fill="#D0CDE1"/>
    <path d="M25.1313 99.1198H13.9175C14.7831 95.6224 14.6787 91.8389 13.9175 87.8617H25.1313C23.5616 91.6144 23.5616 95.3671 25.1313 99.1198Z" fill="#D0CDE1"/>
    <path d="M22.413 90.2498H15.6167V91.6144H22.413V90.2498Z" fill="#3F3D56"/>
    <path d="M22.413 92.979H15.6167V94.3436H22.413V92.979Z" fill="#3F3D56"/>
    <path d="M22.413 95.7083H15.6167V97.0729H22.413V95.7083Z" fill="#3F3D56"/>
    <path d="M126.056 55.0063H114.842C115.708 51.5089 115.603 47.7253 114.842 43.7482H126.056C124.486 47.5009 124.486 51.2536 126.056 55.0063Z" fill="#D0CDE1"/>
    <path d="M123.338 46.1362H116.541V47.5009H123.338V46.1362Z" fill="#3F3D56"/>
    <path d="M123.338 48.8655H116.541V50.2301H123.338V48.8655Z" fill="#3F3D56"/>
    <path d="M123.338 51.5947H116.541V52.9593H123.338V51.5947Z" fill="#3F3D56"/>
    <path d="M210.503 72.0084H199.289C200.155 68.5109 200.05 64.7274 199.289 60.7502H210.503C208.933 64.503 208.933 68.2557 210.503 72.0084Z" fill="#D0CDE1"/>
    <path d="M207.785 63.1384H200.988V64.503H207.785V63.1384Z" fill="#3F3D56"/>
    <path d="M207.785 65.8676H200.988V67.2322H207.785V65.8676Z" fill="#3F3D56"/>
    <path d="M207.785 68.5969H200.988V69.9615H207.785V68.5969Z" fill="#3F3D56"/>
    <path d="M224.921 47.8838H213.707C214.572 44.3864 214.468 40.6028 213.707 36.6257H224.921C223.351 40.3784 223.351 44.1311 224.921 47.8838Z" fill="#D0CDE1"/>
    <path d="M222.202 39.0137H215.406V40.3784H222.202V39.0137Z" fill="#3F3D56"/>
    <path d="M222.202 41.743H215.406V43.1076H222.202V41.743Z" fill="#3F3D56"/>
    <path d="M222.202 44.4722H215.406V45.8369H222.202V44.4722Z" fill="#3F3D56"/>
    <path d="M85.8931 60.6354H79.9429V54.6617H85.8931V60.6354ZM80.4006 60.1759H85.4354V55.1212H80.4006V60.1759Z" fill="#3F3D56"/>
    <path d="M86.0066 73.9613H80.0564V67.9876H86.0066V73.9613ZM80.5141 73.5018H85.5489V68.4471H80.5141V73.5018Z" fill="#3F3D56"/>
    <path d="M86.1201 87.2873H80.1699V81.3136H86.1201V87.2873ZM80.6276 86.8278H85.6624V81.7731H80.6276V86.8278Z" fill="#3F3D56"/>
    <path d="M80.2852 83.2665C81.2963 83.2665 82.116 82.4436 82.116 81.4285C82.116 80.4133 81.2963 79.5904 80.2852 79.5904C79.274 79.5904 78.4543 80.4133 78.4543 81.4285C78.4543 82.4436 79.274 83.2665 80.2852 83.2665Z" fill="#6C63FF"/>
  </g>
  <defs>
    <clipPath id="clip0">
    </clipPath>
  </defs>
</svg>
