<svg width="32" height="29" viewBox="0 0 32 29" fill="none" xmlns="http://www.w3.org/2000/svg">
<rect x="1" width="30" height="29" fill="#E4EDF8"/>
<path d="M31 29H1V0H31V29ZM1.26432 28.7264H30.7357V0.273585H1.26432V28.7264Z" fill="#D0CDE1"/>
<path d="M1.01524 0.38141L0.830933 0.579102L31.209 28.9637L31.3933 28.766L1.01524 0.38141Z" fill="#D0CDE1"/>
<path d="M31.2096 0.382144L0.8302 28.7653L1.01449 28.963L31.3939 0.579838L31.2096 0.382144Z" fill="#D0CDE1"/>
<path d="M20 7H13C13.5404 4.82538 13.4752 2.4729 13 0H20C19.0201 2.33333 19.0201 4.66667 20 7Z" fill="#D0CDE1"/>
<path d="M18 1H14V2H18V1Z" fill="#3F3D56"/>
<path d="M18 3H14V4H18V3Z" fill="#3F3D56"/>
<path d="M18 5H14V6H18V5Z" fill="#3F3D56"/>
</svg>
