<svg width="324" height="254" viewBox="0 0 324 254" fill="none" xmlns="http://www.w3.org/2000/svg">
<g clip-path="url(#clip0)">
<path d="M127.833 233.286C127.833 233.286 128.521 230.394 133.341 231.358C138.16 232.322 138.849 233.286 138.849 233.286H127.833Z" fill="#3F3D56"/>
<path d="M104.079 229.499C104.079 229.499 104.768 226.608 109.587 227.571C114.407 228.535 115.095 229.499 115.095 229.499H104.079Z" fill="#3F3D56"/>
<path d="M144.357 233.286C144.357 233.286 140.501 230.945 138.849 233.286H144.357Z" fill="#3F3D56"/>
<path d="M126.387 226.676C126.387 226.676 122.531 224.335 120.879 226.676H126.387Z" fill="#3F3D56"/>
<path d="M104.757 224.526C105.905 226.654 108.342 227.568 108.342 227.568C108.342 227.568 108.917 225.031 107.769 222.902C106.621 220.773 104.185 219.859 104.185 219.859C104.185 219.859 103.61 222.397 104.757 224.526Z" fill="#3F3D56"/>
<path d="M105.546 223.825C107.619 225.072 108.417 227.549 108.417 227.549C108.417 227.549 105.855 228.004 103.783 226.757C101.71 225.51 100.912 223.033 100.912 223.033C100.912 223.033 103.474 222.578 105.546 223.825Z" fill="#6C63FF"/>
<path d="M219.335 231.565C219.335 231.565 220.023 228.673 224.843 229.637C229.663 230.601 230.351 231.565 230.351 231.565H219.335Z" fill="#3F3D56"/>
<path d="M208.319 233.286C204.97 232.762 201.751 232.316 198.66 231.948L199.85 229.568C199.437 229.43 197.647 230.807 197.647 230.807L199.162 223.922C197.096 224.198 196.132 231.221 196.132 231.221L193.791 228.88L194.944 231.53C185.486 230.536 177.325 230.226 170.465 230.297L171.484 228.26C171.071 228.122 169.281 229.499 169.281 229.499L170.795 222.614C168.73 222.89 167.766 229.912 167.766 229.912L165.425 227.571L166.645 230.379C161.946 230.515 157.257 230.893 152.597 231.51C153.613 228.343 157.163 225.299 157.163 225.299C154.434 226.149 153.014 227.532 152.279 228.814C152.13 222.309 153.131 215.828 155.235 209.67C155.235 209.67 149.727 222.063 150.553 230.325L150.658 231.793C145.866 232.541 143.462 233.286 143.462 233.286H208.319Z" fill="#3F3D56"/>
<path d="M172.379 239.551C172.379 239.551 197.716 235.834 213.414 239.551Z" fill="#3F3D56"/>
<path d="M135.062 244.646C135.062 244.646 160.399 240.928 176.097 244.646Z" fill="#3F3D56"/>
<path d="M182.018 246.013C182.018 246.013 197.025 242.207 206.322 246.013Z" fill="#3F3D56"/>
<path d="M223.933 230.733L223.688 230.607C226.866 224.462 225.167 216.482 223.181 210.87C221.833 207.097 220.114 203.468 218.048 200.036L218.281 199.889C220.357 203.339 222.086 206.986 223.441 210.778C225.444 216.441 227.156 224.501 223.933 230.733Z" fill="#3F3D56"/>
<path d="M226.29 199.938L224.503 209.716L224.774 209.765L226.561 199.988L226.29 199.938Z" fill="#3F3D56"/>
<path d="M214.41 208.268L214.208 208.456L223.434 218.371L223.636 218.183L214.41 208.268Z" fill="#3F3D56"/>
<path d="M230.996 219.159L226.316 225.633L226.539 225.794L231.219 219.32L230.996 219.159Z" fill="#3F3D56"/>
<path d="M227.115 197.346C227.876 197.346 228.492 196.73 228.492 195.969C228.492 195.209 227.876 194.592 227.115 194.592C226.355 194.592 225.738 195.209 225.738 195.969C225.738 196.73 226.355 197.346 227.115 197.346Z" fill="#6C63FF"/>
<path d="M212.106 207.949C212.866 207.949 213.483 207.333 213.483 206.572C213.483 205.812 212.866 205.195 212.106 205.195C211.345 205.195 210.729 205.812 210.729 206.572C210.729 207.333 211.345 207.949 212.106 207.949Z" fill="#3F3D56"/>
<path d="M218.164 209.326C218.925 209.326 219.541 208.71 219.541 207.949C219.541 207.189 218.925 206.572 218.164 206.572C217.404 206.572 216.787 207.189 216.787 207.949C216.787 208.71 217.404 209.326 218.164 209.326Z" fill="#3F3D56"/>
<path d="M215.41 214.696C216.171 214.696 216.787 214.08 216.787 213.319C216.787 212.559 216.171 211.942 215.41 211.942C214.65 211.942 214.033 212.559 214.033 213.319C214.033 214.08 214.65 214.696 215.41 214.696Z" fill="#6C63FF"/>
<path d="M232.623 218.139C233.384 218.139 234 217.522 234 216.762C234 216.001 233.384 215.385 232.623 215.385C231.863 215.385 231.246 216.001 231.246 216.762C231.246 217.522 231.863 218.139 232.623 218.139Z" fill="#3F3D56"/>
<path d="M228.079 219.654C228.839 219.654 229.456 219.037 229.456 218.277C229.456 217.516 228.839 216.9 228.079 216.9C227.318 216.9 226.702 217.516 226.702 218.277C226.702 219.037 227.318 219.654 228.079 219.654Z" fill="#3F3D56"/>
<path d="M231.246 224.06C232.007 224.06 232.623 223.444 232.623 222.683C232.623 221.923 232.007 221.306 231.246 221.306C230.486 221.306 229.869 221.923 229.869 222.683C229.869 223.444 230.486 224.06 231.246 224.06Z" fill="#3F3D56"/>
<path d="M216.788 198.999C217.548 198.999 218.165 198.382 218.165 197.622C218.165 196.861 217.548 196.245 216.788 196.245C216.027 196.245 215.411 196.861 215.411 197.622C215.411 198.382 216.027 198.999 216.788 198.999Z" fill="#3F3D56"/>
<path d="M136.202 190.322C136.202 207.344 126.083 213.287 113.601 213.287C101.119 213.287 91 207.344 91 190.322C91 173.301 113.601 151.648 113.601 151.648C113.601 151.648 136.202 173.301 136.202 190.322Z" fill="#57B894"/>
<path d="M112.778 210.683L113.009 196.438L122.642 178.815L113.045 194.203L113.149 187.798L119.789 175.048L113.177 186.103L113.364 174.583L120.473 164.432L113.393 172.771L113.51 151.648L112.776 179.612L112.836 178.458L105.608 167.394L112.72 180.673L112.047 193.538L112.027 193.197L103.694 181.554L112.001 194.403L111.917 196.012L111.902 196.037L111.909 196.169L110.2 228.811H112.483L112.757 211.95L121.044 199.133L112.778 210.683Z" fill="#3F3D56"/>
<path d="M210.751 185.248C210.751 206.043 198.389 213.303 183.14 213.303C167.891 213.303 155.529 206.043 155.529 185.248C155.529 164.454 183.14 138 183.14 138C183.14 138 210.751 164.454 210.751 185.248Z" fill="#57B894"/>
<path d="M182.134 210.122L182.417 192.719L194.185 171.189L182.461 189.989L182.588 182.164L190.699 166.587L182.622 180.093L182.851 166.019L191.536 153.618L182.886 163.806L183.029 138L182.132 172.163L182.205 170.754L173.375 157.237L182.064 173.459L181.241 189.177L181.217 188.76L171.037 174.536L181.186 190.234L181.083 192.199L181.064 192.229L181.073 192.39L178.985 232.268H181.774L182.109 211.671L192.233 196.011L182.134 210.122Z" fill="#3F3D56"/>
<path d="M160.837 215.197L162.096 219.092C162.096 219.092 160.957 222.747 161.496 226.821C162.036 230.895 161.736 231.015 161.736 231.015C161.736 231.015 156.348 230.704 156.888 232.322C157.427 233.94 162.695 232.992 162.695 232.992C162.695 232.992 163.706 232.719 164.186 229.844C164.665 226.968 165.87 221.428 165.87 221.428L164.737 216.199L160.837 215.197Z" fill="#FFB8B8"/>
<path d="M161.257 207.229C161.257 207.229 158.98 208.068 158.98 210.344C158.98 212.621 159.819 215.737 160.358 215.916C160.897 216.096 164.492 218.553 165.151 216.815C165.81 215.078 161.257 207.229 161.257 207.229Z" fill="#6C63FF"/>
<path d="M180.309 234.19L185.102 234.01L188.757 233.471L187.679 237.066L178.812 237.306L180.309 234.19Z" fill="#FFB8B8"/>
<path d="M187.199 234.669C187.199 234.669 187.139 233.351 186.6 233.411C186.061 233.471 186.421 232.932 186.9 232.812C187.379 232.692 188.757 232.093 188.757 232.093L194.209 232.453C194.209 232.453 197.744 235.568 196.306 237.246C194.868 238.923 191.154 237.425 191.154 237.425L187.139 237.485C187.139 237.485 185.821 235.328 187.199 234.669Z" fill="#2F2E41"/>
<path d="M189.356 230.056L191.094 238.204L194.689 237.485L192.652 227.3L190.495 226.162L189.356 230.056Z" fill="#FFB8B8"/>
<path d="M168.686 229.037C168.686 229.037 158.621 233.591 162.874 238.204C162.874 238.204 162.874 240.361 167.368 239.942C171.862 239.522 180.549 238.743 180.968 238.983C181.388 239.223 182.706 234.25 181.568 234.01C180.429 233.771 179.051 233.471 179.051 233.471C179.051 233.471 180.249 233.291 180.249 232.273C180.249 232.273 183.665 232.033 184.683 229.876C185.702 227.719 186.66 226.102 186.66 226.102L188.997 232.093C188.997 232.093 191.693 227.12 193.73 229.337C193.73 229.337 191.453 215.018 189.716 213.7C187.978 212.381 186.78 211.962 185.162 213.16C183.545 214.359 182.047 217.414 182.047 217.414L168.686 229.037Z" fill="#2F2E41"/>
<path d="M192.711 235.748C192.293 236.064 191.892 236.404 191.513 236.766C191.034 237.246 190.375 237.006 190.315 236.766C190.255 236.527 189.177 236.946 189.057 238.684C188.937 240.421 188.218 241.979 190.135 242.518C192.052 243.057 191.993 244.615 191.993 244.615C193.51 245.343 195.251 245.45 196.846 244.915C199.542 244.016 198.583 243.057 198.583 243.057L194.988 237.126C194.988 237.126 194.03 235.328 192.711 235.748Z" fill="#2F2E41"/>
<path d="M182.766 206.031C182.766 206.031 188.518 208.008 189.117 208.427C189.716 208.847 192.412 210.824 191.094 211.842C189.776 212.861 188.697 213.52 186.121 212.741C183.545 211.962 180.669 209.566 180.669 209.566L182.766 206.031Z" fill="#FFB8B8"/>
<path d="M177.014 203.394C177.014 203.394 179.291 202.975 180.908 203.874C182.526 204.772 183.904 206.57 183.904 206.57C183.904 206.57 182.406 209.745 181.328 210.225C180.249 210.704 178.272 208.307 178.272 208.307L177.014 203.394Z" fill="#6C63FF"/>
<path d="M166.529 201.657C166.529 201.657 166.589 203.994 166.349 204.233C166.11 204.473 169.225 211.543 172.64 208.427C176.055 205.312 173.419 204.053 173.419 204.053C173.419 204.053 172.161 201.717 172.221 201.477C172.281 201.237 166.649 201.477 166.649 201.477L166.529 201.657Z" fill="#FFB8B8"/>
<path opacity="0.1" d="M166.529 201.657C166.529 201.657 166.589 203.994 166.349 204.233C166.11 204.473 169.225 211.543 172.64 208.427C176.055 205.312 173.419 204.053 173.419 204.053C173.419 204.053 172.161 201.717 172.221 201.477C172.281 201.237 166.649 201.477 166.649 201.477L166.529 201.657Z" fill="black"/>
<path d="M167.488 206.15C167.488 206.15 169.765 207.708 170.723 207.349C171.682 206.989 172.88 205.431 173 205.312C173.12 205.192 179.231 217.474 179.231 217.474C179.231 217.474 178.332 221.968 175.936 223.286C173.539 224.604 173.569 225.652 173.27 226.551C172.97 227.45 169.106 223.705 169.106 223.705L166.649 213.28V206.929L167.488 206.15Z" fill="#6C63FF"/>
<path d="M166.499 203.364C166.499 203.364 165.75 203.215 164.971 203.874C164.192 204.533 160.538 206.989 160.717 207.229C160.897 207.468 162.515 210.884 162.874 212.262C163.234 213.64 163.773 213.819 163.773 213.819C163.773 213.819 165.031 214.718 164.852 215.377C164.672 216.036 163.893 225.023 164.971 227C166.05 228.978 165.87 230.715 165.57 231.194C165.271 231.674 168.446 229.816 168.446 229.816C168.446 229.816 173.18 225.982 173.539 224.843C173.771 224.061 173.932 223.259 174.018 222.447C174.018 222.447 170.963 210.344 170.004 209.685C169.045 209.026 166.499 203.364 166.499 203.364Z" fill="#575A89"/>
<path d="M173.081 203.412C173.081 203.412 174.558 202.496 174.857 202.735C175.157 202.975 177.973 202.975 178.033 203.215C178.093 203.454 178.212 209.206 180.249 210.704C182.287 212.202 180.968 215.197 180.968 215.197L182.466 217.594C182.466 217.594 174.318 225.442 174.857 222.747C174.887 222.597 174.857 222.567 174.857 222.567C174.857 222.567 171.682 208.966 172.101 208.247C172.521 207.528 173.283 204.268 173.081 203.412Z" fill="#575A89"/>
<path d="M185.642 208.906L177.493 211.722C177.493 211.722 169.405 213.64 170.663 215.856C171.921 218.073 177.254 214.299 177.254 214.299L188.104 213.083C188.104 213.083 192.412 209.446 185.642 208.906Z" fill="#FFB8B8"/>
<path d="M169.764 203.874C172.213 203.874 174.198 201.889 174.198 199.44C174.198 196.991 172.213 195.006 169.764 195.006C167.316 195.006 165.331 196.991 165.331 199.44C165.331 201.889 167.316 203.874 169.764 203.874Z" fill="#FFB8B8"/>
<path d="M166.234 195.034L165.414 194.736C165.414 194.736 167.128 193.021 169.514 193.17L168.843 192.499C168.843 192.499 170.483 191.902 171.975 193.468C172.758 194.291 173.665 195.259 174.231 196.348H175.109L174.742 197.082L176.025 197.815L174.709 197.683C174.833 198.316 174.79 198.971 174.584 199.582L174.286 200.402C174.286 200.402 173.093 198.016 173.093 197.718V198.463C173.093 198.463 172.273 197.792 172.273 197.345L171.825 197.867L171.602 197.047L168.843 197.867L169.291 197.196L167.576 197.42L168.247 196.599C168.247 196.599 166.308 197.569 166.234 198.389C166.159 199.209 165.19 200.253 165.19 200.253L164.743 199.507C164.743 199.507 164.072 196.152 166.234 195.034Z" fill="#2F2E41"/>
</g>
<path d="M96.9641 59.1L92.3641 67.96V73H90.0841V67.96L85.4641 59.1H88.0041L91.2241 65.92L94.4441 59.1H96.9641ZM103.553 73.18C102.513 73.18 101.573 72.9467 100.733 72.48C99.8934 72 99.2334 71.3333 98.7534 70.48C98.2734 69.6133 98.0334 68.6133 98.0334 67.48C98.0334 66.36 98.2801 65.3667 98.7734 64.5C99.2668 63.6333 99.9401 62.9667 100.793 62.5C101.647 62.0333 102.6 61.8 103.653 61.8C104.707 61.8 105.66 62.0333 106.513 62.5C107.367 62.9667 108.04 63.6333 108.533 64.5C109.027 65.3667 109.273 66.36 109.273 67.48C109.273 68.6 109.02 69.5933 108.513 70.46C108.007 71.3267 107.313 72 106.433 72.48C105.567 72.9467 104.607 73.18 103.553 73.18ZM103.553 71.2C104.14 71.2 104.687 71.06 105.193 70.78C105.713 70.5 106.133 70.08 106.453 69.52C106.773 68.96 106.933 68.28 106.933 67.48C106.933 66.68 106.78 66.0067 106.473 65.46C106.167 64.9 105.76 64.48 105.253 64.2C104.747 63.92 104.2 63.78 103.613 63.78C103.027 63.78 102.48 63.92 101.973 64.2C101.48 64.48 101.087 64.9 100.793 65.46C100.5 66.0067 100.353 66.68 100.353 67.48C100.353 68.6667 100.653 69.5867 101.253 70.24C101.867 70.88 102.633 71.2 103.553 71.2ZM121.507 61.98V73H119.227V71.7C118.867 72.1533 118.394 72.5133 117.807 72.78C117.234 73.0333 116.621 73.16 115.967 73.16C115.101 73.16 114.321 72.98 113.627 72.62C112.947 72.26 112.407 71.7267 112.007 71.02C111.621 70.3133 111.427 69.46 111.427 68.46V61.98H113.687V68.12C113.687 69.1067 113.934 69.8667 114.427 70.4C114.921 70.92 115.594 71.18 116.447 71.18C117.301 71.18 117.974 70.92 118.467 70.4C118.974 69.8667 119.227 69.1067 119.227 68.12V61.98H121.507ZM124.876 59.1H127.356L125.256 63.86H123.656L124.876 59.1ZM131.639 63.58C131.973 63.02 132.413 62.5867 132.959 62.28C133.519 61.96 134.179 61.8 134.939 61.8V64.16H134.359C133.466 64.16 132.786 64.3867 132.319 64.84C131.866 65.2933 131.639 66.08 131.639 67.2V73H129.359V61.98H131.639V63.58ZM147.135 67.22C147.135 67.6333 147.108 68.0067 147.055 68.34H138.635C138.702 69.22 139.028 69.9267 139.615 70.46C140.202 70.9933 140.922 71.26 141.775 71.26C143.002 71.26 143.868 70.7467 144.375 69.72H146.835C146.502 70.7333 145.895 71.5667 145.015 72.22C144.148 72.86 143.068 73.18 141.775 73.18C140.722 73.18 139.775 72.9467 138.935 72.48C138.108 72 137.455 71.3333 136.975 70.48C136.508 69.6133 136.275 68.6133 136.275 67.48C136.275 66.3467 136.502 65.3533 136.955 64.5C137.422 63.6333 138.068 62.9667 138.895 62.5C139.735 62.0333 140.695 61.8 141.775 61.8C142.815 61.8 143.742 62.0267 144.555 62.48C145.368 62.9333 146.002 63.5733 146.455 64.4C146.908 65.2133 147.135 66.1533 147.135 67.22ZM144.755 66.5C144.742 65.66 144.442 64.9867 143.855 64.48C143.268 63.9733 142.542 63.72 141.675 63.72C140.888 63.72 140.215 63.9733 139.655 64.48C139.095 64.9733 138.762 65.6467 138.655 66.5H144.755ZM153.814 67.44C153.814 66.3333 154.041 65.3533 154.494 64.5C154.961 63.6467 155.588 62.9867 156.374 62.52C157.174 62.04 158.054 61.8 159.014 61.8C159.881 61.8 160.634 61.9733 161.274 62.32C161.928 62.6533 162.448 63.0733 162.834 63.58V61.98H165.134V73H162.834V71.36C162.448 71.88 161.921 72.3133 161.254 72.66C160.588 73.0067 159.828 73.18 158.974 73.18C158.028 73.18 157.161 72.94 156.374 72.46C155.588 71.9667 154.961 71.2867 154.494 70.42C154.041 69.54 153.814 68.5467 153.814 67.44ZM162.834 67.48C162.834 66.72 162.674 66.06 162.354 65.5C162.048 64.94 161.641 64.5133 161.134 64.22C160.628 63.9267 160.081 63.78 159.494 63.78C158.908 63.78 158.361 63.9267 157.854 64.22C157.348 64.5 156.934 64.92 156.614 65.48C156.308 66.0267 156.154 66.68 156.154 67.44C156.154 68.2 156.308 68.8667 156.614 69.44C156.934 70.0133 157.348 70.4533 157.854 70.76C158.374 71.0533 158.921 71.2 159.494 71.2C160.081 71.2 160.628 71.0533 161.134 70.76C161.641 70.4667 162.048 70.04 162.354 69.48C162.674 68.9067 162.834 68.24 162.834 67.48ZM170.409 58.2V73H168.129V58.2H170.409ZM175.682 58.2V73H173.402V58.2H175.682ZM183.111 67.44C183.111 66.3333 183.338 65.3533 183.791 64.5C184.258 63.6467 184.884 62.9867 185.671 62.52C186.471 62.04 187.358 61.8 188.331 61.8C189.051 61.8 189.758 61.96 190.451 62.28C191.158 62.5867 191.718 63 192.131 63.52V58.2H194.431V73H192.131V71.34C191.758 71.8733 191.238 72.3133 190.571 72.66C189.918 73.0067 189.164 73.18 188.311 73.18C187.351 73.18 186.471 72.94 185.671 72.46C184.884 71.9667 184.258 71.2867 183.791 70.42C183.338 69.54 183.111 68.5467 183.111 67.44ZM192.131 67.48C192.131 66.72 191.971 66.06 191.651 65.5C191.344 64.94 190.938 64.5133 190.431 64.22C189.924 63.9267 189.378 63.78 188.791 63.78C188.204 63.78 187.658 63.9267 187.151 64.22C186.644 64.5 186.231 64.92 185.911 65.48C185.604 66.0267 185.451 66.68 185.451 67.44C185.451 68.2 185.604 68.8667 185.911 69.44C186.231 70.0133 186.644 70.4533 187.151 70.76C187.671 71.0533 188.218 71.2 188.791 71.2C189.378 71.2 189.924 71.0533 190.431 70.76C190.938 70.4667 191.344 70.04 191.651 69.48C191.971 68.9067 192.131 68.24 192.131 67.48ZM202.206 73.18C201.166 73.18 200.226 72.9467 199.386 72.48C198.546 72 197.886 71.3333 197.406 70.48C196.926 69.6133 196.686 68.6133 196.686 67.48C196.686 66.36 196.932 65.3667 197.426 64.5C197.919 63.6333 198.592 62.9667 199.446 62.5C200.299 62.0333 201.252 61.8 202.306 61.8C203.359 61.8 204.312 62.0333 205.166 62.5C206.019 62.9667 206.692 63.6333 207.186 64.5C207.679 65.3667 207.926 66.36 207.926 67.48C207.926 68.6 207.672 69.5933 207.166 70.46C206.659 71.3267 205.966 72 205.086 72.48C204.219 72.9467 203.259 73.18 202.206 73.18ZM202.206 71.2C202.792 71.2 203.339 71.06 203.846 70.78C204.366 70.5 204.786 70.08 205.106 69.52C205.426 68.96 205.586 68.28 205.586 67.48C205.586 66.68 205.432 66.0067 205.126 65.46C204.819 64.9 204.412 64.48 203.906 64.2C203.399 63.92 202.852 63.78 202.266 63.78C201.679 63.78 201.132 63.92 200.626 64.2C200.132 64.48 199.739 64.9 199.446 65.46C199.152 66.0067 199.006 66.68 199.006 67.48C199.006 68.6667 199.306 69.5867 199.906 70.24C200.519 70.88 201.286 71.2 202.206 71.2ZM215.74 61.8C216.606 61.8 217.38 61.98 218.06 62.34C218.753 62.7 219.293 63.2333 219.68 63.94C220.066 64.6467 220.26 65.5 220.26 66.5V73H218V66.84C218 65.8533 217.753 65.1 217.26 64.58C216.766 64.0467 216.093 63.78 215.24 63.78C214.386 63.78 213.706 64.0467 213.2 64.58C212.706 65.1 212.46 65.8533 212.46 66.84V73H210.18V61.98H212.46V63.24C212.833 62.7867 213.306 62.4333 213.88 62.18C214.466 61.9267 215.086 61.8 215.74 61.8ZM233.268 67.22C233.268 67.6333 233.241 68.0067 233.188 68.34H224.768C224.835 69.22 225.161 69.9267 225.748 70.46C226.335 70.9933 227.055 71.26 227.908 71.26C229.135 71.26 230.001 70.7467 230.508 69.72H232.968C232.635 70.7333 232.028 71.5667 231.148 72.22C230.281 72.86 229.201 73.18 227.908 73.18C226.855 73.18 225.908 72.9467 225.068 72.48C224.241 72 223.588 71.3333 223.108 70.48C222.641 69.6133 222.408 68.6133 222.408 67.48C222.408 66.3467 222.635 65.3533 223.088 64.5C223.555 63.6333 224.201 62.9667 225.028 62.5C225.868 62.0333 226.828 61.8 227.908 61.8C228.948 61.8 229.875 62.0267 230.688 62.48C231.501 62.9333 232.135 63.5733 232.588 64.4C233.041 65.2133 233.268 66.1533 233.268 67.22ZM230.888 66.5C230.875 65.66 230.575 64.9867 229.988 64.48C229.401 63.9733 228.675 63.72 227.808 63.72C227.021 63.72 226.348 63.9733 225.788 64.48C225.228 64.9733 224.895 65.6467 224.788 66.5H230.888ZM236.432 73.14C236.018 73.14 235.672 73 235.392 72.72C235.112 72.44 234.972 72.0933 234.972 71.68C234.972 71.2667 235.112 70.92 235.392 70.64C235.672 70.36 236.018 70.22 236.432 70.22C236.832 70.22 237.172 70.36 237.452 70.64C237.732 70.92 237.872 71.2667 237.872 71.68C237.872 72.0933 237.732 72.44 237.452 72.72C237.172 73 236.832 73.14 236.432 73.14ZM79.0288 93.1C78.6688 92.4067 78.1688 91.8867 77.5288 91.54C76.8888 91.18 76.1488 91 75.3088 91C74.3888 91 73.5688 91.2067 72.8488 91.62C72.1288 92.0333 71.5621 92.62 71.1488 93.38C70.7488 94.14 70.5488 95.02 70.5488 96.02C70.5488 97.02 70.7488 97.9067 71.1488 98.68C71.5621 99.44 72.1288 100.027 72.8488 100.44C73.5688 100.853 74.3888 101.06 75.3088 101.06C76.5488 101.06 77.5554 100.713 78.3288 100.02C79.1021 99.3267 79.5754 98.3867 79.7488 97.2H74.5288V95.38H82.1888V97.16C82.0421 98.24 81.6554 99.2333 81.0288 100.14C80.4154 101.047 79.6088 101.773 78.6088 102.32C77.6221 102.853 76.5221 103.12 75.3088 103.12C74.0021 103.12 72.8088 102.82 71.7288 102.22C70.6488 101.607 69.7888 100.76 69.1488 99.68C68.5221 98.6 68.2088 97.38 68.2088 96.02C68.2088 94.66 68.5221 93.44 69.1488 92.36C69.7888 91.28 70.6488 90.44 71.7288 89.84C72.8221 89.2267 74.0154 88.92 75.3088 88.92C76.7888 88.92 78.1021 89.2867 79.2488 90.02C80.4088 90.74 81.2488 91.7667 81.7688 93.1H79.0288ZM94.5375 97.22C94.5375 97.6333 94.5108 98.0067 94.4575 98.34H86.0375C86.1042 99.22 86.4308 99.9267 87.0175 100.46C87.6042 100.993 88.3242 101.26 89.1775 101.26C90.4042 101.26 91.2708 100.747 91.7775 99.72H94.2375C93.9042 100.733 93.2975 101.567 92.4175 102.22C91.5508 102.86 90.4708 103.18 89.1775 103.18C88.1242 103.18 87.1775 102.947 86.3375 102.48C85.5108 102 84.8575 101.333 84.3775 100.48C83.9108 99.6133 83.6775 98.6133 83.6775 97.48C83.6775 96.3467 83.9042 95.3533 84.3575 94.5C84.8242 93.6333 85.4708 92.9667 86.2975 92.5C87.1375 92.0333 88.0975 91.8 89.1775 91.8C90.2175 91.8 91.1442 92.0267 91.9575 92.48C92.7708 92.9333 93.4042 93.5733 93.8575 94.4C94.3108 95.2133 94.5375 96.1533 94.5375 97.22ZM92.1575 96.5C92.1442 95.66 91.8442 94.9867 91.2575 94.48C90.6708 93.9733 89.9442 93.72 89.0775 93.72C88.2908 93.72 87.6175 93.9733 87.0575 94.48C86.4975 94.9733 86.1642 95.6467 86.0575 96.5H92.1575ZM99.4413 93.84V99.94C99.4413 100.353 99.5346 100.653 99.7213 100.84C99.9213 101.013 100.255 101.1 100.721 101.1H102.121V103H100.321C99.2946 103 98.5079 102.76 97.9613 102.28C97.4146 101.8 97.1413 101.02 97.1413 99.94V93.84H95.8413V91.98H97.1413V89.24H99.4413V91.98H102.121V93.84H99.4413ZM113.418 103.18C112.551 103.18 111.771 103.027 111.078 102.72C110.398 102.4 109.858 101.973 109.458 101.44C109.058 100.893 108.845 100.287 108.818 99.62H111.178C111.218 100.087 111.438 100.48 111.838 100.8C112.251 101.107 112.765 101.26 113.378 101.26C114.018 101.26 114.511 101.14 114.858 100.9C115.218 100.647 115.398 100.327 115.398 99.94C115.398 99.5267 115.198 99.22 114.798 99.02C114.411 98.82 113.791 98.6 112.938 98.36C112.111 98.1333 111.438 97.9133 110.918 97.7C110.398 97.4867 109.945 97.16 109.558 96.72C109.185 96.28 108.998 95.7 108.998 94.98C108.998 94.3933 109.171 93.86 109.518 93.38C109.865 92.8867 110.358 92.5 110.998 92.22C111.651 91.94 112.398 91.8 113.238 91.8C114.491 91.8 115.498 92.12 116.258 92.76C117.031 93.3867 117.445 94.2467 117.498 95.34H115.218C115.178 94.8467 114.978 94.4533 114.618 94.16C114.258 93.8667 113.771 93.72 113.158 93.72C112.558 93.72 112.098 93.8333 111.778 94.06C111.458 94.2867 111.298 94.5867 111.298 94.96C111.298 95.2533 111.405 95.5 111.618 95.7C111.831 95.9 112.091 96.06 112.398 96.18C112.705 96.2867 113.158 96.4267 113.758 96.6C114.558 96.8133 115.211 97.0333 115.718 97.26C116.238 97.4733 116.685 97.7933 117.058 98.22C117.431 98.6467 117.625 99.2133 117.638 99.92C117.638 100.547 117.465 101.107 117.118 101.6C116.771 102.093 116.278 102.48 115.638 102.76C115.011 103.04 114.271 103.18 113.418 103.18ZM124.882 103.18C123.842 103.18 122.902 102.947 122.062 102.48C121.222 102 120.562 101.333 120.082 100.48C119.602 99.6133 119.362 98.6133 119.362 97.48C119.362 96.36 119.608 95.3667 120.102 94.5C120.595 93.6333 121.268 92.9667 122.122 92.5C122.975 92.0333 123.928 91.8 124.982 91.8C126.035 91.8 126.988 92.0333 127.842 92.5C128.695 92.9667 129.368 93.6333 129.862 94.5C130.355 95.3667 130.602 96.36 130.602 97.48C130.602 98.6 130.348 99.5933 129.842 100.46C129.335 101.327 128.642 102 127.762 102.48C126.895 102.947 125.935 103.18 124.882 103.18ZM124.882 101.2C125.468 101.2 126.015 101.06 126.522 100.78C127.042 100.5 127.462 100.08 127.782 99.52C128.102 98.96 128.262 98.28 128.262 97.48C128.262 96.68 128.108 96.0067 127.802 95.46C127.495 94.9 127.088 94.48 126.582 94.2C126.075 93.92 125.528 93.78 124.942 93.78C124.355 93.78 123.808 93.92 123.302 94.2C122.808 94.48 122.415 94.9 122.122 95.46C121.828 96.0067 121.682 96.68 121.682 97.48C121.682 98.6667 121.982 99.5867 122.582 100.24C123.195 100.88 123.962 101.2 124.882 101.2ZM146.195 91.8C147.062 91.8 147.835 91.98 148.515 92.34C149.209 92.7 149.749 93.2333 150.135 93.94C150.535 94.6467 150.735 95.5 150.735 96.5V103H148.475V96.84C148.475 95.8533 148.229 95.1 147.735 94.58C147.242 94.0467 146.569 93.78 145.715 93.78C144.862 93.78 144.182 94.0467 143.675 94.58C143.182 95.1 142.935 95.8533 142.935 96.84V103H140.675V96.84C140.675 95.8533 140.429 95.1 139.935 94.58C139.442 94.0467 138.769 93.78 137.915 93.78C137.062 93.78 136.382 94.0467 135.875 94.58C135.382 95.1 135.135 95.8533 135.135 96.84V103H132.855V91.98H135.135V93.24C135.509 92.7867 135.982 92.4333 136.555 92.18C137.129 91.9267 137.742 91.8 138.395 91.8C139.275 91.8 140.062 91.9867 140.755 92.36C141.449 92.7333 141.982 93.2733 142.355 93.98C142.689 93.3133 143.209 92.7867 143.915 92.4C144.622 92 145.382 91.8 146.195 91.8ZM163.737 97.22C163.737 97.6333 163.71 98.0067 163.657 98.34H155.237C155.303 99.22 155.63 99.9267 156.217 100.46C156.803 100.993 157.523 101.26 158.377 101.26C159.603 101.26 160.47 100.747 160.977 99.72H163.437C163.103 100.733 162.497 101.567 161.617 102.22C160.75 102.86 159.67 103.18 158.377 103.18C157.323 103.18 156.377 102.947 155.537 102.48C154.71 102 154.057 101.333 153.577 100.48C153.11 99.6133 152.877 98.6133 152.877 97.48C152.877 96.3467 153.103 95.3533 153.557 94.5C154.023 93.6333 154.67 92.9667 155.497 92.5C156.337 92.0333 157.297 91.8 158.377 91.8C159.417 91.8 160.343 92.0267 161.157 92.48C161.97 92.9333 162.603 93.5733 163.057 94.4C163.51 95.2133 163.737 96.1533 163.737 97.22ZM161.357 96.5C161.343 95.66 161.043 94.9867 160.457 94.48C159.87 93.9733 159.143 93.72 158.277 93.72C157.49 93.72 156.817 93.9733 156.257 94.48C155.697 94.9733 155.363 95.6467 155.257 96.5H161.357ZM175.796 93.84H173.756V103H171.456V93.84H170.156V91.98H171.456V91.2C171.456 89.9333 171.789 89.0133 172.456 88.44C173.136 87.8533 174.196 87.56 175.636 87.56V89.46C174.942 89.46 174.456 89.5933 174.176 89.86C173.896 90.1133 173.756 90.56 173.756 91.2V91.98H175.796V93.84ZM180.096 93.58C180.43 93.02 180.87 92.5867 181.416 92.28C181.976 91.96 182.636 91.8 183.396 91.8V94.16H182.816C181.923 94.16 181.243 94.3867 180.776 94.84C180.323 95.2933 180.096 96.08 180.096 97.2V103H177.816V91.98H180.096V93.58ZM195.592 97.22C195.592 97.6333 195.566 98.0067 195.512 98.34H187.092C187.159 99.22 187.486 99.9267 188.072 100.46C188.659 100.993 189.379 101.26 190.232 101.26C191.459 101.26 192.326 100.747 192.832 99.72H195.292C194.959 100.733 194.352 101.567 193.472 102.22C192.606 102.86 191.526 103.18 190.232 103.18C189.179 103.18 188.232 102.947 187.392 102.48C186.566 102 185.912 101.333 185.432 100.48C184.966 99.6133 184.732 98.6133 184.732 97.48C184.732 96.3467 184.959 95.3533 185.412 94.5C185.879 93.6333 186.526 92.9667 187.352 92.5C188.192 92.0333 189.152 91.8 190.232 91.8C191.272 91.8 192.199 92.0267 193.012 92.48C193.826 92.9333 194.459 93.5733 194.912 94.4C195.366 95.2133 195.592 96.1533 195.592 97.22ZM193.212 96.5C193.199 95.66 192.899 94.9867 192.312 94.48C191.726 93.9733 190.999 93.72 190.132 93.72C189.346 93.72 188.672 93.9733 188.112 94.48C187.552 94.9733 187.219 95.6467 187.112 96.5H193.212ZM201.836 103.18C200.969 103.18 200.189 103.027 199.496 102.72C198.816 102.4 198.276 101.973 197.876 101.44C197.476 100.893 197.263 100.287 197.236 99.62H199.596C199.636 100.087 199.856 100.48 200.256 100.8C200.669 101.107 201.183 101.26 201.796 101.26C202.436 101.26 202.929 101.14 203.276 100.9C203.636 100.647 203.816 100.327 203.816 99.94C203.816 99.5267 203.616 99.22 203.216 99.02C202.829 98.82 202.209 98.6 201.356 98.36C200.529 98.1333 199.856 97.9133 199.336 97.7C198.816 97.4867 198.363 97.16 197.976 96.72C197.603 96.28 197.416 95.7 197.416 94.98C197.416 94.3933 197.589 93.86 197.936 93.38C198.283 92.8867 198.776 92.5 199.416 92.22C200.069 91.94 200.816 91.8 201.656 91.8C202.909 91.8 203.916 92.12 204.676 92.76C205.449 93.3867 205.863 94.2467 205.916 95.34H203.636C203.596 94.8467 203.396 94.4533 203.036 94.16C202.676 93.8667 202.189 93.72 201.576 93.72C200.976 93.72 200.516 93.8333 200.196 94.06C199.876 94.2867 199.716 94.5867 199.716 94.96C199.716 95.2533 199.823 95.5 200.036 95.7C200.249 95.9 200.509 96.06 200.816 96.18C201.123 96.2867 201.576 96.4267 202.176 96.6C202.976 96.8133 203.629 97.0333 204.136 97.26C204.656 97.4733 205.103 97.7933 205.476 98.22C205.849 98.6467 206.043 99.2133 206.056 99.92C206.056 100.547 205.883 101.107 205.536 101.6C205.189 102.093 204.696 102.48 204.056 102.76C203.429 103.04 202.689 103.18 201.836 103.18ZM214.22 91.8C215.06 91.8 215.806 91.98 216.46 92.34C217.126 92.7 217.646 93.2333 218.02 93.94C218.406 94.6467 218.6 95.5 218.6 96.5V103H216.34V96.84C216.34 95.8533 216.093 95.1 215.6 94.58C215.106 94.0467 214.433 93.78 213.58 93.78C212.726 93.78 212.046 94.0467 211.54 94.58C211.046 95.1 210.8 95.8533 210.8 96.84V103H208.52V88.2H210.8V93.26C211.186 92.7933 211.673 92.4333 212.26 92.18C212.86 91.9267 213.513 91.8 214.22 91.8ZM225.943 97.44C225.943 96.3333 226.17 95.3533 226.623 94.5C227.09 93.6467 227.716 92.9867 228.503 92.52C229.303 92.04 230.183 91.8 231.143 91.8C232.01 91.8 232.763 91.9733 233.403 92.32C234.056 92.6533 234.576 93.0733 234.963 93.58V91.98H237.263V103H234.963V101.36C234.576 101.88 234.05 102.313 233.383 102.66C232.716 103.007 231.956 103.18 231.103 103.18C230.156 103.18 229.29 102.94 228.503 102.46C227.716 101.967 227.09 101.287 226.623 100.42C226.17 99.54 225.943 98.5467 225.943 97.44ZM234.963 97.48C234.963 96.72 234.803 96.06 234.483 95.5C234.176 94.94 233.77 94.5133 233.263 94.22C232.756 93.9267 232.21 93.78 231.623 93.78C231.036 93.78 230.49 93.9267 229.983 94.22C229.476 94.5 229.063 94.92 228.743 95.48C228.436 96.0267 228.283 96.68 228.283 97.44C228.283 98.2 228.436 98.8667 228.743 99.44C229.063 100.013 229.476 100.453 229.983 100.76C230.503 101.053 231.05 101.2 231.623 101.2C232.21 101.2 232.756 101.053 233.263 100.76C233.77 100.467 234.176 100.04 234.483 99.48C234.803 98.9067 234.963 98.24 234.963 97.48ZM241.418 90.52C241.004 90.52 240.658 90.38 240.378 90.1C240.098 89.82 239.958 89.4733 239.958 89.06C239.958 88.6467 240.098 88.3 240.378 88.02C240.658 87.74 241.004 87.6 241.418 87.6C241.818 87.6 242.158 87.74 242.438 88.02C242.718 88.3 242.858 88.6467 242.858 89.06C242.858 89.4733 242.718 89.82 242.438 90.1C242.158 90.38 241.818 90.52 241.418 90.52ZM242.538 91.98V103H240.258V91.98H242.538ZM247.811 93.58C248.145 93.02 248.585 92.5867 249.131 92.28C249.691 91.96 250.351 91.8 251.111 91.8V94.16H250.531C249.638 94.16 248.958 94.3867 248.491 94.84C248.038 95.2933 247.811 96.08 247.811 97.2V103H245.531V91.98H247.811V93.58ZM254.127 103.14C253.714 103.14 253.367 103 253.087 102.72C252.807 102.44 252.667 102.093 252.667 101.68C252.667 101.267 252.807 100.92 253.087 100.64C253.367 100.36 253.714 100.22 254.127 100.22C254.527 100.22 254.867 100.36 255.147 100.64C255.427 100.92 255.567 101.267 255.567 101.68C255.567 102.093 255.427 102.44 255.147 102.72C254.867 103 254.527 103.14 254.127 103.14Z" fill="black"/>
<defs>
<clipPath id="clip0">
<rect x="91" y="138" width="143" height="112.583" fill="white"/>
</clipPath>
</defs>
</svg>
