<svg width="334" height="228" viewBox="0 0 334 228" fill="none" xmlns="http://www.w3.org/2000/svg">
<g clip-path="url(#clip0)">
<path opacity="0.1" d="M331.648 87.2949H303.12V121.874H329.563C329.631 122.231 329.699 122.588 329.774 122.945H303.12V150.824L303.253 150.781C304.007 150.517 304.755 150.238 305.496 149.937L305.977 149.745C306.735 149.428 307.482 149.094 308.221 148.742C308.482 148.621 308.742 148.494 309 148.364C313.102 146.343 316.883 143.729 320.223 140.606C320.319 140.526 320.409 140.436 320.499 140.352C320.952 139.915 321.399 139.468 321.833 139.012C321.995 138.844 322.144 138.676 322.311 138.503C322.823 137.947 323.317 137.373 323.798 136.796C323.869 136.709 323.937 136.622 324.009 136.542C325.945 134.166 327.569 131.553 328.843 128.766C328.883 128.685 328.917 128.595 328.955 128.511C329.346 127.636 329.696 126.749 330 125.846C330.128 125.467 330.252 125.086 330.36 124.704C330.401 124.589 330.432 124.474 330.466 124.363C332.045 118.827 332.228 113.068 332.228 107.343C332.228 106.675 332.228 106.008 332.228 105.342C332.228 103.03 332.194 100.703 332.154 98.3786C332.154 97.7766 332.123 97.1747 332.11 96.5696C332.07 95.0367 332.017 93.4977 331.943 91.9648C331.924 91.5397 331.902 91.1115 331.878 90.6895C331.878 90.4444 331.853 90.1993 331.834 89.9541C331.778 89.0626 331.716 88.1762 331.648 87.2949Z" fill="#6C63FF"/>
<path opacity="0.1" d="M303.12 48.7935H318.771C316.208 45.2286 313.428 41.8254 310.446 38.6035C308.122 36.0653 305.676 33.5891 303.12 31.2061V48.7935Z" fill="#6C63FF"/>
<path opacity="0.1" d="M303.12 49.8642V86.2244H331.558C331.558 86.1189 331.558 86.0103 331.53 85.9141C331.505 85.6255 331.48 85.34 331.453 85.0546C331.425 84.7195 331.387 84.3812 331.353 84.0461C331.319 83.711 331.276 83.3169 331.232 82.9539C331.189 82.5908 331.152 82.2247 331.105 81.8616C331.058 81.4986 331.015 81.1356 330.965 80.7756C330.916 80.4157 330.869 80.0526 330.816 79.6927C330.773 79.3824 330.73 79.0938 330.683 78.7959C330.618 78.3708 330.55 77.9488 330.478 77.5268C330.478 77.4648 330.457 77.3996 330.447 77.3407C329.931 74.2588 329.232 71.2104 328.353 68.2118C327.424 65.0359 326.244 61.9388 324.825 58.9496C323.298 55.7851 321.524 52.7461 319.519 49.8611L303.12 49.8642Z" fill="#6C63FF"/>
<path opacity="0.1" d="M235.37 87.295V121.874H296.306V87.295H235.37ZM235.37 122.942V146.359C242.463 144.091 250.575 145.01 257.928 146.871C263.622 148.314 269.17 150.285 274.855 151.696C277.394 152.346 279.971 152.834 282.572 153.155L283.211 153.226L284.142 153.31L285.073 153.378C285.105 153.375 285.137 153.375 285.169 153.378C285.306 153.378 285.445 153.378 285.585 153.397H285.728C285.895 153.397 286.063 153.415 286.23 153.415C286.469 153.415 286.711 153.415 286.953 153.437H287.264C287.503 153.437 287.745 153.437 287.987 153.437H288.517H288.945C289.128 153.437 289.308 153.437 289.488 153.419C289.78 153.419 290.072 153.394 290.367 153.375L290.91 153.338C291.133 153.338 291.359 153.307 291.58 153.285C292.055 153.248 292.511 153.201 292.992 153.142C293.178 153.121 293.367 153.099 293.553 153.071L293.829 153.037C294.298 152.975 294.76 152.903 295.229 152.823C295.573 152.77 295.918 152.708 296.265 152.643V122.942H235.37ZM280.692 48.7813V49.8487H235.37V86.2245H296.306V49.8611H293.249V48.7937H296.306V25.2952C284.452 15.7444 270.598 8.26629 255.167 4.81583C248.668 3.37782 242.026 2.6845 235.37 2.74927V48.7937L280.692 48.7813ZM141.37 48.5765L141.584 48.7813H228.553V3.06887C213.069 4.35659 197.97 9.55711 185.798 18.174C179.949 22.3102 174.695 27.2159 168.133 30.3871C164.689 32.0959 160.927 33.0682 157.086 33.2418L141.37 48.5765ZM140.771 29.8224V40.1707L149.174 31.9696C146.049 30.8898 143.585 30.1544 140.759 29.8348L140.771 29.8224ZM140.492 160.009H140.771V182.695C143.942 182.457 147.101 182.132 150.247 181.72C164.314 179.904 178.098 176.333 191.277 171.09C192.692 170.519 194.097 169.932 195.491 169.33C196.42 168.917 197.344 168.503 198.262 168.089C199.64 167.456 201.007 166.806 202.364 166.137C208.372 163.19 214.167 159.826 219.707 156.072C220.051 155.836 220.398 155.6 220.74 155.361C221.425 154.885 222.106 154.405 222.785 153.921C223.123 153.676 223.461 153.434 223.796 153.186L224.494 152.671C225.189 152.153 225.881 151.634 226.583 151.119C227.231 150.654 227.886 150.188 228.55 149.754V122.945H158.678C158.728 122.789 158.774 122.634 158.827 122.47C158.771 122.628 158.721 122.78 158.675 122.945H140.759V160.003L140.492 160.009ZM140.771 49.8549V86.2245H228.553V49.8611L140.771 49.8549ZM140.771 87.2888V121.874H228.553V87.295L140.771 87.2888ZM123.221 30.8867L133.944 41.3529V29.7821C130.351 30.0055 126.777 30.3737 123.221 30.8867ZM48.5424 87.295V121.874H133.944V87.295H48.5424ZM69.1831 172.7C82.1267 177.628 95.6599 180.839 109.437 182.251H109.496C112.099 182.526 114.71 182.739 117.331 182.89H117.428C122.917 183.201 128.427 183.272 133.929 183.067V122.942H48.5424L48.8527 162.758L69.1831 172.7ZM24.8949 121.874H41.7376V87.295H35.0756C34.3837 88.5082 33.7134 89.7339 33.0773 90.972C32.736 91.6329 32.404 92.3031 32.0813 92.9733C27.6968 102.08 24.9104 112.078 24.8949 121.874ZM24.8949 122.942C25.0314 129.967 26.6139 136.864 30.0861 143.235C32.9718 148.51 36.9808 153.164 41.7252 157.198V122.942H24.8949ZM35.6993 86.2245H41.7376V77.2259C39.5577 80.1098 37.5418 83.1141 35.6993 86.2245V86.2245ZM73.521 48.7937H131.931L132.142 48.5889L131.831 48.2787L115.408 32.2644C110.53 33.2782 105.714 34.5659 100.982 36.1213C100.535 36.2672 100.088 36.4316 99.6446 36.5713C90.5133 39.6711 81.7523 43.7701 73.521 48.7937V48.7937ZM48.5424 69.0776V86.2245H123.441H133.938V50.851L132.741 49.8767H71.8144C63.263 55.2487 55.4409 61.7023 48.5424 69.0776V69.0776Z" fill="#6C63FF"/>
<path opacity="0.1" d="M303.12 68.2056V86.2243H331.558C331.558 86.1188 331.558 86.0102 331.53 85.914C331.505 85.6254 331.48 85.34 331.453 85.0545C331.425 84.7194 331.387 84.3812 331.353 84.046C331.319 83.7109 331.276 83.3169 331.232 82.9538C331.189 82.5908 331.152 82.2246 331.105 81.8616C331.058 81.4985 331.015 81.1355 330.965 80.7756C330.916 80.4156 330.869 80.0526 330.816 79.6926C330.773 79.3823 330.73 79.0938 330.683 78.7959C330.618 78.3708 330.55 77.9488 330.478 77.5268C330.478 77.4647 330.457 77.3996 330.447 77.3406C329.931 74.2587 329.232 71.2104 328.353 68.2118L303.12 68.2056Z" fill="#6C63FF"/>
<path opacity="0.1" d="M331.648 87.2949H303.12V121.874H329.563C329.631 122.231 329.699 122.588 329.774 122.945H303.12V150.824L303.253 150.781C304.007 150.517 304.755 150.238 305.496 149.937L305.977 149.745C306.735 149.428 307.482 149.094 308.221 148.742C308.482 148.621 308.742 148.494 309 148.364C313.102 146.343 316.883 143.729 320.223 140.606C320.319 140.526 320.409 140.436 320.499 140.352C320.952 139.915 321.399 139.468 321.833 139.012C321.995 138.844 322.144 138.676 322.311 138.503C322.823 137.947 323.317 137.373 323.798 136.796C323.869 136.709 323.937 136.622 324.009 136.542C325.945 134.166 327.569 131.553 328.843 128.766C328.883 128.685 328.917 128.595 328.955 128.511C329.346 127.636 329.696 126.749 330 125.846C330.128 125.467 330.252 125.086 330.36 124.704C330.401 124.589 330.432 124.474 330.466 124.363C332.045 118.827 332.228 113.068 332.228 107.343C332.228 106.675 332.228 106.008 332.228 105.342C332.228 103.03 332.194 100.703 332.154 98.3786C332.154 97.7766 332.123 97.1747 332.11 96.5696C332.07 95.0367 332.017 93.4977 331.943 91.9648C331.924 91.5397 331.902 91.1115 331.878 90.6895C331.878 90.4444 331.853 90.1993 331.834 89.9541C331.778 89.0626 331.716 88.1762 331.648 87.2949Z" fill="#6C63FF"/>
<path opacity="0.1" d="M274.858 55.071V86.2276H296.309V55.071H293.252V44.521H280.695V55.071H274.858Z" fill="#6C63FF"/>
<path opacity="0.1" d="M296.309 87.2949H274.858V121.874H296.309V87.2949Z" fill="#6C63FF"/>
<path opacity="0.1" d="M296.309 122.945H274.858V151.696C277.396 152.345 279.972 152.832 282.572 153.155L283.214 153.226L284.145 153.31C284.455 153.335 284.766 153.36 285.076 153.378H285.172C285.309 153.378 285.448 153.378 285.588 153.397H285.731C285.898 153.397 286.069 153.412 286.237 153.415C286.479 153.415 286.717 153.415 286.959 153.434H287.27C287.509 153.434 287.748 153.434 287.993 153.434H288.52C288.663 153.434 288.809 153.434 288.952 153.434L289.495 153.415C289.783 153.415 290.078 153.391 290.37 153.372L290.91 153.335L291.583 153.282C292.055 153.245 292.514 153.195 292.992 153.139L293.553 153.068L293.829 153.034C294.298 152.972 294.76 152.9 295.229 152.82C295.576 152.767 295.921 152.702 296.268 152.64L296.309 122.945Z" fill="#6C63FF"/>
<path opacity="0.1" d="M158.451 51.3906H140.762V86.2242H158.451V51.3906Z" fill="#6C63FF"/>
<path opacity="0.1" d="M140.762 87.2949V121.874H228.556V106.961H181.792V115.758H158.448V87.2949H140.762Z" fill="#6C63FF"/>
<path opacity="0.1" d="M140.479 160.022H140.759V182.695C143.93 182.457 147.089 182.132 150.235 181.72C164.313 179.907 178.107 176.334 191.296 171.087C195.067 169.577 198.763 167.928 202.383 166.141C208.384 163.188 214.173 159.824 219.71 156.072C221.091 155.134 222.454 154.174 223.796 153.189C224.727 152.506 225.658 151.805 226.589 151.129C227.237 150.66 227.892 150.198 228.559 149.76V122.945H158.697C158.746 122.783 158.793 122.634 158.842 122.467C158.79 122.625 158.74 122.777 158.693 122.945H140.759V160.006L140.479 160.022Z" fill="#6C63FF"/>
<path opacity="0.1" d="M94.6272 48.7937H106.151V45.607H100.982V36.1213C100.535 36.2703 100.085 36.4316 99.6415 36.5713V45.607H94.6272V48.7937Z" fill="#6C63FF"/>
<path opacity="0.1" d="M66.8497 86.2245H123.444H123.426H123.45H133.945V51.3909H130.972V77.1453H117.381V61.9005H106.152V49.8643H94.6272V61.9005H83.4039V77.1391H66.8497V86.2245Z" fill="#6C63FF"/>
<path opacity="0.1" d="M66.8497 87.2949V121.874H133.944V87.2949H66.8497ZM69.1924 172.7C82.136 177.628 95.6692 180.839 109.447 182.251H109.506C112.108 182.526 114.72 182.739 117.341 182.89H117.437C122.926 183.2 128.437 183.272 133.938 183.067V122.941H66.8497V135.201H48.5424L48.6385 162.575" fill="#6C63FF"/>
<path opacity="0.1" d="M40.5553 122.945H24.9072C25.0438 129.967 26.6294 136.861 30.1015 143.232C32.9842 148.525 36.9963 153.161 41.7375 157.195V135.201H40.5553V122.945Z" fill="#6C63FF"/>
<path opacity="0.1" d="M24.8979 121.874H40.5554V92.9734H32.0968C27.6999 102.081 24.9104 112.081 24.8979 121.874Z" fill="#6C63FF"/>
<path opacity="0.1" d="M150.238 61.075H140.762V71.9973H150.238V61.075Z" fill="#6C63FF"/>
<path opacity="0.1" d="M150.238 83.7109H140.762V86.2243H150.238V83.7109Z" fill="#6C63FF"/>
<path opacity="0.1" d="M150.238 87.2949H140.762V94.6334H150.238V87.2949Z" fill="#6C63FF"/>
<path opacity="0.1" d="M150.238 106.35H140.762V117.272H150.238V106.35Z" fill="#6C63FF"/>
<path opacity="0.1" d="M150.238 128.989H140.762V139.911H150.238V128.989Z" fill="#6C63FF"/>
<path opacity="0.1" d="M140.759 160.006L140.479 160.022H140.759V162.557H150.235V151.625H140.759V160.006Z" fill="#6C63FF"/>
<path opacity="0.1" d="M140.759 174.258V182.695C143.93 182.457 147.089 182.132 150.235 181.72V174.273L140.759 174.258Z" fill="#6C63FF"/>
<path opacity="0.1" d="M228.556 121.073H187.945V121.874H228.556V121.073Z" fill="#6C63FF"/>
<path opacity="0.1" d="M228.556 122.945H187.945V126.02H228.556V122.945Z" fill="#6C63FF"/>
<path opacity="0.1" d="M228.556 136.098H187.945V141.044H228.556V136.098Z" fill="#6C63FF"/>
<path opacity="0.1" d="M187.942 151.107V156.071H219.71C221.091 155.134 222.454 154.173 223.796 153.189C224.727 152.506 225.658 151.808 226.589 151.128L187.942 151.107Z" fill="#6C63FF"/>
<path opacity="0.1" d="M187.942 166.141V171.087H191.296C195.069 169.577 198.765 167.928 202.383 166.141H187.942Z" fill="#6C63FF"/>
<path opacity="0.1" d="M109.45 97.7549H117.443V90.6461H109.45V97.7549Z" fill="#6C63FF"/>
<path opacity="0.1" d="M282.556 64.6311H290.55V57.5223H282.556V64.6311Z" fill="#6C63FF"/>
<path opacity="0.1" d="M282.556 81.1448H290.55V74.0359H282.556V81.1448Z" fill="#6C63FF"/>
<path opacity="0.1" d="M282.556 97.6555H290.55V90.5467H282.556V97.6555Z" fill="#6C63FF"/>
<path opacity="0.1" d="M282.556 114.169H290.55V107.061H282.556V114.169Z" fill="#6C63FF"/>
<path opacity="0.1" d="M282.556 130.683H290.55V123.575H282.556V130.683Z" fill="#6C63FF"/>
<path opacity="0.1" d="M282.556 147.194H290.55V140.085H282.556V147.194Z" fill="#6C63FF"/>
<path opacity="0.1" d="M78.9293 97.7549H86.9225V90.6461H78.9293V97.7549Z" fill="#6C63FF"/>
<path opacity="0.1" d="M109.45 115.29H117.443V108.181H109.45V115.29Z" fill="#6C63FF"/>
<path opacity="0.1" d="M78.9293 115.29H86.9225V108.181H78.9293V115.29Z" fill="#6C63FF"/>
<path opacity="0.1" d="M109.45 132.824H117.443V125.715H109.45V132.824Z" fill="#6C63FF"/>
<path opacity="0.1" d="M78.9293 132.824H86.9225V125.715H78.9293V132.824Z" fill="#6C63FF"/>
<path opacity="0.1" d="M109.45 150.362H117.443V143.253H109.45V150.362Z" fill="#6C63FF"/>
<path opacity="0.1" d="M78.9293 150.362H86.9225V143.253H78.9293V150.362Z" fill="#6C63FF"/>
<path opacity="0.1" d="M109.45 167.897H117.443V160.788H109.45V167.897Z" fill="#6C63FF"/>
<path opacity="0.1" d="M78.9293 167.897H86.9225V160.788H78.9293V167.897Z" fill="#6C63FF"/>
<path opacity="0.1" d="M117.446 182.906V178.32H109.453V182.254L117.446 182.906Z" fill="#6C63FF"/>
<path opacity="0.1" d="M303.12 77.3313V81.3993H330.478V77.3313H303.12ZM327.754 77.5888H329.997V81.1448H327.754V77.5888ZM325.029 77.5888H327.273V81.1448H325.029V77.5888ZM322.311 77.5888H324.555V81.1448H322.311V77.5888ZM319.587 77.5888H321.83V81.1448H319.587V77.5888ZM316.866 77.5888H319.118V81.1448H316.875L316.866 77.5888ZM314.141 77.5888H316.385V81.1448H314.154L314.141 77.5888ZM311.417 77.5888H313.66V81.1448H311.417V77.5888ZM308.696 77.5888H310.939V81.1448H308.696V77.5888ZM305.974 77.5888H308.218V81.1448H305.974V77.5888ZM303.253 77.5888H305.496V81.1448H303.253V77.5888Z" fill="#6C63FF"/>
<path opacity="0.1" d="M303.12 89.1724V93.2403H330.478V89.1724H303.12ZM327.754 89.4299H329.997V92.9828H327.754V89.4299ZM325.029 89.4299H327.273V92.9828H325.029V89.4299ZM322.311 89.4299H324.555V92.9828H322.311V89.4299ZM319.587 89.4299H321.83V92.9828H319.587V89.4299ZM316.866 89.4299H319.118V92.9828H316.875L316.866 89.4299ZM314.141 89.4299H316.385V92.9828H314.154L314.141 89.4299ZM311.417 89.4299H313.66V92.9828H311.417V89.4299ZM308.696 89.4299H310.939V92.9828H308.696V89.4299ZM305.974 89.4299H308.218V92.9828H305.974V89.4299ZM303.253 89.4299H305.496V92.9828H303.253V89.4299Z" fill="#6C63FF"/>
<path opacity="0.1" d="M303.12 101.013V105.078H330.478V101.013H303.12ZM327.754 101.267H329.997V104.82H327.754V101.267ZM325.029 101.267H327.273V104.82H325.029V101.267ZM322.311 101.267H324.555V104.82H322.311V101.267ZM319.587 101.267H321.83V104.82H319.587V101.267ZM316.866 101.267H319.118V104.82H316.875L316.866 101.267ZM314.141 101.267H316.385V104.82H314.154L314.141 101.267ZM311.417 101.267H313.66V104.82H311.417V101.267ZM308.696 101.267H310.939V104.82H308.696V101.267ZM305.974 101.267H308.218V104.82H305.974V101.267ZM303.253 101.267H305.496V104.82H303.253V101.267Z" fill="#6C63FF"/>
<path opacity="0.1" d="M303.12 112.851V116.912H330.478V112.851H303.12ZM327.754 113.102H329.997V116.664H327.754V113.102ZM325.029 113.102H327.273V116.664H325.029V113.102ZM322.311 113.102H324.555V116.664H322.311V113.102ZM319.587 113.102H321.83V116.664H319.587V113.102ZM316.866 113.102H319.118V116.664H316.875L316.866 113.102ZM314.141 113.102H316.385V116.664H314.154L314.141 113.102ZM311.417 113.102H313.66V116.664H311.417V113.102ZM308.696 113.102H310.939V116.664H308.696V113.102ZM305.974 113.102H308.218V116.664H305.974V113.102ZM303.253 113.102H305.496V116.664H303.253V113.102Z" fill="#6C63FF"/>
<path opacity="0.1" d="M303.12 124.685V128.766H328.843C328.88 128.685 328.917 128.595 328.952 128.511H327.754V124.943H329.997V125.83C330.128 125.452 330.252 125.07 330.36 124.685H303.12ZM325.029 124.943H327.273V128.496H325.029V124.943ZM322.311 124.943H324.555V128.496H322.311V124.943ZM319.587 124.943H321.83V128.496H319.587V124.943ZM316.866 124.943H319.118V128.496H316.875L316.866 124.943ZM314.141 124.943H316.385V128.496H314.154L314.141 124.943ZM311.417 124.943H313.66V128.496H311.417V124.943ZM308.696 124.943H310.939V128.496H308.696V124.943ZM305.974 124.943H308.218V128.496H305.974V124.943ZM303.253 124.943H305.496V128.496H303.253V124.943Z" fill="#6C63FF"/>
<path opacity="0.1" d="M303.12 136.523V140.588H320.22C320.319 140.504 320.406 140.417 320.496 140.333H319.587V136.78H321.83V139.005L322.311 138.493V136.787H323.798C323.869 136.7 323.937 136.613 324.009 136.532L303.12 136.523ZM316.866 136.777H319.118V140.333H316.875L316.866 136.777ZM314.141 136.777H316.385V140.333H314.154L314.141 136.777ZM311.417 136.777H313.66V140.333H311.417V136.777ZM308.696 136.777H310.939V140.333H308.696V136.777ZM305.974 136.777H308.218V140.333H305.974V136.777ZM303.253 136.777H305.496V140.333H303.253V136.777Z" fill="#6C63FF"/>
<path opacity="0.1" d="M303.12 148.364V150.824L303.253 150.781V148.609H305.496V149.931L305.974 149.732V148.624H308.218V148.749C308.482 148.628 308.742 148.5 309 148.37L303.12 148.364Z" fill="#6C63FF"/>
<path opacity="0.1" d="M140.479 160.022H140.759H140.479ZM158.675 122.941C158.725 122.786 158.771 122.631 158.824 122.467C158.771 122.625 158.721 122.786 158.675 122.941ZM280.692 48.7937V49.8611H293.249V48.7937H280.692ZM140.479 160.022H140.759H140.479ZM158.675 122.941C158.725 122.786 158.771 122.631 158.824 122.467C158.771 122.625 158.721 122.786 158.675 122.941ZM140.479 160.022H140.759H140.479ZM158.675 122.941C158.725 122.786 158.771 122.631 158.824 122.467C158.771 122.625 158.721 122.786 158.675 122.941Z" fill="#6C63FF"/>
<path opacity="0.1" d="M334 216.597H23.1261V227.588H334V216.597Z" fill="#6C63FF"/>
<path d="M34.0795 146.722H32.5063V182.102H34.0795V146.722Z" fill="#535461"/>
<path d="M43.9531 181.993L43.8539 183.588L43.7173 185.838L43.6584 186.769L43.5187 189.018L43.4598 189.949L43.3201 192.196L41.7345 217.78C41.666 218.881 41.1812 219.914 40.3785 220.671C39.5757 221.427 38.5153 221.85 37.4122 221.854H29.1739C28.0723 221.851 27.0131 221.429 26.2106 220.674C25.4081 219.92 24.9223 218.888 24.8515 217.789L23.2628 192.205L23.1262 189.959L23.0673 189.028L22.9245 186.778L22.8687 185.847L22.7291 183.598L22.6298 182.003C22.6111 181.697 22.6553 181.391 22.7594 181.103C22.8636 180.815 23.0256 180.551 23.2355 180.329C23.4454 180.106 23.6987 179.928 23.9798 179.807C24.2609 179.685 24.5639 179.623 24.8701 179.623H41.7159C42.0213 179.622 42.3235 179.684 42.6041 179.805C42.8846 179.926 43.1374 180.102 43.347 180.325C43.5566 180.547 43.7185 180.809 43.8227 181.096C43.927 181.383 43.9714 181.689 43.9531 181.993V181.993Z" fill="#3F3D56"/>
<path d="M43.8568 183.588L43.7172 185.838H22.8686L22.7321 183.588H43.8568Z" fill="#9D9CB5"/>
<path d="M43.6614 186.775L43.5218 189.028H23.0672L22.9276 186.775H43.6614Z" fill="#9D9CB5"/>
<path d="M43.4596 189.965L43.3231 192.214H23.2657L23.1261 189.965H43.4596Z" fill="#9D9CB5"/>
<path d="M20.3305 159.984C29.4811 166.603 33.2915 176.96 33.2915 176.96C33.2915 176.96 22.2636 176.582 13.1224 169.96C3.98113 163.338 0.136597 152.984 0.136597 152.984C0.136597 152.984 11.1768 153.362 20.3305 159.984Z" fill="#6C63FF"/>
<path d="M0.136597 152.984C0.136597 152.984 11.5833 159.339 15.2541 164.598C18.9249 169.858 33.2791 176.96 33.2791 176.96" stroke="#535461" stroke-width="2" stroke-miterlimit="10"/>
<path d="M26.2353 146.645C31.2186 150.247 33.2914 155.885 33.2914 155.885C33.2914 155.885 27.2903 155.677 22.307 152.075C17.3237 148.472 15.254 142.834 15.254 142.834C15.254 142.834 21.2551 143.039 26.2353 146.645Z" fill="#6C63FF"/>
<path d="M15.254 142.834C15.254 142.834 21.4816 146.294 23.483 149.155C25.4844 152.016 33.2914 155.885 33.2914 155.885" stroke="#535461" stroke-width="2" stroke-miterlimit="10"/>
<path d="M40.5306 155.597C34.8088 161.886 33.5986 170.103 33.5986 170.103C33.5986 170.103 41.6663 168.123 47.3881 161.834C53.1099 155.544 54.32 147.331 54.32 147.331C54.32 147.331 46.2524 149.307 40.5306 155.597Z" fill="#6C63FF"/>
<path d="M54.32 147.331C54.32 147.331 46.873 153.775 44.9709 158.219C43.0688 162.662 33.5986 170.103 33.5986 170.103" stroke="#535461" stroke-width="2" stroke-miterlimit="10"/>
<path opacity="0.2" d="M126.072 23.7934C129.464 23.7934 132.213 21.0441 132.213 17.6527C132.213 14.2613 129.464 11.512 126.072 11.512C122.681 11.512 119.932 14.2613 119.932 17.6527C119.932 21.0441 122.681 23.7934 126.072 23.7934Z" stroke="#6C63FF" stroke-miterlimit="10"/>
<path opacity="0.2" d="M126.072 28.7516C132.202 28.7516 137.171 23.7823 137.171 17.6524C137.171 11.5225 132.202 6.55322 126.072 6.55322C119.942 6.55322 114.973 11.5225 114.973 17.6524C114.973 23.7823 119.942 28.7516 126.072 28.7516Z" stroke="#6C63FF" stroke-miterlimit="10"/>
<path opacity="0.2" d="M126.072 35.1499C135.736 35.1499 143.57 27.3161 143.57 17.6525C143.57 7.98891 135.736 0.155029 126.072 0.155029C116.409 0.155029 108.575 7.98891 108.575 17.6525C108.575 27.3161 116.409 35.1499 126.072 35.1499Z" stroke="#6C63FF" stroke-miterlimit="10"/>
<path d="M168.496 225.031C168.331 223.809 167.49 222.239 167.49 222.239L163 215.676H163.041C163.041 215.676 162.33 212.377 163.041 210.764C163.751 209.15 160.515 205.16 160.515 205.16C160.515 205.16 160.121 204.161 161.136 202.932C162.15 201.703 160.515 198.098 160.515 198.098C160.515 198.098 159.724 190.573 159.646 189.41C159.569 188.246 158.936 181.888 158.936 181.888L157.434 168.375L154.765 132.567L154.716 131.897C155.048 131.738 155.221 131.639 155.221 131.639L154.663 111.852L155.125 111.445C159.159 107.886 168.44 99.654 168.35 99.4647C168.229 99.2351 167.223 85.7032 167.109 82.3055C167.007 79.8884 166.47 77.5096 165.523 75.2835C165.29 74.8305 164.62 71.8703 164.341 70.6043L164.22 70.0427C164.22 70.0427 161.495 64.9756 161.737 62.6732C161.98 60.3708 162.448 58.6394 156.642 57.8357C156.642 57.8357 151.746 57.1251 148.863 55.1858C147.142 54.0258 145.269 53.1091 143.297 52.4614C143.297 52.4614 142.229 50.5997 141.19 50.9596V47.0065C141.988 46.6938 142.675 46.1499 143.162 45.4445C143.649 44.7391 143.914 43.9043 143.924 43.0471V28.8078C143.907 27.6512 143.432 26.5485 142.603 25.742C141.774 24.9355 140.658 24.4913 139.502 24.5071H127.155C126.977 24.5115 126.798 24.5271 126.622 24.5536V18.0375C126.621 17.9433 126.602 17.8502 126.565 17.7637C126.527 17.6773 126.473 17.5994 126.404 17.5348C126.266 17.3992 126.08 17.3234 125.886 17.3238C125.694 17.3213 125.509 17.395 125.371 17.5288C125.233 17.6625 125.154 17.8454 125.151 18.0375V25.016C124.462 25.3752 123.885 25.915 123.48 26.5775C123.075 27.24 122.857 28.0002 122.852 28.7767V43.0161C122.861 43.8729 123.126 44.7074 123.612 45.4128C124.099 46.1182 124.785 46.6623 125.582 46.9754V50.7331C125.083 50.6741 124.341 51.0186 123.497 52.7376C123.497 52.7376 119.271 55.1175 117.809 55.3875C116.348 55.6575 111.175 57.4199 111.175 57.4199C110.389 57.9714 109.451 58.2662 108.491 58.2639C106.871 58.2639 105.528 61.7206 105.726 63.601C105.925 65.4814 105.605 66.8622 104.107 66.9397C102.608 67.0173 103.427 70.0209 103.433 70.0427C103.415 70.1264 103.365 70.353 103.294 70.6819C103.002 71.9944 102.363 74.8088 102.139 75.2494C101.185 77.4739 100.643 79.8531 100.538 82.2713C100.42 85.6846 99.4119 99.201 99.2971 99.4306C99.2227 99.5826 105.584 105.264 110.061 109.233L110.707 109.804L108.649 128.586C108.649 128.586 108.649 130.69 110.766 132.266C110.766 132.48 110.766 132.706 110.741 132.936C110.651 135.108 110.471 137.792 110.12 138.49C109.5 139.732 109.645 146.319 109.645 146.319C109.645 146.319 109.025 159.758 108.224 161.213C107.424 162.668 107.275 165.743 107.514 166.358C107.753 166.972 106.722 183.095 106.722 183.095L105.931 190.309C105.931 190.309 106.17 197.22 105.46 197.375C104.749 197.53 104.352 202.287 104.352 202.287C104.352 202.287 101.826 205.666 102.931 206.895C104.035 208.123 102.766 208.66 102.651 208.967C102.537 209.275 100.244 210.426 101.904 214.723C101.919 214.767 101.941 214.804 101.959 214.844C100.408 216.945 95.4836 223.747 95.7815 224.774C96.0069 225.439 96.4774 225.994 97.0972 226.325C98.2546 227.002 100.244 227.315 103.402 226.325C108.656 224.674 108.262 223.483 108.262 223.483C108.262 223.483 108.302 221.565 110.474 221.41C112.646 221.255 114.266 219.3 114.266 219.3L114.011 218.369L113.661 217.088C113.704 216.706 113.971 216.079 115.172 215.722C116.99 215.186 116.515 211.81 116.515 211.81C116.515 211.81 116.357 208.275 117.136 207.816C117.915 207.357 117.608 201.52 117.608 201.52C117.608 201.52 118.479 197.297 119.742 194.455C121.005 191.613 122.507 174.726 122.507 174.726C122.507 174.726 123.531 166.435 124.481 164.055C125.43 161.675 126.299 154.995 126.299 154.995C126.299 154.995 132.145 143.939 132.222 141.482C132.222 141.482 132.979 139.179 133.709 141.714C134.438 144.249 136.566 150.313 136.566 150.313L138.621 157.76L141.069 168.89L142.648 178.258C142.648 178.258 142.416 181.826 143.045 183.067C143.675 184.308 144.547 187.135 144.072 187.675C143.598 188.215 145.022 190.744 145.416 191.281C145.81 191.817 145.416 203.183 145.416 203.183C145.416 203.183 147.231 212.855 149.838 214.543C150.021 214.658 150.214 214.756 150.415 214.835C150.378 215.884 150.34 217.286 150.39 218.019C150.385 218.183 150.412 218.346 150.471 218.5C150.707 218.81 153.394 220.876 153.946 220.876C154.498 220.876 156.472 222.223 156.553 222.875C156.633 223.526 162.327 226.288 163.131 226.369C163.934 226.449 167.847 227.135 168.406 226.058C168.539 225.733 168.57 225.375 168.496 225.031V225.031ZM154.508 86.6868L154.914 87.0281C154.914 87.0281 155.327 90.1962 155.625 91.1426C155.923 92.089 155.566 93.9353 155.566 93.9353C155.566 93.9353 155.625 95.2602 155.978 95.9491C156.332 96.6379 155.283 98.1397 155.283 98.1397H154.321L154.011 86.2803L154.508 86.6868ZM111.737 96.9265C111.589 96.6213 111.567 96.2705 111.675 95.9491C111.76 95.7763 111.827 95.5954 111.876 95.4092C111.993 94.9255 112.065 94.4321 112.091 93.9353C112.091 93.9301 112.091 93.9249 112.091 93.9198C112.06 93.7398 111.755 92.058 112.035 91.1271C112.314 90.1962 112.745 87.0126 112.745 87.0126L113.015 86.7861L113.636 86.2648C113.636 86.2648 113.654 86.0662 113.679 85.7404C113.813 88.5331 113.918 91.5864 113.748 91.7539C113.437 92.0642 112.286 95.0554 112.562 95.1671C112.652 95.2044 112.528 96.4083 112.32 98.0156C112.087 97.6757 111.891 97.3116 111.737 96.9296V96.9265Z" fill="url(#paint0_linear)"/>
<path d="M126.783 18.3633V27.7745C126.783 27.9638 126.708 28.1453 126.574 28.2792C126.44 28.413 126.258 28.4882 126.069 28.4882C125.88 28.4882 125.698 28.413 125.565 28.2792C125.431 28.1453 125.355 27.9638 125.355 27.7745V18.3633C125.355 18.2696 125.374 18.1768 125.41 18.0902C125.446 18.0036 125.498 17.925 125.565 17.8587C125.631 17.7924 125.709 17.7398 125.796 17.704C125.883 17.6681 125.975 17.6497 126.069 17.6497C126.258 17.6513 126.439 17.727 126.572 17.8605C126.705 17.994 126.781 18.1746 126.783 18.3633Z" fill="#6F758D"/>
<path d="M140.914 43.5218V58.146C140.91 59.3144 140.445 60.434 139.619 61.2602C138.792 62.0864 137.673 62.552 136.504 62.5552H130.187C129.018 62.5528 127.897 62.0875 127.071 61.2613C126.244 60.435 125.778 59.3149 125.774 58.146V43.5218C125.779 42.3531 126.245 41.2335 127.071 40.4074C127.898 39.5813 129.018 39.1158 130.187 39.1125H136.504C137.673 39.1158 138.792 39.5814 139.619 40.4076C140.445 41.2338 140.91 42.3534 140.914 43.5218V43.5218Z" fill="#6F758D"/>
<path d="M116.071 98.3227L114.864 113.217C114.864 113.217 113.052 111.575 110.707 109.434C106.362 105.472 100.188 99.7966 100.259 99.6477C100.374 99.4181 101.351 85.9048 101.466 82.5133C101.567 80.1018 102.093 77.727 103.017 75.4975C103.235 75.06 103.855 72.2519 104.138 70.9393C104.228 70.5297 104.28 70.266 104.28 70.266L106.294 69.4592C106.294 69.4592 114.747 78.8891 114.747 79.0628C114.747 79.2366 114.172 86.4788 114.172 86.4788L113.571 87.0032L113.31 87.2266C113.31 87.2266 112.906 90.3916 112.618 91.338C112.348 92.2379 112.643 93.9352 112.674 94.1121V94.1276C112.648 94.6232 112.578 95.1155 112.463 95.5984C112.416 95.7851 112.352 95.9669 112.27 96.1414C112.166 96.4619 112.187 96.81 112.329 97.1157C112.489 97.5416 112.697 97.9477 112.95 98.3258L116.071 98.3227Z" fill="#3F3D56"/>
<path d="M167.298 99.6445C167.388 99.8245 158.371 108.053 154.464 111.606L152.692 113.214L151.485 98.3196H154.588C154.588 98.3196 155.625 96.824 155.28 96.1475C154.936 95.4711 154.877 94.1337 154.877 94.1337C154.877 94.1337 155.221 92.2937 154.936 91.3411C154.65 90.3885 154.244 87.2297 154.244 87.2297L153.85 86.8759L153.381 86.4664C153.381 86.4664 152.801 79.2334 152.801 79.0596C152.801 78.8859 161.253 69.4561 161.253 69.4561L163.264 70.2628C163.264 70.2628 163.311 70.48 163.382 70.8245C163.655 72.0656 164.313 75.0445 164.53 75.4944C165.456 77.7235 165.981 80.0985 166.082 82.5101C166.206 85.9016 167.183 99.4149 167.298 99.6445Z" fill="#3F3D56"/>
<path d="M167.335 226.046C166.798 227.119 162.991 226.43 162.221 226.356C161.452 226.282 155.913 223.517 155.836 222.868C155.758 222.22 153.84 220.873 153.307 220.873C152.773 220.873 150.163 218.803 149.931 218.496C149.875 218.343 149.849 218.181 149.853 218.018C149.772 216.759 149.931 213.513 149.931 213.513L161.049 214.134L166.454 222.251C166.454 222.251 167.267 223.802 167.428 225.043C167.493 225.38 167.461 225.727 167.335 226.046V226.046Z" fill="#3F3D56"/>
<path opacity="0.1" d="M167.335 226.046C166.798 227.119 162.991 226.43 162.221 226.356C161.452 226.282 155.913 223.517 155.836 222.868C155.758 222.22 153.84 220.873 153.307 220.873C152.773 220.873 150.163 218.803 149.931 218.496C149.875 218.343 149.849 218.181 149.853 218.018C149.772 216.759 149.931 213.513 149.931 213.513L161.049 214.134L166.454 222.251C166.454 222.251 167.267 223.802 167.428 225.043C167.493 225.38 167.461 225.727 167.335 226.046V226.046Z" fill="black"/>
<path opacity="0.1" d="M167.335 226.046C166.798 227.119 162.991 226.431 162.222 226.356C161.452 226.282 155.913 223.517 155.836 222.868C155.758 222.22 153.841 220.873 153.307 220.873C152.773 220.873 150.164 218.804 149.931 218.496C149.875 218.343 149.849 218.181 149.853 218.019L153.459 220.302C153.459 220.302 155.758 221.761 156.373 222.642C156.987 223.523 161.821 225.326 162.222 225.36C162.532 225.391 165.697 224.783 167.428 225.05C167.492 225.384 167.46 225.729 167.335 226.046V226.046Z" fill="black"/>
<path d="M114.781 219.337C114.781 219.337 113.208 221.292 111.101 221.444C110.546 221.45 110.015 221.667 109.616 222.052C109.216 222.437 108.98 222.96 108.953 223.514C108.953 223.514 109.338 224.705 104.24 226.353C101.171 227.346 99.2412 227.032 98.1148 226.353C97.5087 226.017 97.0536 225.462 96.8426 224.801C96.4982 223.576 103.281 214.251 103.281 214.251L109.453 213.867L113.862 215.862L114.536 218.385L114.781 219.337Z" fill="#3F3D56"/>
<path opacity="0.1" d="M114.781 219.337C114.781 219.337 113.208 221.292 111.101 221.444C110.546 221.45 110.015 221.667 109.616 222.052C109.216 222.437 108.98 222.96 108.953 223.514C108.953 223.514 109.338 224.705 104.24 226.353C101.171 227.346 99.2412 227.032 98.1148 226.353C97.5087 226.017 97.0536 225.462 96.8426 224.801C96.4982 223.576 103.281 214.251 103.281 214.251L109.453 213.867L113.862 215.862L114.536 218.385L114.781 219.337Z" fill="black"/>
<path opacity="0.1" d="M114.781 219.337C114.781 219.337 113.208 221.292 111.101 221.444C110.546 221.45 110.015 221.667 109.616 222.052C109.216 222.437 108.98 222.96 108.953 223.514C108.953 223.514 109.338 224.705 104.24 226.353C101.171 227.346 99.2412 227.032 98.1149 226.353C101.01 226.043 107.402 224.224 108.044 223.591C108.811 222.822 109.769 220.715 110.421 220.678C110.871 220.65 113.167 219.266 114.545 218.409L114.781 219.337Z" fill="black"/>
<path d="M162.11 210.789C161.421 212.399 162.11 215.694 162.11 215.694C162.11 215.694 151.836 216.234 149.307 214.546C146.778 212.858 145.013 203.199 145.013 203.199C145.013 203.199 145.394 191.855 145.013 191.315C144.631 190.775 143.25 188.249 143.709 187.715C144.169 187.182 143.325 184.339 142.713 183.114C142.102 181.888 142.329 178.36 142.329 178.36L140.796 169.008L138.419 157.89L136.427 150.443C136.427 150.443 134.357 144.386 133.653 141.854C132.948 139.322 132.21 141.624 132.21 141.624C132.135 144.079 126.46 155.119 126.46 155.119C126.46 155.119 125.616 161.787 124.695 164.164C123.773 166.541 122.78 174.823 122.78 174.823C122.78 174.823 121.325 191.687 120.096 194.523C118.867 197.359 118.048 201.588 118.048 201.588C118.048 201.588 118.358 207.416 117.589 207.875C116.819 208.334 116.968 211.862 116.968 211.862C116.968 211.862 117.427 215.235 115.662 215.775C113.896 216.315 114.207 217.46 114.207 217.46C114.207 217.46 104.395 219.061 102.782 214.776C101.168 210.491 103.402 209.333 103.508 209.026C103.613 208.719 104.854 208.185 103.778 206.957C102.701 205.728 105.158 202.355 105.158 202.355C105.158 202.355 105.543 197.604 106.232 197.449C106.921 197.294 106.691 190.396 106.691 190.396L107.458 183.191C107.458 183.191 108.457 167.09 108.227 166.476C107.998 165.861 108.15 162.796 108.916 161.34C109.683 159.885 110.291 146.468 110.291 146.468C110.291 146.468 110.136 139.874 110.75 138.648C111.097 137.953 111.271 135.282 111.371 133.1C111.433 131.44 111.451 130.063 111.451 130.063L120.034 126.842L131.08 123.317L140.358 127.76L153.927 130.367L154.098 132.709L156.677 168.483L158.135 181.978C158.135 181.978 158.755 188.339 158.827 189.487C158.898 190.635 159.668 198.153 159.668 198.153C159.668 198.153 161.278 201.756 160.288 202.982C159.298 204.207 159.668 205.206 159.668 205.206C159.668 205.206 162.811 209.178 162.11 210.789Z" fill="#3F3D56"/>
<path opacity="0.1" d="M146.024 56.3865L142.499 119.215L123.329 115.19L119.534 90.0037L123.292 56.1941L126.122 56.5571L131.115 57.1932L136.058 57.5004L141.413 56.9016L146.024 56.3865Z" fill="black"/>
<path d="M146.024 56.8489L142.499 119.674L123.329 115.649L119.534 90.463L123.292 56.6565L126.122 57.0164L131.115 57.6525L136.058 57.9597L141.413 57.3609L146.024 56.8489Z" fill="#6C63FF"/>
<path d="M130.267 58.5339L137.168 58.7635L135.229 61.4786C135.229 61.4786 135.366 66.9646 136.287 68.5378C137.209 70.111 136.939 94.4132 136.939 94.4132L135.114 97.9009L131.971 93.9912L132.008 61.9068L130.267 58.5339Z" fill="#3F3D56"/>
<path opacity="0.1" d="M130.267 58.5339L137.168 58.7635L135.229 61.4786C135.229 61.4786 135.366 66.9646 136.287 68.5378C137.209 70.111 136.939 94.4132 136.939 94.4132L135.114 97.9009L131.971 93.9912L132.008 61.9068L130.267 58.5339Z" fill="black"/>
<path opacity="0.1" d="M141.078 51.4033L134.639 58.5339L138.319 62.366L144.414 56.427L141.078 51.4033Z" fill="black"/>
<path d="M140.653 51.4126L134.636 58.0715L138.316 61.9068L144.423 55.9647L141.441 51.4716C141.4 51.4063 141.345 51.3516 141.279 51.3118C141.213 51.272 141.139 51.2483 141.062 51.2426C140.985 51.2368 140.908 51.2492 140.837 51.2788C140.766 51.3083 140.703 51.3542 140.653 51.4126V51.4126Z" fill="#6C63FF"/>
<path opacity="0.1" d="M131.918 58.1893L125.402 51.6731L124.788 55.0832L127.779 62.5582L131.918 58.1893Z" fill="black"/>
<path d="M132.148 57.7302L125.632 51.2109L125.017 54.6242L128.008 62.0992L132.148 57.7302Z" fill="#6C63FF"/>
<path opacity="0.1" d="M154.089 132.709C150.965 134.204 147.619 135.178 144.181 135.592C137.857 136.399 133.718 128.35 133.718 128.35L131.304 131.493C130.537 134.829 118.842 135.67 114.092 134.404C113.106 134.161 112.179 133.722 111.367 133.113C111.429 131.453 111.448 130.075 111.448 130.075L120.034 126.842L131.08 123.317L140.358 127.76L153.927 130.367L154.089 132.709Z" fill="black"/>
<path opacity="0.1" d="M146.021 56.8457L142.496 119.671L123.329 115.637L119.534 90.4536L123.292 56.6316L126.122 56.9915C126.049 58.2196 125.91 59.4429 125.706 60.6561C125.247 62.8033 128.083 78.0605 128.083 78.0605C128.083 78.0605 133.473 95.1669 135.902 92.7032C138.332 90.2395 141.767 77.2165 141.767 77.2165C144.107 72.3852 141.807 58.8564 141.634 58.5678C141.513 58.164 141.439 57.7475 141.413 57.3266L146.021 56.8457Z" fill="black"/>
<path opacity="0.1" d="M154.303 105.45L154.464 111.606L152.692 113.214L151.485 98.3196H154.129L154.303 105.45Z" fill="black"/>
<path opacity="0.1" d="M112.677 94.1089V94.1244C112.651 94.62 112.581 95.1123 112.466 95.5952C112.466 95.4587 112.466 95.3811 112.441 95.3718C112.329 95.3221 112.463 94.7605 112.677 94.1089Z" fill="black"/>
<path opacity="0.1" d="M116.072 98.3228L114.864 113.217C114.864 113.217 113.052 111.575 110.707 109.434L110.986 106.797C110.986 106.797 111.976 100.312 112.336 97.1157C112.495 97.5416 112.703 97.9477 112.956 98.3259L116.072 98.3228Z" fill="black"/>
<path d="M126.469 51.4404C126.469 51.4404 125.321 49.7555 123.751 53.0136C123.751 53.0136 119.649 55.3905 118.231 55.6573C116.813 55.9242 111.793 57.6897 111.793 57.6897C111.034 58.2396 110.12 58.535 109.183 58.5337C107.613 58.5337 106.31 61.9811 106.502 63.8615C106.694 65.7418 106.387 67.1195 104.929 67.1971C103.471 67.2747 104.277 70.3001 104.277 70.3001L113.977 81.4179C113.977 81.4179 114.598 91.6576 114.287 91.9679C113.977 92.2781 112.866 95.2632 113.136 95.3811C113.406 95.499 111.678 106.806 111.678 106.806L109.338 128.766C109.338 128.766 109.338 132.443 114.092 133.709C118.846 134.975 130.537 134.131 131.304 130.795L133.718 127.652C133.718 127.652 137.857 135.719 144.181 134.897C150.505 134.075 154.532 131.794 154.532 131.794L153.84 105.459L153.381 86.485L163.27 70.2721C163.27 70.2721 160.627 65.2112 160.856 62.912C161.086 60.6127 161.548 58.8782 155.913 58.0807C155.913 58.0807 151.16 57.3732 148.361 55.437C146.696 54.2799 144.876 53.3638 142.955 52.7157C142.955 52.7157 141.683 50.4196 140.585 51.4125C140.585 51.4125 141.385 54.9374 141.289 55.5704C141.193 56.2034 141.46 59.0023 141.634 59.2939C141.807 59.5856 144.116 73.1113 141.767 77.9426C141.767 77.9426 138.332 90.9749 135.902 93.4262C133.473 95.8775 128.083 78.7835 128.083 78.7835C128.083 78.7835 125.247 63.5295 125.706 61.3822C126.165 59.235 126.469 51.4404 126.469 51.4404Z" fill="#3F3D56"/>
<path d="M134.677 101.699C135.609 101.699 136.365 100.943 136.365 100.011C136.365 99.0785 135.609 98.3228 134.677 98.3228C133.745 98.3228 132.989 99.0785 132.989 100.011C132.989 100.943 133.745 101.699 134.677 101.699Z" fill="#3F3D56"/>
<path d="M134.677 109.652C135.609 109.652 136.365 108.896 136.365 107.964C136.365 107.031 135.609 106.276 134.677 106.276C133.745 106.276 132.989 107.031 132.989 107.964C132.989 108.896 133.745 109.652 134.677 109.652Z" fill="#3F3D56"/>
<path opacity="0.1" d="M134.677 101.699C135.609 101.699 136.365 100.943 136.365 100.011C136.365 99.0785 135.609 98.3228 134.677 98.3228C133.745 98.3228 132.989 99.0785 132.989 100.011C132.989 100.943 133.745 101.699 134.677 101.699Z" fill="black"/>
<path opacity="0.1" d="M134.677 109.652C135.609 109.652 136.365 108.896 136.365 107.964C136.365 107.031 135.609 106.276 134.677 106.276C133.745 106.276 132.989 107.031 132.989 107.964C132.989 108.896 133.745 109.652 134.677 109.652Z" fill="black"/>
<path opacity="0.1" d="M149.831 208.489C149.831 208.489 156.754 209.026 157.446 209.563C158.138 210.1 149.831 208.489 149.831 208.489Z" fill="black"/>
<path opacity="0.1" d="M108.609 203.047C108.609 203.047 110.067 204.887 109.453 205.731C108.839 206.575 108.609 203.047 108.609 203.047Z" fill="black"/>
<path opacity="0.1" d="M110.371 209.672C110.371 209.672 113.055 207.909 114.129 209.082C115.203 210.255 110.371 209.672 110.371 209.672Z" fill="black"/>
<path opacity="0.1" d="M140.914 43.5218V47.9497C140.36 48.1928 139.762 48.3186 139.157 48.319H127.537C126.93 48.3194 126.329 48.1925 125.774 47.9466V43.5218C125.779 42.3531 126.245 41.2335 127.071 40.4074C127.898 39.5813 129.018 39.1158 130.187 39.1125H136.504C137.673 39.1166 138.792 39.5825 139.618 40.4085C140.444 41.2345 140.91 42.3537 140.914 43.5218V43.5218Z" fill="black"/>
<path opacity="0.1" d="M126.783 24.5071V27.7776C126.783 27.9669 126.708 28.1484 126.574 28.2822C126.44 28.4161 126.258 28.4913 126.069 28.4913C125.88 28.4913 125.698 28.4161 125.565 28.2822C125.431 28.1484 125.355 27.9669 125.355 27.7776V25.0253C125.796 24.7675 126.28 24.5919 126.783 24.5071V24.5071Z" fill="black"/>
<path d="M139.843 24.8049H126.848C124.791 24.8049 123.124 26.472 123.124 28.5285V43.8601C123.124 45.9165 124.791 47.5836 126.848 47.5836H139.843C141.899 47.5836 143.567 45.9165 143.567 43.8601V28.5285C143.567 26.472 141.899 24.8049 139.843 24.8049Z" fill="#DCDFED"/>
<path opacity="0.1" d="M139.148 40.0217V49.3088H127.537V40.0031C128.299 39.4248 129.23 39.1121 130.187 39.1125H136.504C137.461 39.1201 138.389 39.4393 139.148 40.0217V40.0217Z" fill="black"/>
<path opacity="0.1" d="M139.285 24.8049H127.304V48.5579H139.285V24.8049Z" fill="black"/>
<path d="M139.157 24.8049H127.537V48.5579H139.157V24.8049Z" fill="#6F758D"/>
<path d="M132.148 32.9998H128.39V33.6948H132.148V32.9998Z" fill="#DCDFED"/>
<path d="M138.397 32.9998H134.639V33.6948H138.397V32.9998Z" fill="#DCDFED"/>
<path d="M136.517 40.6763H130.174V41.0921H136.517V40.6763Z" fill="#DCDFED"/>
<path d="M213.097 66.2292L217.59 88.4276C217.642 88.6737 217.771 88.8967 217.959 89.0642C218.146 89.2316 218.382 89.3348 218.633 89.3585L221.627 89.6502C221.848 90.0375 222.048 90.4363 222.226 90.8448C222.76 92.086 223.107 93.5754 224.258 94.3108C224.879 94.9314 226.278 94.8228 227.079 94.8259C227.92 94.7948 228.76 94.9114 229.561 95.1703C229.469 95.1595 229.375 95.1595 229.282 95.1703C229.803 95.3789 230.308 95.6278 230.79 95.915C230.827 95.9646 230.868 96.0143 230.899 96.0639C231.026 96.2594 231.128 96.4952 231.342 96.5914C231.28 96.7155 231.575 96.7187 232.047 96.6535C232.093 96.6618 232.138 96.6764 232.18 96.6969C232.306 96.7813 232.412 96.8926 232.49 97.0227C233.269 98.0591 234.715 98.3167 236.019 98.3508C237.322 98.3849 238.699 98.2949 239.848 98.9124C240.121 99.0583 240.375 99.2413 240.661 99.3655C240.645 99.501 240.651 99.638 240.676 99.7719C240.81 100.201 240.985 100.617 241.197 101.013C241.302 101.215 241.359 101.437 241.365 101.664C241.37 101.891 241.324 102.116 241.228 102.323C241.132 102.49 240.977 102.633 240.878 102.788C240.744 103.059 240.677 103.358 240.682 103.66C240.592 105.072 240.505 106.512 240.89 107.871C241.114 108.662 241.492 109.484 241.244 110.266C241.095 110.738 240.726 111.138 240.673 111.628C240.62 112.119 240.93 112.634 241.114 113.127C241.545 114.297 241.309 115.699 241.011 116.906C241.03 116.917 241.05 116.926 241.07 116.934C240.851 117.192 240.669 117.479 240.53 117.788C240.055 118.808 240.086 119.984 240.121 121.108C240.186 123.221 240.257 125.359 240.844 127.388C240.944 127.677 241.012 127.975 241.048 128.279C241.058 128.565 241.033 128.851 240.974 129.132C240.834 129.945 240.664 130.755 240.462 131.555C240.349 131.898 240.304 132.26 240.329 132.62C240.387 133.088 240.682 133.495 240.878 133.929C241.657 135.66 240.819 137.792 241.576 139.533C241.756 139.946 242.02 140.318 242.175 140.74C242.516 141.671 242.324 142.676 242.438 143.644C242.562 144.329 242.73 145.005 242.941 145.667C243.49 147.821 242.581 150.117 243.112 152.277C243.565 154.138 244.024 156 244.043 157.896C244.071 159.221 243.888 160.546 244.043 161.862C244.198 163.177 244.744 164.533 245.87 165.235C246.47 165.576 247.14 165.773 247.828 165.812C249.163 172.753 249.085 179.908 250.245 186.887C250.478 188.296 250.764 189.679 250.906 191.116C251.567 197.756 249.088 204.201 247.689 210.764L247.465 210.9C245.743 211.974 243.909 213.184 243.227 215.083C243.016 215.67 242.966 216.417 243.438 216.83C243.614 216.944 243.78 217.073 243.934 217.215C244.31 217.668 243.981 218.481 244.434 218.853C244.73 218.903 245.03 218.934 245.33 218.946C245.124 219.439 244.917 219.932 244.71 220.426C244.521 220.864 244.328 221.342 244.446 221.804C244.554 222.097 244.699 222.376 244.877 222.633C245.203 223.331 245.354 224.097 245.318 224.867C245.291 225.122 245.36 225.378 245.513 225.584C245.599 225.662 245.698 225.724 245.805 225.767C247.186 226.372 248.701 226.605 250.199 226.442C251.698 226.278 253.127 225.725 254.344 224.836C254.462 224.761 254.561 224.661 254.636 224.544C254.674 224.464 254.702 224.379 254.72 224.293C254.915 223.489 255.114 222.685 255.309 221.882C255.334 221.789 255.356 221.692 255.381 221.599C255.61 220.65 255.843 219.704 256.076 218.754C256.386 217.42 256.724 216.082 256.951 214.72C256.951 215.477 256.951 216.231 256.951 216.988V219.638C256.944 220.029 256.958 220.419 256.991 220.808C257.317 220.808 257.643 220.808 257.969 220.808C257.992 220.812 258.016 220.808 258.038 220.799C258.06 220.79 258.079 220.775 258.093 220.755C258.137 220.658 258.158 220.552 258.155 220.445C258.202 219.477 258.237 218.507 258.257 217.535C258.298 215.834 258.304 214.121 258.273 212.427C258.273 212.042 258.31 211.251 258.248 210.721C258.408 210.345 258.541 209.958 258.645 209.563C258.803 209.029 258.955 208.489 259.086 207.946C259.292 207.918 259.5 207.918 259.706 207.946C259.713 211.08 259.408 214.207 258.797 217.28C259.399 217.842 260.463 217.516 260.948 216.846C261.432 216.175 261.494 215.294 261.568 214.487C261.795 211.794 262.229 209.122 262.667 206.454C262.712 205.994 262.844 205.547 263.054 205.135C263.262 204.781 263.588 204.515 263.771 204.136C263.964 203.665 264.022 203.149 263.939 202.647C263.827 201.471 263.535 200.273 262.815 199.33C262.139 198.445 261.016 197.843 259.914 197.974L259.846 197.85C259.207 196.568 259.272 195.057 259.353 193.642C259.442 192.033 259.533 190.423 259.626 188.814C259.889 187.039 260.097 185.264 260.221 183.486C260.532 182.344 260.951 181.233 261.23 180.073C261.23 178.946 261.63 177.774 261.643 176.616C261.647 175.412 261.557 174.21 261.373 173.02C261.019 170.575 260.38 168.182 259.849 165.774C259.762 165.368 259.706 164.937 259.647 164.512C260.007 164.302 260.338 164.047 260.634 163.754C260.091 159.534 259.598 155.004 261.596 151.243C262.189 150.133 262.999 149.071 263.206 147.83C263.259 147.52 263.275 147.191 263.34 146.878C263.431 146.507 263.561 146.147 263.728 145.804L267.681 136.852L268.32 135.412C269.006 133.861 269.692 132.309 270.278 130.705C270.967 128.843 271.519 126.91 272.037 124.989C272.348 123.838 272.658 122.665 272.636 121.474C272.579 120.416 272.33 119.377 271.901 118.408C271.808 118.188 271.708 117.971 271.591 117.753C271.712 117.716 271.829 117.688 271.947 117.651C272.211 115.774 272.435 113.704 271.376 112.134C271.17 111.884 271.003 111.604 270.883 111.302C270.694 110.66 271.103 110.005 271.234 109.348C271.501 108.004 270.595 106.741 269.819 105.609C269.7 105.457 269.608 105.288 269.546 105.106C269.403 104.591 269.716 104.017 269.723 103.495C269.724 103.357 269.693 103.22 269.633 103.095C272.627 103.269 275.581 104.051 278.585 104.166C280.487 104.24 282.618 103.942 283.825 102.49C284.598 101.559 284.874 100.334 284.949 99.1358C285.085 96.9296 284.638 94.7328 284.266 92.5514C284.024 91.0713 283.832 89.5819 283.68 88.0863C283.99 88.1142 284.3 88.1297 284.61 88.1297C286.388 88.1297 288.238 87.8691 289.709 86.8885C291.179 85.908 292.163 84.0369 291.701 82.3334C291.44 81.3715 290.77 80.5772 290.28 79.7115C288.548 76.6551 289.038 72.7671 290.528 69.5804C291.226 68.0723 292.151 66.5085 291.871 64.8701C291.474 62.5739 289.001 61.3793 287.146 59.952C285.532 58.6848 284.258 57.0376 283.437 55.1575C282.616 53.2774 282.274 51.2232 282.442 49.1786C282.584 47.6674 282.997 46.0756 282.392 44.6824C281.74 43.1899 280.13 42.4049 278.774 41.4988C276.668 40.0846 274.97 38.1427 273.85 35.867C273.158 34.452 272.587 33.155 270.954 32.6709C269.642 32.3266 268.267 32.3011 266.942 32.5965L267.215 32.4662C267.091 32.4879 266.967 32.5127 266.849 32.5406L266.657 32.5934C265.407 32.3213 264.112 32.3288 262.865 32.6151C260.342 33.2202 257.59 35.0323 255.524 36.5248C254.905 36.9552 254.337 37.4538 253.829 38.0111C253.777 38.0701 253.718 38.1228 253.665 38.1818C253.416 38.4563 253.207 38.7644 253.044 39.0971C252.937 39.3399 252.857 39.5938 252.805 39.8542C252.591 40.57 252.504 41.3177 252.548 42.0635C252.436 42.2187 252.328 42.3738 252.238 42.5383C250.919 44.6305 250.45 47.1476 250.926 49.5744C251.403 52.0011 252.789 54.154 254.801 55.5923C254.429 56.4391 253.99 57.2547 253.488 58.0312C252.954 58.8939 252.39 59.741 251.812 60.5756L245.607 62.4995C245.216 62.6236 244.825 62.7446 244.449 62.9028C243.995 63.096 243.569 63.3508 243.183 63.66C242.561 64.1499 242.078 64.793 241.78 65.5264C241.481 66.2597 241.379 67.0579 241.483 67.8427C241.511 68.0041 241.548 68.153 241.585 68.3206C241.399 69.2701 241.256 70.2351 241.114 71.1939C240.927 72.4878 240.741 73.7817 240.571 75.0788C239.934 76.364 239.655 77.7971 239.764 79.2274C239.785 80.0919 239.86 80.9541 239.99 81.809C239.969 82.5693 239.959 83.3295 239.99 84.0897C240.049 85.0538 240.049 86.0206 239.99 86.9847C239.884 87.8652 239.712 88.7365 239.475 89.5912C239.467 89.6693 239.442 89.7447 239.402 89.8126C239.363 89.8805 239.309 89.9393 239.246 89.9853L239.174 90.0039L238.758 89.9636L238.299 89.9108C238.298 89.8454 238.293 89.7801 238.284 89.7153L233.39 65.7762C233.333 65.5113 233.187 65.2741 232.975 65.1046C232.764 64.9351 232.501 64.8435 232.23 64.8453H214.255C214.082 64.8453 213.913 64.8831 213.757 64.9559C213.601 65.0287 213.463 65.1349 213.353 65.2668C213.242 65.3988 213.162 65.5534 213.118 65.7197C213.074 65.8859 213.067 66.0599 213.097 66.2292V66.2292ZM270.042 94.8103C270.08 94.7113 270.125 94.615 270.176 94.5218C270.359 94.2115 270.626 93.957 270.796 93.6436C270.884 93.4671 270.929 93.2728 270.929 93.0758C270.929 92.8788 270.884 92.6845 270.796 92.508C270.619 92.1977 271.107 91.9029 271.249 91.5771C271.316 91.3147 271.332 91.0418 271.296 90.7734C271.35 90.3219 271.525 89.8932 271.802 89.5322C272.143 88.9923 272.487 88.4586 272.838 87.9249C272.94 87.7636 273.049 87.6146 273.148 87.4471C273.206 87.5539 273.269 87.6575 273.338 87.7574C273.592 88.0446 273.786 88.3802 273.908 88.7441C273.93 88.9991 273.93 89.2555 273.908 89.5105C273.908 90.3049 274.411 91.003 274.793 91.7043C275.174 92.4056 275.454 93.2837 275.057 93.9757C274.917 94.2177 274.746 94.5962 274.985 94.7079C275.119 94.77 275.295 94.7079 275.41 94.7948C275.572 94.9407 275.351 95.1858 275.15 95.2758C274.484 95.5628 273.767 95.7109 273.043 95.7109C272.318 95.7109 271.601 95.5628 270.936 95.2758C270.657 95.1299 270.353 94.9624 270.042 94.8103ZM231.876 90.6586L236.841 91.1458C236.429 91.3474 235.973 91.4413 235.516 91.4188L234.312 91.0589C234.312 91.0589 234.312 91.1396 234.272 91.2761C234.045 91.2171 233.815 91.1613 233.589 91.1085C233.009 90.972 232.438 90.82 231.87 90.6586H231.876Z" fill="url(#paint1_linear)"/>
<path d="M270.12 36.9188C271.227 39.1732 272.904 41.0987 274.985 42.504C276.329 43.407 277.918 44.1889 278.563 45.6721C279.165 47.0561 278.755 48.6417 278.616 50.1466C278.448 52.1778 278.785 54.2191 279.597 56.0886C280.409 57.958 281.671 59.5975 283.27 60.861C285.104 62.2791 287.552 63.4706 287.943 65.7543C288.222 67.3834 287.323 68.9411 286.615 70.4398C285.157 73.611 284.657 77.4772 286.37 80.515C286.857 81.3807 287.515 82.1689 287.776 83.1246C288.235 84.8219 287.26 86.6712 285.805 87.658C284.35 88.6447 282.522 88.8991 280.766 88.8991C279.488 88.8991 278.104 88.7067 277.198 87.81C276.577 87.208 276.285 86.3702 276 85.5666L273.778 79.2862C273.375 78.1568 272.953 76.9839 272.112 76.1274C270.331 74.3091 267.42 74.5015 264.876 74.5325C261.126 74.577 257.396 73.9885 253.842 72.7918C251.763 72.0905 249.498 70.8959 249.017 68.758C248.542 66.6666 249.972 64.6745 251.232 62.94C252.176 61.6471 253.067 60.318 253.907 58.9527C254.726 57.6247 255.511 56.2283 255.735 54.6862C256.11 52.1231 254.909 49.6346 253.978 47.2174C253.048 44.8002 252.399 41.9424 253.752 39.7331C254.335 38.8735 255.08 38.1358 255.946 37.5611C257.978 36.0748 260.709 34.2751 263.203 33.67C264.541 33.3578 265.934 33.377 267.262 33.7258C268.869 34.213 269.434 35.5007 270.12 36.9188Z" fill="#3F3D56"/>
<path d="M242.73 66.8496C242.231 68.5502 241.877 70.2899 241.672 72.0501C241.052 76.3043 240.431 80.5832 240.549 84.8777C240.606 85.8377 240.606 86.8003 240.549 87.7603C240.443 88.6353 240.273 89.5013 240.04 90.3513C240.032 90.429 240.007 90.5041 239.967 90.5715C239.928 90.639 239.874 90.6971 239.81 90.7422C239.665 90.8136 239.5 90.7422 239.329 90.7236C238.777 90.6553 238.371 91.189 237.942 91.549C237.526 91.8853 237.017 92.0866 236.483 92.126C235.949 92.1653 235.416 92.0409 234.954 91.7693C235.096 92.4006 235.051 93.0595 234.824 93.6656C234.598 94.2717 234.2 94.7988 233.679 95.1825C233.151 95.5566 232.548 95.8121 231.911 95.9315C231.275 96.051 230.621 96.0315 229.993 95.8745C230.629 95.7752 231.234 96.222 231.594 96.765C231.718 96.9605 231.817 97.1932 232.028 97.2894C232.239 97.3856 232.608 97.2646 232.857 97.3949C232.981 97.4754 233.087 97.5811 233.167 97.7052C233.937 98.7385 235.367 98.9929 236.655 99.0271C237.942 99.0612 239.305 98.9743 240.44 99.5856C240.711 99.7556 240.989 99.912 241.275 100.054C242.169 100.423 243.236 100.054 243.931 99.3932C244.626 98.7323 245.011 97.7983 245.296 96.8767C246.444 93.1532 246.227 89.1473 245.985 85.25C245.607 79.0504 244.819 72.7048 242.73 66.8496Z" fill="#454B69"/>
<path opacity="0.1" d="M242.73 66.8496C242.231 68.5502 241.877 70.2899 241.672 72.0501C241.052 76.3043 240.431 80.5832 240.549 84.8777C240.606 85.8377 240.606 86.8003 240.549 87.7603C240.443 88.6353 240.273 89.5013 240.04 90.3513C240.032 90.429 240.007 90.5041 239.967 90.5715C239.928 90.639 239.874 90.6971 239.81 90.7422C239.665 90.8136 239.5 90.7422 239.329 90.7236C238.777 90.6553 238.371 91.189 237.942 91.549C237.526 91.8853 237.017 92.0866 236.483 92.126C235.949 92.1653 235.416 92.0409 234.954 91.7693C235.096 92.4006 235.051 93.0595 234.824 93.6656C234.598 94.2717 234.2 94.7988 233.679 95.1825C233.151 95.5566 232.548 95.8121 231.911 95.9315C231.275 96.051 230.621 96.0315 229.993 95.8745C230.629 95.7752 231.234 96.222 231.594 96.765C231.718 96.9605 231.817 97.1932 232.028 97.2894C232.239 97.3856 232.608 97.2646 232.857 97.3949C232.981 97.4754 233.087 97.5811 233.167 97.7052C233.937 98.7385 235.367 98.9929 236.655 99.0271C237.942 99.0612 239.305 98.9743 240.44 99.5856C240.711 99.7556 240.989 99.912 241.275 100.054C242.169 100.423 243.236 100.054 243.931 99.3932C244.626 98.7323 245.011 97.7983 245.296 96.8767C246.444 93.1532 246.227 89.1473 245.985 85.25C245.607 79.0504 244.819 72.7048 242.73 66.8496Z" fill="black"/>
<path d="M261.568 180.355C261.258 181.698 260.715 182.989 260.426 184.342C260.211 185.504 260.085 186.68 260.048 187.861L259.716 193.843C259.635 195.261 259.57 196.754 260.2 198.026C260.637 198.907 261.394 199.646 261.612 200.608C261.947 202.113 260.87 203.531 259.865 204.701L254.9 210.444C253.348 212.244 251.651 214.137 249.352 214.748C249.009 214.863 248.641 214.876 248.291 214.785C247.648 214.574 247.338 213.798 247.431 213.128C247.577 212.467 247.879 211.85 248.312 211.328C249.609 209.507 251.003 207.713 251.847 205.641C252.917 203.006 253.026 200.086 252.961 197.241C252.715 185.642 249.789 174.177 250.121 162.588C252.653 162.395 255.285 161.967 257.82 161.998C260.082 162.023 259.812 164.328 260.206 166.14C260.73 168.539 261.36 170.916 261.714 173.348C261.895 174.532 261.983 175.729 261.978 176.926C261.965 178.068 261.568 179.235 261.568 180.355Z" fill="#FBBEBE"/>
<path opacity="0.05" d="M261.568 180.355C261.258 181.698 260.715 182.989 260.426 184.342C260.211 185.504 260.085 186.68 260.048 187.861L259.716 193.843C259.635 195.261 259.57 196.754 260.2 198.026C260.637 198.907 261.394 199.646 261.612 200.608C261.947 202.113 260.87 203.531 259.865 204.701L254.9 210.444C253.348 212.244 251.651 214.137 249.352 214.748C249.009 214.863 248.641 214.876 248.291 214.785C247.648 214.574 247.338 213.798 247.431 213.128C247.577 212.467 247.879 211.85 248.312 211.328C249.609 209.507 251.003 207.713 251.847 205.641C252.917 203.006 253.026 200.086 252.961 197.241C252.715 185.642 249.789 174.177 250.121 162.588C252.653 162.395 255.285 161.967 257.82 161.998C260.082 162.023 259.812 164.328 260.206 166.14C260.73 168.539 261.36 170.916 261.714 173.348C261.895 174.532 261.983 175.729 261.978 176.926C261.965 178.068 261.568 179.235 261.568 180.355Z" fill="black"/>
<path d="M260.07 198.175C261.221 197.939 262.428 198.563 263.138 199.5C263.849 200.437 264.137 201.629 264.249 202.802C264.331 203.301 264.274 203.813 264.085 204.282C263.902 204.645 263.582 204.924 263.374 205.275C263.166 205.685 263.035 206.13 262.989 206.587C262.561 209.24 262.13 211.899 261.903 214.577C261.835 215.393 261.77 216.259 261.283 216.923C260.796 217.587 259.756 217.916 259.16 217.354C259.763 214.298 260.063 211.189 260.057 208.073C258.704 207.887 257.528 208.952 256.644 209.991C255.74 211.054 254.91 212.177 254.162 213.355C253.479 214.438 252.855 215.57 251.989 216.51C251.102 217.451 249.999 218.162 248.776 218.58C247.552 218.998 246.245 219.112 244.968 218.912C244.521 218.543 244.847 217.733 244.474 217.283C244.326 217.139 244.166 217.007 243.996 216.889C243.531 216.479 243.577 215.738 243.788 215.154C244.465 213.261 246.271 212.051 247.977 210.993C251.062 209.057 254.183 207.149 257.286 205.271C258.473 204.545 259.378 203.436 259.852 202.128C259.964 201.805 260.448 198.048 260.07 198.175Z" fill="#3F3D56"/>
<path opacity="0.05" d="M260.07 198.175C261.221 197.939 262.428 198.563 263.138 199.5C263.849 200.437 264.137 201.629 264.249 202.802C264.331 203.301 264.274 203.813 264.085 204.282C263.902 204.645 263.582 204.924 263.374 205.275C263.166 205.685 263.035 206.13 262.989 206.587C262.561 209.24 262.13 211.899 261.903 214.577C261.835 215.393 261.77 216.259 261.283 216.923C260.796 217.587 259.756 217.916 259.16 217.354C259.763 214.298 260.063 211.189 260.057 208.073C258.704 207.887 257.528 208.952 256.644 209.991C255.74 211.054 254.91 212.177 254.162 213.355C253.479 214.438 252.855 215.57 251.989 216.51C251.102 217.451 249.999 218.162 248.776 218.58C247.552 218.998 246.245 219.112 244.968 218.912C244.521 218.543 244.847 217.733 244.474 217.283C244.326 217.139 244.166 217.007 243.996 216.889C243.531 216.479 243.577 215.738 243.788 215.154C244.465 213.261 246.271 212.051 247.977 210.993C251.062 209.057 254.183 207.149 257.286 205.271C258.473 204.545 259.378 203.436 259.852 202.128C259.964 201.805 260.448 198.048 260.07 198.175Z" fill="black"/>
<path d="M260.572 176.988C261.193 184.746 259.455 192.453 257.91 200.071C257.763 200.681 257.684 201.306 257.674 201.933C257.735 202.708 257.86 203.478 258.049 204.232C258.633 207.375 257.885 210.599 257.143 213.712C256.625 215.865 255.902 218.298 253.891 219.238C252.473 219.902 250.816 219.613 249.281 219.309C248.773 219.256 248.291 219.063 247.887 218.751C247.335 218.23 247.313 217.37 247.36 216.613C247.893 208.058 252.225 199.857 251.394 191.324C251.254 189.912 250.972 188.516 250.739 187.116C249.541 179.859 249.684 172.409 248.167 165.213C248.092 164.964 248.092 164.698 248.167 164.449C248.298 164.203 248.506 164.006 248.759 163.888C250.162 163.05 251.66 162.302 253.277 162.076C254.54 161.899 256.132 162.035 257.193 162.82C258.307 163.643 258.381 165.411 258.707 166.702C259.542 170.078 260.293 173.504 260.572 176.988Z" fill="#FBBEBE"/>
<path d="M258.543 220.51C258.547 220.617 258.525 220.723 258.481 220.82C258.467 220.84 258.449 220.855 258.428 220.865C258.407 220.875 258.383 220.879 258.36 220.876C258.049 220.876 257.714 220.876 257.395 220.876C257.36 220.488 257.345 220.099 257.351 219.709V217.075C257.351 214.984 257.351 212.889 257.444 210.81C257.444 210.734 257.455 210.659 257.478 210.587C257.5 210.541 257.538 210.505 257.584 210.484C257.814 210.376 258.35 210.041 258.549 210.429C258.748 210.816 258.658 212.027 258.667 212.532C258.698 214.224 258.695 215.921 258.667 217.612C258.63 218.578 258.588 219.544 258.543 220.51Z" fill="#3F3D56"/>
<path d="M241.626 128.812C241.635 129.097 241.61 129.383 241.551 129.662C241.412 130.469 241.241 131.273 241.045 132.07C240.934 132.412 240.888 132.772 240.912 133.131C240.971 133.597 241.263 134 241.455 134.432C242.225 136.154 241.396 138.276 242.147 140.017C242.324 140.426 242.584 140.799 242.74 141.218C243.078 142.13 242.885 143.142 243 144.107C243.121 144.788 243.287 145.461 243.497 146.12C244.04 148.261 243.14 150.545 243.664 152.695C244.114 154.535 244.564 156.391 244.595 158.281C244.62 159.596 244.44 160.915 244.595 162.225C244.75 163.534 245.29 164.881 246.404 165.579C247.285 166.128 248.371 166.199 249.414 166.199C251.415 166.237 253.426 166.178 255.424 166.023C257.423 165.867 259.573 165.542 260.982 164.12C260.445 159.922 259.958 155.417 261.934 151.675C262.518 150.57 263.318 149.53 263.526 148.295C263.576 147.985 263.591 147.659 263.656 147.346C263.747 146.979 263.876 146.622 264.041 146.282L267.951 137.376C268.158 136.898 268.365 136.421 268.572 135.943C269.248 134.391 269.928 132.84 270.511 131.26C271.19 129.399 271.73 127.487 272.249 125.576C272.559 124.428 272.869 123.264 272.838 122.076C272.784 121.023 272.538 119.989 272.112 119.025C271.879 118.464 271.612 117.912 271.336 117.372C263.585 115.545 255.609 114.863 247.661 115.345C246.396 115.371 245.142 115.58 243.937 115.966C243.111 116.256 242.367 116.739 241.765 117.375C241.493 117.671 241.269 118.008 241.101 118.374C240.636 119.392 240.664 120.561 240.698 121.678C240.763 123.779 240.834 125.908 241.415 127.925C241.515 128.213 241.586 128.51 241.626 128.812V128.812Z" fill="#3F3D56"/>
<path d="M247.059 216.206C248.234 217.097 249.615 217.678 251.074 217.894C252.359 218.084 253.771 217.947 254.798 217.14C255.964 216.209 256.349 214.658 256.697 213.206L257.14 211.273C257.302 210.578 257.451 209.883 257.584 209.181C257.923 207.331 258.027 205.445 257.894 203.568C258.946 203.978 259.579 205.231 259.647 206.361C259.716 207.49 259.368 208.595 259.049 209.681C258.921 210.207 258.727 210.715 258.471 211.192C258.282 211.502 258.037 211.788 257.876 212.123C257.674 212.617 257.558 213.141 257.534 213.674C257.295 215.416 256.948 217.141 256.498 218.841L255.809 221.671L255.741 221.953L255.136 224.336C255.12 224.422 255.092 224.506 255.052 224.584C254.98 224.701 254.882 224.801 254.767 224.876C253.563 225.758 252.149 226.306 250.666 226.466C249.183 226.627 247.684 226.393 246.32 225.788C246.215 225.745 246.117 225.684 246.032 225.608C245.881 225.403 245.814 225.148 245.843 224.895C245.877 224.13 245.727 223.368 245.405 222.673C245.229 222.417 245.086 222.14 244.98 221.847C244.862 221.388 245.051 220.917 245.237 220.479L246.662 217.143C246.82 216.749 246.801 216.548 247.059 216.206Z" fill="#3F3D56"/>
<path d="M250.404 77.3375C250.456 78.0767 250.601 78.8064 250.835 79.5096C251.01 80.0159 251.315 80.4674 251.719 80.819C252.383 79.9223 253.581 79.6151 254.462 78.9573C255.241 78.3832 255.79 77.5609 256.371 76.7852C257.513 75.2586 258.853 73.8747 260.094 72.4163C260.28 72.196 260.463 71.9757 260.643 71.7491C261.275 70.9808 261.846 70.1655 262.353 69.3102C263.383 67.5385 264.088 65.4998 265.636 64.1563C266.48 63.4271 267.538 62.943 268.289 62.1145C267.78 61.3667 267.591 60.4607 267.411 59.5732C267.22 58.7165 267.073 57.8507 266.97 56.9792C266.942 56.7496 266.927 56.5168 266.918 56.2841C266.918 56.1848 266.918 56.0855 266.902 55.9738C266.902 55.2633 267.361 54.0407 266.635 53.6404C265.965 53.2712 264.87 53.2681 264.088 53.2774H263.96C262.134 53.2956 260.354 53.8478 258.838 54.8661C258.493 55.0777 258.192 55.3525 257.95 55.6759C257.544 56.2965 257.522 57.0412 257.553 57.7828C257.553 57.9535 257.568 58.121 257.581 58.2855C257.581 58.3662 257.581 58.45 257.581 58.5337C257.609 59.3591 257.528 60.2435 256.96 60.8144C256.34 61.435 255.353 61.4629 254.512 61.7267C254.372 61.7701 254.239 61.8198 254.109 61.8725C253.182 62.2905 252.392 62.9603 251.828 63.8056C251.195 64.7751 250.747 65.8534 250.506 66.9861C250.269 68.0057 250.122 69.0439 250.066 70.0891C249.904 72.4876 250.152 74.9328 250.404 77.3375Z" fill="#FBBEBE"/>
<path opacity="0.1" d="M257.565 58.2856C257.565 58.3663 257.565 58.45 257.565 58.5338C258.596 58.9093 261.103 57.8543 262.263 57.8543C264.566 57.8543 265.276 58.3104 266.942 56.9668C266.905 56.6379 266.884 56.3059 266.874 55.9739C266.874 55.2633 267.333 54.0408 266.607 53.6405C265.881 53.2402 264.718 53.2681 263.933 53.2775C262.107 53.2957 260.326 53.8479 258.81 54.8662C258.465 55.0778 258.164 55.3526 257.922 55.676C257.435 56.4207 257.513 57.3981 257.565 58.2856Z" fill="black"/>
<path d="M251.189 48.6882C251.188 49.9607 251.439 51.2209 251.926 52.3966C252.413 53.5723 253.126 54.6405 254.026 55.5402C254.926 56.4399 255.995 57.1534 257.171 57.6399C258.347 58.1264 259.607 58.3764 260.879 58.3756C263.448 58.3739 265.911 57.3528 267.727 55.5364C269.544 53.72 270.565 51.257 270.567 48.6882C270.521 46.1486 269.48 43.7283 267.668 41.9484C265.856 40.1684 263.418 39.1711 260.878 39.1711C258.338 39.1711 255.899 40.1684 254.087 41.9484C252.275 43.7283 251.234 46.1486 251.189 48.6882V48.6882Z" fill="#FBBEBE"/>
<path d="M267.488 60.1379C267.793 59.8827 268.167 59.7229 268.562 59.6787C269.133 59.6787 269.602 60.1473 269.837 60.6654C270.073 61.1836 270.148 61.7608 270.349 62.2945C270.626 63.0158 271.129 63.6278 271.783 64.0383C272.239 64.3238 272.782 64.5224 273.096 64.9692C273.589 65.6674 273.288 66.6417 272.872 67.3895C271.321 70.1821 268.528 72.0005 265.825 73.7133L262.784 75.6433C261.565 76.45 260.304 77.1906 259.005 77.8619C256.895 78.9014 254.614 79.5685 252.517 80.6297C251.552 81.1169 250.605 81.6971 249.538 81.8709C249.313 81.1531 249.172 80.4118 249.116 79.6616C248.598 75.0351 248.086 70.3094 249.116 65.7698C249.308 64.9041 249.578 64.0197 250.186 63.3774C250.585 62.9984 251.04 62.6843 251.536 62.4465C252.767 61.7852 254.033 61.1917 255.328 60.6685C255.935 60.374 256.602 60.2262 257.277 60.2372C257.22 60.7437 257.07 61.2351 256.833 61.6863L251.946 72.5652C251.636 73.2478 251.325 73.9615 251.35 74.7124C251.387 75.7798 252.107 76.8193 251.812 77.8464C254.649 73.7056 257.906 69.8687 261.531 66.3966C261.691 66.2639 261.823 66.1003 261.919 65.9156C262.007 65.6252 262.027 65.318 261.975 65.0189C261.94 64.4479 262.058 63.6846 262.536 63.3029C262.868 63.0361 263.358 62.9585 263.725 62.7258C265.009 61.9159 266.238 61.0006 267.488 60.1379Z" fill="#6C63FF"/>
<path opacity="0.1" d="M241.588 118.234C243.999 119.519 246.717 120.146 249.439 120.406C252.16 120.667 254.897 120.558 257.627 120.453C259.7 120.379 261.77 120.295 263.833 120.22C266.651 120.109 269.419 119.882 272.112 119.032C271.879 118.47 271.612 117.918 271.336 117.378C263.585 115.552 255.609 114.869 247.661 115.352C246.396 115.378 245.142 115.587 243.937 115.972C243.111 116.262 242.366 116.745 241.765 117.381C241.722 117.67 241.653 117.955 241.588 118.234Z" fill="black"/>
<path d="M242.026 87.9526C243.099 91.58 242.364 95.5486 241.694 99.269C241.294 99.4707 241.169 100.008 241.256 100.448C241.39 100.877 241.563 101.292 241.771 101.689C241.875 101.889 241.932 102.11 241.938 102.336C241.943 102.561 241.897 102.785 241.802 102.989C241.706 103.16 241.554 103.3 241.455 103.455C241.324 103.724 241.258 104.021 241.263 104.321C241.173 105.726 241.089 107.157 241.467 108.51C241.688 109.298 242.063 110.117 241.815 110.893C241.669 111.361 241.306 111.758 241.253 112.249C241.201 112.739 241.508 113.248 241.688 113.741C242.113 114.902 241.883 116.298 241.588 117.499C243.999 118.783 246.718 119.41 249.439 119.671C252.16 119.931 254.897 119.823 257.627 119.72L263.833 119.485C266.672 119.373 269.465 119.143 272.174 118.278C272.435 116.416 272.655 114.352 271.609 112.792C271.405 112.542 271.24 112.263 271.122 111.963C270.936 111.324 271.339 110.675 271.47 110.021C271.733 108.683 270.849 107.427 270.067 106.297C269.952 106.146 269.862 105.977 269.8 105.798C269.658 105.283 269.968 104.715 269.974 104.196C269.977 104.046 269.942 103.897 269.875 103.762C269.76 103.545 269.546 103.396 269.428 103.179C269.307 102.897 269.271 102.587 269.322 102.285C269.465 100.347 269.699 98.4178 270.024 96.4981C270.055 96.3244 270.086 96.1475 270.126 95.9737C270.185 95.7081 270.281 95.4522 270.412 95.2135C270.592 94.9032 270.855 94.6519 271.032 94.3385C271.119 94.1635 271.165 93.9707 271.165 93.7753C271.165 93.5798 271.119 93.3871 271.032 93.2121C270.855 92.8863 271.342 92.607 271.482 92.2812C271.548 92.0208 271.563 91.7499 271.525 91.4838C271.58 91.0333 271.752 90.6052 272.025 90.2426C272.363 89.7058 272.705 89.1752 273.052 88.6446C274.597 86.2512 276.204 83.9002 277.871 81.5916C278.684 80.4808 279.504 79.3802 280.332 78.2901C280.999 77.412 281.684 76.5183 282.02 75.4664C282.079 75.2836 282.125 75.097 282.159 74.9079C282.344 73.8981 282.198 72.8556 281.743 71.9353C281.346 71.1409 280.741 70.48 280.211 69.7632C279.621 68.9689 279.115 68.1001 278.439 67.3802C277.762 66.6603 276.85 66.0831 275.86 66.0831C275.286 66.0831 274.619 66.2445 274.219 65.8349C274.073 65.686 273.995 65.4874 273.846 65.3477C273.424 64.9475 272.736 65.2205 272.23 65.506L262.527 70.9889L260.954 71.8825C260.668 72.0532 260.377 72.2207 260.091 72.3945C258.735 73.1818 257.436 74.0631 256.203 75.032C254.403 76.4718 252.414 77.7998 250.848 79.4878C250.702 79.643 250.556 79.7981 250.416 79.9688C250.133 77.9953 249.85 76.0187 249.569 74.0391C249.465 73.4702 249.428 72.8913 249.457 72.3138C249.533 71.7455 249.672 71.1876 249.873 70.6507C249.935 70.4614 250.004 70.2659 250.066 70.0735L251.111 66.9364C251.623 65.4005 252.169 63.8025 253.327 62.6699C253.607 62.4305 253.865 62.1656 254.096 61.8787V61.8632C254.205 61.7194 254.279 61.5523 254.311 61.3751C254.344 61.1979 254.335 61.0155 254.286 60.8423L246.112 63.3929C245.728 63.5139 245.34 63.6349 244.971 63.7932C244.525 63.9876 244.107 64.2412 243.729 64.5472C243.114 65.0365 242.636 65.6771 242.341 66.4063C242.047 67.1356 241.947 67.9287 242.051 68.7082C242.131 69.2171 242.311 69.7074 242.417 70.21C242.603 71.1223 242.898 72.1773 242.501 73.0213C242.103 73.8653 241.747 74.6193 241.374 75.4168C241.066 76.0248 240.811 76.658 240.611 77.3096C240.39 78.1998 240.301 79.1178 240.347 80.0339C240.395 82.0795 240.749 84.1064 241.396 86.0474C241.591 86.6866 241.833 87.3134 242.026 87.9526Z" fill="#454B69"/>
<path d="M258.707 92.5482L239.326 90.7237L235.941 90.342L239.053 91.4436L258.707 92.5482Z" fill="#3F3D56"/>
<path d="M259.142 93.4852V92.0269L238.597 91.0122L237.598 91.8717L259.142 93.4852Z" fill="#3F3D56"/>
<path d="M259.076 90.7051C258.645 90.5903 258.183 90.612 257.745 90.5096C257.181 90.3731 256.672 90.0256 256.095 89.9542C255.738 89.9288 255.379 89.955 255.03 90.0318L252.371 90.4972C252.166 90.5314 251.924 90.5965 251.853 90.792C251.834 90.881 251.839 90.9734 251.868 91.0596C251.897 91.1458 251.949 91.2227 252.017 91.2823C252.492 91.788 253.258 91.8594 253.947 91.9029L255.809 92.0146C256.17 92.0056 256.527 92.0867 256.849 92.2504C257.01 92.3371 257.134 92.4791 257.198 92.6502C257.263 92.8213 257.263 93.0099 257.199 93.1813C257.099 93.348 256.951 93.4809 256.774 93.5629C256.035 93.9697 255.185 94.1306 254.348 94.0222C253.673 93.8935 253.012 93.7045 252.371 93.4574C250.738 92.9354 249.016 92.7537 247.31 92.9237C246.87 92.9672 246.351 93.0944 246.193 93.5102C246.151 93.6563 246.146 93.8105 246.177 93.9592C246.208 94.1079 246.276 94.2468 246.373 94.3635C247.034 95.2944 248.353 95.3192 249.476 95.5674C250.529 95.8085 251.502 96.3136 252.306 97.0351C252.061 97.5409 252.266 98.1397 252.511 98.6455C252.791 99.2241 253.125 99.7757 253.507 100.293C253.712 100.614 254 100.874 254.341 101.044C254.567 101.123 254.804 101.164 255.043 101.165C257.345 101.307 259.655 101.181 261.928 100.79C262.173 100.773 262.405 100.676 262.589 100.513C262.706 100.355 262.78 100.169 262.803 99.9736C263.039 98.8151 263.246 97.6505 263.424 96.4797C263.535 95.7412 263.582 94.9654 263.219 94.2859C262.937 93.7522 262.49 93.5784 262.034 93.2185C261.016 92.4179 260.383 91.0526 259.076 90.7051Z" fill="#FBBEBE"/>
<path d="M234.045 66.6077L238.858 90.4755C238.894 90.6548 238.887 90.84 238.838 91.0162C238.79 91.1924 238.7 91.3548 238.577 91.4903C238.455 91.6257 238.302 91.7305 238.131 91.7962C237.961 91.862 237.777 91.8868 237.595 91.8687L219.455 90.0783C219.206 90.0544 218.972 89.951 218.786 89.7833C218.6 89.6157 218.474 89.3927 218.425 89.1474L213.978 67.0669C213.944 66.8974 213.949 66.7224 213.99 66.5546C214.032 66.3868 214.111 66.2304 214.22 66.0965C214.33 65.9627 214.467 65.8548 214.624 65.7806C214.78 65.7064 214.951 65.6678 215.123 65.6675H232.9C233.17 65.6685 233.431 65.7626 233.64 65.9339C233.848 66.1052 233.992 66.3431 234.045 66.6077V66.6077Z" fill="#3F3D56"/>
<path d="M225.019 95.0058C223.877 94.2735 223.535 92.8058 223.005 91.5584C222.583 90.6398 222.097 89.7522 221.55 88.9023C221.087 88.139 220.619 87.2112 220.991 86.3982C221.282 85.8797 221.759 85.4913 222.325 85.3122C222.839 85.0698 223.416 84.9991 223.973 85.1105C224.594 85.2812 225.056 85.7963 225.478 86.2865L226.974 88.0211C227.656 88.8154 228.357 89.6222 229.257 90.159C229.803 90.464 230.381 90.7085 230.979 90.8882C232.053 91.244 233.139 91.5543 234.237 91.819C234.869 91.9403 235.485 92.1307 236.074 92.3869C236.193 92.4303 236.303 92.4971 236.395 92.5835C236.488 92.6698 236.563 92.7739 236.614 92.8896C236.64 93.0323 236.636 93.1787 236.603 93.32C236.571 93.4612 236.51 93.5945 236.425 93.7118C236.046 94.4193 235.615 95.856 234.821 96.1073C234.075 96.2935 233.314 96.413 232.546 96.4641C231.789 96.5448 231.194 96.2345 230.511 95.9491C229.653 95.6215 228.738 95.4747 227.821 95.5178C227.014 95.5146 225.642 95.6295 225.019 95.0058Z" fill="#FBBEBE"/>
<path d="M234.951 91.7693C234.951 91.7693 234.281 96.3616 229.987 95.8683C229.987 95.8683 232.261 96.7774 232.022 97.2832C231.783 97.789 237.297 96.2965 237.297 96.2965L237.583 93.901C237.583 93.901 237.766 92.5823 237.583 92.545C237.399 92.5078 234.951 91.7693 234.951 91.7693Z" fill="#454B69"/>
<path opacity="0.1" d="M234.951 91.7693C234.951 91.7693 234.281 96.3616 229.987 95.8683C229.987 95.8683 232.261 96.7774 232.022 97.2832C231.783 97.789 237.297 96.2965 237.297 96.2965L237.583 93.901C237.583 93.901 237.766 92.5823 237.583 92.545C237.399 92.5078 234.951 91.7693 234.951 91.7693Z" fill="black"/>
<path opacity="0.1" d="M254.72 72.6025C254.299 72.816 253.952 73.1526 253.727 73.5675C253.369 74.1387 253.097 74.7598 252.92 75.4107C252.709 76.2019 252.61 77.0863 252.027 77.6572" fill="black"/>
<path opacity="0.1" d="M272.708 85.3028C272.394 86.4188 272.524 87.613 273.071 88.6353C274.616 86.2419 276.222 83.8909 277.89 81.5823C278.69 80.4777 279.504 79.3803 280.332 78.2901C280.999 77.412 281.684 76.5184 282.02 75.4665C282.078 75.2836 282.125 75.097 282.159 74.9079C281.745 74.3016 281.129 73.8619 280.422 73.6667C279.295 76.931 276.44 79.2707 274.402 82.0602C273.633 83.0216 273.058 84.1227 272.708 85.3028V85.3028Z" fill="black"/>
<path opacity="0.1" d="M258.341 102.003L265.09 102.232C265.667 102.251 266.378 102.366 266.558 102.912C266.613 103.086 266.601 103.275 266.657 103.446C266.846 104.066 267.669 104.135 268.311 104.131C268.869 104.131 269.428 104.153 269.983 104.197C269.986 104.046 269.952 103.897 269.884 103.762C269.769 103.545 269.555 103.396 269.437 103.179C269.316 102.897 269.28 102.587 269.332 102.285C269.474 100.347 269.708 98.4179 270.033 96.4982C270.064 96.3245 270.095 96.1476 270.135 95.9738C269.568 95.6853 268.993 95.4122 268.376 95.4774C267.821 95.5363 267.312 95.8652 266.756 95.8342C265.791 95.7877 265.127 94.7109 264.165 94.6489C263.956 94.6652 263.745 94.6399 263.545 94.5744C263.234 94.4193 263.191 94.0159 263.036 93.7149C262.803 93.2712 262.151 93.1626 261.664 93.2774C261.677 94.2976 261.611 95.3173 261.469 96.3276C261.421 96.7713 261.316 97.2071 261.159 97.6246C260.975 98.0471 260.745 98.4478 260.473 98.8192C259.759 99.8897 259.064 100.935 258.341 102.003Z" fill="black"/>
<path d="M280.775 73.2883C281.976 73.5986 282.826 74.7157 283.177 75.9041C283.528 77.0925 283.466 78.3554 283.435 79.5904C283.314 84.1821 283.626 88.775 284.365 93.3085C284.719 95.4805 285.172 97.6526 285.039 99.8588C284.964 101.05 284.694 102.279 283.928 103.194C282.724 104.64 280.626 104.935 278.746 104.864C275.37 104.73 272.056 103.744 268.677 103.762C268.035 103.762 267.216 103.691 267.023 103.08C266.967 102.906 266.98 102.72 266.924 102.546C266.747 102 266.036 101.885 265.459 101.863L258.707 101.637C259.43 100.569 260.125 99.5205 260.848 98.4531C261.12 98.0807 261.351 97.6802 261.537 97.2585C261.694 96.8395 261.798 96.4029 261.847 95.9584C261.991 94.9492 262.055 93.9304 262.04 92.9113C262.527 92.7965 263.179 92.9113 263.411 93.3488C263.57 93.6591 263.619 94.0532 263.923 94.2083C264.123 94.2746 264.334 94.2989 264.544 94.2797C265.506 94.3417 266.173 95.4216 267.135 95.4681C267.69 95.4991 268.202 95.1578 268.755 95.1113C269.63 95.0213 270.412 95.5984 271.215 95.9522C271.872 96.2391 272.582 96.3873 273.299 96.3873C274.016 96.3873 274.725 96.2391 275.382 95.9522C275.581 95.8653 275.798 95.6202 275.637 95.4743C275.528 95.3781 275.348 95.4526 275.218 95.3874C274.97 95.2664 275.15 94.9003 275.289 94.6613C275.68 93.9725 275.404 93.1099 275.026 92.4024C274.647 91.6949 274.163 91.0092 274.154 90.2304C274.175 89.9774 274.175 89.7231 274.154 89.4701C274.033 89.1081 273.841 88.7737 273.589 88.4865C272.897 87.475 272.798 86.1376 273.099 84.9461C273.435 83.7628 273.994 82.6548 274.746 81.6818C276.794 78.8953 279.649 76.5557 280.775 73.2883Z" fill="#454B69"/>
<path opacity="0.1" d="M262.515 70.9983L260.941 71.8919C261.424 72.1148 261.918 72.3116 262.422 72.4815C265.965 73.673 264.702 75.3237 268.441 75.2741C270.989 75.2462 273.896 75.0507 275.677 76.869C276.521 77.7254 276.943 78.8983 277.343 80.0309C277.527 80.5429 277.71 81.0611 277.89 81.5824C278.69 80.4777 279.504 79.3803 280.332 78.2902C280.999 77.412 281.684 76.5184 282.02 75.4665C282.384 74.2976 282.285 73.0334 281.743 71.9354C281.346 71.141 280.741 70.4801 280.211 69.7633C279.621 68.969 279.115 68.1001 278.439 67.3803C277.762 66.6604 276.85 66.0832 275.86 66.0832C275.286 66.0832 274.619 66.2446 274.219 65.835C274.073 65.6861 273.995 65.4875 273.846 65.3478C273.424 64.9476 272.736 65.2206 272.23 65.5061L262.515 70.9983Z" fill="black"/>
<path d="M253.134 41.542C253.185 41.0798 253.299 40.6267 253.473 40.1953C253.634 39.8638 253.843 39.5576 254.093 39.2861C254.911 38.363 255.913 37.6225 257.036 37.1129C258.159 36.6034 259.376 36.3363 260.609 36.329C260.821 36.3177 261.033 36.3516 261.23 36.4283C261.279 36.4514 261.326 36.4795 261.37 36.5121C263.144 35.3175 265.208 34.1384 267.132 33.6729C268.469 33.3607 269.862 33.3799 271.19 33.7288C272.804 34.2128 273.362 35.5006 274.054 36.9062C275.161 39.1659 276.841 41.0959 278.926 42.5039C280.27 43.4068 281.858 44.1888 282.504 45.672C283.106 47.0559 282.696 48.6415 282.556 50.1464C282.388 52.1777 282.725 54.219 283.537 56.0884C284.35 57.9579 285.612 59.5974 287.211 60.8609C289.045 62.2789 291.493 63.4704 291.884 65.7542C292.163 67.3832 291.248 68.9409 290.556 70.4396C289.097 73.6108 288.598 77.4771 290.311 80.5148C290.798 81.3806 291.456 82.1687 291.716 83.1244C292.172 84.8217 291.201 86.6711 289.746 87.6578C288.291 88.6445 286.463 88.899 284.707 88.899C283.428 88.899 282.044 88.7066 281.138 87.8098C280.518 87.2079 280.226 86.3701 279.941 85.5664C279.198 83.473 278.457 81.3795 277.719 79.2861C277.316 78.1566 276.894 76.9837 276.053 76.1273C274.272 74.309 271.361 74.5014 268.817 74.5324C265.075 74.5789 266.334 72.9282 262.797 71.7397C260.715 71.0385 258.453 69.8438 257.969 67.7059C257.494 65.6145 258.925 63.6225 260.184 61.8879C261.128 60.595 262.02 59.2659 262.862 57.9006C263.678 56.5726 264.463 55.1763 264.69 53.6341C265.065 51.0711 258.85 49.6406 257.919 47.2234C257.653 46.5409 257.429 45.8424 257.249 45.1321C256.802 45.101 256.386 45.0576 256.098 45.0452C254.909 44.9924 253.569 44.527 253.162 43.4068C252.942 42.8142 253.026 42.1626 253.134 41.542Z" fill="#3F3D56"/>
<g opacity="0.1">
<path opacity="0.1" d="M263.597 35.5783C263.4 35.5015 263.188 35.4677 262.977 35.479H262.89C264.21 34.6485 265.644 34.014 267.147 33.5955C267.262 33.5676 267.386 33.5459 267.507 33.5242C266.19 34.1305 264.929 34.8511 263.737 35.6776C263.693 35.6407 263.647 35.6075 263.597 35.5783V35.5783Z" fill="black"/>
<path opacity="0.1" d="M253.134 41.4677C253.186 41.0066 253.299 40.5546 253.473 40.1241C253.634 39.7917 253.843 39.4844 254.093 39.2119C255.41 37.7271 257.19 36.7318 259.145 36.3882C258.121 36.8853 257.206 37.5815 256.454 38.4361C256.205 38.7087 255.996 39.0159 255.834 39.3484C255.661 39.7788 255.547 40.2308 255.496 40.692C255.347 41.3046 255.355 41.9447 255.517 42.5537C255.924 43.6708 257.264 44.1393 258.453 44.189C258.741 44.189 259.157 44.2448 259.604 44.2789C259.784 44.9881 260.008 45.6856 260.274 46.3672C261.205 48.7844 267.411 50.2149 267.045 52.7779C266.818 54.3294 266.033 55.7195 265.217 57.0444C264.401 58.3694 263.483 59.7378 262.539 61.0317C261.28 62.7662 259.849 64.7552 260.324 66.8528C260.799 68.9504 263.07 70.1885 265.152 70.8866C268.696 72.0812 267.43 73.732 271.172 73.6793C273.716 73.6482 276.627 73.4558 278.408 75.2742C279.249 76.1337 279.671 77.3035 280.074 78.4361C280.813 80.5274 281.553 82.6198 282.296 84.7133C282.581 85.5201 282.885 86.3548 283.494 86.9567C284.4 87.8535 285.783 88.0396 287.062 88.0458C287.789 88.0531 288.516 87.9981 289.234 87.8814C287.875 88.6168 286.261 88.8123 284.704 88.8123C283.425 88.8123 282.041 88.6199 281.135 87.7231C280.515 87.1212 280.223 86.2865 279.938 85.4797C279.195 83.3863 278.454 81.2939 277.716 79.2025C277.312 78.0699 276.89 76.9001 276.05 76.0406C274.268 74.2223 271.358 74.4147 268.814 74.4457C265.071 74.4922 266.331 72.8415 262.794 71.653C260.712 70.9518 258.45 69.7571 257.966 67.6192C257.491 65.5278 258.921 63.5327 260.181 61.7981C261.124 60.5052 262.017 59.1761 262.859 57.8108C263.675 56.4859 264.46 55.0865 264.687 53.5443C265.062 50.9813 258.847 49.5508 257.916 47.1336C257.65 46.452 257.426 45.7546 257.246 45.0454C256.799 45.0112 256.383 44.9678 256.095 44.9554C254.906 44.9057 253.566 44.4372 253.159 43.3201C252.997 42.7144 252.988 42.0776 253.134 41.4677V41.4677Z" fill="black"/>
</g>
</g>
<defs>
<linearGradient id="paint0_linear" x1="132.142" y1="226.986" x2="132.142" y2="17.3548" gradientUnits="userSpaceOnUse">
<stop stop-color="#808080" stop-opacity="0.25"/>
<stop offset="0.54" stop-color="#808080" stop-opacity="0.12"/>
<stop offset="1" stop-color="#808080" stop-opacity="0.1"/>
</linearGradient>
<linearGradient id="paint1_linear" x1="-68753.9" y1="157841" x2="-68753.9" y2="36437.8" gradientUnits="userSpaceOnUse">
<stop stop-color="#808080" stop-opacity="0.25"/>
<stop offset="0.54" stop-color="#808080" stop-opacity="0.12"/>
<stop offset="1" stop-color="#808080" stop-opacity="0.1"/>
</linearGradient>
<clipPath id="clip0">
<rect width="334" height="227.591" fill="white"/>
</clipPath>
</defs>
</svg>
