<svg width="349" height="260" viewBox="0 0 349 260" fill="none" xmlns="http://www.w3.org/2000/svg">
<path d="M327.688 18.2821H26.0042V211.858H327.688V18.2821Z" fill="#3F3D56"/>
<path d="M319.11 53.2333H183.28V211.678H319.11V53.2333Z" fill="#F2F2F2"/>
<path d="M13.8299 201.025C17.9583 208.704 26.7204 212 26.7204 212C26.7204 212 28.789 202.847 24.6605 195.168C20.532 187.49 11.7699 184.194 11.7699 184.194C11.7699 184.194 9.70139 193.347 13.8299 201.025Z" fill="#3F3D56"/>
<path d="M16.6676 198.499C24.1212 202.996 26.9919 211.929 26.9919 211.929C26.9919 211.929 17.7778 213.57 10.3242 209.073C2.87063 204.576 0 195.643 0 195.643C0 195.643 9.21405 194.002 16.6676 198.499Z" fill="#6C63FF"/>
<path d="M311.603 67.9762H229.223V71.3075H311.603V67.9762Z" fill="white"/>
<path d="M311.603 75.3052H229.223V78.6365H311.603V75.3052Z" fill="white"/>
<path d="M257.126 82.6342H229.223V85.9655H257.126V82.6342Z" fill="white"/>
<path d="M142.437 167.99H60.0562V171.322H142.437V167.99Z" fill="white"/>
<path d="M142.437 175.319H60.0562V178.65H142.437V175.319Z" fill="white"/>
<path d="M87.9593 182.648H60.0562V185.979H87.9593V182.648Z" fill="white"/>
<path d="M292.301 108.842H209.92V112.173H292.301V108.842Z" fill="white"/>
<path d="M292.301 116.171H209.92V119.502H292.301V116.171Z" fill="white"/>
<path d="M292.301 123.341H209.92V126.672H292.301V123.341Z" fill="white"/>
<path d="M292.301 130.51H209.92V133.841H292.301V130.51Z" fill="white"/>
<path d="M292.301 137.679H209.92V141.011H292.301V137.679Z" fill="white"/>
<path d="M292.301 144.849H209.92V148.18H292.301V144.849Z" fill="white"/>
<path d="M292.301 152.018H209.92V155.35H292.301V152.018Z" fill="white"/>
<path d="M292.301 159.188H209.92V162.519H292.301V159.188Z" fill="white"/>
<path d="M292.301 166.357H209.92V169.689H292.301V166.357Z" fill="white"/>
<path d="M292.301 173.527H209.92V176.858H292.301V173.527Z" fill="white"/>
<path d="M292.301 180.696H209.92V184.028H292.301V180.696Z" fill="white"/>
<path d="M131.265 115.02C131.27 119.508 130.272 123.94 128.343 127.99C126.415 132.041 123.606 135.606 120.123 138.424C118.835 139.474 117.461 140.413 116.016 141.231C115.144 141.728 114.247 142.179 113.328 142.583C110.283 143.93 107.034 144.756 103.717 145.024C102.902 145.092 102.078 145.125 101.247 145.124C99.6012 145.126 97.9584 144.99 96.3353 144.719C95.7634 144.629 95.1987 144.518 94.641 144.389C93.6663 144.172 92.7035 143.904 91.7564 143.586C87.8624 142.284 84.2769 140.193 81.2225 137.442C80.4357 136.743 79.6897 135.998 78.9885 135.212C75.7201 131.588 73.3806 127.221 72.172 122.487C70.9634 117.754 70.922 112.796 72.0515 108.043C73.1809 103.289 75.4473 98.8831 78.6547 95.2048C81.8622 91.5265 85.9143 88.6865 90.4611 86.9302C95.0079 85.1739 99.9127 84.5541 104.752 85.1243C109.591 85.6945 114.219 87.4375 118.236 90.2029C122.253 92.9683 125.539 96.6728 127.809 100.997C130.079 105.32 131.265 110.133 131.265 115.02V115.02Z" fill="#6C63FF"/>
<path d="M220.569 81.437C220.612 91.0724 214.915 94.4617 207.87 94.4931C207.706 94.4938 207.543 94.4927 207.381 94.4898C207.055 94.4841 206.732 94.4707 206.412 94.4493C200.051 94.0261 195.095 90.5115 195.056 81.5506C195.014 72.2771 206.781 60.5216 207.663 59.6524L207.665 59.6516C207.698 59.6184 207.716 59.6019 207.716 59.6019C207.716 59.6019 220.527 71.8024 220.569 81.437Z" fill="#6C63FF"/>
<path d="M207.399 93.0213L212.036 86.4628L207.39 93.739L207.381 94.4898C207.055 94.4842 206.731 94.4707 206.412 94.4493L206.872 84.8077L206.867 84.7332L206.876 84.719L206.92 83.8079L202.198 76.5553L206.931 83.1255L206.943 83.3186L207.291 76.034L203.243 68.5358L207.334 74.7539L207.663 59.6524L207.664 59.6021L207.665 59.6516L207.652 71.5597L211.626 66.8212L207.639 72.5853L207.562 79.107L211.267 72.8322L207.551 80.0658L207.509 83.6922L212.887 74.9569L207.493 84.9573L207.399 93.0213Z" fill="#3F3D56"/>
<path d="M327.51 103.061C314.238 103.061 301.509 108.348 292.125 117.76C282.74 127.172 277.467 139.937 277.467 153.247V153.247C277.467 157.145 275.923 160.884 273.175 163.64C270.427 166.396 266.699 167.945 262.812 167.945H238.506C232.779 167.945 227.108 169.076 221.818 171.274C216.527 173.472 211.719 176.693 207.67 180.754C203.621 184.815 200.408 189.636 198.217 194.942C196.025 200.248 194.897 205.935 194.897 211.678V211.678H327.51V103.061H327.51Z" fill="#3F3D56"/>
<path d="M179.885 18.2821H173.451V211.858H179.885V18.2821Z" fill="#2F2E41"/>
<path d="M114.293 15.4143V10.3957C114.292 7.63965 113.199 4.99707 111.255 3.04885C109.311 1.10063 106.675 0.00622559 103.927 0.00622559C101.179 0.00622559 98.5435 1.10063 96.5997 3.04885C94.6559 4.99707 93.563 7.63965 93.5614 10.3957V15.4143H73.9019V26.527H133.953V15.4143H114.293ZM103.927 2.86775C105.129 2.86775 106.304 3.22516 107.303 3.89478C108.303 4.56441 109.081 5.51616 109.541 6.62971C110.001 7.74325 110.122 8.96856 109.887 10.1507C109.653 11.3328 109.074 12.4187 108.224 13.2709C107.374 14.1232 106.292 14.7036 105.113 14.9387C103.934 15.1739 102.712 15.0532 101.602 14.592C100.492 14.1307 99.5425 13.3496 98.8748 12.3475C98.2071 11.3453 97.8507 10.1671 97.8507 8.9618C97.8507 8.16151 98.0079 7.36907 98.3133 6.62971C98.6186 5.89034 99.0662 5.21854 99.6305 4.65266C100.195 4.08677 100.865 3.63789 101.602 3.33163C102.339 3.02538 103.129 2.86775 103.927 2.86775V2.86775Z" fill="#6C63FF"/>
<path d="M106.577 113.033C106.577 113.033 103.591 121.555 105.428 122.867C107.266 124.178 99.2273 134.885 99.2273 134.885L89.5811 132.263L94.8635 123.304C94.8635 123.304 95.5525 114.344 95.5525 113.033C95.5525 111.722 106.577 113.033 106.577 113.033Z" fill="#FFB8B8"/>
<path opacity="0.1" d="M106.577 113.033C106.577 113.033 103.591 121.555 105.428 122.867C107.266 124.178 99.2273 134.885 99.2273 134.885L89.5811 132.263L94.8635 123.304C94.8635 123.304 95.5525 114.344 95.5525 113.033C95.5525 111.722 106.577 113.033 106.577 113.033Z" fill="black"/>
<path d="M100.476 119.37C104.808 119.37 108.32 115.848 108.32 111.504C108.32 107.159 104.808 103.637 100.476 103.637C96.1435 103.637 92.6316 107.159 92.6316 111.504C92.6316 115.848 96.1435 119.37 100.476 119.37Z" fill="#FFB8B8"/>
<path d="M94.6409 144.389C93.6662 144.172 92.7034 143.904 91.7563 143.586L93.2576 133.262L93.7223 130.079L96.1029 130.975C96.4246 131.094 96.7892 131.233 97.2074 131.388C97.5271 131.513 97.869 131.571 98.2121 131.559C98.5551 131.547 98.892 131.464 99.202 131.316C101.504 130.258 102.873 126.143 102.873 126.143C102.873 126.143 102.966 127.297 103.087 129.251C103.305 132.682 103.62 138.582 103.716 145.024C102.902 145.092 102.078 145.125 101.247 145.124C99.6011 145.126 97.9583 144.991 96.3352 144.719C95.7633 144.63 95.1985 144.518 94.6409 144.389Z" fill="#D0CDE1"/>
<path d="M96.7712 124.835L96.1028 130.975L95.7775 133.947L94.6408 144.389C93.6661 144.172 92.7033 143.904 91.7562 143.586C87.8622 142.284 84.2766 140.193 81.2223 137.442L79.7747 132.262C79.7824 131.953 79.8135 131.645 79.8676 131.341C79.8674 131.339 79.8676 131.337 79.8682 131.335C79.8688 131.333 79.8698 131.332 79.8712 131.33C79.9138 131.059 79.9735 130.791 80.0499 130.527C80.0518 130.524 80.053 130.52 80.0535 130.516C80.3099 129.53 80.8145 128.627 81.519 127.892C83.2633 126.143 94.8088 120.68 94.8088 120.68L95.0269 121.139L96.7712 124.835Z" fill="#D0CDE1"/>
<path d="M100.309 100.386C102.048 100.323 103.908 100.292 105.375 101.232C106.049 101.704 106.641 102.285 107.126 102.951C108.553 104.762 109.787 107.039 109.257 109.286L108.641 109.045C108.641 109.644 108.774 110.236 109.03 110.778C108.943 110.525 108.653 110.934 108.73 111.19L109.409 113.423C109.129 113.336 108.833 113.309 108.542 113.345C108.251 113.38 107.97 113.476 107.718 113.627C107.466 113.777 107.248 113.979 107.079 114.22C106.91 114.46 106.793 114.734 106.736 115.022C106.658 112.429 106.39 109.455 104.292 107.937C103.234 107.171 101.896 106.937 100.607 106.729C99.4191 106.538 98.1733 106.355 97.0351 106.748C95.8968 107.14 94.9275 108.307 95.1856 109.486C94.9142 109.425 94.6301 109.459 94.3806 109.582C94.1311 109.706 93.9312 109.911 93.8144 110.164C93.5945 110.678 93.4983 111.236 93.5336 111.794C92.9741 112.19 92.3375 111.403 92.1095 110.755C91.5743 109.234 91.0986 107.615 91.3869 106.029C91.6752 104.442 92.9643 102.926 94.5724 102.921C94.3772 102.706 94.273 102.423 94.282 102.132L95.6074 102.02C95.2709 101.972 94.9614 101.809 94.732 101.557C95.2641 102.144 99.4481 100.417 100.309 100.386Z" fill="#2F2E41"/>
<path d="M118.561 130.516C118.357 132.155 117.192 136.783 116.016 141.231C115.144 141.728 114.247 142.179 113.328 142.583C110.283 143.93 107.034 144.756 103.716 145.024C102.901 145.092 102.078 145.125 101.247 145.124C99.601 145.126 97.9583 144.991 96.3352 144.719C96.9429 142.368 97.7614 138.492 98.5263 134.696C98.7587 133.549 98.9874 132.406 99.2019 131.316C100.042 127.021 100.692 123.523 100.692 123.523C100.692 123.523 103.302 120.956 104.85 120.361C105.059 120.267 105.289 120.229 105.518 120.25C106.794 120.461 108.538 123.523 108.538 123.523C108.538 123.523 116.366 126.14 118.197 129.111C118.475 129.524 118.604 130.02 118.561 130.516V130.516Z" fill="#D0CDE1"/>
<path d="M85.4404 130.516L84.9829 140.324C83.655 139.465 82.3976 138.502 81.2226 137.442C80.4357 136.743 79.6898 135.998 78.9885 135.212C79.3639 133.56 79.6784 132.169 79.8678 131.341C79.8676 131.339 79.8678 131.337 79.8684 131.335C79.869 131.333 79.8701 131.332 79.8714 131.33C79.9715 130.871 80.0358 130.588 80.0501 130.527C80.0521 130.524 80.0533 130.52 80.0537 130.516H85.4404Z" fill="#D0CDE1"/>
<path d="M120.123 138.424C118.835 139.474 117.461 140.413 116.016 141.231C115.144 141.728 114.247 142.179 113.328 142.583L112.459 137.507L113.332 127.892L118.196 129.111L118.561 129.204L120.123 138.424Z" fill="#D0CDE1"/>
<path d="M326.368 155.284C326.368 155.284 322.974 171.929 328.632 170.415C334.29 168.902 332.026 154.528 332.026 154.528L326.368 155.284Z" fill="#A0616A"/>
<path d="M342.211 86.4374H338.439C338.439 86.4374 334.289 89.4636 334.667 92.8681C335.044 96.2726 327.877 125.778 327.877 129.561C327.877 133.344 326.368 134.479 326.368 136.749C326.368 139.018 327.123 140.531 326.368 141.666C325.614 142.801 324.105 149.61 324.482 152.258C324.702 154.016 324.702 155.795 324.482 157.554H333.912C333.912 157.554 340.702 134.479 342.211 133.344C343.719 132.209 344.474 130.318 344.474 129.183C344.474 128.048 343.719 128.048 345.605 126.535C347.491 125.022 346.36 118.213 346.36 118.213L349 111.404L342.211 86.4374Z" fill="#D0CDE1"/>
<path opacity="0.1" d="M342.211 86.4374H338.439C338.439 86.4374 334.289 89.4636 334.667 92.8681C335.044 96.2726 327.877 125.778 327.877 129.561C327.877 133.344 326.368 134.479 326.368 136.749C326.368 139.018 327.123 140.531 326.368 141.666C325.614 142.801 324.105 149.61 324.482 152.258C324.702 154.016 324.702 155.795 324.482 157.554H333.912C333.912 157.554 340.702 134.479 342.211 133.344C343.719 132.209 344.474 130.318 344.474 129.183C344.474 128.048 343.719 128.048 345.605 126.535C347.491 125.022 346.36 118.213 346.36 118.213L349 111.404L342.211 86.4374Z" fill="black"/>
<path d="M289.403 146.016C289.403 146.016 286.008 162.661 291.666 161.148C297.324 159.634 295.061 145.26 295.061 145.26L289.403 146.016Z" fill="#A0616A"/>
<path d="M290.535 223.564L288.271 233.021L296.57 238.316L298.833 226.968L290.535 223.564Z" fill="#A0616A"/>
<path d="M329.763 235.29L325.614 240.964L330.517 246.639H337.307V235.29H329.763Z" fill="#A0616A"/>
<path d="M338.439 241.721H336.176C335.056 241.493 333.901 241.493 332.781 241.721C330.518 242.099 327.447 238.458 327.447 238.458L324.483 240.965C324.483 240.965 318.447 242.478 321.465 249.665L328.255 253.826C328.255 253.826 331.649 261.013 338.439 259.878C345.228 258.744 340.325 251.178 340.325 251.178L338.439 241.721Z" fill="#2F2E41"/>
<path d="M290.535 228.481L289.961 225.961L284.877 227.346C284.877 227.346 274.315 220.537 274.315 229.616C274.315 238.695 282.614 241.721 282.614 241.721C282.614 241.721 285.631 241.343 285.631 243.991C285.631 246.639 293.552 250.8 296.57 249.287C299.588 247.774 299.588 243.991 299.588 243.991L298.833 233.399L295.438 234.155C295.438 234.155 289.026 233.777 290.158 232.264C291.289 230.751 290.535 228.481 290.535 228.481Z" fill="#2F2E41"/>
<path d="M301.473 141.477C301.473 141.477 296.947 147.53 296.947 150.934C296.947 154.339 295.438 184.601 295.438 184.601C295.438 184.601 287.14 223.185 289.403 225.455C291.666 227.725 298.456 231.129 299.587 229.994C300.719 228.86 308.64 187.627 308.64 187.627L318.07 162.282L326.745 198.597C326.745 198.597 326.368 229.994 327.877 230.373C329.386 230.751 330.14 231.129 329.386 232.642C328.631 234.156 327.5 237.182 327.5 237.182C327.5 237.182 336.93 239.451 338.816 237.938C340.702 236.425 341.079 199.732 338.816 186.871C336.552 174.009 339.193 144.503 339.193 144.503L301.473 141.477Z" fill="#2F2E41"/>
<path d="M315.241 68.2799C321.491 68.2799 326.557 63.1991 326.557 56.9316C326.557 50.664 321.491 45.5832 315.241 45.5832C308.992 45.5832 303.925 50.664 303.925 56.9316C303.925 63.1991 308.992 68.2799 315.241 68.2799Z" fill="#A0616A"/>
<path d="M311.846 64.1189C311.846 64.1189 313.355 72.0628 311.846 74.3325C310.338 76.6022 332.215 75.089 332.215 75.089C332.215 75.089 321.653 62.9841 322.785 60.7144C323.917 58.4447 311.846 64.1189 311.846 64.1189Z" fill="#A0616A"/>
<path d="M302.228 77.1695C302.228 77.1695 309.771 67.3343 319.201 69.2257C321.747 69.7363 324.073 70.2469 326.112 70.7203C333.298 72.3885 339.272 77.5239 341.727 84.4987C342.364 86.3073 342.682 88.0451 342.399 89.4636C341.267 95.1378 341.833 139.964 341.833 139.964C341.833 139.964 338.816 141.099 339.193 142.612C339.57 144.125 342.21 146.016 339.57 146.016C336.93 146.016 296.947 144.503 297.701 143.368C298.456 142.234 302.228 77.1695 302.228 77.1695Z" fill="#D0CDE1"/>
<path d="M306 77.1696H302.228C302.228 77.1696 298.079 80.1958 298.456 83.6003C298.833 87.0048 291.666 116.511 291.666 120.293C291.666 124.076 290.157 125.211 290.157 127.481C290.157 129.75 290.912 131.264 290.157 132.398C289.403 133.533 287.894 140.342 288.271 142.99C288.491 144.749 288.491 146.528 288.271 148.286H297.701C297.701 148.286 304.491 125.211 306 124.076C307.508 122.941 308.263 121.05 308.263 119.915C308.263 118.78 307.508 118.78 309.394 117.267C311.28 115.754 310.149 108.945 310.149 108.945L312.789 102.136L306 77.1696Z" fill="#D0CDE1"/>
<path opacity="0.1" d="M300.501 142.869L311.846 117.834L306.174 144.459L300.501 142.869Z" fill="black"/>
<path d="M311.293 39.7701L311.299 38.8337C312.079 38.7342 312.87 38.762 313.64 38.916C313.649 38.3507 313.532 37.7906 313.298 37.2762C314.075 37.3787 314.83 37.6042 315.536 37.9443L315.796 36.205L322.552 38.5795C324.978 39.4318 327.54 40.3809 329.114 42.4181C330.869 44.6892 330.996 47.8671 330.323 50.6598C329.649 53.4524 328.279 56.018 327.257 58.702C326.884 59.8479 326.403 60.9558 325.821 62.0105C323.779 65.3116 319.169 66.4897 315.557 65.0872C314.224 64.5696 312.965 63.7066 312.289 62.4432C311.943 61.6594 311.649 60.8537 311.409 60.0314C310.781 58.3635 309.864 54.8744 308.34 53.9564C307.67 53.5525 306.647 55.2867 306.068 54.7593C304.58 53.4038 304.571 51.035 305.16 49.1074C305.715 47.1758 306.409 45.287 307.236 43.4557C307.591 42.7167 311.294 39.6578 311.293 39.7701Z" fill="#2F2E41"/>
</svg>
