<svg width="378" height="200" viewBox="0 0 378 200" fill="none" xmlns="http://www.w3.org/2000/svg">
<g clip-path="url(#clip0)">
<path d="M166.475 0H15.6221V199.268H166.475V0Z" fill="#3F3D56"/>
<path d="M143.771 50.0698H37.821V57.1504H143.771V50.0698Z" fill="white"/>
<path d="M130.149 24.7821H62.0381V28.3224H130.149V24.7821Z" fill="#6C63FF"/>
<path d="M143.771 65.7483H37.821V72.8289H143.771V65.7483Z" fill="white"/>
<path d="M143.771 81.4268H37.821V88.5074H143.771V81.4268Z" fill="white"/>
<path d="M43.3706 32.8742C46.9929 32.8742 49.9294 29.9305 49.9294 26.2993C49.9294 22.6681 46.9929 19.7245 43.3706 19.7245C39.7482 19.7245 36.8118 22.6681 36.8118 26.2993C36.8118 29.9305 39.7482 32.8742 43.3706 32.8742Z" fill="#6C63FF"/>
<path d="M143.771 107.726H36.8118V172.969H143.771V107.726Z" fill="#6C63FF"/>
<path d="M42.8434 179.316C42.1817 178.651 41.2838 178.278 40.3471 178.277C39.4105 178.276 38.5118 178.648 37.8488 179.311C37.1859 179.974 36.8129 180.875 36.812 181.813C36.8111 182.752 37.1823 183.653 37.844 184.318L42.8337 189.329L47.833 184.328C48.1613 183.999 48.4218 183.609 48.5997 183.18C48.7776 182.75 48.8694 182.29 48.8699 181.825C48.8703 181.36 48.7794 180.9 48.6024 180.47C48.4253 180.04 48.1655 179.65 47.8379 179.321C47.5103 178.992 47.1212 178.731 46.6929 178.552C46.2646 178.374 45.8054 178.282 45.3416 178.281C44.8779 178.281 44.4185 178.372 43.9899 178.55C43.5612 178.727 43.1716 178.988 42.8434 179.316V179.316Z" fill="#FF6582"/>
<path d="M296.901 189.008C296.239 188.344 295.341 187.971 294.405 187.97C293.469 187.97 292.57 188.342 291.908 189.005C291.245 189.668 290.872 190.567 290.871 191.506C290.87 192.444 291.24 193.345 291.901 194.01L296.891 199.021L301.89 194.02C302.553 193.356 302.926 192.456 302.927 191.517C302.928 190.578 302.557 189.677 301.895 189.013C301.233 188.348 300.335 187.974 299.399 187.973C298.462 187.972 297.563 188.345 296.901 189.008V189.008Z" fill="#FF6582"/>
<path d="M314.453 199.629L309.161 194.313C308.444 193.593 308.03 192.624 308.005 191.607C307.98 190.59 308.346 189.602 309.026 188.847C309.707 188.093 310.65 187.628 311.662 187.551C312.674 187.473 313.677 187.788 314.464 188.43C315.253 187.789 316.256 187.476 317.268 187.556C318.28 187.635 319.223 188.101 319.902 188.858C320.581 189.614 320.944 190.603 320.917 191.62C320.89 192.637 320.474 193.605 319.756 194.323L314.453 199.629ZM311.964 188.399C311.35 188.399 310.75 188.581 310.24 188.922C309.73 189.264 309.332 189.749 309.097 190.317C308.862 190.885 308.8 191.511 308.919 192.114C309.039 192.717 309.334 193.271 309.768 193.706L314.454 198.414L319.151 193.715C319.585 193.281 319.881 192.727 320.002 192.123C320.122 191.52 320.061 190.895 319.827 190.326C319.592 189.757 319.195 189.271 318.685 188.929C318.175 188.586 317.575 188.403 316.962 188.403H316.958C316.551 188.402 316.148 188.481 315.772 188.637C315.395 188.793 315.054 189.023 314.766 189.312L314.463 189.615L314.161 189.311C313.872 189.022 313.53 188.792 313.153 188.635C312.776 188.479 312.372 188.399 311.964 188.399H311.964Z" fill="#2F2E41"/>
<path d="M378 198.928H0V199.608H378V198.928Z" fill="#2F2E41"/>
<path d="M216.284 186.095L215.767 193.009L205.25 189.552L209.56 184.367L216.284 186.095Z" fill="#9E616A"/>
<path d="M254.561 183.848L254.044 190.589L248.182 191.453L244.733 188.169L248.699 181.774L254.561 183.848Z" fill="#9E616A"/>
<path d="M258.871 97.7741C258.871 97.7741 263.527 103.305 257.664 111.774C251.802 120.243 244.733 128.54 244.733 128.54L231.629 153.428C231.629 153.428 224.905 177.799 223.353 178.49C221.801 179.182 220.939 176.416 221.801 179.354C222.664 182.293 222.146 182.12 221.457 182.293C220.767 182.465 218.87 182.12 219.56 183.33C220.25 184.54 220.767 184.54 219.388 184.54C218.008 184.54 217.491 183.675 217.491 184.885C217.491 186.095 216.284 188.861 216.284 188.861C216.284 188.861 207.836 186.441 207.491 185.404C207.146 184.367 209.732 183.848 209.215 182.811C208.698 181.774 208.525 181.774 208.525 180.219C208.525 178.663 209.56 178.317 209.56 178.317C209.56 178.317 210.422 177.972 210.077 177.28C209.732 176.589 208.353 176.935 210.077 176.07C211.801 175.206 218.87 148.762 218.87 148.762C218.87 148.762 218.87 135.626 221.112 131.305C223.353 126.984 221.629 96.2185 226.974 95.8728C232.319 95.5271 258.871 97.7741 258.871 97.7741Z" fill="#2F2E41"/>
<path d="M257.147 107.626L256.113 134.416C256.113 134.416 261.285 160.342 259.561 168.293C257.837 176.243 259.044 175.206 258.009 176.589C256.975 177.972 256.113 177.28 256.975 178.49C257.837 179.7 258.354 180.046 256.975 181.428C255.595 182.811 254.906 186.095 254.906 186.095L246.112 185.231C246.112 185.231 248.354 181.256 247.492 180.391C246.63 179.527 244.388 180.91 246.112 179.009C247.837 177.107 248.871 177.972 247.837 177.107C246.802 176.243 245.25 176.589 246.63 175.206C248.009 173.824 249.561 173.824 248.182 173.305C246.802 172.787 245.25 173.305 245.94 172.268C246.63 171.231 247.492 170.021 247.492 170.021L245.423 154.293C245.423 154.293 243.009 149.107 243.699 146.861C244.388 144.614 240.768 126.12 240.768 126.12L257.147 107.626Z" fill="#2F2E41"/>
<path d="M253.354 187.305C253.354 187.305 255.078 185.577 255.595 186.614C256.113 187.651 259.906 196.984 257.664 197.675C255.423 198.367 252.147 199.058 250.423 198.54C248.699 198.021 245.078 195.601 240.767 195.601C236.457 195.601 232.836 193.7 232.836 193.009C232.836 192.317 232.147 188.169 235.422 188.169C238.698 188.169 244.733 184.367 244.733 184.367C244.733 184.367 246.112 181.601 246.802 181.774C247.492 181.947 246.974 187.478 246.974 187.478C246.974 187.478 250.94 191.28 253.354 187.305Z" fill="#2F2E41"/>
<path d="M215.077 189.552C215.077 189.552 216.629 185.749 218.181 186.614C219.733 187.478 218.698 198.194 218.698 198.194C218.698 198.194 217.319 200.441 213.353 199.922C209.387 199.404 198.87 198.194 196.456 198.712C194.042 199.231 187.49 196.293 189.215 192.317C189.215 192.317 190.077 190.07 194.215 190.243C198.353 190.416 205.939 185.404 205.939 185.404C205.939 185.404 207.146 181.947 207.491 182.293C207.836 182.638 208.181 188.688 208.181 188.688C208.181 188.688 212.663 191.626 215.077 189.552Z" fill="#2F2E41"/>
<path d="M237.664 30.1937C243.187 30.1937 247.664 25.7055 247.664 20.169C247.664 14.6326 243.187 10.1443 237.664 10.1443C232.141 10.1443 227.664 14.6326 227.664 20.169C227.664 25.7055 232.141 30.1937 237.664 30.1937Z" fill="#9E616A"/>
<path d="M245.423 20.8604C245.423 20.8604 250.768 31.5765 252.665 32.6135C254.561 33.6505 239.733 40.0456 239.733 40.0456C239.733 40.0456 237.319 29.5024 234.388 27.2555C231.457 25.0086 245.423 20.8604 245.423 20.8604Z" fill="#9E616A"/>
<path d="M230.078 108.49L229.388 115.058C229.388 115.058 221.974 112.465 224.388 107.626L230.078 108.49Z" fill="#9E616A"/>
<path d="M227.148 98.6386C232.32 104.168 259.733 99.5011 259.733 99.5011L259.39 95.5262L262.838 91.8989L261.804 74.9595C261.804 74.9595 264.906 67.0096 265.423 54.911C265.454 54.1673 265.409 53.4224 265.289 52.6878C263.512 41.8495 245.907 34.8692 245.423 35.033C245.179 35.1132 242.588 36.4672 239.884 37.8913C236.779 39.5261 233.527 41.2545 233.527 41.2545C229.389 42.8124 230.079 67.7016 228.698 69.9482C227.318 72.1947 228.698 79.9708 228.698 79.9708L227.148 87.4025C227.148 87.4025 221.975 93.1091 227.148 98.6386Z" fill="#F0F0F0"/>
<path opacity="0.1" d="M243.858 43.7686C243.858 43.7686 248.686 58.2871 247.651 68.139C246.617 77.9908 235.41 106.164 235.41 106.164L231.616 108.238V113.077L228.948 105.833L236.285 90.4547C236.285 90.4547 227.134 37.3735 243.858 43.7686Z" fill="black"/>
<path opacity="0.1" d="M239.33 39.4124C244.332 36.6477 251.919 43.9089 259.85 51.6849C262.698 54.4764 264.346 54.1956 265.289 52.6878C263.512 41.8495 245.907 34.8692 245.423 35.033C245.18 35.1132 242.588 36.4672 239.884 37.8913L239.33 39.4124Z" fill="black"/>
<path d="M239.332 38.0762L241.401 32.3725C241.401 32.3725 255.539 25.6317 264.85 32.3725L266.401 42.0515C266.401 42.0515 267.781 58.1256 259.849 50.3478C251.918 42.57 244.332 35.3107 239.332 38.0762Z" fill="#F0F0F0"/>
<path d="M243.354 41.4284C243.354 41.4284 248.182 55.947 247.147 65.7988C246.113 75.6507 234.906 103.824 234.906 103.824L231.112 105.898V110.737L223.181 108.49L224.905 102.786C224.905 102.786 222.147 99.3297 224.043 98.2926C225.94 97.2556 225.595 91.5519 225.595 91.5519C225.595 91.5519 226.63 35.0334 243.354 41.4284Z" fill="#F0F0F0"/>
<path d="M246.579 24.3656C246.416 23.5908 246.438 22.7573 246.068 22.058C245.512 21.0095 244.235 20.5702 243.055 20.4672C241.549 20.3358 240.031 20.5973 238.522 20.4937C237.013 20.3902 235.402 19.814 234.651 18.4982C234.351 17.9733 234.204 17.3556 233.806 16.9006C232.979 15.9536 231.472 16.1005 230.284 16.5063C229.095 16.9121 227.856 17.505 226.641 17.1874C225.62 14.3224 226.877 11.0176 229.053 8.8961C231.228 6.77464 234.163 5.63307 237.077 4.78217C240.92 3.65982 245.246 2.99649 248.78 4.88208C253.904 7.61632 255.712 14.8529 255.24 20.2469C255.061 22.2857 254.769 24.5945 253.124 25.9712C250.715 27.9887 247.307 27.8154 246.579 24.3656Z" fill="#2F2E41"/>
</g>
<defs>
<clipPath id="clip0">
<rect width="378" height="200" fill="white"/>
</clipPath>
</defs>
</svg>
