<svg width="33" height="20" viewBox="0 0 33 20" fill="none" xmlns="http://www.w3.org/2000/svg">
<path fill-rule="evenodd" clip-rule="evenodd" d="M4.35284 11.8244C4.72279 11.7746 5.00812 11.4641 5.00812 11.0876C5.00812 10.6764 4.6681 10.3431 4.2487 10.3431C4.19333 10.3431 4.1395 10.3492 4.08743 10.3603C1.77018 10.7652 0 12.7617 0 15.1418C0 17.6527 1.9519 19.726 4.4474 19.9755C4.61147 19.9918 4.77691 20 4.9451 20H4.95347H25.946C25.9626 20 25.9807 20 25.9974 19.9986C29.8636 19.9727 33 16.8811 33 13.0834C33 9.68512 30.4531 6.77618 27.0484 6.25137C27.0415 6.25 27.0345 6.24863 27.0276 6.24863C26.9553 6.23775 26.883 6.22956 26.8107 6.22136C26.427 6.21045 26.0891 6.48445 26.0364 6.86478C25.9849 7.2519 26.2463 7.60904 26.63 7.68811C26.9497 7.7222 27.2611 7.78761 27.5587 7.88304C27.5823 7.88849 27.6059 7.89666 27.6282 7.90486C29.5161 8.53054 30.8743 10.2822 30.8743 12.3432C30.8743 14.9305 28.7348 17.0284 26.0961 17.0284C26.0669 17.0284 26.0377 17.0284 26.0085 17.027C25.9974 17.0284 25.9877 17.0284 25.9765 17.0284C25.857 17.0284 25.7402 17.0202 25.6262 17.0052C25.6193 17.0052 25.6137 17.0052 25.6081 17.0038C24.2999 16.828 23.2934 15.7279 23.2934 14.3975C23.2934 13.9436 23.392 13.506 23.5992 13.1338C24.254 11.8948 24.6253 10.488 24.6253 8.99673C24.6253 8.62734 24.603 8.26471 24.5585 7.9076C24.5543 7.9076 24.5502 7.90894 24.546 7.91168C24.5488 7.89258 24.5502 7.8735 24.5515 7.8544V7.85169C24.4876 7.35823 24.3833 6.87706 24.2402 6.41221C23.1085 2.7031 19.601 0 15.4497 0C10.7799 0 6.92478 3.4215 6.34785 7.84761C6.29918 8.22382 6.27421 8.60686 6.27421 8.99673C6.27421 9.50792 6.31731 10.0095 6.40207 10.4975C6.56194 11.434 6.92213 12.295 7.30158 13.1338C7.43587 13.4306 7.6074 13.9436 7.6074 14.3975C7.6074 15.8506 6.40623 17.0284 4.92429 17.0284C3.44228 17.0284 2.24107 15.8506 2.24107 14.3975C2.24107 13.1258 3.16143 12.0656 4.38467 11.8207" fill="white"/>
</svg>
