<svg xmlns="http://www.w3.org/2000/svg" xmlns:xlink="http://www.w3.org/1999/xlink" width="605.109" height="752.39" viewBox="0 0 605.109 752.39">
  <defs>
    <linearGradient id="linear-gradient" x1="0.5" y1="1" x2="0.5" gradientUnits="objectBoundingBox">
      <stop offset="0" stop-color="gray" stop-opacity="0.251"/>
      <stop offset="0.54" stop-color="gray" stop-opacity="0.122"/>
      <stop offset="1" stop-color="gray" stop-opacity="0.102"/>
    </linearGradient>
    <linearGradient id="linear-gradient-2" x1="0.5" y1="1" x2="0.5" y2="0" xlink:href="#linear-gradient"/>
    <linearGradient id="linear-gradient-3" x1="0.534" y1="0.873" x2="0.534" y2="-0.128" xlink:href="#linear-gradient"/>
    <linearGradient id="linear-gradient-4" x1="0.56" y1="1.03" x2="0.56" y2="0.03" xlink:href="#linear-gradient"/>
    <linearGradient id="linear-gradient-5" x1="0.478" y1="1.079" x2="0.478" y2="0.079" xlink:href="#linear-gradient"/>
    <linearGradient id="linear-gradient-6" x1="0.266" y1="1.244" x2="0.705" y2="-0.623" xlink:href="#linear-gradient"/>
  </defs>
  <g id="empty-done" transform="translate(-644.072 -181.588)">
    <path id="Path_541" data-name="Path 541" d="M-167.165-9.277l1.349-3.691,1.857-4.707a39.56,39.56,0,0,1,1.72-4.043,4,4,0,0,0,.547-1.484q0-.566-.921-1.23-.61-.41-.61-.723,0-.391,1.214-.84a16.152,16.152,0,0,1,2.37-.752,9.626,9.626,0,0,1,2.155-.322,3.3,3.3,0,0,1,2.488.876q.979.994,2.4,6.191.584,2.11,1.294,4.084a22.438,22.438,0,0,0,1.178,2.833,10.86,10.86,0,0,0,.72,1.211q.644-2.051,1.522-5.371a30.407,30.407,0,0,1,2.361-7.07,5.194,5.194,0,0,1,.761-1.035,5.908,5.908,0,0,1,1.727-1.133,4.762,4.762,0,0,1,1.863-.391.909.909,0,0,1,.78.293,1.878,1.878,0,0,1,.215,1.055,3.373,3.373,0,0,1-.077.84,26.44,26.44,0,0,1-.679,2.628q-.487,1.611-1.375,4.141t-2.213,6.124l-.293.723q-.156.469-.273.762a54.269,54.269,0,0,1-3.6,8.592,4.2,4.2,0,0,1-.607.761,1.735,1.735,0,0,1-1.194.605q-1.507,0-3.25-3.2a58.28,58.28,0,0,1-4.952-11.8,18.2,18.2,0,0,1-.561-2.133h-.078l-2.368,7.446a3.158,3.158,0,0,1-.157.5q-.117.3-.2.576-.078.215-.186.479t-.186.44q-.645,1.954-1.055,2.94a10.814,10.814,0,0,1-.82,1.631,6.936,6.936,0,0,1-1.035,1.309,7.887,7.887,0,0,1-2.207,1.446,5.98,5.98,0,0,1-2.4.527q-1,0-1-.8a5.186,5.186,0,0,1,.88-2.09,40.325,40.325,0,0,0,2.287-4.668Q-167.556-8.379-167.165-9.277Zm41.384-10.371q2.91,0,2.91.684,0,.781-1.309.84a6.556,6.556,0,0,0-2.949.9,8.458,8.458,0,0,0-2.432,2.188,10.886,10.886,0,0,0-1.66,3.125,11.247,11.247,0,0,0-.6,3.672,5.484,5.484,0,0,0,1,3.428,3.123,3.123,0,0,0,2.6,1.3,3.192,3.192,0,0,0,2.6-1.523,5.863,5.863,0,0,0,1.113-3.555,7.15,7.15,0,0,0-.693-3.115,6.554,6.554,0,0,0-2.021-2.451q-.566-.449-.566-.645,0-.273.8-.84a9.393,9.393,0,0,1,2.012-1.016,5.628,5.628,0,0,1,1.875-.41,3.277,3.277,0,0,1,1.67.459,4.492,4.492,0,0,1,1.4,1.309,6.451,6.451,0,0,1,.928,1.953A8.358,8.358,0,0,1-118.789-11,11.269,11.269,0,0,1-119.57-6.9a9.132,9.132,0,0,1-2.051,3.271,13.222,13.222,0,0,1-3.955,2.588,11.056,11.056,0,0,1-4.4,1.006,12.1,12.1,0,0,1-4.033-.7A8.441,8.441,0,0,1-137.187-2.6a6,6,0,0,1-1.562-4.434,10.2,10.2,0,0,1,1.113-4.531,14.784,14.784,0,0,1,3.018-4.111,15.2,15.2,0,0,1,4.2-2.91A10.929,10.929,0,0,1-125.781-19.648ZM-95.443-8.1l-.838,1.765A37.206,37.206,0,0,1-98.39-2.48a8.185,8.185,0,0,1-1.779,2.1,2.854,2.854,0,0,1-1.74.615,2.129,2.129,0,0,1-1.642-.8q-1.369-1.6-2.288-6.074a32.415,32.415,0,0,1-.724-6.23,9.34,9.34,0,0,1,.469-3.271,3.391,3.391,0,0,1,1.465-1.8,5.152,5.152,0,0,1,2.6-.576,2.016,2.016,0,0,1,1.221.293,1.793,1.793,0,0,1,.518,1.172,18.84,18.84,0,0,1,.137,2.656,55.515,55.515,0,0,0,.319,6.113q.04.156.2,1.563h.1q.137-.293.215-.469l.156-.352q.078-.176.146-.322t.186-.42q1.035-2.344,2.168-5.391a31.556,31.556,0,0,1,1.8-4.258,3.287,3.287,0,0,1,.371-.391A4.486,4.486,0,0,1-91.827-19a2.247,2.247,0,0,1,1.367.342,1.844,1.844,0,0,1,.615,1.143,16.307,16.307,0,0,1,.205,2.637,33.829,33.829,0,0,0,.342,4.092q.342,2.627.753,4.678.137.7.587,2.675h.1a20.8,20.8,0,0,0,.581-2.012,34.478,34.478,0,0,0,.562-7.148v-.879a7.819,7.819,0,0,1,.254-2.217,3.822,3.822,0,0,1,.9-1.514,5.859,5.859,0,0,1,1.582-1.123A3.694,3.694,0,0,1-82.4-18.77a1.194,1.194,0,0,1,1.143.635,4.6,4.6,0,0,1,.342,2.061,30.978,30.978,0,0,1-1.328,7.988,36.156,36.156,0,0,1-3.026,7.52,12.06,12.06,0,0,1-1.171,1.758,3.48,3.48,0,0,1-1.171.967A3.234,3.234,0,0,1-89,2.441q-2.772,0-4.548-3.554A16.479,16.479,0,0,1-94.485-3.6a26.087,26.087,0,0,1-.7-3.212A6.674,6.674,0,0,1-95.345-8.1Zm29.037-11.547q2.91,0,2.91.684,0,.781-1.309.84a6.556,6.556,0,0,0-2.949.9,8.457,8.457,0,0,0-2.432,2.188,10.886,10.886,0,0,0-1.66,3.125,11.248,11.248,0,0,0-.6,3.672,5.484,5.484,0,0,0,1,3.428,3.123,3.123,0,0,0,2.6,1.3,3.192,3.192,0,0,0,2.6-1.523,5.863,5.863,0,0,0,1.113-3.555,7.15,7.15,0,0,0-.693-3.115,6.554,6.554,0,0,0-2.021-2.451q-.566-.449-.566-.645,0-.273.8-.84a9.393,9.393,0,0,1,2.012-1.016,5.628,5.628,0,0,1,1.875-.41,3.277,3.277,0,0,1,1.67.459,4.492,4.492,0,0,1,1.4,1.309,6.451,6.451,0,0,1,.928,1.953A8.358,8.358,0,0,1-59.414-11,11.269,11.269,0,0,1-60.2-6.9a9.132,9.132,0,0,1-2.051,3.271A13.222,13.222,0,0,1-66.2-1.045a11.056,11.056,0,0,1-4.4,1.006,12.1,12.1,0,0,1-4.033-.7A8.441,8.441,0,0,1-77.812-2.6a6,6,0,0,1-1.562-4.434,10.2,10.2,0,0,1,1.113-4.531,14.784,14.784,0,0,1,3.018-4.111,15.2,15.2,0,0,1,4.2-2.91A10.929,10.929,0,0,1-66.406-19.648ZM-51.133-5.957l-.078.391a8.334,8.334,0,0,1-.078.957A11.618,11.618,0,0,1-51.5-3.047a2.906,2.906,0,0,1-.41,1.006,5.52,5.52,0,0,1-.742.85A4.275,4.275,0,0,1-55.527.117a1.913,1.913,0,0,1-1.729-.859,5.269,5.269,0,0,1-.557-2.773,25.621,25.621,0,0,1,.342-3.76,35.466,35.466,0,0,1,.83-4.014l.156-.508a2.141,2.141,0,0,1,.117-.488,25.559,25.559,0,0,1,1.328-3.936,6.5,6.5,0,0,1,1.465-2.061,2.69,2.69,0,0,1,1.719-.605q1.387,0,1.68,1.68a4.231,4.231,0,0,0,.527-.547,5.625,5.625,0,0,1,.879-.908,1.206,1.206,0,0,1,.723-.225q1.68,0,1.68,3.32a15.643,15.643,0,0,1-.391,3.516,10.727,10.727,0,0,1-.986,2.773Q-48.34-8.2-48.926-8.2q-.645,0-.645-2.441a10.848,10.848,0,0,0-.146-2.021,2.774,2.774,0,0,0-.459-1.143,14.433,14.433,0,0,0-.762,5Q-51.074-6.543-51.133-5.957ZM-26.191,3.47q-2.734,3.522-4.16,3.522a3.8,3.8,0,0,1-2.178-.811,9.386,9.386,0,0,1-2.139-2.187A12.221,12.221,0,0,1-36.25,1.016a8.87,8.87,0,0,1-.586-3.047,1.583,1.583,0,0,1,.273-1.094,4.141,4.141,0,0,1,.527-.391q3.281-2.031,3.281-3.848,0-.957-.84-.957-.9,0-2.314,1.729a19.579,19.579,0,0,0-2.568,4.229A6.283,6.283,0,0,1-39.648-.352a2.074,2.074,0,0,1-1.387.391,2.894,2.894,0,0,1-1.8-.576,3.694,3.694,0,0,1-1.182-1.641,6.588,6.588,0,0,1-.42-2.432,22.451,22.451,0,0,1,.527-4.609,34.481,34.481,0,0,1,1.475-5.02,38.894,38.894,0,0,1,2.256-4.922A31.364,31.364,0,0,1-37.441-23.4q2.813-3.555,5.488-3.555a4.646,4.646,0,0,1,2.373.605,4.072,4.072,0,0,1,1.611,1.719,5.656,5.656,0,0,1,.566,2.6,8.071,8.071,0,0,1-.9,3.623,8.587,8.587,0,0,1-2.334,2.949,4.621,4.621,0,0,1-2.881,1.143q-.684,0-.684-.488a3.138,3.138,0,0,1,.352-.918,16.857,16.857,0,0,0,1.719-7.715q0-1.113-.273-1.113-.2,0-.6.566A8.43,8.43,0,0,0-33.77-22.6a43.28,43.28,0,0,0-3.105,11.113q-.059.332-.127.879t-.166,1.25l.078.078a17.143,17.143,0,0,1,1.318-1.689,10.477,10.477,0,0,1,1.377-1.2,8.181,8.181,0,0,1,4.922-2.07,2.75,2.75,0,0,1,1.924.683A2.267,2.267,0,0,1-26.8-11.8a10.53,10.53,0,0,1-1.678,5.428,14.361,14.361,0,0,1-1.083,1.62q-.615.8-1.766,2.07a27.422,27.422,0,0,0,1.605,2.4A14.316,14.316,0,0,0-27.7,1.827,7.11,7.11,0,0,1-26.191,3.47ZM-3.457-18.848a3.6,3.6,0,0,1,2.363.859A2.764,2.764,0,0,1-.215-15.84a4.771,4.771,0,0,1-.674,2.363,6.19,6.19,0,0,1-1.7,1.953,3.44,3.44,0,0,1-2.061.762q-.605,0-.605-.43a2.366,2.366,0,0,1,.234-.684,5.725,5.725,0,0,0,.762-2.969q0-.84-.2-.84-.273,0-.781.7a6.86,6.86,0,0,0-.859,1.66,22.2,22.2,0,0,0-1.006,3.2,12.892,12.892,0,0,0-.4,2.871,4.536,4.536,0,0,0,.4,2.09,1.233,1.233,0,0,0,1.123.762A3.687,3.687,0,0,0-4.2-5.1,11.33,11.33,0,0,0-2.09-6.836q.41-.527.723-.527.469,0,.469.527A6.149,6.149,0,0,1-2.773-2.48,10.519,10.519,0,0,1-5.732-.4a7.127,7.127,0,0,1-3,.791A5.4,5.4,0,0,1-12.6-1.074a4.874,4.874,0,0,1-1.543-3.691,12.528,12.528,0,0,1,.986-4.678,19.456,19.456,0,0,1,2.7-4.658,17.162,17.162,0,0,1,3.877-3.691,5.452,5.452,0,0,1,3.047-1.055Zm17.715-.8q2.91,0,2.91.684,0,.781-1.309.84a6.556,6.556,0,0,0-2.949.9,8.457,8.457,0,0,0-2.432,2.188,10.886,10.886,0,0,0-1.66,3.125,11.248,11.248,0,0,0-.6,3.672,5.484,5.484,0,0,0,1,3.428,3.123,3.123,0,0,0,2.6,1.3,3.192,3.192,0,0,0,2.6-1.523,5.863,5.863,0,0,0,1.113-3.555,7.15,7.15,0,0,0-.693-3.115,6.554,6.554,0,0,0-2.021-2.451q-.566-.449-.566-.645,0-.273.8-.84a9.393,9.393,0,0,1,2.012-1.016,5.628,5.628,0,0,1,1.875-.41,3.277,3.277,0,0,1,1.67.459A4.492,4.492,0,0,1,20-15.3a6.451,6.451,0,0,1,.928,1.953A8.358,8.358,0,0,1,21.25-11,11.269,11.269,0,0,1,20.469-6.9a9.132,9.132,0,0,1-2.051,3.271,13.222,13.222,0,0,1-3.955,2.588,11.056,11.056,0,0,1-4.4,1.006,12.1,12.1,0,0,1-4.033-.7A8.441,8.441,0,0,1,2.852-2.6,6,6,0,0,1,1.289-7.031,10.2,10.2,0,0,1,2.4-11.562,14.784,14.784,0,0,1,5.42-15.674a15.2,15.2,0,0,1,4.2-2.91A10.929,10.929,0,0,1,14.258-19.648ZM44.219-7.07,38.887-1.6a9.739,9.739,0,0,1-1.67,1.416A2.663,2.663,0,0,1,35.82.2a2.6,2.6,0,0,1-2-.889,3.113,3.113,0,0,1-.811-2.178,7.041,7.041,0,0,1,.244-1.748,28.413,28.413,0,0,1,.967-2.822q.137-.391.264-.674t.205-.479l-.078-.078Q32.715-6.68,30.9-4.473q-1.523,1.816-2.422,2.715A9.468,9.468,0,0,1,26.855-.41a2.518,2.518,0,0,1-1.289.449,2.377,2.377,0,0,1-2.012-1,4.45,4.45,0,0,1-.742-2.715q0-2.168,1.875-7.012a40.433,40.433,0,0,1,2.6-5.762,3.772,3.772,0,0,1,3.084-2.031,2.919,2.919,0,0,1,1.747.5,1.53,1.53,0,0,1,.693,1.3A14.588,14.588,0,0,1,31.7-12.21q-.428,1.112-.876,2.518l.078.078q.722-.8,2.322-2.752a41.462,41.462,0,0,1,4.158-4.626A5.179,5.179,0,0,1,40.7-18.672a2.1,2.1,0,0,1,1.27.449,3.175,3.175,0,0,1,.967,1.2,3.587,3.587,0,0,1,.361,1.572,19.791,19.791,0,0,1-1.207,4.3q-.253.723-.389,1.133t-.253.7l.1.078.488-.488q.215-.215.478-.459l.5-.459q.526-.508,2.652-2.678a15.853,15.853,0,0,1,2.2-2.14,2.662,2.662,0,0,1,1.543-.576,2.182,2.182,0,0,1,1.846.83,3.992,3.992,0,0,1,.635,2.451,24.49,24.49,0,0,1-.312,3.145q-.273,2.422-.381,3.8t-.107,1.924q0,.41.049,1.045t.166,1.357q.117.723.313,1.6.234,1.074.313,1.68a1.885,1.885,0,0,1-1.025,1.191,3.784,3.784,0,0,1-1.885.488,4.17,4.17,0,0,1-3.008-1.445A5.807,5.807,0,0,1,45.049.693a5.39,5.39,0,0,1-.488-1.6,16.374,16.374,0,0,1-.146-2.451q0-1,.234-4.121l-.078-.078Zm17.363,2.6a2.068,2.068,0,0,0,2.07,1.6,2.752,2.752,0,0,0,2-.967,6.909,6.909,0,0,0,1.484-2.617A10.774,10.774,0,0,0,67.7-9.922a12.146,12.146,0,0,0-.225-2.5q-.225-1.055-.5-1.055-.2,0-1,1.035a22.6,22.6,0,0,0-1.6,2.4,33.642,33.642,0,0,0-2.48,4.688A8.348,8.348,0,0,0,61.582-4.473ZM63.063-12.8l.607-1.139a27.661,27.661,0,0,1,1.595-2.524,8.308,8.308,0,0,1,1.3-1.483,4.658,4.658,0,0,1,1.351-.766,3.8,3.8,0,0,1,1.409-.255,4.2,4.2,0,0,1,2.632.879,5.529,5.529,0,0,1,1.761,2.52,10.675,10.675,0,0,1,.616,3.77,13.266,13.266,0,0,1-1.377,5.889,12.73,12.73,0,0,1-3.614,4.561A7.453,7.453,0,0,1,64.724.391,4.258,4.258,0,0,1,62.409-.2,5.344,5.344,0,0,1,60.7-2.208l-.133.333-.117.43q-1.27,4.082-2.021,6.006a6.283,6.283,0,0,1-1.3,2.354,1.4,1.4,0,0,1-1,.41A1.924,1.924,0,0,1,54.395,6.23a6.23,6.23,0,0,1-.625-3.066,34.244,34.244,0,0,1,.469-5.156,59.713,59.713,0,0,1,1.3-6.133,51.254,51.254,0,0,1,1.842-5.684,15.792,15.792,0,0,1,1.46-2.734,6.942,6.942,0,0,1,1.518-1.7,2.171,2.171,0,0,1,1.129-.312,1.861,1.861,0,0,1,1.383.491,1.9,1.9,0,0,1,.487,1.4,10.2,10.2,0,0,1-.156,1.69q-.117.9-.215,2.083Zm23.3-1.812a38.421,38.421,0,0,0,1.309-4.619,18.781,18.781,0,0,0,.527-3.7q0-.352-.2-.352-.313,0-1.094,1.4a19.524,19.524,0,0,0-1.309,2.842q-1.133,3.184-1.748,5.283a30.659,30.659,0,0,0-.85,3.525,17.912,17.912,0,0,0-.234,2.91,4.518,4.518,0,0,0,.283,1.855.946.946,0,0,0,.908.586,4.278,4.278,0,0,0,2.4-.947,10.1,10.1,0,0,0,2.4-2.49q.84-1.152,1.309-1.152.605,0,.605.957a7.351,7.351,0,0,1-1.309,4.082A10.385,10.385,0,0,1,86.006-1.2,8.071,8.071,0,0,1,81.8.039a5.814,5.814,0,0,1-4.3-1.66,5.864,5.864,0,0,1-1.66-4.336,17.228,17.228,0,0,1,.938-5.127A36.355,36.355,0,0,1,79.287-17a37.05,37.05,0,0,1,3.447-5.4,17.793,17.793,0,0,1,3.711-3.711,4.131,4.131,0,0,1,2.52-.84,3.084,3.084,0,0,1,1.914.654,4.18,4.18,0,0,1,1.328,1.826,6.936,6.936,0,0,1,.469,2.6,15.671,15.671,0,0,1-1.2,6,15.307,15.307,0,0,1-3.35,5.078A10.878,10.878,0,0,1,86.172-9.18a3.223,3.223,0,0,1-1.641.586q-.684,0-.684-.527a2.869,2.869,0,0,1,.508-1.113,23.339,23.339,0,0,0,1.6-3.242q.078-.215.176-.459T86.367-14.609Zm14.512,8.535a5.845,5.845,0,0,0,1.367-1.211,9.429,9.429,0,0,0,1.6-2.91,12.122,12.122,0,0,0,.7-2.4,13.253,13.253,0,0,0,.254-2.48q0-1.074-.449-1.074-.625,0-1.914,2.754a23.9,23.9,0,0,0-1.24,3.311,10.456,10.456,0,0,0-.479,2.842A6.3,6.3,0,0,0,100.879-6.074Zm.039.625a1.356,1.356,0,0,0,1.523,1.172A7.169,7.169,0,0,0,106.25-6a4.5,4.5,0,0,1,1.836-1,2.05,2.05,0,0,1,1.094.313q.508.313.508.645a1.548,1.548,0,0,1-.566.918A20.4,20.4,0,0,1,106.738-3.1a20.639,20.639,0,0,1-2.6,1.641,14.516,14.516,0,0,1-2.5,1.035,7.747,7.747,0,0,1-2.227.381,5.426,5.426,0,0,1-3.906-1.4,4.9,4.9,0,0,1-1.465-3.721,12.467,12.467,0,0,1,.771-4.014,18.1,18.1,0,0,1,2.08-4.189,14.063,14.063,0,0,1,3.789-3.809A9.682,9.682,0,0,1,106-19a3.677,3.677,0,0,1,2.881,1.162,4.6,4.6,0,0,1,1.045,3.193,7.585,7.585,0,0,1-.83,3.3,11.862,11.862,0,0,1-2.451,3.3,12.941,12.941,0,0,1-2.607,2.07,4.621,4.621,0,0,1-2.236.742A2.028,2.028,0,0,1,100.918-5.449Zm14-13.437.078-.234a28.123,28.123,0,0,1,2.229-5.117,4.394,4.394,0,0,1,1.252-1.25,5.34,5.34,0,0,1,2.835-.957,1.784,1.784,0,0,1,1.193.352,1.266,1.266,0,0,1,.411,1.017,6.26,6.26,0,0,1-.59,1.834,26.925,26.925,0,0,0-1.494,4.315,5.144,5.144,0,0,1,.645.117,4.864,4.864,0,0,1,1.545.4.869.869,0,0,1,.372.811,3.656,3.656,0,0,1-.527,1.915,3.218,3.218,0,0,1-1.386,1.29A6.491,6.491,0,0,1,119.4-14q-.251.762-.56,2.091-.174,1.172-.386,3.244a9.369,9.369,0,0,0-.117,1.425q0,3.083,2.989,3.083h.176q.352,0,.352.117,0,.312-.664,1.055A8.711,8.711,0,0,1,119.72-1.68a7.887,7.887,0,0,1-1.877.938A5.691,5.691,0,0,1,116-.391a4.333,4.333,0,0,1-3.336-1.387,5.2,5.2,0,0,1-1.282-3.672,12.714,12.714,0,0,1,.342-2.559q.342-1.582,1.064-4.238.117-.469.254-.986t.156-.615a1.666,1.666,0,0,1-1.113-.332,1.342,1.342,0,0,1-.332-1.016,3.5,3.5,0,0,1,.947-2.324A4.015,4.015,0,0,1,114.922-18.887Zm16.8,12.813a5.845,5.845,0,0,0,1.367-1.211,9.429,9.429,0,0,0,1.6-2.91,12.121,12.121,0,0,0,.7-2.4,13.254,13.254,0,0,0,.254-2.48q0-1.074-.449-1.074-.625,0-1.914,2.754a23.9,23.9,0,0,0-1.24,3.311,10.456,10.456,0,0,0-.479,2.842A6.3,6.3,0,0,0,131.719-6.074Zm.039.625a1.356,1.356,0,0,0,1.523,1.172A7.169,7.169,0,0,0,137.09-6a4.5,4.5,0,0,1,1.836-1,2.05,2.05,0,0,1,1.094.313q.508.313.508.645a1.548,1.548,0,0,1-.566.918A20.4,20.4,0,0,1,137.578-3.1a20.64,20.64,0,0,1-2.6,1.641,14.516,14.516,0,0,1-2.5,1.035,7.747,7.747,0,0,1-2.227.381,5.426,5.426,0,0,1-3.906-1.4,4.9,4.9,0,0,1-1.465-3.721,12.467,12.467,0,0,1,.771-4.014,18.1,18.1,0,0,1,2.08-4.189,14.063,14.063,0,0,1,3.789-3.809A9.682,9.682,0,0,1,136.836-19a3.677,3.677,0,0,1,2.881,1.162,4.6,4.6,0,0,1,1.045,3.193,7.585,7.585,0,0,1-.83,3.3,11.862,11.862,0,0,1-2.451,3.3,12.941,12.941,0,0,1-2.607,2.07,4.621,4.621,0,0,1-2.236.742A2.028,2.028,0,0,1,131.758-5.449Zm22.715-3.145V-9.727a2.865,2.865,0,0,1-1.484.879.242.242,0,0,1-.273-.273,2.141,2.141,0,0,1,.117-.488,6.844,6.844,0,0,0,.41-2.266,8.772,8.772,0,0,0-.684-3.281q-.293-.879-.723-.879a.413.413,0,0,0-.352.2,8.148,8.148,0,0,0-1.23,2.1,18,18,0,0,0-.967,2.949,12.3,12.3,0,0,0-.381,2.822q0,2.324,1.406,2.324a3.686,3.686,0,0,0,1.885-.83A12.244,12.244,0,0,0,154.473-8.594Zm.605-9.277.2-.8q.605-2.676,1.094-4.326a21.96,21.96,0,0,1,1.006-2.793,5.707,5.707,0,0,1,1.025-1.65,3.951,3.951,0,0,1,2.949-.879,7.3,7.3,0,0,1,1.4.1,1.515,1.515,0,0,1,.732.352q-.937,2.91-1.3,4.365t-.791,3.994a47.662,47.662,0,0,0-.664,7.48,30.43,30.43,0,0,0,.361,4.58,44.21,44.21,0,0,0,1.182,5.283,19.972,19.972,0,0,1-1.982,1.23,12.36,12.36,0,0,1-1.8.8,4.671,4.671,0,0,1-1.494.293,1.632,1.632,0,0,1-1.6-1.113,8.486,8.486,0,0,1-.508-1.475q-.117-.557-.41-3.1a29.644,29.644,0,0,1-5.01,4.307A7.741,7.741,0,0,1,145.645.352a3.259,3.259,0,0,1-2.686-1.338,5.436,5.436,0,0,1-1.045-3.447,12.855,12.855,0,0,1,.811-4.209,20.443,20.443,0,0,1,2.236-4.482,15.247,15.247,0,0,1,1.924-2.412,14.9,14.9,0,0,1,2.236-1.826,7.425,7.425,0,0,1,3.789-1.484A4.505,4.505,0,0,1,155.078-17.871ZM166.607.039q-1.763,0-1.763-1.188a5.039,5.039,0,0,1,.2-1.13,7.455,7.455,0,0,1,.411-1.227,5.049,5.049,0,0,1,1.077-1.752,5.022,5.022,0,0,1,1.695-.9,6.2,6.2,0,0,1,1.988-.389q1.215,0,1.215,1.4a9.024,9.024,0,0,1-.764,3.233,2.168,2.168,0,0,1-.46.808,2.551,2.551,0,0,1-.872.5A7.977,7.977,0,0,1,166.607.039Z" transform="translate(960 632)" fill="#005fd5"/>
    <path id="Path_542" data-name="Path 542" d="M-230.34-8.16V0h2.1V-8.16l6.72-12.81h-2.34l-5.43,10.89-5.46-10.89h-2.37Zm27.3-.03c0-5.22-3.57-8.43-8.19-8.43-4.59,0-8.19,3.21-8.19,8.43,0,5.19,3.51,8.43,8.13,8.43A7.986,7.986,0,0,0-203.04-8.19Zm-14.25,0c0-4.5,2.91-6.6,6.03-6.6s6.06,2.1,6.06,6.6-3,6.6-6.09,6.6C-214.41-1.59-217.29-3.69-217.29-8.19Zm32.28-8.19h-2.1v8.91c0,3.99-2.13,5.91-5.19,5.91-3,0-4.98-1.86-4.98-5.49v-9.33h-2.07v9.57c0,4.8,2.94,7.08,6.66,7.08a5.919,5.919,0,0,0,5.58-3.15V0h2.1ZM-148.05,0h2.07V-9.6c0-4.8-2.88-7.08-6.51-7.08a5.967,5.967,0,0,0-5.91,4.02,6.053,6.053,0,0,0-6.06-4.02,5.85,5.85,0,0,0-5.43,3.12v-2.82h-2.1V0h2.1V-8.88c0-3.99,2.07-5.97,5.07-5.97,2.91,0,4.83,1.86,4.83,5.49V0h2.07V-8.88c0-3.99,2.1-5.97,5.07-5.97,2.91,0,4.8,1.86,4.8,5.49Zm5.76-8.22c0,5.13,3.33,8.46,7.8,8.46a6.92,6.92,0,0,0,6.51-3.87V0h2.1V-16.38h-2.1v3.6a6.837,6.837,0,0,0-6.48-3.84C-138.96-16.62-142.29-13.35-142.29-8.22Zm14.31.03c0,4.08-2.73,6.6-6.09,6.6-3.45,0-6.09-2.49-6.09-6.63,0-4.17,2.64-6.57,6.09-6.57C-130.71-14.79-127.98-12.27-127.98-8.19Zm12.84,5.79-5.58-13.98h-2.31l6.72,16.29-3.18,7.8h2.19l9.72-24.09h-2.16Zm17.67-5.82c0,5.13,3.33,8.46,7.83,8.46a6.831,6.831,0,0,0,6.48-3.9V0h2.1V-22.2h-2.1v9.36a7.121,7.121,0,0,0-6.45-3.78C-94.14-16.62-97.47-13.35-97.47-8.22Zm14.31.03c0,4.08-2.73,6.6-6.09,6.6-3.45,0-6.09-2.49-6.09-6.63,0-4.17,2.64-6.57,6.09-6.57C-85.89-14.79-83.16-12.27-83.16-8.19Zm13.89-6.63c3.03,0,5.79,1.92,5.7,5.73H-75.09C-74.85-12.9-72.24-14.82-69.27-14.82Zm7.59,9.63H-63.9c-.6,2.19-2.49,3.66-5.28,3.66a5.727,5.727,0,0,1-5.91-5.85H-61.5a14.36,14.36,0,0,0,.06-1.65,7.364,7.364,0,0,0-7.74-7.59c-4.71,0-8.04,3.21-8.04,8.43C-77.22-3-73.83.24-69.18.24-65.07.24-62.43-2.1-61.68-5.19ZM-57.6,0h2.1V-22.2h-2.1Zm5.91-8.22c0,5.13,3.33,8.46,7.8,8.46a6.92,6.92,0,0,0,6.51-3.87V0h2.1V-16.38h-2.1v3.6a6.837,6.837,0,0,0-6.48-3.84C-48.36-16.62-51.69-13.35-51.69-8.22Zm14.31.03c0,4.08-2.73,6.6-6.09,6.6-3.45,0-6.09-2.49-6.09-6.63,0-4.17,2.64-6.57,6.09-6.57C-40.11-14.79-37.38-12.27-37.38-8.19ZM-24.54-2.4l-5.58-13.98h-2.31L-25.71-.09l-3.18,7.8h2.19l9.72-24.09h-2.16Zm7.77,6.78h1.47l3.09-7.86h-2.34ZM1.35-12.75V-22.2H-.72V0H1.35V-3.6A6.883,6.883,0,0,0,7.86.24c4.47,0,7.8-3.33,7.8-8.46s-3.3-8.4-7.8-8.4A6.951,6.951,0,0,0,1.35-12.75ZM13.53-8.22c0,4.14-2.64,6.63-6.09,6.63-3.33,0-6.09-2.52-6.09-6.6s2.76-6.6,6.09-6.6C10.89-14.79,13.53-12.39,13.53-8.22Zm20.19-8.16h-2.1v8.91c0,3.99-2.13,5.91-5.19,5.91-3,0-4.98-1.86-4.98-5.49v-9.33H19.38v9.57c0,4.8,2.94,7.08,6.66,7.08a5.919,5.919,0,0,0,5.58-3.15V0h2.1Zm5.4,11.94C39.12-1.17,40.65,0,43.5,0h2.25V-1.8H43.83c-1.89,0-2.58-.63-2.58-2.64V-14.61h4.5v-1.77h-4.5v-4.11H39.12v4.11H36.84v1.77h2.28Zm18.9,0C58.02-1.17,59.55,0,62.4,0h2.25V-1.8H62.73c-1.89,0-2.58-.63-2.58-2.64V-14.61h4.5v-1.77h-4.5v-4.11H58.02v4.11H55.74v1.77h2.28ZM68.1,0h2.1V-16.38H68.1Zm1.05-19.47a1.524,1.524,0,0,0,1.53-1.56,1.5,1.5,0,0,0-1.53-1.53,1.5,1.5,0,0,0-1.53,1.53A1.524,1.524,0,0,0,69.15-19.47ZM98.91,0h2.07V-9.6c0-4.8-2.88-7.08-6.51-7.08a5.967,5.967,0,0,0-5.91,4.02,6.053,6.053,0,0,0-6.06-4.02,5.85,5.85,0,0,0-5.43,3.12v-2.82h-2.1V0h2.1V-8.88c0-3.99,2.07-5.97,5.07-5.97,2.91,0,4.83,1.86,4.83,5.49V0h2.07V-8.88c0-3.99,2.1-5.97,5.07-5.97,2.91,0,4.8,1.86,4.8,5.49Zm13.71-14.82c3.03,0,5.79,1.92,5.7,5.73H106.8C107.04-12.9,109.65-14.82,112.62-14.82Zm7.59,9.63h-2.22c-.6,2.19-2.49,3.66-5.28,3.66a5.727,5.727,0,0,1-5.91-5.85h13.59a14.361,14.361,0,0,0,.06-1.65,7.364,7.364,0,0,0-7.74-7.59c-4.71,0-8.04,3.21-8.04,8.43,0,5.19,3.39,8.43,8.04,8.43C116.82.24,119.46-2.1,120.21-5.19ZM135.69,0h2.13l4.53-13.74L146.88,0h2.1l5.13-16.38h-2.07L147.99-2.1l-4.53-14.28h-2.1L136.77-2.13l-4.08-14.25h-2.13Zm21.27,0h2.1V-16.38h-2.1Zm1.05-19.47a1.524,1.524,0,0,0,1.53-1.56,1.5,1.5,0,0,0-1.53-1.53,1.5,1.5,0,0,0-1.53,1.53A1.524,1.524,0,0,0,158.01-19.47ZM163.83,0h2.1V-22.2h-2.1Zm6.87,0h2.1V-22.2h-2.1Zm27.36,0h2.07V-9.6c0-4.8-2.94-7.08-6.66-7.08a5.985,5.985,0,0,0-5.58,3.09v-2.79h-2.1V0h2.1V-8.94c0-3.99,2.13-5.91,5.19-5.91,3,0,4.98,1.86,4.98,5.49ZM220.2-8.19c0-5.22-3.57-8.43-8.19-8.43-4.59,0-8.19,3.21-8.19,8.43,0,5.19,3.51,8.43,8.13,8.43A7.986,7.986,0,0,0,220.2-8.19Zm-14.25,0c0-4.5,2.91-6.6,6.03-6.6s6.06,2.1,6.06,6.6-3,6.6-6.09,6.6C208.83-1.59,205.95-3.69,205.95-8.19Zm18.69,3.75c0,3.27,1.53,4.44,4.38,4.44h2.25V-1.8h-1.92c-1.89,0-2.58-.63-2.58-2.64V-14.61h4.5v-1.77h-4.5v-4.11h-2.13v4.11h-2.28v1.77h2.28Zm11.94,3.03a1.492,1.492,0,0,0-1.5-1.53,1.5,1.5,0,0,0-1.53,1.53A1.524,1.524,0,0,0,235.08.15,1.518,1.518,0,0,0,236.58-1.41Z" transform="translate(960 722)" fill="#65617d"/>
    <g id="undraw_Working_32n9" transform="translate(644.083 181.567)">
      <circle id="Ellipse_71" data-name="Ellipse 71" cx="61.915" cy="61.915" r="61.915" transform="translate(362.968 192.1)" fill="url(#linear-gradient)"/>
      <circle id="Ellipse_72" data-name="Ellipse 72" cx="58.967" cy="58.967" r="58.967" transform="translate(365.916 195.048)" fill="#f5f5f5"/>
      <g id="Group_30" data-name="Group 30" transform="translate(375.876 217.157)" opacity="0.5">
        <path id="Path_531" data-name="Path 531" d="M775.749,482.455a36.866,36.866,0,0,0-37.9,32.915H727.236a2.146,2.146,0,0,0-2.146,2.146v3.538a2.152,2.152,0,0,0,2.147,2.152H737.85a36.854,36.854,0,1,0,37.9-40.752Z" transform="translate(-725.09 -482.434)" fill="url(#linear-gradient-2)"/>
      </g>
      <path id="Path_532" data-name="Path 532" d="M777.06,486.206a34.643,34.643,0,0,0-35.622,30.94H731.166a1.716,1.716,0,0,0-1.716,1.716v3.933a1.716,1.716,0,0,0,1.716,1.722h10.272a34.643,34.643,0,1,0,35.622-38.329Z" transform="translate(-351.003 -266.816)" fill="#fff"/>
      <circle id="Ellipse_73" data-name="Ellipse 73" cx="24.324" cy="24.324" r="24.324" transform="translate(400.559 229.692)" fill="#795548"/>
      <path id="Path_533" data-name="Path 533" d="M829.45,524.94s6.94,10.779,4.953,19.164C834.4,544.1,842.334,530.925,829.45,524.94Z" transform="translate(-392.036 -282.718)" fill="#fff" opacity="0.2"/>
      <circle id="Ellipse_74" data-name="Ellipse 74" cx="2.211" cy="2.211" r="2.211" transform="translate(438.151 265.072)" fill="#fff" opacity="0.2"/>
      <rect id="Rectangle_121" data-name="Rectangle 121" width="125.759" height="182.043" transform="matrix(0.975, -0.221, 0.221, 0.975, -0.01, 56.501)" fill="url(#linear-gradient-3)"/>
      <rect id="Rectangle_122" data-name="Rectangle 122" width="125.759" height="182.043" transform="matrix(0.975, -0.221, 0.221, 0.975, 126.945, 27.776)" fill="url(#linear-gradient-4)"/>
      <rect id="Rectangle_123" data-name="Rectangle 123" width="122.634" height="178.087" transform="matrix(0.975, -0.221, 0.221, 0.975, 2.194, 58.255)" fill="#005fd5"/>
      <rect id="Rectangle_124" data-name="Rectangle 124" width="122.634" height="178.087" transform="matrix(0.975, -0.221, 0.221, 0.975, 128.331, 29.712)" fill="#f5f5f5"/>
      <rect id="Rectangle_125" data-name="Rectangle 125" width="73.638" height="12.271" transform="matrix(0.975, -0.221, 0.221, 0.975, 27.791, 72.228)" fill="#f5f5f5"/>
      <rect id="Rectangle_126" data-name="Rectangle 126" width="98.18" height="3.066" transform="matrix(0.975, -0.221, 0.221, 0.975, 22.367, 103.869)" fill="#f5f5f5"/>
      <rect id="Rectangle_127" data-name="Rectangle 127" width="98.18" height="3.066" transform="matrix(0.975, -0.221, 0.221, 0.975, 23.946, 110.849)" fill="#f5f5f5"/>
      <rect id="Rectangle_128" data-name="Rectangle 128" width="98.18" height="3.066" transform="matrix(0.975, -0.221, 0.221, 0.975, 25.53, 117.828)" fill="#f5f5f5"/>
      <rect id="Rectangle_129" data-name="Rectangle 129" width="47.044" height="3.066" transform="matrix(0.975, -0.221, 0.221, 0.975, 27.106, 124.813)" fill="#f5f5f5"/>
      <rect id="Rectangle_130" data-name="Rectangle 130" width="54.203" height="3.066" transform="matrix(0.975, -0.221, 0.221, 0.975, 28.691, 131.802)" fill="#f5f5f5"/>
      <rect id="Rectangle_131" data-name="Rectangle 131" width="98.18" height="3.066" transform="matrix(0.975, -0.221, 0.221, 0.975, 30.267, 138.785)" fill="#f5f5f5"/>
      <rect id="Rectangle_132" data-name="Rectangle 132" width="98.18" height="3.066" transform="matrix(0.975, -0.221, 0.221, 0.975, 31.852, 145.765)" fill="#f5f5f5"/>
      <rect id="Rectangle_133" data-name="Rectangle 133" width="91.022" height="3.066" transform="matrix(0.975, -0.221, 0.221, 0.975, 33.431, 152.747)" fill="#f5f5f5"/>
      <rect id="Rectangle_134" data-name="Rectangle 134" width="98.18" height="3.066" transform="matrix(0.975, -0.221, 0.221, 0.975, 35.009, 159.73)" fill="#f5f5f5"/>
      <rect id="Rectangle_135" data-name="Rectangle 135" width="51.136" height="3.066" transform="matrix(0.975, -0.221, 0.221, 0.975, 36.587, 166.713)" fill="#f5f5f5"/>
      <rect id="Rectangle_136" data-name="Rectangle 136" width="54.203" height="3.066" transform="matrix(0.975, -0.221, 0.221, 0.975, 168.072, 145.35)" fill="#005fd5" opacity="0.3"/>
      <rect id="Rectangle_137" data-name="Rectangle 137" width="98.18" height="3.066" transform="matrix(0.975, -0.221, 0.221, 0.975, 169.648, 152.334)" fill="#005fd5" opacity="0.3"/>
      <rect id="Rectangle_138" data-name="Rectangle 138" width="98.18" height="3.066" transform="matrix(0.975, -0.221, 0.221, 0.975, 171.232, 159.313)" fill="#005fd5" opacity="0.3"/>
      <rect id="Rectangle_139" data-name="Rectangle 139" width="91.022" height="3.066" transform="matrix(0.975, -0.221, 0.221, 0.975, 172.812, 166.295)" fill="#005fd5" opacity="0.3"/>
      <rect id="Rectangle_140" data-name="Rectangle 140" width="98.18" height="3.066" transform="matrix(0.975, -0.221, 0.221, 0.975, 174.389, 173.279)" fill="#005fd5" opacity="0.3"/>
      <rect id="Rectangle_141" data-name="Rectangle 141" width="51.136" height="3.066" transform="matrix(0.975, -0.221, 0.221, 0.975, 175.968, 180.262)" fill="#005fd5" opacity="0.3"/>
      <rect id="Rectangle_142" data-name="Rectangle 142" width="59.315" height="40.911" transform="matrix(0.975, -0.221, 0.221, 0.975, 75.204, 170.557)" fill="#f5f5f5"/>
      <rect id="Rectangle_143" data-name="Rectangle 143" width="59.315" height="40.911" transform="matrix(0.975, -0.221, 0.221, 0.975, 143.694, 37.614)" fill="#005fd5" opacity="0.3"/>
      <rect id="Rectangle_144" data-name="Rectangle 144" width="59.315" height="40.911" transform="matrix(0.975, -0.221, 0.221, 0.975, 200.317, 79.328)" fill="#005fd5" opacity="0.3"/>
      <rect id="Rectangle_145" data-name="Rectangle 145" width="125.759" height="182.043" rx="13.44" transform="matrix(0.975, -0.221, 0.221, 0.975, 171.931, 68.987)" fill="url(#linear-gradient-5)"/>
      <rect id="Rectangle_146" data-name="Rectangle 146" width="122.634" height="178.087" rx="13.44" transform="matrix(0.975, -0.221, 0.221, 0.975, 173.323, 70.922)" fill="#005fd5"/>
      <g id="Group_31" data-name="Group 31" transform="translate(125.802 319.675)" opacity="0.5">
        <rect id="Rectangle_147" data-name="Rectangle 147" width="1.769" height="10.024" transform="translate(4.128)" fill="#47e6b1"/>
        <rect id="Rectangle_148" data-name="Rectangle 148" width="1.769" height="10.024" transform="translate(10.024 4.128) rotate(90)" fill="#47e6b1"/>
      </g>
      <g id="Group_32" data-name="Group 32" transform="translate(424.293 19.326)" opacity="0.5">
        <rect id="Rectangle_149" data-name="Rectangle 149" width="1.769" height="10.024" transform="translate(4.128)" fill="#47e6b1"/>
        <rect id="Rectangle_150" data-name="Rectangle 150" width="1.769" height="10.024" transform="translate(10.024 4.128) rotate(90)" fill="#47e6b1"/>
      </g>
      <g id="Group_33" data-name="Group 33" transform="translate(371.223 147.285)" opacity="0.5">
        <rect id="Rectangle_151" data-name="Rectangle 151" width="1.769" height="10.024" transform="translate(4.128)" fill="#47e6b1"/>
        <rect id="Rectangle_152" data-name="Rectangle 152" width="1.769" height="10.024" transform="translate(10.024 4.128) rotate(90)" fill="#47e6b1"/>
      </g>
      <g id="Group_34" data-name="Group 34" transform="translate(523.116 170.282)" opacity="0.5">
        <rect id="Rectangle_153" data-name="Rectangle 153" width="1.769" height="10.024" transform="translate(4.134)" fill="#47e6b1"/>
        <rect id="Rectangle_154" data-name="Rectangle 154" width="1.769" height="10.024" transform="translate(10.024 4.134) rotate(90)" fill="#47e6b1"/>
      </g>
      <path id="Path_534" data-name="Path 534" d="M477.648,651.8a2.17,2.17,0,0,1-1.209-2.618.679.679,0,0,0,.047-.242h0a1.085,1.085,0,0,0-1.952-.719h0a1.489,1.489,0,0,0-.118.212,2.164,2.164,0,0,1-2.618,1.179,1.1,1.1,0,0,0-.242-.047h0a1.085,1.085,0,0,0-.719,1.952h0a1.112,1.112,0,0,0,.212.124,2.164,2.164,0,0,1,1.209,2.618,1.113,1.113,0,0,0-.047.236h0a1.085,1.085,0,0,0,1.952.725h0a1.119,1.119,0,0,0,.118-.218,2.17,2.17,0,0,1,2.624-1.179,1.039,1.039,0,0,0,.236.047h0a1.085,1.085,0,0,0,.719-1.952h0A.952.952,0,0,0,477.648,651.8Z" transform="translate(-244.708 -333.123)" fill="#4d8af0" opacity="0.5"/>
      <path id="Path_535" data-name="Path 535" d="M623.868,776.446a2.17,2.17,0,0,1-1.179-2.618,1.092,1.092,0,0,0,.047-.242h0a1.085,1.085,0,0,0-1.952-.719h0a1.072,1.072,0,0,0-.118.212,2.158,2.158,0,0,1-2.618,1.209,1.185,1.185,0,0,0-.242-.047h0a1.085,1.085,0,0,0-.719,1.952h0a.949.949,0,0,0,.212.124,2.17,2.17,0,0,1,1.179,2.618,1.1,1.1,0,0,0-.047.242h0a1.085,1.085,0,0,0,1.952.719h0a.973.973,0,0,0,.118-.218,2.164,2.164,0,0,1,2.618-1.179,1.177,1.177,0,0,0,.242.047h0a1.085,1.085,0,0,0,.719-1.952h0A.955.955,0,0,0,623.868,776.446Z" transform="translate(-304.719 -384.271)" fill="#4d8af0" opacity="0.5"/>
      <path id="Path_536" data-name="Path 536" d="M842.868,345.446a2.17,2.17,0,0,1-1.179-2.618,1.091,1.091,0,0,0,.047-.242h0a1.085,1.085,0,0,0-1.952-.719h0a1.071,1.071,0,0,0-.118.212,2.158,2.158,0,0,1-2.618,1.209,1.179,1.179,0,0,0-.242-.047h0a1.085,1.085,0,0,0-.719,1.952h0a.956.956,0,0,0,.212.124,2.17,2.17,0,0,1,1.179,2.618,1.1,1.1,0,0,0-.047.242h0a1.085,1.085,0,0,0,1.952.719h0a.97.97,0,0,0,.118-.218,2.164,2.164,0,0,1,2.618-1.179,1.181,1.181,0,0,0,.242.047h0a1.085,1.085,0,0,0,.719-1.952h0a.952.952,0,0,0-.212-.147Z" transform="translate(-394.581 -207.419)" fill="#4d8af0" opacity="0.5"/>
      <path id="Path_537" data-name="Path 537" d="M994.868,506.446a2.17,2.17,0,0,1-1.179-2.618,1.087,1.087,0,0,0,.047-.242h0a1.085,1.085,0,0,0-1.952-.719h0a1.078,1.078,0,0,0-.118.212,2.158,2.158,0,0,1-2.618,1.209,1.18,1.18,0,0,0-.242-.047h0a1.085,1.085,0,0,0-.719,1.952h0a.955.955,0,0,0,.212.124,2.17,2.17,0,0,1,1.179,2.618,1.094,1.094,0,0,0-.047.242h0a1.085,1.085,0,0,0,1.952.719h0a.973.973,0,0,0,.118-.218,2.164,2.164,0,0,1,2.618-1.179,1.179,1.179,0,0,0,.242.047h0a1.085,1.085,0,0,0,.719-1.952h0A.957.957,0,0,0,994.868,506.446Z" transform="translate(-456.951 -273.482)" fill="#4d8af0" opacity="0.5"/>
      <circle id="Ellipse_75" data-name="Ellipse 75" cx="3.538" cy="3.538" r="3.538" transform="translate(80.397 283.705)" fill="#f55f44" opacity="0.5"/>
      <circle id="Ellipse_76" data-name="Ellipse 76" cx="3.538" cy="3.538" r="3.538" transform="translate(305.18 26.402)" fill="#4d8af0" opacity="0.5"/>
      <circle id="Ellipse_77" data-name="Ellipse 77" cx="3.538" cy="3.538" r="3.538" transform="translate(290.438 285.268)" fill="#47e6b1" opacity="0.5"/>
      <circle id="Ellipse_78" data-name="Ellipse 78" cx="3.538" cy="3.538" r="3.538" transform="translate(494.464 373.719)" fill="#f55f44" opacity="0.5"/>
      <g id="Group_35" data-name="Group 35" transform="translate(461.253 3.026)" opacity="0.5">
        <path id="Path_538" data-name="Path 538" d="M3.7,0H172.349a3.709,3.709,0,0,1,3.709,3.709V93.882a3.709,3.709,0,0,1-3.709,3.709H3.7a3.7,3.7,0,0,1-3.7-3.7V3.7A3.709,3.709,0,0,1,3.7,0Z" transform="translate(0 168.711) rotate(-73.39)" fill="url(#linear-gradient-6)"/>
      </g>
      <rect id="Rectangle_155" data-name="Rectangle 155" width="94.949" height="171.382" rx="13.64" transform="translate(512.242 5.591) rotate(16.61)" fill="#fff"/>
      <path id="Path_539" data-name="Path 539" d="M992.4,152.167a7.666,7.666,0,0,1-9.14,4.128l-31.424-9.382a7.7,7.7,0,0,1-5.4-8.468l-16.629-4.959a3.615,3.615,0,0,0-4.487,2.424L880.815,285a3.6,3.6,0,0,0,2.429,4.481l79.511,23.728a3.6,3.6,0,0,0,4.481-2.424L1011.722,161.7a3.6,3.6,0,0,0-2.424-4.482Z" transform="translate(-413.051 -122.032)" fill="#e0e0e0"/>
      <rect id="Rectangle_156" data-name="Rectangle 156" width="21.157" height="1.321" rx="0.66" transform="matrix(0.962, 0.274, -0.274, 0.962, 544.909, 22.126)" fill="#dbdbdb"/>
      <circle id="Ellipse_79" data-name="Ellipse 79" cx="0.796" cy="0.796" r="0.796" transform="translate(568.633 28.885)" fill="#dbdbdb"/>
      <rect id="Rectangle_157" data-name="Rectangle 157" width="25.946" height="22.407" transform="translate(513.948 40.943) rotate(15.4)" fill="#fff"/>
      <rect id="Rectangle_158" data-name="Rectangle 158" width="25.946" height="22.407" transform="translate(505.328 72.211) rotate(15.4)" fill="#005fd5" opacity="0.3"/>
      <rect id="Rectangle_159" data-name="Rectangle 159" width="25.946" height="22.407" transform="translate(496.721 103.475) rotate(15.4)" fill="#fff"/>
      <rect id="Rectangle_160" data-name="Rectangle 160" width="25.946" height="22.407" transform="translate(488.101 134.743) rotate(15.4)" fill="#3ad29f" opacity="0.3"/>
      <rect id="Rectangle_161" data-name="Rectangle 161" width="34.201" height="2.359" transform="translate(543.803 54.668) rotate(15.4)" fill="#fff"/>
      <rect id="Rectangle_162" data-name="Rectangle 162" width="34.201" height="2.359" transform="translate(541.923 61.489) rotate(15.4)" fill="#fff"/>
      <rect id="Rectangle_163" data-name="Rectangle 163" width="34.201" height="2.359" transform="translate(535.346 85.373) rotate(15.4)" fill="#fff"/>
      <rect id="Rectangle_164" data-name="Rectangle 164" width="34.201" height="2.359" transform="translate(533.467 92.189) rotate(15.4)" fill="#fff"/>
      <rect id="Rectangle_165" data-name="Rectangle 165" width="34.201" height="2.359" transform="translate(526.89 116.073) rotate(15.4)" fill="#fff"/>
      <rect id="Rectangle_166" data-name="Rectangle 166" width="34.201" height="2.359" transform="translate(525.01 122.894) rotate(15.4)" fill="#fff"/>
      <rect id="Rectangle_167" data-name="Rectangle 167" width="34.201" height="2.359" transform="translate(518.434 146.767) rotate(15.4)" fill="#fff"/>
      <rect id="Rectangle_168" data-name="Rectangle 168" width="34.201" height="2.359" transform="translate(516.554 153.594) rotate(15.4)" fill="#fff"/>
    </g>
    <circle id="Ellipse_80" data-name="Ellipse 80" cx="77.437" cy="77.437" r="77.437" transform="translate(882.353 777.938)" fill="#6c63ff"/>
    <ellipse id="Ellipse_81" data-name="Ellipse 81" cx="8.03" cy="10.517" rx="8.03" ry="10.517" transform="translate(931.013 849.847)" fill="#444053"/>
    <ellipse id="Ellipse_82" data-name="Ellipse 82" cx="8.03" cy="10.517" rx="8.03" ry="10.517" transform="translate(972.505 849.847)" fill="#444053"/>
    <path id="Path_540" data-name="Path 540" d="M460.679,545.539c0,15.1-25.221,40.533-50.669,40.533s-49.7-26.007-49.7-41.108,23.738-1.29,49.2-1.29S460.679,530.438,460.679,545.539Z" transform="translate(549.013 347.906)" fill="#444053"/>
  </g>
</svg>
