<svg width="33" height="20" viewBox="0 0 33 20" fill="none" xmlns="http://www.w3.org/2000/svg">
<mask id="mask0" mask-type="alpha" maskUnits="userSpaceOnUse" x="0" y="0" width="33" height="20">
<path fill-rule="evenodd" clip-rule="evenodd" d="M16.25 0H0V20H16.25H32.5V0H16.25Z" fill="white"/>
</mask>
<g mask="url(#mask0)">
<path fill-rule="evenodd" clip-rule="evenodd" d="M4.28689 11.8244C4.65123 11.7746 4.93224 11.4641 4.93224 11.0876C4.93224 10.6764 4.59737 10.3431 4.18433 10.3431C4.1298 10.3431 4.07678 10.3492 4.0255 10.3603C1.74336 10.7652 0 12.7617 0 15.1418C0 17.6527 1.92233 19.726 4.38002 19.9755C4.5416 19.9918 4.70453 20 4.87018 20H4.87841H25.5529C25.5692 20 25.5871 20 25.6035 19.9986C29.4111 19.9727 32.5 16.8811 32.5 13.0834C32.5 9.68512 29.9917 6.77618 26.6386 6.25137C26.6318 6.25 26.6249 6.24863 26.618 6.24863C26.5469 6.23776 26.4757 6.22956 26.4044 6.22136C26.0266 6.21045 25.6939 6.48445 25.6419 6.86478C25.5912 7.2519 25.8486 7.60904 26.2265 7.68811C26.5414 7.7222 26.8481 7.78761 27.1411 7.88304C27.1644 7.88849 27.1877 7.89666 27.2096 7.90486C29.0688 8.53054 30.4065 10.2822 30.4065 12.3432C30.4065 14.9305 28.2995 17.0284 25.7007 17.0284C25.6719 17.0284 25.6432 17.0284 25.6144 17.027C25.6035 17.0284 25.5939 17.0284 25.583 17.0284C25.4652 17.0284 25.3502 17.0202 25.2379 17.0052C25.2311 17.0052 25.2256 17.0052 25.2201 17.0038C23.9317 16.828 22.9405 15.7279 22.9405 14.3975C22.9405 13.9436 23.0376 13.506 23.2417 13.1338C23.8865 11.8948 24.2521 10.488 24.2521 8.99673C24.2521 8.62734 24.2302 8.26471 24.1864 7.9076C24.1823 7.9076 24.1782 7.90894 24.1741 7.91168C24.1768 7.89258 24.1782 7.8735 24.1795 7.8544V7.85169C24.1166 7.35823 24.0139 6.87706 23.8729 6.41221C22.7584 2.7031 19.304 0 15.2156 0C10.6166 0 6.81986 3.4215 6.25167 7.84761C6.20374 8.22382 6.17914 8.60686 6.17914 8.99673C6.17914 9.50792 6.22159 10.0095 6.30507 10.4975C6.46252 11.434 6.81725 12.295 7.19095 13.1338C7.3232 13.4306 7.49214 13.9436 7.49214 14.3975C7.49214 15.8506 6.30917 17.0284 4.84968 17.0284C3.39012 17.0284 2.20711 15.8506 2.20711 14.3975C2.20711 13.1258 3.11353 12.0656 4.31824 11.8207" fill="white"/>
</g>
</svg>
