<svg width="25" height="25" viewBox="0 0 25 25" fill="none" xmlns="http://www.w3.org/2000/svg">
<path d="M20.2036 4.14551H4.20361C3.10361 4.14551 2.20361 5.04551 2.20361 6.14551V18.1455C2.20361 19.2455 3.10361 20.1455 4.20361 20.1455H20.2036C21.3036 20.1455 22.2036 19.2455 22.2036 18.1455V6.14551C22.2036 5.04551 21.3036 4.14551 20.2036 4.14551ZM8.20361 11.1455H4.20361V6.14551H8.20361V11.1455ZM14.2036 11.1455H10.2036V6.14551H14.2036V11.1455ZM20.2036 11.1455H16.2036V6.14551H20.2036V11.1455ZM8.20361 18.1455H4.20361V13.1455H8.20361V18.1455ZM14.2036 18.1455H10.2036V13.1455H14.2036V18.1455ZM20.2036 18.1455H16.2036V13.1455H20.2036V18.1455Z" fill="#223044"/>
</svg>
