<svg width="25" height="25" viewBox="0 0 25 25" fill="none" xmlns="http://www.w3.org/2000/svg">
<path d="M19.0481 20.1004H5.16385C4.11468 20.1004 3.26416 19.2498 3.26416 18.2007V8.81229C3.26416 7.76312 4.11468 6.9126 5.16385 6.9126H19.0481C20.0972 6.9126 20.9478 7.76312 20.9478 8.81229V18.2007C20.9478 19.2498 20.0972 20.1004 19.0481 20.1004Z" fill="#FAFAFA" stroke="#223044" stroke-miterlimit="10" stroke-linecap="round"/>
<path d="M3.0835 12.0034H20.5918V18.1004C20.5918 19.2049 19.6964 20.1004 18.5918 20.1004H5.0835C3.97893 20.1004 3.0835 19.2049 3.0835 18.1004V12.0034Z" fill="#9D9FA2"/>
<path d="M19.0482 20.1004H5.16394C4.11477 20.1004 3.26425 19.2498 3.26425 18.2007V8.81229C3.26425 7.76312 4.11477 6.9126 5.16394 6.9126H19.0482C20.0973 6.9126 20.9478 7.76312 20.9478 8.81229V18.2007C20.9478 19.2498 20.0973 20.1004 19.0482 20.1004Z" stroke="#223044" stroke-width="2" stroke-miterlimit="10" stroke-linecap="round"/>
<path d="M3.61972 11.8516H20.5918" stroke="#223044" stroke-width="2" stroke-miterlimit="10" stroke-linecap="round"/>
<path d="M14.6661 13.9453H5.23737V14.9453H14.6661V13.9453Z" fill="#FAFAFA"/>
<path d="M18.4381 16.2324H9.00885V17.2324H18.4381V16.2324Z" fill="#FAFAFA"/>
<path d="M18.4381 13.9453H16.5523V14.9453H18.4381V13.9453Z" fill="#FAFAFA"/>
<path d="M7.12315 16.2324H5.23737V17.2324H7.12315V16.2324Z" fill="#FAFAFA"/>
<path d="M7.96559 9.15555H7.90404C6.97896 9.15555 6.22903 8.55877 6.22903 7.82259V4.69673C6.22903 3.96056 6.97896 3.36377 7.90404 3.36377H7.96559C8.89067 3.36377 9.64059 3.96056 9.64059 4.69673V7.82259C9.64059 8.55877 8.89067 9.15555 7.96559 9.15555Z" fill="white" stroke="#223044" stroke-width="2" stroke-miterlimit="10" stroke-linecap="round"/>
<path d="M16.3079 9.15555H16.2463C15.3212 9.15555 14.5713 8.55877 14.5713 7.82259V4.69673C14.5713 3.96055 15.3212 3.36377 16.2463 3.36377H16.3079C17.233 3.36377 17.9829 3.96056 17.9829 4.69673V7.82259C17.9829 8.55877 17.233 9.15555 16.3079 9.15555Z" fill="white" stroke="#223044" stroke-width="2" stroke-miterlimit="10" stroke-linecap="round"/>
</svg>
