<svg xmlns="http://www.w3.org/2000/svg" xmlns:xlink="http://www.w3.org/1999/xlink" viewBox="0 0 1003.974 768.316">
  <defs>
    <style>
      .cls-1, .cls-2 {
        fill: #005fd5;
      }

      .cls-1, .cls-3 {
        opacity: 0.1;
      }

      .cls-4 {
        fill: none;
        stroke: #535461;
        stroke-miterlimit: 10;
      }

      .cls-5 {
        fill: #f5f5f5;
      }

      .cls-18, .cls-5 {
        opacity: 0.2;
      }

      .cls-6 {
        fill: #f1f1f4;
      }

      .cls-7 {
        fill: #fff;
      }

      .cls-8 {
        fill: url(#linear-gradient);
      }

      .cls-9 {
        fill: url(#linear-gradient-2);
      }

      .cls-10 {
        fill: #f7bbc3;
      }

      .cls-11 {
        fill: #b77983;
      }

      .cls-12 {
        fill: #8499f0;
      }

      .cls-13, .cls-15 {
        opacity: 0.05;
      }

      .cls-14 {
        fill: #d39999;
      }

      .cls-16 {
        fill: #9b6c7a;
      }

      .cls-17 {
        fill: #a8a8a8;
      }

      .cls-19 {
        fill: #65617d;
      }
    </style>
    <linearGradient id="linear-gradient" x1="0.386" y1="0.622" x2="0.386" y2="-0.378" gradientUnits="objectBoundingBox">
      <stop offset="0" stop-color="gray" stop-opacity="0.251"/>
      <stop offset="0.54" stop-color="gray" stop-opacity="0.122"/>
      <stop offset="1" stop-color="gray" stop-opacity="0.102"/>
    </linearGradient>
    <linearGradient id="linear-gradient-2" x1="0.5" y1="1" x2="0.5" y2="0" xlink:href="#linear-gradient"/>
  </defs>
  <g id="undraw_filing_system_b5d2" transform="translate(-0.002 81.293)">
    <path id="Path_122" data-name="Path 122" class="cls-1" d="M196,630.27c-4.29,9.21,1.85,19.15-.28,28.66-2.69,12-18.11,21.34-34.72,27.3s-35.16,9.58-51.35,16c-7,2.77-14.3,7.88-10.66,12.58,1.26,1.63,3.62,2.77,5.93,3.84,47.16,21.76,105.45,33.58,163.69,33.2,61.6-.41,121.92-14,183.47-12.44,79.38,2,156.16,29.06,234.66,21.26C720.06,757.34,751,747.9,783.45,742c47.72-8.67,97.91-9.54,147.33-12.39,37.11-2.14,79.52-7.69,97.25-28.55,12.82-15.08,7.44-35-10.62-47.77s-46.91-18.23-73.56-15.75c-14.33,1.33-28.57,4.78-42.9,3.41-8.32-.8-16-3.18-23.59-5.52-58.71-18.2-119.53-36.36-184.7-39-106-4.33-204.25,32.55-307.52,48.5-16.08,2.48-33.54,4.39-48.73.23-16-4.39-26.5-14.76-42.53-19.13-7.61-2.08-16.09-2.68-23.57-4.94-20.56-6.22-11-14.77-39.54-9C215.86,615.13,200.8,620,196,630.27Z" transform="translate(-98.02 -109)"/>
    <path id="Path_123" data-name="Path 123" class="cls-2" d="M207.7,316.06s55.76,55.76,24.3,138.5,54,220.33,54,220.33-.92-.13-2.61-.43C168.81,654.24,111.91,523.27,175.59,426,199.26,389.79,218.7,347.36,207.7,316.06Z" transform="translate(-98.02 -109)"/>
    <path id="Path_124" data-name="Path 124" class="cls-3" d="M207.7,316.06s55.76,55.76,24.3,138.5,54,220.33,54,220.33-.92-.13-2.61-.43C168.81,654.24,111.91,523.27,175.59,426,199.26,389.79,218.7,347.36,207.7,316.06Z" transform="translate(-98.02 -109)"/>
    <path id="Path_125" data-name="Path 125" class="cls-4" d="M207.7,316.06s31.48,68.35,0,124.11-5.4,212.24,78.24,234.72" transform="translate(-98.02 -109)"/>
    <path id="Path_126" data-name="Path 126" class="cls-2" d="M108.39,541.58s63.63-10.13,69.43,46.89S300.16,653.4,300.16,653.4s-.76.52-2.19,1.45C201.75,718,109.76,695.09,123.62,611.21,128.78,580,128.35,548.7,108.39,541.58Z" transform="translate(-98.02 -109)"/>
    <path id="Path_127" data-name="Path 127" class="cls-5" d="M108.39,541.58s63.63-10.13,69.43,46.89S300.16,653.4,300.16,653.4s-.76.52-2.19,1.45C201.75,718,109.76,695.09,123.62,611.21,128.78,580,128.35,548.7,108.39,541.58Z" transform="translate(-98.02 -109)"/>
    <path id="Path_128" data-name="Path 128" class="cls-4" d="M108.39,541.58s49.39,10.84,45.33,55.75,73.34,98.74,146.44,56.07" transform="translate(-98.02 -109)"/>
    <path id="Path_129" data-name="Path 129" class="cls-2" d="M676.74,564.63H153.31V237.66h66.94l27.54,34.02H676.74Z"/>
    <path id="Path_130" data-name="Path 130" class="cls-3" d="M676.74,564.63H153.31V237.66h66.94l27.54,34.02H676.74Z"/>
    <rect id="Rectangle_13" data-name="Rectangle 13" class="cls-6" width="250.61" height="390.14" transform="matrix(0.94, -0.34, 0.34, 0.94, 250.718, 187.121)"/>
    <rect id="Rectangle_14" data-name="Rectangle 14" class="cls-7" width="70.81" height="16.66" transform="matrix(0.94, -0.34, 0.34, 0.94, 295.21, 211.822)"/>
    <rect id="Rectangle_15" data-name="Rectangle 15" class="cls-7" width="155.5" height="15.27" transform="translate(322.754 250.997) rotate(-19.65)"/>
    <rect id="Rectangle_16" data-name="Rectangle 16" class="cls-7" width="155.5" height="15.27" transform="translate(333.729 281.729) rotate(-19.65)"/>
    <rect id="Rectangle_17" data-name="Rectangle 17" class="cls-7" width="155.5" height="15.27" transform="translate(344.694 312.46) rotate(-19.65)"/>
    <rect id="Rectangle_18" data-name="Rectangle 18" class="cls-7" width="155.5" height="15.27" transform="translate(355.668 343.181) rotate(-19.65)"/>
    <rect id="Rectangle_19" data-name="Rectangle 19" class="cls-7" width="155.5" height="15.27" transform="translate(366.64 373.903) rotate(-19.65)"/>
    <rect id="Rectangle_20" data-name="Rectangle 20" class="cls-7" width="155.5" height="15.27" transform="translate(377.614 404.635) rotate(-19.65)"/>
    <rect id="Rectangle_21" data-name="Rectangle 21" class="cls-7" width="40.26" height="40.26" transform="translate(514.663 416.877) rotate(-19.65)"/>
    <rect id="Rectangle_22" data-name="Rectangle 22" class="cls-8" width="258.63" height="402.63" transform="translate(70.73 344.564) rotate(-59.28)"/>
    <rect id="Rectangle_23" data-name="Rectangle 23" class="cls-6" width="250.61" height="390.14" transform="translate(78.152 344.31) rotate(-59.28)"/>
    <rect id="Rectangle_24" data-name="Rectangle 24" class="cls-7" width="70.81" height="16.66" transform="translate(127.992 335.172) rotate(-59.28)"/>
    <rect id="Rectangle_25" data-name="Rectangle 25" class="cls-7" width="155.5" height="15.27" transform="translate(173.279 345.927) rotate(-59.28)"/>
    <rect id="Rectangle_26" data-name="Rectangle 26" class="cls-7" width="155.5" height="15.27" transform="translate(201.329 362.599) rotate(-59.28)"/>
    <rect id="Rectangle_27" data-name="Rectangle 27" class="cls-7" width="155.5" height="15.27" transform="translate(229.268 378.822) rotate(-59.331)"/>
    <rect id="Rectangle_28" data-name="Rectangle 28" class="cls-7" width="155.5" height="15.27" transform="translate(257.42 395.927) rotate(-59.28)"/>
    <rect id="Rectangle_29" data-name="Rectangle 29" class="cls-7" width="155.5" height="15.27" transform="translate(285.469 412.599) rotate(-59.28)"/>
    <rect id="Rectangle_30" data-name="Rectangle 30" class="cls-7" width="155.5" height="15.27" transform="translate(313.529 429.271) rotate(-59.28)"/>
    <rect id="Rectangle_31" data-name="Rectangle 31" class="cls-7" width="40.26" height="40.26" transform="translate(426.582 350.743) rotate(-59.331)"/>
    <path id="Path_131" data-name="Path 131" class="cls-9" d="M1056.2,236.09a6.44,6.44,0,0,0-.15-1.41q-.15-.67-.26-1.55-.28-1.52-.64-2.94-.18-.71-.37-1.39a37.43,37.43,0,0,0-7.51-14.29l-.6-.68q-.6-.66-1.19-1.25t-1.16-1.09c-.38-.34-.75-.65-1.11-.95a22.332,22.332,0,0,0-2-1.47c-.62-.4-.84-.55-1.19-.76a6.73,6.73,0,0,0-2.8-.91l-6.17-.6h0l-8.34-.82L992.6,194.35l-1.19.42a68.955,68.955,0,0,1-2.23-7.37,6.71,6.71,0,0,0,2.38-1.73,5.42,5.42,0,0,0,1.64-2.09c.76-1.74-.69-5.46-.4-7.58.48-3.41,2.26-6.71,3.71-9.8,3.1-6.64,5.36-13.83,5-21.12s-3.71-14.68-9.9-18.76c-3.2-2.11-7-3.24-10.29-5.16-2.59-1.5-4.87-3.45-7.34-5.14a42.38,42.38,0,0,0-41.53-2.95c-6.26,3.07-11.6,7.65-17.51,11.32s-12.87,6.51-19.78,5.42a4.381,4.381,0,0,0-.21.85l-.58-.07c-1.19,3.23,1.73,6.41,4.42,8.62,5.1,4.18,10.89,8.36,17.55,8.5,2.57.06,5.29-.48,7.63.57a6.83,6.83,0,0,1,1.42.88A32.8,32.8,0,0,0,935.8,182l-15.38-5.5s-.64.33-1.64.95l-21.37-14.13s-42.83-15.51-54.73,8.53,51.56,11.63,51.56,11.63l13.58,7.42a12.261,12.261,0,0,0,1.49,8.09l37,22.74c-7.48,2.29-19.77,6-22,6-3.17,0-11.9,3.1-17.45,15.51s-25.38,72.91-42.83,83-63.46,77.56-63.46,77.56l.21.53q-1.23.32-2.41.71c-11.51,3.72-19.25,11.57-23.92,17.92a7.6,7.6,0,0,0,5.36,12c18.16,2.28,28.08-6,32.85-12.32q.465-.615.87-1.2a6.42,6.42,0,0,0,4.48.2l22.21-17.84s-17.38,17-7.19,32.49l-.77,1.07a246.311,246.311,0,0,0-37.25,80.46s-9.52,7-10.31,34.9-10.31,72.91-10.31,72.91-6.35,53.52-2.38,69.81c0,0,.46.65,1.3,1.64-.3.35-.62.73-1,1.12-3.46,3.72-9.71,8.85-17,7.32-11.11-2.33-11.11,17.06,4.76,18.62,10.22,1,30.29,5.54,43.3,8.64a9.1,9.1,0,0,0,11.31-9.67c-.78-6.95-2.19-15.36-4.76-21.35-.16-.37-.32-.73-.49-1.09.47-.43.93-.88,1.4-1.36,0,0,0-34.13,5.55-43.44,0,0,15.07-70.58,14.28-88.42-.62-14,39.09-68.32,56.38-91.28l-.14-.87c4.42-5.86,7.22-9.46,7.22-9.46l13.48,84.54S914.07,569,922,579.06c0,0,34.11,64.38,38.07,84.54,3,15.29,9.2,24.33,12,27.81-.33.33-.67.66-1,1-3.61,3.29-8.94,6.59-15,5.33-11.07-2.34-11.07,17.05,4.8,18.6,10.22,1,30.29,5.54,43.3,8.64a9.1,9.1,0,0,0,11.31-9.67c-.9-8.07-2.67-18.11-6.09-24q-.43-.75-.9-1.41a8.38,8.38,0,0,0,3.15-2.21S991,638.78,991,625.59c0,0-8.73-50.42-38.07-69,0,0,2.78-63.05,11.13-98.15q.31-1.3.63-2.55c7.51-1.17,15.23-2.74,23.14-4.79l.79-23.27,4,18.62L1037,419.28s-.39-4.89-1.14-12.39c-.38-3.75-.84-8.15-1.4-12.92-.44-3.82-.95-7.87-1.5-12q-.21-1.55-.43-3.12c-.58-4.18-1.22-8.41-1.91-12.55q-.39-2.33-.8-4.61c-.36-2-.74-4-1.13-5.94q-.29-1.45-.6-2.86t-.62-2.76q-.31-1.35-.63-2.65l-.32-1.28q-.33-1.26-.66-2.46a44.176,44.176,0,0,1-1.61-10.17q-.08-2,0-4.1a33.557,33.557,0,0,1,.4-4.08q.14-1,.34-2a45.926,45.926,0,0,1,2.25-7.92q.74-1.93,1.66-3.81c1.44-2.93,3-6.11,4.56-9.46q1.19-2.51,2.4-5.13t2.44-5.32c7.72-17.1,15.34-36.16,17.38-48.67.21-1.32.37-2.56.45-3.73A24.731,24.731,0,0,0,1056.2,236.09Z" transform="translate(-98.02 -109)"/>
    <path id="Path_132" data-name="Path 132" class="cls-10" d="M923.71,185.16l-26.16-17.7s-41.55-15.39-53.09,8.46,50,11.54,50,11.54l26.16,14.62Z" transform="translate(-98.02 -109)"/>
    <rect id="Rectangle_32" data-name="Rectangle 32" class="cls-6" width="250.61" height="390.14" transform="matrix(0.536, -0.844, 0.844, 0.536, 540.283, 215.856)"/>
    <rect id="Rectangle_33" data-name="Rectangle 33" class="cls-7" width="70.81" height="16.66" transform="matrix(0.536, -0.844, 0.844, 0.536, 590.375, 208.21)"/>
    <rect id="Rectangle_34" data-name="Rectangle 34" class="cls-7" width="155.5" height="15.27" transform="matrix(0.536, -0.844, 0.844, 0.536, 635.327, 220.315)"/>
    <rect id="Rectangle_35" data-name="Rectangle 35" class="cls-7" width="155.5" height="15.27" transform="matrix(0.536, -0.844, 0.844, 0.536, 662.868, 237.809)"/>
    <rect id="Rectangle_36" data-name="Rectangle 36" class="cls-7" width="155.5" height="15.27" transform="matrix(0.536, -0.844, 0.844, 0.536, 690.408, 255.309)"/>
    <rect id="Rectangle_37" data-name="Rectangle 37" class="cls-7" width="155.282" height="15.249" transform="matrix(0.541, -0.841, 0.841, 0.541, 719.614, 277.159)"/>
    <rect id="Rectangle_38" data-name="Rectangle 38" class="cls-7" width="155.5" height="15.27" transform="matrix(0.536, -0.844, 0.844, 0.536, 745.489, 290.303)"/>
    <rect id="Rectangle_39" data-name="Rectangle 39" class="cls-7" width="155.282" height="15.249" transform="matrix(0.541, -0.841, 0.841, 0.541, 774.759, 312.507)"/>
    <rect id="Rectangle_40" data-name="Rectangle 40" class="cls-7" width="40.26" height="40.26" transform="matrix(0.536, -0.844, 0.844, 0.536, 888.669, 233.217)"/>
    <path id="Path_133" data-name="Path 133" class="cls-11" d="M1001.1,724.59c-12.62-3.08-32.09-7.58-42-8.57-15.39-1.54-15.39-20.77-4.62-18.46,5.84,1.25,11-2,14.51-5.29A34,34,0,0,0,972,689a8.89,8.89,0,0,1,5-3c5.77-1.26,17.78-3.16,25.17.82a10.87,10.87,0,0,1,4,4.36c3.32,5.89,5,15.84,5.91,23.85a8.9,8.9,0,0,1-10.98,9.56Z" transform="translate(-98.02 -109)"/>
    <path id="Path_134" data-name="Path 134" class="cls-11" d="M806.45,732.29c-12.62-3.08-32.09-7.58-42-8.57-15.39-1.54-15.39-20.77-4.62-18.46,7,1.52,13.11-3.58,16.46-7.26.41-.45.78-.88,1.1-1.28a8.89,8.89,0,0,1,5-3c5.77-1.26,17.78-3.16,25.17.82,2.16,1.17,3.89,3.73,5.27,7,2.49,5.94,3.86,14.28,4.62,21.17a8.9,8.9,0,0,1-11,9.58Z" transform="translate(-98.02 -109)"/>
    <path id="Path_135" data-name="Path 135" class="cls-3" d="M812.8,701.52c-18.37,18.93-34.12-.35-36.51-3.53.41-.45.78-.88,1.1-1.28a8.89,8.89,0,0,1,5-3c5.77-1.26,17.78-3.16,25.17.82C809.69,695.65,811.42,698.21,812.8,701.52Z" transform="translate(-98.02 -109)"/>
    <path id="Path_136" data-name="Path 136" class="cls-3" d="M1006.16,691.15c-8,5.44-34.75,4.1-34.75,4.1a26.366,26.366,0,0,1-2.42-3A33.994,33.994,0,0,0,972,689a8.89,8.89,0,0,1,5-3c5.77-1.26,17.78-3.16,25.17.82a10.869,10.869,0,0,1,3.99,4.33Z" transform="translate(-98.02 -109)"/>
    <path id="Path_137" data-name="Path 137" class="cls-12" d="M1007.57,687.56c-5.39,6.92-36.16,5.39-36.16,5.39s-9.23-9.23-13.08-29.24-36.93-83.86-36.93-83.86c-7.69-10-13.85-28.47-13.85-28.47l-13.08-83.86s-63.09,83.09-62.32,100.79S818.3,656,818.3,656c-5.39,9.23-5.39,43.08-5.39,43.08-20,20.77-36.93-3.85-36.93-3.85-3.85-16.16,2.31-69.24,2.31-69.24s9.23-44.62,10-72.32,10-34.62,10-34.62a246.783,246.783,0,0,1,36.13-79.81c4.65-6.66,7.72-10.21,7.72-10.21l124.64,14.62c-2,4-3.79,9.73-5.36,16.51-8.1,34.81-10.79,97.36-10.79,97.36C979.1,576,987.56,626,987.56,626,987.56,639.08,1007.57,687.56,1007.57,687.56Z" transform="translate(-98.02 -109)"/>
    <g id="Group_7" data-name="Group 7" class="cls-13">
      <path id="Path_138" data-name="Path 138" d="M887.6,477.76,886,467.51S822.91,550.6,823.68,568.3,809.84,656,809.84,656c-5.39,9.23-5.39,43.08-5.39,43.08-4.19,4.35-8.25,6.71-12,7.72,6.06,1.59,13.43.43,21.28-7.72,0,0,0-33.85,5.39-43.08,0,0,14.62-70,13.85-87.71C832.32,554.45,870.84,500.54,887.6,477.76Z" transform="translate(-98.02 -109)"/>
      <path id="Path_139" data-name="Path 139" d="M988.33,626s-8.46-50-36.93-68.47c0,0,2.69-62.54,10.79-97.36,1.58-6.78,3.35-12.5,5.36-16.51L842.92,429s-.29.34-.82,1l116.23,13.63c-2,4-3.79,9.73-5.36,16.51-8.1,34.81-10.79,97.36-10.79,97.36C970.64,576,979.1,626,979.1,626c0,13.08,20,61.55,20,61.55-3.17,4.08-15.17,5.22-24.49,5.47,7.39.19,29.26.26,33.72-5.47C1008.34,687.56,988.33,639.08,988.33,626Z" transform="translate(-98.02 -109)"/>
    </g>
    <path id="Path_140" data-name="Path 140" class="cls-10" d="M819.07,418.28a27.861,27.861,0,0,1-3.65,6.37c-4.63,6.23-14.25,14.48-31.87,12.22a7.57,7.57,0,0,1-5.2-11.89c4.52-6.3,12-14.09,23.2-17.78a41.791,41.791,0,0,1,9.82-2Z" transform="translate(-98.02 -109)"/>
    <path id="Path_141" data-name="Path 141" class="cls-14" d="M981.55,203.11l-61.7-22.57s-17.7,9.23-10.77,22.31l60,37.7Z" transform="translate(-98.02 -109)"/>
    <path id="Path_142" data-name="Path 142" class="cls-3" d="M981.55,203.11l-61.7-22.57s-17.7,9.23-10.77,22.31l60,37.7Z" transform="translate(-98.02 -109)"/>
    <path id="Path_143" data-name="Path 143" class="cls-10" d="M983.72,165.92s-.77,36.16,15.39,48.47-46.93,19.23-46.93,19.23,10-36.93,0-56.16S983.72,165.92,983.72,165.92Z" transform="translate(-98.02 -109)"/>
    <path id="Path_144" data-name="Path 144" class="cls-3" d="M966.79,443.66c-2,4-3.79,9.73-5.36,16.51-74.41,11.36-126.2-19.59-126.2-19.59-.28-.45-.55-.89-.8-1.33,4.65-6.66,7.72-10.21,7.72-10.21Z" transform="translate(-98.02 -109)"/>
    <path id="Path_145" data-name="Path 145" class="cls-3" d="M819.07,418.28a27.861,27.861,0,0,1-3.65,6.37c-7.12-1.18-12.82-14.8-13.87-17.46a41.791,41.791,0,0,1,9.82-2Z" transform="translate(-98.02 -109)"/>
    <path id="Path_146" data-name="Path 146" class="cls-14" d="M989.87,198.23l-27.7,10-11.54,15.39s-23.85,7.69-26.93,7.69-11.54,3.08-16.93,15.39S882.16,319,865.23,329s-61.55,77-61.55,77,7.69,20.77,16.93,17.7L842.15,406s-16.93,16.93-6.92,32.31c0,0,63.09,37.7,150,14.62l.77-23.08,3.85,18.46L1033,421.35s-3.86-49.66-10.81-74.94a45.66,45.66,0,0,1,3-31.84c11.17-23.28,28.41-62.16,26.31-76.34-2.48-16.71-11.92-24-15.52-26.16a6.431,6.431,0,0,0-2.71-.9l-14.08-1.41Z" transform="translate(-98.02 -109)"/>
    <path id="Path_147" data-name="Path 147" class="cls-15" d="M942.55,275.56s-15.39,71.55-32.31,83.09-62.32,48.47-63.86,54.63" transform="translate(-98.02 -109)"/>
    <path id="Path_148" data-name="Path 148" class="cls-14" d="M935.63,273.25s-15.39,71.55-32.31,83.09S841,404.81,839.46,411" transform="translate(-98.02 -109)"/>
    <path id="Path_149" data-name="Path 149" class="cls-3" d="M950.25,223.24s53.09-17.7,68.47-13.08" transform="translate(-98.02 -109)"/>
    <g id="Group_8" data-name="Group 8" class="cls-13">
      <path id="Path_150" data-name="Path 150" d="M1025.11,314.58c11.17-23.28,28.41-62.16,26.31-76.34-2.48-16.71-11.92-24-15.52-26.16a6.429,6.429,0,0,0-2.71-.9l-6-.6a6.321,6.321,0,0,1,1.78.73c3.6,2.2,13,9.45,15.52,26.16,2.1,14.17-15.14,53.06-26.31,76.34a45.66,45.66,0,0,0-3,31.84c7,25.28,10.81,74.94,10.81,74.94l-37.1,23.19.94,4.51L1033,421.35s-3.86-49.66-10.81-74.94a45.661,45.661,0,0,1,2.92-31.83Z" transform="translate(-98.02 -109)"/>
      <path id="Path_151" data-name="Path 151" d="M914.16,100.01l6.67.66L891.85,89.23l-2.6.94Z"/>
    </g>
    <path id="Path_152" data-name="Path 152" class="cls-15" d="M935.63,347.88s23.85-13.08,31.54-10,36.16-.77,36.16-.77" transform="translate(-98.02 -109)"/>
    <path id="Path_153" data-name="Path 153" class="cls-15" d="M981,175.54c-.88-7.71,2.69-6.54,2.69-6.54s-41.55-7.69-31.54,11.54c2.5,4.82,3.75,10.74,4.22,16.92h.39C968.38,197.47,975.11,184.56,981,175.54Z" transform="translate(-98.02 -109)"/>
    <circle id="Ellipse_28" data-name="Ellipse 28" class="cls-10" cx="33.08" cy="33.08" r="33.08" transform="translate(825.69 19.22)"/>
    <path id="Path_154" data-name="Path 154" class="cls-3" d="M992.89,171.09c3-6.58,5.2-13.72,4.83-21s-3.6-14.57-9.6-18.61c-3.1-2.09-6.76-3.21-10-5.11-2.51-1.49-4.73-3.42-7.12-5.1a40.33,40.33,0,0,0-40.28-2.93c-6.07,3-11.25,7.59-17,11.23s-12.48,6.45-19.19,5.37c-1.15,3.2,1.68,6.36,4.29,8.55,4.95,4.15,10.56,8.29,17,8.43,2.5.06,5.13-.48,7.4.57A10.62,10.62,0,0,1,927,156a68.762,68.762,0,0,1,7.85,13.31c.86,1.93,1.74,4,3.52,5.17,3,1.9,6.83.32,10.35.18,5.48-.21,10.4,3.23,14.46,6.93s7.91,7.9,13,9.85c3.82,1.45,11.46,1.4,13.41-3.17.73-1.72-.67-5.41-.38-7.52C989.75,177.42,991.49,174.16,992.89,171.09Z" transform="translate(-98.02 -109)"/>
    <path id="Path_155" data-name="Path 155" class="cls-16" d="M993.66,170.32c3-6.58,5.2-13.72,4.83-21s-3.6-14.57-9.6-18.61c-3.1-2.09-6.76-3.21-10-5.11-2.51-1.49-4.73-3.42-7.12-5.1a40.33,40.33,0,0,0-40.28-2.93c-6.07,3-11.25,7.59-17,11.23s-12.48,6.45-19.19,5.37c-1.15,3.2,1.68,6.36,4.29,8.55,4.95,4.15,10.56,8.29,17,8.43,2.5.06,5.13-.48,7.4.57a10.619,10.619,0,0,1,3.78,3.51,68.759,68.759,0,0,1,7.85,13.31c.86,1.93,1.74,4,3.52,5.17,3,1.9,6.83.32,10.35.18,5.48-.21,10.4,3.23,14.46,6.93s7.91,7.9,13,9.85c3.82,1.45,11.46,1.4,13.41-3.17.73-1.72-.67-5.41-.38-7.52C990.52,176.66,992.26,173.39,993.66,170.32Z" transform="translate(-98.02 -109)"/>
    <path id="Path_156" data-name="Path 156" class="cls-2" d="M676.74,578.51H153.31V251.54h66.94l27.54,34.02H676.74Z"/>
    <path id="Path_157" data-name="Path 157" class="cls-17" d="M281,720.13s-22.57-4.51-28.59-10.53-33.1-16.55-36.11-9-40.62,33.1-15,37.62,60.18,6,67.71,3S281,720.13,281,720.13Z" transform="translate(-98.02 -109)"/>
    <path id="Path_158" data-name="Path 158" class="cls-18" d="M201.26,735.39c25.58,4.51,60.18,6,67.71,3,5.73-2.29,9.71-13.3,11.28-18.43l.75.16s-4.51,18.06-12,21.06-42.13,1.5-67.71-3c-7.38-1.3-9.49-4.36-8.7-8.24C193.19,732.48,195.76,734.42,201.26,735.39Z" transform="translate(-98.02 -109)"/>
    <path id="Path_159" data-name="Path 159" class="cls-17" d="M747.38,761.49s-34.43-6.89-43.62-16.07-50.5-25.25-55.09-13.77-62,50.5-23,57.39,91.82,9.18,103.3,4.59S747.38,761.49,747.38,761.49Z" transform="translate(-98.02 -109)"/>
    <path id="Path_160" data-name="Path 160" class="cls-18" d="M625.72,784.77c39,6.89,91.82,9.18,103.3,4.59,8.74-3.5,14.82-20.3,17.22-28.11l1.15.24S740.5,789,729,793.62s-64.28,2.3-103.3-4.59c-11.27-2-14.49-6.66-13.27-12.56C613.41,780.32,617.33,783.29,625.72,784.77Z" transform="translate(-98.02 -109)"/>
    <rect id="Rectangle_41" data-name="Rectangle 41" class="cls-3" width="116" height="20" transform="translate(351.98 405.02)"/>
    <path id="Path_163" data-name="Path 163" class="cls-2" d="M2.72,11.719H9.1V-27.655H2.72Zm15.252,0h6.057V-5.156h3.029v-5.625H24.029V-27.655H17.972v16.874H14.943v5.625h3.029ZM34.414-22.03h6.166V-33.28H34.414Zm9.3,33.749H59.293A7.118,7.118,0,0,0,66.216,4.8a6.834,6.834,0,0,0-6.923-6.923H50.531a1.76,1.76,0,0,1-1.839-1.839A1.8,1.8,0,0,1,50.531-5.7H63.4v-5.084H49.99a7.043,7.043,0,0,0-6.923,6.923A6.9,6.9,0,0,0,49.99,3.065h8.762A1.736,1.736,0,0,1,60.591,4.8a1.76,1.76,0,0,1-1.839,1.839H43.716Zm42.4,0H101.7A7.118,7.118,0,0,0,108.618,4.8,6.834,6.834,0,0,0,101.7-2.127H92.933a1.76,1.76,0,0,1-1.839-1.839A1.8,1.8,0,0,1,92.933-5.7h12.872v-5.084H92.393A7.043,7.043,0,0,0,85.47-3.858a6.9,6.9,0,0,0,6.923,6.923h8.762A1.736,1.736,0,0,1,102.993,4.8a1.76,1.76,0,0,1-1.839,1.839H86.119Zm38.725.541A12.1,12.1,0,0,0,136.958.469c0-7.031-5.084-11.79-12.115-11.79A12.1,12.1,0,0,0,112.728.469C112.728,7.5,117.812,12.259,124.843,12.259Zm0-5.625A6.005,6.005,0,0,1,118.786.469,5.941,5.941,0,0,1,124.843-5.7,5.88,5.88,0,0,1,130.9.469,5.941,5.941,0,0,1,124.843,6.635Zm44.133,5.625A11.689,11.689,0,0,0,177.306,8.8l-3.678-3.786c-1.623,1.514-2.7,2.055-4.651,2.055a6.206,6.206,0,0,1-6.166-4.543h18.281V.469c-.433-7.356-5.084-11.79-12.115-11.79A12.1,12.1,0,0,0,156.862.469C156.862,7.5,161.946,12.259,168.977,12.259ZM162.919-2.127a6.239,6.239,0,0,1,6.057-4.327,6.151,6.151,0,0,1,6.166,4.327Zm22.986,13.846h6.057V.469A5.941,5.941,0,0,1,198.02-5.7,5.88,5.88,0,0,1,204.078.469v11.25h6.057V.469A5.88,5.88,0,0,1,216.193-5.7,5.941,5.941,0,0,1,222.25.469v11.25h6.057V.469c0-7.031-4.976-11.79-12.007-11.79a12.6,12.6,0,0,0-8.978,3.786,12.033,12.033,0,0,0-9.194-3.786c-6.166,0-12.223,4.759-12.223,11.79Zm48.244,11.25h6.057V10.312a10.577,10.577,0,0,0,6.382,1.947A11.889,11.889,0,0,0,258.379.469c0-7.031-5.084-11.79-12.115-11.79A12.1,12.1,0,0,0,234.149.469ZM246.264,6.635A6.005,6.005,0,0,1,240.206.469,5.941,5.941,0,0,1,246.264-5.7,5.88,5.88,0,0,1,252.321.469,5.941,5.941,0,0,1,246.264,6.635Zm19.687,5.084h6.057V-5.156h3.029v-5.625h-3.029V-27.655h-6.057v16.874h-3.029v5.625h3.029Zm15.793,11.25h5.841L301.43-10.781h-6.057L289.424,4.9l-6.166-15.685H277.2l9.194,22.5ZM320.9,11.719h6.057V.469A5.941,5.941,0,0,1,333.016-5.7,5.88,5.88,0,0,1,339.073.469v11.25h6.057V.469c0-7.031-4.759-11.79-11.574-11.79-2.812,0-5.3.974-6.6,2.488V-27.655H320.9Zm41.1.541A11.689,11.689,0,0,0,370.334,8.8l-3.678-3.786c-1.623,1.514-2.7,2.055-4.651,2.055a6.206,6.206,0,0,1-6.166-4.543H374.12V.469c-.433-7.356-5.084-11.79-12.115-11.79A12.1,12.1,0,0,0,349.89.469C349.89,7.5,354.974,12.259,362.005,12.259ZM355.948-2.127a6.239,6.239,0,0,1,6.058-4.327,6.151,6.151,0,0,1,6.166,4.327Zm22.986,13.846h6.057V-2.344A2.668,2.668,0,0,1,387.8-5.156h1.731v-5.625h-2.163a8.123,8.123,0,0,0-8.437,8.437Zm26.61.541A11.689,11.689,0,0,0,413.873,8.8l-3.678-3.786c-1.623,1.514-2.7,2.055-4.651,2.055a6.206,6.206,0,0,1-6.166-4.543h18.281V.469c-.433-7.356-5.084-11.79-12.115-11.79A12.1,12.1,0,0,0,393.429.469C393.429,7.5,398.513,12.259,405.544,12.259ZM399.486-2.127a6.239,6.239,0,0,1,6.058-4.327,6.151,6.151,0,0,1,6.166,4.327Zm28.232,14.387a3.732,3.732,0,1,0-3.732-3.732A3.739,3.739,0,0,0,427.718,12.259Zm15.252,0a3.732,3.732,0,1,0-3.732-3.732A3.739,3.739,0,0,0,442.97,12.259Zm15.252,0a3.732,3.732,0,1,0-3.732-3.732A3.739,3.739,0,0,0,458.222,12.259Z" transform="translate(20.875 -48.013)"/>
    <path id="Path_164" data-name="Path 164" class="cls-19" d="M.4,7.8H5.189l1.7-4.219h16.55L25.227,7.8h4.705L17.277-21.734H13.058ZM8.677-.641l6.49-15.576L21.658-.641ZM33.178,7.8h4.543v-29.53H33.178Zm10.06,0h4.543v-29.53H43.237Zm22.553,0h4.543V-4.86h2.272V-9.079H70.334v-6.328a2,2,0,0,1,2.109-2.109h.365v-4.219h-.69a6.093,6.093,0,0,0-6.328,6.328v6.328H63.519V-4.86h2.272ZM79.38-16.542a2.805,2.805,0,0,0,2.758-2.839A2.736,2.736,0,0,0,79.38-22.14a2.805,2.805,0,0,0-2.839,2.758A2.874,2.874,0,0,0,79.38-16.542ZM77.027,7.8H81.57V-9.079H77.027Zm10.222,0h4.543v-29.53H87.249Zm18.173.406a8.767,8.767,0,0,0,6.247-2.6L108.91,2.766a4.468,4.468,0,0,1-3.488,1.541A4.655,4.655,0,0,1,100.8.9h13.71V-.641c-.325-5.517-3.813-8.843-9.086-8.843A9.075,9.075,0,0,0,96.335-.641C96.335,4.632,100.148,8.2,105.421,8.2Zm-4.543-10.79a4.679,4.679,0,0,1,4.543-3.245,4.613,4.613,0,0,1,4.624,3.245ZM118.6,7.8h11.682A5.338,5.338,0,0,0,135.479,2.6a5.125,5.125,0,0,0-5.192-5.192h-6.571a1.32,1.32,0,0,1-1.379-1.379,1.352,1.352,0,0,1,1.379-1.3h9.654V-9.079H123.31a5.283,5.283,0,0,0-5.192,5.192,5.176,5.176,0,0,0,5.192,5.192h6.571a1.3,1.3,0,0,1,1.379,1.3,1.32,1.32,0,0,1-1.379,1.379H118.6Zm41.132.406A9.031,9.031,0,0,0,168.9-.641V-9.079H164.36V-.641a4.456,4.456,0,0,1-4.543,4.624,4.5,4.5,0,0,1-4.543-4.624V-9.079h-4.543V-.641C150.731,4.632,154.463,8.2,159.736,8.2Zm14.36,8.032h4.543V6.741a7.933,7.933,0,0,0,4.786,1.46,8.916,8.916,0,0,0,8.843-8.843c0-5.273-3.813-8.843-9.086-8.843A9.075,9.075,0,0,0,174.1-.641Zm9.086-12.25a4.5,4.5,0,0,1-4.543-4.624,4.456,4.456,0,0,1,4.543-4.624,4.41,4.41,0,0,1,4.543,4.624A4.456,4.456,0,0,1,183.182,3.983ZM196.811,7.8h4.543v-29.53h-4.543Zm18.172.406A9.075,9.075,0,0,0,224.07-.641c0-5.273-3.813-8.843-9.086-8.843A9.075,9.075,0,0,0,205.9-.641C205.9,4.632,209.71,8.2,214.984,8.2Zm0-4.219a4.5,4.5,0,0,1-4.543-4.624,4.456,4.456,0,0,1,4.543-4.624,4.41,4.41,0,0,1,4.543,4.624A4.456,4.456,0,0,1,214.984,3.983ZM235.509,8.2a6.927,6.927,0,0,0,5.03-1.866V7.8H245V-.641c0-5.273-3.813-8.843-9.086-8.843a9.075,9.075,0,0,0-9.086,8.843C226.828,4.632,230.4,8.2,235.509,8.2Zm.406-4.219a4.5,4.5,0,0,1-4.543-4.624,4.456,4.456,0,0,1,4.543-4.624,4.41,4.41,0,0,1,4.543,4.624A4.456,4.456,0,0,1,235.915,3.983ZM257.657,8.2a9.075,9.075,0,0,0,9.086-8.843V-21.734H262.2v13.71a7.932,7.932,0,0,0-4.786-1.46A8.916,8.916,0,0,0,248.57-.641C248.57,4.632,252.383,8.2,257.657,8.2Zm0-4.219a4.5,4.5,0,0,1-4.543-4.624,4.456,4.456,0,0,1,4.543-4.624A4.41,4.41,0,0,1,262.2-.641,4.456,4.456,0,0,1,257.657,3.983ZM279.885,8.2a8.767,8.767,0,0,0,6.247-2.6l-2.758-2.839a4.468,4.468,0,0,1-3.488,1.541A4.655,4.655,0,0,1,275.261.9h13.71V-.641c-.324-5.517-3.813-8.843-9.086-8.843A9.075,9.075,0,0,0,270.8-.641C270.8,4.632,274.612,8.2,279.885,8.2Zm-4.543-10.79a4.679,4.679,0,0,1,4.543-3.245,4.613,4.613,0,0,1,4.624,3.245ZM300.857,8.2a9.075,9.075,0,0,0,9.086-8.843V-21.734H305.4v13.71a7.932,7.932,0,0,0-4.786-1.46,8.916,8.916,0,0,0-8.843,8.843C291.771,4.632,295.584,8.2,300.857,8.2Zm0-4.219a4.5,4.5,0,0,1-4.543-4.624,4.456,4.456,0,0,1,4.543-4.624A4.41,4.41,0,0,1,305.4-.641,4.456,4.456,0,0,1,300.857,3.983Zm34.4,4.219a9.075,9.075,0,0,0,9.086-8.843c0-5.273-3.57-8.843-8.681-8.843a6.594,6.594,0,0,0-4.949,1.866V-21.734h-4.543V-.641C326.169,4.632,329.982,8.2,335.255,8.2Zm0-4.219a4.5,4.5,0,0,1-4.543-4.624,4.456,4.456,0,0,1,4.543-4.624A4.41,4.41,0,0,1,339.8-.641,4.456,4.456,0,0,1,335.255,3.983Zm13.386,12.25h4.381L363.406-9.079h-4.543L354.4,2.685,349.777-9.079h-4.543l6.9,16.874Zm30.179,0H383.2L393.585-9.079h-4.543L384.58,2.685,379.956-9.079h-4.543l6.9,16.874ZM403.564,8.2A9.075,9.075,0,0,0,412.65-.641c0-5.273-3.813-8.843-9.086-8.843a9.075,9.075,0,0,0-9.086,8.843C394.478,4.632,398.291,8.2,403.564,8.2Zm0-4.219a4.5,4.5,0,0,1-4.543-4.624,4.456,4.456,0,0,1,4.543-4.624,4.41,4.41,0,0,1,4.543,4.624A4.456,4.456,0,0,1,403.564,3.983ZM426.036,8.2A9.031,9.031,0,0,0,435.2-.641V-9.079H430.66V-.641a4.456,4.456,0,0,1-4.543,4.624,4.5,4.5,0,0,1-4.543-4.624V-9.079h-4.543V-.641C417.031,4.632,420.763,8.2,426.036,8.2ZM440.4,7.8h4.543V-2.751a2,2,0,0,1,2.109-2.109h1.3V-9.079h-1.623A6.092,6.092,0,0,0,440.4-2.751Zm24.338,0h4.543V-4.86h2.272V-9.079h-2.272V-21.734h-4.543V-9.079h-2.272V-4.86h2.272Zm18.984.406a8.767,8.767,0,0,0,6.247-2.6l-2.758-2.839a4.468,4.468,0,0,1-3.488,1.541A4.655,4.655,0,0,1,479.093.9H492.8V-.641c-.325-5.517-3.813-8.843-9.086-8.843a9.075,9.075,0,0,0-9.086,8.843C474.631,4.632,478.444,8.2,483.718,8.2Zm-4.543-10.79a4.679,4.679,0,0,1,4.543-3.245,4.613,4.613,0,0,1,4.624,3.245ZM504.283,8.2a6.927,6.927,0,0,0,5.03-1.866V7.8h4.462V-.641c0-5.273-3.813-8.843-9.086-8.843A9.075,9.075,0,0,0,495.6-.641C495.6,4.632,499.172,8.2,504.283,8.2Zm.406-4.219a4.5,4.5,0,0,1-4.543-4.624,4.456,4.456,0,0,1,4.543-4.624,4.41,4.41,0,0,1,4.543,4.624A4.456,4.456,0,0,1,504.689,3.983ZM518.156,7.8H522.7V-.641a4.456,4.456,0,0,1,4.543-4.624,4.41,4.41,0,0,1,4.543,4.624V7.8h4.543V-.641a4.41,4.41,0,0,1,4.543-4.624,4.456,4.456,0,0,1,4.543,4.624V7.8h4.543V-.641c0-5.273-3.732-8.843-9.005-8.843a9.45,9.45,0,0,0-6.734,2.839,9.025,9.025,0,0,0-6.9-2.839,9.031,9.031,0,0,0-9.167,8.843ZM7.055,60.529h3.894l2.758-7.383,2.677,7.383h3.894l6.734-16.874h-4.3L18.169,55.9l-4.056-12.25H10.056l1.785,4.705L9.083,55.9,4.54,43.654H.24ZM32.61,36.19a2.805,2.805,0,0,0,2.758-2.839,2.736,2.736,0,0,0-2.758-2.758,2.805,2.805,0,0,0-2.839,2.758A2.874,2.874,0,0,0,32.61,36.19ZM30.257,60.529H34.8V43.654H30.257Zm10.222,0h4.543V31H40.479Zm10.06,0h4.543V31H50.539Zm20.931,0H83.152a5.338,5.338,0,0,0,5.192-5.192,5.125,5.125,0,0,0-5.192-5.192H76.581A1.32,1.32,0,0,1,75.2,48.765a1.352,1.352,0,0,1,1.379-1.3h9.654V43.654H76.175a5.283,5.283,0,0,0-5.192,5.192,5.176,5.176,0,0,0,5.192,5.192h6.571a1.3,1.3,0,0,1,1.379,1.3,1.32,1.32,0,0,1-1.379,1.379H71.47Zm21.093,0h4.543V52.091a4.456,4.456,0,0,1,4.543-4.624,4.41,4.41,0,0,1,4.543,4.624v8.437h4.543V52.091c0-5.273-3.57-8.843-8.681-8.843a6.594,6.594,0,0,0-4.949,1.866V31H92.563Zm30.828.406a9.075,9.075,0,0,0,9.086-8.843c0-5.273-3.813-8.843-9.086-8.843a9.075,9.075,0,0,0-9.086,8.843C114.3,57.365,118.118,60.934,123.391,60.934Zm0-4.219a4.5,4.5,0,0,1-4.543-4.624,4.456,4.456,0,0,1,4.543-4.624,4.41,4.41,0,0,1,4.543,4.624A4.456,4.456,0,0,1,123.391,56.716Zm16.793,3.813h3.894l2.758-7.383,2.677,7.383h3.894l6.734-16.874h-4.3L151.3,55.9l-4.056-12.25h-4.056l1.785,4.705L142.213,55.9l-4.543-12.25h-4.3Zm43.241.406a9.031,9.031,0,0,0,9.167-8.843V43.654h-4.543v8.437a4.456,4.456,0,0,1-4.543,4.624,4.5,4.5,0,0,1-4.543-4.624V43.654H174.42v8.437C174.42,57.365,178.152,60.934,183.425,60.934Zm14.36,8.032h4.543V59.474a7.933,7.933,0,0,0,4.786,1.46,8.916,8.916,0,0,0,8.843-8.843c0-5.273-3.813-8.843-9.086-8.843a9.075,9.075,0,0,0-9.086,8.843Zm9.086-12.25a4.5,4.5,0,0,1-4.543-4.624,4.456,4.456,0,0,1,4.543-4.624,4.41,4.41,0,0,1,4.543,4.624A4.456,4.456,0,0,1,206.871,56.716Zm27.5-20.525a2.805,2.805,0,0,0,2.758-2.839,2.736,2.736,0,0,0-2.758-2.758,2.805,2.805,0,0,0-2.839,2.758A2.874,2.874,0,0,0,234.373,36.19ZM232.02,60.529h4.543V43.654H232.02Zm10.06,0h4.543V52.091a4.456,4.456,0,0,1,4.543-4.624,4.41,4.41,0,0,1,4.543,4.624v8.437h4.543V52.091c0-5.273-3.732-8.843-9.005-8.843a9.031,9.031,0,0,0-9.167,8.843Zm36.02,0h4.543V47.873h2.272V43.654h-2.272V31H278.1V43.654h-2.272v4.219H278.1Zm11.033,0h4.543V52.091a4.456,4.456,0,0,1,4.543-4.624,4.41,4.41,0,0,1,4.543,4.624v8.437h4.543V52.091c0-5.273-3.57-8.843-8.681-8.843a6.594,6.594,0,0,0-4.949,1.866V31h-4.543ZM315.176,36.19a2.805,2.805,0,0,0,2.758-2.839,2.736,2.736,0,0,0-2.758-2.758,2.805,2.805,0,0,0-2.839,2.758A2.874,2.874,0,0,0,315.176,36.19Zm-2.353,24.338h4.543V43.654h-4.543Zm9.735,0h11.682a5.338,5.338,0,0,0,5.192-5.192,5.125,5.125,0,0,0-5.192-5.192h-6.571a1.32,1.32,0,0,1-1.379-1.379,1.352,1.352,0,0,1,1.379-1.3h9.654V43.654h-10.06a5.283,5.283,0,0,0-5.192,5.192,5.176,5.176,0,0,0,5.192,5.192h6.571a1.3,1.3,0,0,1,1.379,1.3,1.32,1.32,0,0,1-1.379,1.379H322.558Zm32.126,8.437h4.543V59.474a7.933,7.933,0,0,0,4.786,1.46,8.916,8.916,0,0,0,8.843-8.843c0-5.273-3.813-8.843-9.086-8.843a9.075,9.075,0,0,0-9.086,8.843Zm9.086-12.25a4.5,4.5,0,0,1-4.543-4.624,4.456,4.456,0,0,1,4.543-4.624,4.41,4.41,0,0,1,4.543,4.624A4.456,4.456,0,0,1,363.771,56.716ZM377.4,60.529h4.543V31H377.4Zm17.767.406a6.927,6.927,0,0,0,5.03-1.866v1.46h4.462V52.091c0-5.273-3.813-8.843-9.086-8.843a9.075,9.075,0,0,0-9.086,8.843C386.487,57.365,390.056,60.934,395.167,60.934Zm.406-4.219a4.5,4.5,0,0,1-4.543-4.624,4.456,4.456,0,0,1,4.543-4.624,4.41,4.41,0,0,1,4.543,4.624A4.456,4.456,0,0,1,395.573,56.716Zm21.742,4.219a8.654,8.654,0,0,0,6.247-2.677l-3-2.921a4.747,4.747,0,0,1-3.245,1.379,4.5,4.5,0,0,1-4.543-4.624,4.456,4.456,0,0,1,4.543-4.624,4.873,4.873,0,0,1,3.326,1.3l3-3a8.377,8.377,0,0,0-6.328-2.515,9.075,9.075,0,0,0-9.086,8.843C408.229,57.365,412.042,60.934,417.315,60.934Zm18.01,0a8.767,8.767,0,0,0,6.247-2.6L438.814,55.5a4.468,4.468,0,0,1-3.488,1.541,4.655,4.655,0,0,1-4.624-3.407h13.711V52.091c-.325-5.517-3.813-8.843-9.086-8.843a9.075,9.075,0,0,0-9.086,8.843C426.239,57.365,430.052,60.934,435.325,60.934Zm-4.543-10.79a4.679,4.679,0,0,1,4.543-3.245,4.613,4.613,0,0,1,4.624,3.245Zm21.174,10.79a2.8,2.8,0,1,0-2.8-2.8A2.8,2.8,0,0,0,451.956,60.934Z" transform="translate(20.002 53.262)"/>
  </g>
</svg>
