<svg xmlns="http://www.w3.org/2000/svg" xmlns:xlink="http://www.w3.org/1999/xlink" viewBox="0 0 1003.974 768.316">
  <defs>
    <style>
      .cls-1, .cls-2 {
        fill: #005fd5;
      }

      .cls-1, .cls-3 {
        opacity: 0.1;
      }

      .cls-4 {
        fill: none;
        stroke: #535461;
        stroke-miterlimit: 10;
      }

      .cls-5 {
        fill: #f5f5f5;
      }

      .cls-18, .cls-5 {
        opacity: 0.2;
      }

      .cls-6 {
        fill: #f1f1f4;
      }

      .cls-7 {
        fill: #fff;
      }

      .cls-8 {
        fill: url(#linear-gradient);
      }

      .cls-9 {
        fill: url(#linear-gradient-2);
      }

      .cls-10 {
        fill: #f7bbc3;
      }

      .cls-11 {
        fill: #b77983;
      }

      .cls-12 {
        fill: #8499f0;
      }

      .cls-13, .cls-15 {
        opacity: 0.05;
      }

      .cls-14 {
        fill: #d39999;
      }

      .cls-16 {
        fill: #9b6c7a;
      }

      .cls-17 {
        fill: #a8a8a8;
      }

      .cls-19 {
        fill: #65617d;
      }
    </style>
    <linearGradient id="linear-gradient" x1="0.386" y1="0.622" x2="0.386" y2="-0.378" gradientUnits="objectBoundingBox">
      <stop offset="0" stop-color="gray" stop-opacity="0.251"/>
      <stop offset="0.54" stop-color="gray" stop-opacity="0.122"/>
      <stop offset="1" stop-color="gray" stop-opacity="0.102"/>
    </linearGradient>
    <linearGradient id="linear-gradient-2" x1="0.5" y1="1" x2="0.5" y2="0" xlink:href="#linear-gradient"/>
  </defs>
  <g id="undraw_filing_system_b5d2" transform="translate(-0.002 81.293)">
    <path id="Path_122" data-name="Path 122" class="cls-1" d="M196,630.27c-4.29,9.21,1.85,19.15-.28,28.66-2.69,12-18.11,21.34-34.72,27.3s-35.16,9.58-51.35,16c-7,2.77-14.3,7.88-10.66,12.58,1.26,1.63,3.62,2.77,5.93,3.84,47.16,21.76,105.45,33.58,163.69,33.2,61.6-.41,121.92-14,183.47-12.44,79.38,2,156.16,29.06,234.66,21.26C720.06,757.34,751,747.9,783.45,742c47.72-8.67,97.91-9.54,147.33-12.39,37.11-2.14,79.52-7.69,97.25-28.55,12.82-15.08,7.44-35-10.62-47.77s-46.91-18.23-73.56-15.75c-14.33,1.33-28.57,4.78-42.9,3.41-8.32-.8-16-3.18-23.59-5.52-58.71-18.2-119.53-36.36-184.7-39-106-4.33-204.25,32.55-307.52,48.5-16.08,2.48-33.54,4.39-48.73.23-16-4.39-26.5-14.76-42.53-19.13-7.61-2.08-16.09-2.68-23.57-4.94-20.56-6.22-11-14.77-39.54-9C215.86,615.13,200.8,620,196,630.27Z" transform="translate(-98.02 -109)"/>
    <path id="Path_123" data-name="Path 123" class="cls-2" d="M207.7,316.06s55.76,55.76,24.3,138.5,54,220.33,54,220.33-.92-.13-2.61-.43C168.81,654.24,111.91,523.27,175.59,426,199.26,389.79,218.7,347.36,207.7,316.06Z" transform="translate(-98.02 -109)"/>
    <path id="Path_124" data-name="Path 124" class="cls-3" d="M207.7,316.06s55.76,55.76,24.3,138.5,54,220.33,54,220.33-.92-.13-2.61-.43C168.81,654.24,111.91,523.27,175.59,426,199.26,389.79,218.7,347.36,207.7,316.06Z" transform="translate(-98.02 -109)"/>
    <path id="Path_125" data-name="Path 125" class="cls-4" d="M207.7,316.06s31.48,68.35,0,124.11-5.4,212.24,78.24,234.72" transform="translate(-98.02 -109)"/>
    <path id="Path_126" data-name="Path 126" class="cls-2" d="M108.39,541.58s63.63-10.13,69.43,46.89S300.16,653.4,300.16,653.4s-.76.52-2.19,1.45C201.75,718,109.76,695.09,123.62,611.21,128.78,580,128.35,548.7,108.39,541.58Z" transform="translate(-98.02 -109)"/>
    <path id="Path_127" data-name="Path 127" class="cls-5" d="M108.39,541.58s63.63-10.13,69.43,46.89S300.16,653.4,300.16,653.4s-.76.52-2.19,1.45C201.75,718,109.76,695.09,123.62,611.21,128.78,580,128.35,548.7,108.39,541.58Z" transform="translate(-98.02 -109)"/>
    <path id="Path_128" data-name="Path 128" class="cls-4" d="M108.39,541.58s49.39,10.84,45.33,55.75,73.34,98.74,146.44,56.07" transform="translate(-98.02 -109)"/>
    <path id="Path_129" data-name="Path 129" class="cls-2" d="M676.74,564.63H153.31V237.66h66.94l27.54,34.02H676.74Z"/>
    <path id="Path_130" data-name="Path 130" class="cls-3" d="M676.74,564.63H153.31V237.66h66.94l27.54,34.02H676.74Z"/>
    <rect id="Rectangle_13" data-name="Rectangle 13" class="cls-6" width="250.61" height="390.14" transform="matrix(0.94, -0.34, 0.34, 0.94, 250.718, 187.121)"/>
    <rect id="Rectangle_14" data-name="Rectangle 14" class="cls-7" width="70.81" height="16.66" transform="matrix(0.94, -0.34, 0.34, 0.94, 295.21, 211.822)"/>
    <rect id="Rectangle_15" data-name="Rectangle 15" class="cls-7" width="155.5" height="15.27" transform="translate(322.754 250.997) rotate(-19.65)"/>
    <rect id="Rectangle_16" data-name="Rectangle 16" class="cls-7" width="155.5" height="15.27" transform="translate(333.729 281.729) rotate(-19.65)"/>
    <rect id="Rectangle_17" data-name="Rectangle 17" class="cls-7" width="155.5" height="15.27" transform="translate(344.694 312.46) rotate(-19.65)"/>
    <rect id="Rectangle_18" data-name="Rectangle 18" class="cls-7" width="155.5" height="15.27" transform="translate(355.668 343.181) rotate(-19.65)"/>
    <rect id="Rectangle_19" data-name="Rectangle 19" class="cls-7" width="155.5" height="15.27" transform="translate(366.64 373.903) rotate(-19.65)"/>
    <rect id="Rectangle_20" data-name="Rectangle 20" class="cls-7" width="155.5" height="15.27" transform="translate(377.614 404.635) rotate(-19.65)"/>
    <rect id="Rectangle_21" data-name="Rectangle 21" class="cls-7" width="40.26" height="40.26" transform="translate(514.663 416.877) rotate(-19.65)"/>
    <rect id="Rectangle_22" data-name="Rectangle 22" class="cls-8" width="258.63" height="402.63" transform="translate(70.73 344.564) rotate(-59.28)"/>
    <rect id="Rectangle_23" data-name="Rectangle 23" class="cls-6" width="250.61" height="390.14" transform="translate(78.152 344.31) rotate(-59.28)"/>
    <rect id="Rectangle_24" data-name="Rectangle 24" class="cls-7" width="70.81" height="16.66" transform="translate(127.992 335.172) rotate(-59.28)"/>
    <rect id="Rectangle_25" data-name="Rectangle 25" class="cls-7" width="155.5" height="15.27" transform="translate(173.279 345.927) rotate(-59.28)"/>
    <rect id="Rectangle_26" data-name="Rectangle 26" class="cls-7" width="155.5" height="15.27" transform="translate(201.329 362.599) rotate(-59.28)"/>
    <rect id="Rectangle_27" data-name="Rectangle 27" class="cls-7" width="155.5" height="15.27" transform="translate(229.268 378.822) rotate(-59.331)"/>
    <rect id="Rectangle_28" data-name="Rectangle 28" class="cls-7" width="155.5" height="15.27" transform="translate(257.42 395.927) rotate(-59.28)"/>
    <rect id="Rectangle_29" data-name="Rectangle 29" class="cls-7" width="155.5" height="15.27" transform="translate(285.469 412.599) rotate(-59.28)"/>
    <rect id="Rectangle_30" data-name="Rectangle 30" class="cls-7" width="155.5" height="15.27" transform="translate(313.529 429.271) rotate(-59.28)"/>
    <rect id="Rectangle_31" data-name="Rectangle 31" class="cls-7" width="40.26" height="40.26" transform="translate(426.582 350.743) rotate(-59.331)"/>
    <path id="Path_131" data-name="Path 131" class="cls-9" d="M1056.2,236.09a6.44,6.44,0,0,0-.15-1.41q-.15-.67-.26-1.55-.28-1.52-.64-2.94-.18-.71-.37-1.39a37.43,37.43,0,0,0-7.51-14.29l-.6-.68q-.6-.66-1.19-1.25t-1.16-1.09c-.38-.34-.75-.65-1.11-.95a22.332,22.332,0,0,0-2-1.47c-.62-.4-.84-.55-1.19-.76a6.73,6.73,0,0,0-2.8-.91l-6.17-.6h0l-8.34-.82L992.6,194.35l-1.19.42a68.955,68.955,0,0,1-2.23-7.37,6.71,6.71,0,0,0,2.38-1.73,5.42,5.42,0,0,0,1.64-2.09c.76-1.74-.69-5.46-.4-7.58.48-3.41,2.26-6.71,3.71-9.8,3.1-6.64,5.36-13.83,5-21.12s-3.71-14.68-9.9-18.76c-3.2-2.11-7-3.24-10.29-5.16-2.59-1.5-4.87-3.45-7.34-5.14a42.38,42.38,0,0,0-41.53-2.95c-6.26,3.07-11.6,7.65-17.51,11.32s-12.87,6.51-19.78,5.42a4.381,4.381,0,0,0-.21.85l-.58-.07c-1.19,3.23,1.73,6.41,4.42,8.62,5.1,4.18,10.89,8.36,17.55,8.5,2.57.06,5.29-.48,7.63.57a6.83,6.83,0,0,1,1.42.88A32.8,32.8,0,0,0,935.8,182l-15.38-5.5s-.64.33-1.64.95l-21.37-14.13s-42.83-15.51-54.73,8.53,51.56,11.63,51.56,11.63l13.58,7.42a12.261,12.261,0,0,0,1.49,8.09l37,22.74c-7.48,2.29-19.77,6-22,6-3.17,0-11.9,3.1-17.45,15.51s-25.38,72.91-42.83,83-63.46,77.56-63.46,77.56l.21.53q-1.23.32-2.41.71c-11.51,3.72-19.25,11.57-23.92,17.92a7.6,7.6,0,0,0,5.36,12c18.16,2.28,28.08-6,32.85-12.32q.465-.615.87-1.2a6.42,6.42,0,0,0,4.48.2l22.21-17.84s-17.38,17-7.19,32.49l-.77,1.07a246.311,246.311,0,0,0-37.25,80.46s-9.52,7-10.31,34.9-10.31,72.91-10.31,72.91-6.35,53.52-2.38,69.81c0,0,.46.65,1.3,1.64-.3.35-.62.73-1,1.12-3.46,3.72-9.71,8.85-17,7.32-11.11-2.33-11.11,17.06,4.76,18.62,10.22,1,30.29,5.54,43.3,8.64a9.1,9.1,0,0,0,11.31-9.67c-.78-6.95-2.19-15.36-4.76-21.35-.16-.37-.32-.73-.49-1.09.47-.43.93-.88,1.4-1.36,0,0,0-34.13,5.55-43.44,0,0,15.07-70.58,14.28-88.42-.62-14,39.09-68.32,56.38-91.28l-.14-.87c4.42-5.86,7.22-9.46,7.22-9.46l13.48,84.54S914.07,569,922,579.06c0,0,34.11,64.38,38.07,84.54,3,15.29,9.2,24.33,12,27.81-.33.33-.67.66-1,1-3.61,3.29-8.94,6.59-15,5.33-11.07-2.34-11.07,17.05,4.8,18.6,10.22,1,30.29,5.54,43.3,8.64a9.1,9.1,0,0,0,11.31-9.67c-.9-8.07-2.67-18.11-6.09-24q-.43-.75-.9-1.41a8.38,8.38,0,0,0,3.15-2.21S991,638.78,991,625.59c0,0-8.73-50.42-38.07-69,0,0,2.78-63.05,11.13-98.15q.31-1.3.63-2.55c7.51-1.17,15.23-2.74,23.14-4.79l.79-23.27,4,18.62L1037,419.28s-.39-4.89-1.14-12.39c-.38-3.75-.84-8.15-1.4-12.92-.44-3.82-.95-7.87-1.5-12q-.21-1.55-.43-3.12c-.58-4.18-1.22-8.41-1.91-12.55q-.39-2.33-.8-4.61c-.36-2-.74-4-1.13-5.94q-.29-1.45-.6-2.86t-.62-2.76q-.31-1.35-.63-2.65l-.32-1.28q-.33-1.26-.66-2.46a44.176,44.176,0,0,1-1.61-10.17q-.08-2,0-4.1a33.557,33.557,0,0,1,.4-4.08q.14-1,.34-2a45.926,45.926,0,0,1,2.25-7.92q.74-1.93,1.66-3.81c1.44-2.93,3-6.11,4.56-9.46q1.19-2.51,2.4-5.13t2.44-5.32c7.72-17.1,15.34-36.16,17.38-48.67.21-1.32.37-2.56.45-3.73A24.731,24.731,0,0,0,1056.2,236.09Z" transform="translate(-98.02 -109)"/>
    <path id="Path_132" data-name="Path 132" class="cls-10" d="M923.71,185.16l-26.16-17.7s-41.55-15.39-53.09,8.46,50,11.54,50,11.54l26.16,14.62Z" transform="translate(-98.02 -109)"/>
    <rect id="Rectangle_32" data-name="Rectangle 32" class="cls-6" width="250.61" height="390.14" transform="matrix(0.536, -0.844, 0.844, 0.536, 540.283, 215.856)"/>
    <rect id="Rectangle_33" data-name="Rectangle 33" class="cls-7" width="70.81" height="16.66" transform="matrix(0.536, -0.844, 0.844, 0.536, 590.375, 208.21)"/>
    <rect id="Rectangle_34" data-name="Rectangle 34" class="cls-7" width="155.5" height="15.27" transform="matrix(0.536, -0.844, 0.844, 0.536, 635.327, 220.315)"/>
    <rect id="Rectangle_35" data-name="Rectangle 35" class="cls-7" width="155.5" height="15.27" transform="matrix(0.536, -0.844, 0.844, 0.536, 662.868, 237.809)"/>
    <rect id="Rectangle_36" data-name="Rectangle 36" class="cls-7" width="155.5" height="15.27" transform="matrix(0.536, -0.844, 0.844, 0.536, 690.408, 255.309)"/>
    <rect id="Rectangle_37" data-name="Rectangle 37" class="cls-7" width="155.282" height="15.249" transform="matrix(0.541, -0.841, 0.841, 0.541, 719.614, 277.159)"/>
    <rect id="Rectangle_38" data-name="Rectangle 38" class="cls-7" width="155.5" height="15.27" transform="matrix(0.536, -0.844, 0.844, 0.536, 745.489, 290.303)"/>
    <rect id="Rectangle_39" data-name="Rectangle 39" class="cls-7" width="155.282" height="15.249" transform="matrix(0.541, -0.841, 0.841, 0.541, 774.759, 312.507)"/>
    <rect id="Rectangle_40" data-name="Rectangle 40" class="cls-7" width="40.26" height="40.26" transform="matrix(0.536, -0.844, 0.844, 0.536, 888.669, 233.217)"/>
    <path id="Path_133" data-name="Path 133" class="cls-11" d="M1001.1,724.59c-12.62-3.08-32.09-7.58-42-8.57-15.39-1.54-15.39-20.77-4.62-18.46,5.84,1.25,11-2,14.51-5.29A34,34,0,0,0,972,689a8.89,8.89,0,0,1,5-3c5.77-1.26,17.78-3.16,25.17.82a10.87,10.87,0,0,1,4,4.36c3.32,5.89,5,15.84,5.91,23.85a8.9,8.9,0,0,1-10.98,9.56Z" transform="translate(-98.02 -109)"/>
    <path id="Path_134" data-name="Path 134" class="cls-11" d="M806.45,732.29c-12.62-3.08-32.09-7.58-42-8.57-15.39-1.54-15.39-20.77-4.62-18.46,7,1.52,13.11-3.58,16.46-7.26.41-.45.78-.88,1.1-1.28a8.89,8.89,0,0,1,5-3c5.77-1.26,17.78-3.16,25.17.82,2.16,1.17,3.89,3.73,5.27,7,2.49,5.94,3.86,14.28,4.62,21.17a8.9,8.9,0,0,1-11,9.58Z" transform="translate(-98.02 -109)"/>
    <path id="Path_135" data-name="Path 135" class="cls-3" d="M812.8,701.52c-18.37,18.93-34.12-.35-36.51-3.53.41-.45.78-.88,1.1-1.28a8.89,8.89,0,0,1,5-3c5.77-1.26,17.78-3.16,25.17.82C809.69,695.65,811.42,698.21,812.8,701.52Z" transform="translate(-98.02 -109)"/>
    <path id="Path_136" data-name="Path 136" class="cls-3" d="M1006.16,691.15c-8,5.44-34.75,4.1-34.75,4.1a26.366,26.366,0,0,1-2.42-3A33.994,33.994,0,0,0,972,689a8.89,8.89,0,0,1,5-3c5.77-1.26,17.78-3.16,25.17.82a10.869,10.869,0,0,1,3.99,4.33Z" transform="translate(-98.02 -109)"/>
    <path id="Path_137" data-name="Path 137" class="cls-12" d="M1007.57,687.56c-5.39,6.92-36.16,5.39-36.16,5.39s-9.23-9.23-13.08-29.24-36.93-83.86-36.93-83.86c-7.69-10-13.85-28.47-13.85-28.47l-13.08-83.86s-63.09,83.09-62.32,100.79S818.3,656,818.3,656c-5.39,9.23-5.39,43.08-5.39,43.08-20,20.77-36.93-3.85-36.93-3.85-3.85-16.16,2.31-69.24,2.31-69.24s9.23-44.62,10-72.32,10-34.62,10-34.62a246.783,246.783,0,0,1,36.13-79.81c4.65-6.66,7.72-10.21,7.72-10.21l124.64,14.62c-2,4-3.79,9.73-5.36,16.51-8.1,34.81-10.79,97.36-10.79,97.36C979.1,576,987.56,626,987.56,626,987.56,639.08,1007.57,687.56,1007.57,687.56Z" transform="translate(-98.02 -109)"/>
    <g id="Group_7" data-name="Group 7" class="cls-13">
      <path id="Path_138" data-name="Path 138" d="M887.6,477.76,886,467.51S822.91,550.6,823.68,568.3,809.84,656,809.84,656c-5.39,9.23-5.39,43.08-5.39,43.08-4.19,4.35-8.25,6.71-12,7.72,6.06,1.59,13.43.43,21.28-7.72,0,0,0-33.85,5.39-43.08,0,0,14.62-70,13.85-87.71C832.32,554.45,870.84,500.54,887.6,477.76Z" transform="translate(-98.02 -109)"/>
      <path id="Path_139" data-name="Path 139" d="M988.33,626s-8.46-50-36.93-68.47c0,0,2.69-62.54,10.79-97.36,1.58-6.78,3.35-12.5,5.36-16.51L842.92,429s-.29.34-.82,1l116.23,13.63c-2,4-3.79,9.73-5.36,16.51-8.1,34.81-10.79,97.36-10.79,97.36C970.64,576,979.1,626,979.1,626c0,13.08,20,61.55,20,61.55-3.17,4.08-15.17,5.22-24.49,5.47,7.39.19,29.26.26,33.72-5.47C1008.34,687.56,988.33,639.08,988.33,626Z" transform="translate(-98.02 -109)"/>
    </g>
    <path id="Path_140" data-name="Path 140" class="cls-10" d="M819.07,418.28a27.861,27.861,0,0,1-3.65,6.37c-4.63,6.23-14.25,14.48-31.87,12.22a7.57,7.57,0,0,1-5.2-11.89c4.52-6.3,12-14.09,23.2-17.78a41.791,41.791,0,0,1,9.82-2Z" transform="translate(-98.02 -109)"/>
    <path id="Path_141" data-name="Path 141" class="cls-14" d="M981.55,203.11l-61.7-22.57s-17.7,9.23-10.77,22.31l60,37.7Z" transform="translate(-98.02 -109)"/>
    <path id="Path_142" data-name="Path 142" class="cls-3" d="M981.55,203.11l-61.7-22.57s-17.7,9.23-10.77,22.31l60,37.7Z" transform="translate(-98.02 -109)"/>
    <path id="Path_143" data-name="Path 143" class="cls-10" d="M983.72,165.92s-.77,36.16,15.39,48.47-46.93,19.23-46.93,19.23,10-36.93,0-56.16S983.72,165.92,983.72,165.92Z" transform="translate(-98.02 -109)"/>
    <path id="Path_144" data-name="Path 144" class="cls-3" d="M966.79,443.66c-2,4-3.79,9.73-5.36,16.51-74.41,11.36-126.2-19.59-126.2-19.59-.28-.45-.55-.89-.8-1.33,4.65-6.66,7.72-10.21,7.72-10.21Z" transform="translate(-98.02 -109)"/>
    <path id="Path_145" data-name="Path 145" class="cls-3" d="M819.07,418.28a27.861,27.861,0,0,1-3.65,6.37c-7.12-1.18-12.82-14.8-13.87-17.46a41.791,41.791,0,0,1,9.82-2Z" transform="translate(-98.02 -109)"/>
    <path id="Path_146" data-name="Path 146" class="cls-14" d="M989.87,198.23l-27.7,10-11.54,15.39s-23.85,7.69-26.93,7.69-11.54,3.08-16.93,15.39S882.16,319,865.23,329s-61.55,77-61.55,77,7.69,20.77,16.93,17.7L842.15,406s-16.93,16.93-6.92,32.31c0,0,63.09,37.7,150,14.62l.77-23.08,3.85,18.46L1033,421.35s-3.86-49.66-10.81-74.94a45.66,45.66,0,0,1,3-31.84c11.17-23.28,28.41-62.16,26.31-76.34-2.48-16.71-11.92-24-15.52-26.16a6.431,6.431,0,0,0-2.71-.9l-14.08-1.41Z" transform="translate(-98.02 -109)"/>
    <path id="Path_147" data-name="Path 147" class="cls-15" d="M942.55,275.56s-15.39,71.55-32.31,83.09-62.32,48.47-63.86,54.63" transform="translate(-98.02 -109)"/>
    <path id="Path_148" data-name="Path 148" class="cls-14" d="M935.63,273.25s-15.39,71.55-32.31,83.09S841,404.81,839.46,411" transform="translate(-98.02 -109)"/>
    <path id="Path_149" data-name="Path 149" class="cls-3" d="M950.25,223.24s53.09-17.7,68.47-13.08" transform="translate(-98.02 -109)"/>
    <g id="Group_8" data-name="Group 8" class="cls-13">
      <path id="Path_150" data-name="Path 150" d="M1025.11,314.58c11.17-23.28,28.41-62.16,26.31-76.34-2.48-16.71-11.92-24-15.52-26.16a6.429,6.429,0,0,0-2.71-.9l-6-.6a6.321,6.321,0,0,1,1.78.73c3.6,2.2,13,9.45,15.52,26.16,2.1,14.17-15.14,53.06-26.31,76.34a45.66,45.66,0,0,0-3,31.84c7,25.28,10.81,74.94,10.81,74.94l-37.1,23.19.94,4.51L1033,421.35s-3.86-49.66-10.81-74.94a45.661,45.661,0,0,1,2.92-31.83Z" transform="translate(-98.02 -109)"/>
      <path id="Path_151" data-name="Path 151" d="M914.16,100.01l6.67.66L891.85,89.23l-2.6.94Z"/>
    </g>
    <path id="Path_152" data-name="Path 152" class="cls-15" d="M935.63,347.88s23.85-13.08,31.54-10,36.16-.77,36.16-.77" transform="translate(-98.02 -109)"/>
    <path id="Path_153" data-name="Path 153" class="cls-15" d="M981,175.54c-.88-7.71,2.69-6.54,2.69-6.54s-41.55-7.69-31.54,11.54c2.5,4.82,3.75,10.74,4.22,16.92h.39C968.38,197.47,975.11,184.56,981,175.54Z" transform="translate(-98.02 -109)"/>
    <circle id="Ellipse_28" data-name="Ellipse 28" class="cls-10" cx="33.08" cy="33.08" r="33.08" transform="translate(825.69 19.22)"/>
    <path id="Path_154" data-name="Path 154" class="cls-3" d="M992.89,171.09c3-6.58,5.2-13.72,4.83-21s-3.6-14.57-9.6-18.61c-3.1-2.09-6.76-3.21-10-5.11-2.51-1.49-4.73-3.42-7.12-5.1a40.33,40.33,0,0,0-40.28-2.93c-6.07,3-11.25,7.59-17,11.23s-12.48,6.45-19.19,5.37c-1.15,3.2,1.68,6.36,4.29,8.55,4.95,4.15,10.56,8.29,17,8.43,2.5.06,5.13-.48,7.4.57A10.62,10.62,0,0,1,927,156a68.762,68.762,0,0,1,7.85,13.31c.86,1.93,1.74,4,3.52,5.17,3,1.9,6.83.32,10.35.18,5.48-.21,10.4,3.23,14.46,6.93s7.91,7.9,13,9.85c3.82,1.45,11.46,1.4,13.41-3.17.73-1.72-.67-5.41-.38-7.52C989.75,177.42,991.49,174.16,992.89,171.09Z" transform="translate(-98.02 -109)"/>
    <path id="Path_155" data-name="Path 155" class="cls-16" d="M993.66,170.32c3-6.58,5.2-13.72,4.83-21s-3.6-14.57-9.6-18.61c-3.1-2.09-6.76-3.21-10-5.11-2.51-1.49-4.73-3.42-7.12-5.1a40.33,40.33,0,0,0-40.28-2.93c-6.07,3-11.25,7.59-17,11.23s-12.48,6.45-19.19,5.37c-1.15,3.2,1.68,6.36,4.29,8.55,4.95,4.15,10.56,8.29,17,8.43,2.5.06,5.13-.48,7.4.57a10.619,10.619,0,0,1,3.78,3.51,68.759,68.759,0,0,1,7.85,13.31c.86,1.93,1.74,4,3.52,5.17,3,1.9,6.83.32,10.35.18,5.48-.21,10.4,3.23,14.46,6.93s7.91,7.9,13,9.85c3.82,1.45,11.46,1.4,13.41-3.17.73-1.72-.67-5.41-.38-7.52C990.52,176.66,992.26,173.39,993.66,170.32Z" transform="translate(-98.02 -109)"/>
    <path id="Path_156" data-name="Path 156" class="cls-2" d="M676.74,578.51H153.31V251.54h66.94l27.54,34.02H676.74Z"/>
    <path id="Path_157" data-name="Path 157" class="cls-17" d="M281,720.13s-22.57-4.51-28.59-10.53-33.1-16.55-36.11-9-40.62,33.1-15,37.62,60.18,6,67.71,3S281,720.13,281,720.13Z" transform="translate(-98.02 -109)"/>
    <path id="Path_158" data-name="Path 158" class="cls-18" d="M201.26,735.39c25.58,4.51,60.18,6,67.71,3,5.73-2.29,9.71-13.3,11.28-18.43l.75.16s-4.51,18.06-12,21.06-42.13,1.5-67.71-3c-7.38-1.3-9.49-4.36-8.7-8.24C193.19,732.48,195.76,734.42,201.26,735.39Z" transform="translate(-98.02 -109)"/>
    <path id="Path_159" data-name="Path 159" class="cls-17" d="M747.38,761.49s-34.43-6.89-43.62-16.07-50.5-25.25-55.09-13.77-62,50.5-23,57.39,91.82,9.18,103.3,4.59S747.38,761.49,747.38,761.49Z" transform="translate(-98.02 -109)"/>
    <path id="Path_160" data-name="Path 160" class="cls-18" d="M625.72,784.77c39,6.89,91.82,9.18,103.3,4.59,8.74-3.5,14.82-20.3,17.22-28.11l1.15.24S740.5,789,729,793.62s-64.28,2.3-103.3-4.59c-11.27-2-14.49-6.66-13.27-12.56C613.41,780.32,617.33,783.29,625.72,784.77Z" transform="translate(-98.02 -109)"/>
    <rect id="Rectangle_41" data-name="Rectangle 41" class="cls-3" width="116" height="20" transform="translate(351.98 405.02)"/>
    <path id="Path_163" data-name="Path 163" class="cls-2" d="M2.72,0H7.44V-29.12H2.72ZM14,0h4.48V-12.48h2.24v-4.16H18.48V-29.12H14v12.48H11.76v4.16H14ZM26.16-24.96h4.56v-8.32H26.16ZM33.04,0H44.56a5.264,5.264,0,0,0,5.12-5.12,5.054,5.054,0,0,0-5.12-5.12H38.08a1.3,1.3,0,0,1-1.36-1.36,1.333,1.333,0,0,1,1.36-1.28H47.6v-3.76H37.68a5.209,5.209,0,0,0-5.12,5.12A5.1,5.1,0,0,0,37.68-6.4h6.48a1.284,1.284,0,0,1,1.36,1.28,1.3,1.3,0,0,1-1.36,1.36H33.04ZM64.4,0H75.92a5.264,5.264,0,0,0,5.12-5.12,5.054,5.054,0,0,0-5.12-5.12H69.44a1.3,1.3,0,0,1-1.36-1.36,1.333,1.333,0,0,1,1.36-1.28h9.52v-3.76H69.04a5.209,5.209,0,0,0-5.12,5.12A5.1,5.1,0,0,0,69.04-6.4h6.48a1.284,1.284,0,0,1,1.36,1.28,1.3,1.3,0,0,1-1.36,1.36H64.4ZM93.04.4A8.949,8.949,0,0,0,102-8.32c0-5.2-3.76-8.72-8.96-8.72a8.949,8.949,0,0,0-8.96,8.72C84.08-3.12,87.84.4,93.04.4Zm0-4.16a4.441,4.441,0,0,1-4.48-4.56,4.394,4.394,0,0,1,4.48-4.56,4.349,4.349,0,0,1,4.48,4.56A4.394,4.394,0,0,1,93.04-3.76ZM125.68.4a8.645,8.645,0,0,0,6.16-2.56l-2.72-2.8a4.406,4.406,0,0,1-3.44,1.52,4.59,4.59,0,0,1-4.56-3.36h13.52V-8.32c-.32-5.44-3.76-8.72-8.96-8.72a8.949,8.949,0,0,0-8.96,8.72C116.72-3.12,120.48.4,125.68.4ZM121.2-10.24a4.614,4.614,0,0,1,4.48-3.2,4.549,4.549,0,0,1,4.56,3.2ZM138.2,0h4.48V-8.32a4.394,4.394,0,0,1,4.48-4.56,4.348,4.348,0,0,1,4.48,4.56V0h4.48V-8.32a4.349,4.349,0,0,1,4.48-4.56,4.394,4.394,0,0,1,4.48,4.56V0h4.48V-8.32c0-5.2-3.68-8.72-8.88-8.72a9.319,9.319,0,0,0-6.64,2.8,8.9,8.9,0,0,0-6.8-2.8,8.9,8.9,0,0,0-9.04,8.72Zm35.68,8.32h4.48V-1.04A7.822,7.822,0,0,0,183.08.4a8.793,8.793,0,0,0,8.72-8.72c0-5.2-3.76-8.72-8.96-8.72a8.949,8.949,0,0,0-8.96,8.72Zm8.96-12.08a4.441,4.441,0,0,1-4.48-4.56,4.394,4.394,0,0,1,4.48-4.56,4.348,4.348,0,0,1,4.48,4.56A4.394,4.394,0,0,1,182.84-3.76ZM197.4,0h4.48V-12.48h2.24v-4.16h-2.24V-29.12H197.4v12.48h-2.24v4.16h2.24Zm11.68,8.32h4.32l10.24-24.96h-4.48l-4.4,11.6-4.56-11.6h-4.48L212.52,0ZM238.04,0h4.48V-8.32A4.394,4.394,0,0,1,247-12.88a4.349,4.349,0,0,1,4.48,4.56V0h4.48V-8.32c0-5.2-3.52-8.72-8.56-8.72a6.5,6.5,0,0,0-4.88,1.84V-29.12h-4.48Zm30.4.4a8.645,8.645,0,0,0,6.16-2.56l-2.72-2.8a4.406,4.406,0,0,1-3.44,1.52,4.59,4.59,0,0,1-4.56-3.36H277.4V-8.32c-.32-5.44-3.76-8.72-8.96-8.72a8.949,8.949,0,0,0-8.96,8.72C259.48-3.12,263.24.4,268.44.4Zm-4.48-10.64a4.614,4.614,0,0,1,4.48-3.2,4.549,4.549,0,0,1,4.56,3.2ZM280.96,0h4.48V-10.4a1.973,1.973,0,0,1,2.08-2.08h1.28v-4.16h-1.6a6.008,6.008,0,0,0-6.24,6.24Zm19.68.4a8.645,8.645,0,0,0,6.16-2.56l-2.72-2.8a4.406,4.406,0,0,1-3.44,1.52,4.59,4.59,0,0,1-4.56-3.36H309.6V-8.32c-.32-5.44-3.76-8.72-8.96-8.72a8.949,8.949,0,0,0-8.96,8.72C291.68-3.12,295.44.4,300.64.4Zm-4.48-10.64a4.614,4.614,0,0,1,4.48-3.2,4.549,4.549,0,0,1,4.56,3.2ZM317.04.4a2.766,2.766,0,0,0,2.76-2.76,2.766,2.766,0,0,0-2.76-2.76,2.766,2.766,0,0,0-2.76,2.76A2.766,2.766,0,0,0,317.04.4Zm11.28,0a2.766,2.766,0,0,0,2.76-2.76,2.766,2.766,0,0,0-2.76-2.76,2.766,2.766,0,0,0-2.76,2.76A2.766,2.766,0,0,0,328.32.4ZM339.6.4a2.766,2.766,0,0,0,2.76-2.76,2.766,2.766,0,0,0-2.76-2.76,2.766,2.766,0,0,0-2.76,2.76A2.766,2.766,0,0,0,339.6.4Z" transform="translate(20.002 -48.013)"/>
    <path id="Path_164" data-name="Path 164" class="cls-19" d="M.36,0H3.9L5.16-3.12H17.4L18.72,0H22.2L12.84-21.84H9.72ZM6.48-6.24l4.8-11.52,4.8,11.52ZM24.6,0h3.36V-21.84H24.6Zm7.44,0H35.4V-21.84H32.04ZM48.72,0h3.36V-9.36h1.68v-3.12H52.08v-4.68a1.48,1.48,0,0,1,1.56-1.56h.27v-3.12H53.4a4.506,4.506,0,0,0-4.68,4.68v4.68H47.04v3.12h1.68ZM58.77-18a2.075,2.075,0,0,0,2.04-2.1,2.023,2.023,0,0,0-2.04-2.04,2.075,2.075,0,0,0-2.1,2.04A2.126,2.126,0,0,0,58.77-18ZM57.03,0h3.36V-12.48H57.03Zm7.56,0h3.36V-21.84H64.59ZM78.03.3a6.484,6.484,0,0,0,4.62-1.92l-2.04-2.1a3.3,3.3,0,0,1-2.58,1.14A3.442,3.442,0,0,1,74.61-5.1H84.75V-6.24c-.24-4.08-2.82-6.54-6.72-6.54a6.712,6.712,0,0,0-6.72,6.54A6.349,6.349,0,0,0,78.03.3ZM74.67-7.68a3.461,3.461,0,0,1,3.36-2.4,3.412,3.412,0,0,1,3.42,2.4ZM87.78,0h8.64a3.948,3.948,0,0,0,3.84-3.84,3.791,3.791,0,0,0-3.84-3.84H91.56A.977.977,0,0,1,90.54-8.7a1,1,0,0,1,1.02-.96H98.7v-2.82H91.26a3.907,3.907,0,0,0-3.84,3.84A3.828,3.828,0,0,0,91.26-4.8h4.86a.963.963,0,0,1,1.02.96.977.977,0,0,1-1.02,1.02H87.78ZM118.2.3a6.679,6.679,0,0,0,6.78-6.54v-6.24h-3.36v6.24a3.3,3.3,0,0,1-3.36,3.42,3.331,3.331,0,0,1-3.36-3.42v-6.24h-3.36v6.24A6.3,6.3,0,0,0,118.2.3Zm10.62,5.94h3.36V-.78A5.867,5.867,0,0,0,135.72.3a6.594,6.594,0,0,0,6.54-6.54,6.349,6.349,0,0,0-6.72-6.54,6.712,6.712,0,0,0-6.72,6.54Zm6.72-9.06a3.331,3.331,0,0,1-3.36-3.42,3.3,3.3,0,0,1,3.36-3.42,3.261,3.261,0,0,1,3.36,3.42A3.3,3.3,0,0,1,135.54-2.82ZM145.62,0h3.36V-21.84h-3.36Zm13.44.3a6.712,6.712,0,0,0,6.72-6.54,6.349,6.349,0,0,0-6.72-6.54,6.712,6.712,0,0,0-6.72,6.54A6.349,6.349,0,0,0,159.06.3Zm0-3.12a3.331,3.331,0,0,1-3.36-3.42,3.3,3.3,0,0,1,3.36-3.42,3.261,3.261,0,0,1,3.36,3.42A3.3,3.3,0,0,1,159.06-2.82ZM174.24.3a5.123,5.123,0,0,0,3.72-1.38V0h3.3V-6.24a6.349,6.349,0,0,0-6.72-6.54,6.712,6.712,0,0,0-6.72,6.54A6.174,6.174,0,0,0,174.24.3Zm.3-3.12a3.331,3.331,0,0,1-3.36-3.42,3.3,3.3,0,0,1,3.36-3.42,3.261,3.261,0,0,1,3.36,3.42A3.3,3.3,0,0,1,174.54-2.82ZM190.62.3a6.712,6.712,0,0,0,6.72-6.54v-15.6h-3.36V-11.7a5.867,5.867,0,0,0-3.54-1.08,6.594,6.594,0,0,0-6.54,6.54A6.349,6.349,0,0,0,190.62.3Zm0-3.12a3.331,3.331,0,0,1-3.36-3.42,3.3,3.3,0,0,1,3.36-3.42,3.261,3.261,0,0,1,3.36,3.42A3.3,3.3,0,0,1,190.62-2.82ZM207.06.3a6.484,6.484,0,0,0,4.62-1.92l-2.04-2.1a3.3,3.3,0,0,1-2.58,1.14,3.442,3.442,0,0,1-3.42-2.52h10.14V-6.24c-.24-4.08-2.82-6.54-6.72-6.54a6.712,6.712,0,0,0-6.72,6.54A6.349,6.349,0,0,0,207.06.3ZM203.7-7.68a3.461,3.461,0,0,1,3.36-2.4,3.412,3.412,0,0,1,3.42,2.4ZM222.57.3a6.712,6.712,0,0,0,6.72-6.54v-15.6h-3.36V-11.7a5.867,5.867,0,0,0-3.54-1.08,6.594,6.594,0,0,0-6.54,6.54A6.349,6.349,0,0,0,222.57.3Zm0-3.12a3.331,3.331,0,0,1-3.36-3.42,3.3,3.3,0,0,1,3.36-3.42,3.261,3.261,0,0,1,3.36,3.42A3.3,3.3,0,0,1,222.57-2.82ZM248.01.3a6.712,6.712,0,0,0,6.72-6.54,6.174,6.174,0,0,0-6.42-6.54,4.877,4.877,0,0,0-3.66,1.38V-21.84h-3.36v15.6A6.349,6.349,0,0,0,248.01.3Zm0-3.12a3.331,3.331,0,0,1-3.36-3.42,3.3,3.3,0,0,1,3.36-3.42,3.261,3.261,0,0,1,3.36,3.42A3.3,3.3,0,0,1,248.01-2.82Zm9.9,9.06h3.24l7.68-18.72h-3.36l-3.3,8.7-3.42-8.7h-3.36L260.49,0Zm22.32,0h3.24l7.68-18.72h-3.36l-3.3,8.7-3.42-8.7h-3.36L282.81,0ZM298.53.3a6.712,6.712,0,0,0,6.72-6.54,6.349,6.349,0,0,0-6.72-6.54,6.712,6.712,0,0,0-6.72,6.54A6.349,6.349,0,0,0,298.53.3Zm0-3.12a3.331,3.331,0,0,1-3.36-3.42,3.3,3.3,0,0,1,3.36-3.42,3.261,3.261,0,0,1,3.36,3.42A3.3,3.3,0,0,1,298.53-2.82ZM315.15.3a6.679,6.679,0,0,0,6.78-6.54v-6.24h-3.36v6.24a3.3,3.3,0,0,1-3.36,3.42,3.331,3.331,0,0,1-3.36-3.42v-6.24h-3.36v6.24A6.3,6.3,0,0,0,315.15.3ZM325.77,0h3.36V-7.8a1.48,1.48,0,0,1,1.56-1.56h.96v-3.12h-1.2a4.506,4.506,0,0,0-4.68,4.68Zm18,0h3.36V-9.36h1.68v-3.12h-1.68v-9.36h-3.36v9.36h-1.68v3.12h1.68Zm14.04.3a6.484,6.484,0,0,0,4.62-1.92l-2.04-2.1a3.3,3.3,0,0,1-2.58,1.14,3.442,3.442,0,0,1-3.42-2.52h10.14V-6.24c-.24-4.08-2.82-6.54-6.72-6.54a6.712,6.712,0,0,0-6.72,6.54A6.349,6.349,0,0,0,357.81.3Zm-3.36-7.98a3.461,3.461,0,0,1,3.36-2.4,3.412,3.412,0,0,1,3.42,2.4ZM373.02.3a5.123,5.123,0,0,0,3.72-1.38V0h3.3V-6.24a6.349,6.349,0,0,0-6.72-6.54,6.712,6.712,0,0,0-6.72,6.54A6.174,6.174,0,0,0,373.02.3Zm.3-3.12a3.331,3.331,0,0,1-3.36-3.42,3.3,3.3,0,0,1,3.36-3.42,3.261,3.261,0,0,1,3.36,3.42A3.3,3.3,0,0,1,373.32-2.82ZM383.28,0h3.36V-6.24A3.3,3.3,0,0,1,390-9.66a3.261,3.261,0,0,1,3.36,3.42V0h3.36V-6.24a3.261,3.261,0,0,1,3.36-3.42,3.3,3.3,0,0,1,3.36,3.42V0h3.36V-6.24a6.3,6.3,0,0,0-6.66-6.54,6.989,6.989,0,0,0-4.98,2.1,6.674,6.674,0,0,0-5.1-2.1,6.679,6.679,0,0,0-6.78,6.54ZM5.28,39H8.16l2.04-5.46L12.18,39h2.88l4.98-12.48H16.86L13.5,35.58l-3-9.06h-3L8.82,30,6.78,35.58,3.42,26.52H.24Zm18.9-18a2.075,2.075,0,0,0,2.04-2.1,2.023,2.023,0,0,0-2.04-2.04,2.075,2.075,0,0,0-2.1,2.04A2.126,2.126,0,0,0,24.18,21ZM22.44,39H25.8V26.52H22.44ZM30,39h3.36V17.16H30Zm7.44,0H40.8V17.16H37.44Zm15.48,0h8.64a3.948,3.948,0,0,0,3.84-3.84,3.791,3.791,0,0,0-3.84-3.84H56.7a.977.977,0,0,1-1.02-1.02,1,1,0,0,1,1.02-.96h7.14V26.52H56.4a3.907,3.907,0,0,0-3.84,3.84A3.828,3.828,0,0,0,56.4,34.2h4.86a.963.963,0,0,1,1.02.96.977.977,0,0,1-1.02,1.02H52.92Zm15.6,0h3.36V32.76a3.3,3.3,0,0,1,3.36-3.42,3.261,3.261,0,0,1,3.36,3.42V39h3.36V32.76a6.174,6.174,0,0,0-6.42-6.54,4.877,4.877,0,0,0-3.66,1.38V17.16H68.52Zm22.8.3a6.712,6.712,0,0,0,6.72-6.54,6.349,6.349,0,0,0-6.72-6.54,6.712,6.712,0,0,0-6.72,6.54A6.349,6.349,0,0,0,91.32,39.3Zm0-3.12a3.331,3.331,0,0,1-3.36-3.42,3.3,3.3,0,0,1,3.36-3.42,3.261,3.261,0,0,1,3.36,3.42A3.3,3.3,0,0,1,91.32,36.18ZM103.74,39h2.88l2.04-5.46L110.64,39h2.88l4.98-12.48h-3.18l-3.36,9.06-3-9.06h-3L107.28,30l-2.04,5.58-3.36-9.06H98.7Zm31.98.3a6.679,6.679,0,0,0,6.78-6.54V26.52h-3.36v6.24a3.3,3.3,0,0,1-3.36,3.42,3.331,3.331,0,0,1-3.36-3.42V26.52h-3.36v6.24A6.3,6.3,0,0,0,135.72,39.3Zm10.62,5.94h3.36V38.22a5.867,5.867,0,0,0,3.54,1.08,6.594,6.594,0,0,0,6.54-6.54,6.349,6.349,0,0,0-6.72-6.54,6.712,6.712,0,0,0-6.72,6.54Zm6.72-9.06a3.331,3.331,0,0,1-3.36-3.42,3.3,3.3,0,0,1,3.36-3.42,3.261,3.261,0,0,1,3.36,3.42A3.3,3.3,0,0,1,153.06,36.18ZM173.4,21a2.075,2.075,0,0,0,2.04-2.1,2.023,2.023,0,0,0-2.04-2.04,2.075,2.075,0,0,0-2.1,2.04A2.126,2.126,0,0,0,173.4,21Zm-1.74,18h3.36V26.52h-3.36Zm7.44,0h3.36V32.76a3.3,3.3,0,0,1,3.36-3.42,3.261,3.261,0,0,1,3.36,3.42V39h3.36V32.76a6.3,6.3,0,0,0-6.66-6.54,6.679,6.679,0,0,0-6.78,6.54Zm26.64,0h3.36V29.64h1.68V26.52H209.1V17.16h-3.36v9.36h-1.68v3.12h1.68Zm8.16,0h3.36V32.76a3.3,3.3,0,0,1,3.36-3.42,3.261,3.261,0,0,1,3.36,3.42V39h3.36V32.76a6.174,6.174,0,0,0-6.42-6.54,4.877,4.877,0,0,0-3.66,1.38V17.16H213.9Zm19.26-18a2.075,2.075,0,0,0,2.04-2.1,2.023,2.023,0,0,0-2.04-2.04,2.075,2.075,0,0,0-2.1,2.04A2.126,2.126,0,0,0,233.16,21Zm-1.74,18h3.36V26.52h-3.36Zm7.2,0h8.64a3.948,3.948,0,0,0,3.84-3.84,3.791,3.791,0,0,0-3.84-3.84H242.4a.977.977,0,0,1-1.02-1.02,1,1,0,0,1,1.02-.96h7.14V26.52H242.1a3.907,3.907,0,0,0-3.84,3.84,3.828,3.828,0,0,0,3.84,3.84h4.86a.963.963,0,0,1,1.02.96.977.977,0,0,1-1.02,1.02h-8.34Zm23.76,6.24h3.36V38.22a5.867,5.867,0,0,0,3.54,1.08,6.594,6.594,0,0,0,6.54-6.54,6.349,6.349,0,0,0-6.72-6.54,6.712,6.712,0,0,0-6.72,6.54Zm6.72-9.06a3.331,3.331,0,0,1-3.36-3.42,3.3,3.3,0,0,1,3.36-3.42,3.261,3.261,0,0,1,3.36,3.42A3.3,3.3,0,0,1,269.1,36.18ZM279.18,39h3.36V17.16h-3.36Zm13.14.3a5.123,5.123,0,0,0,3.72-1.38V39h3.3V32.76a6.349,6.349,0,0,0-6.72-6.54,6.712,6.712,0,0,0-6.72,6.54A6.174,6.174,0,0,0,292.32,39.3Zm.3-3.12a3.331,3.331,0,0,1-3.36-3.42,3.3,3.3,0,0,1,3.36-3.42,3.261,3.261,0,0,1,3.36,3.42A3.3,3.3,0,0,1,292.62,36.18ZM308.7,39.3a6.4,6.4,0,0,0,4.62-1.98l-2.22-2.16a3.511,3.511,0,0,1-2.4,1.02,3.331,3.331,0,0,1-3.36-3.42,3.3,3.3,0,0,1,3.36-3.42,3.6,3.6,0,0,1,2.46.96l2.22-2.22a6.2,6.2,0,0,0-4.68-1.86,6.712,6.712,0,0,0-6.72,6.54A6.349,6.349,0,0,0,308.7,39.3Zm13.32,0a6.484,6.484,0,0,0,4.62-1.92l-2.04-2.1a3.3,3.3,0,0,1-2.58,1.14,3.442,3.442,0,0,1-3.42-2.52h10.14V32.76c-.24-4.08-2.82-6.54-6.72-6.54a6.712,6.712,0,0,0-6.72,6.54A6.349,6.349,0,0,0,322.02,39.3Zm-3.36-7.98a3.461,3.461,0,0,1,3.36-2.4,3.412,3.412,0,0,1,3.42,2.4Zm15.66,7.98a2.07,2.07,0,1,0-2.07-2.07A2.074,2.074,0,0,0,334.32,39.3Z" transform="translate(20.002 23.987)"/>
  </g>
</svg>
