<svg id="undraw_collection_u2np" xmlns="http://www.w3.org/2000/svg" xmlns:xlink="http://www.w3.org/1999/xlink" viewBox="0 0 1015.596 783.53">
  <defs>
    <style>
      .cls-1, .cls-22, .cls-23, .cls-3 {
        fill: #005fd5;
      }

      .cls-1, .cls-10, .cls-19 {
        opacity: 0.1;
      }

      .cls-2, .cls-24 {
        fill: none;
        stroke-miterlimit: 10;
      }

      .cls-2 {
        stroke: #535461;
        stroke-width: 2px;
      }

      .cls-4 {
        opacity: 0.25;
      }

      .cls-5 {
        fill: url(#linear-gradient);
      }

      .cls-6 {
        fill: #f6f7f9;
      }

      .cls-7 {
        fill: url(#linear-gradient-2);
      }

      .cls-8 {
        fill: #cc818c;
      }

      .cls-9 {
        fill: #444053;
      }

      .cls-11 {
        opacity: 0.05;
      }

      .cls-12 {
        fill: #ff748f;
      }

      .cls-13, .cls-15 {
        fill: #575988;
      }

      .cls-14 {
        fill: #dce6f2;
      }

      .cls-15 {
        opacity: 0.5;
      }

      .cls-16 {
        fill: #67647e;
      }

      .cls-17 {
        fill: #585268;
      }

      .cls-18 {
        fill: #e4aab4;
      }

      .cls-20, .cls-21, .cls-22 {
        opacity: 0.2;
      }

      .cls-23 {
        opacity: 0.4;
      }

      .cls-24 {
        stroke: #f6f7f9;
      }

      .cls-25 {
        fill: #ffd037;
      }

      .cls-26 {
        fill: #65617d;
      }

      .cls-27 {
        fill: #9d9cb5;
      }
    </style>
    <linearGradient id="linear-gradient" x1="0.5" y1="1" x2="0.5" gradientUnits="objectBoundingBox">
      <stop offset="0" stop-color="gray" stop-opacity="0.251"/>
      <stop offset="0.54" stop-color="gray" stop-opacity="0.122"/>
      <stop offset="1" stop-color="gray" stop-opacity="0.102"/>
    </linearGradient>
    <linearGradient id="linear-gradient-2" x1="3.47" y1="1" x2="3.47" xlink:href="#linear-gradient"/>
  </defs>
  <path id="Path_165" data-name="Path 165" class="cls-1" d="M741.27,184.55c-42.28,26.74-97.12,25-145.17,11.1s-92.2-38.69-139-56.3a490.709,490.709,0,0,0-122.13-28.76c-59.67-6.17-126.31,1.34-167.88,44.57-46.3,48.15-42.75,135,7.33,179.18,25.47,22.48,58.83,33.51,87.91,51.06s56,46.7,53.54,80.58c-2.29,31.36-28.95,55.43-56.55,70.53-21.32,11.67-47.59,24.41-50.16,48.58-2.49,23.39,19.6,41.72,40.69,52.14,68.79,34,153.56,33.67,222.09-.86,24.45-12.32,46.93-28.7,72.57-38.3,67.32-25.21,141.51.17,212.8,9.45a469.281,469.281,0,0,0,181-11.91c35.31-9.42,70.75-23.82,95.55-50.65,17.88-19.35,29-43.83,39.48-68q16.74-38.68,32.17-77.9c6.18-15.7,12.25-31.7,13.85-48.5,2.89-30.43-9.29-60.51-25.87-86.2-39.37-61-105.68-103.86-177.45-114.75S768.18,160,712.48,206.53" transform="translate(-104.19 -58.23)"/>
  <ellipse id="Ellipse_29" data-name="Ellipse 29" class="cls-1" cx="135.74" cy="26.54" rx="135.74" ry="26.54" transform="translate(0 730.45)"/>
  <ellipse id="Ellipse_30" data-name="Ellipse 30" class="cls-1" cx="284.54" cy="26.54" rx="284.54" ry="26.54" transform="translate(254.45 675.02)"/>
  <path id="Path_166" data-name="Path 166" class="cls-2" d="M836.32,570.83s39.89-70.66,100-91c25.21-8.55,47.22-24.62,62.27-46.58a207.217,207.217,0,0,0,18.37-33.05" transform="translate(-104.19 -58.23)"/>
  <path id="Path_167" data-name="Path 167" class="cls-3" d="M1054.7,387.12c-6.85,6.64-38.73,13.51-38.73,13.51s7.82-31.65,14.67-38.3a17.273,17.273,0,1,1,24.06,24.79Z" transform="translate(-104.19 -58.23)"/>
  <path id="Path_168" data-name="Path 168" class="cls-3" d="M1036.66,444.41c-9.35,1.85-39.85-9.71-39.85-9.71s23.77-22.32,33.13-24.18a17.275,17.275,0,0,1,6.72,33.89Z" transform="translate(-104.19 -58.23)"/>
  <path id="Path_169" data-name="Path 169" class="cls-3" d="M971,506.4c-9-3.12-29.5-28.49-29.5-28.49s31.79-7.28,40.8-4.16A17.28,17.28,0,0,1,971,506.4Z" transform="translate(-104.19 -58.23)"/>
  <path id="Path_170" data-name="Path 170" class="cls-3" d="M910.76,542.11c-9.41-1.55-33.9-23.09-33.9-23.09s30.11-12.54,39.52-11a17.27,17.27,0,0,1-5.62,34.08Z" transform="translate(-104.19 -58.23)"/>
  <path id="Path_171" data-name="Path 171" class="cls-3" d="M970.23,410c0,9.54,17.25,37.21,17.25,37.21s17.29-27.66,17.29-37.2a17.27,17.27,0,0,0-34.54,0Z" transform="translate(-104.19 -58.23)"/>
  <path id="Path_172" data-name="Path 172" class="cls-3" d="M900.3,452.63c2.85,9.1,27.6,30.34,27.6,30.34s8.22-31.56,5.37-40.66a17.288,17.288,0,0,0-33,10.32Z" transform="translate(-104.19 -58.23)"/>
  <path id="Path_173" data-name="Path 173" class="cls-3" d="M838,503.42c1.3,9.46,22.1,34.58,22.1,34.58s13.44-29.71,12.17-39.17a17.274,17.274,0,0,0-34.24,4.6Z" transform="translate(-104.19 -58.23)"/>
  <path id="Path_174" data-name="Path 174" class="cls-4" d="M1054.7,387.12c-6.85,6.64-38.73,13.51-38.73,13.51s7.82-31.65,14.67-38.3a17.273,17.273,0,1,1,24.06,24.79Z" transform="translate(-104.19 -58.23)"/>
  <path id="Path_175" data-name="Path 175" class="cls-4" d="M1036.66,444.41c-9.35,1.85-39.85-9.71-39.85-9.71s23.77-22.32,33.13-24.18a17.275,17.275,0,0,1,6.72,33.89Z" transform="translate(-104.19 -58.23)"/>
  <path id="Path_176" data-name="Path 176" class="cls-4" d="M971,506.4c-9-3.12-29.5-28.49-29.5-28.49s31.79-7.28,40.8-4.16A17.28,17.28,0,0,1,971,506.4Z" transform="translate(-104.19 -58.23)"/>
  <path id="Path_177" data-name="Path 177" class="cls-4" d="M910.76,542.11c-9.41-1.55-33.9-23.09-33.9-23.09s30.11-12.54,39.52-11a17.27,17.27,0,0,1-5.62,34.08Z" transform="translate(-104.19 -58.23)"/>
  <path id="Path_178" data-name="Path 178" class="cls-4" d="M970.23,410c0,9.54,17.25,37.21,17.25,37.21s17.29-27.66,17.29-37.2a17.27,17.27,0,0,0-34.54,0Z" transform="translate(-104.19 -58.23)"/>
  <path id="Path_179" data-name="Path 179" class="cls-4" d="M900.3,452.63c2.85,9.1,27.6,30.34,27.6,30.34s8.22-31.56,5.37-40.66a17.288,17.288,0,0,0-33,10.32Z" transform="translate(-104.19 -58.23)"/>
  <path id="Path_180" data-name="Path 180" class="cls-4" d="M838,503.42c1.3,9.46,22.1,34.58,22.1,34.58s13.44-29.71,12.17-39.17a17.274,17.274,0,0,0-34.24,4.6Z" transform="translate(-104.19 -58.23)"/>
  <path id="Path_181" data-name="Path 181" class="cls-2" d="M838.61,569.42s7.84-80.76,54.5-123.71a122.4,122.4,0,0,0,38-67.82,206.915,206.915,0,0,0,3.41-37.66" transform="translate(-104.19 -58.23)"/>
  <path id="Path_182" data-name="Path 182" class="cls-3" d="M963.81,313c-3.56,8.85-29.92,28-29.92,28s-5.68-32.11-2.11-41a17.27,17.27,0,0,1,32,12.91Z" transform="translate(-104.19 -58.23)"/>
  <path id="Path_183" data-name="Path 183" class="cls-3" d="M970.54,372.66c-7.8,5.49-40.36,7.28-40.36,7.28s12.68-30,20.49-35.53a17.27,17.27,0,1,1,19.871,28.251Z" transform="translate(-104.19 -58.23)"/>
  <path id="Path_184" data-name="Path 184" class="cls-3" d="M935.63,455.94c-9.5.8-38.52-14.09-38.52-14.09s26.12-19.53,35.63-20.33a17.271,17.271,0,0,1,2.89,34.42Z" transform="translate(-104.19 -58.23)"/>
  <path id="Path_185" data-name="Path 185" class="cls-3" d="M895,513c-9.23,2.39-40.35-7.38-40.35-7.38s22.44-23.67,31.68-26.06A17.273,17.273,0,0,1,895,513Z" transform="translate(-104.19 -58.23)"/>
  <path id="Path_186" data-name="Path 186" class="cls-3" d="M895.85,368.1c3.86,8.72,30.85,27,30.85,27s4.6-32.28.74-41a17.277,17.277,0,0,0-31.59,14Z" transform="translate(-104.19 -58.23)"/>
  <path id="Path_187" data-name="Path 187" class="cls-3" d="M849.21,435.44c6.3,7.16,37.53,16.55,37.53,16.55s-5.28-32.18-11.57-39.35a17.29,17.29,0,1,0-26,22.8Z" transform="translate(-104.19 -58.23)"/>
  <path id="Path_188" data-name="Path 188" class="cls-3" d="M812.86,507.11c5,8.13,34.19,22.66,34.19,22.66s.24-32.61-4.75-40.74a17.274,17.274,0,1,0-29.44,18.08Z" transform="translate(-104.19 -58.23)"/>
  <path id="Path_189" data-name="Path 189" class="cls-5" d="M281.84,0V705.46h507.4V0Z"/>
  <rect id="Rectangle_44" data-name="Rectangle 44" class="cls-6" width="498.5" height="693.19" transform="translate(286.29 6.08)"/>
  <circle id="Ellipse_31" data-name="Ellipse 31" class="cls-6" cx="4.56" cy="4.56" r="4.56" transform="translate(294.84 15.07)"/>
  <circle id="Ellipse_32" data-name="Ellipse 32" class="cls-6" cx="4.56" cy="4.56" r="4.56" transform="translate(307.2 15.07)"/>
  <circle id="Ellipse_33" data-name="Ellipse 33" class="cls-6" cx="4.56" cy="4.56" r="4.56" transform="translate(319.56 15.07)"/>
  <path id="Path_191" data-name="Path 191" class="cls-7" d="M118.73,506.66s4.26,10.83,2.73,13.49c0,0,.77,8,11.09,13.49s22,18.62,22,18.62a14,14,0,0,0,9.2,6.36c.1,1.26.17,2,.17,2l.54.23c-.12.44-.24.9-.36,1.37-.28,1.09-.56,2.25-.82,3.45-1.71,7.79-2.74,17.45.71,22.88a18.914,18.914,0,0,1,1.26,2.29c4.66,9.88,1.47,22.28,1.47,22.28s4.08,28.12,5.86,32.68c1.27,3.23.1,7.74-.69,10.09a11.261,11.261,0,0,0-.58,3.5v10s-2,8.36-1,10.64-1.78,8.62-1.78,8.62-6.63,27.61-3.83,32.17,2.55,14.69,2.55,14.69,5.35,39.52,7.4,41a24.35,24.35,0,0,1,4.33,5.07s-3.64,8.95-1.45,12.64a2.532,2.532,0,0,0,.18.27,53.539,53.539,0,0,0-1.79,5.39c-.16.62-.32,1.41-.46,2.28a29,29,0,0,0-.39,5.08l-.16.14.17.15a8.411,8.411,0,0,0,.33,2.23c.76,2.28,6.5,2.28,6.5,2.28s10.26,2.92,14.85,5.2,7.71,1.07,7.71,1.07c10.52,2.41,24-1.77,28.11-2.59s5.68-6.08.63-7.1a10.762,10.762,0,0,1-1.88-.57A15.381,15.381,0,0,1,225,803a128.1,128.1,0,0,0-10.74-9.19,31.36,31.36,0,0,1-6.73-6.77,7,7,0,0,0-3.8-1.88,4.08,4.08,0,0,0-.85-5.09,4.13,4.13,0,0,0-1.17-5.13l-1.89-1.46.44-.51a4.12,4.12,0,0,0,.38-4.85c-.82-1.37-1.62-3.8-1.83-8.06-.52-9.88-3.06-13.68-3.06-13.68l1.53-45.1a63.558,63.558,0,0,1,0-7.34c.25-2.79,5-1,5.73-1.71s.89-4.37,2.93-5.39c.72-.36,1.35-1.63,1.85-3.12a18.091,18.091,0,0,0,.52-8.8,5.17,5.17,0,0,1,.94-4c2.3-3,1.53-13.42,1.53-13.42l3.53-21.72c5.6,18.43,12.73,40.63,15.09,42.24,4.08,2.78,3.56,6.58,3.56,6.58-3.31,4.06-2,21.54-2,21.54s0,48.38,2.39,51.68,7,13.42,7,13.42-13.6,12-3,18.13l.45,5.12a1.57,1.57,0,0,0-.17.22,9.91,9.91,0,0,0-2,4.19l-.07.08h0c-.19,1.62.52,3.21,3.51,3.88,7.15,1.58,32.13,1.46,32.13,1.46l14,2.21s24,2.28,26.7-5.13-2.1-7-2.1-7h-.19l-10-.8s-12.68-4.88-17.34-8.24a99.81,99.81,0,0,1-10.38-9.25,4.05,4.05,0,0,0-2.64.49l-.43-.43-.69-.69,2.63-4c2.63-4.56-7.69-13.18-7.69-13.18s2.76-10.64,1.74-11.14S263.12,737,263.12,737s2.51-35,1.49-38.25c-.46-1.48.27-3.07,1.21-4.36a10.84,10.84,0,0,0,2-6.79,8.007,8.007,0,0,1,1.67-5.82c3.06-3.3,0-17.48,0-17.48l-2.54-18.75V615.77A47.141,47.141,0,0,0,263.82,599a47.761,47.761,0,0,1-2.58-11.55l.85.25a3.539,3.539,0,0,1-.9-.74c-.05-.48-.11-1-.15-1.45-.81-9.38-5.78-18.49-9.27-23.86-.8-3.14.09-16.23.09-16.23,4-6.84.19-16.72.19-16.72s-4-46.74-6.5-53.2-3.63-46.55,2.3-46.17,44.16-19,44.16-19-.95-1.52,11.67-6.65,31-21.09,31-21.09l25.43-30.4a.64.64,0,0,1-.28,0l.52-.17a21.52,21.52,0,0,0,13.34-11.46c4.4-9.66-4.41-22.73-10.18-28.6L358,309c-1.47,1.21-.93,6.54-3.33,12.25a130.809,130.809,0,0,0-5,15.6l-.26,1-.24-.44L335.8,348l-12.62,10.26s-27.92,13.49-31.36,16.91-4.59,2.47-7.64,3.23-3.45,2.85-4.4,2.66-2.68,2.66-4,2.28-4.2,1.14-6.12,1.52-15.5,6.14-15.5,6.14c-8.42-4.18-31.17-2.47-31.17-2.47s-7.46-4.37-9.56,0a7.22,7.22,0,0,1-6.5,4.18l-9.07-3.86a2.586,2.586,0,0,1,.07-.73v-.15c.07-.57.16-1.11.25-1.63a30.13,30.13,0,0,0,10.41-49.12l-.79-.76a13.23,13.23,0,0,0,2.61-1.62,1.39,1.39,0,0,0,.56-.71.79.79,0,0,0-.08-.6,1.81,1.81,0,0,0-1-1.11c-2.76-1.49-5.81-1-8.2-3.39a5.36,5.36,0,0,1-1.25-1.93,3.75,3.75,0,0,1,0-2.41c.67-1.78,2.83-3,2.7-4.92h-.09v-.33a17,17,0,0,1-7.14,1.22l.45-2h.17l.24-1.06-.17.05.07-.34-6.72,1.8a1.69,1.69,0,0,1-1.51-.09,2.53,2.53,0,0,1-.52-1.05c-.58-1.41-2.45-1.86-3.92-1.46a16.318,16.318,0,0,0-4,2.19c-4.35,2.65-9.66,3-14.72,3.64s-10.44,1.73-14,5.37c-4.72,4.86-4.66,12.51-7.61,18.6a16.451,16.451,0,0,0-1.35,3.07,12,12,0,0,0,.08,4.85c.72,4.68,1.51,9.54,4,13.55l-.27-.32a18.085,18.085,0,0,0,1,1.56c1.79,2.52,4.31,4.57,6.22,7-.12-.23-.27-.44-.4-.67a13.65,13.65,0,0,1,2.5,4.15c.66,1.88.8,4,1.59,5.78h0a6.25,6.25,0,0,0,1.14,1.9,5.78,5.78,0,0,0,4.84,1.66,41.548,41.548,0,0,1-3,6.24l-.15.26a4.761,4.761,0,0,0-1.5.17c-2.22.41-9.82,6.94-9.82,6.94l-13.57,12c-20.46,16-15.87,40.85-15.87,40.85v12.6s-4,13.49,0,27ZM159.83,395.41ZM148.61,506.85s7.08-5.7,4.59-9.12c-.8-1.1-1.12-3.41-1.19-6l9.22,20.48s5.55,8.93,2.68,12.92v.07l-11-12.8S152.44,506.85,148.61,506.85Z" transform="translate(-104.19 -58.23)"/>
  <path id="Path_192" data-name="Path 192" class="cls-8" d="M347.23,344.49l6,11.71a23.631,23.631,0,0,0,5.61-1.17,21.29,21.29,0,0,0,13.17-11.39c5.38-11.9-9.25-29-13.4-31.24s-2.27,4.53-5.38,12a128.2,128.2,0,0,0-4.89,15.5C347.66,342.62,347.23,344.49,347.23,344.49Z" transform="translate(-104.19 -58.23)"/>
  <path id="Path_193" data-name="Path 193" class="cls-8" d="M155.69,405.37l9.63,14.35s45.5,21.71,36.82-3.77c-3.83-11.23-4.29-19.46-3.6-25.14a.882.882,0,0,0,0-.16c.9-7.11,3.58-10.2,3.58-10.2s-44.36-22.7-37.76-7.17A21.44,21.44,0,0,1,166,383.5a34.91,34.91,0,0,1-4.78,14.17,46.652,46.652,0,0,1-5.53,7.7Z" transform="translate(-104.19 -58.23)"/>
  <path id="Path_194" data-name="Path 194" class="cls-9" d="M169.48,689.45s-6.55,27.43-3.78,32,2.51,14.6,2.51,14.6,5.29,39.27,7.31,40.78a24.363,24.363,0,0,1,4.28,5s-3.6,8.89-1.44,12.56a3,3,0,0,0,1.44,1.28c3.37,1.42,15.83-4.89,22.93-8.76a4.056,4.056,0,0,0,.73-6.59,4.14,4.14,0,0,0-1.16-5.1l-1.86-1.45.43-.51a4.14,4.14,0,0,0,.38-4.82c-.82-1.36-1.61-3.77-1.82-8-.5-9.81-3-13.59-3-13.59L197.92,702a65.352,65.352,0,0,1,0-7.3c.25-2.77,4.91-.94,5.67-1.7s.87-4.34,2.89-5.35c.71-.36,1.33-1.62,1.83-3.1a18.21,18.21,0,0,0,.51-8.74,5.15,5.15,0,0,1,.93-4c2.26-3,1.51-13.34,1.51-13.34l3.48-21.58c5.53,18.31,12.57,40.37,14.9,42a7.324,7.324,0,0,1,3.52,6.54c-3.27,4-2,21.41-2,21.41s0,48.07,2.36,51.35,7,13.33,7,13.33-13.49,12-2.88,18.06l.11.07c10.83,6,33.24-10.82,33.24-10.82l-2.35-2.34-.68-.69,2.6-4c2.6-4.53-7.59-13.09-7.59-13.09s2.72-10.58,1.72-11.08-1.72-10.07-1.72-10.07,2.47-34.74,1.47-38c-.46-1.47.26-3,1.19-4.33a10.77,10.77,0,0,0,1.93-6.75c-.07-2,.23-4.24,1.66-5.78,3-3.28,0-17.37,0-17.37L266.7,646.7V617.06a47.12,47.12,0,0,0-3-16.66,50.321,50.321,0,0,1-2.85-13.4c-.82-9.54-6-18.82-9.4-24.1-1.83-2.79-3.19-4.47-3.19-4.47l-80.54-3.15s-1.32,3.58-2.59,8.58c-.28,1.08-.56,2.23-.82,3.43-1.68,7.74-2.7,17.33.71,22.73a19.425,19.425,0,0,1,1.24,2.28c4.61,9.81,1.46,22.14,1.46,22.14s4,27.94,5.78,32.47c1.25,3.21.1,7.69-.68,10a11.181,11.181,0,0,0-.57,3.48v9.91s-2,8.31-1,10.57S169.48,689.45,169.48,689.45Z" transform="translate(-104.19 -58.23)"/>
  <path id="Path_195" data-name="Path 195" class="cls-10" d="M165.78,590.77A20.794,20.794,0,0,1,167,593l4.54-.26c-.44-2.33,2.65-24.23,2.65-24.23l-9.13-.51C163.38,575.78,162.36,585.37,165.78,590.77Z" transform="translate(-104.19 -58.23)"/>
  <path id="Path_196" data-name="Path 196" class="cls-9" d="M165,590a19.423,19.423,0,0,1,1.24,2.28l4.54-.26c-.44-2.33,2.64-24.23,2.64-24.23l-9.13-.52C162.63,575,161.61,584.61,165,590Z" transform="translate(-104.19 -58.23)"/>
  <path id="Path_197" data-name="Path 197" class="cls-11" d="M165,590a19.423,19.423,0,0,1,1.24,2.28l4.54-.26c-.44-2.33,2.64-24.23,2.64-24.23l-9.13-.52C162.63,575,161.61,584.61,165,590Z" transform="translate(-104.19 -58.23)"/>
  <path id="Path_198" data-name="Path 198" class="cls-10" d="M178.36,794.39a3,3,0,0,0,1.44,1.28c3.37,1.42,15.83-4.89,22.93-8.76a4,4,0,0,0,1.88-2.24c-4-.74-6.69,3.76-6.69,3.76a6,6,0,0,0-8.3,2c-3.47,5.1-10.89,2.95-10.89,2.95S178.58,793.78,178.36,794.39Z" transform="translate(-104.19 -58.23)"/>
  <path id="Path_199" data-name="Path 199" class="cls-12" d="M176.27,809.83c.76,2.26,6.42,2.26,6.42,2.26s10.14,2.9,14.67,5.17,7.61,1.06,7.61,1.06c10.38,2.4,23.73-1.76,27.75-2.57s5.6-6,.63-7a10.3,10.3,0,0,1-1.86-.57,15.119,15.119,0,0,1-6.19-5A127.823,127.823,0,0,0,214.7,794a30.841,30.841,0,0,1-6.65-6.73c-5.91-5.22-10.13,2-10.13,2a6,6,0,0,0-8.3,2c-3.47,5.09-10.89,2.94-10.89,2.94s-1.33,3.41-1.95,5.86c-.16.62-.32,1.4-.46,2.27C175.92,804.84,175.71,808.13,176.27,809.83Z" transform="translate(-104.19 -58.23)"/>
  <circle id="Ellipse_34" data-name="Ellipse 34" class="cls-13" cx="0.69" cy="0.69" r="0.69" transform="translate(88.7 734.29)"/>
  <circle id="Ellipse_35" data-name="Ellipse 35" class="cls-13" cx="0.69" cy="0.69" r="0.69" transform="translate(94.61 739.83)"/>
  <circle id="Ellipse_36" data-name="Ellipse 36" class="cls-13" cx="0.69" cy="0.69" r="0.69" transform="translate(100.62 744.8)"/>
  <circle id="Ellipse_37" data-name="Ellipse 37" class="cls-13" cx="0.69" cy="0.69" r="0.69" transform="translate(97.51 742.58)"/>
  <circle id="Ellipse_38" data-name="Ellipse 38" class="cls-13" cx="0.69" cy="0.69" r="0.69" transform="translate(91.53 736.88)"/>
  <path id="Path_200" data-name="Path 200" class="cls-14" d="M176.27,809.83c.76,2.26,6.42,2.26,6.42,2.26s10.14,2.9,14.67,5.17,7.61,1.06,7.61,1.06c10.38,2.4,23.73-1.76,27.75-2.57s5.6-6,.63-7a10.3,10.3,0,0,1-1.86-.57,48.641,48.641,0,0,1-13.62,2.58c-10.26.44-18.38,0-18.38,0l-10.38-3.34a17.53,17.53,0,0,0-6.42-2.32c-2.2-.22-4.89-1.8-6.37-2.77C175.92,804.84,175.71,808.13,176.27,809.83Z" transform="translate(-104.19 -58.23)"/>
  <path id="Path_201" data-name="Path 201" class="cls-15" d="M202.11,816.34a8.713,8.713,0,0,0,1.72-.17l-.15-.74a11,11,0,0,1-6.22-.87c-.93-.36-1.85-.8-2.75-1.22-1.06-.5-2.16-1-3.28-1.43l-1-.36c-.56-.19-1.14-.38-1.68-.61-.32-.13-.62-.28-.93-.43a10.371,10.371,0,0,0-2.33-.88,11.075,11.075,0,0,0-1.27-.17,10.614,10.614,0,0,1-1.15-.14,10.153,10.153,0,0,1-2.18-.81,10.932,10.932,0,0,0-2.34-.87l-.56-.09a2.66,2.66,0,0,1-1.62-.6l-.56.51a3.29,3.29,0,0,0,2.06.83l.53.09a11.34,11.34,0,0,1,2.18.81,10.419,10.419,0,0,0,2.34.87,10.77,10.77,0,0,0,1.24.15,10.8,10.8,0,0,1,1.18.16,9.413,9.413,0,0,1,2.16.83c.31.15.63.3.95.43.57.25,1.17.45,1.74.64l1,.35c1.09.4,2.17.91,3.22,1.4s1.84.87,2.8,1.24a13.42,13.42,0,0,0,4.9,1.08Z" transform="translate(-104.19 -58.23)"/>
  <path id="Path_202" data-name="Path 202" class="cls-10" d="M199.68,691.27s-5.22-7.55-14.16-7.49-12.77-1-12.77-1,5.72,3.4,9.69,3.84S199.68,691.27,199.68,691.27Z" transform="translate(-104.19 -58.23)"/>
  <path id="Path_203" data-name="Path 203" class="cls-10" d="M196.66,693s-4.72-3.27-7.42-3.4-5-.38-5-.38a14.541,14.541,0,0,0,4.15,2C190.62,691.9,196.66,693,196.66,693Z" transform="translate(-104.19 -58.23)"/>
  <path id="Path_204" data-name="Path 204" class="cls-10" d="M195.65,695.3s-7.11.56-7.17,2.45" transform="translate(-104.19 -58.23)"/>
  <path id="Path_205" data-name="Path 205" class="cls-10" d="M261.89,589.16c-.37.07-6.73-6.6-7.17-9.25a6.45,6.45,0,0,0-2.77-4.06s-4.09,1.64-.44,6.66S261.89,589.16,261.89,589.16Z" transform="translate(-104.19 -58.23)"/>
  <path id="Path_206" data-name="Path 206" class="cls-10" d="M164.38,373.28c1.45,3.42,2.72,3.68,2.45,7a25.05,25.05,0,0,0,5.76,4.53c4.5,2.67,9.4,7.9,15,7.9a29.76,29.76,0,0,0,11-2.07c.9-7.11,3.58-10.2,3.58-10.2S157.78,357.75,164.38,373.28Z" transform="translate(-104.19 -58.23)"/>
  <path id="Path_207" data-name="Path 207" class="cls-8" d="M157.58,361.2a30,30,0,1,0,30-30A30,30,0,0,0,157.58,361.2Z" transform="translate(-104.19 -58.23)"/>
  <path id="Path_208" data-name="Path 208" class="cls-10" d="M155.69,405.37l9.63,14.35s45.5,21.71,36.82-3.77c-3.83-11.23-4.29-19.46-3.6-25.14h-.07a23.791,23.791,0,0,0-.91,5.78c-.14,3.92-.24,8.87-10,10.51-16.2,2.73-24.91-7.41-26.43-9.4a46.652,46.652,0,0,1-5.44,7.67Z" transform="translate(-104.19 -58.23)"/>
  <path id="Path_209" data-name="Path 209" class="cls-10" d="M347.23,344.49l6,11.71a23.631,23.631,0,0,0,5.61-1.17l.52-.63c-2.45.94-10.76-14.73-10.76-14.73l-.26.21C347.66,342.62,347.23,344.49,347.23,344.49Z" transform="translate(-104.19 -58.23)"/>
  <path id="Path_210" data-name="Path 210" class="cls-10" d="M165.13,563.85c19.43,8.43,86.66,1.24,86.66,1.24a8.539,8.539,0,0,1-.34-2.2c-1.83-2.79-3.19-4.47-3.19-4.47l-80.54-3.15S166.4,558.85,165.13,563.85Z" transform="translate(-104.19 -58.23)"/>
  <path id="Path_211" data-name="Path 211" class="cls-16" d="M198.46,391.53l9,3.84a7.12,7.12,0,0,0,6.42-4.16c2.08-4.34,9.44,0,9.44,0s22.47-1.7,30.77,2.46c0,0,13.41-5.67,15.3-6s4.72-1.89,6-1.51,3-2.46,4-2.27,1.32-1.89,4.35-2.64,4.15.19,7.55-3.21,31-16.8,31-16.8L334.67,351l13.21-10.57s8.31,15.67,10.77,14.72l-25.11,30.21s-18.13,15.86-30.59,21-11.51,6.6-11.51,6.6-37.76,19.26-43.62,18.88-4.72,39.46-2.26,45.88S252,530.54,252,530.54s3.77,9.82-.19,16.62c0,0-.94,14,0,16.42,0,0-67.65,7.24-86.85-1.32,0,0-2.83-31.34,0-35.3s-2.64-12.84-2.64-12.84l-12.08-27-29.45-29.64s-4.53-24.73,15.67-40.59L149.84,405s7.5-6.49,9.69-6.9,1.39,0,1.39,0,8.74,12.75,26.68,9.73c9.72-1.64,9.83-6.6,10-10.51a24.26,24.26,0,0,1,.86-5.79Z" transform="translate(-104.19 -58.23)"/>
  <path id="Path_212" data-name="Path 212" class="cls-10" d="M161.55,493.16s41.53,1.7,49.84,14.73c0,0-10.76-5.1-20.39-3.59S161.55,493.16,161.55,493.16Z" transform="translate(-104.19 -58.23)"/>
  <path id="Path_213" data-name="Path 213" class="cls-10" d="M207.42,538.66s-19.63,1.32-23.79-2.83-4.16-6.61-4.16-6.61Z" transform="translate(-104.19 -58.23)"/>
  <path id="Path_214" data-name="Path 214" class="cls-10" d="M157.58,453.14s16.62,19.63-3.59,28.13Z" transform="translate(-104.19 -58.23)"/>
  <path id="Path_215" data-name="Path 215" class="cls-10" d="M255.94,415.19s-6,12.33-9.06,13.15Z" transform="translate(-104.19 -58.23)"/>
  <path id="Path_216" data-name="Path 216" class="cls-10" d="M276.33,409.9s-15.1,13.6-17.93,14.92C258.4,424.82,274.07,409.9,276.33,409.9Z" transform="translate(-104.19 -58.23)"/>
  <path id="Path_217" data-name="Path 217" class="cls-10" d="M216.11,396.88s14.53,21.71,5.09,34.92C221.2,431.8,226.49,416.13,216.11,396.88Z" transform="translate(-104.19 -58.23)"/>
  <path id="Path_218" data-name="Path 218" class="cls-8" d="M179.47,561.32l4.44,4.18.62.58,5.15,4.86c.37.28.73.56,1.09.81,20.95,15,25.15-7.79,25.15-7.79s9.25,6,10.57,1.13S205,553.2,201.57,553.58a4,4,0,0,1-.91,0,14.809,14.809,0,0,1-4.69-1.66l-1-.55c-1.91-1.07-3.39-2.13-3.39-2.13Z" transform="translate(-104.19 -58.23)"/>
  <path id="Path_219" data-name="Path 219" class="cls-10" d="M156.83,361.2A30,30,0,0,0,171.49,387a17.118,17.118,0,0,0,1.1-2.18c1.08-2.52,1.73-5.2,2.82-7.71a23.81,23.81,0,0,1,5.05-7.35,3.14,3.14,0,0,1,1.33-.92,3.65,3.65,0,0,1,2.76.76,12.6,12.6,0,0,0,4.18,1.84,4.5,4.5,0,0,0,4.2-1.27c1.17-1.4,1-3.45.67-5.24-.74-3.91-2-7.75-2-11.72s1.51-8.26,5-10.22c3-1.74,6.83-1.3,10.21-2.23a12.178,12.178,0,0,0,1.54-.53,30,30,0,0,0-51.51,21Z" transform="translate(-104.19 -58.23)"/>
  <path id="Path_220" data-name="Path 220" class="cls-17" d="M210.37,335.46c.55.29,1.14.81,1,1.41a1.35,1.35,0,0,1-.55.7,12.94,12.94,0,0,1-4.75,2.44c-3.38.92-7.17.49-10.22,2.22-3.45,2-5,6.25-5,10.22s1.24,7.82,2,11.72c.34,1.79.51,3.84-.66,5.24a4.48,4.48,0,0,1-4.2,1.27,12.511,12.511,0,0,1-4.19-1.83,3.64,3.64,0,0,0-2.75-.77,3.43,3.43,0,0,0-1.34.92,24,24,0,0,0-5,7.36c-1.1,2.5-1.75,5.18-2.82,7.7a12.48,12.48,0,0,1-5.05,6.28c-2.39,1.32-5.72,1.22-7.56-.8s-1.71-4.86-2.58-7.33c-1.5-4.28-5.69-7-8.31-10.66-2.93-4.16-3.78-9.39-4.54-14.41a11.87,11.87,0,0,1-.08-4.82,17.6,17.6,0,0,1,1.33-3.06c2.91-6,2.86-13.64,7.52-18.47,3.49-3.62,8.8-4.73,13.8-5.34s10.24-1,14.53-3.61a15.539,15.539,0,0,1,3.94-2.18c1.45-.4,3.29,0,3.86,1.45a2.59,2.59,0,0,0,.52,1.05,1.63,1.63,0,0,0,1.48.08l6.65-1.78-.76,3.35a16.53,16.53,0,0,0,7-1.21c.13,1.89-2,3.12-2.67,4.89a4.53,4.53,0,0,0,1.3,4.6C204.64,334.44,207.65,334,210.37,335.46Z" transform="translate(-104.19 -58.23)"/>
  <path id="Path_221" data-name="Path 221" class="cls-10" d="M237.31,786.55l.27,3,.11.07c10.83,6,33.24-10.82,33.24-10.82l-2.35-2.34a4.15,4.15,0,0,0-1,3.16l-4.57.25-5.48,5.91s-14.8,1.72-18.81.76Z" transform="translate(-104.19 -58.23)"/>
  <path id="Path_222" data-name="Path 222" class="cls-12" d="M239.2,803c7.05,1.57,31.73,1.45,31.73,1.45l13.84,2.2s23.72,2.26,26.36-5.1-2.08-6.92-2.08-6.92h-.18l-9.88-.8s-12.52-4.85-17.12-8.19a99.8,99.8,0,0,1-10.26-9.19s-4.12-.8-4.05,4l-4.57.25-5.48,5.92s-14.8,1.71-18.81.75h-1.39l.64,7.3-.18.22C236.85,796,232.91,801.57,239.2,803Z" transform="translate(-104.19 -58.23)"/>
  <circle id="Ellipse_39" data-name="Ellipse 39" class="cls-13" cx="0.69" cy="0.69" r="0.69" transform="translate(159.87 725.72)"/>
  <circle id="Ellipse_40" data-name="Ellipse 40" class="cls-13" cx="0.69" cy="0.69" r="0.69" transform="translate(177.62 733.42)"/>
  <circle id="Ellipse_41" data-name="Ellipse 41" class="cls-13" cx="0.69" cy="0.69" r="0.69" transform="translate(186.76 736.19)"/>
  <circle id="Ellipse_42" data-name="Ellipse 42" class="cls-13" cx="0.69" cy="0.69" r="0.69" transform="translate(172.96 731.95)"/>
  <circle id="Ellipse_43" data-name="Ellipse 43" class="cls-13" cx="0.69" cy="0.69" r="0.69" transform="translate(182.21 734.81)"/>
  <circle id="Ellipse_44" data-name="Ellipse 44" class="cls-13" cx="0.69" cy="0.69" r="0.69" transform="translate(168.25 729.76)"/>
  <circle id="Ellipse_45" data-name="Ellipse 45" class="cls-13" cx="0.69" cy="0.69" r="0.69" transform="translate(163.6 727.74)"/>
  <path id="Path_223" data-name="Path 223" class="cls-14" d="M239.2,803c7.05,1.57,31.73,1.45,31.73,1.45l13.84,2.2s23.72,2.26,26.36-5.1-2.08-6.92-2.08-6.92h-.18c-1.52,1.95-4.55,4.18-10.51,4.29l-17.06.69-17.68-1.26s-16.55-.5-19.25-1.06a39.683,39.683,0,0,1-6.6-2.43C236.85,796,232.91,801.57,239.2,803Z" transform="translate(-104.19 -58.23)"/>
  <path id="Path_224" data-name="Path 224" class="cls-15" d="M283.43,805a10.852,10.852,0,0,0,2.8-.35l-.2-.73a13.73,13.73,0,0,1-7-.32c-.84-.21-1.67-.46-2.49-.71a38.857,38.857,0,0,0-4.61-1.16,38.348,38.348,0,0,0-7.64-.22h-.54a117.785,117.785,0,0,1-22.67-1c-1.69-.28-3.61-.68-4.84-1.94l-.54.52c1.39,1.43,3.45,1.87,5.26,2.16a117,117,0,0,0,22.82,1h.54a37.519,37.519,0,0,1,7.49.22,36.727,36.727,0,0,1,4.51,1.14c.84.25,1.68.49,2.52.71A18.521,18.521,0,0,0,283.43,805Z" transform="translate(-104.19 -58.23)"/>
  <path id="Path_225" data-name="Path 225" class="cls-10" d="M179.47,561.32l4.44,4.18,11-14.14c-1.91-1.07-3.39-2.13-3.39-2.13Z" transform="translate(-104.19 -58.23)"/>
  <path id="Path_226" data-name="Path 226" class="cls-16" d="M129.45,445.4l-8.68,12.08v12.65s-4,13.4,0,26.81l-.44,11.7s4.21,10.76,2.7,13.41c0,0,.76,7.93,10.95,13.4S155.69,554,155.69,554s4.35,8.31,16.05,6.42l11.14,4.72,12.84-16.42-17.37-9.44s-6-8.12-9.63-7.74L154,514.31s-.37-5.48-4.15-5.48c0,0,7-5.66,4.53-9.06s-.38-18.5-.38-18.5Z" transform="translate(-104.19 -58.23)"/>
  <path id="Path_227" data-name="Path 227" class="cls-10" d="M145.69,500.52s-19.83-.37-22.28,4.72S139.65,497.69,145.69,500.52Z" transform="translate(-104.19 -58.23)"/>
  <path id="Path_228" data-name="Path 228" class="cls-10" d="M184.45,565.09a5.44,5.44,0,0,0,.08,1,6.67,6.67,0,0,0,6.24,5.67h.36a6.66,6.66,0,0,0,6.66-6.67,6.51,6.51,0,0,0-.37-2.17c3.15-2.53,3.32-7.08,3.24-9.35a14.808,14.808,0,0,1-4.69-1.66,31.21,31.21,0,0,1-3.29,6.7,6.65,6.65,0,0,0-8.23,6.48Z" transform="translate(-104.19 -58.23)"/>
  <path id="Path_229" data-name="Path 229" class="cls-13" d="M195.37,550.43s4.47,1,4.47,1.82,1,8.19-3.91,11.21-4.4-4.22-4.4-4.22S195.75,552.76,195.37,550.43Z" transform="translate(-104.19 -58.23)"/>
  <circle id="Ellipse_46" data-name="Ellipse 46" class="cls-18" cx="6.67" cy="6.67" r="6.67" transform="translate(79.51 500.19)"/>
  <circle id="Ellipse_47" data-name="Ellipse 47" class="cls-14" cx="5.73" cy="5.73" r="5.73" transform="translate(80.45 501.13)"/>
  <path id="Path_230" data-name="Path 230" class="cls-10" d="M216.36,567.67s-14.1,11.71-32.22,4.28v5.67s12.08,8.3,23,3.27S216.36,567.67,216.36,567.67Z" transform="translate(-104.19 -58.23)"/>
  <path id="Path_231" data-name="Path 231" class="cls-10" d="M216.36,566.16s-14.1,11.7-32.22,4.28v5.66s12.08,8.31,23,3.28S216.36,566.16,216.36,566.16Z" transform="translate(-104.19 -58.23)"/>
  <path id="Path_232" data-name="Path 232" class="cls-9" d="M216.36,566.16s-14.1,11.7-32.22,4.28v5.66s12.08,8.31,23,3.28S216.36,566.16,216.36,566.16Z" transform="translate(-104.19 -58.23)"/>
  <path id="Path_233" data-name="Path 233" class="cls-11" d="M216,566.16s-14.1,11.7-32.22,4.28v5.66s12.08,8.31,23,3.28S216,566.16,216,566.16Z" transform="translate(-104.19 -58.23)"/>
  <path id="Path_234" data-name="Path 234" class="cls-10" d="M260.66,776.41s-18.88,3.47-21.65,4.22.76,2.08.76,2.08S257,779.62,260.66,776.41Z" transform="translate(-104.19 -58.23)"/>
  <path id="Path_235" data-name="Path 235" class="cls-10" d="M261.1,766.41c-.31,0-12.83-3.53-15.54-9.57" transform="translate(-104.19 -58.23)"/>
  <path id="Path_236" data-name="Path 236" class="cls-10" d="M242.83,694.16s-5.07,6.67-8.35,6.49S239.85,693.91,242.83,694.16Z" transform="translate(-104.19 -58.23)"/>
  <path id="Path_237" data-name="Path 237" class="cls-10" d="M240,705.24s-2.14,4.72-5.29,3.21" transform="translate(-104.19 -58.23)"/>
  <path id="Path_238" data-name="Path 238" class="cls-11" d="M228.13,601.59,214.74,636.9s-1.89-22.72,2.1-29.52A11.81,11.81,0,0,1,228.13,601.59Z" transform="translate(-104.19 -58.23)"/>
  <g id="Group_12" data-name="Group 12" class="cls-19">
    <path id="Path_239" data-name="Path 239" d="M195.17,321.83l.12-.51,2.15-.58-.24,1.06a17.164,17.164,0,0,1-2.03.03Z" transform="translate(-104.19 -58.23)"/>
    <path id="Path_240" data-name="Path 240" d="M201.08,330.32l-.22-.21a4.51,4.51,0,0,1-1.3-4.6,6.391,6.391,0,0,1,1.07-1.7,16.729,16.729,0,0,0,3.1-.92c.13,1.89-2,3.12-2.66,4.89A3.82,3.82,0,0,0,201.08,330.32Z" transform="translate(-104.19 -58.23)"/>
    <path id="Path_241" data-name="Path 241" d="M165.38,388.36a12.47,12.47,0,0,0,5-6.28c1.07-2.51,1.73-5.19,2.82-7.7a23.829,23.829,0,0,1,5-7.35,3.23,3.23,0,0,1,1.34-.92,3.62,3.62,0,0,1,2.76.76,12.37,12.37,0,0,0,4.18,1.83,4.47,4.47,0,0,0,4.2-1.26c1.17-1.4,1-3.46.66-5.25-.73-3.9-2-7.75-2-11.72s1.5-8.25,4.95-10.21c3.05-1.74,6.84-1.31,10.22-2.23a12.92,12.92,0,0,0,4.75-2.43l.26-.24a6.937,6.937,0,0,1,.83.39c.54.29,1.13.81,1,1.41a1.46,1.46,0,0,1-.56.7,12.94,12.94,0,0,1-4.75,2.44c-3.38.92-7.17.48-10.22,2.22-3.45,2-5,6.25-4.95,10.22s1.23,7.82,2,11.72c.34,1.79.51,3.84-.66,5.24a4.48,4.48,0,0,1-4.2,1.27,12.57,12.57,0,0,1-4.18-1.83,3.67,3.67,0,0,0-2.76-.77,3.33,3.33,0,0,0-1.34.92,24,24,0,0,0-5,7.36c-1.09,2.5-1.75,5.18-2.82,7.7a12.45,12.45,0,0,1-5,6.27c-2.4,1.33-5.72,1.23-7.57-.8a6.05,6.05,0,0,1-1.13-1.89A6.48,6.48,0,0,0,165.38,388.36Z" transform="translate(-104.19 -58.23)"/>
    <path id="Path_242" data-name="Path 242" d="M154.58,378.76c-1.89-2.38-4.37-4.42-6.14-6.93a16.654,16.654,0,0,1-1-1.54C149.75,373.2,152.88,375.55,154.58,378.76Z" transform="translate(-104.19 -58.23)"/>
  </g>
  <g id="Group_13" data-name="Group 13" class="cls-19">
    <path id="Path_243" data-name="Path 243" class="cls-20" d="M548.33,258.35,286.29,310.6V163.26l233.79-46.62Z"/>
  </g>
  <g id="Group_14" data-name="Group 14" class="cls-21">
    <rect id="Rectangle_48" data-name="Rectangle 48" class="cls-22" width="403.44" height="144.49" transform="translate(333.82 143.19)"/>
    <path id="Path_244" data-name="Path 244" class="cls-3" d="M841.45,201.43h-12v1h12Zm-24,0h-12v1h12Zm-24,0h-12v1h12Zm-24,0h-12v1h12Zm-24,0h-12v1h12Zm-24,0h-12v1h12Zm-24,0h-12v1h12Zm-24,0h-12v1h12Zm-24,0h-12v1h12Zm-24,0h-12v1h12Zm-24,0h-12v1h12Zm-24,0h-12v1h12Zm-24,0h-12v1h12Zm-24,0h-12v1h12Zm-24,0h-12v1h12Zm-24,0h-12v1h12Zm-24,0h-12v1h12ZM439,206h-1v12h1Zm0,24h-1v12h1Zm0,24h-1v12h1Zm0,24h-1v12h1Zm0,24h-1v12h1Zm0,24h-1v12h1Zm15.06,18.93h-12v1h12Zm24,0h-12v1h12Zm24,0h-12v1h12Zm24,0h-12v1h12Zm24,0h-12v1h12Zm24,0h-12v1h12Zm24,0h-12v1h12Zm24,0h-12v1h12Zm24,0h-12v1h12Zm24,0h-12v1h12Zm24,0h-12v1h12Zm24,0h-12v1h12Zm24,0h-12v1h12Zm24,0h-12v1h12Zm24,0h-12v1h12Zm24,0h-12v1h12Zm24,0h-12v1h12Zm3.38-19.62h-1v12h1Zm0-24h-1v12h1Zm0-24h-1v12h1Zm0-24h-1v12h1Zm0-24h-1v12h1Zm0-24h-1v12h1Z" transform="translate(-104.19 -58.23)"/>
  </g>
  <g id="Group_15" data-name="Group 15" class="cls-21">
    <rect id="Rectangle_49" data-name="Rectangle 49" class="cls-22" width="403.44" height="144.49" transform="translate(333.82 515.61)"/>
    <path id="Path_245" data-name="Path 245" class="cls-3" d="M841.45,573.85h-12v1h12Zm-24,0h-12v1h12Zm-24,0h-12v1h12Zm-24,0h-12v1h12Zm-24,0h-12v1h12Zm-24,0h-12v1h12Zm-24,0h-12v1h12Zm-24,0h-12v1h12Zm-24,0h-12v1h12Zm-24,0h-12v1h12Zm-24,0h-12v1h12Zm-24,0h-12v1h12Zm-24,0h-12v1h12Zm-24,0h-12v1h12Zm-24,0h-12v1h12Zm-24,0h-12v1h12Zm-24,0h-12v1h12ZM439,578.41h-1v12h1Zm0,24h-1v12h1Zm0,24h-1v12h1Zm0,24h-1v12h1Zm0,24h-1v12h1Zm0,24h-1v12h1Zm15.06,18.93h-12v1h12Zm24,0h-12v1h12Zm24,0h-12v1h12Zm24,0h-12v1h12Zm24,0h-12v1h12Zm24,0h-12v1h12Zm24,0h-12v1h12Zm24,0h-12v1h12Zm24,0h-12v1h12Zm24,0h-12v1h12Zm24,0h-12v1h12Zm24,0h-12v1h12Zm24,0h-12v1h12Zm24,0h-12v1h12Zm24,0h-12v1h12Zm24,0h-12v1h12Zm24,0h-12v1h12Zm3.38-19.62h-1v12h1Zm0-24h-1v12h1Zm0-24h-1v12h1Zm0-24h-1v12h1Zm0-24h-1v12h1Zm0-24h-1v12h1Z" transform="translate(-104.19 -58.23)"/>
  </g>
  <rect id="Rectangle_50" data-name="Rectangle 50" class="cls-6" width="403.44" height="144.49" transform="matrix(0.981, -0.196, 0.196, 0.981, 107.619, 185.648)"/>
  <rect id="Rectangle_51" data-name="Rectangle 51" class="cls-23" width="403.44" height="144.49" transform="matrix(0.981, -0.196, 0.196, 0.981, 107.619, 185.648)"/>
  <path id="Path_246" data-name="Path 246" class="cls-6" d="M369.38,239.52a11.75,11.75,0,0,0-1.46,7.38,10,10,0,0,0,7.65-11.66A11.77,11.77,0,0,0,369.38,239.52Z" transform="translate(-104.19 -58.23)"/>
  <path id="Path_247" data-name="Path 247" class="cls-6" d="M525.72,211.51a11.74,11.74,0,0,0,6.28,4.14,10,10,0,0,0-7.9-11.49A11.75,11.75,0,0,0,525.72,211.51Z" transform="translate(-104.19 -58.23)"/>
  <path id="Path_248" data-name="Path 248" class="cls-6" d="M468.07,210.07a8.06,8.06,0,0,0,.74,5.11,6.86,6.86,0,0,0,2.28-9.3,8.07,8.07,0,0,0-3.02,4.19Z" transform="translate(-104.19 -58.23)"/>
  <path id="Path_249" data-name="Path 249" class="cls-6" d="M395.09,277.69a8.1,8.1,0,0,0,.74,5.12,6.87,6.87,0,0,0,2.28-9.31A8.07,8.07,0,0,0,395.09,277.69Z" transform="translate(-104.19 -58.23)"/>
  <path id="Path_250" data-name="Path 250" class="cls-6" d="M433,290.33a8.09,8.09,0,0,0,3.86,3.44,6.87,6.87,0,0,0-4.23-8.6A8.06,8.06,0,0,0,433,290.33Z" transform="translate(-104.19 -58.23)"/>
  <path id="Path_251" data-name="Path 251" class="cls-6" d="M419.08,239.81a11.74,11.74,0,0,0,3.61,6.61,10,10,0,0,0-1.6-13.86A11.76,11.76,0,0,0,419.08,239.81Z" transform="translate(-104.19 -58.23)"/>
  <path id="Path_252" data-name="Path 252" class="cls-6" d="M466.9,242.13a11.75,11.75,0,0,0-1.3,7.41,10,10,0,0,0,7.4-11.83,11.73,11.73,0,0,0-6.1,4.42Z" transform="translate(-104.19 -58.23)"/>
  <ellipse id="Ellipse_48" data-name="Ellipse 48" class="cls-6" cx="40.21" cy="6.8" rx="40.21" ry="6.8" transform="matrix(0.981, -0.196, 0.196, 0.981, 424.763, 239.511)"/>
  <path id="Path_253" data-name="Path 253" class="cls-6" d="M583.84,282.43a11.62,11.62,0,0,0,2.62-6.42c0-2.35-1.46-4.86-3.78-5.26-2.59-.44-4.84,1.75-6.45,3.83s-3.48,4.45-6.11,4.6a10.46,10.46,0,0,0,1.26-10.25,4.081,4.081,0,0,0-1.27-1.78c-1.62-1.17-3.93-.07-5.31,1.38-4.38,4.6-4.42,11.82-3.21,18.06-1-2.15-1-4.58-1.47-6.89s-1.61-4.73-3.81-5.58a7.81,7.81,0,0,0-4.13-.14c-2.31.37-4.82,1.11-6,3.1-1.53,2.47-.33,5.86,1.82,7.82s5,2.88,7.7,4a15,15,0,0,1,5.64,3.58,4.186,4.186,0,0,1,.51.74l14.37-2.87a40.76,40.76,0,0,0,7.62-7.92Z" transform="translate(-104.19 -58.23)"/>
  <path id="Path_254" data-name="Path 254" class="cls-24" d="M303,348s-11.42-21.76-6.72-40.4a37.26,37.26,0,0,0-1.62-23.5,62.636,62.636,0,0,0-5.38-10.1" transform="translate(-104.19 -58.23)"/>
  <path id="Path_255" data-name="Path 255" class="cls-6" d="M292.17,262.28c.57,2.83-2.93,12.07-2.93,12.07s-6.77-7.19-7.33-10a5.23,5.23,0,1,1,10.26-2Z" transform="translate(-104.19 -58.23)"/>
  <path id="Path_256" data-name="Path 256" class="cls-6" d="M303.78,276.28c-1.06,2.69-9,8.55-9,8.55s-1.77-9.72-.7-12.41a5.23,5.23,0,1,1,9.721,3.86Z" transform="translate(-104.19 -58.23)"/>
  <path id="Path_257" data-name="Path 257" class="cls-6" d="M308.76,303.18c-2.28,1.78-12.1,2.82-12.1,2.82s3.38-9.28,5.65-11.06a5.232,5.232,0,0,1,6.45,8.24Z" transform="translate(-104.19 -58.23)"/>
  <path id="Path_258" data-name="Path 258" class="cls-6" d="M307.94,324.38c-1.94,2.14-11.44,4.83-11.44,4.83s1.75-9.72,3.7-11.86a5.23,5.23,0,1,1,7.74,7Z" transform="translate(-104.19 -58.23)"/>
  <path id="Path_259" data-name="Path 259" class="cls-6" d="M284.1,287.52c2.42,1.57,12.3,1.73,12.3,1.73s-4.19-8.94-6.62-10.51a5.23,5.23,0,0,0-5.68,8.78Z" transform="translate(-104.19 -58.23)"/>
  <path id="Path_260" data-name="Path 260" class="cls-6" d="M283.46,312.33c2.78.77,12.25-2,12.25-2s-6.67-7.28-9.46-8.06a5.234,5.234,0,1,0-2.79,10.09Z" transform="translate(-104.19 -58.23)"/>
  <path id="Path_261" data-name="Path 261" class="cls-6" d="M286.14,336.52c2.62,1.24,12.43.07,12.43.07s-5.35-8.3-8-9.53a5.23,5.23,0,1,0-4.46,9.461Z" transform="translate(-104.19 -58.23)"/>
  <path id="Path_262" data-name="Path 262" class="cls-6" d="M340.72,298.73s3.21,2.83.49,8.6-4.95,10.63-3.08,13.52c0,0,3.76-10.46,8.3-11.5S346.87,303.35,340.72,298.73Z" transform="translate(-104.19 -58.23)"/>
  <path id="Path_263" data-name="Path 263" class="cls-10" d="M340.72,298.73a4.611,4.611,0,0,1,.73.95c5.5,4.35,8.86,8.77,4.59,9.74-4,.92-7.34,9-8.13,11.05.07.13.14.26.22.38s3.76-10.46,8.3-11.5S346.87,303.35,340.72,298.73Z" transform="translate(-104.19 -58.23)"/>
  <path id="Path_264" data-name="Path 264" class="cls-6" d="M346.3,302c.24,1.17.29,2.15.13,2.18s-.48-.89-.72-2.07,0-.65.21-.68S346.07,300.86,346.3,302Z" transform="translate(-104.19 -58.23)"/>
  <path id="Path_265" data-name="Path 265" class="cls-6" d="M348.21,303.11c-.92.77-1.75,1.29-1.86,1.16s.55-.85,1.47-1.62.59-.27.7-.15S349.12,302.35,348.21,303.11Z" transform="translate(-104.19 -58.23)"/>
  <path id="Path_266" data-name="Path 266" class="cls-6" d="M327.26,301.42s-1.88,3.84,2.84,8.13,8.65,7.92,8,11.3c0,0-7.48-8.22-12.08-7.44S323.35,308,327.26,301.42Z" transform="translate(-104.19 -58.23)"/>
  <path id="Path_267" data-name="Path 267" class="cls-10" d="M327.26,301.42a4,4,0,0,0-.31,1.15c-3.42,6.13-4.82,11.49-.51,10.76,4-.68,10.24,5.51,11.75,7.08a3.115,3.115,0,0,1-.06.44s-7.48-8.22-12.08-7.44S323.35,308,327.26,301.42Z" transform="translate(-104.19 -58.23)"/>
  <path id="Path_268" data-name="Path 268" class="cls-6" d="M323.37,306.61c.23,1.17.56,2.1.72,2.06s.1-1-.13-2.18-.29-.59-.45-.55S323.14,305.44,323.37,306.61Z" transform="translate(-104.19 -58.23)"/>
  <path id="Path_269" data-name="Path 269" class="cls-6" d="M322,308.33c1.15.36,2.11.52,2.16.36s-.84-.57-2-.93-.65,0-.7.13S320.88,308,322,308.33Z" transform="translate(-104.19 -58.23)"/>
  <ellipse id="Ellipse_49" data-name="Ellipse 49" class="cls-6" cx="28.44" cy="4.81" rx="28.44" ry="4.81" transform="matrix(0.981, -0.196, 0.196, 0.981, 170.555, 292.234)"/>
  <ellipse id="Ellipse_50" data-name="Ellipse 50" class="cls-6" cx="20.19" cy="3.41" rx="20.19" ry="3.41" transform="matrix(0.981, -0.196, 0.196, 0.981, 213.683, 264.925)"/>
  <ellipse id="Ellipse_51" data-name="Ellipse 51" class="cls-6" cx="13.84" cy="2.34" rx="13.84" ry="2.34" transform="matrix(0.981, -0.196, 0.196, 0.981, 324.729, 247.347)"/>
  <ellipse id="Ellipse_52" data-name="Ellipse 52" class="cls-6" cx="10.94" cy="1.85" rx="10.94" ry="1.85" transform="matrix(0.981, -0.196, 0.196, 0.981, 382.631, 223.656)"/>
  <ellipse id="Ellipse_53" data-name="Ellipse 53" class="cls-6" cx="20.19" cy="3.41" rx="20.19" ry="3.41" transform="matrix(0.981, -0.196, 0.196, 0.981, 267.571, 274.325)"/>
  <ellipse id="Ellipse_54" data-name="Ellipse 54" class="cls-6" cx="20.19" cy="3.41" rx="20.19" ry="3.41" transform="matrix(0.981, -0.196, 0.196, 0.981, 349.011, 261.56)"/>
  <rect id="Rectangle_52" data-name="Rectangle 52" class="cls-6" width="44.5" height="10.22" transform="matrix(0.981, -0.196, 0.196, 0.981, 446.963, 132.896)"/>
  <path id="Path_272" data-name="Path 272" class="cls-6" d="M628.8,648l-1.29-1.28a1.39,1.39,0,0,1,0-2l11.24-11.24a1.39,1.39,0,0,1,2,0l11.23,11.23a1.39,1.39,0,0,1,0,2L650.66,648a1.4,1.4,0,0,1-2,0L642,641v16.62a1.39,1.39,0,0,1-1.39,1.39H638.8a1.38,1.38,0,0,1-1.38-1.39V641l-6.64,7a1.37,1.37,0,0,1-1.98,0Z" transform="translate(-104.19 -58.23)"/>
  <path id="Path_273" data-name="Path 273" class="cls-6" d="M639.73,623.3a22.8,22.8,0,1,1-22.79,22.793A22.8,22.8,0,0,1,639.73,623.3m0-3a25.8,25.8,0,1,0,25.79,25.793A25.8,25.8,0,0,0,639.73,620.3Z" transform="translate(-104.19 -58.23)"/>
  <path id="Path_274" data-name="Path 274" class="cls-3" d="M1035.76,692.73s7.14,9.33-3.29,23.41-19,26-15.55,34.76c0,0,15.73-26.16,28.54-26.52S1049.85,708.46,1035.76,692.73Z" transform="translate(-104.19 -58.23)"/>
  <path id="Path_275" data-name="Path 275" class="cls-10" d="M1035.76,692.73a11.492,11.492,0,0,1,1.46,2.92c12.5,14.68,19.15,28.38,7.14,28.73-11.19.32-24.61,20.32-27.82,25.37a9.1,9.1,0,0,0,.38,1.15s15.73-26.16,28.54-26.52S1049.85,708.46,1035.76,692.73Z" transform="translate(-104.19 -58.23)"/>
  <path id="Path_276" data-name="Path 276" class="cls-25" d="M1049,704.62c0,3.28-.37,5.94-.83,5.94s-.82-2.66-.82-5.94.46-1.74.91-1.74S1049,701.33,1049,704.62Z" transform="translate(-104.19 -58.23)"/>
  <path id="Path_277" data-name="Path 277" class="cls-25" d="M1053.58,708.54c-2.89,1.57-5.4,2.52-5.62,2.12s2-2,4.83-3.57,1.75-.42,2,0S1056.46,707,1053.58,708.54Z" transform="translate(-104.19 -58.23)"/>
  <path id="Path_278" data-name="Path 278" class="cls-3" d="M998.07,692.73s-7.13,9.33,3.3,23.41,19,26,15.55,34.76c0,0-15.73-26.16-28.54-26.52S984,708.46,998.07,692.73Z" transform="translate(-104.19 -58.23)"/>
  <path id="Path_279" data-name="Path 279" class="cls-10" d="M998.07,692.73a11.709,11.709,0,0,0-1.45,2.92c-12.5,14.68-19.15,28.38-7.14,28.73,11.18.32,24.61,20.32,27.82,25.37a11.066,11.066,0,0,1-.38,1.15s-15.73-26.16-28.54-26.52S984,708.46,998.07,692.73Z" transform="translate(-104.19 -58.23)"/>
  <path id="Path_280" data-name="Path 280" class="cls-25" d="M984.81,704.62c0,3.28.37,5.94.82,5.94s.83-2.66.83-5.94-.46-1.74-.92-1.74S984.81,701.33,984.81,704.62Z" transform="translate(-104.19 -58.23)"/>
  <path id="Path_281" data-name="Path 281" class="cls-25" d="M980.26,708.54c2.88,1.57,5.4,2.52,5.61,2.12s-1.94-2-4.82-3.57-1.75-.42-2,0S977.38,707,980.26,708.54Z" transform="translate(-104.19 -58.23)"/>
  <ellipse id="Ellipse_55" data-name="Ellipse 55" class="cls-1" cx="74.6" cy="11.45" rx="74.6" ry="11.45" transform="translate(838.13 741.15)"/>
  <path id="Path_282" data-name="Path 282" class="cls-26" d="M1055.32,738.33l-.36,2.91-.5,4.12-.21,1.71-.5,4.12-.22,1.72L1053,757l-5.71,46.8c-.51,4.18-7.33,7.43-15.57,7.43h-29.66c-8.24,0-15.06-3.25-15.57-7.43L980.81,757l-.51-4.11-.2-1.72-.51-4.12-.21-1.71-.5-4.12-.36-2.91c-.28-2.36,3.41-4.36,8.07-4.36h60.67C1051.91,734,1055.61,736,1055.32,738.33Z" transform="translate(-104.19 -58.23)"/>
  <path id="Path_283" data-name="Path 283" class="cls-27" d="M950.77,683.01l-.5,4.11H875.19l-.5-4.11Z"/>
  <path id="Path_284" data-name="Path 284" class="cls-27" d="M950.06,688.84l-.5,4.12H875.91l-.51-4.12Z"/>
  <path id="Path_285" data-name="Path 285" class="cls-27" d="M949.34,694.67l-.5,4.12H876.62l-.5-4.12Z"/>
  <path id="Path_286" data-name="Path 286" class="cls-3" d="M3.74,0h6.49V-30.47L39.05,0h5.5V-40.04H38.06V-9.57L9.24-40.04H3.74ZM63.03.55A12.305,12.305,0,0,0,75.35-11.44c0-7.15-5.17-11.99-12.32-11.99A12.305,12.305,0,0,0,50.71-11.44C50.71-4.29,55.88.55,63.03.55Zm0-5.72a6.107,6.107,0,0,1-6.16-6.27,6.042,6.042,0,0,1,6.16-6.27,5.979,5.979,0,0,1,6.16,6.27A6.041,6.041,0,0,1,63.03-5.17ZM107.36.55a9.392,9.392,0,0,0,6.82-2.53V0h6.05V-11.44c0-7.15-5.17-11.99-12.32-11.99A12.305,12.305,0,0,0,95.59-11.44C95.59-4.29,100.43.55,107.36.55Zm.55-5.72a6.107,6.107,0,0,1-6.16-6.27,6.042,6.042,0,0,1,6.16-6.27,5.979,5.979,0,0,1,6.16,6.27A6.041,6.041,0,0,1,107.91-5.17ZM137.39.55a11.734,11.734,0,0,0,8.47-3.63l-4.07-3.96a6.436,6.436,0,0,1-4.4,1.87,6.107,6.107,0,0,1-6.16-6.27,6.042,6.042,0,0,1,6.16-6.27,6.607,6.607,0,0,1,4.51,1.76l4.07-4.07a11.358,11.358,0,0,0-8.58-3.41,12.305,12.305,0,0,0-12.32,11.99C125.07-4.29,130.24.55,137.39.55ZM153.45,0h6.16V-17.16h3.08v-5.72h-3.08V-40.04h-6.16v17.16h-3.08v5.72h3.08ZM171.6-33a3.8,3.8,0,0,0,3.74-3.85,3.709,3.709,0,0,0-3.74-3.74,3.8,3.8,0,0,0-3.85,3.74A3.9,3.9,0,0,0,171.6-33ZM168.41,0h6.16V-22.88h-6.16Zm19.8,0h6.16l9.24-22.88h-6.16L191.29-6.27l-6.16-16.61h-6.16ZM211.2-33a3.8,3.8,0,0,0,3.74-3.85,3.709,3.709,0,0,0-3.74-3.74,3.8,3.8,0,0,0-3.85,3.74A3.9,3.9,0,0,0,211.2-33ZM208.01,0h6.16V-22.88h-6.16Zm15.4,0h6.16V-17.16h3.08v-5.72h-3.08V-40.04h-6.16v17.16h-3.08v5.72h3.08Zm16.06,11.44h5.94l14.08-34.32h-6.16L247.28-6.93l-6.27-15.95h-6.16L244.2,0ZM279.29,0h6.16V-11.44a6.042,6.042,0,0,1,6.16-6.27,5.979,5.979,0,0,1,6.16,6.27V0h6.16V-11.44c0-7.15-4.84-11.99-11.77-11.99-2.86,0-5.39.99-6.71,2.53V-40.04h-6.16Zm41.8.55a11.887,11.887,0,0,0,8.47-3.52l-3.74-3.85c-1.65,1.54-2.75,2.09-4.73,2.09a6.311,6.311,0,0,1-6.27-4.62h18.59v-2.09c-.44-7.48-5.17-11.99-12.32-11.99a12.305,12.305,0,0,0-12.32,11.99C308.77-4.29,313.94.55,321.09.55Zm-6.16-14.63a6.345,6.345,0,0,1,6.16-4.4,6.255,6.255,0,0,1,6.27,4.4ZM338.3,0h6.16V-14.3a2.713,2.713,0,0,1,2.86-2.86h1.76v-5.72h-2.2a8.261,8.261,0,0,0-8.58,8.58Zm27.06.55a11.887,11.887,0,0,0,8.47-3.52L370.1-6.82c-1.65,1.54-2.75,2.09-4.73,2.09a6.311,6.311,0,0,1-6.27-4.62h18.59v-2.09c-.44-7.48-5.17-11.99-12.32-11.99a12.305,12.305,0,0,0-12.32,11.99C353.045-4.29,358.215.55,365.365.55ZM359.2-14.08a6.345,6.345,0,0,1,6.16-4.4,6.255,6.255,0,0,1,6.27,4.4ZM387.915.55a3.8,3.8,0,0,0,3.795-3.8,3.8,3.8,0,0,0-3.795-3.8,3.8,3.8,0,0,0-3.8,3.8A3.8,3.8,0,0,0,387.915.55Zm15.51,0a3.8,3.8,0,0,0,3.795-3.8,3.8,3.8,0,0,0-3.795-3.8,3.8,3.8,0,0,0-3.8,3.8A3.8,3.8,0,0,0,403.425.55Zm15.51,0a3.8,3.8,0,0,0,3.795-3.8,3.8,3.8,0,0,0-3.795-3.8,3.8,3.8,0,0,0-3.8,3.8A3.8,3.8,0,0,0,418.935.55Z" transform="translate(320 374)"/>
  <path id="Path_287" data-name="Path 287" class="cls-26" d="M10.72.4a8.534,8.534,0,0,0,6.16-2.64L13.92-5.12a4.681,4.681,0,0,1-3.2,1.36A4.441,4.441,0,0,1,6.24-8.32a4.394,4.394,0,0,1,4.48-4.56A4.805,4.805,0,0,1,14-11.6l2.96-2.96a8.261,8.261,0,0,0-6.24-2.48A8.949,8.949,0,0,0,1.76-8.32C1.76-3.12,5.52.4,10.72.4Zm9.6-.4H24.8V-10.4a1.973,1.973,0,0,1,2.08-2.08h1.28v-4.16h-1.6a6.008,6.008,0,0,0-6.24,6.24ZM40,.4a8.645,8.645,0,0,0,6.16-2.56l-2.72-2.8A4.406,4.406,0,0,1,40-3.44,4.59,4.59,0,0,1,35.44-6.8H48.96V-8.32c-.32-5.44-3.76-8.72-8.96-8.72a8.949,8.949,0,0,0-8.96,8.72C31.04-3.12,34.8.4,40,.4ZM35.52-10.24A4.614,4.614,0,0,1,40-13.44a4.549,4.549,0,0,1,4.56,3.2ZM60.28.4a6.831,6.831,0,0,0,4.96-1.84V0h4.4V-8.32c0-5.2-3.76-8.72-8.96-8.72a8.949,8.949,0,0,0-8.96,8.72C51.72-3.12,55.24.4,60.28.4Zm.4-4.16A4.441,4.441,0,0,1,56.2-8.32a4.394,4.394,0,0,1,4.48-4.56,4.349,4.349,0,0,1,4.48,4.56A4.394,4.394,0,0,1,60.68-3.76ZM76.04,0h4.48V-12.48h2.24v-4.16H80.52V-29.12H76.04v12.48H73.8v4.16h2.24ZM94.76.4a8.645,8.645,0,0,0,6.16-2.56L98.2-4.96a4.406,4.406,0,0,1-3.44,1.52A4.59,4.59,0,0,1,90.2-6.8h13.52V-8.32c-.32-5.44-3.76-8.72-8.96-8.72A8.949,8.949,0,0,0,85.8-8.32C85.8-3.12,89.56.4,94.76.4ZM90.28-10.24a4.614,4.614,0,0,1,4.48-3.2,4.549,4.549,0,0,1,4.56,3.2ZM118.96,0h11.52a5.264,5.264,0,0,0,5.12-5.12,5.054,5.054,0,0,0-5.12-5.12H124a1.3,1.3,0,0,1-1.36-1.36A1.333,1.333,0,0,1,124-12.88h9.52v-3.76H123.6a5.209,5.209,0,0,0-5.12,5.12A5.1,5.1,0,0,0,123.6-6.4h6.48a1.284,1.284,0,0,1,1.36,1.28,1.3,1.3,0,0,1-1.36,1.36H118.96ZM147.6.4a8.949,8.949,0,0,0,8.96-8.72c0-5.2-3.76-8.72-8.96-8.72a8.949,8.949,0,0,0-8.96,8.72C138.64-3.12,142.4.4,147.6.4Zm0-4.16a4.441,4.441,0,0,1-4.48-4.56,4.394,4.394,0,0,1,4.48-4.56,4.348,4.348,0,0,1,4.48,4.56A4.394,4.394,0,0,1,147.6-3.76ZM160.08,0h4.48V-8.32a4.394,4.394,0,0,1,4.48-4.56,4.348,4.348,0,0,1,4.48,4.56V0H178V-8.32a4.349,4.349,0,0,1,4.48-4.56,4.394,4.394,0,0,1,4.48,4.56V0h4.48V-8.32c0-5.2-3.68-8.72-8.88-8.72a9.319,9.319,0,0,0-6.64,2.8,8.9,8.9,0,0,0-6.8-2.8,8.9,8.9,0,0,0-9.04,8.72Zm43.84.4a8.645,8.645,0,0,0,6.16-2.56l-2.72-2.8a4.406,4.406,0,0,1-3.44,1.52,4.59,4.59,0,0,1-4.56-3.36h13.52V-8.32c-.32-5.44-3.76-8.72-8.96-8.72a8.949,8.949,0,0,0-8.96,8.72C194.96-3.12,198.72.4,203.92.4Zm-4.48-10.64a4.614,4.614,0,0,1,4.48-3.2,4.549,4.549,0,0,1,4.56,3.2ZM218.52,0H223V-12.48h2.24v-4.16H223V-29.12h-4.48v12.48h-2.24v4.16h2.24ZM229.4,0h4.48V-8.32a4.394,4.394,0,0,1,4.48-4.56,4.349,4.349,0,0,1,4.48,4.56V0h4.48V-8.32c0-5.2-3.52-8.72-8.56-8.72a6.5,6.5,0,0,0-4.88,1.84V-29.12H229.4Zm25.68-24a2.766,2.766,0,0,0,2.72-2.8,2.7,2.7,0,0,0-2.72-2.72,2.766,2.766,0,0,0-2.8,2.72A2.835,2.835,0,0,0,255.08-24ZM252.76,0h4.48V-16.64h-4.48Zm9.92,0h4.48V-8.32a4.394,4.394,0,0,1,4.48-4.56,4.349,4.349,0,0,1,4.48,4.56V0h4.48V-8.32c0-5.2-3.68-8.72-8.88-8.72a8.9,8.9,0,0,0-9.04,8.72Zm30.88,8.72A8.691,8.691,0,0,0,302.52,0V-8.32c0-5.2-3.76-8.72-8.96-8.72a8.949,8.949,0,0,0-8.96,8.72c0,5.2,3.52,8.72,8.56,8.72a6.7,6.7,0,0,0,4.96-1.84V0a4.52,4.52,0,0,1-4.56,4.8A4.389,4.389,0,0,1,289,.16h-4.24C284.76,5.44,288.28,8.72,293.56,8.72Zm0-12.48a4.441,4.441,0,0,1-4.48-4.56,4.394,4.394,0,0,1,4.48-4.56,4.348,4.348,0,0,1,4.48,4.56A4.394,4.394,0,0,1,293.56-3.76Z" transform="translate(370 463)"/>
</svg>
