<svg id="undraw_collection_u2np" xmlns="http://www.w3.org/2000/svg" xmlns:xlink="http://www.w3.org/1999/xlink" viewBox="0 0 1015.595 783.53">
  <defs>
    <style>
      .cls-1, .cls-22, .cls-23, .cls-3 {
        fill: #005fd5;
      }

      .cls-1, .cls-11, .cls-20 {
        opacity: 0.1;
      }

      .cls-2, .cls-24 {
        fill: none;
        stroke-miterlimit: 10;
      }

      .cls-2 {
        stroke: #535461;
        stroke-width: 2px;
      }

      .cls-4 {
        opacity: 0.25;
      }

      .cls-5 {
        fill: url(#linear-gradient);
      }

      .cls-6 {
        fill: #f6f7f9;
      }

      .cls-21, .cls-22, .cls-7 {
        opacity: 0.2;
      }

      .cls-8 {
        fill: url(#linear-gradient-2);
      }

      .cls-9 {
        fill: #cc818c;
      }

      .cls-10 {
        fill: #444053;
      }

      .cls-12 {
        opacity: 0.05;
      }

      .cls-13 {
        fill: #ff748f;
      }

      .cls-14, .cls-16 {
        fill: #575988;
      }

      .cls-15 {
        fill: #dce6f2;
      }

      .cls-16 {
        opacity: 0.5;
      }

      .cls-17 {
        fill: #67647e;
      }

      .cls-18 {
        fill: #585268;
      }

      .cls-19 {
        fill: #e4aab4;
      }

      .cls-23 {
        opacity: 0.4;
      }

      .cls-24 {
        stroke: #f6f7f9;
      }

      .cls-25 {
        fill: #ffd037;
      }

      .cls-26 {
        fill: #65617d;
      }

      .cls-27 {
        fill: #9d9cb5;
      }
    </style>
    <linearGradient id="linear-gradient" x1="0.5" y1="1" x2="0.5" gradientUnits="objectBoundingBox">
      <stop offset="0" stop-color="gray" stop-opacity="0.251"/>
      <stop offset="0.54" stop-color="gray" stop-opacity="0.122"/>
      <stop offset="1" stop-color="gray" stop-opacity="0.102"/>
    </linearGradient>
    <linearGradient id="linear-gradient-2" x1="3.47" y1="1" x2="3.47" xlink:href="#linear-gradient"/>
  </defs>
  <path id="Path_1" data-name="Path 1" class="cls-1" d="M741.27,184.55c-42.28,26.74-97.12,25-145.17,11.1s-92.2-38.69-139-56.3a490.709,490.709,0,0,0-122.13-28.76c-59.67-6.17-126.31,1.34-167.88,44.57-46.3,48.15-42.75,135,7.33,179.18,25.47,22.48,58.83,33.51,87.91,51.06s56,46.7,53.54,80.58c-2.29,31.36-28.95,55.43-56.55,70.53-21.32,11.67-47.59,24.41-50.16,48.58-2.49,23.39,19.6,41.72,40.69,52.14,68.79,34,153.56,33.67,222.09-.86,24.45-12.32,46.93-28.7,72.57-38.3,67.32-25.21,141.51.17,212.8,9.45a469.281,469.281,0,0,0,181-11.91c35.31-9.42,70.75-23.82,95.55-50.65,17.88-19.35,29-43.83,39.48-68q16.74-38.68,32.17-77.9c6.18-15.7,12.25-31.7,13.85-48.5,2.89-30.43-9.29-60.51-25.87-86.2-39.37-61-105.68-103.86-177.45-114.75S768.18,160,712.48,206.53" transform="translate(-104.19 -58.23)"/>
  <ellipse id="Ellipse_1" data-name="Ellipse 1" class="cls-1" cx="135.74" cy="26.54" rx="135.74" ry="26.54" transform="translate(0 730.45)"/>
  <ellipse id="Ellipse_2" data-name="Ellipse 2" class="cls-1" cx="284.54" cy="26.54" rx="284.54" ry="26.54" transform="translate(254.45 675.02)"/>
  <path id="Path_2" data-name="Path 2" class="cls-2" d="M836.32,570.83s39.89-70.66,100-91c25.21-8.55,47.22-24.62,62.27-46.58a207.217,207.217,0,0,0,18.37-33.05" transform="translate(-104.19 -58.23)"/>
  <path id="Path_3" data-name="Path 3" class="cls-3" d="M1054.7,387.12c-6.85,6.64-38.73,13.51-38.73,13.51s7.82-31.65,14.67-38.3a17.273,17.273,0,1,1,24.06,24.79Z" transform="translate(-104.19 -58.23)"/>
  <path id="Path_4" data-name="Path 4" class="cls-3" d="M1036.66,444.41c-9.35,1.85-39.85-9.71-39.85-9.71s23.77-22.32,33.13-24.18a17.275,17.275,0,0,1,6.72,33.89Z" transform="translate(-104.19 -58.23)"/>
  <path id="Path_5" data-name="Path 5" class="cls-3" d="M971,506.4c-9-3.12-29.5-28.49-29.5-28.49s31.79-7.28,40.8-4.16A17.28,17.28,0,0,1,971,506.4Z" transform="translate(-104.19 -58.23)"/>
  <path id="Path_6" data-name="Path 6" class="cls-3" d="M910.76,542.11c-9.41-1.55-33.9-23.09-33.9-23.09s30.11-12.54,39.52-11a17.27,17.27,0,0,1-5.62,34.08Z" transform="translate(-104.19 -58.23)"/>
  <path id="Path_7" data-name="Path 7" class="cls-3" d="M970.23,410c0,9.54,17.25,37.21,17.25,37.21s17.29-27.66,17.29-37.2a17.27,17.27,0,0,0-34.54,0Z" transform="translate(-104.19 -58.23)"/>
  <path id="Path_8" data-name="Path 8" class="cls-3" d="M900.3,452.63c2.85,9.1,27.6,30.34,27.6,30.34s8.22-31.56,5.37-40.66a17.288,17.288,0,0,0-33,10.32Z" transform="translate(-104.19 -58.23)"/>
  <path id="Path_9" data-name="Path 9" class="cls-3" d="M838,503.42c1.3,9.46,22.1,34.58,22.1,34.58s13.44-29.71,12.17-39.17a17.274,17.274,0,0,0-34.24,4.6Z" transform="translate(-104.19 -58.23)"/>
  <path id="Path_10" data-name="Path 10" class="cls-4" d="M1054.7,387.12c-6.85,6.64-38.73,13.51-38.73,13.51s7.82-31.65,14.67-38.3a17.273,17.273,0,1,1,24.06,24.79Z" transform="translate(-104.19 -58.23)"/>
  <path id="Path_11" data-name="Path 11" class="cls-4" d="M1036.66,444.41c-9.35,1.85-39.85-9.71-39.85-9.71s23.77-22.32,33.13-24.18a17.275,17.275,0,0,1,6.72,33.89Z" transform="translate(-104.19 -58.23)"/>
  <path id="Path_12" data-name="Path 12" class="cls-4" d="M971,506.4c-9-3.12-29.5-28.49-29.5-28.49s31.79-7.28,40.8-4.16A17.28,17.28,0,0,1,971,506.4Z" transform="translate(-104.19 -58.23)"/>
  <path id="Path_13" data-name="Path 13" class="cls-4" d="M910.76,542.11c-9.41-1.55-33.9-23.09-33.9-23.09s30.11-12.54,39.52-11a17.27,17.27,0,0,1-5.62,34.08Z" transform="translate(-104.19 -58.23)"/>
  <path id="Path_14" data-name="Path 14" class="cls-4" d="M970.23,410c0,9.54,17.25,37.21,17.25,37.21s17.29-27.66,17.29-37.2a17.27,17.27,0,0,0-34.54,0Z" transform="translate(-104.19 -58.23)"/>
  <path id="Path_15" data-name="Path 15" class="cls-4" d="M900.3,452.63c2.85,9.1,27.6,30.34,27.6,30.34s8.22-31.56,5.37-40.66a17.288,17.288,0,0,0-33,10.32Z" transform="translate(-104.19 -58.23)"/>
  <path id="Path_16" data-name="Path 16" class="cls-4" d="M838,503.42c1.3,9.46,22.1,34.58,22.1,34.58s13.44-29.71,12.17-39.17a17.274,17.274,0,0,0-34.24,4.6Z" transform="translate(-104.19 -58.23)"/>
  <path id="Path_17" data-name="Path 17" class="cls-2" d="M838.61,569.42s7.84-80.76,54.5-123.71a122.4,122.4,0,0,0,38-67.82,206.915,206.915,0,0,0,3.41-37.66" transform="translate(-104.19 -58.23)"/>
  <path id="Path_18" data-name="Path 18" class="cls-3" d="M963.81,313c-3.56,8.85-29.92,28-29.92,28s-5.68-32.11-2.11-41a17.27,17.27,0,0,1,32,12.91Z" transform="translate(-104.19 -58.23)"/>
  <path id="Path_19" data-name="Path 19" class="cls-3" d="M970.54,372.66c-7.8,5.49-40.36,7.28-40.36,7.28s12.68-30,20.49-35.53a17.27,17.27,0,1,1,19.871,28.251Z" transform="translate(-104.19 -58.23)"/>
  <path id="Path_20" data-name="Path 20" class="cls-3" d="M935.63,455.94c-9.5.8-38.52-14.09-38.52-14.09s26.12-19.53,35.63-20.33a17.271,17.271,0,0,1,2.89,34.42Z" transform="translate(-104.19 -58.23)"/>
  <path id="Path_21" data-name="Path 21" class="cls-3" d="M895,513c-9.23,2.39-40.35-7.38-40.35-7.38s22.44-23.67,31.68-26.06A17.273,17.273,0,0,1,895,513Z" transform="translate(-104.19 -58.23)"/>
  <path id="Path_22" data-name="Path 22" class="cls-3" d="M895.85,368.1c3.86,8.72,30.85,27,30.85,27s4.6-32.28.74-41a17.277,17.277,0,0,0-31.59,14Z" transform="translate(-104.19 -58.23)"/>
  <path id="Path_23" data-name="Path 23" class="cls-3" d="M849.21,435.44c6.3,7.16,37.53,16.55,37.53,16.55s-5.28-32.18-11.57-39.35a17.29,17.29,0,1,0-26,22.8Z" transform="translate(-104.19 -58.23)"/>
  <path id="Path_24" data-name="Path 24" class="cls-3" d="M812.86,507.11c5,8.13,34.19,22.66,34.19,22.66s.24-32.61-4.75-40.74a17.274,17.274,0,1,0-29.44,18.08Z" transform="translate(-104.19 -58.23)"/>
  <path id="Path_25" data-name="Path 25" class="cls-5" d="M281.84,0V705.46h507.4V0Z"/>
  <rect id="Rectangle_2" data-name="Rectangle 2" class="cls-6" width="498.5" height="26.89" transform="translate(286.29 6.19)"/>
  <g id="Group_1" data-name="Group 1" class="cls-7">
    <rect id="Rectangle_3" data-name="Rectangle 3" class="cls-3" width="498.5" height="26.89" transform="translate(286.29 6.19)"/>
  </g>
  <rect id="Rectangle_4" data-name="Rectangle 4" class="cls-6" width="498.5" height="666.19" transform="translate(286.29 33.08)"/>
  <circle id="Ellipse_3" data-name="Ellipse 3" class="cls-6" cx="4.56" cy="4.56" r="4.56" transform="translate(294.84 15.07)"/>
  <circle id="Ellipse_4" data-name="Ellipse 4" class="cls-6" cx="4.56" cy="4.56" r="4.56" transform="translate(307.2 15.07)"/>
  <circle id="Ellipse_5" data-name="Ellipse 5" class="cls-6" cx="4.56" cy="4.56" r="4.56" transform="translate(319.56 15.07)"/>
  <path id="Path_27" data-name="Path 27" class="cls-8" d="M118.73,506.66s4.26,10.83,2.73,13.49c0,0,.77,8,11.09,13.49s22,18.62,22,18.62a14,14,0,0,0,9.2,6.36c.1,1.26.17,2,.17,2l.54.23c-.12.44-.24.9-.36,1.37-.28,1.09-.56,2.25-.82,3.45-1.71,7.79-2.74,17.45.71,22.88a18.914,18.914,0,0,1,1.26,2.29c4.66,9.88,1.47,22.28,1.47,22.28s4.08,28.12,5.86,32.68c1.27,3.23.1,7.74-.69,10.09a11.261,11.261,0,0,0-.58,3.5v10s-2,8.36-1,10.64-1.78,8.62-1.78,8.62-6.63,27.61-3.83,32.17,2.55,14.69,2.55,14.69,5.35,39.52,7.4,41a24.35,24.35,0,0,1,4.33,5.07s-3.64,8.95-1.45,12.64a2.532,2.532,0,0,0,.18.27,53.539,53.539,0,0,0-1.79,5.39c-.16.62-.32,1.41-.46,2.28a29,29,0,0,0-.39,5.08l-.16.14.17.15a8.411,8.411,0,0,0,.33,2.23c.76,2.28,6.5,2.28,6.5,2.28s10.26,2.92,14.85,5.2,7.71,1.07,7.71,1.07c10.52,2.41,24-1.77,28.11-2.59s5.68-6.08.63-7.1a10.762,10.762,0,0,1-1.88-.57A15.381,15.381,0,0,1,225,803a128.1,128.1,0,0,0-10.74-9.19,31.36,31.36,0,0,1-6.73-6.77,7,7,0,0,0-3.8-1.88,4.08,4.08,0,0,0-.85-5.09,4.13,4.13,0,0,0-1.17-5.13l-1.89-1.46.44-.51a4.12,4.12,0,0,0,.38-4.85c-.82-1.37-1.62-3.8-1.83-8.06-.52-9.88-3.06-13.68-3.06-13.68l1.53-45.1a63.558,63.558,0,0,1,0-7.34c.25-2.79,5-1,5.73-1.71s.89-4.37,2.93-5.39c.72-.36,1.35-1.63,1.85-3.12a18.091,18.091,0,0,0,.52-8.8,5.17,5.17,0,0,1,.94-4c2.3-3,1.53-13.42,1.53-13.42l3.53-21.72c5.6,18.43,12.73,40.63,15.09,42.24,4.08,2.78,3.56,6.58,3.56,6.58-3.31,4.06-2,21.54-2,21.54s0,48.38,2.39,51.68,7,13.42,7,13.42-13.6,12-3,18.13l.45,5.12a1.57,1.57,0,0,0-.17.22,9.91,9.91,0,0,0-2,4.19l-.07.08h0c-.19,1.62.52,3.21,3.51,3.88,7.15,1.58,32.13,1.46,32.13,1.46l14,2.21s24,2.28,26.7-5.13-2.1-7-2.1-7h-.19l-10-.8s-12.68-4.88-17.34-8.24a99.81,99.81,0,0,1-10.38-9.25,4.05,4.05,0,0,0-2.64.49l-.43-.43-.69-.69,2.63-4c2.63-4.56-7.69-13.18-7.69-13.18s2.76-10.64,1.74-11.14S263.12,737,263.12,737s2.51-35,1.49-38.25c-.46-1.48.27-3.07,1.21-4.36a10.84,10.84,0,0,0,2-6.79,8.007,8.007,0,0,1,1.67-5.82c3.06-3.3,0-17.48,0-17.48l-2.54-18.75V615.77A47.141,47.141,0,0,0,263.82,599a47.761,47.761,0,0,1-2.58-11.55l.85.25a3.539,3.539,0,0,1-.9-.74c-.05-.48-.11-1-.15-1.45-.81-9.38-5.78-18.49-9.27-23.86-.8-3.14.09-16.23.09-16.23,4-6.84.19-16.72.19-16.72s-4-46.74-6.5-53.2-3.63-46.55,2.3-46.17,44.16-19,44.16-19-.95-1.52,11.67-6.65,31-21.09,31-21.09l25.43-30.4a.64.64,0,0,1-.28,0l.52-.17a21.52,21.52,0,0,0,13.34-11.46c4.4-9.66-4.41-22.73-10.18-28.6L358,309c-1.47,1.21-.93,6.54-3.33,12.25a130.809,130.809,0,0,0-5,15.6l-.26,1-.24-.44L335.8,348l-12.62,10.26s-27.92,13.49-31.36,16.91-4.59,2.47-7.64,3.23-3.45,2.85-4.4,2.66-2.68,2.66-4,2.28-4.2,1.14-6.12,1.52-15.5,6.14-15.5,6.14c-8.42-4.18-31.17-2.47-31.17-2.47s-7.46-4.37-9.56,0a7.22,7.22,0,0,1-6.5,4.18l-9.07-3.86a2.586,2.586,0,0,1,.07-.73v-.15c.07-.57.16-1.11.25-1.63a30.13,30.13,0,0,0,10.41-49.12l-.79-.76a13.23,13.23,0,0,0,2.61-1.62,1.39,1.39,0,0,0,.56-.71.79.79,0,0,0-.08-.6,1.81,1.81,0,0,0-1-1.11c-2.76-1.49-5.81-1-8.2-3.39a5.36,5.36,0,0,1-1.25-1.93,3.75,3.75,0,0,1,0-2.41c.67-1.78,2.83-3,2.7-4.92h-.09v-.33a17,17,0,0,1-7.14,1.22l.45-2h.17l.24-1.06-.17.05.07-.34-6.72,1.8a1.69,1.69,0,0,1-1.51-.09,2.53,2.53,0,0,1-.52-1.05c-.58-1.41-2.45-1.86-3.92-1.46a16.318,16.318,0,0,0-4,2.19c-4.35,2.65-9.66,3-14.72,3.64s-10.44,1.73-14,5.37c-4.72,4.86-4.66,12.51-7.61,18.6a16.451,16.451,0,0,0-1.35,3.07,12,12,0,0,0,.08,4.85c.72,4.68,1.51,9.54,4,13.55l-.27-.32a18.085,18.085,0,0,0,1,1.56c1.79,2.52,4.31,4.57,6.22,7-.12-.23-.27-.44-.4-.67a13.65,13.65,0,0,1,2.5,4.15c.66,1.88.8,4,1.59,5.78h0a6.25,6.25,0,0,0,1.14,1.9,5.78,5.78,0,0,0,4.84,1.66,41.548,41.548,0,0,1-3,6.24l-.15.26a4.761,4.761,0,0,0-1.5.17c-2.22.41-9.82,6.94-9.82,6.94l-13.57,12c-20.46,16-15.87,40.85-15.87,40.85v12.6s-4,13.49,0,27ZM159.83,395.41ZM148.61,506.85s7.08-5.7,4.59-9.12c-.8-1.1-1.12-3.41-1.19-6l9.22,20.48s5.55,8.93,2.68,12.92v.07l-11-12.8S152.44,506.85,148.61,506.85Z" transform="translate(-104.19 -58.23)"/>
  <path id="Path_28" data-name="Path 28" class="cls-9" d="M347.23,344.49l6,11.71a23.631,23.631,0,0,0,5.61-1.17,21.29,21.29,0,0,0,13.17-11.39c5.38-11.9-9.25-29-13.4-31.24s-2.27,4.53-5.38,12a128.2,128.2,0,0,0-4.89,15.5C347.66,342.62,347.23,344.49,347.23,344.49Z" transform="translate(-104.19 -58.23)"/>
  <path id="Path_29" data-name="Path 29" class="cls-9" d="M155.69,405.37l9.63,14.35s45.5,21.71,36.82-3.77c-3.83-11.23-4.29-19.46-3.6-25.14a.882.882,0,0,0,0-.16c.9-7.11,3.58-10.2,3.58-10.2s-44.36-22.7-37.76-7.17A21.44,21.44,0,0,1,166,383.5a34.91,34.91,0,0,1-4.78,14.17,46.652,46.652,0,0,1-5.53,7.7Z" transform="translate(-104.19 -58.23)"/>
  <path id="Path_30" data-name="Path 30" class="cls-10" d="M169.48,689.45s-6.55,27.43-3.78,32,2.51,14.6,2.51,14.6,5.29,39.27,7.31,40.78a24.363,24.363,0,0,1,4.28,5s-3.6,8.89-1.44,12.56a3,3,0,0,0,1.44,1.28c3.37,1.42,15.83-4.89,22.93-8.76a4.056,4.056,0,0,0,.73-6.59,4.14,4.14,0,0,0-1.16-5.1l-1.86-1.45.43-.51a4.14,4.14,0,0,0,.38-4.82c-.82-1.36-1.61-3.77-1.82-8-.5-9.81-3-13.59-3-13.59L197.92,702a65.352,65.352,0,0,1,0-7.3c.25-2.77,4.91-.94,5.67-1.7s.87-4.34,2.89-5.35c.71-.36,1.33-1.62,1.83-3.1a18.21,18.21,0,0,0,.51-8.74,5.15,5.15,0,0,1,.93-4c2.26-3,1.51-13.34,1.51-13.34l3.48-21.58c5.53,18.31,12.57,40.37,14.9,42a7.324,7.324,0,0,1,3.52,6.54c-3.27,4-2,21.41-2,21.41s0,48.07,2.36,51.35,7,13.33,7,13.33-13.49,12-2.88,18.06l.11.07c10.83,6,33.24-10.82,33.24-10.82l-2.35-2.34-.68-.69,2.6-4c2.6-4.53-7.59-13.09-7.59-13.09s2.72-10.58,1.72-11.08-1.72-10.07-1.72-10.07,2.47-34.74,1.47-38c-.46-1.47.26-3,1.19-4.33a10.77,10.77,0,0,0,1.93-6.75c-.07-2,.23-4.24,1.66-5.78,3-3.28,0-17.37,0-17.37L266.7,646.7V617.06a47.12,47.12,0,0,0-3-16.66,50.321,50.321,0,0,1-2.85-13.4c-.82-9.54-6-18.82-9.4-24.1-1.83-2.79-3.19-4.47-3.19-4.47l-80.54-3.15s-1.32,3.58-2.59,8.58c-.28,1.08-.56,2.23-.82,3.43-1.68,7.74-2.7,17.33.71,22.73a19.425,19.425,0,0,1,1.24,2.28c4.61,9.81,1.46,22.14,1.46,22.14s4,27.94,5.78,32.47c1.25,3.21.1,7.69-.68,10a11.181,11.181,0,0,0-.57,3.48v9.91s-2,8.31-1,10.57S169.48,689.45,169.48,689.45Z" transform="translate(-104.19 -58.23)"/>
  <path id="Path_31" data-name="Path 31" class="cls-11" d="M165.78,590.77A20.794,20.794,0,0,1,167,593l4.54-.26c-.44-2.33,2.65-24.23,2.65-24.23l-9.13-.51C163.38,575.78,162.36,585.37,165.78,590.77Z" transform="translate(-104.19 -58.23)"/>
  <path id="Path_32" data-name="Path 32" class="cls-10" d="M165,590a19.423,19.423,0,0,1,1.24,2.28l4.54-.26c-.44-2.33,2.64-24.23,2.64-24.23l-9.13-.52C162.63,575,161.61,584.61,165,590Z" transform="translate(-104.19 -58.23)"/>
  <path id="Path_33" data-name="Path 33" class="cls-12" d="M165,590a19.423,19.423,0,0,1,1.24,2.28l4.54-.26c-.44-2.33,2.64-24.23,2.64-24.23l-9.13-.52C162.63,575,161.61,584.61,165,590Z" transform="translate(-104.19 -58.23)"/>
  <path id="Path_34" data-name="Path 34" class="cls-11" d="M178.36,794.39a3,3,0,0,0,1.44,1.28c3.37,1.42,15.83-4.89,22.93-8.76a4,4,0,0,0,1.88-2.24c-4-.74-6.69,3.76-6.69,3.76a6,6,0,0,0-8.3,2c-3.47,5.1-10.89,2.95-10.89,2.95S178.58,793.78,178.36,794.39Z" transform="translate(-104.19 -58.23)"/>
  <path id="Path_35" data-name="Path 35" class="cls-13" d="M176.27,809.83c.76,2.26,6.42,2.26,6.42,2.26s10.14,2.9,14.67,5.17,7.61,1.06,7.61,1.06c10.38,2.4,23.73-1.76,27.75-2.57s5.6-6,.63-7a10.3,10.3,0,0,1-1.86-.57,15.119,15.119,0,0,1-6.19-5A127.823,127.823,0,0,0,214.7,794a30.841,30.841,0,0,1-6.65-6.73c-5.91-5.22-10.13,2-10.13,2a6,6,0,0,0-8.3,2c-3.47,5.09-10.89,2.94-10.89,2.94s-1.33,3.41-1.95,5.86c-.16.62-.32,1.4-.46,2.27C175.92,804.84,175.71,808.13,176.27,809.83Z" transform="translate(-104.19 -58.23)"/>
  <circle id="Ellipse_6" data-name="Ellipse 6" class="cls-14" cx="0.69" cy="0.69" r="0.69" transform="translate(88.7 734.29)"/>
  <circle id="Ellipse_7" data-name="Ellipse 7" class="cls-14" cx="0.69" cy="0.69" r="0.69" transform="translate(94.61 739.83)"/>
  <circle id="Ellipse_8" data-name="Ellipse 8" class="cls-14" cx="0.69" cy="0.69" r="0.69" transform="translate(100.62 744.8)"/>
  <circle id="Ellipse_9" data-name="Ellipse 9" class="cls-14" cx="0.69" cy="0.69" r="0.69" transform="translate(97.51 742.58)"/>
  <circle id="Ellipse_10" data-name="Ellipse 10" class="cls-14" cx="0.69" cy="0.69" r="0.69" transform="translate(91.53 736.88)"/>
  <path id="Path_36" data-name="Path 36" class="cls-15" d="M176.27,809.83c.76,2.26,6.42,2.26,6.42,2.26s10.14,2.9,14.67,5.17,7.61,1.06,7.61,1.06c10.38,2.4,23.73-1.76,27.75-2.57s5.6-6,.63-7a10.3,10.3,0,0,1-1.86-.57,48.641,48.641,0,0,1-13.62,2.58c-10.26.44-18.38,0-18.38,0l-10.38-3.34a17.53,17.53,0,0,0-6.42-2.32c-2.2-.22-4.89-1.8-6.37-2.77C175.92,804.84,175.71,808.13,176.27,809.83Z" transform="translate(-104.19 -58.23)"/>
  <path id="Path_37" data-name="Path 37" class="cls-16" d="M202.11,816.34a8.713,8.713,0,0,0,1.72-.17l-.15-.74a11,11,0,0,1-6.22-.87c-.93-.36-1.85-.8-2.75-1.22-1.06-.5-2.16-1-3.28-1.43l-1-.36c-.56-.19-1.14-.38-1.68-.61-.32-.13-.62-.28-.93-.43a10.371,10.371,0,0,0-2.33-.88,11.075,11.075,0,0,0-1.27-.17,10.614,10.614,0,0,1-1.15-.14,10.153,10.153,0,0,1-2.18-.81,10.932,10.932,0,0,0-2.34-.87l-.56-.09a2.66,2.66,0,0,1-1.62-.6l-.56.51a3.29,3.29,0,0,0,2.06.83l.53.09a11.34,11.34,0,0,1,2.18.81,10.419,10.419,0,0,0,2.34.87,10.77,10.77,0,0,0,1.24.15,10.8,10.8,0,0,1,1.18.16,9.413,9.413,0,0,1,2.16.83c.31.15.63.3.95.43.57.25,1.17.45,1.74.64l1,.35c1.09.4,2.17.91,3.22,1.4s1.84.87,2.8,1.24a13.42,13.42,0,0,0,4.9,1.08Z" transform="translate(-104.19 -58.23)"/>
  <path id="Path_38" data-name="Path 38" class="cls-11" d="M199.68,691.27s-5.22-7.55-14.16-7.49-12.77-1-12.77-1,5.72,3.4,9.69,3.84S199.68,691.27,199.68,691.27Z" transform="translate(-104.19 -58.23)"/>
  <path id="Path_39" data-name="Path 39" class="cls-11" d="M196.66,693s-4.72-3.27-7.42-3.4-5-.38-5-.38a14.541,14.541,0,0,0,4.15,2C190.62,691.9,196.66,693,196.66,693Z" transform="translate(-104.19 -58.23)"/>
  <path id="Path_40" data-name="Path 40" class="cls-11" d="M195.65,695.3s-7.11.56-7.17,2.45" transform="translate(-104.19 -58.23)"/>
  <path id="Path_41" data-name="Path 41" class="cls-11" d="M261.89,589.16c-.37.07-6.73-6.6-7.17-9.25a6.45,6.45,0,0,0-2.77-4.06s-4.09,1.64-.44,6.66S261.89,589.16,261.89,589.16Z" transform="translate(-104.19 -58.23)"/>
  <path id="Path_42" data-name="Path 42" class="cls-11" d="M164.38,373.28c1.45,3.42,2.72,3.68,2.45,7a25.05,25.05,0,0,0,5.76,4.53c4.5,2.67,9.4,7.9,15,7.9a29.76,29.76,0,0,0,11-2.07c.9-7.11,3.58-10.2,3.58-10.2S157.78,357.75,164.38,373.28Z" transform="translate(-104.19 -58.23)"/>
  <path id="Path_43" data-name="Path 43" class="cls-9" d="M157.58,361.2a30,30,0,1,0,30-30A30,30,0,0,0,157.58,361.2Z" transform="translate(-104.19 -58.23)"/>
  <path id="Path_44" data-name="Path 44" class="cls-11" d="M155.69,405.37l9.63,14.35s45.5,21.71,36.82-3.77c-3.83-11.23-4.29-19.46-3.6-25.14h-.07a23.791,23.791,0,0,0-.91,5.78c-.14,3.92-.24,8.87-10,10.51-16.2,2.73-24.91-7.41-26.43-9.4a46.652,46.652,0,0,1-5.44,7.67Z" transform="translate(-104.19 -58.23)"/>
  <path id="Path_45" data-name="Path 45" class="cls-11" d="M347.23,344.49l6,11.71a23.631,23.631,0,0,0,5.61-1.17l.52-.63c-2.45.94-10.76-14.73-10.76-14.73l-.26.21C347.66,342.62,347.23,344.49,347.23,344.49Z" transform="translate(-104.19 -58.23)"/>
  <path id="Path_46" data-name="Path 46" class="cls-11" d="M165.13,563.85c19.43,8.43,86.66,1.24,86.66,1.24a8.539,8.539,0,0,1-.34-2.2c-1.83-2.79-3.19-4.47-3.19-4.47l-80.54-3.15S166.4,558.85,165.13,563.85Z" transform="translate(-104.19 -58.23)"/>
  <path id="Path_47" data-name="Path 47" class="cls-17" d="M198.46,391.53l9,3.84a7.12,7.12,0,0,0,6.42-4.16c2.08-4.34,9.44,0,9.44,0s22.47-1.7,30.77,2.46c0,0,13.41-5.67,15.3-6s4.72-1.89,6-1.51,3-2.46,4-2.27,1.32-1.89,4.35-2.64,4.15.19,7.55-3.21,31-16.8,31-16.8L334.67,351l13.21-10.57s8.31,15.67,10.77,14.72l-25.11,30.21s-18.13,15.86-30.59,21-11.51,6.6-11.51,6.6-37.76,19.26-43.62,18.88-4.72,39.46-2.26,45.88S252,530.54,252,530.54s3.77,9.82-.19,16.62c0,0-.94,14,0,16.42,0,0-67.65,7.24-86.85-1.32,0,0-2.83-31.34,0-35.3s-2.64-12.84-2.64-12.84l-12.08-27-29.45-29.64s-4.53-24.73,15.67-40.59L149.84,405s7.5-6.49,9.69-6.9,1.39,0,1.39,0,8.74,12.75,26.68,9.73c9.72-1.64,9.83-6.6,10-10.51a24.26,24.26,0,0,1,.86-5.79Z" transform="translate(-104.19 -58.23)"/>
  <path id="Path_48" data-name="Path 48" class="cls-11" d="M161.55,493.16s41.53,1.7,49.84,14.73c0,0-10.76-5.1-20.39-3.59S161.55,493.16,161.55,493.16Z" transform="translate(-104.19 -58.23)"/>
  <path id="Path_49" data-name="Path 49" class="cls-11" d="M207.42,538.66s-19.63,1.32-23.79-2.83-4.16-6.61-4.16-6.61Z" transform="translate(-104.19 -58.23)"/>
  <path id="Path_50" data-name="Path 50" class="cls-11" d="M157.58,453.14s16.62,19.63-3.59,28.13Z" transform="translate(-104.19 -58.23)"/>
  <path id="Path_51" data-name="Path 51" class="cls-11" d="M255.94,415.19s-6,12.33-9.06,13.15Z" transform="translate(-104.19 -58.23)"/>
  <path id="Path_52" data-name="Path 52" class="cls-11" d="M276.33,409.9s-15.1,13.6-17.93,14.92C258.4,424.82,274.07,409.9,276.33,409.9Z" transform="translate(-104.19 -58.23)"/>
  <path id="Path_53" data-name="Path 53" class="cls-11" d="M216.11,396.88s14.53,21.71,5.09,34.92C221.2,431.8,226.49,416.13,216.11,396.88Z" transform="translate(-104.19 -58.23)"/>
  <path id="Path_54" data-name="Path 54" class="cls-9" d="M179.47,561.32l4.44,4.18.62.58,5.15,4.86c.37.28.73.56,1.09.81,20.95,15,25.15-7.79,25.15-7.79s9.25,6,10.57,1.13S205,553.2,201.57,553.58a4,4,0,0,1-.91,0,14.809,14.809,0,0,1-4.69-1.66l-1-.55c-1.91-1.07-3.39-2.13-3.39-2.13Z" transform="translate(-104.19 -58.23)"/>
  <path id="Path_55" data-name="Path 55" class="cls-11" d="M156.83,361.2A30,30,0,0,0,171.49,387a17.118,17.118,0,0,0,1.1-2.18c1.08-2.52,1.73-5.2,2.82-7.71a23.81,23.81,0,0,1,5.05-7.35,3.14,3.14,0,0,1,1.33-.92,3.65,3.65,0,0,1,2.76.76,12.6,12.6,0,0,0,4.18,1.84,4.5,4.5,0,0,0,4.2-1.27c1.17-1.4,1-3.45.67-5.24-.74-3.91-2-7.75-2-11.72s1.51-8.26,5-10.22c3-1.74,6.83-1.3,10.21-2.23a12.178,12.178,0,0,0,1.54-.53,30,30,0,0,0-51.51,21Z" transform="translate(-104.19 -58.23)"/>
  <path id="Path_56" data-name="Path 56" class="cls-18" d="M210.37,335.46c.55.29,1.14.81,1,1.41a1.35,1.35,0,0,1-.55.7,12.94,12.94,0,0,1-4.75,2.44c-3.38.92-7.17.49-10.22,2.22-3.45,2-5,6.25-5,10.22s1.24,7.82,2,11.72c.34,1.79.51,3.84-.66,5.24a4.48,4.48,0,0,1-4.2,1.27,12.511,12.511,0,0,1-4.19-1.83,3.64,3.64,0,0,0-2.75-.77,3.43,3.43,0,0,0-1.34.92,24,24,0,0,0-5,7.36c-1.1,2.5-1.75,5.18-2.82,7.7a12.48,12.48,0,0,1-5.05,6.28c-2.39,1.32-5.72,1.22-7.56-.8s-1.71-4.86-2.58-7.33c-1.5-4.28-5.69-7-8.31-10.66-2.93-4.16-3.78-9.39-4.54-14.41a11.87,11.87,0,0,1-.08-4.82,17.6,17.6,0,0,1,1.33-3.06c2.91-6,2.86-13.64,7.52-18.47,3.49-3.62,8.8-4.73,13.8-5.34s10.24-1,14.53-3.61a15.539,15.539,0,0,1,3.94-2.18c1.45-.4,3.29,0,3.86,1.45a2.59,2.59,0,0,0,.52,1.05,1.63,1.63,0,0,0,1.48.08l6.65-1.78-.76,3.35a16.53,16.53,0,0,0,7-1.21c.13,1.89-2,3.12-2.67,4.89a4.53,4.53,0,0,0,1.3,4.6C204.64,334.44,207.65,334,210.37,335.46Z" transform="translate(-104.19 -58.23)"/>
  <path id="Path_57" data-name="Path 57" class="cls-11" d="M237.31,786.55l.27,3,.11.07c10.83,6,33.24-10.82,33.24-10.82l-2.35-2.34a4.15,4.15,0,0,0-1,3.16l-4.57.25-5.48,5.91s-14.8,1.72-18.81.76Z" transform="translate(-104.19 -58.23)"/>
  <path id="Path_58" data-name="Path 58" class="cls-13" d="M239.2,803c7.05,1.57,31.73,1.45,31.73,1.45l13.84,2.2s23.72,2.26,26.36-5.1-2.08-6.92-2.08-6.92h-.18l-9.88-.8s-12.52-4.85-17.12-8.19a99.8,99.8,0,0,1-10.26-9.19s-4.12-.8-4.05,4l-4.57.25-5.48,5.92s-14.8,1.71-18.81.75h-1.39l.64,7.3-.18.22C236.85,796,232.91,801.57,239.2,803Z" transform="translate(-104.19 -58.23)"/>
  <circle id="Ellipse_11" data-name="Ellipse 11" class="cls-14" cx="0.69" cy="0.69" r="0.69" transform="translate(159.87 725.72)"/>
  <circle id="Ellipse_12" data-name="Ellipse 12" class="cls-14" cx="0.69" cy="0.69" r="0.69" transform="translate(177.62 733.42)"/>
  <circle id="Ellipse_13" data-name="Ellipse 13" class="cls-14" cx="0.69" cy="0.69" r="0.69" transform="translate(186.76 736.19)"/>
  <circle id="Ellipse_14" data-name="Ellipse 14" class="cls-14" cx="0.69" cy="0.69" r="0.69" transform="translate(172.96 731.95)"/>
  <circle id="Ellipse_15" data-name="Ellipse 15" class="cls-14" cx="0.69" cy="0.69" r="0.69" transform="translate(182.21 734.81)"/>
  <circle id="Ellipse_16" data-name="Ellipse 16" class="cls-14" cx="0.69" cy="0.69" r="0.69" transform="translate(168.25 729.76)"/>
  <circle id="Ellipse_17" data-name="Ellipse 17" class="cls-14" cx="0.69" cy="0.69" r="0.69" transform="translate(163.6 727.74)"/>
  <path id="Path_59" data-name="Path 59" class="cls-15" d="M239.2,803c7.05,1.57,31.73,1.45,31.73,1.45l13.84,2.2s23.72,2.26,26.36-5.1-2.08-6.92-2.08-6.92h-.18c-1.52,1.95-4.55,4.18-10.51,4.29l-17.06.69-17.68-1.26s-16.55-.5-19.25-1.06a39.683,39.683,0,0,1-6.6-2.43C236.85,796,232.91,801.57,239.2,803Z" transform="translate(-104.19 -58.23)"/>
  <path id="Path_60" data-name="Path 60" class="cls-16" d="M283.43,805a10.852,10.852,0,0,0,2.8-.35l-.2-.73a13.73,13.73,0,0,1-7-.32c-.84-.21-1.67-.46-2.49-.71a38.857,38.857,0,0,0-4.61-1.16,38.348,38.348,0,0,0-7.64-.22h-.54a117.785,117.785,0,0,1-22.67-1c-1.69-.28-3.61-.68-4.84-1.94l-.54.52c1.39,1.43,3.45,1.87,5.26,2.16a117,117,0,0,0,22.82,1h.54a37.519,37.519,0,0,1,7.49.22,36.727,36.727,0,0,1,4.51,1.14c.84.25,1.68.49,2.52.71A18.521,18.521,0,0,0,283.43,805Z" transform="translate(-104.19 -58.23)"/>
  <path id="Path_61" data-name="Path 61" class="cls-11" d="M179.47,561.32l4.44,4.18,11-14.14c-1.91-1.07-3.39-2.13-3.39-2.13Z" transform="translate(-104.19 -58.23)"/>
  <path id="Path_62" data-name="Path 62" class="cls-17" d="M129.45,445.4l-8.68,12.08v12.65s-4,13.4,0,26.81l-.44,11.7s4.21,10.76,2.7,13.41c0,0,.76,7.93,10.95,13.4S155.69,554,155.69,554s4.35,8.31,16.05,6.42l11.14,4.72,12.84-16.42-17.37-9.44s-6-8.12-9.63-7.74L154,514.31s-.37-5.48-4.15-5.48c0,0,7-5.66,4.53-9.06s-.38-18.5-.38-18.5Z" transform="translate(-104.19 -58.23)"/>
  <path id="Path_63" data-name="Path 63" class="cls-11" d="M145.69,500.52s-19.83-.37-22.28,4.72S139.65,497.69,145.69,500.52Z" transform="translate(-104.19 -58.23)"/>
  <path id="Path_64" data-name="Path 64" class="cls-11" d="M184.45,565.09a5.44,5.44,0,0,0,.08,1,6.67,6.67,0,0,0,6.24,5.67h.36a6.66,6.66,0,0,0,6.66-6.67,6.51,6.51,0,0,0-.37-2.17c3.15-2.53,3.32-7.08,3.24-9.35a14.808,14.808,0,0,1-4.69-1.66,31.21,31.21,0,0,1-3.29,6.7,6.65,6.65,0,0,0-8.23,6.48Z" transform="translate(-104.19 -58.23)"/>
  <path id="Path_65" data-name="Path 65" class="cls-14" d="M195.37,550.43s4.47,1,4.47,1.82,1,8.19-3.91,11.21-4.4-4.22-4.4-4.22S195.75,552.76,195.37,550.43Z" transform="translate(-104.19 -58.23)"/>
  <circle id="Ellipse_18" data-name="Ellipse 18" class="cls-19" cx="6.67" cy="6.67" r="6.67" transform="translate(79.51 500.19)"/>
  <circle id="Ellipse_19" data-name="Ellipse 19" class="cls-15" cx="5.73" cy="5.73" r="5.73" transform="translate(80.45 501.13)"/>
  <path id="Path_66" data-name="Path 66" class="cls-11" d="M216.36,567.67s-14.1,11.71-32.22,4.28v5.67s12.08,8.3,23,3.27S216.36,567.67,216.36,567.67Z" transform="translate(-104.19 -58.23)"/>
  <path id="Path_67" data-name="Path 67" class="cls-11" d="M216.36,566.16s-14.1,11.7-32.22,4.28v5.66s12.08,8.31,23,3.28S216.36,566.16,216.36,566.16Z" transform="translate(-104.19 -58.23)"/>
  <path id="Path_68" data-name="Path 68" class="cls-10" d="M216.36,566.16s-14.1,11.7-32.22,4.28v5.66s12.08,8.31,23,3.28S216.36,566.16,216.36,566.16Z" transform="translate(-104.19 -58.23)"/>
  <path id="Path_69" data-name="Path 69" class="cls-12" d="M216,566.16s-14.1,11.7-32.22,4.28v5.66s12.08,8.31,23,3.28S216,566.16,216,566.16Z" transform="translate(-104.19 -58.23)"/>
  <path id="Path_70" data-name="Path 70" class="cls-11" d="M260.66,776.41s-18.88,3.47-21.65,4.22.76,2.08.76,2.08S257,779.62,260.66,776.41Z" transform="translate(-104.19 -58.23)"/>
  <path id="Path_71" data-name="Path 71" class="cls-11" d="M261.1,766.41c-.31,0-12.83-3.53-15.54-9.57" transform="translate(-104.19 -58.23)"/>
  <path id="Path_72" data-name="Path 72" class="cls-11" d="M242.83,694.16s-5.07,6.67-8.35,6.49S239.85,693.91,242.83,694.16Z" transform="translate(-104.19 -58.23)"/>
  <path id="Path_73" data-name="Path 73" class="cls-11" d="M240,705.24s-2.14,4.72-5.29,3.21" transform="translate(-104.19 -58.23)"/>
  <path id="Path_74" data-name="Path 74" class="cls-12" d="M228.13,601.59,214.74,636.9s-1.89-22.72,2.1-29.52A11.81,11.81,0,0,1,228.13,601.59Z" transform="translate(-104.19 -58.23)"/>
  <g id="Group_4" data-name="Group 4" class="cls-20">
    <path id="Path_75" data-name="Path 75" d="M195.17,321.83l.12-.51,2.15-.58-.24,1.06a17.164,17.164,0,0,1-2.03.03Z" transform="translate(-104.19 -58.23)"/>
    <path id="Path_76" data-name="Path 76" d="M201.08,330.32l-.22-.21a4.51,4.51,0,0,1-1.3-4.6,6.391,6.391,0,0,1,1.07-1.7,16.729,16.729,0,0,0,3.1-.92c.13,1.89-2,3.12-2.66,4.89A3.82,3.82,0,0,0,201.08,330.32Z" transform="translate(-104.19 -58.23)"/>
    <path id="Path_77" data-name="Path 77" d="M165.38,388.36a12.47,12.47,0,0,0,5-6.28c1.07-2.51,1.73-5.19,2.82-7.7a23.829,23.829,0,0,1,5-7.35,3.23,3.23,0,0,1,1.34-.92,3.62,3.62,0,0,1,2.76.76,12.37,12.37,0,0,0,4.18,1.83,4.47,4.47,0,0,0,4.2-1.26c1.17-1.4,1-3.46.66-5.25-.73-3.9-2-7.75-2-11.72s1.5-8.25,4.95-10.21c3.05-1.74,6.84-1.31,10.22-2.23a12.92,12.92,0,0,0,4.75-2.43l.26-.24a6.937,6.937,0,0,1,.83.39c.54.29,1.13.81,1,1.41a1.46,1.46,0,0,1-.56.7,12.94,12.94,0,0,1-4.75,2.44c-3.38.92-7.17.48-10.22,2.22-3.45,2-5,6.25-4.95,10.22s1.23,7.82,2,11.72c.34,1.79.51,3.84-.66,5.24a4.48,4.48,0,0,1-4.2,1.27,12.57,12.57,0,0,1-4.18-1.83,3.67,3.67,0,0,0-2.76-.77,3.33,3.33,0,0,0-1.34.92,24,24,0,0,0-5,7.36c-1.09,2.5-1.75,5.18-2.82,7.7a12.45,12.45,0,0,1-5,6.27c-2.4,1.33-5.72,1.23-7.57-.8a6.05,6.05,0,0,1-1.13-1.89A6.48,6.48,0,0,0,165.38,388.36Z" transform="translate(-104.19 -58.23)"/>
    <path id="Path_78" data-name="Path 78" d="M154.58,378.76c-1.89-2.38-4.37-4.42-6.14-6.93a16.654,16.654,0,0,1-1-1.54C149.75,373.2,152.88,375.55,154.58,378.76Z" transform="translate(-104.19 -58.23)"/>
  </g>
  <g id="Group_5" data-name="Group 5" class="cls-20">
    <path id="Path_79" data-name="Path 79" class="cls-21" d="M548.33,258.35,286.29,310.6V163.26l233.79-46.62Z"/>
  </g>
  <g id="Group_6" data-name="Group 6" class="cls-7">
    <rect id="Rectangle_8" data-name="Rectangle 8" class="cls-22" width="403.44" height="144.49" transform="translate(333.82 143.19)"/>
    <path id="Path_80" data-name="Path 80" class="cls-3" d="M841.45,201.43h-12v1h12Zm-24,0h-12v1h12Zm-24,0h-12v1h12Zm-24,0h-12v1h12Zm-24,0h-12v1h12Zm-24,0h-12v1h12Zm-24,0h-12v1h12Zm-24,0h-12v1h12Zm-24,0h-12v1h12Zm-24,0h-12v1h12Zm-24,0h-12v1h12Zm-24,0h-12v1h12Zm-24,0h-12v1h12Zm-24,0h-12v1h12Zm-24,0h-12v1h12Zm-24,0h-12v1h12Zm-24,0h-12v1h12ZM439,206h-1v12h1Zm0,24h-1v12h1Zm0,24h-1v12h1Zm0,24h-1v12h1Zm0,24h-1v12h1Zm0,24h-1v12h1Zm15.06,18.93h-12v1h12Zm24,0h-12v1h12Zm24,0h-12v1h12Zm24,0h-12v1h12Zm24,0h-12v1h12Zm24,0h-12v1h12Zm24,0h-12v1h12Zm24,0h-12v1h12Zm24,0h-12v1h12Zm24,0h-12v1h12Zm24,0h-12v1h12Zm24,0h-12v1h12Zm24,0h-12v1h12Zm24,0h-12v1h12Zm24,0h-12v1h12Zm24,0h-12v1h12Zm24,0h-12v1h12Zm3.38-19.62h-1v12h1Zm0-24h-1v12h1Zm0-24h-1v12h1Zm0-24h-1v12h1Zm0-24h-1v12h1Zm0-24h-1v12h1Z" transform="translate(-104.19 -58.23)"/>
  </g>
  <rect id="Rectangle_10" data-name="Rectangle 10" class="cls-6" width="403.44" height="144.49" transform="matrix(0.981, -0.196, 0.196, 0.981, 107.619, 185.648)"/>
  <rect id="Rectangle_11" data-name="Rectangle 11" class="cls-23" width="403.44" height="144.49" transform="matrix(0.981, -0.196, 0.196, 0.981, 107.619, 185.648)"/>
  <path id="Path_82" data-name="Path 82" class="cls-6" d="M369.38,239.52a11.75,11.75,0,0,0-1.46,7.38,10,10,0,0,0,7.65-11.66A11.77,11.77,0,0,0,369.38,239.52Z" transform="translate(-104.19 -58.23)"/>
  <path id="Path_83" data-name="Path 83" class="cls-6" d="M525.72,211.51a11.74,11.74,0,0,0,6.28,4.14,10,10,0,0,0-7.9-11.49A11.75,11.75,0,0,0,525.72,211.51Z" transform="translate(-104.19 -58.23)"/>
  <path id="Path_84" data-name="Path 84" class="cls-6" d="M468.07,210.07a8.06,8.06,0,0,0,.74,5.11,6.86,6.86,0,0,0,2.28-9.3,8.07,8.07,0,0,0-3.02,4.19Z" transform="translate(-104.19 -58.23)"/>
  <path id="Path_85" data-name="Path 85" class="cls-6" d="M395.09,277.69a8.1,8.1,0,0,0,.74,5.12,6.87,6.87,0,0,0,2.28-9.31A8.07,8.07,0,0,0,395.09,277.69Z" transform="translate(-104.19 -58.23)"/>
  <path id="Path_86" data-name="Path 86" class="cls-6" d="M433,290.33a8.09,8.09,0,0,0,3.86,3.44,6.87,6.87,0,0,0-4.23-8.6A8.06,8.06,0,0,0,433,290.33Z" transform="translate(-104.19 -58.23)"/>
  <path id="Path_87" data-name="Path 87" class="cls-6" d="M419.08,239.81a11.74,11.74,0,0,0,3.61,6.61,10,10,0,0,0-1.6-13.86A11.76,11.76,0,0,0,419.08,239.81Z" transform="translate(-104.19 -58.23)"/>
  <path id="Path_88" data-name="Path 88" class="cls-6" d="M466.9,242.13a11.75,11.75,0,0,0-1.3,7.41,10,10,0,0,0,7.4-11.83,11.73,11.73,0,0,0-6.1,4.42Z" transform="translate(-104.19 -58.23)"/>
  <ellipse id="Ellipse_20" data-name="Ellipse 20" class="cls-6" cx="40.21" cy="6.8" rx="40.21" ry="6.8" transform="matrix(0.981, -0.196, 0.196, 0.981, 424.763, 239.511)"/>
  <path id="Path_89" data-name="Path 89" class="cls-6" d="M583.84,282.43a11.62,11.62,0,0,0,2.62-6.42c0-2.35-1.46-4.86-3.78-5.26-2.59-.44-4.84,1.75-6.45,3.83s-3.48,4.45-6.11,4.6a10.46,10.46,0,0,0,1.26-10.25,4.081,4.081,0,0,0-1.27-1.78c-1.62-1.17-3.93-.07-5.31,1.38-4.38,4.6-4.42,11.82-3.21,18.06-1-2.15-1-4.58-1.47-6.89s-1.61-4.73-3.81-5.58a7.81,7.81,0,0,0-4.13-.14c-2.31.37-4.82,1.11-6,3.1-1.53,2.47-.33,5.86,1.82,7.82s5,2.88,7.7,4a15,15,0,0,1,5.64,3.58,4.186,4.186,0,0,1,.51.74l14.37-2.87a40.76,40.76,0,0,0,7.62-7.92Z" transform="translate(-104.19 -58.23)"/>
  <path id="Path_90" data-name="Path 90" class="cls-24" d="M303,348s-11.42-21.76-6.72-40.4a37.26,37.26,0,0,0-1.62-23.5,62.636,62.636,0,0,0-5.38-10.1" transform="translate(-104.19 -58.23)"/>
  <path id="Path_91" data-name="Path 91" class="cls-6" d="M292.17,262.28c.57,2.83-2.93,12.07-2.93,12.07s-6.77-7.19-7.33-10a5.23,5.23,0,1,1,10.26-2Z" transform="translate(-104.19 -58.23)"/>
  <path id="Path_92" data-name="Path 92" class="cls-6" d="M303.78,276.28c-1.06,2.69-9,8.55-9,8.55s-1.77-9.72-.7-12.41a5.23,5.23,0,1,1,9.721,3.86Z" transform="translate(-104.19 -58.23)"/>
  <path id="Path_93" data-name="Path 93" class="cls-6" d="M308.76,303.18c-2.28,1.78-12.1,2.82-12.1,2.82s3.38-9.28,5.65-11.06a5.232,5.232,0,0,1,6.45,8.24Z" transform="translate(-104.19 -58.23)"/>
  <path id="Path_94" data-name="Path 94" class="cls-6" d="M307.94,324.38c-1.94,2.14-11.44,4.83-11.44,4.83s1.75-9.72,3.7-11.86a5.23,5.23,0,1,1,7.74,7Z" transform="translate(-104.19 -58.23)"/>
  <path id="Path_95" data-name="Path 95" class="cls-6" d="M284.1,287.52c2.42,1.57,12.3,1.73,12.3,1.73s-4.19-8.94-6.62-10.51a5.23,5.23,0,0,0-5.68,8.78Z" transform="translate(-104.19 -58.23)"/>
  <path id="Path_96" data-name="Path 96" class="cls-6" d="M283.46,312.33c2.78.77,12.25-2,12.25-2s-6.67-7.28-9.46-8.06a5.234,5.234,0,1,0-2.79,10.09Z" transform="translate(-104.19 -58.23)"/>
  <path id="Path_97" data-name="Path 97" class="cls-6" d="M286.14,336.52c2.62,1.24,12.43.07,12.43.07s-5.35-8.3-8-9.53a5.23,5.23,0,1,0-4.46,9.461Z" transform="translate(-104.19 -58.23)"/>
  <path id="Path_98" data-name="Path 98" class="cls-6" d="M340.72,298.73s3.21,2.83.49,8.6-4.95,10.63-3.08,13.52c0,0,3.76-10.46,8.3-11.5S346.87,303.35,340.72,298.73Z" transform="translate(-104.19 -58.23)"/>
  <path id="Path_99" data-name="Path 99" class="cls-11" d="M340.72,298.73a4.611,4.611,0,0,1,.73.95c5.5,4.35,8.86,8.77,4.59,9.74-4,.92-7.34,9-8.13,11.05.07.13.14.26.22.38s3.76-10.46,8.3-11.5S346.87,303.35,340.72,298.73Z" transform="translate(-104.19 -58.23)"/>
  <path id="Path_100" data-name="Path 100" class="cls-6" d="M346.3,302c.24,1.17.29,2.15.13,2.18s-.48-.89-.72-2.07,0-.65.21-.68S346.07,300.86,346.3,302Z" transform="translate(-104.19 -58.23)"/>
  <path id="Path_101" data-name="Path 101" class="cls-6" d="M348.21,303.11c-.92.77-1.75,1.29-1.86,1.16s.55-.85,1.47-1.62.59-.27.7-.15S349.12,302.35,348.21,303.11Z" transform="translate(-104.19 -58.23)"/>
  <path id="Path_102" data-name="Path 102" class="cls-6" d="M327.26,301.42s-1.88,3.84,2.84,8.13,8.65,7.92,8,11.3c0,0-7.48-8.22-12.08-7.44S323.35,308,327.26,301.42Z" transform="translate(-104.19 -58.23)"/>
  <path id="Path_103" data-name="Path 103" class="cls-11" d="M327.26,301.42a4,4,0,0,0-.31,1.15c-3.42,6.13-4.82,11.49-.51,10.76,4-.68,10.24,5.51,11.75,7.08a3.115,3.115,0,0,1-.06.44s-7.48-8.22-12.08-7.44S323.35,308,327.26,301.42Z" transform="translate(-104.19 -58.23)"/>
  <path id="Path_104" data-name="Path 104" class="cls-6" d="M323.37,306.61c.23,1.17.56,2.1.72,2.06s.1-1-.13-2.18-.29-.59-.45-.55S323.14,305.44,323.37,306.61Z" transform="translate(-104.19 -58.23)"/>
  <path id="Path_105" data-name="Path 105" class="cls-6" d="M322,308.33c1.15.36,2.11.52,2.16.36s-.84-.57-2-.93-.65,0-.7.13S320.88,308,322,308.33Z" transform="translate(-104.19 -58.23)"/>
  <ellipse id="Ellipse_21" data-name="Ellipse 21" class="cls-6" cx="28.44" cy="4.81" rx="28.44" ry="4.81" transform="matrix(0.981, -0.196, 0.196, 0.981, 170.555, 292.234)"/>
  <ellipse id="Ellipse_22" data-name="Ellipse 22" class="cls-6" cx="20.19" cy="3.41" rx="20.19" ry="3.41" transform="matrix(0.981, -0.196, 0.196, 0.981, 213.683, 264.925)"/>
  <ellipse id="Ellipse_23" data-name="Ellipse 23" class="cls-6" cx="13.84" cy="2.34" rx="13.84" ry="2.34" transform="matrix(0.981, -0.196, 0.196, 0.981, 324.729, 247.347)"/>
  <ellipse id="Ellipse_24" data-name="Ellipse 24" class="cls-6" cx="10.94" cy="1.85" rx="10.94" ry="1.85" transform="matrix(0.981, -0.196, 0.196, 0.981, 382.631, 223.656)"/>
  <ellipse id="Ellipse_25" data-name="Ellipse 25" class="cls-6" cx="20.19" cy="3.41" rx="20.19" ry="3.41" transform="matrix(0.981, -0.196, 0.196, 0.981, 267.571, 274.325)"/>
  <ellipse id="Ellipse_26" data-name="Ellipse 26" class="cls-6" cx="20.19" cy="3.41" rx="20.19" ry="3.41" transform="matrix(0.981, -0.196, 0.196, 0.981, 349.011, 261.56)"/>
  <rect id="Rectangle_12" data-name="Rectangle 12" class="cls-6" width="44.5" height="10.22" transform="matrix(0.981, -0.196, 0.196, 0.981, 446.963, 132.896)"/>
  <path id="Path_110" data-name="Path 110" class="cls-3" d="M1035.76,692.73s7.14,9.33-3.29,23.41-19,26-15.55,34.76c0,0,15.73-26.16,28.54-26.52S1049.85,708.46,1035.76,692.73Z" transform="translate(-104.19 -58.23)"/>
  <path id="Path_111" data-name="Path 111" class="cls-11" d="M1035.76,692.73a11.492,11.492,0,0,1,1.46,2.92c12.5,14.68,19.15,28.38,7.14,28.73-11.19.32-24.61,20.32-27.82,25.37a9.1,9.1,0,0,0,.38,1.15s15.73-26.16,28.54-26.52S1049.85,708.46,1035.76,692.73Z" transform="translate(-104.19 -58.23)"/>
  <path id="Path_112" data-name="Path 112" class="cls-25" d="M1049,704.62c0,3.28-.37,5.94-.83,5.94s-.82-2.66-.82-5.94.46-1.74.91-1.74S1049,701.33,1049,704.62Z" transform="translate(-104.19 -58.23)"/>
  <path id="Path_113" data-name="Path 113" class="cls-25" d="M1053.58,708.54c-2.89,1.57-5.4,2.52-5.62,2.12s2-2,4.83-3.57,1.75-.42,2,0S1056.46,707,1053.58,708.54Z" transform="translate(-104.19 -58.23)"/>
  <path id="Path_114" data-name="Path 114" class="cls-3" d="M998.07,692.73s-7.13,9.33,3.3,23.41,19,26,15.55,34.76c0,0-15.73-26.16-28.54-26.52S984,708.46,998.07,692.73Z" transform="translate(-104.19 -58.23)"/>
  <path id="Path_115" data-name="Path 115" class="cls-11" d="M998.07,692.73a11.709,11.709,0,0,0-1.45,2.92c-12.5,14.68-19.15,28.38-7.14,28.73,11.18.32,24.61,20.32,27.82,25.37a11.066,11.066,0,0,1-.38,1.15s-15.73-26.16-28.54-26.52S984,708.46,998.07,692.73Z" transform="translate(-104.19 -58.23)"/>
  <path id="Path_116" data-name="Path 116" class="cls-25" d="M984.81,704.62c0,3.28.37,5.94.82,5.94s.83-2.66.83-5.94-.46-1.74-.92-1.74S984.81,701.33,984.81,704.62Z" transform="translate(-104.19 -58.23)"/>
  <path id="Path_117" data-name="Path 117" class="cls-25" d="M980.26,708.54c2.88,1.57,5.4,2.52,5.61,2.12s-1.94-2-4.82-3.57-1.75-.42-2,0S977.38,707,980.26,708.54Z" transform="translate(-104.19 -58.23)"/>
  <ellipse id="Ellipse_27" data-name="Ellipse 27" class="cls-1" cx="74.6" cy="11.45" rx="74.6" ry="11.45" transform="translate(838.13 741.15)"/>
  <path id="Path_118" data-name="Path 118" class="cls-26" d="M1055.32,738.33l-.36,2.91-.5,4.12-.21,1.71-.5,4.12-.22,1.72L1053,757l-5.71,46.8c-.51,4.18-7.33,7.43-15.57,7.43h-29.66c-8.24,0-15.06-3.25-15.57-7.43L980.81,757l-.51-4.11-.2-1.72-.51-4.12-.21-1.71-.5-4.12-.36-2.91c-.28-2.36,3.41-4.36,8.07-4.36h60.67C1051.91,734,1055.61,736,1055.32,738.33Z" transform="translate(-104.19 -58.23)"/>
  <path id="Path_119" data-name="Path 119" class="cls-27" d="M950.77,683.01l-.5,4.11H875.19l-.5-4.11Z"/>
  <path id="Path_120" data-name="Path 120" class="cls-27" d="M950.06,688.84l-.5,4.12H875.91l-.51-4.12Z"/>
  <path id="Path_121" data-name="Path 121" class="cls-27" d="M949.34,694.67l-.5,4.12H876.62l-.5-4.12Z"/>
  <path id="Path_162" data-name="Path 162" class="cls-3" d="M-148.12,0h4.72V-12.48H-131a8.136,8.136,0,0,0,8.4-8.32,8.136,8.136,0,0,0-8.4-8.32h-17.12Zm4.72-16.64v-8.32h11.92a3.947,3.947,0,0,1,4.16,4.16,3.947,3.947,0,0,1-4.16,4.16ZM-114.92.4a8.645,8.645,0,0,0,6.16-2.56l-2.72-2.8a4.406,4.406,0,0,1-3.44,1.52,4.59,4.59,0,0,1-4.56-3.36h13.52V-8.32c-.32-5.44-3.76-8.72-8.96-8.72a8.949,8.949,0,0,0-8.96,8.72C-123.88-3.12-120.12.4-114.92.4Zm-4.48-10.64a4.614,4.614,0,0,1,4.48-3.2,4.549,4.549,0,0,1,4.56,3.2ZM-102.4,0h4.48V-10.4a1.973,1.973,0,0,1,2.08-2.08h1.28v-4.16h-1.6a6.008,6.008,0,0,0-6.24,6.24Zm12.8,0h4.48V-12.48h2.24v-4.16h-2.24v-6.24a1.974,1.974,0,0,1,2.08-2.08h.36v-4.16h-.68a6.008,6.008,0,0,0-6.24,6.24v6.24h-2.24v4.16h2.24Zm18.92.4a8.645,8.645,0,0,0,6.16-2.56l-2.72-2.8a4.406,4.406,0,0,1-3.44,1.52A4.59,4.59,0,0,1-75.24-6.8h13.52V-8.32c-.32-5.44-3.76-8.72-8.96-8.72a8.949,8.949,0,0,0-8.96,8.72C-79.64-3.12-75.88.4-70.68.4Zm-4.48-10.64a4.614,4.614,0,0,1,4.48-3.2,4.549,4.549,0,0,1,4.56,3.2ZM-50,.4a8.534,8.534,0,0,0,6.16-2.64L-46.8-5.12A4.681,4.681,0,0,1-50-3.76a4.441,4.441,0,0,1-4.48-4.56A4.394,4.394,0,0,1-50-12.88a4.805,4.805,0,0,1,3.28,1.28l2.96-2.96A8.26,8.26,0,0,0-50-17.04a8.949,8.949,0,0,0-8.96,8.72C-58.96-3.12-55.2.4-50,.4ZM-38.32,0h4.48V-12.48h2.24v-4.16h-2.24V-29.12h-4.48v12.48h-2.24v4.16h2.24ZM-27-8.32h4.64v-20.8H-27ZM-24.68.4a2.766,2.766,0,0,0,2.76-2.76,2.766,2.766,0,0,0-2.76-2.76,2.766,2.766,0,0,0-2.76,2.76A2.766,2.766,0,0,0-24.68.4ZM-7.36,0h4.72L-.96-4.16H15.36L17.12,0h4.64L9.28-29.12H5.12ZM.8-8.32,7.2-23.68,13.6-8.32ZM24.96,0h4.48V-29.12H24.96Zm9.92,0h4.48V-29.12H34.88ZM64,.4a8.949,8.949,0,0,0,8.96-8.72v-20.8H68.48V-15.6a7.822,7.822,0,0,0-4.72-1.44,8.793,8.793,0,0,0-8.72,8.72C55.04-3.12,58.8.4,64,.4Zm0-4.16a4.441,4.441,0,0,1-4.48-4.56A4.394,4.394,0,0,1,64-12.88a4.348,4.348,0,0,1,4.48,4.56A4.394,4.394,0,0,1,64-3.76ZM85.92.4a8.949,8.949,0,0,0,8.96-8.72c0-5.2-3.76-8.72-8.96-8.72a8.949,8.949,0,0,0-8.96,8.72C76.96-3.12,80.72.4,85.92.4Zm0-4.16a4.441,4.441,0,0,1-4.48-4.56,4.394,4.394,0,0,1,4.48-4.56A4.348,4.348,0,0,1,90.4-8.32,4.394,4.394,0,0,1,85.92-3.76ZM98.4,0h4.48V-8.32a4.394,4.394,0,0,1,4.48-4.56,4.348,4.348,0,0,1,4.48,4.56V0h4.48V-8.32c0-5.2-3.68-8.72-8.88-8.72A8.9,8.9,0,0,0,98.4-8.32Zm30.4.4a8.645,8.645,0,0,0,6.16-2.56l-2.72-2.8a4.406,4.406,0,0,1-3.44,1.52,4.59,4.59,0,0,1-4.56-3.36h13.52V-8.32c-.32-5.44-3.76-8.72-8.96-8.72a8.949,8.949,0,0,0-8.96,8.72C119.84-3.12,123.6.4,128.8.4Zm-4.48-10.64a4.614,4.614,0,0,1,4.48-3.2,4.549,4.549,0,0,1,4.56,3.2Zm18.56,1.92h4.64v-20.8h-4.64ZM145.2.4a2.766,2.766,0,0,0,2.76-2.76,2.766,2.766,0,0,0-2.76-2.76,2.766,2.766,0,0,0-2.76,2.76A2.766,2.766,0,0,0,145.2.4Z" transform="translate(533 421)"/>
  <path id="Path_161" data-name="Path 161" class="cls-26" d="M-141.765,0h3.54V-16.62L-122.5,0h3V-21.84h-3.54V-5.22l-15.72-16.62h-3Zm32.34.3a6.712,6.712,0,0,0,6.72-6.54,6.349,6.349,0,0,0-6.72-6.54,6.712,6.712,0,0,0-6.72,6.54A6.349,6.349,0,0,0-109.425.3Zm0-3.12a3.331,3.331,0,0,1-3.36-3.42,3.3,3.3,0,0,1,3.36-3.42,3.261,3.261,0,0,1,3.36,3.42A3.3,3.3,0,0,1-109.425-2.82ZM-98.5,0h3.36V-9.36h1.68v-3.12h-1.68v-9.36H-98.5v9.36h-1.68v3.12h1.68Zm8.16,0h3.36V-6.24a3.3,3.3,0,0,1,3.36-3.42,3.261,3.261,0,0,1,3.36,3.42V0h3.36V-6.24a6.174,6.174,0,0,0-6.42-6.54,4.877,4.877,0,0,0-3.66,1.38V-21.84h-3.36Zm19.26-18a2.075,2.075,0,0,0,2.04-2.1,2.023,2.023,0,0,0-2.04-2.04,2.075,2.075,0,0,0-2.1,2.04A2.126,2.126,0,0,0-71.085-18Zm-1.74,18h3.36V-12.48h-3.36Zm7.44,0h3.36V-6.24a3.3,3.3,0,0,1,3.36-3.42A3.261,3.261,0,0,1-55.3-6.24V0h3.36V-6.24a6.3,6.3,0,0,0-6.66-6.54,6.679,6.679,0,0,0-6.78,6.54Zm23.16,6.54A6.519,6.519,0,0,0-35.5,0V-6.24a6.349,6.349,0,0,0-6.72-6.54,6.712,6.712,0,0,0-6.72,6.54A6.174,6.174,0,0,0-42.525.3,5.023,5.023,0,0,0-38.8-1.08V0a3.39,3.39,0,0,1-3.42,3.6A3.292,3.292,0,0,1-45.645.12h-3.18C-48.825,4.08-46.185,6.54-42.225,6.54Zm0-9.36a3.331,3.331,0,0,1-3.36-3.42,3.3,3.3,0,0,1,3.36-3.42,3.261,3.261,0,0,1,3.36,3.42A3.3,3.3,0,0,1-42.225-2.82ZM-16.6.3a6.679,6.679,0,0,0,6.78-6.54v-6.24h-3.36v6.24a3.3,3.3,0,0,1-3.36,3.42A3.331,3.331,0,0,1-19.9-6.24v-6.24h-3.36v6.24A6.3,6.3,0,0,0-16.6.3ZM-5.985,0h3.36V-7.8a1.48,1.48,0,0,1,1.56-1.56H-.1v-3.12H-1.3A4.506,4.506,0,0,0-5.985-7.8ZM9.135,6.54A6.519,6.519,0,0,0,15.855,0V-6.24a6.349,6.349,0,0,0-6.72-6.54,6.712,6.712,0,0,0-6.72,6.54A6.174,6.174,0,0,0,8.835.3a5.023,5.023,0,0,0,3.72-1.38V0a3.39,3.39,0,0,1-3.42,3.6A3.292,3.292,0,0,1,5.715.12H2.535C2.535,4.08,5.175,6.54,9.135,6.54Zm0-9.36a3.331,3.331,0,0,1-3.36-3.42,3.3,3.3,0,0,1,3.36-3.42A3.261,3.261,0,0,1,12.5-6.24,3.3,3.3,0,0,1,9.135-2.82ZM25.215.3a6.484,6.484,0,0,0,4.62-1.92L27.8-3.72a3.3,3.3,0,0,1-2.58,1.14A3.442,3.442,0,0,1,21.8-5.1h10.14V-6.24c-.24-4.08-2.82-6.54-6.72-6.54A6.712,6.712,0,0,0,18.5-6.24,6.349,6.349,0,0,0,25.215.3Zm-3.36-7.98a3.461,3.461,0,0,1,3.36-2.4,3.412,3.412,0,0,1,3.42,2.4ZM34.6,0h3.36V-6.24a3.3,3.3,0,0,1,3.36-3.42,3.261,3.261,0,0,1,3.36,3.42V0h3.36V-6.24a6.3,6.3,0,0,0-6.66-6.54A6.679,6.679,0,0,0,34.6-6.24Zm18.24,0H56.2V-9.36h1.68v-3.12H56.2v-9.36h-3.36v9.36h-1.68v3.12h1.68Zm17.28,0h3.36V-9.36h1.68v-3.12h-1.68v-9.36h-3.36v9.36h-1.68v3.12h1.68Zm14.04.3a6.712,6.712,0,0,0,6.72-6.54,6.349,6.349,0,0,0-6.72-6.54,6.712,6.712,0,0,0-6.72,6.54A6.349,6.349,0,0,0,84.165.3Zm0-3.12a3.331,3.331,0,0,1-3.36-3.42,3.3,3.3,0,0,1,3.36-3.42,3.261,3.261,0,0,1,3.36,3.42A3.3,3.3,0,0,1,84.165-2.82ZM99.645.3a6.712,6.712,0,0,0,6.72-6.54v-15.6H103V-11.7a5.867,5.867,0,0,0-3.54-1.08,6.594,6.594,0,0,0-6.54,6.54A6.349,6.349,0,0,0,99.645.3Zm0-3.12a3.331,3.331,0,0,1-3.36-3.42,3.3,3.3,0,0,1,3.36-3.42A3.261,3.261,0,0,1,103-6.24,3.3,3.3,0,0,1,99.645-2.82ZM115.785.3a5.123,5.123,0,0,0,3.72-1.38V0h3.3V-6.24a6.349,6.349,0,0,0-6.72-6.54,6.712,6.712,0,0,0-6.72,6.54A6.174,6.174,0,0,0,115.785.3Zm.3-3.12a3.331,3.331,0,0,1-3.36-3.42,3.3,3.3,0,0,1,3.36-3.42,3.261,3.261,0,0,1,3.36,3.42A3.3,3.3,0,0,1,116.085-2.82Zm10.5,9.06h3.24l7.68-18.72h-3.36l-3.3,8.7-3.42-8.7h-3.36L129.165,0ZM139.575.3a2.074,2.074,0,0,0,2.07-2.07,2.074,2.074,0,0,0-2.07-2.07,2.074,2.074,0,0,0-2.07,2.07A2.074,2.074,0,0,0,139.575.3ZM-88.89,39h3.48V20.28h8.04V17.16H-96.93v3.12h8.04Zm15.06.3a5.123,5.123,0,0,0,3.72-1.38V39h3.3V32.76a6.349,6.349,0,0,0-6.72-6.54,6.712,6.712,0,0,0-6.72,6.54A6.174,6.174,0,0,0-73.83,39.3Zm.3-3.12a3.331,3.331,0,0,1-3.36-3.42,3.3,3.3,0,0,1,3.36-3.42,3.261,3.261,0,0,1,3.36,3.42A3.3,3.3,0,0,1-73.53,36.18ZM-62.85,39h3.36V36.66l3.72-4.02L-53.43,39h3.36l-3.24-9,3.24-3.48h-3.96l-5.46,5.88V17.16h-3.36Zm21.42.3a6.484,6.484,0,0,0,4.62-1.92l-2.04-2.1a3.3,3.3,0,0,1-2.58,1.14,3.442,3.442,0,0,1-3.42-2.52h10.14V32.76c-.24-4.08-2.82-6.54-6.72-6.54a6.712,6.712,0,0,0-6.72,6.54A6.349,6.349,0,0,0-41.43,39.3Zm-3.36-7.98a3.461,3.461,0,0,1,3.36-2.4,3.412,3.412,0,0,1,3.42,2.4Zm27.57,7.98a5.123,5.123,0,0,0,3.72-1.38V39h3.3V32.76a6.349,6.349,0,0,0-6.72-6.54,6.712,6.712,0,0,0-6.72,6.54A6.174,6.174,0,0,0-17.22,39.3Zm.3-3.12a3.331,3.331,0,0,1-3.36-3.42,3.3,3.3,0,0,1,3.36-3.42,3.261,3.261,0,0,1,3.36,3.42A3.3,3.3,0,0,1-16.92,36.18ZM8.76,39.3a6.712,6.712,0,0,0,6.72-6.54,6.174,6.174,0,0,0-6.42-6.54A4.877,4.877,0,0,0,5.4,27.6V17.16H2.04v15.6A6.349,6.349,0,0,0,8.76,39.3Zm0-3.12A3.331,3.331,0,0,1,5.4,32.76a3.3,3.3,0,0,1,3.36-3.42,3.261,3.261,0,0,1,3.36,3.42A3.3,3.3,0,0,1,8.76,36.18ZM18.12,39h3.36V31.2a1.48,1.48,0,0,1,1.56-1.56H24V26.52H22.8a4.506,4.506,0,0,0-4.68,4.68Zm14.76.3a6.484,6.484,0,0,0,4.62-1.92l-2.04-2.1a3.3,3.3,0,0,1-2.58,1.14,3.442,3.442,0,0,1-3.42-2.52H39.6V32.76c-.24-4.08-2.82-6.54-6.72-6.54a6.712,6.712,0,0,0-6.72,6.54A6.349,6.349,0,0,0,32.88,39.3Zm-3.36-7.98a3.461,3.461,0,0,1,3.36-2.4,3.412,3.412,0,0,1,3.42,2.4ZM48.09,39.3a5.123,5.123,0,0,0,3.72-1.38V39h3.3V32.76a6.349,6.349,0,0,0-6.72-6.54,6.712,6.712,0,0,0-6.72,6.54A6.174,6.174,0,0,0,48.09,39.3Zm.3-3.12a3.331,3.331,0,0,1-3.36-3.42,3.3,3.3,0,0,1,3.36-3.42,3.261,3.261,0,0,1,3.36,3.42A3.3,3.3,0,0,1,48.39,36.18ZM59.07,39h3.36V36.66l3.72-4.02L68.49,39h3.36l-3.24-9,3.24-3.48H67.89L62.43,32.4V17.16H59.07Zm17.61.3a2.07,2.07,0,1,0-2.07-2.07A2.074,2.074,0,0,0,76.68,39.3Zm8.46,0a2.07,2.07,0,1,0-2.07-2.07A2.074,2.074,0,0,0,85.14,39.3Zm8.46,0a2.07,2.07,0,1,0-2.07-2.07A2.074,2.074,0,0,0,93.6,39.3Z" transform="translate(532 494)"/>
</svg>
