<svg width="24" height="24" viewBox="0 0 24 24" fill="none" xmlns="http://www.w3.org/2000/svg">
<path d="M21 20H3L3 3.98947L5.38441 2L21 2L21 20Z" fill="#F7F8FB" stroke="#005FD5" stroke-width="2"/>
<path d="M5.55103 1.30639V4.80654H2.35052V4.50015L5.24404 1.30639H5.55103Z" fill="url(#paint0_linear)"/>
<path d="M2 5L6 1V5H2Z" fill="#005FD5"/>
<path d="M12.4874 11.8283C12.206 11.7699 11.9749 11.6775 11.794 11.5511V11.2738C11.995 11.4003 12.2412 11.4927 12.5327 11.5511C12.8342 9.76132 13.0603 8.69622 13.2111 8.35578C13.3618 8.01534 13.5126 7.71867 13.6633 7.46577C13.9648 6.98915 14.3719 6.75084 14.8844 6.75084C15.0251 6.75084 15.1206 6.8092 15.1709 6.92593L15.1859 6.99888C14.9447 6.99888 14.7337 7.07669 14.5528 7.23232C14.3719 7.38795 14.2261 7.57763 14.1156 7.80135C14.0151 8.02507 13.9246 8.33633 13.8442 8.73513C13.7136 9.36738 13.6231 9.94126 13.5729 10.4568C13.5226 10.9723 13.4975 11.2447 13.4975 11.2738C13.4975 11.3808 13.4874 11.483 13.4673 11.5802C13.8995 11.5219 14.2864 11.41 14.6281 11.2447C14.6884 10.6513 14.8543 10.1309 15.1256 9.6835C15.397 9.22634 15.7387 8.99776 16.1508 8.99776C16.402 8.99776 16.5276 9.12907 16.5276 9.39169C16.5276 9.90722 16.2261 10.4227 15.6231 10.9383C15.4925 11.055 15.3518 11.162 15.201 11.2593C15.1709 11.4635 15.1558 11.6483 15.1558 11.8137C15.1558 12.5335 15.3367 12.8934 15.6985 12.8934C15.6884 13.0101 15.603 13.0685 15.4422 13.0685C15.1709 13.0685 14.9648 12.9274 14.8241 12.6453C14.6834 12.3633 14.6131 12.0034 14.6131 11.5657C14.2513 11.7213 13.8593 11.8186 13.4372 11.8575C13.1859 13.9293 12.8643 15.3251 12.4724 16.0449C12.2814 16.3951 12.0503 16.7306 11.7789 17.0516C11.2462 17.6839 10.4573 18 9.41206 18C8.8995 18 8.45729 17.9027 8.08543 17.7082C7.72362 17.5234 7.46231 17.2753 7.30151 16.9641C7.1005 16.5653 7 16.1859 7 15.826C7 15.4661 7.05528 15.1257 7.16583 14.8047C7.27638 14.474 7.42714 14.1579 7.61809 13.8563C7.8191 13.5451 8.0804 13.297 8.40201 13.1122C8.72362 12.9177 9.06533 12.8204 9.42714 12.8204C9.61809 12.8204 9.75377 12.8885 9.83417 13.0247L9.8794 13.0976C9.03518 13.0976 8.36683 13.4721 7.87437 14.2211C7.55276 14.7172 7.39196 15.2278 7.39196 15.7531C7.39196 15.9184 7.41206 16.0887 7.45226 16.2637C7.59296 16.9738 7.99497 17.4018 8.65829 17.5477C8.8191 17.5866 9.03518 17.6061 9.30653 17.6061C9.57789 17.6061 9.86432 17.5331 10.1658 17.3872C10.4673 17.251 10.7286 17.0322 10.9497 16.7306C11.1709 16.4194 11.3568 16.1081 11.5075 15.7969C11.6683 15.4856 11.8141 15.0771 11.9447 14.5713C12.1256 13.8126 12.3065 12.8982 12.4874 11.8283ZM18.5025 5C18.8342 5 19 5.18967 19 5.56902C19 5.86083 18.8392 6.13318 18.5176 6.38608C18.206 6.62925 17.7085 6.75084 17.0251 6.75084C16.3518 6.75084 15.4322 6.57089 14.2663 6.211C13.1005 5.8511 12.2161 5.67116 11.6131 5.67116C10.3166 5.67116 9.30653 6.17209 8.58291 7.17396C8.09045 7.85484 7.84422 8.58436 7.84422 9.36251C7.84422 10.4714 8.23618 11.2058 9.0201 11.5657C9.29146 11.6921 9.59799 11.7553 9.9397 11.7553C9.9397 11.8234 9.8995 11.8964 9.8191 11.9742C9.73869 12.052 9.64824 12.0909 9.54774 12.0909C8.49246 12.0909 7.75879 11.6678 7.34673 10.8215C7.15578 10.4227 7.0603 10.0045 7.0603 9.56678C7.0603 9.12907 7.15075 8.66704 7.33166 8.1807C7.72362 7.13019 8.42211 6.35204 9.42714 5.84624C10.0804 5.52525 10.7688 5.36476 11.4925 5.36476C12.2261 5.36476 13.1307 5.52525 14.206 5.84624C15.2915 6.1575 16.1206 6.31313 16.6935 6.31313C17.5578 6.31313 18.0553 6.11859 18.1859 5.72952C18.2563 5.54471 18.2362 5.42312 18.1256 5.36476C18.1055 5.35503 18.0905 5.35017 18.0804 5.35017C18.1407 5.11672 18.2814 5 18.5025 5ZM16.1357 9.27497C15.9648 9.27497 15.799 9.4306 15.6382 9.74186C15.4774 10.0434 15.3518 10.413 15.2613 10.8507C15.7638 10.4617 16.0804 10.0434 16.2111 9.59596C16.2312 9.51814 16.2412 9.44519 16.2412 9.3771C16.2412 9.30902 16.206 9.27497 16.1357 9.27497Z" fill="#005FD5"/>
<defs>
<linearGradient id="paint0_linear" x1="1145.7" y1="341.801" x2="1145.7" y2="28.7125" gradientUnits="userSpaceOnUse">
<stop stop-color="#B3B3B3" stop-opacity="0.25"/>
<stop offset="0.54" stop-color="#B3B3B3" stop-opacity="0.1"/>
<stop offset="1" stop-color="#B3B3B3" stop-opacity="0.05"/>
</linearGradient>
</defs>
</svg>
