<svg width="143" height="109" viewBox="0 0 143 109" fill="none" xmlns="http://www.w3.org/2000/svg">
<g clip-path="url(#clip0)">
<path d="M36.8328 95.286C36.8328 95.286 37.5213 92.3943 42.3408 93.3582C47.1603 94.3221 47.8488 95.286 47.8488 95.286H36.8328Z" fill="#3F3D56"/>
<path d="M13.0793 91.4993C13.0793 91.4993 13.7678 88.6075 18.5874 89.5715C23.4069 90.5354 24.0954 91.4993 24.0954 91.4993H13.0793Z" fill="#3F3D56"/>
<path d="M53.3567 95.2861C53.3567 95.2861 49.501 92.9451 47.8486 95.2861H53.3567Z" fill="#3F3D56"/>
<path d="M35.3869 88.6764C35.3869 88.6764 31.5313 86.3355 29.8789 88.6764H35.3869Z" fill="#3F3D56"/>
<path d="M13.7576 86.5256C14.9055 88.6545 17.3417 89.5683 17.3417 89.5683C17.3417 89.5683 17.9169 87.0307 16.769 84.9019C15.6211 82.773 13.1849 81.8592 13.1849 81.8592C13.1849 81.8592 12.6097 84.3968 13.7576 86.5256Z" fill="#3F3D56"/>
<path d="M14.5464 85.8253C16.6188 87.0721 17.417 89.5486 17.417 89.5486C17.417 89.5486 14.8551 90.0037 12.7827 88.7568C10.7103 87.51 9.91211 85.0335 9.91211 85.0335C9.91211 85.0335 12.474 84.5784 14.5464 85.8253Z" fill="#6C63FF"/>
<path d="M128.335 93.5648C128.335 93.5648 129.023 90.6731 133.843 91.637C138.663 92.6009 139.351 93.5648 139.351 93.5648H128.335Z" fill="#3F3D56"/>
<path d="M117.319 95.286C113.97 94.7618 110.751 94.3159 107.66 93.9484L108.85 91.5681C108.437 91.4304 106.647 92.8074 106.647 92.8074L108.162 85.9224C106.096 86.1978 105.132 93.2205 105.132 93.2205L102.791 90.8796L103.944 93.53C94.4862 92.5362 86.3253 92.2261 79.4651 92.2972L80.4838 90.26C80.0707 90.1223 78.2806 91.4993 78.2806 91.4993L79.7953 84.6142C77.7298 84.8896 76.7659 91.9124 76.7659 91.9124L74.4249 89.5715L75.6454 92.3786C70.9463 92.5151 66.2573 92.8927 61.5969 93.5099C62.6133 90.3434 66.1629 87.2994 66.1629 87.2994C63.4336 88.1485 62.0137 89.5318 61.2787 90.8141C61.1301 84.3086 62.1309 77.828 64.2351 71.6703C64.2351 71.6703 58.7271 84.0634 59.5533 92.3255L59.6581 93.7931C54.8662 94.5406 52.4617 95.286 52.4617 95.286H117.319Z" fill="#3F3D56"/>
<path d="M81.3789 101.551C81.3789 101.551 106.716 97.8335 122.414 101.551H81.3789Z" fill="#3F3D56"/>
<path d="M44.062 106.646C44.062 106.646 69.399 102.928 85.0968 106.646H44.062Z" fill="#3F3D56"/>
<path d="M91.0181 108.013C91.0181 108.013 106.025 104.207 115.322 108.013H91.0181Z" fill="#3F3D56"/>
<path d="M132.933 92.7329L132.688 92.6065C135.866 86.4618 134.167 78.4818 132.181 72.8696C130.833 69.0974 129.114 65.4683 127.048 62.036L127.281 61.8889C129.357 65.3387 131.086 68.9862 132.441 72.7776C134.444 78.4412 136.156 86.5008 132.933 92.7329Z" fill="#3F3D56"/>
<path d="M135.29 61.9383L133.503 71.7156L133.774 71.7651L135.561 61.9877L135.29 61.9383Z" fill="#3F3D56"/>
<path d="M123.41 70.2684L123.208 70.4561L132.434 80.3705L132.636 80.1829L123.41 70.2684Z" fill="#3F3D56"/>
<path d="M139.996 81.1591L135.316 87.6326L135.539 87.794L140.219 81.3205L139.996 81.1591Z" fill="#3F3D56"/>
<path d="M136.115 59.3461C136.876 59.3461 137.492 58.7296 137.492 57.9691C137.492 57.2086 136.876 56.5921 136.115 56.5921C135.355 56.5921 134.738 57.2086 134.738 57.9691C134.738 58.7296 135.355 59.3461 136.115 59.3461Z" fill="#6C63FF"/>
<path d="M121.106 69.9491C121.866 69.9491 122.483 69.3326 122.483 68.5721C122.483 67.8116 121.866 67.1951 121.106 67.1951C120.345 67.1951 119.729 67.8116 119.729 68.5721C119.729 69.3326 120.345 69.9491 121.106 69.9491Z" fill="#3F3D56"/>
<path d="M127.165 71.3261C127.925 71.3261 128.542 70.7096 128.542 69.9491C128.542 69.1886 127.925 68.5721 127.165 68.5721C126.404 68.5721 125.788 69.1886 125.788 69.9491C125.788 70.7096 126.404 71.3261 127.165 71.3261Z" fill="#3F3D56"/>
<path d="M124.41 76.6965C125.171 76.6965 125.787 76.08 125.787 75.3195C125.787 74.559 125.171 73.9424 124.41 73.9424C123.65 73.9424 123.033 74.559 123.033 75.3195C123.033 76.08 123.65 76.6965 124.41 76.6965Z" fill="#6C63FF"/>
<path d="M141.623 80.139C142.384 80.139 143 79.5225 143 78.762C143 78.0015 142.384 77.3849 141.623 77.3849C140.863 77.3849 140.246 78.0015 140.246 78.762C140.246 79.5225 140.863 80.139 141.623 80.139Z" fill="#3F3D56"/>
<path d="M137.079 81.6537C137.839 81.6537 138.456 81.0372 138.456 80.2767C138.456 79.5162 137.839 78.8997 137.079 78.8997C136.318 78.8997 135.702 79.5162 135.702 80.2767C135.702 81.0372 136.318 81.6537 137.079 81.6537Z" fill="#3F3D56"/>
<path d="M140.246 86.0601C141.007 86.0601 141.623 85.4436 141.623 84.6831C141.623 83.9226 141.007 83.3061 140.246 83.3061C139.486 83.3061 138.869 83.9226 138.869 84.6831C138.869 85.4436 139.486 86.0601 140.246 86.0601Z" fill="#3F3D56"/>
<path d="M125.787 60.9986C126.548 60.9986 127.164 60.382 127.164 59.6215C127.164 58.861 126.548 58.2445 125.787 58.2445C125.027 58.2445 124.41 58.861 124.41 59.6215C124.41 60.382 125.027 60.9986 125.787 60.9986Z" fill="#3F3D56"/>
<path d="M45.2021 52.3224C45.2021 69.3436 35.0833 75.2867 22.601 75.2867C10.1188 75.2867 0 69.3436 0 52.3224C0 35.3012 22.601 13.6475 22.601 13.6475C22.601 13.6475 45.2021 35.3012 45.2021 52.3224Z" fill="#F2F2F2"/>
<path d="M21.7777 72.683L22.009 58.4379L31.6422 40.8145L22.0454 56.2031L22.1494 49.798L28.7886 37.0476L22.1769 48.1029L22.3642 36.5828L29.4734 26.4319L22.3935 34.7714L22.5104 13.6475L21.7756 41.6115L21.8359 40.458L14.6079 29.3942L21.7201 42.6725L21.0466 55.5384L21.0265 55.1969L12.6938 43.5539L21.0013 56.4033L20.9171 58.0124L20.9021 58.0366L20.9089 58.1687L19.2002 90.8106H21.4832L21.757 73.9504L30.0442 61.1325L21.7777 72.683Z" fill="#3F3D56"/>
<path d="M119.751 47.2481C119.751 68.0425 107.389 75.3032 92.14 75.3032C76.8907 75.3032 64.5288 68.0425 64.5288 47.2481C64.5288 26.4537 92.14 0 92.14 0C92.14 0 119.751 26.4537 119.751 47.2481Z" fill="#F2F2F2"/>
<path d="M91.1341 72.1223L91.4168 54.7193L103.185 33.1892L91.4611 51.9892L91.5883 44.1641L99.6992 28.5874L91.6219 42.0933L91.8505 28.0195L100.536 15.6184L91.8865 25.8064L92.0294 0L91.1316 34.163L91.2054 32.7536L82.3751 19.2374L91.0638 35.4591L90.2409 51.1771L90.2166 50.76L80.0366 36.536L90.1857 52.2338L90.0827 54.1994L90.0644 54.229L90.0728 54.3904L87.9853 94.2684H90.7742L91.109 73.6706L101.233 58.0113L91.1341 72.1223Z" fill="#3F3D56"/>
<path d="M69.8373 77.1974L71.0955 81.0918C71.0955 81.0918 69.9572 84.7465 70.4964 88.8207C71.0356 92.8948 70.736 93.0146 70.736 93.0146C70.736 93.0146 65.3483 92.7045 65.8875 94.3222C66.4268 95.9398 71.6947 94.9918 71.6947 94.9918C71.6947 94.9918 72.7064 94.7194 73.1857 91.8435C73.665 88.9677 74.8701 83.4284 74.8701 83.4284L73.7369 78.1992L69.8373 77.1974Z" fill="#FFB8B8"/>
<path d="M70.2567 69.2289C70.2567 69.2289 67.98 70.0677 67.98 72.3444C67.98 74.6211 68.8188 77.7367 69.358 77.9164C69.8972 78.0961 73.492 80.5526 74.1511 78.8151C74.8101 77.0776 70.2567 69.2289 70.2567 69.2289Z" fill="#6C63FF"/>
<path d="M89.3093 96.1901L94.1024 96.0104L97.7572 95.4711L96.6788 99.066L87.8115 99.3055L89.3093 96.1901Z" fill="#FFB8B8"/>
<path d="M96.1995 96.6694C96.1995 96.6694 96.1396 95.3513 95.6004 95.4112C95.0612 95.4711 95.4207 94.9319 95.9 94.812C96.3793 94.6922 97.7573 94.0931 97.7573 94.0931L103.209 94.4526C103.209 94.4526 106.744 97.5681 105.306 99.2457C103.869 100.923 100.154 99.4254 100.154 99.4254L96.1396 99.4853C96.1396 99.4853 94.8215 97.3284 96.1995 96.6694Z" fill="#2F2E41"/>
<path d="M98.3564 92.056L100.094 100.204L103.689 99.4854L101.652 89.2999L99.4947 88.1616L98.3564 92.056Z" fill="#FFB8B8"/>
<path d="M77.6862 91.0374C77.6862 91.0374 67.6207 95.5909 71.8746 100.204C71.8746 100.204 71.8746 102.361 76.3681 101.942C80.8616 101.522 89.5491 100.743 89.9685 100.983C90.3879 101.223 91.706 96.2499 90.5677 96.0103C89.4293 95.7706 88.0513 95.4711 88.0513 95.4711C88.0513 95.4711 89.2495 95.2913 89.2495 94.2728C89.2495 94.2728 92.6646 94.0331 93.6832 91.8763C94.7017 89.7194 95.6603 88.1017 95.6603 88.1017L97.997 94.0931C97.997 94.0931 100.693 89.1202 102.73 91.337C102.73 91.337 100.453 77.0176 98.7159 75.6995C96.9784 74.3814 95.7802 73.962 94.1625 75.1603C92.5448 76.3586 91.047 79.4142 91.047 79.4142L77.6862 91.0374Z" fill="#2F2E41"/>
<path d="M101.711 97.7478C101.292 98.0638 100.892 98.4038 100.513 98.7664C100.034 99.2457 99.3747 99.006 99.3148 98.7664C99.2549 98.5267 98.1764 98.9461 98.0566 100.684C97.9368 102.421 97.2178 103.979 99.1351 104.518C101.052 105.057 100.992 106.615 100.992 106.615C102.509 107.343 104.25 107.45 105.845 106.915C108.542 106.016 107.583 105.057 107.583 105.057L103.988 99.1258C103.988 99.1258 103.029 97.3284 101.711 97.7478Z" fill="#2F2E41"/>
<path d="M91.7659 68.0306C91.7659 68.0306 97.5177 70.0078 98.1168 70.4272C98.7159 70.8466 101.412 72.8237 100.094 73.8423C98.7759 74.8608 97.6974 75.5199 95.1211 74.741C92.5448 73.9621 89.6689 71.5655 89.6689 71.5655L91.7659 68.0306Z" fill="#FFB8B8"/>
<path d="M86.0142 65.3944C86.0142 65.3944 88.2909 64.975 89.9086 65.8737C91.5262 66.7724 92.9043 68.5698 92.9043 68.5698C92.9043 68.5698 91.4064 71.7452 90.328 72.2245C89.2495 72.7038 87.2723 70.3073 87.2723 70.3073L86.0142 65.3944Z" fill="#6C63FF"/>
<path d="M75.5291 63.6569C75.5291 63.6569 75.5891 65.9935 75.3494 66.2332C75.1098 66.4728 78.2253 73.5427 81.6403 70.4272C85.0554 67.3116 82.4192 66.0534 82.4192 66.0534C82.4192 66.0534 81.161 63.7168 81.221 63.4771C81.2809 63.2375 75.649 63.4771 75.649 63.4771L75.5291 63.6569Z" fill="#FFB8B8"/>
<path opacity="0.1" d="M75.5291 63.6569C75.5291 63.6569 75.5891 65.9935 75.3494 66.2332C75.1098 66.4728 78.2253 73.5427 81.6403 70.4272C85.0554 67.3116 82.4192 66.0534 82.4192 66.0534C82.4192 66.0534 81.161 63.7168 81.221 63.4771C81.2809 63.2375 75.649 63.4771 75.649 63.4771L75.5291 63.6569Z" fill="black"/>
<path d="M76.4877 68.1503C76.4877 68.1503 78.7644 69.7081 79.7231 69.3486C80.6817 68.9891 81.88 67.4314 81.9998 67.3115C82.1196 67.1917 88.2308 79.4741 88.2308 79.4741C88.2308 79.4741 87.3321 83.9676 84.9356 85.2857C82.539 86.6038 82.569 87.6523 82.2694 88.551C81.9698 89.4497 78.1054 85.7051 78.1054 85.7051L75.6489 75.2801V68.9292L76.4877 68.1503Z" fill="#6C63FF"/>
<path d="M75.4993 65.3644C75.4993 65.3644 74.7503 65.2146 73.9715 65.8736C73.1926 66.5327 69.5378 68.9891 69.7176 69.2288C69.8973 69.4685 71.515 72.8836 71.8745 74.2616C72.234 75.6396 72.7732 75.8193 72.7732 75.8193C72.7732 75.8193 74.0314 76.718 73.8516 77.3771C73.6719 78.0361 72.893 87.0232 73.9715 89.0004C75.0499 90.9776 74.8702 92.7151 74.5706 93.1944C74.271 93.6737 77.4465 91.8163 77.4465 91.8163C77.4465 91.8163 82.1796 87.9819 82.5391 86.8435C82.7716 86.0609 82.932 85.2587 83.0184 84.4469C83.0184 84.4469 79.9628 72.3443 79.0042 71.6853C78.0456 71.0262 75.4993 65.3644 75.4993 65.3644Z" fill="#575A89"/>
<path d="M82.0813 65.4118C82.0813 65.4118 83.5576 64.4956 83.8572 64.7353C84.1568 64.9749 86.9727 64.9749 87.0326 65.2146C87.0925 65.4543 87.2124 71.206 89.2494 72.7038C91.2865 74.2017 89.9684 77.1974 89.9684 77.1974L91.4663 79.5939C91.4663 79.5939 83.3181 87.442 83.8572 84.7465C83.8871 84.5967 83.8572 84.5668 83.8572 84.5668C83.8572 84.5668 80.6818 70.9663 81.1012 70.2474C81.5206 69.5284 82.2826 66.268 82.0813 65.4118Z" fill="#575A89"/>
<path d="M94.6416 70.9064L86.4934 73.7224C86.4934 73.7224 78.405 75.6396 79.6632 77.8564C80.9214 80.0733 86.2537 76.2987 86.2537 76.2987L97.1045 75.0829C97.1045 75.0829 101.412 71.4457 94.6416 70.9064Z" fill="#FFB8B8"/>
<path d="M78.7644 65.8737C81.213 65.8737 83.1981 63.8887 83.1981 61.4401C83.1981 58.9915 81.213 57.0065 78.7644 57.0065C76.3158 57.0065 74.3308 58.9915 74.3308 61.4401C74.3308 63.8887 76.3158 65.8737 78.7644 65.8737Z" fill="#FFB8B8"/>
<path d="M75.2338 57.0338L74.4137 56.7356C74.4137 56.7356 76.1285 55.0208 78.5143 55.1699L77.8433 54.4989C77.8433 54.4989 79.4836 53.9024 80.9747 55.4681C81.7585 56.2911 82.6655 57.2586 83.2309 58.3484H84.1092L83.7426 59.0816L85.0256 59.8147L83.7087 59.683C83.8335 60.316 83.7905 60.9705 83.5842 61.5818L83.2859 62.4019C83.2859 62.4019 82.093 60.0161 82.093 59.7178V60.4634C82.093 60.4634 81.2729 59.7924 81.2729 59.3451L80.8256 59.867L80.6019 59.0468L77.8433 59.867L78.2906 59.1959L76.5758 59.4196L77.2469 58.5995C77.2469 58.5995 75.3084 59.5687 75.2338 60.3888C75.1593 61.209 74.1901 62.2528 74.1901 62.2528L73.7427 61.5072C73.7427 61.5072 73.0717 58.1521 75.2338 57.0338Z" fill="#2F2E41"/>
</g>
<defs>
<clipPath id="clip0">
<rect width="143" height="108.013" fill="white"/>
</clipPath>
</defs>
</svg>
