<svg width="27" height="25" viewBox="0 0 27 25" fill="none" xmlns="http://www.w3.org/2000/svg">
<g clip-path="url(#clip0)">
<path d="M13.2154 19.4905C13.2154 20.4979 12.0782 21.2814 10.6922 21.2814C9.30618 21.2814 8.16895 20.4606 8.16895 19.4905C8.16895 18.819 8.70202 18.222 9.51941 17.8862V18.7443C9.27064 18.9309 9.16402 19.192 9.16402 19.4532C9.16402 20.0875 9.87479 20.5725 10.7277 20.5725C11.5806 20.5725 12.2914 20.0875 12.2914 19.4532C12.2914 19.192 12.1493 18.9309 11.936 18.7443V17.8862C12.6823 18.1847 13.2154 18.7816 13.2154 19.4905Z" fill="#FBB732"/>
<path d="M16.6273 7.62628C17.3736 8.44708 18.1199 9.56636 18.8662 11.3199C16.2719 8.44708 13.6776 13.2973 11.0833 12.0288V19.304C11.0833 19.5652 10.87 19.7517 10.6568 19.7517C10.408 19.7517 10.2303 19.5279 10.2303 19.304V5.27581C9.9105 5.12657 9.69727 4.75348 9.69727 4.38039C9.69727 3.85807 10.1237 3.37305 10.6568 3.37305C11.1899 3.37305 11.6163 3.85807 11.6163 4.38039C11.6163 4.75348 11.4031 5.08926 11.0833 5.27581V6.28316C13.6776 7.58897 16.2719 2.70148 18.8662 5.57428C18.1199 5.76083 17.3736 6.54432 16.6273 7.62628Z" fill="#2AA578"/>
</g>
<defs>
<clipPath id="clip0">
<rect width="25.536" height="24" fill="white" transform="translate(0.639648 0.5)"/>
</clipPath>
</defs>
</svg>
