<svg width="25" height="25" viewBox="0 0 25 25" fill="none" xmlns="http://www.w3.org/2000/svg">
<path d="M18.6023 18.5091H4.71805C3.66888 18.5091 2.81836 17.6585 2.81836 16.6094V7.22098C2.81836 6.17181 3.66888 5.32129 4.71805 5.32129H18.6023C19.6514 5.32129 20.5019 6.17181 20.5019 7.22098V16.6094C20.5019 17.6585 19.6514 18.5091 18.6023 18.5091Z" stroke="#223044" stroke-width="2" stroke-miterlimit="10" stroke-linecap="round"/>
<path d="M3.17383 10.2603H20.1459" stroke="#223044" stroke-width="2" stroke-miterlimit="10" stroke-linecap="round"/>
<path d="M18.2608 12.354H16.375V13.4855H18.2608V12.354Z" fill="#223044"/>
<path d="M12.3424 12.354H5.05951V13.354H12.3424V12.354Z" fill="#223044"/>
<path d="M18.2602 14.6411H8.83099V15.6411H18.2602V14.6411Z" fill="#223044"/>
<path d="M6.9453 14.6411H5.05951V15.6411H6.9453V14.6411Z" fill="#223044"/>
<path d="M7.51979 7.94315H7.45824C6.53316 7.94315 5.78323 7.34636 5.78323 6.61019V3.48432C5.78323 2.74815 6.53316 2.15137 7.45824 2.15137H7.51979C8.44487 2.15137 9.19479 2.74815 9.19479 3.48432V6.61019C9.19479 7.34636 8.44487 7.94315 7.51979 7.94315Z" fill="white" stroke="#223044" stroke-width="2" stroke-miterlimit="10" stroke-linecap="round"/>
<path d="M15.8621 7.94315H15.8005C14.8754 7.94315 14.1255 7.34636 14.1255 6.61019V3.48432C14.1255 2.74815 14.8754 2.15137 15.8005 2.15137H15.8621C16.7872 2.15137 17.5371 2.74815 17.5371 3.48432V6.61019C17.5371 7.34636 16.7872 7.94315 15.8621 7.94315Z" fill="white" stroke="#223044" stroke-width="2" stroke-miterlimit="10" stroke-linecap="round"/>
<path d="M17.9948 13.2529C15.7621 13.2529 13.9449 15.0701 13.9449 17.3028C13.9449 19.5356 15.7621 21.3514 17.9948 21.3514C20.2276 21.3514 22.0434 19.5356 22.0434 17.3028C22.0434 15.0701 20.2276 13.2529 17.9948 13.2529Z" fill="#FAFAFA"/>
<path d="M17.9941 21.7509C20.4509 21.7509 22.4425 19.7593 22.4425 17.3025C22.4425 14.8456 20.4509 12.854 17.9941 12.854C15.5373 12.854 13.5457 14.8456 13.5457 17.3025C13.5457 19.7593 15.5373 21.7509 17.9941 21.7509Z" stroke="#223044" stroke-width="2" stroke-miterlimit="10" stroke-linecap="round"/>
<path d="M17.9944 15.7109V18.8944" stroke="#223044" stroke-width="1.5" stroke-miterlimit="10" stroke-linecap="round"/>
<path d="M19.586 17.3022H16.4026" stroke="#223044" stroke-width="1.5" stroke-miterlimit="10" stroke-linecap="round"/>
</svg>
