<svg width="25" height="25" viewBox="0 0 25 25" fill="none" xmlns="http://www.w3.org/2000/svg">
<path d="M19.0481 20.5486H5.16385C4.11468 20.5486 3.26416 19.6981 3.26416 18.6489V9.26053C3.26416 8.21136 4.11468 7.36084 5.16385 7.36084H19.0481C20.0972 7.36084 20.9478 8.21136 20.9478 9.26053V18.6489C20.9478 19.6981 20.0972 20.5486 19.0481 20.5486Z" fill="#FAFAFA" stroke="#223044" stroke-miterlimit="10" stroke-linecap="round"/>
<path d="M3.0835 12.4517H20.5918V18.5486C20.5918 19.6532 19.6964 20.5486 18.5918 20.5486H5.0835C3.97893 20.5486 3.0835 19.6532 3.0835 18.5486V12.4517Z" fill="#2AA578"/>
<path d="M19.0482 20.5486H5.16394C4.11477 20.5486 3.26425 19.6981 3.26425 18.6489V9.26053C3.26425 8.21136 4.11477 7.36084 5.16394 7.36084H19.0482C20.0973 7.36084 20.9478 8.21136 20.9478 9.26053V18.6489C20.9478 19.6981 20.0973 20.5486 19.0482 20.5486Z" stroke="#223044" stroke-width="2" stroke-miterlimit="10" stroke-linecap="round"/>
<path d="M3.61972 12.2998H20.5918" stroke="#223044" stroke-width="2" stroke-miterlimit="10" stroke-linecap="round"/>
<path d="M14.6661 14.3936H5.23737V15.3936H14.6661V14.3936Z" fill="#FAFAFA"/>
<path d="M18.4381 16.6807H9.00885V17.6807H18.4381V16.6807Z" fill="#FAFAFA"/>
<path d="M18.4381 14.3936H16.5523V15.3936H18.4381V14.3936Z" fill="#FAFAFA"/>
<path d="M7.12315 16.6807H5.23737V17.6807H7.12315V16.6807Z" fill="#FAFAFA"/>
<path d="M7.96531 9.60379H7.90376C6.97868 9.60379 6.22876 9.00701 6.22876 8.27084V5.14497C6.22876 4.4088 6.97868 3.81201 7.90376 3.81201H7.96531C8.89039 3.81201 9.64032 4.4088 9.64032 5.14497V8.27084C9.64032 9.00701 8.89039 9.60379 7.96531 9.60379Z" fill="white" stroke="#223044" stroke-width="2" stroke-miterlimit="10" stroke-linecap="round"/>
<path d="M16.3076 9.60379H16.246C15.321 9.60379 14.571 9.00701 14.571 8.27084V5.14497C14.571 4.4088 15.321 3.81201 16.246 3.81201H16.3076C17.2327 3.81201 17.9826 4.4088 17.9826 5.14497V8.27084C17.9826 9.00701 17.2327 9.60379 16.3076 9.60379Z" fill="white" stroke="#223044" stroke-width="2" stroke-miterlimit="10" stroke-linecap="round"/>
</svg>
